{
	"asset":{
		"generator":"Khronos glTF Blender I/O v4.0.44",
		"version":"2.0"
	},
	"scene":0,
	"scenes":[
		{
			"name":"Scene",
			"nodes":[
				0,
				1,
				2,
				3,
				4,
				5,
				6
			]
		}
	],
	"nodes":[
		{
			"mesh":0,
			"name":"pipe.west_collider",
			"rotation":[
				0,
				-0.7071068286895752,
				0.7071068286895752,
				3.4560699191388267e-07
			]
		},
		{
			"mesh":1,
			"name":"ramp.rectangular.02_collider",
			"rotation":[
				0,
				-1,
				0,
				1.6292068494294654e-07
			]
		},
		{
			"mesh":2,
			"name":"ground"
		},
		{
			"name":"decal.main",
			"rotation":[
				0,
				-0.7071068286895752,
				0.7071068286895752,
				3.4560699191388267e-07
			]
		},
		{
			"name":"decal.ramp.branches",
			"rotation":[
				0,
				-1,
				0,
				1.6292068494294654e-07
			],
			"scale":[
				1.5,
				1.5,
				1.5
			]
		},
		{
			"mesh":3,
			"name":"pipe.west.001",
			"rotation":[
				0,
				-0.7071068286895752,
				0.7071068286895752,
				3.4560699191388267e-07
			]
		},
		{
			"mesh":4,
			"name":"ramp.rectangular.02",
			"rotation":[
				0,
				-1,
				0,
				1.6292068494294654e-07
			]
		}
	],
	"materials":[
		{
			"doubleSided":true,
			"name":"dcl.PiratesPack",
			"pbrMetallicRoughness":{
				"baseColorTexture":{
					"index":0
				},
				"metallicFactor":0
			}
		},
		{
			"doubleSided":true,
			"emissiveFactor":[
				1,
				1,
				1
			],
			"emissiveTexture":{
				"index":1
			},
			"name":"dcl.PiratesPack.emissive",
			"pbrMetallicRoughness":{
				"baseColorTexture":{
					"index":2
				},
				"metallicFactor":0
			}
		}
	],
	"meshes":[
		{
			"name":"Cylinder.083",
			"primitives":[
				{
					"attributes":{
						"POSITION":0,
						"NORMAL":1,
						"TEXCOORD_0":2
					},
					"indices":3
				}
			]
		},
		{
			"name":"Cube.093",
			"primitives":[
				{
					"attributes":{
						"POSITION":4,
						"NORMAL":5,
						"TEXCOORD_0":6,
						"TANGENT":7
					},
					"indices":8
				}
			]
		},
		{
			"name":"Cube.094",
			"primitives":[
				{
					"attributes":{
						"POSITION":9,
						"NORMAL":10,
						"TEXCOORD_0":11,
						"TANGENT":12
					},
					"indices":13,
					"material":0
				}
			]
		},
		{
			"name":"Cylinder.085",
			"primitives":[
				{
					"attributes":{
						"POSITION":14,
						"NORMAL":15,
						"TEXCOORD_0":16,
						"TANGENT":17
					},
					"indices":18,
					"material":0
				},
				{
					"attributes":{
						"POSITION":19,
						"NORMAL":20,
						"TEXCOORD_0":21,
						"TANGENT":22
					},
					"indices":23,
					"material":1
				}
			]
		},
		{
			"name":"Cube.096",
			"primitives":[
				{
					"attributes":{
						"POSITION":24,
						"NORMAL":25,
						"TEXCOORD_0":26,
						"TANGENT":27
					},
					"indices":28,
					"material":0
				}
			]
		}
	],
	"textures":[
		{
			"sampler":0,
			"source":0
		},
		{
			"sampler":0,
			"source":0
		},
		{
			"sampler":0,
			"source":0
		}
	],
	"images":[
		{
			"mimeType":"image/png",
			"name":"PiratesPack_TX",
			"uri":"tex/PiratesPack_TX.png"
		}
	],
	"accessors":[
		{
			"bufferView":0,
			"componentType":5126,
			"count":10,
			"max":[
				3.999980926513672,
				4.000007629394531,
				10.659995079040527
			],
			"min":[
				2.4999618530273438,
				-3.9999923706054688,
				10.350963592529297
			],
			"type":"VEC3"
		},
		{
			"bufferView":1,
			"componentType":5126,
			"count":10,
			"type":"VEC3"
		},
		{
			"bufferView":2,
			"componentType":5126,
			"count":10,
			"type":"VEC2"
		},
		{
			"bufferView":3,
			"componentType":5123,
			"count":24,
			"type":"SCALAR"
		},
		{
			"bufferView":4,
			"componentType":5126,
			"count":13,
			"max":[
				-1.41510009765625,
				-9.684637069702148,
				1.812145709991455
			],
			"min":[
				-3.999998092651367,
				-10.670775413513184,
				-4.000003814697266
			],
			"type":"VEC3"
		},
		{
			"bufferView":5,
			"componentType":5126,
			"count":13,
			"type":"VEC3"
		},
		{
			"bufferView":6,
			"componentType":5126,
			"count":13,
			"type":"VEC2"
		},
		{
			"bufferView":7,
			"componentType":5126,
			"count":13,
			"type":"VEC4"
		},
		{
			"bufferView":8,
			"componentType":5123,
			"count":21,
			"type":"SCALAR"
		},
		{
			"bufferView":9,
			"componentType":5126,
			"count":24,
			"max":[
				4,
				-10.65999984741211,
				4
			],
			"min":[
				-4,
				-10.899999618530273,
				-4
			],
			"type":"VEC3"
		},
		{
			"bufferView":10,
			"componentType":5126,
			"count":24,
			"type":"VEC3"
		},
		{
			"bufferView":11,
			"componentType":5126,
			"count":24,
			"type":"VEC2"
		},
		{
			"bufferView":12,
			"componentType":5126,
			"count":24,
			"type":"VEC4"
		},
		{
			"bufferView":13,
			"componentType":5123,
			"count":36,
			"type":"SCALAR"
		},
		{
			"bufferView":14,
			"componentType":5126,
			"count":6,
			"max":[
				3.999980926513672,
				4.000007629394531,
				10.6305570602417
			],
			"min":[
				3.1326448917388916,
				-3.9999923706054688,
				10.350963592529297
			],
			"type":"VEC3"
		},
		{
			"bufferView":15,
			"componentType":5126,
			"count":6,
			"type":"VEC3"
		},
		{
			"bufferView":16,
			"componentType":5126,
			"count":6,
			"type":"VEC2"
		},
		{
			"bufferView":17,
			"componentType":5126,
			"count":6,
			"type":"VEC4"
		},
		{
			"bufferView":18,
			"componentType":5123,
			"count":12,
			"type":"SCALAR"
		},
		{
			"bufferView":19,
			"componentType":5126,
			"count":4,
			"max":[
				3.1326522827148438,
				4.000007629394531,
				10.659995079040527
			],
			"min":[
				2.4999618530273438,
				-3.9999923706054688,
				10.6305570602417
			],
			"type":"VEC3"
		},
		{
			"bufferView":20,
			"componentType":5126,
			"count":4,
			"type":"VEC3"
		},
		{
			"bufferView":21,
			"componentType":5126,
			"count":4,
			"type":"VEC2"
		},
		{
			"bufferView":22,
			"componentType":5126,
			"count":4,
			"type":"VEC4"
		},
		{
			"bufferView":23,
			"componentType":5123,
			"count":6,
			"type":"SCALAR"
		},
		{
			"bufferView":24,
			"componentType":5126,
			"count":19,
			"max":[
				-1.4485139846801758,
				-9.684637069702148,
				1.7842392921447754
			],
			"min":[
				-3.999998092651367,
				-10.649999618530273,
				-4.000003814697266
			],
			"type":"VEC3"
		},
		{
			"bufferView":25,
			"componentType":5126,
			"count":19,
			"type":"VEC3"
		},
		{
			"bufferView":26,
			"componentType":5126,
			"count":19,
			"type":"VEC2"
		},
		{
			"bufferView":27,
			"componentType":5126,
			"count":19,
			"type":"VEC4"
		},
		{
			"bufferView":28,
			"componentType":5123,
			"count":33,
			"type":"SCALAR"
		}
	],
	"bufferViews":[
		{
			"buffer":0,
			"byteLength":120,
			"byteOffset":0,
			"target":34962
		},
		{
			"buffer":0,
			"byteLength":120,
			"byteOffset":120,
			"target":34962
		},
		{
			"buffer":0,
			"byteLength":80,
			"byteOffset":240,
			"target":34962
		},
		{
			"buffer":0,
			"byteLength":48,
			"byteOffset":320,
			"target":34963
		},
		{
			"buffer":0,
			"byteLength":156,
			"byteOffset":368,
			"target":34962
		},
		{
			"buffer":0,
			"byteLength":156,
			"byteOffset":524,
			"target":34962
		},
		{
			"buffer":0,
			"byteLength":104,
			"byteOffset":680,
			"target":34962
		},
		{
			"buffer":0,
			"byteLength":208,
			"byteOffset":784,
			"target":34962
		},
		{
			"buffer":0,
			"byteLength":42,
			"byteOffset":992,
			"target":34963
		},
		{
			"buffer":0,
			"byteLength":288,
			"byteOffset":1036,
			"target":34962
		},
		{
			"buffer":0,
			"byteLength":288,
			"byteOffset":1324,
			"target":34962
		},
		{
			"buffer":0,
			"byteLength":192,
			"byteOffset":1612,
			"target":34962
		},
		{
			"buffer":0,
			"byteLength":384,
			"byteOffset":1804,
			"target":34962
		},
		{
			"buffer":0,
			"byteLength":72,
			"byteOffset":2188,
			"target":34963
		},
		{
			"buffer":0,
			"byteLength":72,
			"byteOffset":2260,
			"target":34962
		},
		{
			"buffer":0,
			"byteLength":72,
			"byteOffset":2332,
			"target":34962
		},
		{
			"buffer":0,
			"byteLength":48,
			"byteOffset":2404,
			"target":34962
		},
		{
			"buffer":0,
			"byteLength":96,
			"byteOffset":2452,
			"target":34962
		},
		{
			"buffer":0,
			"byteLength":24,
			"byteOffset":2548,
			"target":34963
		},
		{
			"buffer":0,
			"byteLength":48,
			"byteOffset":2572,
			"target":34962
		},
		{
			"buffer":0,
			"byteLength":48,
			"byteOffset":2620,
			"target":34962
		},
		{
			"buffer":0,
			"byteLength":32,
			"byteOffset":2668,
			"target":34962
		},
		{
			"buffer":0,
			"byteLength":64,
			"byteOffset":2700,
			"target":34962
		},
		{
			"buffer":0,
			"byteLength":12,
			"byteOffset":2764,
			"target":34963
		},
		{
			"buffer":0,
			"byteLength":228,
			"byteOffset":2776,
			"target":34962
		},
		{
			"buffer":0,
			"byteLength":228,
			"byteOffset":3004,
			"target":34962
		},
		{
			"buffer":0,
			"byteLength":152,
			"byteOffset":3232,
			"target":34962
		},
		{
			"buffer":0,
			"byteLength":304,
			"byteOffset":3384,
			"target":34962
		},
		{
			"buffer":0,
			"byteLength":66,
			"byteOffset":3688,
			"target":34963
		}
	],
	"samplers":[
		{
			"magFilter":9729,
			"minFilter":9987
		}
	],
	"buffers":[
		{
			"byteLength":3756,
			"uri":"tile_1_0_3.bin"
		}
	]
}
