{
	"asset":{
		"generator":"Khronos glTF Blender I/O v4.0.44",
		"version":"2.0"
	},
	"scene":0,
	"scenes":[
		{
			"name":"Scene",
			"nodes":[
				0,
				1,
				2,
				3,
				4,
				5
			]
		}
	],
	"nodes":[
		{
			"mesh":0,
			"name":"pipe.west_collider",
			"rotation":[
				0,
				-0.7071068286895752,
				0.7071068286895752,
				3.4560699191388267e-07
			]
		},
		{
			"mesh":1,
			"name":"wall.west.001"
		},
		{
			"mesh":2,
			"name":"ground"
		},
		{
			"name":"decal.main",
			"rotation":[
				0,
				-0.7071068286895752,
				0.7071068286895752,
				3.4560699191388267e-07
			]
		},
		{
			"mesh":3,
			"name":"neons.002",
			"rotation":[
				0.7071068286895752,
				-0.7071068286895752,
				0,
				1.1520234011186403e-07
			],
			"scale":[
				0.19999998807907104,
				1,
				44.15021896362305
			]
		},
		{
			"mesh":4,
			"name":"pipe.west.001",
			"rotation":[
				0,
				-0.7071068286895752,
				0.7071068286895752,
				3.4560699191388267e-07
			]
		}
	],
	"materials":[
		{
			"doubleSided":true,
			"name":"dcl.PiratesPack",
			"pbrMetallicRoughness":{
				"baseColorTexture":{
					"index":0
				},
				"metallicFactor":0
			}
		},
		{
			"doubleSided":true,
			"emissiveFactor":[
				1,
				1,
				1
			],
			"emissiveTexture":{
				"index":1
			},
			"name":"dcl.PiratesPack.emissive",
			"pbrMetallicRoughness":{
				"baseColorTexture":{
					"index":2
				},
				"metallicFactor":0
			}
		}
	],
	"meshes":[
		{
			"name":"Cylinder.015",
			"primitives":[
				{
					"attributes":{
						"POSITION":0,
						"NORMAL":1,
						"TEXCOORD_0":2
					},
					"indices":3
				}
			]
		},
		{
			"name":"Cylinder.016",
			"primitives":[
				{
					"attributes":{
						"POSITION":4,
						"NORMAL":5,
						"TEXCOORD_0":6
					},
					"indices":7,
					"material":0
				}
			]
		},
		{
			"name":"Cube.028",
			"primitives":[
				{
					"attributes":{
						"POSITION":8,
						"NORMAL":9,
						"TEXCOORD_0":10
					},
					"indices":11,
					"material":0
				}
			]
		},
		{
			"name":"Plane.003",
			"primitives":[
				{
					"attributes":{
						"POSITION":12,
						"NORMAL":13,
						"TEXCOORD_0":14,
						"TANGENT":15
					},
					"indices":16,
					"material":1
				}
			]
		},
		{
			"name":"Cylinder.019",
			"primitives":[
				{
					"attributes":{
						"POSITION":17,
						"NORMAL":18,
						"TEXCOORD_0":19
					},
					"indices":20,
					"material":0
				},
				{
					"attributes":{
						"POSITION":21,
						"NORMAL":22,
						"TEXCOORD_0":23
					},
					"indices":24,
					"material":1
				}
			]
		}
	],
	"textures":[
		{
			"sampler":0,
			"source":0
		},
		{
			"sampler":0,
			"source":0
		},
		{
			"sampler":0,
			"source":0
		}
	],
	"images":[
		{
			"mimeType":"image/png",
			"name":"PiratesPack_TX",
			"uri":"tex/PiratesPack_TX.png"
		}
	],
	"accessors":[
		{
			"bufferView":0,
			"componentType":5126,
			"count":62,
			"max":[
				3.999965190887451,
				4,
				14.999998092651367
			],
			"min":[
				-4.000034809112549,
				-4,
				3.6380391120910645
			],
			"type":"VEC3"
		},
		{
			"bufferView":1,
			"componentType":5126,
			"count":62,
			"type":"VEC3"
		},
		{
			"bufferView":2,
			"componentType":5126,
			"count":62,
			"type":"VEC2"
		},
		{
			"bufferView":3,
			"componentType":5123,
			"count":147,
			"type":"SCALAR"
		},
		{
			"bufferView":4,
			"componentType":5126,
			"count":31,
			"max":[
				-2.499955177307129,
				7.900005340576172,
				4
			],
			"min":[
				-3.4899847507476807,
				-10.850000381469727,
				-4
			],
			"type":"VEC3"
		},
		{
			"bufferView":5,
			"componentType":5126,
			"count":31,
			"type":"VEC3"
		},
		{
			"bufferView":6,
			"componentType":5126,
			"count":31,
			"type":"VEC2"
		},
		{
			"bufferView":7,
			"componentType":5123,
			"count":57,
			"type":"SCALAR"
		},
		{
			"bufferView":8,
			"componentType":5126,
			"count":36,
			"max":[
				4,
				-10.65999984741211,
				4
			],
			"min":[
				-2.9999542236328125,
				-10.899999618530273,
				-4
			],
			"type":"VEC3"
		},
		{
			"bufferView":9,
			"componentType":5126,
			"count":36,
			"type":"VEC3"
		},
		{
			"bufferView":10,
			"componentType":5126,
			"count":36,
			"type":"VEC2"
		},
		{
			"bufferView":11,
			"componentType":5123,
			"count":60,
			"type":"SCALAR"
		},
		{
			"bufferView":12,
			"componentType":5126,
			"count":8,
			"max":[
				13.374984741210938,
				2.4499316215515137,
				0.09059968590736389
			],
			"min":[
				6.3749847412109375,
				2.4499316215515137,
				-0.09059986472129822
			],
			"type":"VEC3"
		},
		{
			"bufferView":13,
			"componentType":5126,
			"count":8,
			"type":"VEC3"
		},
		{
			"bufferView":14,
			"componentType":5126,
			"count":8,
			"type":"VEC2"
		},
		{
			"bufferView":15,
			"componentType":5126,
			"count":8,
			"type":"VEC4"
		},
		{
			"bufferView":16,
			"componentType":5123,
			"count":12,
			"type":"SCALAR"
		},
		{
			"bufferView":17,
			"componentType":5126,
			"count":68,
			"max":[
				2.499906539916992,
				4,
				10.350957870483398
			],
			"min":[
				-4.000034809112549,
				-4,
				3.6380391120910645
			],
			"type":"VEC3"
		},
		{
			"bufferView":18,
			"componentType":5126,
			"count":68,
			"type":"VEC3"
		},
		{
			"bufferView":19,
			"componentType":5126,
			"count":68,
			"type":"VEC2"
		},
		{
			"bufferView":20,
			"componentType":5123,
			"count":156,
			"type":"SCALAR"
		},
		{
			"bufferView":21,
			"componentType":5126,
			"count":28,
			"max":[
				-3.00005841255188,
				4,
				8.055000305175781
			],
			"min":[
				-3.0000662803649902,
				-4,
				3.6380391120910645
			],
			"type":"VEC3"
		},
		{
			"bufferView":22,
			"componentType":5126,
			"count":28,
			"type":"VEC3"
		},
		{
			"bufferView":23,
			"componentType":5126,
			"count":28,
			"type":"VEC2"
		},
		{
			"bufferView":24,
			"componentType":5123,
			"count":42,
			"type":"SCALAR"
		}
	],
	"bufferViews":[
		{
			"buffer":0,
			"byteLength":744,
			"byteOffset":0,
			"target":34962
		},
		{
			"buffer":0,
			"byteLength":744,
			"byteOffset":744,
			"target":34962
		},
		{
			"buffer":0,
			"byteLength":496,
			"byteOffset":1488,
			"target":34962
		},
		{
			"buffer":0,
			"byteLength":294,
			"byteOffset":1984,
			"target":34963
		},
		{
			"buffer":0,
			"byteLength":372,
			"byteOffset":2280,
			"target":34962
		},
		{
			"buffer":0,
			"byteLength":372,
			"byteOffset":2652,
			"target":34962
		},
		{
			"buffer":0,
			"byteLength":248,
			"byteOffset":3024,
			"target":34962
		},
		{
			"buffer":0,
			"byteLength":114,
			"byteOffset":3272,
			"target":34963
		},
		{
			"buffer":0,
			"byteLength":432,
			"byteOffset":3388,
			"target":34962
		},
		{
			"buffer":0,
			"byteLength":432,
			"byteOffset":3820,
			"target":34962
		},
		{
			"buffer":0,
			"byteLength":288,
			"byteOffset":4252,
			"target":34962
		},
		{
			"buffer":0,
			"byteLength":120,
			"byteOffset":4540,
			"target":34963
		},
		{
			"buffer":0,
			"byteLength":96,
			"byteOffset":4660,
			"target":34962
		},
		{
			"buffer":0,
			"byteLength":96,
			"byteOffset":4756,
			"target":34962
		},
		{
			"buffer":0,
			"byteLength":64,
			"byteOffset":4852,
			"target":34962
		},
		{
			"buffer":0,
			"byteLength":128,
			"byteOffset":4916,
			"target":34962
		},
		{
			"buffer":0,
			"byteLength":24,
			"byteOffset":5044,
			"target":34963
		},
		{
			"buffer":0,
			"byteLength":816,
			"byteOffset":5068,
			"target":34962
		},
		{
			"buffer":0,
			"byteLength":816,
			"byteOffset":5884,
			"target":34962
		},
		{
			"buffer":0,
			"byteLength":544,
			"byteOffset":6700,
			"target":34962
		},
		{
			"buffer":0,
			"byteLength":312,
			"byteOffset":7244,
			"target":34963
		},
		{
			"buffer":0,
			"byteLength":336,
			"byteOffset":7556,
			"target":34962
		},
		{
			"buffer":0,
			"byteLength":336,
			"byteOffset":7892,
			"target":34962
		},
		{
			"buffer":0,
			"byteLength":224,
			"byteOffset":8228,
			"target":34962
		},
		{
			"buffer":0,
			"byteLength":84,
			"byteOffset":8452,
			"target":34963
		}
	],
	"samplers":[
		{
			"magFilter":9729,
			"minFilter":9987
		}
	],
	"buffers":[
		{
			"byteLength":8536,
			"uri":"tile_0_0_1.bin"
		}
	]
}
