{
	"asset":{
		"generator":"Khronos glTF Blender I/O v4.0.44",
		"version":"2.0"
	},
	"scene":0,
	"scenes":[
		{
			"name":"Scene",
			"nodes":[
				0,
				1,
				2,
				3,
				4,
				5,
				6
			]
		}
	],
	"nodes":[
		{
			"mesh":0,
			"name":"pipe.west_collider",
			"rotation":[
				0,
				-0.7071068286895752,
				0.7071068286895752,
				3.4560699191388267e-07
			]
		},
		{
			"mesh":1,
			"name":"wall.north.007"
		},
		{
			"mesh":2,
			"name":"wall.west.011"
		},
		{
			"mesh":3,
			"name":"ground"
		},
		{
			"mesh":4,
			"name":"neons.002",
			"rotation":[
				0.7071068286895752,
				-0.7071068286895752,
				0,
				1.1520234011186403e-07
			],
			"scale":[
				0.19999998807907104,
				1,
				44.15021896362305
			]
		},
		{
			"mesh":5,
			"name":"neons.004",
			"rotation":[
				-0.5000002384185791,
				0.5000001788139343,
				-0.4999997615814209,
				0.4999998211860657
			],
			"scale":[
				0.19999998807907104,
				1,
				47.68861770629883
			]
		},
		{
			"mesh":6,
			"name":"pipe.west.001",
			"rotation":[
				0,
				-0.7071068286895752,
				0.7071068286895752,
				3.4560699191388267e-07
			]
		}
	],
	"materials":[
		{
			"doubleSided":true,
			"name":"dcl.PiratesPack",
			"pbrMetallicRoughness":{
				"baseColorTexture":{
					"index":0
				},
				"metallicFactor":0
			}
		},
		{
			"doubleSided":true,
			"emissiveFactor":[
				1,
				1,
				1
			],
			"emissiveTexture":{
				"index":1
			},
			"name":"dcl.PiratesPack.emissive",
			"pbrMetallicRoughness":{
				"baseColorTexture":{
					"index":2
				},
				"metallicFactor":0
			}
		}
	],
	"meshes":[
		{
			"name":"Cylinder.069",
			"primitives":[
				{
					"attributes":{
						"POSITION":0,
						"NORMAL":1,
						"TEXCOORD_0":2
					},
					"indices":3
				}
			]
		},
		{
			"name":"Cylinder.070",
			"primitives":[
				{
					"attributes":{
						"POSITION":4,
						"NORMAL":5,
						"TEXCOORD_0":6,
						"TANGENT":7
					},
					"indices":8,
					"material":0
				}
			]
		},
		{
			"name":"Cylinder.071",
			"primitives":[
				{
					"attributes":{
						"POSITION":9,
						"NORMAL":10,
						"TEXCOORD_0":11
					},
					"indices":12,
					"material":0
				}
			]
		},
		{
			"name":"Cube.059",
			"primitives":[
				{
					"attributes":{
						"POSITION":13,
						"NORMAL":14,
						"TEXCOORD_0":15
					},
					"indices":16,
					"material":0
				}
			]
		},
		{
			"name":"Plane.013",
			"primitives":[
				{
					"attributes":{
						"POSITION":17,
						"NORMAL":18,
						"TEXCOORD_0":19,
						"TANGENT":20
					},
					"indices":21,
					"material":1
				}
			]
		},
		{
			"name":"Plane.014",
			"primitives":[
				{
					"attributes":{
						"POSITION":22,
						"NORMAL":23,
						"TEXCOORD_0":24,
						"TANGENT":25
					},
					"indices":26,
					"material":1
				}
			]
		},
		{
			"name":"Cylinder.072",
			"primitives":[
				{
					"attributes":{
						"POSITION":27,
						"NORMAL":28,
						"TEXCOORD_0":29
					},
					"indices":30,
					"material":0
				},
				{
					"attributes":{
						"POSITION":31,
						"NORMAL":32,
						"TEXCOORD_0":33
					},
					"indices":34,
					"material":1
				}
			]
		}
	],
	"textures":[
		{
			"sampler":0,
			"source":0
		},
		{
			"sampler":0,
			"source":0
		},
		{
			"sampler":0,
			"source":0
		}
	],
	"images":[
		{
			"mimeType":"image/png",
			"name":"PiratesPack_TX",
			"uri":"tex/PiratesPack_TX.png"
		}
	],
	"accessors":[
		{
			"bufferView":0,
			"componentType":5126,
			"count":40,
			"max":[
				2.4999759197235107,
				1.1444091796875e-05,
				15.000001907348633
			],
			"min":[
				-3.9999566078186035,
				-3.9999961853027344,
				3.638042449951172
			],
			"type":"VEC3"
		},
		{
			"bufferView":1,
			"componentType":5126,
			"count":40,
			"type":"VEC3"
		},
		{
			"bufferView":2,
			"componentType":5126,
			"count":40,
			"type":"VEC2"
		},
		{
			"bufferView":3,
			"componentType":5123,
			"count":96,
			"type":"SCALAR"
		},
		{
			"bufferView":4,
			"componentType":5126,
			"count":24,
			"max":[
				4,
				1.6000041961669922,
				1.0788440704345703e-05
			],
			"min":[
				-3.4899864196777344,
				-10.899999618530273,
				-0.9999834895133972
			],
			"type":"VEC3"
		},
		{
			"bufferView":5,
			"componentType":5126,
			"count":24,
			"type":"VEC3"
		},
		{
			"bufferView":6,
			"componentType":5126,
			"count":24,
			"type":"VEC2"
		},
		{
			"bufferView":7,
			"componentType":5126,
			"count":24,
			"type":"VEC4"
		},
		{
			"bufferView":8,
			"componentType":5123,
			"count":36,
			"type":"SCALAR"
		},
		{
			"bufferView":9,
			"componentType":5126,
			"count":48,
			"max":[
				-2.5000123977661133,
				7.869240760803223,
				4
			],
			"min":[
				-3.489985227584839,
				-10.850003242492676,
				-0.6876411437988281
			],
			"type":"VEC3"
		},
		{
			"bufferView":10,
			"componentType":5126,
			"count":48,
			"type":"VEC3"
		},
		{
			"bufferView":11,
			"componentType":5126,
			"count":48,
			"type":"VEC2"
		},
		{
			"bufferView":12,
			"componentType":5123,
			"count":114,
			"type":"SCALAR"
		},
		{
			"bufferView":13,
			"componentType":5126,
			"count":46,
			"max":[
				4,
				-10.65999984741211,
				4
			],
			"min":[
				-2.9999542236328125,
				-10.899999618530273,
				-0.9999923706054688
			],
			"type":"VEC3"
		},
		{
			"bufferView":14,
			"componentType":5126,
			"count":46,
			"type":"VEC3"
		},
		{
			"bufferView":15,
			"componentType":5126,
			"count":46,
			"type":"VEC2"
		},
		{
			"bufferView":16,
			"componentType":5123,
			"count":72,
			"type":"SCALAR"
		},
		{
			"bufferView":17,
			"componentType":5126,
			"count":8,
			"max":[
				13.374984741210938,
				2.449958324432373,
				0.0038230419158935547
			],
			"min":[
				6.3749847412109375,
				2.449958324432373,
				-0.09059977531433105
			],
			"type":"VEC3"
		},
		{
			"bufferView":18,
			"componentType":5126,
			"count":8,
			"type":"VEC3"
		},
		{
			"bufferView":19,
			"componentType":5126,
			"count":8,
			"type":"VEC2"
		},
		{
			"bufferView":20,
			"componentType":5126,
			"count":8,
			"type":"VEC4"
		},
		{
			"bufferView":21,
			"componentType":5123,
			"count":12,
			"type":"SCALAR"
		},
		{
			"bufferView":22,
			"componentType":5126,
			"count":8,
			"max":[
				13.375003814697266,
				-0.050024598836898804,
				0.08387737721204758
			],
			"min":[
				6.375002384185791,
				-0.05002601444721222,
				-0.07318288832902908
			],
			"type":"VEC3"
		},
		{
			"bufferView":23,
			"componentType":5126,
			"count":8,
			"type":"VEC3"
		},
		{
			"bufferView":24,
			"componentType":5126,
			"count":8,
			"type":"VEC2"
		},
		{
			"bufferView":25,
			"componentType":5126,
			"count":8,
			"type":"VEC4"
		},
		{
			"bufferView":26,
			"componentType":5123,
			"count":12,
			"type":"SCALAR"
		},
		{
			"bufferView":27,
			"componentType":5126,
			"count":30,
			"max":[
				2.4999759197235107,
				1.1444091796875e-05,
				15.000001907348633
			],
			"min":[
				-3.9999566078186035,
				-3.9999961853027344,
				3.638042449951172
			],
			"type":"VEC3"
		},
		{
			"bufferView":28,
			"componentType":5126,
			"count":30,
			"type":"VEC3"
		},
		{
			"bufferView":29,
			"componentType":5126,
			"count":30,
			"type":"VEC2"
		},
		{
			"bufferView":30,
			"componentType":5123,
			"count":60,
			"type":"SCALAR"
		},
		{
			"bufferView":31,
			"componentType":5126,
			"count":4,
			"max":[
				-2.9999887943267822,
				7.62939453125e-06,
				4.13804292678833
			],
			"min":[
				-2.999992847442627,
				-3.9999961853027344,
				3.638042449951172
			],
			"type":"VEC3"
		},
		{
			"bufferView":32,
			"componentType":5126,
			"count":4,
			"type":"VEC3"
		},
		{
			"bufferView":33,
			"componentType":5126,
			"count":4,
			"type":"VEC2"
		},
		{
			"bufferView":34,
			"componentType":5123,
			"count":6,
			"type":"SCALAR"
		}
	],
	"bufferViews":[
		{
			"buffer":0,
			"byteLength":480,
			"byteOffset":0,
			"target":34962
		},
		{
			"buffer":0,
			"byteLength":480,
			"byteOffset":480,
			"target":34962
		},
		{
			"buffer":0,
			"byteLength":320,
			"byteOffset":960,
			"target":34962
		},
		{
			"buffer":0,
			"byteLength":192,
			"byteOffset":1280,
			"target":34963
		},
		{
			"buffer":0,
			"byteLength":288,
			"byteOffset":1472,
			"target":34962
		},
		{
			"buffer":0,
			"byteLength":288,
			"byteOffset":1760,
			"target":34962
		},
		{
			"buffer":0,
			"byteLength":192,
			"byteOffset":2048,
			"target":34962
		},
		{
			"buffer":0,
			"byteLength":384,
			"byteOffset":2240,
			"target":34962
		},
		{
			"buffer":0,
			"byteLength":72,
			"byteOffset":2624,
			"target":34963
		},
		{
			"buffer":0,
			"byteLength":576,
			"byteOffset":2696,
			"target":34962
		},
		{
			"buffer":0,
			"byteLength":576,
			"byteOffset":3272,
			"target":34962
		},
		{
			"buffer":0,
			"byteLength":384,
			"byteOffset":3848,
			"target":34962
		},
		{
			"buffer":0,
			"byteLength":228,
			"byteOffset":4232,
			"target":34963
		},
		{
			"buffer":0,
			"byteLength":552,
			"byteOffset":4460,
			"target":34962
		},
		{
			"buffer":0,
			"byteLength":552,
			"byteOffset":5012,
			"target":34962
		},
		{
			"buffer":0,
			"byteLength":368,
			"byteOffset":5564,
			"target":34962
		},
		{
			"buffer":0,
			"byteLength":144,
			"byteOffset":5932,
			"target":34963
		},
		{
			"buffer":0,
			"byteLength":96,
			"byteOffset":6076,
			"target":34962
		},
		{
			"buffer":0,
			"byteLength":96,
			"byteOffset":6172,
			"target":34962
		},
		{
			"buffer":0,
			"byteLength":64,
			"byteOffset":6268,
			"target":34962
		},
		{
			"buffer":0,
			"byteLength":128,
			"byteOffset":6332,
			"target":34962
		},
		{
			"buffer":0,
			"byteLength":24,
			"byteOffset":6460,
			"target":34963
		},
		{
			"buffer":0,
			"byteLength":96,
			"byteOffset":6484,
			"target":34962
		},
		{
			"buffer":0,
			"byteLength":96,
			"byteOffset":6580,
			"target":34962
		},
		{
			"buffer":0,
			"byteLength":64,
			"byteOffset":6676,
			"target":34962
		},
		{
			"buffer":0,
			"byteLength":128,
			"byteOffset":6740,
			"target":34962
		},
		{
			"buffer":0,
			"byteLength":24,
			"byteOffset":6868,
			"target":34963
		},
		{
			"buffer":0,
			"byteLength":360,
			"byteOffset":6892,
			"target":34962
		},
		{
			"buffer":0,
			"byteLength":360,
			"byteOffset":7252,
			"target":34962
		},
		{
			"buffer":0,
			"byteLength":240,
			"byteOffset":7612,
			"target":34962
		},
		{
			"buffer":0,
			"byteLength":120,
			"byteOffset":7852,
			"target":34963
		},
		{
			"buffer":0,
			"byteLength":48,
			"byteOffset":7972,
			"target":34962
		},
		{
			"buffer":0,
			"byteLength":48,
			"byteOffset":8020,
			"target":34962
		},
		{
			"buffer":0,
			"byteLength":32,
			"byteOffset":8068,
			"target":34962
		},
		{
			"buffer":0,
			"byteLength":12,
			"byteOffset":8100,
			"target":34963
		}
	],
	"samplers":[
		{
			"magFilter":9729,
			"minFilter":9987
		}
	],
	"buffers":[
		{
			"byteLength":8112,
			"uri":"tile_0_0_11.bin"
		}
	]
}
