{
	"asset":{
		"generator":"Khronos glTF Blender I/O v4.0.44",
		"version":"2.0"
	},
	"scene":0,
	"scenes":[
		{
			"name":"Scene",
			"nodes":[
				0,
				1,
				2,
				3,
				4,
				5,
				6,
				7
			]
		}
	],
	"nodes":[
		{
			"mesh":0,
			"name":"ramp.rectangular.03_collider",
			"rotation":[
				0,
				-1,
				0,
				1.6292068494294654e-07
			]
		},
		{
			"mesh":1,
			"name":"ramp.rectangular.04_collider",
			"rotation":[
				0,
				0,
				0.3214394450187683,
				0.9469301104545593
			]
		},
		{
			"mesh":2,
			"name":"ramp.rectangular.06_collider",
			"rotation":[
				-0.2438528835773468,
				0,
				0,
				0.9698123335838318
			],
			"scale":[
				1.4041002988815308,
				1,
				1
			]
		},
		{
			"mesh":3,
			"name":"ramp.rectangular.06_collider.001_collider",
			"rotation":[
				-0.07481721043586731,
				0,
				0,
				0.9971972703933716
			],
			"scale":[
				1.344779372215271,
				1,
				1
			]
		},
		{
			"mesh":4,
			"name":"ground"
		},
		{
			"name":"decal.main",
			"rotation":[
				0,
				-0.7071068286895752,
				0.7071068286895752,
				3.4560699191388267e-07
			]
		},
		{
			"name":"decal.ramp.branches",
			"rotation":[
				0,
				-1,
				0,
				1.6292068494294654e-07
			],
			"scale":[
				1.5,
				1.5,
				1.5
			]
		},
		{
			"mesh":5,
			"name":"ramp.rectangular.01",
			"rotation":[
				0,
				-1,
				0,
				1.6292068494294654e-07
			]
		}
	],
	"materials":[
		{
			"doubleSided":true,
			"name":"dcl.PiratesPack",
			"pbrMetallicRoughness":{
				"baseColorTexture":{
					"index":0
				},
				"metallicFactor":0
			}
		}
	],
	"meshes":[
		{
			"name":"Cube.221",
			"primitives":[
				{
					"attributes":{
						"POSITION":0,
						"NORMAL":1,
						"TEXCOORD_0":2,
						"TANGENT":3
					},
					"indices":4
				}
			]
		},
		{
			"name":"Cube.222",
			"primitives":[
				{
					"attributes":{
						"POSITION":5,
						"NORMAL":6,
						"TEXCOORD_0":7,
						"TANGENT":8
					},
					"indices":9
				}
			]
		},
		{
			"name":"Cube.223",
			"primitives":[
				{
					"attributes":{
						"POSITION":10,
						"NORMAL":11,
						"TEXCOORD_0":12
					},
					"indices":13
				}
			]
		},
		{
			"name":"Cube.224",
			"primitives":[
				{
					"attributes":{
						"POSITION":14,
						"NORMAL":15,
						"TEXCOORD_0":16,
						"TANGENT":17
					},
					"indices":18
				}
			]
		},
		{
			"name":"Cube.225",
			"primitives":[
				{
					"attributes":{
						"POSITION":19,
						"NORMAL":20,
						"TEXCOORD_0":21,
						"TANGENT":22
					},
					"indices":23,
					"material":0
				}
			]
		},
		{
			"name":"Cube.227",
			"primitives":[
				{
					"attributes":{
						"POSITION":24,
						"NORMAL":25,
						"TEXCOORD_0":26
					},
					"indices":27,
					"material":0
				}
			]
		}
	],
	"textures":[
		{
			"sampler":0,
			"source":0
		}
	],
	"images":[
		{
			"mimeType":"image/png",
			"name":"PiratesPack_TX",
			"uri":"tex/PiratesPack_TX.png"
		}
	],
	"accessors":[
		{
			"bufferView":0,
			"componentType":5126,
			"count":24,
			"max":[
				0.49933457374572754,
				-9,
				0.4999828338623047
			],
			"min":[
				-3.8616700172424316,
				-10.649999618530273,
				-4
			],
			"type":"VEC3"
		},
		{
			"bufferView":1,
			"componentType":5126,
			"count":24,
			"type":"VEC3"
		},
		{
			"bufferView":2,
			"componentType":5126,
			"count":24,
			"type":"VEC2"
		},
		{
			"bufferView":3,
			"componentType":5126,
			"count":24,
			"type":"VEC4"
		},
		{
			"bufferView":4,
			"componentType":5123,
			"count":36,
			"type":"SCALAR"
		},
		{
			"bufferView":5,
			"componentType":5126,
			"count":24,
			"max":[
				-5.874936103820801,
				-6.835521697998047,
				4
			],
			"min":[
				-10.235941886901855,
				-8.48552131652832,
				-0.500330924987793
			],
			"type":"VEC3"
		},
		{
			"bufferView":6,
			"componentType":5126,
			"count":24,
			"type":"VEC3"
		},
		{
			"bufferView":7,
			"componentType":5126,
			"count":24,
			"type":"VEC2"
		},
		{
			"bufferView":8,
			"componentType":5126,
			"count":24,
			"type":"VEC4"
		},
		{
			"bufferView":9,
			"componentType":5123,
			"count":36,
			"type":"SCALAR"
		},
		{
			"bufferView":10,
			"componentType":5126,
			"count":30,
			"max":[
				2.7496604919433594,
				-7.695130348205566,
				-4.696017265319824
			],
			"min":[
				-0.37474751472473145,
				-9.34512996673584,
				-9.084918975830078
			],
			"type":"VEC3"
		},
		{
			"bufferView":11,
			"componentType":5126,
			"count":30,
			"type":"VEC3"
		},
		{
			"bufferView":12,
			"componentType":5126,
			"count":30,
			"type":"VEC2"
		},
		{
			"bufferView":13,
			"componentType":5123,
			"count":48,
			"type":"SCALAR"
		},
		{
			"bufferView":14,
			"componentType":5126,
			"count":24,
			"max":[
				2.875208854675293,
				-9.752592086791992,
				-3.8851747512817383
			],
			"min":[
				-0.39554524421691895,
				-10.577591896057129,
				-5.641495704650879
			],
			"type":"VEC3"
		},
		{
			"bufferView":15,
			"componentType":5126,
			"count":24,
			"type":"VEC3"
		},
		{
			"bufferView":16,
			"componentType":5126,
			"count":24,
			"type":"VEC2"
		},
		{
			"bufferView":17,
			"componentType":5126,
			"count":24,
			"type":"VEC4"
		},
		{
			"bufferView":18,
			"componentType":5123,
			"count":36,
			"type":"SCALAR"
		},
		{
			"bufferView":19,
			"componentType":5126,
			"count":24,
			"max":[
				4,
				-10.65999984741211,
				4
			],
			"min":[
				-4,
				-10.899999618530273,
				-4
			],
			"type":"VEC3"
		},
		{
			"bufferView":20,
			"componentType":5126,
			"count":24,
			"type":"VEC3"
		},
		{
			"bufferView":21,
			"componentType":5126,
			"count":24,
			"type":"VEC2"
		},
		{
			"bufferView":22,
			"componentType":5126,
			"count":24,
			"type":"VEC4"
		},
		{
			"bufferView":23,
			"componentType":5123,
			"count":36,
			"type":"SCALAR"
		},
		{
			"bufferView":24,
			"componentType":5126,
			"count":62,
			"max":[
				2.6798338890075684,
				-9,
				4
			],
			"min":[
				-3.86167311668396,
				-10.649999618530273,
				-4
			],
			"type":"VEC3"
		},
		{
			"bufferView":25,
			"componentType":5126,
			"count":62,
			"type":"VEC3"
		},
		{
			"bufferView":26,
			"componentType":5126,
			"count":62,
			"type":"VEC2"
		},
		{
			"bufferView":27,
			"componentType":5123,
			"count":93,
			"type":"SCALAR"
		}
	],
	"bufferViews":[
		{
			"buffer":0,
			"byteLength":288,
			"byteOffset":0,
			"target":34962
		},
		{
			"buffer":0,
			"byteLength":288,
			"byteOffset":288,
			"target":34962
		},
		{
			"buffer":0,
			"byteLength":192,
			"byteOffset":576,
			"target":34962
		},
		{
			"buffer":0,
			"byteLength":384,
			"byteOffset":768,
			"target":34962
		},
		{
			"buffer":0,
			"byteLength":72,
			"byteOffset":1152,
			"target":34963
		},
		{
			"buffer":0,
			"byteLength":288,
			"byteOffset":1224,
			"target":34962
		},
		{
			"buffer":0,
			"byteLength":288,
			"byteOffset":1512,
			"target":34962
		},
		{
			"buffer":0,
			"byteLength":192,
			"byteOffset":1800,
			"target":34962
		},
		{
			"buffer":0,
			"byteLength":384,
			"byteOffset":1992,
			"target":34962
		},
		{
			"buffer":0,
			"byteLength":72,
			"byteOffset":2376,
			"target":34963
		},
		{
			"buffer":0,
			"byteLength":360,
			"byteOffset":2448,
			"target":34962
		},
		{
			"buffer":0,
			"byteLength":360,
			"byteOffset":2808,
			"target":34962
		},
		{
			"buffer":0,
			"byteLength":240,
			"byteOffset":3168,
			"target":34962
		},
		{
			"buffer":0,
			"byteLength":96,
			"byteOffset":3408,
			"target":34963
		},
		{
			"buffer":0,
			"byteLength":288,
			"byteOffset":3504,
			"target":34962
		},
		{
			"buffer":0,
			"byteLength":288,
			"byteOffset":3792,
			"target":34962
		},
		{
			"buffer":0,
			"byteLength":192,
			"byteOffset":4080,
			"target":34962
		},
		{
			"buffer":0,
			"byteLength":384,
			"byteOffset":4272,
			"target":34962
		},
		{
			"buffer":0,
			"byteLength":72,
			"byteOffset":4656,
			"target":34963
		},
		{
			"buffer":0,
			"byteLength":288,
			"byteOffset":4728,
			"target":34962
		},
		{
			"buffer":0,
			"byteLength":288,
			"byteOffset":5016,
			"target":34962
		},
		{
			"buffer":0,
			"byteLength":192,
			"byteOffset":5304,
			"target":34962
		},
		{
			"buffer":0,
			"byteLength":384,
			"byteOffset":5496,
			"target":34962
		},
		{
			"buffer":0,
			"byteLength":72,
			"byteOffset":5880,
			"target":34963
		},
		{
			"buffer":0,
			"byteLength":744,
			"byteOffset":5952,
			"target":34962
		},
		{
			"buffer":0,
			"byteLength":744,
			"byteOffset":6696,
			"target":34962
		},
		{
			"buffer":0,
			"byteLength":496,
			"byteOffset":7440,
			"target":34962
		},
		{
			"buffer":0,
			"byteLength":186,
			"byteOffset":7936,
			"target":34963
		}
	],
	"samplers":[
		{
			"magFilter":9729,
			"minFilter":9987
		}
	],
	"buffers":[
		{
			"byteLength":8124,
			"uri":"tile_5_0_3.bin"
		}
	]
}
