{
	"asset":{
		"generator":"Khronos glTF Blender I/O v4.0.44",
		"version":"2.0"
	},
	"scene":0,
	"scenes":[
		{
			"name":"Scene",
			"nodes":[
				0,
				1,
				2,
				3,
				4,
				5,
				6,
				7
			]
		}
	],
	"nodes":[
		{
			"mesh":0,
			"name":"pipe.west_collider",
			"rotation":[
				0,
				-0.7071068286895752,
				0.7071068286895752,
				3.4560699191388267e-07
			]
		},
		{
			"mesh":1,
			"name":"wall.south.007"
		},
		{
			"mesh":2,
			"name":"wall.west.013"
		},
		{
			"mesh":3,
			"name":"ground"
		},
		{
			"name":"decal.main",
			"rotation":[
				0,
				-0.7071068286895752,
				0.7071068286895752,
				3.4560699191388267e-07
			]
		},
		{
			"mesh":4,
			"name":"neons.002",
			"rotation":[
				0.7071068286895752,
				-0.7071068286895752,
				0,
				1.1520234011186403e-07
			],
			"scale":[
				0.19999998807907104,
				1,
				44.15021896362305
			]
		},
		{
			"mesh":5,
			"name":"neons.003",
			"rotation":[
				0.4999999403953552,
				-0.49999988079071045,
				-0.5000001192092896,
				0.5000001192092896
			],
			"scale":[
				0.19999998807907104,
				1,
				47.68861770629883
			]
		},
		{
			"mesh":6,
			"name":"pipe.west.001",
			"rotation":[
				0,
				-0.7071068286895752,
				0.7071068286895752,
				3.4560699191388267e-07
			]
		}
	],
	"materials":[
		{
			"doubleSided":true,
			"name":"dcl.PiratesPack",
			"pbrMetallicRoughness":{
				"baseColorTexture":{
					"index":0
				},
				"metallicFactor":0
			}
		},
		{
			"doubleSided":true,
			"emissiveFactor":[
				1,
				1,
				1
			],
			"emissiveTexture":{
				"index":1
			},
			"name":"dcl.PiratesPack.emissive",
			"pbrMetallicRoughness":{
				"baseColorTexture":{
					"index":2
				},
				"metallicFactor":0
			}
		}
	],
	"meshes":[
		{
			"name":"Cylinder.001",
			"primitives":[
				{
					"attributes":{
						"POSITION":0,
						"NORMAL":1,
						"TEXCOORD_0":2,
						"TANGENT":3
					},
					"indices":4
				}
			]
		},
		{
			"name":"Cylinder.007",
			"primitives":[
				{
					"attributes":{
						"POSITION":5,
						"NORMAL":6,
						"TEXCOORD_0":7,
						"TANGENT":8
					},
					"indices":9,
					"material":0
				}
			]
		},
		{
			"name":"Cylinder.012",
			"primitives":[
				{
					"attributes":{
						"POSITION":10,
						"NORMAL":11,
						"TEXCOORD_0":12
					},
					"indices":13,
					"material":0
				}
			]
		},
		{
			"name":"Cube.025",
			"primitives":[
				{
					"attributes":{
						"POSITION":14,
						"NORMAL":15,
						"TEXCOORD_0":16
					},
					"indices":17,
					"material":0
				}
			]
		},
		{
			"name":"Plane.001",
			"primitives":[
				{
					"attributes":{
						"POSITION":18,
						"NORMAL":19,
						"TEXCOORD_0":20,
						"TANGENT":21
					},
					"indices":22,
					"material":1
				}
			]
		},
		{
			"name":"Plane.002",
			"primitives":[
				{
					"attributes":{
						"POSITION":23,
						"NORMAL":24,
						"TEXCOORD_0":25,
						"TANGENT":26
					},
					"indices":27,
					"material":1
				}
			]
		},
		{
			"name":"Cylinder.014",
			"primitives":[
				{
					"attributes":{
						"POSITION":28,
						"NORMAL":29,
						"TEXCOORD_0":30
					},
					"indices":31,
					"material":0
				},
				{
					"attributes":{
						"POSITION":32,
						"NORMAL":33,
						"TEXCOORD_0":34
					},
					"indices":35,
					"material":1
				}
			]
		}
	],
	"textures":[
		{
			"sampler":0,
			"source":0
		},
		{
			"sampler":0,
			"source":0
		},
		{
			"sampler":0,
			"source":0
		}
	],
	"images":[
		{
			"mimeType":"image/png",
			"name":"PiratesPack_TX",
			"uri":"tex/PiratesPack_TX.png"
		}
	],
	"accessors":[
		{
			"bufferView":0,
			"componentType":5126,
			"count":43,
			"max":[
				2.4998903274536133,
				4,
				10.350953102111816
			],
			"min":[
				-4.000042915344238,
				-0.7973175048828125,
				3.6380386352539062
			],
			"type":"VEC3"
		},
		{
			"bufferView":1,
			"componentType":5126,
			"count":43,
			"type":"VEC3"
		},
		{
			"bufferView":2,
			"componentType":5126,
			"count":43,
			"type":"VEC2"
		},
		{
			"bufferView":3,
			"componentType":5126,
			"count":43,
			"type":"VEC4"
		},
		{
			"bufferView":4,
			"componentType":5123,
			"count":72,
			"type":"SCALAR"
		},
		{
			"bufferView":5,
			"componentType":5126,
			"count":24,
			"max":[
				4,
				1.6000008583068848,
				1.0000312328338623
			],
			"min":[
				-3.4899845123291016,
				-10.899999618530273,
				3.68952751159668e-05
			],
			"type":"VEC3"
		},
		{
			"bufferView":6,
			"componentType":5126,
			"count":24,
			"type":"VEC3"
		},
		{
			"bufferView":7,
			"componentType":5126,
			"count":24,
			"type":"VEC2"
		},
		{
			"bufferView":8,
			"componentType":5126,
			"count":24,
			"type":"VEC4"
		},
		{
			"bufferView":9,
			"componentType":5123,
			"count":36,
			"type":"SCALAR"
		},
		{
			"bufferView":10,
			"componentType":5126,
			"count":45,
			"max":[
				-2.499952554702759,
				7.795315742492676,
				-0.00385284423828125
			],
			"min":[
				-3.4899847507476807,
				-10.850000381469727,
				-4
			],
			"type":"VEC3"
		},
		{
			"bufferView":11,
			"componentType":5126,
			"count":45,
			"type":"VEC3"
		},
		{
			"bufferView":12,
			"componentType":5126,
			"count":45,
			"type":"VEC2"
		},
		{
			"bufferView":13,
			"componentType":5123,
			"count":105,
			"type":"SCALAR"
		},
		{
			"bufferView":14,
			"componentType":5126,
			"count":44,
			"max":[
				4,
				-10.65999984741211,
				0
			],
			"min":[
				-2.9999542236328125,
				-10.899999618530273,
				-4
			],
			"type":"VEC3"
		},
		{
			"bufferView":15,
			"componentType":5126,
			"count":44,
			"type":"VEC3"
		},
		{
			"bufferView":16,
			"componentType":5126,
			"count":44,
			"type":"VEC2"
		},
		{
			"bufferView":17,
			"componentType":5123,
			"count":72,
			"type":"SCALAR"
		},
		{
			"bufferView":18,
			"componentType":5126,
			"count":8,
			"max":[
				13.374984741210938,
				2.4499292373657227,
				0.09059968590736389
			],
			"min":[
				6.3749847412109375,
				2.4499292373657227,
				-0.0029819905757904053
			],
			"type":"VEC3"
		},
		{
			"bufferView":19,
			"componentType":5126,
			"count":8,
			"type":"VEC3"
		},
		{
			"bufferView":20,
			"componentType":5126,
			"count":8,
			"type":"VEC2"
		},
		{
			"bufferView":21,
			"componentType":5126,
			"count":8,
			"type":"VEC4"
		},
		{
			"bufferView":22,
			"componentType":5123,
			"count":12,
			"type":"SCALAR"
		},
		{
			"bufferView":23,
			"componentType":5126,
			"count":8,
			"max":[
				13.375003814697266,
				-0.09996554255485535,
				0.04775703698396683
			],
			"min":[
				6.375003337860107,
				-0.09996578097343445,
				-0.0838773176074028
			],
			"type":"VEC3"
		},
		{
			"bufferView":24,
			"componentType":5126,
			"count":8,
			"type":"VEC3"
		},
		{
			"bufferView":25,
			"componentType":5126,
			"count":8,
			"type":"VEC2"
		},
		{
			"bufferView":26,
			"componentType":5126,
			"count":8,
			"type":"VEC4"
		},
		{
			"bufferView":27,
			"componentType":5123,
			"count":12,
			"type":"SCALAR"
		},
		{
			"bufferView":28,
			"componentType":5126,
			"count":32,
			"max":[
				2.4998903274536133,
				4,
				10.350953102111816
			],
			"min":[
				-4.000042915344238,
				-0.7973175048828125,
				3.6380386352539062
			],
			"type":"VEC3"
		},
		{
			"bufferView":29,
			"componentType":5126,
			"count":32,
			"type":"VEC3"
		},
		{
			"bufferView":30,
			"componentType":5126,
			"count":32,
			"type":"VEC2"
		},
		{
			"bufferView":31,
			"componentType":5123,
			"count":63,
			"type":"SCALAR"
		},
		{
			"bufferView":32,
			"componentType":5126,
			"count":4,
			"max":[
				-3.0000743865966797,
				4,
				4.1380391120910645
			],
			"min":[
				-3.0000791549682617,
				-0.7973136901855469,
				3.6380386352539062
			],
			"type":"VEC3"
		},
		{
			"bufferView":33,
			"componentType":5126,
			"count":4,
			"type":"VEC3"
		},
		{
			"bufferView":34,
			"componentType":5126,
			"count":4,
			"type":"VEC2"
		},
		{
			"bufferView":35,
			"componentType":5123,
			"count":6,
			"type":"SCALAR"
		}
	],
	"bufferViews":[
		{
			"buffer":0,
			"byteLength":516,
			"byteOffset":0,
			"target":34962
		},
		{
			"buffer":0,
			"byteLength":516,
			"byteOffset":516,
			"target":34962
		},
		{
			"buffer":0,
			"byteLength":344,
			"byteOffset":1032,
			"target":34962
		},
		{
			"buffer":0,
			"byteLength":688,
			"byteOffset":1376,
			"target":34962
		},
		{
			"buffer":0,
			"byteLength":144,
			"byteOffset":2064,
			"target":34963
		},
		{
			"buffer":0,
			"byteLength":288,
			"byteOffset":2208,
			"target":34962
		},
		{
			"buffer":0,
			"byteLength":288,
			"byteOffset":2496,
			"target":34962
		},
		{
			"buffer":0,
			"byteLength":192,
			"byteOffset":2784,
			"target":34962
		},
		{
			"buffer":0,
			"byteLength":384,
			"byteOffset":2976,
			"target":34962
		},
		{
			"buffer":0,
			"byteLength":72,
			"byteOffset":3360,
			"target":34963
		},
		{
			"buffer":0,
			"byteLength":540,
			"byteOffset":3432,
			"target":34962
		},
		{
			"buffer":0,
			"byteLength":540,
			"byteOffset":3972,
			"target":34962
		},
		{
			"buffer":0,
			"byteLength":360,
			"byteOffset":4512,
			"target":34962
		},
		{
			"buffer":0,
			"byteLength":210,
			"byteOffset":4872,
			"target":34963
		},
		{
			"buffer":0,
			"byteLength":528,
			"byteOffset":5084,
			"target":34962
		},
		{
			"buffer":0,
			"byteLength":528,
			"byteOffset":5612,
			"target":34962
		},
		{
			"buffer":0,
			"byteLength":352,
			"byteOffset":6140,
			"target":34962
		},
		{
			"buffer":0,
			"byteLength":144,
			"byteOffset":6492,
			"target":34963
		},
		{
			"buffer":0,
			"byteLength":96,
			"byteOffset":6636,
			"target":34962
		},
		{
			"buffer":0,
			"byteLength":96,
			"byteOffset":6732,
			"target":34962
		},
		{
			"buffer":0,
			"byteLength":64,
			"byteOffset":6828,
			"target":34962
		},
		{
			"buffer":0,
			"byteLength":128,
			"byteOffset":6892,
			"target":34962
		},
		{
			"buffer":0,
			"byteLength":24,
			"byteOffset":7020,
			"target":34963
		},
		{
			"buffer":0,
			"byteLength":96,
			"byteOffset":7044,
			"target":34962
		},
		{
			"buffer":0,
			"byteLength":96,
			"byteOffset":7140,
			"target":34962
		},
		{
			"buffer":0,
			"byteLength":64,
			"byteOffset":7236,
			"target":34962
		},
		{
			"buffer":0,
			"byteLength":128,
			"byteOffset":7300,
			"target":34962
		},
		{
			"buffer":0,
			"byteLength":24,
			"byteOffset":7428,
			"target":34963
		},
		{
			"buffer":0,
			"byteLength":384,
			"byteOffset":7452,
			"target":34962
		},
		{
			"buffer":0,
			"byteLength":384,
			"byteOffset":7836,
			"target":34962
		},
		{
			"buffer":0,
			"byteLength":256,
			"byteOffset":8220,
			"target":34962
		},
		{
			"buffer":0,
			"byteLength":126,
			"byteOffset":8476,
			"target":34963
		},
		{
			"buffer":0,
			"byteLength":48,
			"byteOffset":8604,
			"target":34962
		},
		{
			"buffer":0,
			"byteLength":48,
			"byteOffset":8652,
			"target":34962
		},
		{
			"buffer":0,
			"byteLength":32,
			"byteOffset":8700,
			"target":34962
		},
		{
			"buffer":0,
			"byteLength":12,
			"byteOffset":8732,
			"target":34963
		}
	],
	"samplers":[
		{
			"magFilter":9729,
			"minFilter":9987
		}
	],
	"buffers":[
		{
			"byteLength":8744,
			"uri":"tile_0_0_0.bin"
		}
	]
}
