{
	"asset":{
		"generator":"Khronos glTF Blender I/O v4.0.44",
		"version":"2.0"
	},
	"scene":0,
	"scenes":[
		{
			"name":"Scene",
			"nodes":[
				0,
				1,
				2,
				3,
				4,
				5,
				6,
				7,
				8
			]
		}
	],
	"nodes":[
		{
			"name":"grindcurve.01_collider",
			"rotation":[
				0,
				-0.6427873969078064,
				0,
				0.7660446763038635
			]
		},
		{
			"mesh":0,
			"name":"grindcurve.01_curve",
			"rotation":[
				0,
				-0.6427873969078064,
				0,
				0.7660446763038635
			]
		},
		{
			"mesh":1,
			"name":"ground"
		},
		{
			"name":"decal.main",
			"rotation":[
				0,
				-0.7071068286895752,
				0.7071068286895752,
				3.4560699191388267e-07
			]
		},
		{
			"mesh":2,
			"name":"decal.circles",
			"scale":[
				3,
				3,
				3
			]
		},
		{
			"name":"grindcurve.01",
			"rotation":[
				0,
				0.7660448551177979,
				0,
				0.6427870988845825
			]
		},
		{
			"mesh":3,
			"name":"grindcurve.02",
			"rotation":[
				0,
				-0.6427873969078064,
				0,
				0.7660446763038635
			]
		},
		{
			"name":"grindcurve.003",
			"rotation":[
				0,
				0.7660448551177979,
				0,
				0.6427870988845825
			]
		},
		{
			"name":"grindcurve.004",
			"rotation":[
				0,
				-0.6427873969078064,
				0,
				0.7660446763038635
			]
		}
	],
	"materials":[
		{
			"doubleSided":true,
			"name":"dcl.PiratesPack",
			"pbrMetallicRoughness":{
				"baseColorTexture":{
					"index":0
				},
				"metallicFactor":0
			}
		},
		{
			"doubleSided":true,
			"emissiveFactor":[
				1,
				1,
				1
			],
			"emissiveTexture":{
				"index":1
			},
			"name":"dcl.PiratesPack.emissive",
			"pbrMetallicRoughness":{
				"baseColorTexture":{
					"index":2
				},
				"metallicFactor":0
			}
		}
	],
	"meshes":[
		{
			"name":"Cylinder.125",
			"primitives":[
				{
					"attributes":{
						"POSITION":0,
						"NORMAL":1,
						"TEXCOORD_0":2,
						"TANGENT":3
					},
					"indices":4
				}
			]
		},
		{
			"name":"Cube.145",
			"primitives":[
				{
					"attributes":{
						"POSITION":5,
						"NORMAL":6,
						"TEXCOORD_0":7,
						"TANGENT":8
					},
					"indices":9,
					"material":0
				}
			]
		},
		{
			"name":"Circle.004",
			"primitives":[
				{
					"attributes":{
						"POSITION":10,
						"NORMAL":11,
						"TEXCOORD_0":12
					},
					"indices":13,
					"material":1
				}
			]
		},
		{
			"name":"Cylinder.128",
			"primitives":[
				{
					"attributes":{
						"POSITION":14,
						"NORMAL":15,
						"TEXCOORD_0":16
					},
					"indices":17,
					"material":0
				}
			]
		}
	],
	"textures":[
		{
			"sampler":0,
			"source":0
		},
		{
			"sampler":0,
			"source":0
		},
		{
			"sampler":0,
			"source":0
		}
	],
	"images":[
		{
			"mimeType":"image/png",
			"name":"PiratesPack_TX",
			"uri":"tex/PiratesPack_TX.png"
		}
	],
	"accessors":[
		{
			"bufferView":0,
			"componentType":5126,
			"count":15,
			"max":[
				2.27028751373291,
				-9.107416152954102,
				-3.342998504638672
			],
			"min":[
				1.4076461791992188,
				-11.049999237060547,
				-3.813500165939331
			],
			"type":"VEC3"
		},
		{
			"bufferView":1,
			"componentType":5126,
			"count":15,
			"type":"VEC3"
		},
		{
			"bufferView":2,
			"componentType":5126,
			"count":15,
			"type":"VEC2"
		},
		{
			"bufferView":3,
			"componentType":5126,
			"count":15,
			"type":"VEC4"
		},
		{
			"bufferView":4,
			"componentType":5123,
			"count":21,
			"type":"SCALAR"
		},
		{
			"bufferView":5,
			"componentType":5126,
			"count":24,
			"max":[
				4,
				-10.65999984741211,
				4
			],
			"min":[
				-4,
				-10.899999618530273,
				-4
			],
			"type":"VEC3"
		},
		{
			"bufferView":6,
			"componentType":5126,
			"count":24,
			"type":"VEC3"
		},
		{
			"bufferView":7,
			"componentType":5126,
			"count":24,
			"type":"VEC2"
		},
		{
			"bufferView":8,
			"componentType":5126,
			"count":24,
			"type":"VEC4"
		},
		{
			"bufferView":9,
			"componentType":5123,
			"count":36,
			"type":"SCALAR"
		},
		{
			"bufferView":10,
			"componentType":5126,
			"count":23,
			"max":[
				1.1726824045181274,
				-3.5333335399627686,
				1.3333334922790527
			],
			"min":[
				-0.947941780090332,
				-3.5439271926879883,
				-1.3333334922790527
			],
			"type":"VEC3"
		},
		{
			"bufferView":11,
			"componentType":5126,
			"count":23,
			"type":"VEC3"
		},
		{
			"bufferView":12,
			"componentType":5126,
			"count":23,
			"type":"VEC2"
		},
		{
			"bufferView":13,
			"componentType":5123,
			"count":51,
			"type":"SCALAR"
		},
		{
			"bufferView":14,
			"componentType":5126,
			"count":35,
			"max":[
				2.27028751373291,
				-8.757415771484375,
				-3.342998504638672
			],
			"min":[
				1.4076461791992188,
				-10.69999885559082,
				-3.813500165939331
			],
			"type":"VEC3"
		},
		{
			"bufferView":15,
			"componentType":5126,
			"count":35,
			"type":"VEC3"
		},
		{
			"bufferView":16,
			"componentType":5126,
			"count":35,
			"type":"VEC2"
		},
		{
			"bufferView":17,
			"componentType":5123,
			"count":57,
			"type":"SCALAR"
		}
	],
	"bufferViews":[
		{
			"buffer":0,
			"byteLength":180,
			"byteOffset":0,
			"target":34962
		},
		{
			"buffer":0,
			"byteLength":180,
			"byteOffset":180,
			"target":34962
		},
		{
			"buffer":0,
			"byteLength":120,
			"byteOffset":360,
			"target":34962
		},
		{
			"buffer":0,
			"byteLength":240,
			"byteOffset":480,
			"target":34962
		},
		{
			"buffer":0,
			"byteLength":42,
			"byteOffset":720,
			"target":34963
		},
		{
			"buffer":0,
			"byteLength":288,
			"byteOffset":764,
			"target":34962
		},
		{
			"buffer":0,
			"byteLength":288,
			"byteOffset":1052,
			"target":34962
		},
		{
			"buffer":0,
			"byteLength":192,
			"byteOffset":1340,
			"target":34962
		},
		{
			"buffer":0,
			"byteLength":384,
			"byteOffset":1532,
			"target":34962
		},
		{
			"buffer":0,
			"byteLength":72,
			"byteOffset":1916,
			"target":34963
		},
		{
			"buffer":0,
			"byteLength":276,
			"byteOffset":1988,
			"target":34962
		},
		{
			"buffer":0,
			"byteLength":276,
			"byteOffset":2264,
			"target":34962
		},
		{
			"buffer":0,
			"byteLength":184,
			"byteOffset":2540,
			"target":34962
		},
		{
			"buffer":0,
			"byteLength":102,
			"byteOffset":2724,
			"target":34963
		},
		{
			"buffer":0,
			"byteLength":420,
			"byteOffset":2828,
			"target":34962
		},
		{
			"buffer":0,
			"byteLength":420,
			"byteOffset":3248,
			"target":34962
		},
		{
			"buffer":0,
			"byteLength":280,
			"byteOffset":3668,
			"target":34962
		},
		{
			"buffer":0,
			"byteLength":114,
			"byteOffset":3948,
			"target":34963
		}
	],
	"samplers":[
		{
			"magFilter":9729,
			"minFilter":9987
		}
	],
	"buffers":[
		{
			"byteLength":4064,
			"uri":"tile_2_0_9.bin"
		}
	]
}
