{
	"asset":{
		"generator":"Khronos glTF Blender I/O v4.0.44",
		"version":"2.0"
	},
	"scene":0,
	"scenes":[
		{
			"name":"Scene",
			"nodes":[
				0,
				1,
				2,
				3,
				4,
				5,
				6,
				7,
				8,
				9,
				10,
				11,
				12,
				13
			]
		}
	],
	"nodes":[
		{
			"mesh":0,
			"name":"pipe.main_collider",
			"rotation":[
				0.7071068286895752,
				0,
				0,
				0.7071068286895752
			]
		},
		{
			"mesh":1,
			"name":"sign.pillar.01_collider"
		},
		{
			"mesh":2,
			"name":"sign.beam._collider",
			"rotation":[
				0.7071068286895752,
				0,
				0,
				0.7071068286895752
			]
		},
		{
			"mesh":3,
			"name":"bigSign.board",
			"rotation":[
				0,
				-0.7071067094802856,
				0,
				0.7071068286895752
			],
			"scale":[
				0.6813910007476807,
				0.6813910007476807,
				0.6813910007476807
			]
		},
		{
			"mesh":4,
			"name":"ground"
		},
		{
			"mesh":5,
			"name":"wall.east.007"
		},
		{
			"mesh":6,
			"name":"bigSign.pillars",
			"rotation":[
				0,
				0.70710688829422,
				0,
				0.7071066498756409
			]
		},
		{
			"mesh":7,
			"name":"bigSign.beam",
			"rotation":[
				0,
				0.70710688829422,
				0,
				0.7071066498756409
			]
		},
		{
			"mesh":8,
			"name":"bigSign.text",
			"rotation":[
				0.5000001192092896,
				-0.49999985098838806,
				0.49999988079071045,
				0.5000001192092896
			],
			"scale":[
				9.438028335571289,
				8.741087913513184,
				10.611104011535645
			]
		},
		{
			"mesh":9,
			"name":"bigSign.zigzag",
			"rotation":[
				0,
				0.70710688829422,
				0,
				0.7071066498756409
			]
		},
		{
			"mesh":10,
			"name":"skateboard.trucks",
			"rotation":[
				-0.4999999403953552,
				0.5000001192092896,
				0.5000000596046448,
				0.49999991059303284
			],
			"scale":[
				0.6813910007476807,
				0.6813910007476807,
				0.6813910007476807
			]
		},
		{
			"mesh":11,
			"name":"neons.001",
			"rotation":[
				0,
				0,
				-0.7071068286895752,
				0.7071068286895752
			],
			"scale":[
				0.19999998807907104,
				1,
				44.15021896362305
			]
		},
		{
			"mesh":12,
			"name":"pipe.main",
			"rotation":[
				0.7071068286895752,
				0,
				0,
				0.7071068286895752
			],
			"scale":[
				2,
				2,
				2
			]
		},
		{
			"mesh":13,
			"name":"pipe.main.rim",
			"rotation":[
				0.7071068286895752,
				0,
				0,
				0.7071068286895752
			],
			"scale":[
				2,
				2,
				2
			]
		}
	],
	"materials":[
		{
			"doubleSided":true,
			"name":"dcl.PiratesPack",
			"pbrMetallicRoughness":{
				"baseColorTexture":{
					"index":0
				},
				"metallicFactor":0
			}
		},
		{
			"doubleSided":true,
			"emissiveFactor":[
				1,
				1,
				1
			],
			"emissiveTexture":{
				"index":1
			},
			"name":"dcl.PiratesPack.emissive",
			"pbrMetallicRoughness":{
				"baseColorTexture":{
					"index":2
				},
				"metallicFactor":0
			}
		}
	],
	"meshes":[
		{
			"name":"Cylinder.465",
			"primitives":[
				{
					"attributes":{
						"POSITION":0,
						"NORMAL":1,
						"TEXCOORD_0":2
					},
					"indices":3
				}
			]
		},
		{
			"name":"Cube.389",
			"primitives":[
				{
					"attributes":{
						"POSITION":4,
						"NORMAL":5,
						"TEXCOORD_0":6
					},
					"indices":7
				}
			]
		},
		{
			"name":"Cube.390",
			"primitives":[
				{
					"attributes":{
						"POSITION":8,
						"NORMAL":9,
						"TEXCOORD_0":10,
						"TANGENT":11
					},
					"indices":12
				}
			]
		},
		{
			"name":"Cube.391",
			"primitives":[
				{
					"attributes":{
						"POSITION":13,
						"NORMAL":14,
						"TEXCOORD_0":15
					},
					"indices":16,
					"material":0
				}
			]
		},
		{
			"name":"Cube.392",
			"primitives":[
				{
					"attributes":{
						"POSITION":17,
						"NORMAL":18,
						"TEXCOORD_0":19
					},
					"indices":20,
					"material":0
				}
			]
		},
		{
			"name":"Cylinder.466",
			"primitives":[
				{
					"attributes":{
						"POSITION":21,
						"NORMAL":22,
						"TEXCOORD_0":23,
						"TANGENT":24
					},
					"indices":25,
					"material":0
				}
			]
		},
		{
			"name":"Cylinder.467",
			"primitives":[
				{
					"attributes":{
						"POSITION":26,
						"NORMAL":27,
						"TEXCOORD_0":28
					},
					"indices":29,
					"material":0
				}
			]
		},
		{
			"name":"Cylinder.468",
			"primitives":[
				{
					"attributes":{
						"POSITION":30,
						"NORMAL":31,
						"TEXCOORD_0":32
					},
					"indices":33,
					"material":0
				}
			]
		},
		{
			"name":"Text.005",
			"primitives":[
				{
					"attributes":{
						"POSITION":34,
						"NORMAL":35,
						"TEXCOORD_0":36
					},
					"indices":37,
					"material":0
				}
			]
		},
		{
			"name":"Cylinder.469",
			"primitives":[
				{
					"attributes":{
						"POSITION":38,
						"NORMAL":39,
						"TEXCOORD_0":40
					},
					"indices":41,
					"material":0
				}
			]
		},
		{
			"name":"Cube.393",
			"primitives":[
				{
					"attributes":{
						"POSITION":42,
						"NORMAL":43,
						"TEXCOORD_0":44
					},
					"indices":45,
					"material":0
				}
			]
		},
		{
			"name":"Plane.047",
			"primitives":[
				{
					"attributes":{
						"POSITION":46,
						"NORMAL":47,
						"TEXCOORD_0":48,
						"TANGENT":49
					},
					"indices":50,
					"material":1
				}
			]
		},
		{
			"name":"Cylinder.470",
			"primitives":[
				{
					"attributes":{
						"POSITION":51,
						"NORMAL":52,
						"TEXCOORD_0":53
					},
					"indices":54,
					"material":0
				}
			]
		},
		{
			"name":"Cylinder.471",
			"primitives":[
				{
					"attributes":{
						"POSITION":55,
						"NORMAL":56,
						"TEXCOORD_0":57,
						"TANGENT":58
					},
					"indices":59,
					"material":0
				}
			]
		}
	],
	"textures":[
		{
			"sampler":0,
			"source":0
		},
		{
			"sampler":0,
			"source":0
		},
		{
			"sampler":0,
			"source":0
		}
	],
	"images":[
		{
			"mimeType":"image/png",
			"name":"PiratesPack_TX",
			"uri":"tex/PiratesPack_TX.png"
		}
	],
	"accessors":[
		{
			"bufferView":0,
			"componentType":5126,
			"count":104,
			"max":[
				3.9999923706054688,
				3.9999923706054688,
				10.649999618530273
			],
			"min":[
				-4.000007629394531,
				-4.000007629394531,
				7.649998664855957
			],
			"type":"VEC3"
		},
		{
			"bufferView":1,
			"componentType":5126,
			"count":104,
			"type":"VEC3"
		},
		{
			"bufferView":2,
			"componentType":5126,
			"count":104,
			"type":"VEC2"
		},
		{
			"bufferView":3,
			"componentType":5123,
			"count":159,
			"type":"SCALAR"
		},
		{
			"bufferView":4,
			"componentType":5126,
			"count":78,
			"max":[
				2.3717870712280273,
				13.590291976928711,
				4
			],
			"min":[
				-0.8509268760681152,
				-10.65999984741211,
				1.0668565034866333
			],
			"type":"VEC3"
		},
		{
			"bufferView":5,
			"componentType":5126,
			"count":78,
			"type":"VEC3"
		},
		{
			"bufferView":6,
			"componentType":5126,
			"count":78,
			"type":"VEC2"
		},
		{
			"bufferView":7,
			"componentType":5123,
			"count":216,
			"type":"SCALAR"
		},
		{
			"bufferView":8,
			"componentType":5126,
			"count":24,
			"max":[
				1.2075986862182617,
				4,
				-0.6000018119812012
			],
			"min":[
				0.31323570013046265,
				3.9026832580566406,
				-2.8895483016967773
			],
			"type":"VEC3"
		},
		{
			"bufferView":9,
			"componentType":5126,
			"count":24,
			"type":"VEC3"
		},
		{
			"bufferView":10,
			"componentType":5126,
			"count":24,
			"type":"VEC2"
		},
		{
			"bufferView":11,
			"componentType":5126,
			"count":24,
			"type":"VEC4"
		},
		{
			"bufferView":12,
			"componentType":5123,
			"count":36,
			"type":"SCALAR"
		},
		{
			"bufferView":13,
			"componentType":5126,
			"count":66,
			"max":[
				5.870351791381836,
				20.507286071777344,
				3.6418628692626953
			],
			"min":[
				-5.870336532592773,
				4.507266998291016,
				1.0048387050628662
			],
			"type":"VEC3"
		},
		{
			"bufferView":14,
			"componentType":5126,
			"count":66,
			"type":"VEC3"
		},
		{
			"bufferView":15,
			"componentType":5126,
			"count":66,
			"type":"VEC2"
		},
		{
			"bufferView":16,
			"componentType":5123,
			"count":180,
			"type":"SCALAR"
		},
		{
			"bufferView":17,
			"componentType":5126,
			"count":36,
			"max":[
				3.4499664306640625,
				-10.65999984741211,
				4
			],
			"min":[
				-4,
				-10.899999618530273,
				-4
			],
			"type":"VEC3"
		},
		{
			"bufferView":18,
			"componentType":5126,
			"count":36,
			"type":"VEC3"
		},
		{
			"bufferView":19,
			"componentType":5126,
			"count":36,
			"type":"VEC2"
		},
		{
			"bufferView":20,
			"componentType":5123,
			"count":60,
			"type":"SCALAR"
		},
		{
			"bufferView":21,
			"componentType":5126,
			"count":24,
			"max":[
				3.466621160507202,
				7.9000091552734375,
				4
			],
			"min":[
				2.99992299079895,
				-10.850001335144043,
				-4
			],
			"type":"VEC3"
		},
		{
			"bufferView":22,
			"componentType":5126,
			"count":24,
			"type":"VEC3"
		},
		{
			"bufferView":23,
			"componentType":5126,
			"count":24,
			"type":"VEC2"
		},
		{
			"bufferView":24,
			"componentType":5126,
			"count":24,
			"type":"VEC4"
		},
		{
			"bufferView":25,
			"componentType":5123,
			"count":36,
			"type":"SCALAR"
		},
		{
			"bufferView":26,
			"componentType":5126,
			"count":398,
			"max":[
				-1.1782112121582031,
				3.454392433166504,
				2.2604217529296875
			],
			"min":[
				-4,
				-7.399995803833008,
				-0.7395782470703125
			],
			"type":"VEC3"
		},
		{
			"bufferView":27,
			"componentType":5126,
			"count":398,
			"type":"VEC3"
		},
		{
			"bufferView":28,
			"componentType":5126,
			"count":398,
			"type":"VEC2"
		},
		{
			"bufferView":29,
			"componentType":5123,
			"count":1068,
			"type":"SCALAR"
		},
		{
			"bufferView":30,
			"componentType":5126,
			"count":80,
			"max":[
				-3.5142464637756348,
				2.88955020904541,
				1.1431052684783936
			],
			"min":[
				-4,
				0.6000022888183594,
				0.3777382969856262
			],
			"type":"VEC3"
		},
		{
			"bufferView":31,
			"componentType":5126,
			"count":80,
			"type":"VEC3"
		},
		{
			"bufferView":32,
			"componentType":5126,
			"count":80,
			"type":"VEC2"
		},
		{
			"bufferView":33,
			"componentType":5123,
			"count":132,
			"type":"SCALAR"
		},
		{
			"bufferView":34,
			"componentType":5126,
			"count":290,
			"max":[
				0.4238167405128479,
				0.3397239148616791,
				-0.497406005859375
			],
			"min":[
				-0.42028045654296875,
				0.12291130423545837,
				-1.0881359577178955
			],
			"type":"VEC3"
		},
		{
			"bufferView":35,
			"componentType":5126,
			"count":290,
			"type":"VEC3"
		},
		{
			"bufferView":36,
			"componentType":5126,
			"count":290,
			"type":"VEC2"
		},
		{
			"bufferView":37,
			"componentType":5123,
			"count":690,
			"type":"SCALAR"
		},
		{
			"bufferView":38,
			"componentType":5126,
			"count":38,
			"max":[
				-3.2796573638916016,
				2.507960796356201,
				1.1069917678833008
			],
			"min":[
				-4,
				0.9815921783447266,
				0.4169806241989136
			],
			"type":"VEC3"
		},
		{
			"bufferView":39,
			"componentType":5126,
			"count":38,
			"type":"VEC3"
		},
		{
			"bufferView":40,
			"componentType":5126,
			"count":38,
			"type":"VEC2"
		},
		{
			"bufferView":41,
			"componentType":5123,
			"count":60,
			"type":"SCALAR"
		},
		{
			"bufferView":42,
			"componentType":5126,
			"count":746,
			"max":[
				-1.6004791259765625,
				1.0054268836975098,
				19.944929122924805
			],
			"min":[
				-5.870344161987305,
				-3.0519914627075195,
				5.069616317749023
			],
			"type":"VEC3"
		},
		{
			"bufferView":43,
			"componentType":5126,
			"count":746,
			"type":"VEC3"
		},
		{
			"bufferView":44,
			"componentType":5126,
			"count":746,
			"type":"VEC2"
		},
		{
			"bufferView":45,
			"componentType":5123,
			"count":2223,
			"type":"SCALAR"
		},
		{
			"bufferView":46,
			"componentType":5126,
			"count":8,
			"max":[
				13.374977111816406,
				2.8999557495117188,
				0.09059977531433105
			],
			"min":[
				6.374977111816406,
				2.8999557495117188,
				-0.09059977531433105
			],
			"type":"VEC3"
		},
		{
			"bufferView":47,
			"componentType":5126,
			"count":8,
			"type":"VEC3"
		},
		{
			"bufferView":48,
			"componentType":5126,
			"count":8,
			"type":"VEC2"
		},
		{
			"bufferView":49,
			"componentType":5126,
			"count":8,
			"type":"VEC4"
		},
		{
			"bufferView":50,
			"componentType":5123,
			"count":12,
			"type":"SCALAR"
		},
		{
			"bufferView":51,
			"componentType":5126,
			"count":93,
			"max":[
				1.9999985694885254,
				2.0000009536743164,
				7.499999046325684
			],
			"min":[
				-2.0000011920928955,
				-2.0000009536743164,
				3.8249993324279785
			],
			"type":"VEC3"
		},
		{
			"bufferView":52,
			"componentType":5126,
			"count":93,
			"type":"VEC3"
		},
		{
			"bufferView":53,
			"componentType":5126,
			"count":93,
			"type":"VEC2"
		},
		{
			"bufferView":54,
			"componentType":5123,
			"count":219,
			"type":"SCALAR"
		},
		{
			"bufferView":55,
			"componentType":5126,
			"count":24,
			"max":[
				-0.7165613174438477,
				1.9999995231628418,
				3.8587851524353027
			],
			"min":[
				-0.7834382057189941,
				-2,
				3.7912142276763916
			],
			"type":"VEC3"
		},
		{
			"bufferView":56,
			"componentType":5126,
			"count":24,
			"type":"VEC3"
		},
		{
			"bufferView":57,
			"componentType":5126,
			"count":24,
			"type":"VEC2"
		},
		{
			"bufferView":58,
			"componentType":5126,
			"count":24,
			"type":"VEC4"
		},
		{
			"bufferView":59,
			"componentType":5123,
			"count":36,
			"type":"SCALAR"
		}
	],
	"bufferViews":[
		{
			"buffer":0,
			"byteLength":1248,
			"byteOffset":0,
			"target":34962
		},
		{
			"buffer":0,
			"byteLength":1248,
			"byteOffset":1248,
			"target":34962
		},
		{
			"buffer":0,
			"byteLength":832,
			"byteOffset":2496,
			"target":34962
		},
		{
			"buffer":0,
			"byteLength":318,
			"byteOffset":3328,
			"target":34963
		},
		{
			"buffer":0,
			"byteLength":936,
			"byteOffset":3648,
			"target":34962
		},
		{
			"buffer":0,
			"byteLength":936,
			"byteOffset":4584,
			"target":34962
		},
		{
			"buffer":0,
			"byteLength":624,
			"byteOffset":5520,
			"target":34962
		},
		{
			"buffer":0,
			"byteLength":432,
			"byteOffset":6144,
			"target":34963
		},
		{
			"buffer":0,
			"byteLength":288,
			"byteOffset":6576,
			"target":34962
		},
		{
			"buffer":0,
			"byteLength":288,
			"byteOffset":6864,
			"target":34962
		},
		{
			"buffer":0,
			"byteLength":192,
			"byteOffset":7152,
			"target":34962
		},
		{
			"buffer":0,
			"byteLength":384,
			"byteOffset":7344,
			"target":34962
		},
		{
			"buffer":0,
			"byteLength":72,
			"byteOffset":7728,
			"target":34963
		},
		{
			"buffer":0,
			"byteLength":792,
			"byteOffset":7800,
			"target":34962
		},
		{
			"buffer":0,
			"byteLength":792,
			"byteOffset":8592,
			"target":34962
		},
		{
			"buffer":0,
			"byteLength":528,
			"byteOffset":9384,
			"target":34962
		},
		{
			"buffer":0,
			"byteLength":360,
			"byteOffset":9912,
			"target":34963
		},
		{
			"buffer":0,
			"byteLength":432,
			"byteOffset":10272,
			"target":34962
		},
		{
			"buffer":0,
			"byteLength":432,
			"byteOffset":10704,
			"target":34962
		},
		{
			"buffer":0,
			"byteLength":288,
			"byteOffset":11136,
			"target":34962
		},
		{
			"buffer":0,
			"byteLength":120,
			"byteOffset":11424,
			"target":34963
		},
		{
			"buffer":0,
			"byteLength":288,
			"byteOffset":11544,
			"target":34962
		},
		{
			"buffer":0,
			"byteLength":288,
			"byteOffset":11832,
			"target":34962
		},
		{
			"buffer":0,
			"byteLength":192,
			"byteOffset":12120,
			"target":34962
		},
		{
			"buffer":0,
			"byteLength":384,
			"byteOffset":12312,
			"target":34962
		},
		{
			"buffer":0,
			"byteLength":72,
			"byteOffset":12696,
			"target":34963
		},
		{
			"buffer":0,
			"byteLength":4776,
			"byteOffset":12768,
			"target":34962
		},
		{
			"buffer":0,
			"byteLength":4776,
			"byteOffset":17544,
			"target":34962
		},
		{
			"buffer":0,
			"byteLength":3184,
			"byteOffset":22320,
			"target":34962
		},
		{
			"buffer":0,
			"byteLength":2136,
			"byteOffset":25504,
			"target":34963
		},
		{
			"buffer":0,
			"byteLength":960,
			"byteOffset":27640,
			"target":34962
		},
		{
			"buffer":0,
			"byteLength":960,
			"byteOffset":28600,
			"target":34962
		},
		{
			"buffer":0,
			"byteLength":640,
			"byteOffset":29560,
			"target":34962
		},
		{
			"buffer":0,
			"byteLength":264,
			"byteOffset":30200,
			"target":34963
		},
		{
			"buffer":0,
			"byteLength":3480,
			"byteOffset":30464,
			"target":34962
		},
		{
			"buffer":0,
			"byteLength":3480,
			"byteOffset":33944,
			"target":34962
		},
		{
			"buffer":0,
			"byteLength":2320,
			"byteOffset":37424,
			"target":34962
		},
		{
			"buffer":0,
			"byteLength":1380,
			"byteOffset":39744,
			"target":34963
		},
		{
			"buffer":0,
			"byteLength":456,
			"byteOffset":41124,
			"target":34962
		},
		{
			"buffer":0,
			"byteLength":456,
			"byteOffset":41580,
			"target":34962
		},
		{
			"buffer":0,
			"byteLength":304,
			"byteOffset":42036,
			"target":34962
		},
		{
			"buffer":0,
			"byteLength":120,
			"byteOffset":42340,
			"target":34963
		},
		{
			"buffer":0,
			"byteLength":8952,
			"byteOffset":42460,
			"target":34962
		},
		{
			"buffer":0,
			"byteLength":8952,
			"byteOffset":51412,
			"target":34962
		},
		{
			"buffer":0,
			"byteLength":5968,
			"byteOffset":60364,
			"target":34962
		},
		{
			"buffer":0,
			"byteLength":4446,
			"byteOffset":66332,
			"target":34963
		},
		{
			"buffer":0,
			"byteLength":96,
			"byteOffset":70780,
			"target":34962
		},
		{
			"buffer":0,
			"byteLength":96,
			"byteOffset":70876,
			"target":34962
		},
		{
			"buffer":0,
			"byteLength":64,
			"byteOffset":70972,
			"target":34962
		},
		{
			"buffer":0,
			"byteLength":128,
			"byteOffset":71036,
			"target":34962
		},
		{
			"buffer":0,
			"byteLength":24,
			"byteOffset":71164,
			"target":34963
		},
		{
			"buffer":0,
			"byteLength":1116,
			"byteOffset":71188,
			"target":34962
		},
		{
			"buffer":0,
			"byteLength":1116,
			"byteOffset":72304,
			"target":34962
		},
		{
			"buffer":0,
			"byteLength":744,
			"byteOffset":73420,
			"target":34962
		},
		{
			"buffer":0,
			"byteLength":438,
			"byteOffset":74164,
			"target":34963
		},
		{
			"buffer":0,
			"byteLength":288,
			"byteOffset":74604,
			"target":34962
		},
		{
			"buffer":0,
			"byteLength":288,
			"byteOffset":74892,
			"target":34962
		},
		{
			"buffer":0,
			"byteLength":192,
			"byteOffset":75180,
			"target":34962
		},
		{
			"buffer":0,
			"byteLength":384,
			"byteOffset":75372,
			"target":34962
		},
		{
			"buffer":0,
			"byteLength":72,
			"byteOffset":75756,
			"target":34963
		}
	],
	"samplers":[
		{
			"magFilter":9729,
			"minFilter":9987
		}
	],
	"buffers":[
		{
			"byteLength":75828,
			"uri":"tile_11_0_7.bin"
		}
	]
}
