{
	"asset":{
		"generator":"Khronos glTF Blender I/O v4.0.44",
		"version":"2.0"
	},
	"scene":0,
	"scenes":[
		{
			"name":"Scene",
			"nodes":[
				0,
				1,
				2,
				3
			]
		}
	],
	"nodes":[
		{
			"mesh":0,
			"name":"pipe.main_collider",
			"rotation":[
				0.7071068286895752,
				0,
				0,
				0.7071068286895752
			]
		},
		{
			"mesh":1,
			"name":"ground"
		},
		{
			"mesh":2,
			"name":"pipe.main",
			"rotation":[
				0.7071068286895752,
				0,
				0,
				0.7071068286895752
			],
			"scale":[
				2,
				2,
				2
			]
		},
		{
			"mesh":3,
			"name":"pipe.main.rim",
			"rotation":[
				0.7071068286895752,
				0,
				0,
				0.7071068286895752
			],
			"scale":[
				2,
				2,
				2
			]
		}
	],
	"materials":[
		{
			"doubleSided":true,
			"name":"dcl.PiratesPack",
			"pbrMetallicRoughness":{
				"baseColorTexture":{
					"index":0
				},
				"metallicFactor":0
			}
		}
	],
	"meshes":[
		{
			"name":"Cylinder.393",
			"primitives":[
				{
					"attributes":{
						"POSITION":0,
						"NORMAL":1,
						"TEXCOORD_0":2
					},
					"indices":3
				}
			]
		},
		{
			"name":"Cube.359",
			"primitives":[
				{
					"attributes":{
						"POSITION":4,
						"NORMAL":5,
						"TEXCOORD_0":6,
						"TANGENT":7
					},
					"indices":8,
					"material":0
				}
			]
		},
		{
			"name":"Cylinder.394",
			"primitives":[
				{
					"attributes":{
						"POSITION":9,
						"NORMAL":10,
						"TEXCOORD_0":11
					},
					"indices":12,
					"material":0
				}
			]
		},
		{
			"name":"Cylinder.395",
			"primitives":[
				{
					"attributes":{
						"POSITION":13,
						"NORMAL":14,
						"TEXCOORD_0":15,
						"TANGENT":16
					},
					"indices":17,
					"material":0
				}
			]
		}
	],
	"textures":[
		{
			"sampler":0,
			"source":0
		}
	],
	"images":[
		{
			"mimeType":"image/png",
			"name":"PiratesPack_TX",
			"uri":"tex/PiratesPack_TX.png"
		}
	],
	"accessors":[
		{
			"bufferView":0,
			"componentType":5126,
			"count":110,
			"max":[
				4.000022888183594,
				3.9999961853027344,
				10.555351257324219
			],
			"min":[
				-3.9999771118164062,
				-4.000003814697266,
				7.650002956390381
			],
			"type":"VEC3"
		},
		{
			"bufferView":1,
			"componentType":5126,
			"count":110,
			"type":"VEC3"
		},
		{
			"bufferView":2,
			"componentType":5126,
			"count":110,
			"type":"VEC2"
		},
		{
			"bufferView":3,
			"componentType":5123,
			"count":186,
			"type":"SCALAR"
		},
		{
			"bufferView":4,
			"componentType":5126,
			"count":24,
			"max":[
				4,
				-10.65999984741211,
				4
			],
			"min":[
				-4,
				-10.899999618530273,
				-4
			],
			"type":"VEC3"
		},
		{
			"bufferView":5,
			"componentType":5126,
			"count":24,
			"type":"VEC3"
		},
		{
			"bufferView":6,
			"componentType":5126,
			"count":24,
			"type":"VEC2"
		},
		{
			"bufferView":7,
			"componentType":5126,
			"count":24,
			"type":"VEC4"
		},
		{
			"bufferView":8,
			"componentType":5123,
			"count":36,
			"type":"SCALAR"
		},
		{
			"bufferView":9,
			"componentType":5126,
			"count":76,
			"max":[
				2.0000011920928955,
				2,
				7.500000953674316
			],
			"min":[
				-2.0000011920928955,
				-2.0000009536743164,
				3.8250014781951904
			],
			"type":"VEC3"
		},
		{
			"bufferView":10,
			"componentType":5126,
			"count":76,
			"type":"VEC3"
		},
		{
			"bufferView":11,
			"componentType":5126,
			"count":76,
			"type":"VEC2"
		},
		{
			"bufferView":12,
			"componentType":5123,
			"count":216,
			"type":"SCALAR"
		},
		{
			"bufferView":13,
			"componentType":5126,
			"count":72,
			"max":[
				2.000000476837158,
				1.1680831909179688,
				3.85764741897583
			],
			"min":[
				-2.000000476837158,
				-0.8472003936767578,
				3.7923545837402344
			],
			"type":"VEC3"
		},
		{
			"bufferView":14,
			"componentType":5126,
			"count":72,
			"type":"VEC3"
		},
		{
			"bufferView":15,
			"componentType":5126,
			"count":72,
			"type":"VEC2"
		},
		{
			"bufferView":16,
			"componentType":5126,
			"count":72,
			"type":"VEC4"
		},
		{
			"bufferView":17,
			"componentType":5123,
			"count":108,
			"type":"SCALAR"
		}
	],
	"bufferViews":[
		{
			"buffer":0,
			"byteLength":1320,
			"byteOffset":0,
			"target":34962
		},
		{
			"buffer":0,
			"byteLength":1320,
			"byteOffset":1320,
			"target":34962
		},
		{
			"buffer":0,
			"byteLength":880,
			"byteOffset":2640,
			"target":34962
		},
		{
			"buffer":0,
			"byteLength":372,
			"byteOffset":3520,
			"target":34963
		},
		{
			"buffer":0,
			"byteLength":288,
			"byteOffset":3892,
			"target":34962
		},
		{
			"buffer":0,
			"byteLength":288,
			"byteOffset":4180,
			"target":34962
		},
		{
			"buffer":0,
			"byteLength":192,
			"byteOffset":4468,
			"target":34962
		},
		{
			"buffer":0,
			"byteLength":384,
			"byteOffset":4660,
			"target":34962
		},
		{
			"buffer":0,
			"byteLength":72,
			"byteOffset":5044,
			"target":34963
		},
		{
			"buffer":0,
			"byteLength":912,
			"byteOffset":5116,
			"target":34962
		},
		{
			"buffer":0,
			"byteLength":912,
			"byteOffset":6028,
			"target":34962
		},
		{
			"buffer":0,
			"byteLength":608,
			"byteOffset":6940,
			"target":34962
		},
		{
			"buffer":0,
			"byteLength":432,
			"byteOffset":7548,
			"target":34963
		},
		{
			"buffer":0,
			"byteLength":864,
			"byteOffset":7980,
			"target":34962
		},
		{
			"buffer":0,
			"byteLength":864,
			"byteOffset":8844,
			"target":34962
		},
		{
			"buffer":0,
			"byteLength":576,
			"byteOffset":9708,
			"target":34962
		},
		{
			"buffer":0,
			"byteLength":1152,
			"byteOffset":10284,
			"target":34962
		},
		{
			"buffer":0,
			"byteLength":216,
			"byteOffset":11436,
			"target":34963
		}
	],
	"samplers":[
		{
			"magFilter":9729,
			"minFilter":9987
		}
	],
	"buffers":[
		{
			"byteLength":11652,
			"uri":"tile_10_0_1.bin"
		}
	]
}
