{
	"asset":{
		"generator":"Khronos glTF Blender I/O v4.0.44",
		"version":"2.0"
	},
	"scene":0,
	"scenes":[
		{
			"name":"Scene",
			"nodes":[
				0,
				1,
				2,
				3
			]
		}
	],
	"nodes":[
		{
			"mesh":0,
			"name":"pipe.main_collider",
			"rotation":[
				0.7071068286895752,
				0,
				0,
				0.7071068286895752
			]
		},
		{
			"mesh":1,
			"name":"ground"
		},
		{
			"mesh":2,
			"name":"pipe.main",
			"rotation":[
				0.7071068286895752,
				0,
				0,
				0.7071068286895752
			],
			"scale":[
				2,
				2,
				2
			]
		},
		{
			"mesh":3,
			"name":"pipe.main.rim",
			"rotation":[
				0.7071068286895752,
				0,
				0,
				0.7071068286895752
			],
			"scale":[
				2,
				2,
				2
			]
		}
	],
	"materials":[
		{
			"doubleSided":true,
			"name":"dcl.PiratesPack",
			"pbrMetallicRoughness":{
				"baseColorTexture":{
					"index":0
				},
				"metallicFactor":0
			}
		}
	],
	"meshes":[
		{
			"name":"Cylinder.367",
			"primitives":[
				{
					"attributes":{
						"POSITION":0,
						"NORMAL":1,
						"TEXCOORD_0":2
					},
					"indices":3
				}
			]
		},
		{
			"name":"Cube.351",
			"primitives":[
				{
					"attributes":{
						"POSITION":4,
						"NORMAL":5,
						"TEXCOORD_0":6,
						"TANGENT":7
					},
					"indices":8,
					"material":0
				}
			]
		},
		{
			"name":"Cylinder.368",
			"primitives":[
				{
					"attributes":{
						"POSITION":9,
						"NORMAL":10,
						"TEXCOORD_0":11
					},
					"indices":12,
					"material":0
				}
			]
		},
		{
			"name":"Cylinder.369",
			"primitives":[
				{
					"attributes":{
						"POSITION":13,
						"NORMAL":14,
						"TEXCOORD_0":15
					},
					"indices":16,
					"material":0
				}
			]
		}
	],
	"textures":[
		{
			"sampler":0,
			"source":0
		}
	],
	"images":[
		{
			"mimeType":"image/png",
			"name":"PiratesPack_TX",
			"uri":"tex/PiratesPack_TX.png"
		}
	],
	"accessors":[
		{
			"bufferView":0,
			"componentType":5126,
			"count":408,
			"max":[
				4,
				4.000003814697266,
				10.649999618530273
			],
			"min":[
				-4,
				-3.9999961853027344,
				6.649999618530273
			],
			"type":"VEC3"
		},
		{
			"bufferView":1,
			"componentType":5126,
			"count":408,
			"type":"VEC3"
		},
		{
			"bufferView":2,
			"componentType":5126,
			"count":408,
			"type":"VEC2"
		},
		{
			"bufferView":3,
			"componentType":5123,
			"count":648,
			"type":"SCALAR"
		},
		{
			"bufferView":4,
			"componentType":5126,
			"count":24,
			"max":[
				4,
				-10.65999984741211,
				4
			],
			"min":[
				-4,
				-10.899999618530273,
				-4
			],
			"type":"VEC3"
		},
		{
			"bufferView":5,
			"componentType":5126,
			"count":24,
			"type":"VEC3"
		},
		{
			"bufferView":6,
			"componentType":5126,
			"count":24,
			"type":"VEC2"
		},
		{
			"bufferView":7,
			"componentType":5126,
			"count":24,
			"type":"VEC4"
		},
		{
			"bufferView":8,
			"componentType":5123,
			"count":36,
			"type":"SCALAR"
		},
		{
			"bufferView":9,
			"componentType":5126,
			"count":315,
			"max":[
				2.0000011920928955,
				2.0000011920928955,
				7.5
			],
			"min":[
				-2.0000009536743164,
				-2.0000011920928955,
				3.3249995708465576
			],
			"type":"VEC3"
		},
		{
			"bufferView":10,
			"componentType":5126,
			"count":315,
			"type":"VEC3"
		},
		{
			"bufferView":11,
			"componentType":5126,
			"count":315,
			"type":"VEC2"
		},
		{
			"bufferView":12,
			"componentType":5123,
			"count":957,
			"type":"SCALAR"
		},
		{
			"bufferView":13,
			"componentType":5126,
			"count":258,
			"max":[
				1.999999761581421,
				2.0000009536743164,
				3.3532843589782715
			],
			"min":[
				-1.7781517505645752,
				-0.7782840728759766,
				3.296715259552002
			],
			"type":"VEC3"
		},
		{
			"bufferView":14,
			"componentType":5126,
			"count":258,
			"type":"VEC3"
		},
		{
			"bufferView":15,
			"componentType":5126,
			"count":258,
			"type":"VEC2"
		},
		{
			"bufferView":16,
			"componentType":5123,
			"count":504,
			"type":"SCALAR"
		}
	],
	"bufferViews":[
		{
			"buffer":0,
			"byteLength":4896,
			"byteOffset":0,
			"target":34962
		},
		{
			"buffer":0,
			"byteLength":4896,
			"byteOffset":4896,
			"target":34962
		},
		{
			"buffer":0,
			"byteLength":3264,
			"byteOffset":9792,
			"target":34962
		},
		{
			"buffer":0,
			"byteLength":1296,
			"byteOffset":13056,
			"target":34963
		},
		{
			"buffer":0,
			"byteLength":288,
			"byteOffset":14352,
			"target":34962
		},
		{
			"buffer":0,
			"byteLength":288,
			"byteOffset":14640,
			"target":34962
		},
		{
			"buffer":0,
			"byteLength":192,
			"byteOffset":14928,
			"target":34962
		},
		{
			"buffer":0,
			"byteLength":384,
			"byteOffset":15120,
			"target":34962
		},
		{
			"buffer":0,
			"byteLength":72,
			"byteOffset":15504,
			"target":34963
		},
		{
			"buffer":0,
			"byteLength":3780,
			"byteOffset":15576,
			"target":34962
		},
		{
			"buffer":0,
			"byteLength":3780,
			"byteOffset":19356,
			"target":34962
		},
		{
			"buffer":0,
			"byteLength":2520,
			"byteOffset":23136,
			"target":34962
		},
		{
			"buffer":0,
			"byteLength":1914,
			"byteOffset":25656,
			"target":34963
		},
		{
			"buffer":0,
			"byteLength":3096,
			"byteOffset":27572,
			"target":34962
		},
		{
			"buffer":0,
			"byteLength":3096,
			"byteOffset":30668,
			"target":34962
		},
		{
			"buffer":0,
			"byteLength":2064,
			"byteOffset":33764,
			"target":34962
		},
		{
			"buffer":0,
			"byteLength":1008,
			"byteOffset":35828,
			"target":34963
		}
	],
	"samplers":[
		{
			"magFilter":9729,
			"minFilter":9987
		}
	],
	"buffers":[
		{
			"byteLength":36836,
			"uri":"tile_9_0_5.bin"
		}
	]
}
