{
	"asset":{
		"generator":"Khronos glTF Blender I/O v4.0.44",
		"version":"2.0"
	},
	"scene":0,
	"scenes":[
		{
			"name":"Scene",
			"nodes":[
				0,
				1,
				2,
				3,
				4,
				5
			]
		}
	],
	"nodes":[
		{
			"mesh":0,
			"name":"pipe.main_collider",
			"rotation":[
				0.7071068286895752,
				0,
				0,
				0.7071068286895752
			]
		},
		{
			"mesh":1,
			"name":"ground"
		},
		{
			"mesh":2,
			"name":"wall.east.001"
		},
		{
			"mesh":3,
			"name":"neons.001",
			"rotation":[
				0,
				0,
				-0.7071068286895752,
				0.7071068286895752
			],
			"scale":[
				0.19999998807907104,
				1,
				44.15021896362305
			]
		},
		{
			"mesh":4,
			"name":"pipe.main",
			"rotation":[
				0.7071068286895752,
				0,
				0,
				0.7071068286895752
			],
			"scale":[
				2,
				2,
				2
			]
		},
		{
			"mesh":5,
			"name":"pipe.main.rim",
			"rotation":[
				0.7071068286895752,
				0,
				0,
				0.7071068286895752
			],
			"scale":[
				2,
				2,
				2
			]
		}
	],
	"materials":[
		{
			"doubleSided":true,
			"name":"dcl.PiratesPack",
			"pbrMetallicRoughness":{
				"baseColorTexture":{
					"index":0
				},
				"metallicFactor":0
			}
		},
		{
			"doubleSided":true,
			"emissiveFactor":[
				1,
				1,
				1
			],
			"emissiveTexture":{
				"index":1
			},
			"name":"dcl.PiratesPack.emissive",
			"pbrMetallicRoughness":{
				"baseColorTexture":{
					"index":2
				},
				"metallicFactor":0
			}
		}
	],
	"meshes":[
		{
			"name":"Cylinder.432",
			"primitives":[
				{
					"attributes":{
						"POSITION":0,
						"NORMAL":1,
						"TEXCOORD_0":2
					},
					"indices":3
				}
			]
		},
		{
			"name":"Cube.371",
			"primitives":[
				{
					"attributes":{
						"POSITION":4,
						"NORMAL":5,
						"TEXCOORD_0":6
					},
					"indices":7,
					"material":0
				}
			]
		},
		{
			"name":"Cylinder.433",
			"primitives":[
				{
					"attributes":{
						"POSITION":8,
						"NORMAL":9,
						"TEXCOORD_0":10
					},
					"indices":11,
					"material":0
				}
			]
		},
		{
			"name":"Plane.041",
			"primitives":[
				{
					"attributes":{
						"POSITION":12,
						"NORMAL":13,
						"TEXCOORD_0":14,
						"TANGENT":15
					},
					"indices":16,
					"material":1
				}
			]
		},
		{
			"name":"Cylinder.434",
			"primitives":[
				{
					"attributes":{
						"POSITION":17,
						"NORMAL":18,
						"TEXCOORD_0":19
					},
					"indices":20,
					"material":0
				}
			]
		},
		{
			"name":"Cylinder.435",
			"primitives":[
				{
					"attributes":{
						"POSITION":21,
						"NORMAL":22,
						"TEXCOORD_0":23,
						"TANGENT":24
					},
					"indices":25,
					"material":0
				}
			]
		}
	],
	"textures":[
		{
			"sampler":0,
			"source":0
		},
		{
			"sampler":0,
			"source":0
		},
		{
			"sampler":0,
			"source":0
		}
	],
	"images":[
		{
			"mimeType":"image/png",
			"name":"PiratesPack_TX",
			"uri":"tex/PiratesPack_TX.png"
		}
	],
	"accessors":[
		{
			"bufferView":0,
			"componentType":5126,
			"count":63,
			"max":[
				4.000011444091797,
				3.9999923706054688,
				15.000001907348633
			],
			"min":[
				-3.9999771118164062,
				-4.000007629394531,
				7.650002479553223
			],
			"type":"VEC3"
		},
		{
			"bufferView":1,
			"componentType":5126,
			"count":63,
			"type":"VEC3"
		},
		{
			"bufferView":2,
			"componentType":5126,
			"count":63,
			"type":"VEC2"
		},
		{
			"bufferView":3,
			"componentType":5123,
			"count":135,
			"type":"SCALAR"
		},
		{
			"bufferView":4,
			"componentType":5126,
			"count":36,
			"max":[
				3.4499664306640625,
				-10.65999984741211,
				4
			],
			"min":[
				-4,
				-10.899999618530273,
				-4
			],
			"type":"VEC3"
		},
		{
			"bufferView":5,
			"componentType":5126,
			"count":36,
			"type":"VEC3"
		},
		{
			"bufferView":6,
			"componentType":5126,
			"count":36,
			"type":"VEC2"
		},
		{
			"bufferView":7,
			"componentType":5123,
			"count":60,
			"type":"SCALAR"
		},
		{
			"bufferView":8,
			"componentType":5126,
			"count":30,
			"max":[
				3.4666249752044678,
				7.9000091552734375,
				4
			],
			"min":[
				2.9999923706054688,
				-10.850003242492676,
				-4
			],
			"type":"VEC3"
		},
		{
			"bufferView":9,
			"componentType":5126,
			"count":30,
			"type":"VEC3"
		},
		{
			"bufferView":10,
			"componentType":5126,
			"count":30,
			"type":"VEC2"
		},
		{
			"bufferView":11,
			"componentType":5123,
			"count":48,
			"type":"SCALAR"
		},
		{
			"bufferView":12,
			"componentType":5126,
			"count":8,
			"max":[
				13.374977111816406,
				2.8999557495117188,
				0.09059995412826538
			],
			"min":[
				6.374977111816406,
				2.8999557495117188,
				-0.09059959650039673
			],
			"type":"VEC3"
		},
		{
			"bufferView":13,
			"componentType":5126,
			"count":8,
			"type":"VEC3"
		},
		{
			"bufferView":14,
			"componentType":5126,
			"count":8,
			"type":"VEC2"
		},
		{
			"bufferView":15,
			"componentType":5126,
			"count":8,
			"type":"VEC4"
		},
		{
			"bufferView":16,
			"componentType":5123,
			"count":12,
			"type":"SCALAR"
		},
		{
			"bufferView":17,
			"componentType":5126,
			"count":50,
			"max":[
				1.9999985694885254,
				2.000001907348633,
				7.500000953674316
			],
			"min":[
				-2.0000011920928955,
				-2.0000009536743164,
				3.8250012397766113
			],
			"type":"VEC3"
		},
		{
			"bufferView":18,
			"componentType":5126,
			"count":50,
			"type":"VEC3"
		},
		{
			"bufferView":19,
			"componentType":5126,
			"count":50,
			"type":"VEC2"
		},
		{
			"bufferView":20,
			"componentType":5123,
			"count":102,
			"type":"SCALAR"
		},
		{
			"bufferView":21,
			"componentType":5126,
			"count":40,
			"max":[
				-1.5979642868041992,
				-0.7369575500488281,
				3.85764741897583
			],
			"min":[
				-1.9999995231628418,
				-2.0000009536743164,
				3.7923545837402344
			],
			"type":"VEC3"
		},
		{
			"bufferView":22,
			"componentType":5126,
			"count":40,
			"type":"VEC3"
		},
		{
			"bufferView":23,
			"componentType":5126,
			"count":40,
			"type":"VEC2"
		},
		{
			"bufferView":24,
			"componentType":5126,
			"count":40,
			"type":"VEC4"
		},
		{
			"bufferView":25,
			"componentType":5123,
			"count":60,
			"type":"SCALAR"
		}
	],
	"bufferViews":[
		{
			"buffer":0,
			"byteLength":756,
			"byteOffset":0,
			"target":34962
		},
		{
			"buffer":0,
			"byteLength":756,
			"byteOffset":756,
			"target":34962
		},
		{
			"buffer":0,
			"byteLength":504,
			"byteOffset":1512,
			"target":34962
		},
		{
			"buffer":0,
			"byteLength":270,
			"byteOffset":2016,
			"target":34963
		},
		{
			"buffer":0,
			"byteLength":432,
			"byteOffset":2288,
			"target":34962
		},
		{
			"buffer":0,
			"byteLength":432,
			"byteOffset":2720,
			"target":34962
		},
		{
			"buffer":0,
			"byteLength":288,
			"byteOffset":3152,
			"target":34962
		},
		{
			"buffer":0,
			"byteLength":120,
			"byteOffset":3440,
			"target":34963
		},
		{
			"buffer":0,
			"byteLength":360,
			"byteOffset":3560,
			"target":34962
		},
		{
			"buffer":0,
			"byteLength":360,
			"byteOffset":3920,
			"target":34962
		},
		{
			"buffer":0,
			"byteLength":240,
			"byteOffset":4280,
			"target":34962
		},
		{
			"buffer":0,
			"byteLength":96,
			"byteOffset":4520,
			"target":34963
		},
		{
			"buffer":0,
			"byteLength":96,
			"byteOffset":4616,
			"target":34962
		},
		{
			"buffer":0,
			"byteLength":96,
			"byteOffset":4712,
			"target":34962
		},
		{
			"buffer":0,
			"byteLength":64,
			"byteOffset":4808,
			"target":34962
		},
		{
			"buffer":0,
			"byteLength":128,
			"byteOffset":4872,
			"target":34962
		},
		{
			"buffer":0,
			"byteLength":24,
			"byteOffset":5000,
			"target":34963
		},
		{
			"buffer":0,
			"byteLength":600,
			"byteOffset":5024,
			"target":34962
		},
		{
			"buffer":0,
			"byteLength":600,
			"byteOffset":5624,
			"target":34962
		},
		{
			"buffer":0,
			"byteLength":400,
			"byteOffset":6224,
			"target":34962
		},
		{
			"buffer":0,
			"byteLength":204,
			"byteOffset":6624,
			"target":34963
		},
		{
			"buffer":0,
			"byteLength":480,
			"byteOffset":6828,
			"target":34962
		},
		{
			"buffer":0,
			"byteLength":480,
			"byteOffset":7308,
			"target":34962
		},
		{
			"buffer":0,
			"byteLength":320,
			"byteOffset":7788,
			"target":34962
		},
		{
			"buffer":0,
			"byteLength":640,
			"byteOffset":8108,
			"target":34962
		},
		{
			"buffer":0,
			"byteLength":120,
			"byteOffset":8748,
			"target":34963
		}
	],
	"samplers":[
		{
			"magFilter":9729,
			"minFilter":9987
		}
	],
	"buffers":[
		{
			"byteLength":8868,
			"uri":"tile_11_0_1.bin"
		}
	]
}
