{
	"asset":{
		"generator":"Khronos glTF Blender I/O v4.0.44",
		"version":"2.0"
	},
	"scene":0,
	"scenes":[
		{
			"name":"Scene",
			"nodes":[
				0,
				1,
				2,
				3,
				4,
				5,
				6,
				7,
				8,
				9,
				10
			]
		}
	],
	"nodes":[
		{
			"name":"pipe.main_collider",
			"rotation":[
				0.7071068286895752,
				0,
				0,
				0.7071068286895752
			]
		},
		{
			"mesh":0,
			"name":"dropin-pillar.01_collider",
			"rotation":[
				0.5000002384185791,
				-0.4999997615814209,
				0.4999997615814209,
				0.5000002384185791
			]
		},
		{
			"mesh":1,
			"name":"dropin-pillar.004_box_collider",
			"rotation":[
				0,
				-1,
				0,
				1.6292068494294654e-07
			]
		},
		{
			"mesh":2,
			"name":"dropin-pillar.006_box_collider",
			"rotation":[
				0,
				-1,
				0,
				1.6292068494294654e-07
			]
		},
		{
			"mesh":3,
			"name":"dropin-pillar.007_box_collider",
			"rotation":[
				0,
				-1,
				0,
				1.6292068494294654e-07
			],
			"scale":[
				0.2649359703063965,
				0.7622181177139282,
				3.020394802093506
			]
		},
		{
			"mesh":4,
			"name":"ground"
		},
		{
			"mesh":5,
			"name":"decal.main",
			"rotation":[
				0,
				-0.7071068286895752,
				0.7071068286895752,
				3.4560699191388267e-07
			]
		},
		{
			"mesh":6,
			"name":"dropin-pillar.01",
			"rotation":[
				0.5000002384185791,
				-0.4999997615814209,
				0.4999997615814209,
				0.5000002384185791
			],
			"scale":[
				3,
				3,
				3
			]
		},
		{
			"mesh":7,
			"name":"dropin-pillar.01.flag",
			"rotation":[
				0,
				-0.7071068286895752,
				0.7071068286895752,
				1.1520233300643667e-07
			],
			"scale":[
				2,
				2,
				2
			]
		},
		{
			"name":"pipe.main",
			"rotation":[
				0.7071068286895752,
				0,
				0,
				0.7071068286895752
			],
			"scale":[
				2,
				2,
				2
			]
		},
		{
			"name":"pipe.main.rim",
			"rotation":[
				0.7071068286895752,
				0,
				0,
				0.7071068286895752
			],
			"scale":[
				2,
				2,
				2
			]
		}
	],
	"materials":[
		{
			"doubleSided":true,
			"name":"dcl.PiratesPack",
			"pbrMetallicRoughness":{
				"baseColorTexture":{
					"index":0
				},
				"metallicFactor":0
			}
		},
		{
			"doubleSided":true,
			"emissiveFactor":[
				1,
				1,
				1
			],
			"emissiveTexture":{
				"index":1
			},
			"name":"dcl.PiratesPack.emissive",
			"pbrMetallicRoughness":{
				"baseColorTexture":{
					"index":2
				},
				"metallicFactor":0
			}
		}
	],
	"meshes":[
		{
			"name":"Cylinder.227",
			"primitives":[
				{
					"attributes":{
						"POSITION":0,
						"NORMAL":1,
						"TEXCOORD_0":2
					},
					"indices":3
				}
			]
		},
		{
			"name":"Cube.282",
			"primitives":[
				{
					"attributes":{
						"POSITION":4,
						"NORMAL":5,
						"TEXCOORD_0":6,
						"TANGENT":7
					},
					"indices":8
				}
			]
		},
		{
			"name":"Cube.283",
			"primitives":[
				{
					"attributes":{
						"POSITION":9,
						"NORMAL":10,
						"TEXCOORD_0":11,
						"TANGENT":12
					},
					"indices":8
				}
			]
		},
		{
			"name":"Cube.284",
			"primitives":[
				{
					"attributes":{
						"POSITION":13,
						"NORMAL":14,
						"TEXCOORD_0":15,
						"TANGENT":16
					},
					"indices":17
				}
			]
		},
		{
			"name":"Cube.285",
			"primitives":[
				{
					"attributes":{
						"POSITION":18,
						"NORMAL":19,
						"TEXCOORD_0":20,
						"TANGENT":21
					},
					"indices":22,
					"material":0
				}
			]
		},
		{
			"name":"Cylinder.228",
			"primitives":[
				{
					"attributes":{
						"POSITION":23,
						"NORMAL":24,
						"TEXCOORD_0":25
					},
					"indices":26,
					"material":1
				}
			]
		},
		{
			"name":"Cylinder.229",
			"primitives":[
				{
					"attributes":{
						"POSITION":27,
						"NORMAL":28,
						"TEXCOORD_0":29
					},
					"indices":30,
					"material":0
				}
			]
		},
		{
			"name":"Cylinder.230",
			"primitives":[
				{
					"attributes":{
						"POSITION":31,
						"NORMAL":32,
						"TEXCOORD_0":33
					},
					"indices":34,
					"material":0
				}
			]
		}
	],
	"textures":[
		{
			"sampler":0,
			"source":0
		},
		{
			"sampler":0,
			"source":0
		},
		{
			"sampler":0,
			"source":0
		}
	],
	"images":[
		{
			"mimeType":"image/png",
			"name":"PiratesPack_TX",
			"uri":"tex/PiratesPack_TX.png"
		}
	],
	"accessors":[
		{
			"bufferView":0,
			"componentType":5126,
			"count":70,
			"max":[
				3.9999961853027344,
				4.000003814697266,
				15
			],
			"min":[
				-2.2390613555908203,
				-3.1076488494873047,
				6.293066024780273
			],
			"type":"VEC3"
		},
		{
			"bufferView":1,
			"componentType":5126,
			"count":70,
			"type":"VEC3"
		},
		{
			"bufferView":2,
			"componentType":5126,
			"count":70,
			"type":"VEC2"
		},
		{
			"bufferView":3,
			"componentType":5123,
			"count":186,
			"type":"SCALAR"
		},
		{
			"bufferView":4,
			"componentType":5126,
			"count":24,
			"max":[
				1.8828942775726318,
				-4.790685653686523,
				-1.6536049842834473
			],
			"min":[
				0.6423743367195129,
				-10.290685653686523,
				-2.7500128746032715
			],
			"type":"VEC3"
		},
		{
			"bufferView":5,
			"componentType":5126,
			"count":24,
			"type":"VEC3"
		},
		{
			"bufferView":6,
			"componentType":5126,
			"count":24,
			"type":"VEC2"
		},
		{
			"bufferView":7,
			"componentType":5126,
			"count":24,
			"type":"VEC4"
		},
		{
			"bufferView":8,
			"componentType":5123,
			"count":36,
			"type":"SCALAR"
		},
		{
			"bufferView":9,
			"componentType":5126,
			"count":24,
			"max":[
				1.4902949333190918,
				-0.29633235931396484,
				-2.000595808029175
			],
			"min":[
				1.0349736213684082,
				-5.1272783279418945,
				-2.403022050857544
			],
			"type":"VEC3"
		},
		{
			"bufferView":10,
			"componentType":5126,
			"count":24,
			"type":"VEC3"
		},
		{
			"bufferView":11,
			"componentType":5126,
			"count":24,
			"type":"VEC2"
		},
		{
			"bufferView":12,
			"componentType":5126,
			"count":24,
			"type":"VEC4"
		},
		{
			"bufferView":13,
			"componentType":5126,
			"count":24,
			"max":[
				5.76580810546875,
				-0.417213499546051,
				-0.6539773941040039
			],
			"min":[
				3.76580810546875,
				-2.4172134399414062,
				-1.3243310451507568
			],
			"type":"VEC3"
		},
		{
			"bufferView":14,
			"componentType":5126,
			"count":24,
			"type":"VEC3"
		},
		{
			"bufferView":15,
			"componentType":5126,
			"count":24,
			"type":"VEC2"
		},
		{
			"bufferView":16,
			"componentType":5126,
			"count":24,
			"type":"VEC4"
		},
		{
			"bufferView":17,
			"componentType":5123,
			"count":36,
			"type":"SCALAR"
		},
		{
			"bufferView":18,
			"componentType":5126,
			"count":24,
			"max":[
				4,
				-10.65999984741211,
				4
			],
			"min":[
				-4,
				-10.899999618530273,
				-4
			],
			"type":"VEC3"
		},
		{
			"bufferView":19,
			"componentType":5126,
			"count":24,
			"type":"VEC3"
		},
		{
			"bufferView":20,
			"componentType":5126,
			"count":24,
			"type":"VEC2"
		},
		{
			"bufferView":21,
			"componentType":5126,
			"count":24,
			"type":"VEC4"
		},
		{
			"bufferView":22,
			"componentType":5123,
			"count":36,
			"type":"SCALAR"
		},
		{
			"bufferView":23,
			"componentType":5126,
			"count":13,
			"max":[
				4.000003814697266,
				3.4890589714050293,
				10.630559921264648
			],
			"min":[
				-3.9999961853027344,
				-3.9999542236328125,
				10.630513191223145
			],
			"type":"VEC3"
		},
		{
			"bufferView":24,
			"componentType":5126,
			"count":13,
			"type":"VEC3"
		},
		{
			"bufferView":25,
			"componentType":5126,
			"count":13,
			"type":"VEC2"
		},
		{
			"bufferView":26,
			"componentType":5123,
			"count":27,
			"type":"SCALAR"
		},
		{
			"bufferView":27,
			"componentType":5126,
			"count":382,
			"max":[
				1.333336353302002,
				1.3333346843719482,
				4.999999523162842
			],
			"min":[
				-0.746351957321167,
				-1.0358848571777344,
				1.5976879596710205
			],
			"type":"VEC3"
		},
		{
			"bufferView":28,
			"componentType":5126,
			"count":382,
			"type":"VEC3"
		},
		{
			"bufferView":29,
			"componentType":5126,
			"count":382,
			"type":"VEC2"
		},
		{
			"bufferView":30,
			"componentType":5123,
			"count":954,
			"type":"SCALAR"
		},
		{
			"bufferView":31,
			"componentType":5126,
			"count":44,
			"max":[
				0.741830587387085,
				-0.981115460395813,
				2.396533489227295
			],
			"min":[
				0.5468301773071289,
				-2,
				0.14653348922729492
			],
			"type":"VEC3"
		},
		{
			"bufferView":32,
			"componentType":5126,
			"count":44,
			"type":"VEC3"
		},
		{
			"bufferView":33,
			"componentType":5126,
			"count":44,
			"type":"VEC2"
		},
		{
			"bufferView":34,
			"componentType":5123,
			"count":90,
			"type":"SCALAR"
		}
	],
	"bufferViews":[
		{
			"buffer":0,
			"byteLength":840,
			"byteOffset":0,
			"target":34962
		},
		{
			"buffer":0,
			"byteLength":840,
			"byteOffset":840,
			"target":34962
		},
		{
			"buffer":0,
			"byteLength":560,
			"byteOffset":1680,
			"target":34962
		},
		{
			"buffer":0,
			"byteLength":372,
			"byteOffset":2240,
			"target":34963
		},
		{
			"buffer":0,
			"byteLength":288,
			"byteOffset":2612,
			"target":34962
		},
		{
			"buffer":0,
			"byteLength":288,
			"byteOffset":2900,
			"target":34962
		},
		{
			"buffer":0,
			"byteLength":192,
			"byteOffset":3188,
			"target":34962
		},
		{
			"buffer":0,
			"byteLength":384,
			"byteOffset":3380,
			"target":34962
		},
		{
			"buffer":0,
			"byteLength":72,
			"byteOffset":3764,
			"target":34963
		},
		{
			"buffer":0,
			"byteLength":288,
			"byteOffset":3836,
			"target":34962
		},
		{
			"buffer":0,
			"byteLength":288,
			"byteOffset":4124,
			"target":34962
		},
		{
			"buffer":0,
			"byteLength":192,
			"byteOffset":4412,
			"target":34962
		},
		{
			"buffer":0,
			"byteLength":384,
			"byteOffset":4604,
			"target":34962
		},
		{
			"buffer":0,
			"byteLength":288,
			"byteOffset":4988,
			"target":34962
		},
		{
			"buffer":0,
			"byteLength":288,
			"byteOffset":5276,
			"target":34962
		},
		{
			"buffer":0,
			"byteLength":192,
			"byteOffset":5564,
			"target":34962
		},
		{
			"buffer":0,
			"byteLength":384,
			"byteOffset":5756,
			"target":34962
		},
		{
			"buffer":0,
			"byteLength":72,
			"byteOffset":6140,
			"target":34963
		},
		{
			"buffer":0,
			"byteLength":288,
			"byteOffset":6212,
			"target":34962
		},
		{
			"buffer":0,
			"byteLength":288,
			"byteOffset":6500,
			"target":34962
		},
		{
			"buffer":0,
			"byteLength":192,
			"byteOffset":6788,
			"target":34962
		},
		{
			"buffer":0,
			"byteLength":384,
			"byteOffset":6980,
			"target":34962
		},
		{
			"buffer":0,
			"byteLength":72,
			"byteOffset":7364,
			"target":34963
		},
		{
			"buffer":0,
			"byteLength":156,
			"byteOffset":7436,
			"target":34962
		},
		{
			"buffer":0,
			"byteLength":156,
			"byteOffset":7592,
			"target":34962
		},
		{
			"buffer":0,
			"byteLength":104,
			"byteOffset":7748,
			"target":34962
		},
		{
			"buffer":0,
			"byteLength":54,
			"byteOffset":7852,
			"target":34963
		},
		{
			"buffer":0,
			"byteLength":4584,
			"byteOffset":7908,
			"target":34962
		},
		{
			"buffer":0,
			"byteLength":4584,
			"byteOffset":12492,
			"target":34962
		},
		{
			"buffer":0,
			"byteLength":3056,
			"byteOffset":17076,
			"target":34962
		},
		{
			"buffer":0,
			"byteLength":1908,
			"byteOffset":20132,
			"target":34963
		},
		{
			"buffer":0,
			"byteLength":528,
			"byteOffset":22040,
			"target":34962
		},
		{
			"buffer":0,
			"byteLength":528,
			"byteOffset":22568,
			"target":34962
		},
		{
			"buffer":0,
			"byteLength":352,
			"byteOffset":23096,
			"target":34962
		},
		{
			"buffer":0,
			"byteLength":180,
			"byteOffset":23448,
			"target":34963
		}
	],
	"samplers":[
		{
			"magFilter":9729,
			"minFilter":9987
		}
	],
	"buffers":[
		{
			"byteLength":23628,
			"uri":"tile_6_0_6.bin"
		}
	]
}
