{
	"asset":{
		"generator":"Khronos glTF Blender I/O v4.0.44",
		"version":"2.0"
	},
	"scene":0,
	"scenes":[
		{
			"name":"Scene",
			"nodes":[
				0,
				1,
				2,
				3,
				4
			]
		}
	],
	"nodes":[
		{
			"mesh":0,
			"name":"grindcurve.01_collider",
			"rotation":[
				0,
				-0.6427873969078064,
				0,
				0.7660446763038635
			]
		},
		{
			"mesh":1,
			"name":"ground"
		},
		{
			"name":"decal.main",
			"rotation":[
				0,
				-0.7071068286895752,
				0.7071068286895752,
				3.4560699191388267e-07
			]
		},
		{
			"mesh":2,
			"name":"grindcurve.01",
			"rotation":[
				0,
				0.7660448551177979,
				0,
				0.6427870988845825
			]
		},
		{
			"mesh":3,
			"name":"grindcurve.003",
			"rotation":[
				0,
				0.7660448551177979,
				0,
				0.6427870988845825
			]
		}
	],
	"materials":[
		{
			"doubleSided":true,
			"name":"dcl.PiratesPack",
			"pbrMetallicRoughness":{
				"baseColorTexture":{
					"index":0
				},
				"metallicFactor":0
			}
		}
	],
	"meshes":[
		{
			"name":"Cylinder.167",
			"primitives":[
				{
					"attributes":{
						"POSITION":0,
						"NORMAL":1,
						"TEXCOORD_0":2
					},
					"indices":3
				}
			]
		},
		{
			"name":"Cube.206",
			"primitives":[
				{
					"attributes":{
						"POSITION":4,
						"NORMAL":5,
						"TEXCOORD_0":6,
						"TANGENT":7
					},
					"indices":8,
					"material":0
				}
			]
		},
		{
			"name":"Cylinder.169",
			"primitives":[
				{
					"attributes":{
						"POSITION":9,
						"NORMAL":10,
						"TEXCOORD_0":11
					},
					"indices":12,
					"material":0
				}
			]
		},
		{
			"name":"grindcurve.014",
			"primitives":[
				{
					"attributes":{
						"POSITION":13,
						"NORMAL":14,
						"TEXCOORD_0":15,
						"TANGENT":16
					},
					"indices":17,
					"material":0
				}
			]
		}
	],
	"textures":[
		{
			"sampler":0,
			"source":0
		}
	],
	"images":[
		{
			"mimeType":"image/png",
			"name":"PiratesPack_TX",
			"uri":"tex/PiratesPack_TX.png"
		}
	],
	"accessors":[
		{
			"bufferView":0,
			"componentType":5126,
			"count":39,
			"max":[
				3.5289933681488037,
				-8.5,
				4.633825778961182
			],
			"min":[
				-3.505859613418579,
				-15,
				2.3796844482421875
			],
			"type":"VEC3"
		},
		{
			"bufferView":1,
			"componentType":5126,
			"count":39,
			"type":"VEC3"
		},
		{
			"bufferView":2,
			"componentType":5126,
			"count":39,
			"type":"VEC2"
		},
		{
			"bufferView":3,
			"componentType":5123,
			"count":90,
			"type":"SCALAR"
		},
		{
			"bufferView":4,
			"componentType":5126,
			"count":24,
			"max":[
				4,
				-10.65999984741211,
				4
			],
			"min":[
				-4,
				-10.899999618530273,
				-4
			],
			"type":"VEC3"
		},
		{
			"bufferView":5,
			"componentType":5126,
			"count":24,
			"type":"VEC3"
		},
		{
			"bufferView":6,
			"componentType":5126,
			"count":24,
			"type":"VEC2"
		},
		{
			"bufferView":7,
			"componentType":5126,
			"count":24,
			"type":"VEC4"
		},
		{
			"bufferView":8,
			"componentType":5123,
			"count":36,
			"type":"SCALAR"
		},
		{
			"bufferView":9,
			"componentType":5126,
			"count":71,
			"max":[
				3.505859851837158,
				-8.149999618530273,
				-2.3796844482421875
			],
			"min":[
				-3.528991460800171,
				-15,
				-4.6338276863098145
			],
			"type":"VEC3"
		},
		{
			"bufferView":10,
			"componentType":5126,
			"count":71,
			"type":"VEC3"
		},
		{
			"bufferView":11,
			"componentType":5126,
			"count":71,
			"type":"VEC2"
		},
		{
			"bufferView":12,
			"componentType":5123,
			"count":174,
			"type":"SCALAR"
		},
		{
			"bufferView":13,
			"componentType":5126,
			"count":104,
			"max":[
				3.7448272705078125,
				-8.029850959777832,
				-2.229684829711914
			],
			"min":[
				-3.5562591552734375,
				-8.329832077026367,
				-3.4856090545654297
			],
			"type":"VEC3"
		},
		{
			"bufferView":14,
			"componentType":5126,
			"count":104,
			"type":"VEC3"
		},
		{
			"bufferView":15,
			"componentType":5126,
			"count":104,
			"type":"VEC2"
		},
		{
			"bufferView":16,
			"componentType":5126,
			"count":104,
			"type":"VEC4"
		},
		{
			"bufferView":17,
			"componentType":5123,
			"count":156,
			"type":"SCALAR"
		}
	],
	"bufferViews":[
		{
			"buffer":0,
			"byteLength":468,
			"byteOffset":0,
			"target":34962
		},
		{
			"buffer":0,
			"byteLength":468,
			"byteOffset":468,
			"target":34962
		},
		{
			"buffer":0,
			"byteLength":312,
			"byteOffset":936,
			"target":34962
		},
		{
			"buffer":0,
			"byteLength":180,
			"byteOffset":1248,
			"target":34963
		},
		{
			"buffer":0,
			"byteLength":288,
			"byteOffset":1428,
			"target":34962
		},
		{
			"buffer":0,
			"byteLength":288,
			"byteOffset":1716,
			"target":34962
		},
		{
			"buffer":0,
			"byteLength":192,
			"byteOffset":2004,
			"target":34962
		},
		{
			"buffer":0,
			"byteLength":384,
			"byteOffset":2196,
			"target":34962
		},
		{
			"buffer":0,
			"byteLength":72,
			"byteOffset":2580,
			"target":34963
		},
		{
			"buffer":0,
			"byteLength":852,
			"byteOffset":2652,
			"target":34962
		},
		{
			"buffer":0,
			"byteLength":852,
			"byteOffset":3504,
			"target":34962
		},
		{
			"buffer":0,
			"byteLength":568,
			"byteOffset":4356,
			"target":34962
		},
		{
			"buffer":0,
			"byteLength":348,
			"byteOffset":4924,
			"target":34963
		},
		{
			"buffer":0,
			"byteLength":1248,
			"byteOffset":5272,
			"target":34962
		},
		{
			"buffer":0,
			"byteLength":1248,
			"byteOffset":6520,
			"target":34962
		},
		{
			"buffer":0,
			"byteLength":832,
			"byteOffset":7768,
			"target":34962
		},
		{
			"buffer":0,
			"byteLength":1664,
			"byteOffset":8600,
			"target":34962
		},
		{
			"buffer":0,
			"byteLength":312,
			"byteOffset":10264,
			"target":34963
		}
	],
	"samplers":[
		{
			"magFilter":9729,
			"minFilter":9987
		}
	],
	"buffers":[
		{
			"byteLength":10576,
			"uri":"tile_4_0_8.bin"
		}
	]
}
