{
	"asset":{
		"generator":"Khronos glTF Blender I/O v4.0.44",
		"version":"2.0"
	},
	"scene":0,
	"scenes":[
		{
			"name":"Scene",
			"nodes":[
				0,
				1,
				2,
				3,
				4,
				5,
				6,
				7,
				8,
				9,
				10,
				11
			]
		}
	],
	"nodes":[
		{
			"name":"pipe.main_collider",
			"rotation":[
				0.7071068286895752,
				0,
				0,
				0.7071068286895752
			]
		},
		{
			"mesh":0,
			"name":"entrance.pillar.002_collider",
			"rotation":[
				0.7071068286895752,
				0,
				0,
				0.7071068286895752
			]
		},
		{
			"mesh":1,
			"name":"wall.south.006"
		},
		{
			"mesh":2,
			"name":"ground"
		},
		{
			"name":"decal.main",
			"rotation":[
				0,
				-0.7071068286895752,
				0.7071068286895752,
				3.4560699191388267e-07
			]
		},
		{
			"mesh":3,
			"name":"neons.003",
			"rotation":[
				0.4999999403953552,
				-0.49999988079071045,
				-0.5000001192092896,
				0.5000001192092896
			],
			"scale":[
				0.19999998807907104,
				1,
				47.68861770629883
			]
		},
		{
			"name":"pipe.main",
			"rotation":[
				0.7071068286895752,
				0,
				0,
				0.7071068286895752
			],
			"scale":[
				2,
				2,
				2
			]
		},
		{
			"name":"pipe.main.rim",
			"rotation":[
				0.7071068286895752,
				0,
				0,
				0.7071068286895752
			],
			"scale":[
				2,
				2,
				2
			]
		},
		{
			"mesh":4,
			"name":"tyre_001.001",
			"rotation":[
				0.7071068286895752,
				0,
				0,
				0.7071068286895752
			]
		},
		{
			"mesh":5,
			"name":"tyre_002.001",
			"rotation":[
				0.7071068286895752,
				0,
				0,
				0.7071068286895752
			]
		},
		{
			"mesh":6,
			"name":"tyre_003.003",
			"rotation":[
				0.7071068286895752,
				0,
				0,
				0.7071068286895752
			]
		},
		{
			"mesh":7,
			"name":"tyre_004.001",
			"rotation":[
				0.7071068286895752,
				0,
				0,
				0.7071068286895752
			]
		}
	],
	"materials":[
		{
			"doubleSided":true,
			"name":"dcl.PiratesPack",
			"pbrMetallicRoughness":{
				"baseColorTexture":{
					"index":0
				},
				"metallicFactor":0
			}
		},
		{
			"doubleSided":true,
			"emissiveFactor":[
				1,
				1,
				1
			],
			"emissiveTexture":{
				"index":1
			},
			"name":"dcl.PiratesPack.emissive",
			"pbrMetallicRoughness":{
				"baseColorTexture":{
					"index":2
				},
				"metallicFactor":0
			}
		}
	],
	"meshes":[
		{
			"name":"Cube.301",
			"primitives":[
				{
					"attributes":{
						"POSITION":0,
						"NORMAL":1,
						"TEXCOORD_0":2
					},
					"indices":3
				}
			]
		},
		{
			"name":"Cylinder.254",
			"primitives":[
				{
					"attributes":{
						"POSITION":4,
						"NORMAL":5,
						"TEXCOORD_0":6
					},
					"indices":7,
					"material":0
				}
			]
		},
		{
			"name":"Cube.302",
			"primitives":[
				{
					"attributes":{
						"POSITION":8,
						"NORMAL":9,
						"TEXCOORD_0":10
					},
					"indices":11,
					"material":0
				}
			]
		},
		{
			"name":"Plane.031",
			"primitives":[
				{
					"attributes":{
						"POSITION":12,
						"NORMAL":13,
						"TEXCOORD_0":14,
						"TANGENT":15
					},
					"indices":16,
					"material":1
				}
			]
		},
		{
			"name":"Cube.303",
			"primitives":[
				{
					"attributes":{
						"POSITION":17,
						"NORMAL":18,
						"TEXCOORD_0":19
					},
					"indices":20,
					"material":0
				}
			]
		},
		{
			"name":"Cube.304",
			"primitives":[
				{
					"attributes":{
						"POSITION":21,
						"NORMAL":22,
						"TEXCOORD_0":23
					},
					"indices":24,
					"material":0
				}
			]
		},
		{
			"name":"Cube.305",
			"primitives":[
				{
					"attributes":{
						"POSITION":25,
						"NORMAL":26,
						"TEXCOORD_0":27
					},
					"indices":28,
					"material":0
				}
			]
		},
		{
			"name":"Cube.306",
			"primitives":[
				{
					"attributes":{
						"POSITION":29,
						"NORMAL":30,
						"TEXCOORD_0":31
					},
					"indices":32,
					"material":0
				}
			]
		}
	],
	"textures":[
		{
			"sampler":0,
			"source":0
		},
		{
			"sampler":0,
			"source":0
		},
		{
			"sampler":0,
			"source":0
		}
	],
	"images":[
		{
			"mimeType":"image/png",
			"name":"PiratesPack_TX",
			"uri":"tex/PiratesPack_TX.png"
		}
	],
	"accessors":[
		{
			"bufferView":0,
			"componentType":5126,
			"count":86,
			"max":[
				-1.8316318988800049,
				0.08642911911010742,
				10.459592819213867
			],
			"min":[
				-4,
				-4,
				2.0826268196105957
			],
			"type":"VEC3"
		},
		{
			"bufferView":1,
			"componentType":5126,
			"count":86,
			"type":"VEC3"
		},
		{
			"bufferView":2,
			"componentType":5126,
			"count":86,
			"type":"VEC2"
		},
		{
			"bufferView":3,
			"componentType":5123,
			"count":228,
			"type":"SCALAR"
		},
		{
			"bufferView":4,
			"componentType":5126,
			"count":46,
			"max":[
				4,
				1.600001335144043,
				1.000009536743164
			],
			"min":[
				-4,
				-10.899999618530273,
				1.1682510375976562e-05
			],
			"type":"VEC3"
		},
		{
			"bufferView":5,
			"componentType":5126,
			"count":46,
			"type":"VEC3"
		},
		{
			"bufferView":6,
			"componentType":5126,
			"count":46,
			"type":"VEC2"
		},
		{
			"bufferView":7,
			"componentType":5123,
			"count":96,
			"type":"SCALAR"
		},
		{
			"bufferView":8,
			"componentType":5126,
			"count":36,
			"max":[
				4,
				-10.65999984741211,
				0
			],
			"min":[
				-4,
				-10.899999618530273,
				-4
			],
			"type":"VEC3"
		},
		{
			"bufferView":9,
			"componentType":5126,
			"count":36,
			"type":"VEC3"
		},
		{
			"bufferView":10,
			"componentType":5126,
			"count":36,
			"type":"VEC2"
		},
		{
			"bufferView":11,
			"componentType":5123,
			"count":60,
			"type":"SCALAR"
		},
		{
			"bufferView":12,
			"componentType":5126,
			"count":8,
			"max":[
				13.374987602233887,
				-0.09999469667673111,
				0.07427690923213959
			],
			"min":[
				6.37498664855957,
				-0.09999492764472961,
				-0.08387759327888489
			],
			"type":"VEC3"
		},
		{
			"bufferView":13,
			"componentType":5126,
			"count":8,
			"type":"VEC3"
		},
		{
			"bufferView":14,
			"componentType":5126,
			"count":8,
			"type":"VEC2"
		},
		{
			"bufferView":15,
			"componentType":5126,
			"count":8,
			"type":"VEC4"
		},
		{
			"bufferView":16,
			"componentType":5123,
			"count":12,
			"type":"SCALAR"
		},
		{
			"bufferView":17,
			"componentType":5126,
			"count":178,
			"max":[
				-2.0041885375976562,
				-0.034766554832458496,
				10.65999984741211
			],
			"min":[
				-4,
				-3.907278060913086,
				8.65999984741211
			],
			"type":"VEC3"
		},
		{
			"bufferView":18,
			"componentType":5126,
			"count":178,
			"type":"VEC3"
		},
		{
			"bufferView":19,
			"componentType":5126,
			"count":178,
			"type":"VEC2"
		},
		{
			"bufferView":20,
			"componentType":5123,
			"count":468,
			"type":"SCALAR"
		},
		{
			"bufferView":21,
			"componentType":5126,
			"count":194,
			"max":[
				-1.7907180786132812,
				-0.034766554832458496,
				8.64003849029541
			],
			"min":[
				-4,
				-3.907278060913086,
				6.64003849029541
			],
			"type":"VEC3"
		},
		{
			"bufferView":22,
			"componentType":5126,
			"count":194,
			"type":"VEC3"
		},
		{
			"bufferView":23,
			"componentType":5126,
			"count":194,
			"type":"VEC2"
		},
		{
			"bufferView":24,
			"componentType":5123,
			"count":528,
			"type":"SCALAR"
		},
		{
			"bufferView":25,
			"componentType":5126,
			"count":185,
			"max":[
				-1.9934005737304688,
				-0.22314345836639404,
				6.582625865936279
			],
			"min":[
				-4,
				-4,
				4.582625865936279
			],
			"type":"VEC3"
		},
		{
			"bufferView":26,
			"componentType":5126,
			"count":185,
			"type":"VEC3"
		},
		{
			"bufferView":27,
			"componentType":5126,
			"count":185,
			"type":"VEC2"
		},
		{
			"bufferView":28,
			"componentType":5123,
			"count":480,
			"type":"SCALAR"
		},
		{
			"bufferView":29,
			"componentType":5126,
			"count":178,
			"max":[
				-1.8754920959472656,
				-0.06549394130706787,
				4.582625865936279
			],
			"min":[
				-4,
				-3.9380054473876953,
				2.5826258659362793
			],
			"type":"VEC3"
		},
		{
			"bufferView":30,
			"componentType":5126,
			"count":178,
			"type":"VEC3"
		},
		{
			"bufferView":31,
			"componentType":5126,
			"count":178,
			"type":"VEC2"
		},
		{
			"bufferView":32,
			"componentType":5123,
			"count":468,
			"type":"SCALAR"
		}
	],
	"bufferViews":[
		{
			"buffer":0,
			"byteLength":1032,
			"byteOffset":0,
			"target":34962
		},
		{
			"buffer":0,
			"byteLength":1032,
			"byteOffset":1032,
			"target":34962
		},
		{
			"buffer":0,
			"byteLength":688,
			"byteOffset":2064,
			"target":34962
		},
		{
			"buffer":0,
			"byteLength":456,
			"byteOffset":2752,
			"target":34963
		},
		{
			"buffer":0,
			"byteLength":552,
			"byteOffset":3208,
			"target":34962
		},
		{
			"buffer":0,
			"byteLength":552,
			"byteOffset":3760,
			"target":34962
		},
		{
			"buffer":0,
			"byteLength":368,
			"byteOffset":4312,
			"target":34962
		},
		{
			"buffer":0,
			"byteLength":192,
			"byteOffset":4680,
			"target":34963
		},
		{
			"buffer":0,
			"byteLength":432,
			"byteOffset":4872,
			"target":34962
		},
		{
			"buffer":0,
			"byteLength":432,
			"byteOffset":5304,
			"target":34962
		},
		{
			"buffer":0,
			"byteLength":288,
			"byteOffset":5736,
			"target":34962
		},
		{
			"buffer":0,
			"byteLength":120,
			"byteOffset":6024,
			"target":34963
		},
		{
			"buffer":0,
			"byteLength":96,
			"byteOffset":6144,
			"target":34962
		},
		{
			"buffer":0,
			"byteLength":96,
			"byteOffset":6240,
			"target":34962
		},
		{
			"buffer":0,
			"byteLength":64,
			"byteOffset":6336,
			"target":34962
		},
		{
			"buffer":0,
			"byteLength":128,
			"byteOffset":6400,
			"target":34962
		},
		{
			"buffer":0,
			"byteLength":24,
			"byteOffset":6528,
			"target":34963
		},
		{
			"buffer":0,
			"byteLength":2136,
			"byteOffset":6552,
			"target":34962
		},
		{
			"buffer":0,
			"byteLength":2136,
			"byteOffset":8688,
			"target":34962
		},
		{
			"buffer":0,
			"byteLength":1424,
			"byteOffset":10824,
			"target":34962
		},
		{
			"buffer":0,
			"byteLength":936,
			"byteOffset":12248,
			"target":34963
		},
		{
			"buffer":0,
			"byteLength":2328,
			"byteOffset":13184,
			"target":34962
		},
		{
			"buffer":0,
			"byteLength":2328,
			"byteOffset":15512,
			"target":34962
		},
		{
			"buffer":0,
			"byteLength":1552,
			"byteOffset":17840,
			"target":34962
		},
		{
			"buffer":0,
			"byteLength":1056,
			"byteOffset":19392,
			"target":34963
		},
		{
			"buffer":0,
			"byteLength":2220,
			"byteOffset":20448,
			"target":34962
		},
		{
			"buffer":0,
			"byteLength":2220,
			"byteOffset":22668,
			"target":34962
		},
		{
			"buffer":0,
			"byteLength":1480,
			"byteOffset":24888,
			"target":34962
		},
		{
			"buffer":0,
			"byteLength":960,
			"byteOffset":26368,
			"target":34963
		},
		{
			"buffer":0,
			"byteLength":2136,
			"byteOffset":27328,
			"target":34962
		},
		{
			"buffer":0,
			"byteLength":2136,
			"byteOffset":29464,
			"target":34962
		},
		{
			"buffer":0,
			"byteLength":1424,
			"byteOffset":31600,
			"target":34962
		},
		{
			"buffer":0,
			"byteLength":936,
			"byteOffset":33024,
			"target":34963
		}
	],
	"samplers":[
		{
			"magFilter":9729,
			"minFilter":9987
		}
	],
	"buffers":[
		{
			"byteLength":33960,
			"uri":"tile_7_0_0.bin"
		}
	]
}
