{
	"asset":{
		"generator":"Khronos glTF Blender I/O v4.0.44",
		"version":"2.0"
	},
	"scene":0,
	"scenes":[
		{
			"name":"Scene",
			"nodes":[
				0,
				1,
				2,
				3,
				4,
				5
			]
		}
	],
	"nodes":[
		{
			"mesh":0,
			"name":"pipe.west_collider",
			"rotation":[
				0,
				-0.7071068286895752,
				0.7071068286895752,
				3.4560699191388267e-07
			]
		},
		{
			"mesh":1,
			"name":"wall.west.008"
		},
		{
			"mesh":2,
			"name":"ground"
		},
		{
			"name":"decal.main",
			"rotation":[
				0,
				-0.7071068286895752,
				0.7071068286895752,
				3.4560699191388267e-07
			]
		},
		{
			"mesh":3,
			"name":"neons.002",
			"rotation":[
				0.7071068286895752,
				-0.7071068286895752,
				0,
				1.1520234011186403e-07
			],
			"scale":[
				0.19999998807907104,
				1,
				44.15021896362305
			]
		},
		{
			"mesh":4,
			"name":"pipe.west.001",
			"rotation":[
				0,
				-0.7071068286895752,
				0.7071068286895752,
				3.4560699191388267e-07
			]
		}
	],
	"materials":[
		{
			"doubleSided":true,
			"name":"dcl.PiratesPack",
			"pbrMetallicRoughness":{
				"baseColorTexture":{
					"index":0
				},
				"metallicFactor":0
			}
		},
		{
			"doubleSided":true,
			"emissiveFactor":[
				1,
				1,
				1
			],
			"emissiveTexture":{
				"index":1
			},
			"name":"dcl.PiratesPack.emissive",
			"pbrMetallicRoughness":{
				"baseColorTexture":{
					"index":2
				},
				"metallicFactor":0
			}
		}
	],
	"meshes":[
		{
			"name":"Cylinder.048",
			"primitives":[
				{
					"attributes":{
						"POSITION":0,
						"NORMAL":1,
						"TEXCOORD_0":2
					},
					"indices":3
				}
			]
		},
		{
			"name":"Cylinder.049",
			"primitives":[
				{
					"attributes":{
						"POSITION":4,
						"NORMAL":5,
						"TEXCOORD_0":6
					},
					"indices":7,
					"material":0
				}
			]
		},
		{
			"name":"Cube.043",
			"primitives":[
				{
					"attributes":{
						"POSITION":8,
						"NORMAL":9,
						"TEXCOORD_0":10
					},
					"indices":11,
					"material":0
				}
			]
		},
		{
			"name":"Plane.010",
			"primitives":[
				{
					"attributes":{
						"POSITION":12,
						"NORMAL":13,
						"TEXCOORD_0":14,
						"TANGENT":15
					},
					"indices":16,
					"material":1
				}
			]
		},
		{
			"name":"Cylinder.055",
			"primitives":[
				{
					"attributes":{
						"POSITION":17,
						"NORMAL":18,
						"TEXCOORD_0":19
					},
					"indices":20,
					"material":0
				},
				{
					"attributes":{
						"POSITION":21,
						"NORMAL":22,
						"TEXCOORD_0":23
					},
					"indices":24,
					"material":1
				}
			]
		}
	],
	"textures":[
		{
			"sampler":0,
			"source":0
		},
		{
			"sampler":0,
			"source":0
		},
		{
			"sampler":0,
			"source":0
		}
	],
	"images":[
		{
			"mimeType":"image/png",
			"name":"PiratesPack_TX",
			"uri":"tex/PiratesPack_TX.png"
		}
	],
	"accessors":[
		{
			"bufferView":0,
			"componentType":5126,
			"count":38,
			"max":[
				2.499976634979248,
				3.9999961853027344,
				10.350971221923828
			],
			"min":[
				-3.9999799728393555,
				-4.000003814697266,
				7.659996032714844
			],
			"type":"VEC3"
		},
		{
			"bufferView":1,
			"componentType":5126,
			"count":38,
			"type":"VEC3"
		},
		{
			"bufferView":2,
			"componentType":5126,
			"count":38,
			"type":"VEC2"
		},
		{
			"bufferView":3,
			"componentType":5123,
			"count":90,
			"type":"SCALAR"
		},
		{
			"bufferView":4,
			"componentType":5126,
			"count":21,
			"max":[
				-2.499995231628418,
				7.900005340576172,
				4
			],
			"min":[
				-3.489985227584839,
				-10.85000228881836,
				-4
			],
			"type":"VEC3"
		},
		{
			"bufferView":5,
			"componentType":5126,
			"count":21,
			"type":"VEC3"
		},
		{
			"bufferView":6,
			"componentType":5126,
			"count":21,
			"type":"VEC2"
		},
		{
			"bufferView":7,
			"componentType":5123,
			"count":33,
			"type":"SCALAR"
		},
		{
			"bufferView":8,
			"componentType":5126,
			"count":36,
			"max":[
				4,
				-10.65999984741211,
				4
			],
			"min":[
				-2.9999542236328125,
				-10.899999618530273,
				-4
			],
			"type":"VEC3"
		},
		{
			"bufferView":9,
			"componentType":5126,
			"count":36,
			"type":"VEC3"
		},
		{
			"bufferView":10,
			"componentType":5126,
			"count":36,
			"type":"VEC2"
		},
		{
			"bufferView":11,
			"componentType":5123,
			"count":60,
			"type":"SCALAR"
		},
		{
			"bufferView":12,
			"componentType":5126,
			"count":8,
			"max":[
				13.374984741210938,
				2.4499497413635254,
				0.09059977531433105
			],
			"min":[
				6.3749847412109375,
				2.4499497413635254,
				-0.09059977531433105
			],
			"type":"VEC3"
		},
		{
			"bufferView":13,
			"componentType":5126,
			"count":8,
			"type":"VEC3"
		},
		{
			"bufferView":14,
			"componentType":5126,
			"count":8,
			"type":"VEC2"
		},
		{
			"bufferView":15,
			"componentType":5126,
			"count":8,
			"type":"VEC4"
		},
		{
			"bufferView":16,
			"componentType":5123,
			"count":12,
			"type":"SCALAR"
		},
		{
			"bufferView":17,
			"componentType":5126,
			"count":32,
			"max":[
				2.49997615814209,
				4.000003814697266,
				10.350970268249512
			],
			"min":[
				-3.9999804496765137,
				-3.9999961853027344,
				7.659996032714844
			],
			"type":"VEC3"
		},
		{
			"bufferView":18,
			"componentType":5126,
			"count":32,
			"type":"VEC3"
		},
		{
			"bufferView":19,
			"componentType":5126,
			"count":32,
			"type":"VEC2"
		},
		{
			"bufferView":20,
			"componentType":5123,
			"count":66,
			"type":"SCALAR"
		},
		{
			"bufferView":21,
			"componentType":5126,
			"count":4,
			"max":[
				-2.9999890327453613,
				4.000003814697266,
				8.15999698638916
			],
			"min":[
				-2.999998092651367,
				-3.9999961853027344,
				7.659996032714844
			],
			"type":"VEC3"
		},
		{
			"bufferView":22,
			"componentType":5126,
			"count":4,
			"type":"VEC3"
		},
		{
			"bufferView":23,
			"componentType":5126,
			"count":4,
			"type":"VEC2"
		},
		{
			"bufferView":24,
			"componentType":5123,
			"count":6,
			"type":"SCALAR"
		}
	],
	"bufferViews":[
		{
			"buffer":0,
			"byteLength":456,
			"byteOffset":0,
			"target":34962
		},
		{
			"buffer":0,
			"byteLength":456,
			"byteOffset":456,
			"target":34962
		},
		{
			"buffer":0,
			"byteLength":304,
			"byteOffset":912,
			"target":34962
		},
		{
			"buffer":0,
			"byteLength":180,
			"byteOffset":1216,
			"target":34963
		},
		{
			"buffer":0,
			"byteLength":252,
			"byteOffset":1396,
			"target":34962
		},
		{
			"buffer":0,
			"byteLength":252,
			"byteOffset":1648,
			"target":34962
		},
		{
			"buffer":0,
			"byteLength":168,
			"byteOffset":1900,
			"target":34962
		},
		{
			"buffer":0,
			"byteLength":66,
			"byteOffset":2068,
			"target":34963
		},
		{
			"buffer":0,
			"byteLength":432,
			"byteOffset":2136,
			"target":34962
		},
		{
			"buffer":0,
			"byteLength":432,
			"byteOffset":2568,
			"target":34962
		},
		{
			"buffer":0,
			"byteLength":288,
			"byteOffset":3000,
			"target":34962
		},
		{
			"buffer":0,
			"byteLength":120,
			"byteOffset":3288,
			"target":34963
		},
		{
			"buffer":0,
			"byteLength":96,
			"byteOffset":3408,
			"target":34962
		},
		{
			"buffer":0,
			"byteLength":96,
			"byteOffset":3504,
			"target":34962
		},
		{
			"buffer":0,
			"byteLength":64,
			"byteOffset":3600,
			"target":34962
		},
		{
			"buffer":0,
			"byteLength":128,
			"byteOffset":3664,
			"target":34962
		},
		{
			"buffer":0,
			"byteLength":24,
			"byteOffset":3792,
			"target":34963
		},
		{
			"buffer":0,
			"byteLength":384,
			"byteOffset":3816,
			"target":34962
		},
		{
			"buffer":0,
			"byteLength":384,
			"byteOffset":4200,
			"target":34962
		},
		{
			"buffer":0,
			"byteLength":256,
			"byteOffset":4584,
			"target":34962
		},
		{
			"buffer":0,
			"byteLength":132,
			"byteOffset":4840,
			"target":34963
		},
		{
			"buffer":0,
			"byteLength":48,
			"byteOffset":4972,
			"target":34962
		},
		{
			"buffer":0,
			"byteLength":48,
			"byteOffset":5020,
			"target":34962
		},
		{
			"buffer":0,
			"byteLength":32,
			"byteOffset":5068,
			"target":34962
		},
		{
			"buffer":0,
			"byteLength":12,
			"byteOffset":5100,
			"target":34963
		}
	],
	"samplers":[
		{
			"magFilter":9729,
			"minFilter":9987
		}
	],
	"buffers":[
		{
			"byteLength":5112,
			"uri":"tile_0_0_8.bin"
		}
	]
}
