{
	"asset":{
		"generator":"Khronos glTF Blender I/O v4.0.44",
		"version":"2.0"
	},
	"scene":0,
	"scenes":[
		{
			"name":"Scene",
			"nodes":[
				0,
				1,
				2,
				3,
				4,
				5
			]
		}
	],
	"nodes":[
		{
			"mesh":0,
			"name":"grindcurve.01_collider",
			"rotation":[
				0,
				-0.6427873969078064,
				0,
				0.7660446763038635
			]
		},
		{
			"mesh":1,
			"name":"ground"
		},
		{
			"name":"decal.main",
			"rotation":[
				0,
				-0.7071068286895752,
				0.7071068286895752,
				3.4560699191388267e-07
			]
		},
		{
			"mesh":2,
			"name":"decal.circles",
			"scale":[
				3,
				3,
				3
			]
		},
		{
			"mesh":3,
			"name":"grindcurve.01",
			"rotation":[
				0,
				0.7660448551177979,
				0,
				0.6427870988845825
			]
		},
		{
			"mesh":4,
			"name":"grindcurve.003",
			"rotation":[
				0,
				0.7660448551177979,
				0,
				0.6427870988845825
			]
		}
	],
	"materials":[
		{
			"doubleSided":true,
			"name":"dcl.PiratesPack",
			"pbrMetallicRoughness":{
				"baseColorTexture":{
					"index":0
				},
				"metallicFactor":0
			}
		},
		{
			"doubleSided":true,
			"emissiveFactor":[
				1,
				1,
				1
			],
			"emissiveTexture":{
				"index":1
			},
			"name":"dcl.PiratesPack.emissive",
			"pbrMetallicRoughness":{
				"baseColorTexture":{
					"index":2
				},
				"metallicFactor":0
			}
		}
	],
	"meshes":[
		{
			"name":"Cylinder.121",
			"primitives":[
				{
					"attributes":{
						"POSITION":0,
						"NORMAL":1,
						"TEXCOORD_0":2,
						"TANGENT":3
					},
					"indices":4
				}
			]
		},
		{
			"name":"Cube.144",
			"primitives":[
				{
					"attributes":{
						"POSITION":5,
						"NORMAL":6,
						"TEXCOORD_0":7,
						"TANGENT":8
					},
					"indices":9,
					"material":0
				}
			]
		},
		{
			"name":"Circle.003",
			"primitives":[
				{
					"attributes":{
						"POSITION":10,
						"NORMAL":11,
						"TEXCOORD_0":12
					},
					"indices":13,
					"material":1
				}
			]
		},
		{
			"name":"Cylinder.123",
			"primitives":[
				{
					"attributes":{
						"POSITION":14,
						"NORMAL":15,
						"TEXCOORD_0":16
					},
					"indices":17,
					"material":0
				}
			]
		},
		{
			"name":"grindcurve.002",
			"primitives":[
				{
					"attributes":{
						"POSITION":18,
						"NORMAL":19,
						"TEXCOORD_0":20,
						"TANGENT":21
					},
					"indices":22,
					"material":0
				}
			]
		}
	],
	"textures":[
		{
			"sampler":0,
			"source":0
		},
		{
			"sampler":0,
			"source":0
		},
		{
			"sampler":0,
			"source":0
		}
	],
	"images":[
		{
			"mimeType":"image/png",
			"name":"PiratesPack_TX",
			"uri":"tex/PiratesPack_TX.png"
		}
	],
	"accessors":[
		{
			"bufferView":0,
			"componentType":5126,
			"count":50,
			"max":[
				4.1475067138671875,
				-8.5,
				2.6227645874023438
			],
			"min":[
				-3.4667510986328125,
				-11.049999237060547,
				-2.607448101043701
			],
			"type":"VEC3"
		},
		{
			"bufferView":1,
			"componentType":5126,
			"count":50,
			"type":"VEC3"
		},
		{
			"bufferView":2,
			"componentType":5126,
			"count":50,
			"type":"VEC2"
		},
		{
			"bufferView":3,
			"componentType":5126,
			"count":50,
			"type":"VEC4"
		},
		{
			"bufferView":4,
			"componentType":5123,
			"count":120,
			"type":"SCALAR"
		},
		{
			"bufferView":5,
			"componentType":5126,
			"count":24,
			"max":[
				4,
				-10.65999984741211,
				4
			],
			"min":[
				-4,
				-10.899999618530273,
				-4
			],
			"type":"VEC3"
		},
		{
			"bufferView":6,
			"componentType":5126,
			"count":24,
			"type":"VEC3"
		},
		{
			"bufferView":7,
			"componentType":5126,
			"count":24,
			"type":"VEC2"
		},
		{
			"bufferView":8,
			"componentType":5126,
			"count":24,
			"type":"VEC4"
		},
		{
			"bufferView":9,
			"componentType":5123,
			"count":36,
			"type":"SCALAR"
		},
		{
			"bufferView":10,
			"componentType":5126,
			"count":17,
			"max":[
				1.3333338499069214,
				-3.5366671085357666,
				1.3333314657211304
			],
			"min":[
				0.8967056274414062,
				-3.544295072555542,
				-1.3333353996276855
			],
			"type":"VEC3"
		},
		{
			"bufferView":11,
			"componentType":5126,
			"count":17,
			"type":"VEC3"
		},
		{
			"bufferView":12,
			"componentType":5126,
			"count":17,
			"type":"VEC2"
		},
		{
			"bufferView":13,
			"componentType":5123,
			"count":33,
			"type":"SCALAR"
		},
		{
			"bufferView":14,
			"componentType":5126,
			"count":118,
			"max":[
				3.4667515754699707,
				-8.149999618530273,
				2.6074485778808594
			],
			"min":[
				-4.1474995613098145,
				-10.69999885559082,
				-2.6227645874023438
			],
			"type":"VEC3"
		},
		{
			"bufferView":15,
			"componentType":5126,
			"count":118,
			"type":"VEC3"
		},
		{
			"bufferView":16,
			"componentType":5126,
			"count":118,
			"type":"VEC2"
		},
		{
			"bufferView":17,
			"componentType":5123,
			"count":288,
			"type":"SCALAR"
		},
		{
			"bufferView":18,
			"componentType":5126,
			"count":104,
			"max":[
				3.5953879356384277,
				-8.029841423034668,
				1.0432887077331543
			],
			"min":[
				-3.6334774494171143,
				-8.329841613769531,
				-2.772764205932617
			],
			"type":"VEC3"
		},
		{
			"bufferView":19,
			"componentType":5126,
			"count":104,
			"type":"VEC3"
		},
		{
			"bufferView":20,
			"componentType":5126,
			"count":104,
			"type":"VEC2"
		},
		{
			"bufferView":21,
			"componentType":5126,
			"count":104,
			"type":"VEC4"
		},
		{
			"bufferView":22,
			"componentType":5123,
			"count":156,
			"type":"SCALAR"
		}
	],
	"bufferViews":[
		{
			"buffer":0,
			"byteLength":600,
			"byteOffset":0,
			"target":34962
		},
		{
			"buffer":0,
			"byteLength":600,
			"byteOffset":600,
			"target":34962
		},
		{
			"buffer":0,
			"byteLength":400,
			"byteOffset":1200,
			"target":34962
		},
		{
			"buffer":0,
			"byteLength":800,
			"byteOffset":1600,
			"target":34962
		},
		{
			"buffer":0,
			"byteLength":240,
			"byteOffset":2400,
			"target":34963
		},
		{
			"buffer":0,
			"byteLength":288,
			"byteOffset":2640,
			"target":34962
		},
		{
			"buffer":0,
			"byteLength":288,
			"byteOffset":2928,
			"target":34962
		},
		{
			"buffer":0,
			"byteLength":192,
			"byteOffset":3216,
			"target":34962
		},
		{
			"buffer":0,
			"byteLength":384,
			"byteOffset":3408,
			"target":34962
		},
		{
			"buffer":0,
			"byteLength":72,
			"byteOffset":3792,
			"target":34963
		},
		{
			"buffer":0,
			"byteLength":204,
			"byteOffset":3864,
			"target":34962
		},
		{
			"buffer":0,
			"byteLength":204,
			"byteOffset":4068,
			"target":34962
		},
		{
			"buffer":0,
			"byteLength":136,
			"byteOffset":4272,
			"target":34962
		},
		{
			"buffer":0,
			"byteLength":66,
			"byteOffset":4408,
			"target":34963
		},
		{
			"buffer":0,
			"byteLength":1416,
			"byteOffset":4476,
			"target":34962
		},
		{
			"buffer":0,
			"byteLength":1416,
			"byteOffset":5892,
			"target":34962
		},
		{
			"buffer":0,
			"byteLength":944,
			"byteOffset":7308,
			"target":34962
		},
		{
			"buffer":0,
			"byteLength":576,
			"byteOffset":8252,
			"target":34963
		},
		{
			"buffer":0,
			"byteLength":1248,
			"byteOffset":8828,
			"target":34962
		},
		{
			"buffer":0,
			"byteLength":1248,
			"byteOffset":10076,
			"target":34962
		},
		{
			"buffer":0,
			"byteLength":832,
			"byteOffset":11324,
			"target":34962
		},
		{
			"buffer":0,
			"byteLength":1664,
			"byteOffset":12156,
			"target":34962
		},
		{
			"buffer":0,
			"byteLength":312,
			"byteOffset":13820,
			"target":34963
		}
	],
	"samplers":[
		{
			"magFilter":9729,
			"minFilter":9987
		}
	],
	"buffers":[
		{
			"byteLength":14132,
			"uri":"tile_2_0_8.bin"
		}
	]
}
