{
	"asset":{
		"generator":"Khronos glTF Blender I/O v4.0.44",
		"version":"2.0"
	},
	"scene":0,
	"scenes":[
		{
			"name":"Scene",
			"nodes":[
				0,
				1,
				2,
				3,
				4,
				5,
				6,
				7,
				8,
				9,
				10
			]
		}
	],
	"nodes":[
		{
			"mesh":0,
			"name":"pipe.west_collider",
			"rotation":[
				0,
				-0.7071068286895752,
				0.7071068286895752,
				3.4560699191388267e-07
			]
		},
		{
			"mesh":1,
			"name":"ramp.rectangular.02_collider",
			"rotation":[
				0,
				-1,
				0,
				1.6292068494294654e-07
			]
		},
		{
			"mesh":2,
			"name":"ground"
		},
		{
			"mesh":3,
			"name":"rail.006_collider",
			"rotation":[
				0.1787828952074051,
				-0.9838886260986328,
				0,
				1.602958121793563e-07
			]
		},
		{
			"mesh":4,
			"name":"rail.001_collider",
			"rotation":[
				0.1787828952074051,
				-0.9838886260986328,
				0,
				1.602958121793563e-07
			]
		},
		{
			"name":"decal.main",
			"rotation":[
				0,
				-0.7071068286895752,
				0.7071068286895752,
				3.4560699191388267e-07
			]
		},
		{
			"mesh":5,
			"name":"decal.ramp.branches",
			"rotation":[
				0,
				-1,
				0,
				1.6292068494294654e-07
			],
			"scale":[
				1.5,
				1.5,
				1.5
			]
		},
		{
			"mesh":6,
			"name":"pipe.west.001",
			"rotation":[
				0,
				-0.7071068286895752,
				0.7071068286895752,
				3.4560699191388267e-07
			]
		},
		{
			"mesh":7,
			"name":"ramp.rectangular.02",
			"rotation":[
				0,
				-1,
				0,
				1.6292068494294654e-07
			]
		},
		{
			"mesh":8,
			"name":"ramp.rectangular.02.rail.01",
			"rotation":[
				0,
				0.70710688829422,
				0,
				0.7071066498756409
			]
		},
		{
			"mesh":9,
			"name":"ramp.rectangular.02.rail.02",
			"rotation":[
				0,
				0.70710688829422,
				0,
				0.7071066498756409
			]
		}
	],
	"materials":[
		{
			"doubleSided":true,
			"name":"dcl.PiratesPack",
			"pbrMetallicRoughness":{
				"baseColorTexture":{
					"index":0
				},
				"metallicFactor":0
			}
		},
		{
			"doubleSided":true,
			"emissiveFactor":[
				1,
				1,
				1
			],
			"emissiveTexture":{
				"index":1
			},
			"name":"dcl.PiratesPack.emissive",
			"pbrMetallicRoughness":{
				"baseColorTexture":{
					"index":2
				},
				"metallicFactor":0
			}
		}
	],
	"meshes":[
		{
			"name":"Cylinder.080",
			"primitives":[
				{
					"attributes":{
						"POSITION":0,
						"NORMAL":1,
						"TEXCOORD_0":2,
						"TANGENT":3
					},
					"indices":4
				}
			]
		},
		{
			"name":"Cube.085",
			"primitives":[
				{
					"attributes":{
						"POSITION":5,
						"NORMAL":6,
						"TEXCOORD_0":7
					},
					"indices":8
				}
			]
		},
		{
			"name":"Cube.086",
			"primitives":[
				{
					"attributes":{
						"POSITION":9,
						"NORMAL":10,
						"TEXCOORD_0":11,
						"TANGENT":12
					},
					"indices":13,
					"material":0
				}
			]
		},
		{
			"name":"Cube.087",
			"primitives":[
				{
					"attributes":{
						"POSITION":14,
						"NORMAL":15,
						"TEXCOORD_0":16,
						"TANGENT":17
					},
					"indices":18
				}
			]
		},
		{
			"name":"Cube.088",
			"primitives":[
				{
					"attributes":{
						"POSITION":19,
						"NORMAL":20,
						"TEXCOORD_0":21,
						"TANGENT":22
					},
					"indices":18
				}
			]
		},
		{
			"name":"Cube.089",
			"primitives":[
				{
					"attributes":{
						"POSITION":23,
						"NORMAL":24,
						"TEXCOORD_0":25,
						"TANGENT":26
					},
					"indices":27,
					"material":1
				}
			]
		},
		{
			"name":"Cylinder.082",
			"primitives":[
				{
					"attributes":{
						"POSITION":28,
						"NORMAL":29,
						"TEXCOORD_0":30,
						"TANGENT":31
					},
					"indices":32,
					"material":0
				},
				{
					"attributes":{
						"POSITION":33,
						"NORMAL":34,
						"TEXCOORD_0":35,
						"TANGENT":36
					},
					"indices":37,
					"material":1
				}
			]
		},
		{
			"name":"Cube.090",
			"primitives":[
				{
					"attributes":{
						"POSITION":38,
						"NORMAL":39,
						"TEXCOORD_0":40
					},
					"indices":41,
					"material":0
				}
			]
		},
		{
			"name":"Cube.091",
			"primitives":[
				{
					"attributes":{
						"POSITION":42,
						"NORMAL":43,
						"TEXCOORD_0":44,
						"TANGENT":45
					},
					"indices":46,
					"material":0
				}
			]
		},
		{
			"name":"Cube.092",
			"primitives":[
				{
					"attributes":{
						"POSITION":47,
						"NORMAL":48,
						"TEXCOORD_0":49,
						"TANGENT":50
					},
					"indices":46,
					"material":0
				}
			]
		}
	],
	"textures":[
		{
			"sampler":0,
			"source":0
		},
		{
			"sampler":0,
			"source":0
		},
		{
			"sampler":0,
			"source":0
		}
	],
	"images":[
		{
			"mimeType":"image/png",
			"name":"PiratesPack_TX",
			"uri":"tex/PiratesPack_TX.png"
		}
	],
	"accessors":[
		{
			"bufferView":0,
			"componentType":5126,
			"count":8,
			"max":[
				3.9999732971191406,
				4.000007629394531,
				10.659995079040527
			],
			"min":[
				2.4999470710754395,
				-3.9999923706054688,
				10.350958824157715
			],
			"type":"VEC3"
		},
		{
			"bufferView":1,
			"componentType":5126,
			"count":8,
			"type":"VEC3"
		},
		{
			"bufferView":2,
			"componentType":5126,
			"count":8,
			"type":"VEC2"
		},
		{
			"bufferView":3,
			"componentType":5126,
			"count":8,
			"type":"VEC4"
		},
		{
			"bufferView":4,
			"componentType":5123,
			"count":18,
			"type":"SCALAR"
		},
		{
			"bufferView":5,
			"componentType":5126,
			"count":21,
			"max":[
				-1.4151029586791992,
				-9.684637069702148,
				3.9999961853027344
			],
			"min":[
				-4.000000953674316,
				-10.670775413513184,
				-4.000003814697266
			],
			"type":"VEC3"
		},
		{
			"bufferView":6,
			"componentType":5126,
			"count":21,
			"type":"VEC3"
		},
		{
			"bufferView":7,
			"componentType":5126,
			"count":21,
			"type":"VEC2"
		},
		{
			"bufferView":8,
			"componentType":5123,
			"count":39,
			"type":"SCALAR"
		},
		{
			"bufferView":9,
			"componentType":5126,
			"count":24,
			"max":[
				4,
				-10.65999984741211,
				4
			],
			"min":[
				-4,
				-10.899999618530273,
				-4
			],
			"type":"VEC3"
		},
		{
			"bufferView":10,
			"componentType":5126,
			"count":24,
			"type":"VEC3"
		},
		{
			"bufferView":11,
			"componentType":5126,
			"count":24,
			"type":"VEC2"
		},
		{
			"bufferView":12,
			"componentType":5126,
			"count":24,
			"type":"VEC4"
		},
		{
			"bufferView":13,
			"componentType":5123,
			"count":36,
			"type":"SCALAR"
		},
		{
			"bufferView":14,
			"componentType":5126,
			"count":24,
			"max":[
				1.8484477996826172,
				-8.74728012084961,
				-0.8421576619148254
			],
			"min":[
				-0.9856743812561035,
				-10.74728012084961,
				-1.293393850326538
			],
			"type":"VEC3"
		},
		{
			"bufferView":15,
			"componentType":5126,
			"count":24,
			"type":"VEC3"
		},
		{
			"bufferView":16,
			"componentType":5126,
			"count":24,
			"type":"VEC2"
		},
		{
			"bufferView":17,
			"componentType":5126,
			"count":24,
			"type":"VEC4"
		},
		{
			"bufferView":18,
			"componentType":5123,
			"count":36,
			"type":"SCALAR"
		},
		{
			"bufferView":19,
			"componentType":5126,
			"count":24,
			"max":[
				2.1949901580810547,
				-9.669350624084473,
				1.482684850692749
			],
			"min":[
				-0.6391319036483765,
				-11.669350624084473,
				1.0314486026763916
			],
			"type":"VEC3"
		},
		{
			"bufferView":20,
			"componentType":5126,
			"count":24,
			"type":"VEC3"
		},
		{
			"bufferView":21,
			"componentType":5126,
			"count":24,
			"type":"VEC2"
		},
		{
			"bufferView":22,
			"componentType":5126,
			"count":24,
			"type":"VEC4"
		},
		{
			"bufferView":23,
			"componentType":5126,
			"count":8,
			"max":[
				2.1264944076538086,
				-7.093332290649414,
				1.012791395187378
			],
			"min":[
				-2.666670799255371,
				-7.093332290649414,
				-0.8502655029296875
			],
			"type":"VEC3"
		},
		{
			"bufferView":24,
			"componentType":5126,
			"count":8,
			"type":"VEC3"
		},
		{
			"bufferView":25,
			"componentType":5126,
			"count":8,
			"type":"VEC2"
		},
		{
			"bufferView":26,
			"componentType":5126,
			"count":8,
			"type":"VEC4"
		},
		{
			"bufferView":27,
			"componentType":5123,
			"count":12,
			"type":"SCALAR"
		},
		{
			"bufferView":28,
			"componentType":5126,
			"count":6,
			"max":[
				3.9999732971191406,
				4.000007629394531,
				10.6305570602417
			],
			"min":[
				3.132629871368408,
				-3.9999923706054688,
				10.350957870483398
			],
			"type":"VEC3"
		},
		{
			"bufferView":29,
			"componentType":5126,
			"count":6,
			"type":"VEC3"
		},
		{
			"bufferView":30,
			"componentType":5126,
			"count":6,
			"type":"VEC2"
		},
		{
			"bufferView":31,
			"componentType":5126,
			"count":6,
			"type":"VEC4"
		},
		{
			"bufferView":32,
			"componentType":5123,
			"count":12,
			"type":"SCALAR"
		},
		{
			"bufferView":33,
			"componentType":5126,
			"count":4,
			"max":[
				3.1326372623443604,
				4.000007629394531,
				10.659995079040527
			],
			"min":[
				2.4999470710754395,
				-3.9999923706054688,
				10.6305570602417
			],
			"type":"VEC3"
		},
		{
			"bufferView":34,
			"componentType":5126,
			"count":4,
			"type":"VEC3"
		},
		{
			"bufferView":35,
			"componentType":5126,
			"count":4,
			"type":"VEC2"
		},
		{
			"bufferView":36,
			"componentType":5126,
			"count":4,
			"type":"VEC4"
		},
		{
			"bufferView":37,
			"componentType":5123,
			"count":6,
			"type":"SCALAR"
		},
		{
			"bufferView":38,
			"componentType":5126,
			"count":29,
			"max":[
				-1.448516845703125,
				-9.684637069702148,
				3.9999961853027344
			],
			"min":[
				-4.000000953674316,
				-10.649999618530273,
				-4.000003814697266
			],
			"type":"VEC3"
		},
		{
			"bufferView":39,
			"componentType":5126,
			"count":29,
			"type":"VEC3"
		},
		{
			"bufferView":40,
			"componentType":5126,
			"count":29,
			"type":"VEC2"
		},
		{
			"bufferView":41,
			"componentType":5123,
			"count":51,
			"type":"SCALAR"
		},
		{
			"bufferView":42,
			"componentType":5126,
			"count":40,
			"max":[
				-0.8421542644500732,
				-7.83463716506958,
				4
			],
			"min":[
				-1.2421543598175049,
				-10.84999942779541,
				1.4485158920288086
			],
			"type":"VEC3"
		},
		{
			"bufferView":43,
			"componentType":5126,
			"count":40,
			"type":"VEC3"
		},
		{
			"bufferView":44,
			"componentType":5126,
			"count":40,
			"type":"VEC2"
		},
		{
			"bufferView":45,
			"componentType":5126,
			"count":40,
			"type":"VEC4"
		},
		{
			"bufferView":46,
			"componentType":5123,
			"count":60,
			"type":"SCALAR"
		},
		{
			"bufferView":47,
			"componentType":5126,
			"count":40,
			"max":[
				1.4859287738800049,
				-8.834636688232422,
				4
			],
			"min":[
				1.0859286785125732,
				-10.84999942779541,
				1.4485158920288086
			],
			"type":"VEC3"
		},
		{
			"bufferView":48,
			"componentType":5126,
			"count":40,
			"type":"VEC3"
		},
		{
			"bufferView":49,
			"componentType":5126,
			"count":40,
			"type":"VEC2"
		},
		{
			"bufferView":50,
			"componentType":5126,
			"count":40,
			"type":"VEC4"
		}
	],
	"bufferViews":[
		{
			"buffer":0,
			"byteLength":96,
			"byteOffset":0,
			"target":34962
		},
		{
			"buffer":0,
			"byteLength":96,
			"byteOffset":96,
			"target":34962
		},
		{
			"buffer":0,
			"byteLength":64,
			"byteOffset":192,
			"target":34962
		},
		{
			"buffer":0,
			"byteLength":128,
			"byteOffset":256,
			"target":34962
		},
		{
			"buffer":0,
			"byteLength":36,
			"byteOffset":384,
			"target":34963
		},
		{
			"buffer":0,
			"byteLength":252,
			"byteOffset":420,
			"target":34962
		},
		{
			"buffer":0,
			"byteLength":252,
			"byteOffset":672,
			"target":34962
		},
		{
			"buffer":0,
			"byteLength":168,
			"byteOffset":924,
			"target":34962
		},
		{
			"buffer":0,
			"byteLength":78,
			"byteOffset":1092,
			"target":34963
		},
		{
			"buffer":0,
			"byteLength":288,
			"byteOffset":1172,
			"target":34962
		},
		{
			"buffer":0,
			"byteLength":288,
			"byteOffset":1460,
			"target":34962
		},
		{
			"buffer":0,
			"byteLength":192,
			"byteOffset":1748,
			"target":34962
		},
		{
			"buffer":0,
			"byteLength":384,
			"byteOffset":1940,
			"target":34962
		},
		{
			"buffer":0,
			"byteLength":72,
			"byteOffset":2324,
			"target":34963
		},
		{
			"buffer":0,
			"byteLength":288,
			"byteOffset":2396,
			"target":34962
		},
		{
			"buffer":0,
			"byteLength":288,
			"byteOffset":2684,
			"target":34962
		},
		{
			"buffer":0,
			"byteLength":192,
			"byteOffset":2972,
			"target":34962
		},
		{
			"buffer":0,
			"byteLength":384,
			"byteOffset":3164,
			"target":34962
		},
		{
			"buffer":0,
			"byteLength":72,
			"byteOffset":3548,
			"target":34963
		},
		{
			"buffer":0,
			"byteLength":288,
			"byteOffset":3620,
			"target":34962
		},
		{
			"buffer":0,
			"byteLength":288,
			"byteOffset":3908,
			"target":34962
		},
		{
			"buffer":0,
			"byteLength":192,
			"byteOffset":4196,
			"target":34962
		},
		{
			"buffer":0,
			"byteLength":384,
			"byteOffset":4388,
			"target":34962
		},
		{
			"buffer":0,
			"byteLength":96,
			"byteOffset":4772,
			"target":34962
		},
		{
			"buffer":0,
			"byteLength":96,
			"byteOffset":4868,
			"target":34962
		},
		{
			"buffer":0,
			"byteLength":64,
			"byteOffset":4964,
			"target":34962
		},
		{
			"buffer":0,
			"byteLength":128,
			"byteOffset":5028,
			"target":34962
		},
		{
			"buffer":0,
			"byteLength":24,
			"byteOffset":5156,
			"target":34963
		},
		{
			"buffer":0,
			"byteLength":72,
			"byteOffset":5180,
			"target":34962
		},
		{
			"buffer":0,
			"byteLength":72,
			"byteOffset":5252,
			"target":34962
		},
		{
			"buffer":0,
			"byteLength":48,
			"byteOffset":5324,
			"target":34962
		},
		{
			"buffer":0,
			"byteLength":96,
			"byteOffset":5372,
			"target":34962
		},
		{
			"buffer":0,
			"byteLength":24,
			"byteOffset":5468,
			"target":34963
		},
		{
			"buffer":0,
			"byteLength":48,
			"byteOffset":5492,
			"target":34962
		},
		{
			"buffer":0,
			"byteLength":48,
			"byteOffset":5540,
			"target":34962
		},
		{
			"buffer":0,
			"byteLength":32,
			"byteOffset":5588,
			"target":34962
		},
		{
			"buffer":0,
			"byteLength":64,
			"byteOffset":5620,
			"target":34962
		},
		{
			"buffer":0,
			"byteLength":12,
			"byteOffset":5684,
			"target":34963
		},
		{
			"buffer":0,
			"byteLength":348,
			"byteOffset":5696,
			"target":34962
		},
		{
			"buffer":0,
			"byteLength":348,
			"byteOffset":6044,
			"target":34962
		},
		{
			"buffer":0,
			"byteLength":232,
			"byteOffset":6392,
			"target":34962
		},
		{
			"buffer":0,
			"byteLength":102,
			"byteOffset":6624,
			"target":34963
		},
		{
			"buffer":0,
			"byteLength":480,
			"byteOffset":6728,
			"target":34962
		},
		{
			"buffer":0,
			"byteLength":480,
			"byteOffset":7208,
			"target":34962
		},
		{
			"buffer":0,
			"byteLength":320,
			"byteOffset":7688,
			"target":34962
		},
		{
			"buffer":0,
			"byteLength":640,
			"byteOffset":8008,
			"target":34962
		},
		{
			"buffer":0,
			"byteLength":120,
			"byteOffset":8648,
			"target":34963
		},
		{
			"buffer":0,
			"byteLength":480,
			"byteOffset":8768,
			"target":34962
		},
		{
			"buffer":0,
			"byteLength":480,
			"byteOffset":9248,
			"target":34962
		},
		{
			"buffer":0,
			"byteLength":320,
			"byteOffset":9728,
			"target":34962
		},
		{
			"buffer":0,
			"byteLength":640,
			"byteOffset":10048,
			"target":34962
		}
	],
	"samplers":[
		{
			"magFilter":9729,
			"minFilter":9987
		}
	],
	"buffers":[
		{
			"byteLength":10688,
			"uri":"tile_1_0_2.bin"
		}
	]
}
