{
	"asset":{
		"generator":"Khronos glTF Blender I/O v4.0.44",
		"version":"2.0"
	},
	"scene":0,
	"scenes":[
		{
			"name":"Scene",
			"nodes":[
				0,
				1,
				2,
				3,
				4,
				5
			]
		}
	],
	"nodes":[
		{
			"mesh":0,
			"name":"grindcurve.02_collider",
			"rotation":[
				0,
				-0.6427873969078064,
				0,
				0.7660446763038635
			]
		},
		{
			"mesh":1,
			"name":"ground"
		},
		{
			"mesh":2,
			"name":"decal.main",
			"rotation":[
				0,
				-0.7071068286895752,
				0.7071068286895752,
				3.4560699191388267e-07
			]
		},
		{
			"name":"decal.circles",
			"scale":[
				3,
				3,
				3
			]
		},
		{
			"mesh":3,
			"name":"grindcurve.02",
			"rotation":[
				0,
				-0.6427873969078064,
				0,
				0.7660446763038635
			]
		},
		{
			"mesh":4,
			"name":"grindcurve.004",
			"rotation":[
				0,
				-0.6427873969078064,
				0,
				0.7660446763038635
			]
		}
	],
	"materials":[
		{
			"doubleSided":true,
			"name":"dcl.PiratesPack",
			"pbrMetallicRoughness":{
				"baseColorTexture":{
					"index":0
				},
				"metallicFactor":0
			}
		},
		{
			"doubleSided":true,
			"emissiveFactor":[
				1,
				1,
				1
			],
			"emissiveTexture":{
				"index":1
			},
			"name":"dcl.PiratesPack.emissive",
			"pbrMetallicRoughness":{
				"baseColorTexture":{
					"index":2
				},
				"metallicFactor":0
			}
		}
	],
	"meshes":[
		{
			"name":"Cylinder.245",
			"primitives":[
				{
					"attributes":{
						"POSITION":0,
						"NORMAL":1,
						"TEXCOORD_0":2
					},
					"indices":3
				},
				{
					"attributes":{
						"POSITION":4,
						"NORMAL":5,
						"TEXCOORD_0":6
					},
					"indices":7
				}
			]
		},
		{
			"name":"Cube.285",
			"primitives":[
				{
					"attributes":{
						"POSITION":8,
						"NORMAL":9,
						"TEXCOORD_0":10
					},
					"indices":11,
					"material":0
				}
			]
		},
		{
			"name":"Cylinder.246",
			"primitives":[
				{
					"attributes":{
						"POSITION":12,
						"NORMAL":13,
						"TEXCOORD_0":14,
						"TANGENT":15
					},
					"indices":16,
					"material":1
				}
			]
		},
		{
			"name":"Cylinder.247",
			"primitives":[
				{
					"attributes":{
						"POSITION":17,
						"NORMAL":18,
						"TEXCOORD_0":19
					},
					"indices":20,
					"material":0
				},
				{
					"attributes":{
						"POSITION":21,
						"NORMAL":22,
						"TEXCOORD_0":23
					},
					"indices":24,
					"material":0
				}
			]
		},
		{
			"name":"grindcurve.014",
			"primitives":[
				{
					"attributes":{
						"POSITION":25,
						"NORMAL":26,
						"TEXCOORD_0":27,
						"TANGENT":28
					},
					"indices":29,
					"material":0
				}
			]
		}
	],
	"textures":[
		{
			"sampler":0,
			"source":0
		},
		{
			"sampler":0,
			"source":0
		},
		{
			"sampler":0,
			"source":0
		}
	],
	"images":[
		{
			"mimeType":"image/png",
			"name":"PiratesPack_TX",
			"uri":"tex/PiratesPack_TX.png"
		}
	],
	"accessors":[
		{
			"bufferView":0,
			"componentType":5126,
			"count":29,
			"max":[
				3.9357497692108154,
				-8.5,
				4.364001750946045
			],
			"min":[
				-0.3067903518676758,
				-11.049999237060547,
				0.7143363952636719
			],
			"type":"VEC3"
		},
		{
			"bufferView":1,
			"componentType":5126,
			"count":29,
			"type":"VEC3"
		},
		{
			"bufferView":2,
			"componentType":5126,
			"count":29,
			"type":"VEC2"
		},
		{
			"bufferView":3,
			"componentType":5123,
			"count":63,
			"type":"SCALAR"
		},
		{
			"bufferView":4,
			"componentType":5126,
			"count":8,
			"max":[
				3.9357497692108154,
				-8.5,
				4.364001750946045
			],
			"min":[
				1.181478500366211,
				-11.049999237060547,
				0.7143363952636719
			],
			"type":"VEC3"
		},
		{
			"bufferView":5,
			"componentType":5126,
			"count":8,
			"type":"VEC3"
		},
		{
			"bufferView":6,
			"componentType":5126,
			"count":8,
			"type":"VEC2"
		},
		{
			"bufferView":7,
			"componentType":5123,
			"count":12,
			"type":"SCALAR"
		},
		{
			"bufferView":8,
			"componentType":5126,
			"count":36,
			"max":[
				4,
				-10.65999984741211,
				4
			],
			"min":[
				-4,
				-10.899999618530273,
				-4
			],
			"type":"VEC3"
		},
		{
			"bufferView":9,
			"componentType":5126,
			"count":36,
			"type":"VEC3"
		},
		{
			"bufferView":10,
			"componentType":5126,
			"count":36,
			"type":"VEC2"
		},
		{
			"bufferView":11,
			"componentType":5123,
			"count":60,
			"type":"SCALAR"
		},
		{
			"bufferView":12,
			"componentType":5126,
			"count":4,
			"max":[
				4.000036239624023,
				2.0000686645507812,
				10.625000953674316
			],
			"min":[
				-3.9999637603759766,
				1.50006103515625,
				10.625000953674316
			],
			"type":"VEC3"
		},
		{
			"bufferView":13,
			"componentType":5126,
			"count":4,
			"type":"VEC3"
		},
		{
			"bufferView":14,
			"componentType":5126,
			"count":4,
			"type":"VEC2"
		},
		{
			"bufferView":15,
			"componentType":5126,
			"count":4,
			"type":"VEC4"
		},
		{
			"bufferView":16,
			"componentType":5123,
			"count":6,
			"type":"SCALAR"
		},
		{
			"bufferView":17,
			"componentType":5126,
			"count":69,
			"max":[
				3.9357497692108154,
				-8.149999618530273,
				4.364001750946045
			],
			"min":[
				-0.3067903518676758,
				-10.69999885559082,
				0.7143363952636719
			],
			"type":"VEC3"
		},
		{
			"bufferView":18,
			"componentType":5126,
			"count":69,
			"type":"VEC3"
		},
		{
			"bufferView":19,
			"componentType":5126,
			"count":69,
			"type":"VEC2"
		},
		{
			"bufferView":20,
			"componentType":5123,
			"count":147,
			"type":"SCALAR"
		},
		{
			"bufferView":21,
			"componentType":5126,
			"count":16,
			"max":[
				3.9357497692108154,
				-8.149999618530273,
				4.364001750946045
			],
			"min":[
				1.181478500366211,
				-10.69999885559082,
				0.7143363952636719
			],
			"type":"VEC3"
		},
		{
			"bufferView":22,
			"componentType":5126,
			"count":16,
			"type":"VEC3"
		},
		{
			"bufferView":23,
			"componentType":5126,
			"count":16,
			"type":"VEC2"
		},
		{
			"bufferView":24,
			"componentType":5123,
			"count":36,
			"type":"SCALAR"
		},
		{
			"bufferView":25,
			"componentType":5126,
			"count":24,
			"max":[
				3.9626662731170654,
				-8.032134056091309,
				2.1749677658081055
			],
			"min":[
				-0.37749576568603516,
				-8.332134246826172,
				0.5616855621337891
			],
			"type":"VEC3"
		},
		{
			"bufferView":26,
			"componentType":5126,
			"count":24,
			"type":"VEC3"
		},
		{
			"bufferView":27,
			"componentType":5126,
			"count":24,
			"type":"VEC2"
		},
		{
			"bufferView":28,
			"componentType":5126,
			"count":24,
			"type":"VEC4"
		},
		{
			"bufferView":29,
			"componentType":5123,
			"count":84,
			"type":"SCALAR"
		}
	],
	"bufferViews":[
		{
			"buffer":0,
			"byteLength":348,
			"byteOffset":0,
			"target":34962
		},
		{
			"buffer":0,
			"byteLength":348,
			"byteOffset":348,
			"target":34962
		},
		{
			"buffer":0,
			"byteLength":232,
			"byteOffset":696,
			"target":34962
		},
		{
			"buffer":0,
			"byteLength":126,
			"byteOffset":928,
			"target":34963
		},
		{
			"buffer":0,
			"byteLength":96,
			"byteOffset":1056,
			"target":34962
		},
		{
			"buffer":0,
			"byteLength":96,
			"byteOffset":1152,
			"target":34962
		},
		{
			"buffer":0,
			"byteLength":64,
			"byteOffset":1248,
			"target":34962
		},
		{
			"buffer":0,
			"byteLength":24,
			"byteOffset":1312,
			"target":34963
		},
		{
			"buffer":0,
			"byteLength":432,
			"byteOffset":1336,
			"target":34962
		},
		{
			"buffer":0,
			"byteLength":432,
			"byteOffset":1768,
			"target":34962
		},
		{
			"buffer":0,
			"byteLength":288,
			"byteOffset":2200,
			"target":34962
		},
		{
			"buffer":0,
			"byteLength":120,
			"byteOffset":2488,
			"target":34963
		},
		{
			"buffer":0,
			"byteLength":48,
			"byteOffset":2608,
			"target":34962
		},
		{
			"buffer":0,
			"byteLength":48,
			"byteOffset":2656,
			"target":34962
		},
		{
			"buffer":0,
			"byteLength":32,
			"byteOffset":2704,
			"target":34962
		},
		{
			"buffer":0,
			"byteLength":64,
			"byteOffset":2736,
			"target":34962
		},
		{
			"buffer":0,
			"byteLength":12,
			"byteOffset":2800,
			"target":34963
		},
		{
			"buffer":0,
			"byteLength":828,
			"byteOffset":2812,
			"target":34962
		},
		{
			"buffer":0,
			"byteLength":828,
			"byteOffset":3640,
			"target":34962
		},
		{
			"buffer":0,
			"byteLength":552,
			"byteOffset":4468,
			"target":34962
		},
		{
			"buffer":0,
			"byteLength":294,
			"byteOffset":5020,
			"target":34963
		},
		{
			"buffer":0,
			"byteLength":192,
			"byteOffset":5316,
			"target":34962
		},
		{
			"buffer":0,
			"byteLength":192,
			"byteOffset":5508,
			"target":34962
		},
		{
			"buffer":0,
			"byteLength":128,
			"byteOffset":5700,
			"target":34962
		},
		{
			"buffer":0,
			"byteLength":72,
			"byteOffset":5828,
			"target":34963
		},
		{
			"buffer":0,
			"byteLength":288,
			"byteOffset":5900,
			"target":34962
		},
		{
			"buffer":0,
			"byteLength":288,
			"byteOffset":6188,
			"target":34962
		},
		{
			"buffer":0,
			"byteLength":192,
			"byteOffset":6476,
			"target":34962
		},
		{
			"buffer":0,
			"byteLength":384,
			"byteOffset":6668,
			"target":34962
		},
		{
			"buffer":0,
			"byteLength":168,
			"byteOffset":7052,
			"target":34963
		}
	],
	"samplers":[
		{
			"magFilter":9729,
			"minFilter":9987
		}
	],
	"buffers":[
		{
			"byteLength":7220,
			"uri":"tile_3_0_10.bin"
		}
	]
}
