{
	"asset":{
		"generator":"Khronos glTF Blender I/O v4.0.44",
		"version":"2.0"
	},
	"scene":0,
	"scenes":[
		{
			"name":"Scene",
			"nodes":[
				0,
				1,
				2,
				3,
				4,
				5,
				6,
				7,
				8
			]
		}
	],
	"nodes":[
		{
			"mesh":0,
			"name":"entrance.pillar.001_collider",
			"rotation":[
				0.7071068286895752,
				0,
				0,
				0.7071068286895752
			]
		},
		{
			"mesh":1,
			"name":"wall.south.004"
		},
		{
			"mesh":2,
			"name":"ground"
		},
		{
			"name":"decal.main",
			"rotation":[
				0,
				-0.7071068286895752,
				0.7071068286895752,
				3.4560699191388267e-07
			]
		},
		{
			"name":"neons.003",
			"rotation":[
				0.4999999403953552,
				-0.49999988079071045,
				-0.5000001192092896,
				0.5000001192092896
			],
			"scale":[
				0.19999998807907104,
				1,
				47.68861770629883
			]
		},
		{
			"mesh":3,
			"name":"tyre_005.002",
			"rotation":[
				0.7071068286895752,
				0,
				0,
				0.7071068286895752
			]
		},
		{
			"mesh":4,
			"name":"tyre_006.002",
			"rotation":[
				0.7071068286895752,
				0,
				0,
				0.7071068286895752
			]
		},
		{
			"mesh":5,
			"name":"tyre_007.003",
			"rotation":[
				0.7071068286895752,
				0,
				0,
				0.7071068286895752
			]
		},
		{
			"mesh":6,
			"name":"tyre_008.002",
			"rotation":[
				0.7071068286895752,
				0,
				0,
				0.7071068286895752
			]
		}
	],
	"materials":[
		{
			"doubleSided":true,
			"name":"dcl.PiratesPack",
			"pbrMetallicRoughness":{
				"baseColorTexture":{
					"index":0
				},
				"metallicFactor":0
			}
		}
	],
	"meshes":[
		{
			"name":"Cube.188",
			"primitives":[
				{
					"attributes":{
						"POSITION":0,
						"NORMAL":1,
						"TEXCOORD_0":2
					},
					"indices":3
				}
			]
		},
		{
			"name":"Cylinder.156",
			"primitives":[
				{
					"attributes":{
						"POSITION":4,
						"NORMAL":5,
						"TEXCOORD_0":6
					},
					"indices":7,
					"material":0
				}
			]
		},
		{
			"name":"Cube.189",
			"primitives":[
				{
					"attributes":{
						"POSITION":8,
						"NORMAL":9,
						"TEXCOORD_0":10
					},
					"indices":11,
					"material":0
				}
			]
		},
		{
			"name":"Cube.190",
			"primitives":[
				{
					"attributes":{
						"POSITION":12,
						"NORMAL":13,
						"TEXCOORD_0":14
					},
					"indices":15,
					"material":0
				}
			]
		},
		{
			"name":"Cube.191",
			"primitives":[
				{
					"attributes":{
						"POSITION":16,
						"NORMAL":17,
						"TEXCOORD_0":18
					},
					"indices":19,
					"material":0
				}
			]
		},
		{
			"name":"Cube.192",
			"primitives":[
				{
					"attributes":{
						"POSITION":20,
						"NORMAL":21,
						"TEXCOORD_0":22
					},
					"indices":23,
					"material":0
				}
			]
		},
		{
			"name":"Cube.193",
			"primitives":[
				{
					"attributes":{
						"POSITION":24,
						"NORMAL":25,
						"TEXCOORD_0":26
					},
					"indices":27,
					"material":0
				}
			]
		}
	],
	"textures":[
		{
			"sampler":0,
			"source":0
		}
	],
	"images":[
		{
			"mimeType":"image/png",
			"name":"PiratesPack_TX",
			"uri":"tex/PiratesPack_TX.png"
		}
	],
	"accessors":[
		{
			"bufferView":0,
			"componentType":5126,
			"count":86,
			"max":[
				-1.855820894241333,
				0.08642911911010742,
				10.459592819213867
			],
			"min":[
				-4,
				-4,
				2.0826268196105957
			],
			"type":"VEC3"
		},
		{
			"bufferView":1,
			"componentType":5126,
			"count":86,
			"type":"VEC3"
		},
		{
			"bufferView":2,
			"componentType":5126,
			"count":86,
			"type":"VEC2"
		},
		{
			"bufferView":3,
			"componentType":5123,
			"count":228,
			"type":"SCALAR"
		},
		{
			"bufferView":4,
			"componentType":5126,
			"count":32,
			"max":[
				-3.5994129180908203,
				-0.6894650459289551,
				1.0000251531600952
			],
			"min":[
				-4,
				-10.899999618530273,
				3.248453140258789e-05
			],
			"type":"VEC3"
		},
		{
			"bufferView":5,
			"componentType":5126,
			"count":32,
			"type":"VEC3"
		},
		{
			"bufferView":6,
			"componentType":5126,
			"count":32,
			"type":"VEC2"
		},
		{
			"bufferView":7,
			"componentType":5123,
			"count":60,
			"type":"SCALAR"
		},
		{
			"bufferView":8,
			"componentType":5126,
			"count":36,
			"max":[
				4,
				-10.65999984741211,
				0
			],
			"min":[
				-4,
				-10.899999618530273,
				-4
			],
			"type":"VEC3"
		},
		{
			"bufferView":9,
			"componentType":5126,
			"count":36,
			"type":"VEC3"
		},
		{
			"bufferView":10,
			"componentType":5126,
			"count":36,
			"type":"VEC2"
		},
		{
			"bufferView":11,
			"componentType":5123,
			"count":60,
			"type":"SCALAR"
		},
		{
			"bufferView":12,
			"componentType":5126,
			"count":141,
			"max":[
				-2.104412078857422,
				-0.04285597801208496,
				10.65999984741211
			],
			"min":[
				-4,
				-3.899188756942749,
				8.65999984741211
			],
			"type":"VEC3"
		},
		{
			"bufferView":13,
			"componentType":5126,
			"count":141,
			"type":"VEC3"
		},
		{
			"bufferView":14,
			"componentType":5126,
			"count":141,
			"type":"VEC2"
		},
		{
			"bufferView":15,
			"componentType":5123,
			"count":375,
			"type":"SCALAR"
		},
		{
			"bufferView":16,
			"componentType":5126,
			"count":178,
			"max":[
				-1.8909416198730469,
				-0.034766554832458496,
				8.64003849029541
			],
			"min":[
				-4,
				-3.907278060913086,
				6.64003849029541
			],
			"type":"VEC3"
		},
		{
			"bufferView":17,
			"componentType":5126,
			"count":178,
			"type":"VEC3"
		},
		{
			"bufferView":18,
			"componentType":5126,
			"count":178,
			"type":"VEC2"
		},
		{
			"bufferView":19,
			"componentType":5123,
			"count":468,
			"type":"SCALAR"
		},
		{
			"bufferView":20,
			"componentType":5126,
			"count":151,
			"max":[
				-2.0936241149902344,
				-0.22908711433410645,
				6.582625865936279
			],
			"min":[
				-4,
				-4,
				4.582625865936279
			],
			"type":"VEC3"
		},
		{
			"bufferView":21,
			"componentType":5126,
			"count":151,
			"type":"VEC3"
		},
		{
			"bufferView":22,
			"componentType":5126,
			"count":151,
			"type":"VEC2"
		},
		{
			"bufferView":23,
			"componentType":5123,
			"count":396,
			"type":"SCALAR"
		},
		{
			"bufferView":24,
			"componentType":5126,
			"count":178,
			"max":[
				-1.9757156372070312,
				-0.06549394130706787,
				4.582625865936279
			],
			"min":[
				-4,
				-3.9380054473876953,
				2.5826258659362793
			],
			"type":"VEC3"
		},
		{
			"bufferView":25,
			"componentType":5126,
			"count":178,
			"type":"VEC3"
		},
		{
			"bufferView":26,
			"componentType":5126,
			"count":178,
			"type":"VEC2"
		},
		{
			"bufferView":27,
			"componentType":5123,
			"count":468,
			"type":"SCALAR"
		}
	],
	"bufferViews":[
		{
			"buffer":0,
			"byteLength":1032,
			"byteOffset":0,
			"target":34962
		},
		{
			"buffer":0,
			"byteLength":1032,
			"byteOffset":1032,
			"target":34962
		},
		{
			"buffer":0,
			"byteLength":688,
			"byteOffset":2064,
			"target":34962
		},
		{
			"buffer":0,
			"byteLength":456,
			"byteOffset":2752,
			"target":34963
		},
		{
			"buffer":0,
			"byteLength":384,
			"byteOffset":3208,
			"target":34962
		},
		{
			"buffer":0,
			"byteLength":384,
			"byteOffset":3592,
			"target":34962
		},
		{
			"buffer":0,
			"byteLength":256,
			"byteOffset":3976,
			"target":34962
		},
		{
			"buffer":0,
			"byteLength":120,
			"byteOffset":4232,
			"target":34963
		},
		{
			"buffer":0,
			"byteLength":432,
			"byteOffset":4352,
			"target":34962
		},
		{
			"buffer":0,
			"byteLength":432,
			"byteOffset":4784,
			"target":34962
		},
		{
			"buffer":0,
			"byteLength":288,
			"byteOffset":5216,
			"target":34962
		},
		{
			"buffer":0,
			"byteLength":120,
			"byteOffset":5504,
			"target":34963
		},
		{
			"buffer":0,
			"byteLength":1692,
			"byteOffset":5624,
			"target":34962
		},
		{
			"buffer":0,
			"byteLength":1692,
			"byteOffset":7316,
			"target":34962
		},
		{
			"buffer":0,
			"byteLength":1128,
			"byteOffset":9008,
			"target":34962
		},
		{
			"buffer":0,
			"byteLength":750,
			"byteOffset":10136,
			"target":34963
		},
		{
			"buffer":0,
			"byteLength":2136,
			"byteOffset":10888,
			"target":34962
		},
		{
			"buffer":0,
			"byteLength":2136,
			"byteOffset":13024,
			"target":34962
		},
		{
			"buffer":0,
			"byteLength":1424,
			"byteOffset":15160,
			"target":34962
		},
		{
			"buffer":0,
			"byteLength":936,
			"byteOffset":16584,
			"target":34963
		},
		{
			"buffer":0,
			"byteLength":1812,
			"byteOffset":17520,
			"target":34962
		},
		{
			"buffer":0,
			"byteLength":1812,
			"byteOffset":19332,
			"target":34962
		},
		{
			"buffer":0,
			"byteLength":1208,
			"byteOffset":21144,
			"target":34962
		},
		{
			"buffer":0,
			"byteLength":792,
			"byteOffset":22352,
			"target":34963
		},
		{
			"buffer":0,
			"byteLength":2136,
			"byteOffset":23144,
			"target":34962
		},
		{
			"buffer":0,
			"byteLength":2136,
			"byteOffset":25280,
			"target":34962
		},
		{
			"buffer":0,
			"byteLength":1424,
			"byteOffset":27416,
			"target":34962
		},
		{
			"buffer":0,
			"byteLength":936,
			"byteOffset":28840,
			"target":34963
		}
	],
	"samplers":[
		{
			"magFilter":9729,
			"minFilter":9987
		}
	],
	"buffers":[
		{
			"byteLength":29776,
			"uri":"tile_4_0_0.bin"
		}
	]
}
