{
	"asset":{
		"generator":"Khronos glTF Blender I/O v4.0.44",
		"version":"2.0"
	},
	"scene":0,
	"scenes":[
		{
			"name":"Scene",
			"nodes":[
				0,
				1,
				2,
				3,
				4,
				5,
				6,
				7,
				8,
				9,
				10,
				11,
				12,
				13
			]
		}
	],
	"nodes":[
		{
			"mesh":0,
			"name":"pipe.main_collider",
			"rotation":[
				0.7071068286895752,
				0,
				0,
				0.7071068286895752
			]
		},
		{
			"mesh":1,
			"name":"sign.pillar.02_collider"
		},
		{
			"mesh":2,
			"name":"sign.beam._collider",
			"rotation":[
				0.7071068286895752,
				0,
				0,
				0.7071068286895752
			]
		},
		{
			"mesh":3,
			"name":"bigSign.board",
			"rotation":[
				0,
				-0.7071067094802856,
				0,
				0.7071068286895752
			],
			"scale":[
				0.6813910007476807,
				0.6813910007476807,
				0.6813910007476807
			]
		},
		{
			"mesh":4,
			"name":"ground"
		},
		{
			"mesh":5,
			"name":"wall.east.004"
		},
		{
			"mesh":6,
			"name":"bigSign.pillars",
			"rotation":[
				0,
				0.70710688829422,
				0,
				0.7071066498756409
			]
		},
		{
			"mesh":7,
			"name":"bigSign.beam",
			"rotation":[
				0,
				0.70710688829422,
				0,
				0.7071066498756409
			]
		},
		{
			"mesh":8,
			"name":"bigSign.text",
			"rotation":[
				0.5000001192092896,
				-0.49999985098838806,
				0.49999988079071045,
				0.5000001192092896
			],
			"scale":[
				9.438028335571289,
				8.741087913513184,
				10.611104011535645
			]
		},
		{
			"mesh":9,
			"name":"bigSign.zigzag",
			"rotation":[
				0,
				0.70710688829422,
				0,
				0.7071066498756409
			]
		},
		{
			"mesh":10,
			"name":"skateboard.trucks",
			"rotation":[
				-0.4999999403953552,
				0.5000001192092896,
				0.5000000596046448,
				0.49999991059303284
			],
			"scale":[
				0.6813910007476807,
				0.6813910007476807,
				0.6813910007476807
			]
		},
		{
			"mesh":11,
			"name":"neons.001",
			"rotation":[
				0,
				0,
				-0.7071068286895752,
				0.7071068286895752
			],
			"scale":[
				0.19999998807907104,
				1,
				44.15021896362305
			]
		},
		{
			"mesh":12,
			"name":"pipe.main",
			"rotation":[
				0.7071068286895752,
				0,
				0,
				0.7071068286895752
			],
			"scale":[
				2,
				2,
				2
			]
		},
		{
			"mesh":13,
			"name":"pipe.main.rim",
			"rotation":[
				0.7071068286895752,
				0,
				0,
				0.7071068286895752
			],
			"scale":[
				2,
				2,
				2
			]
		}
	],
	"materials":[
		{
			"doubleSided":true,
			"name":"dcl.PiratesPack",
			"pbrMetallicRoughness":{
				"baseColorTexture":{
					"index":0
				},
				"metallicFactor":0
			}
		},
		{
			"doubleSided":true,
			"emissiveFactor":[
				1,
				1,
				1
			],
			"emissiveTexture":{
				"index":1
			},
			"name":"dcl.PiratesPack.emissive",
			"pbrMetallicRoughness":{
				"baseColorTexture":{
					"index":2
				},
				"metallicFactor":0
			}
		}
	],
	"meshes":[
		{
			"name":"Cylinder.444",
			"primitives":[
				{
					"attributes":{
						"POSITION":0,
						"NORMAL":1,
						"TEXCOORD_0":2
					},
					"indices":3
				}
			]
		},
		{
			"name":"Cube.375",
			"primitives":[
				{
					"attributes":{
						"POSITION":4,
						"NORMAL":5,
						"TEXCOORD_0":6,
						"TANGENT":7
					},
					"indices":8
				}
			]
		},
		{
			"name":"Cube.376",
			"primitives":[
				{
					"attributes":{
						"POSITION":9,
						"NORMAL":10,
						"TEXCOORD_0":11,
						"TANGENT":12
					},
					"indices":13
				}
			]
		},
		{
			"name":"Cube.377",
			"primitives":[
				{
					"attributes":{
						"POSITION":14,
						"NORMAL":15,
						"TEXCOORD_0":16
					},
					"indices":17,
					"material":0
				}
			]
		},
		{
			"name":"Cube.378",
			"primitives":[
				{
					"attributes":{
						"POSITION":18,
						"NORMAL":19,
						"TEXCOORD_0":20
					},
					"indices":21,
					"material":0
				}
			]
		},
		{
			"name":"Cylinder.445",
			"primitives":[
				{
					"attributes":{
						"POSITION":22,
						"NORMAL":23,
						"TEXCOORD_0":24,
						"TANGENT":25
					},
					"indices":26,
					"material":0
				}
			]
		},
		{
			"name":"Cylinder.446",
			"primitives":[
				{
					"attributes":{
						"POSITION":27,
						"NORMAL":28,
						"TEXCOORD_0":29
					},
					"indices":30,
					"material":0
				}
			]
		},
		{
			"name":"Cylinder.447",
			"primitives":[
				{
					"attributes":{
						"POSITION":31,
						"NORMAL":32,
						"TEXCOORD_0":33
					},
					"indices":34,
					"material":0
				}
			]
		},
		{
			"name":"Text.002",
			"primitives":[
				{
					"attributes":{
						"POSITION":35,
						"NORMAL":36,
						"TEXCOORD_0":37
					},
					"indices":38,
					"material":0
				}
			]
		},
		{
			"name":"Cylinder.448",
			"primitives":[
				{
					"attributes":{
						"POSITION":39,
						"NORMAL":40,
						"TEXCOORD_0":41
					},
					"indices":42,
					"material":0
				}
			]
		},
		{
			"name":"Cube.379",
			"primitives":[
				{
					"attributes":{
						"POSITION":43,
						"NORMAL":44,
						"TEXCOORD_0":45
					},
					"indices":46,
					"material":0
				}
			]
		},
		{
			"name":"Plane.044",
			"primitives":[
				{
					"attributes":{
						"POSITION":47,
						"NORMAL":48,
						"TEXCOORD_0":49,
						"TANGENT":50
					},
					"indices":51,
					"material":1
				}
			]
		},
		{
			"name":"Cylinder.449",
			"primitives":[
				{
					"attributes":{
						"POSITION":52,
						"NORMAL":53,
						"TEXCOORD_0":54
					},
					"indices":55,
					"material":0
				}
			]
		},
		{
			"name":"Cylinder.450",
			"primitives":[
				{
					"attributes":{
						"POSITION":56,
						"NORMAL":57,
						"TEXCOORD_0":58,
						"TANGENT":59
					},
					"indices":60,
					"material":0
				}
			]
		}
	],
	"textures":[
		{
			"sampler":0,
			"source":0
		},
		{
			"sampler":0,
			"source":0
		},
		{
			"sampler":0,
			"source":0
		}
	],
	"images":[
		{
			"mimeType":"image/png",
			"name":"PiratesPack_TX",
			"uri":"tex/PiratesPack_TX.png"
		}
	],
	"accessors":[
		{
			"bufferView":0,
			"componentType":5126,
			"count":73,
			"max":[
				4.000004768371582,
				3.9999923706054688,
				10.65000057220459
			],
			"min":[
				-3.9999923706054688,
				-4.000007629394531,
				7.649999618530273
			],
			"type":"VEC3"
		},
		{
			"bufferView":1,
			"componentType":5126,
			"count":73,
			"type":"VEC3"
		},
		{
			"bufferView":2,
			"componentType":5126,
			"count":73,
			"type":"VEC2"
		},
		{
			"bufferView":3,
			"componentType":5123,
			"count":132,
			"type":"SCALAR"
		},
		{
			"bufferView":4,
			"componentType":5126,
			"count":71,
			"max":[
				2.3717870712280273,
				13.590291976928711,
				1.0163233280181885
			],
			"min":[
				-0.8509268760681152,
				-10.65999984741211,
				-2.2063941955566406
			],
			"type":"VEC3"
		},
		{
			"bufferView":5,
			"componentType":5126,
			"count":71,
			"type":"VEC3"
		},
		{
			"bufferView":6,
			"componentType":5126,
			"count":71,
			"type":"VEC2"
		},
		{
			"bufferView":7,
			"componentType":5126,
			"count":71,
			"type":"VEC4"
		},
		{
			"bufferView":8,
			"componentType":5123,
			"count":192,
			"type":"SCALAR"
		},
		{
			"bufferView":9,
			"componentType":5126,
			"count":24,
			"max":[
				1.2075986862182617,
				-1.8275794982910156,
				-0.600003719329834
			],
			"min":[
				0.31323570013046265,
				-4,
				-2.88955020904541
			],
			"type":"VEC3"
		},
		{
			"bufferView":10,
			"componentType":5126,
			"count":24,
			"type":"VEC3"
		},
		{
			"bufferView":11,
			"componentType":5126,
			"count":24,
			"type":"VEC2"
		},
		{
			"bufferView":12,
			"componentType":5126,
			"count":24,
			"type":"VEC4"
		},
		{
			"bufferView":13,
			"componentType":5123,
			"count":36,
			"type":"SCALAR"
		},
		{
			"bufferView":14,
			"componentType":5126,
			"count":46,
			"max":[
				5.87034797668457,
				20.507286071777344,
				2.1253066062927246
			],
			"min":[
				-5.870340347290039,
				4.507266998291016,
				1.0044300556182861
			],
			"type":"VEC3"
		},
		{
			"bufferView":15,
			"componentType":5126,
			"count":46,
			"type":"VEC3"
		},
		{
			"bufferView":16,
			"componentType":5126,
			"count":46,
			"type":"VEC2"
		},
		{
			"bufferView":17,
			"componentType":5123,
			"count":108,
			"type":"SCALAR"
		},
		{
			"bufferView":18,
			"componentType":5126,
			"count":36,
			"max":[
				3.4499664306640625,
				-10.65999984741211,
				4
			],
			"min":[
				-4,
				-10.899999618530273,
				-4
			],
			"type":"VEC3"
		},
		{
			"bufferView":19,
			"componentType":5126,
			"count":36,
			"type":"VEC3"
		},
		{
			"bufferView":20,
			"componentType":5126,
			"count":36,
			"type":"VEC2"
		},
		{
			"bufferView":21,
			"componentType":5123,
			"count":60,
			"type":"SCALAR"
		},
		{
			"bufferView":22,
			"componentType":5126,
			"count":24,
			"max":[
				3.466623067855835,
				7.9000091552734375,
				4
			],
			"min":[
				2.999957799911499,
				-10.85000228881836,
				-4
			],
			"type":"VEC3"
		},
		{
			"bufferView":23,
			"componentType":5126,
			"count":24,
			"type":"VEC3"
		},
		{
			"bufferView":24,
			"componentType":5126,
			"count":24,
			"type":"VEC2"
		},
		{
			"bufferView":25,
			"componentType":5126,
			"count":24,
			"type":"VEC4"
		},
		{
			"bufferView":26,
			"componentType":5123,
			"count":36,
			"type":"SCALAR"
		},
		{
			"bufferView":27,
			"componentType":5126,
			"count":382,
			"max":[
				2.1031150817871094,
				3.454392433166504,
				2.260422706604004
			],
			"min":[
				-0.8968849182128906,
				-7.399995803833008,
				-0.7395772933959961
			],
			"type":"VEC3"
		},
		{
			"bufferView":28,
			"componentType":5126,
			"count":382,
			"type":"VEC3"
		},
		{
			"bufferView":29,
			"componentType":5126,
			"count":382,
			"type":"VEC2"
		},
		{
			"bufferView":30,
			"componentType":5123,
			"count":1044,
			"type":"SCALAR"
		},
		{
			"bufferView":31,
			"componentType":5126,
			"count":80,
			"max":[
				4,
				2.88955020904541,
				1.1431083679199219
			],
			"min":[
				1.4391498565673828,
				0.6000022888183594,
				0.3777398467063904
			],
			"type":"VEC3"
		},
		{
			"bufferView":32,
			"componentType":5126,
			"count":80,
			"type":"VEC3"
		},
		{
			"bufferView":33,
			"componentType":5126,
			"count":80,
			"type":"VEC2"
		},
		{
			"bufferView":34,
			"componentType":5123,
			"count":132,
			"type":"SCALAR"
		},
		{
			"bufferView":35,
			"componentType":5126,
			"count":355,
			"max":[
				0.42381751537323,
				0.33567196130752563,
				-0.4649670422077179
			],
			"min":[
				-0.4238172769546509,
				0.12290890514850616,
				-1.1414284706115723
			],
			"type":"VEC3"
		},
		{
			"bufferView":36,
			"componentType":5126,
			"count":355,
			"type":"VEC3"
		},
		{
			"bufferView":37,
			"componentType":5126,
			"count":355,
			"type":"VEC2"
		},
		{
			"bufferView":38,
			"componentType":5123,
			"count":780,
			"type":"SCALAR"
		},
		{
			"bufferView":39,
			"componentType":5126,
			"count":78,
			"max":[
				4,
				2.507960796356201,
				1.1069917678833008
			],
			"min":[
				1.2045612335205078,
				0.9815921783447266,
				0.41697973012924194
			],
			"type":"VEC3"
		},
		{
			"bufferView":40,
			"componentType":5126,
			"count":78,
			"type":"VEC3"
		},
		{
			"bufferView":41,
			"componentType":5126,
			"count":78,
			"type":"VEC2"
		},
		{
			"bufferView":42,
			"componentType":5123,
			"count":138,
			"type":"SCALAR"
		},
		{
			"bufferView":43,
			"componentType":5126,
			"count":725,
			"max":[
				3.6790027618408203,
				1.0053963661193848,
				19.944931030273438
			],
			"min":[
				-1.4449348449707031,
				-3.0520219802856445,
				5.069618225097656
			],
			"type":"VEC3"
		},
		{
			"bufferView":44,
			"componentType":5126,
			"count":725,
			"type":"VEC3"
		},
		{
			"bufferView":45,
			"componentType":5126,
			"count":725,
			"type":"VEC2"
		},
		{
			"bufferView":46,
			"componentType":5123,
			"count":2136,
			"type":"SCALAR"
		},
		{
			"bufferView":47,
			"componentType":5126,
			"count":8,
			"max":[
				13.374977111816406,
				2.8999557495117188,
				0.09059983491897583
			],
			"min":[
				6.374977111816406,
				2.8999557495117188,
				-0.09059971570968628
			],
			"type":"VEC3"
		},
		{
			"bufferView":48,
			"componentType":5126,
			"count":8,
			"type":"VEC3"
		},
		{
			"bufferView":49,
			"componentType":5126,
			"count":8,
			"type":"VEC2"
		},
		{
			"bufferView":50,
			"componentType":5126,
			"count":8,
			"type":"VEC4"
		},
		{
			"bufferView":51,
			"componentType":5123,
			"count":12,
			"type":"SCALAR"
		},
		{
			"bufferView":52,
			"componentType":5126,
			"count":82,
			"max":[
				1.9999985694885254,
				2.0000009536743164,
				7.5
			],
			"min":[
				-2.0000011920928955,
				-2.0000011920928955,
				3.8249998092651367
			],
			"type":"VEC3"
		},
		{
			"bufferView":53,
			"componentType":5126,
			"count":82,
			"type":"VEC3"
		},
		{
			"bufferView":54,
			"componentType":5126,
			"count":82,
			"type":"VEC2"
		},
		{
			"bufferView":55,
			"componentType":5123,
			"count":153,
			"type":"SCALAR"
		},
		{
			"bufferView":56,
			"componentType":5126,
			"count":40,
			"max":[
				-0.716282844543457,
				1.9999990463256836,
				3.858785629272461
			],
			"min":[
				-0.9154500961303711,
				-2.000000476837158,
				3.7912144660949707
			],
			"type":"VEC3"
		},
		{
			"bufferView":57,
			"componentType":5126,
			"count":40,
			"type":"VEC3"
		},
		{
			"bufferView":58,
			"componentType":5126,
			"count":40,
			"type":"VEC2"
		},
		{
			"bufferView":59,
			"componentType":5126,
			"count":40,
			"type":"VEC4"
		},
		{
			"bufferView":60,
			"componentType":5123,
			"count":60,
			"type":"SCALAR"
		}
	],
	"bufferViews":[
		{
			"buffer":0,
			"byteLength":876,
			"byteOffset":0,
			"target":34962
		},
		{
			"buffer":0,
			"byteLength":876,
			"byteOffset":876,
			"target":34962
		},
		{
			"buffer":0,
			"byteLength":584,
			"byteOffset":1752,
			"target":34962
		},
		{
			"buffer":0,
			"byteLength":264,
			"byteOffset":2336,
			"target":34963
		},
		{
			"buffer":0,
			"byteLength":852,
			"byteOffset":2600,
			"target":34962
		},
		{
			"buffer":0,
			"byteLength":852,
			"byteOffset":3452,
			"target":34962
		},
		{
			"buffer":0,
			"byteLength":568,
			"byteOffset":4304,
			"target":34962
		},
		{
			"buffer":0,
			"byteLength":1136,
			"byteOffset":4872,
			"target":34962
		},
		{
			"buffer":0,
			"byteLength":384,
			"byteOffset":6008,
			"target":34963
		},
		{
			"buffer":0,
			"byteLength":288,
			"byteOffset":6392,
			"target":34962
		},
		{
			"buffer":0,
			"byteLength":288,
			"byteOffset":6680,
			"target":34962
		},
		{
			"buffer":0,
			"byteLength":192,
			"byteOffset":6968,
			"target":34962
		},
		{
			"buffer":0,
			"byteLength":384,
			"byteOffset":7160,
			"target":34962
		},
		{
			"buffer":0,
			"byteLength":72,
			"byteOffset":7544,
			"target":34963
		},
		{
			"buffer":0,
			"byteLength":552,
			"byteOffset":7616,
			"target":34962
		},
		{
			"buffer":0,
			"byteLength":552,
			"byteOffset":8168,
			"target":34962
		},
		{
			"buffer":0,
			"byteLength":368,
			"byteOffset":8720,
			"target":34962
		},
		{
			"buffer":0,
			"byteLength":216,
			"byteOffset":9088,
			"target":34963
		},
		{
			"buffer":0,
			"byteLength":432,
			"byteOffset":9304,
			"target":34962
		},
		{
			"buffer":0,
			"byteLength":432,
			"byteOffset":9736,
			"target":34962
		},
		{
			"buffer":0,
			"byteLength":288,
			"byteOffset":10168,
			"target":34962
		},
		{
			"buffer":0,
			"byteLength":120,
			"byteOffset":10456,
			"target":34963
		},
		{
			"buffer":0,
			"byteLength":288,
			"byteOffset":10576,
			"target":34962
		},
		{
			"buffer":0,
			"byteLength":288,
			"byteOffset":10864,
			"target":34962
		},
		{
			"buffer":0,
			"byteLength":192,
			"byteOffset":11152,
			"target":34962
		},
		{
			"buffer":0,
			"byteLength":384,
			"byteOffset":11344,
			"target":34962
		},
		{
			"buffer":0,
			"byteLength":72,
			"byteOffset":11728,
			"target":34963
		},
		{
			"buffer":0,
			"byteLength":4584,
			"byteOffset":11800,
			"target":34962
		},
		{
			"buffer":0,
			"byteLength":4584,
			"byteOffset":16384,
			"target":34962
		},
		{
			"buffer":0,
			"byteLength":3056,
			"byteOffset":20968,
			"target":34962
		},
		{
			"buffer":0,
			"byteLength":2088,
			"byteOffset":24024,
			"target":34963
		},
		{
			"buffer":0,
			"byteLength":960,
			"byteOffset":26112,
			"target":34962
		},
		{
			"buffer":0,
			"byteLength":960,
			"byteOffset":27072,
			"target":34962
		},
		{
			"buffer":0,
			"byteLength":640,
			"byteOffset":28032,
			"target":34962
		},
		{
			"buffer":0,
			"byteLength":264,
			"byteOffset":28672,
			"target":34963
		},
		{
			"buffer":0,
			"byteLength":4260,
			"byteOffset":28936,
			"target":34962
		},
		{
			"buffer":0,
			"byteLength":4260,
			"byteOffset":33196,
			"target":34962
		},
		{
			"buffer":0,
			"byteLength":2840,
			"byteOffset":37456,
			"target":34962
		},
		{
			"buffer":0,
			"byteLength":1560,
			"byteOffset":40296,
			"target":34963
		},
		{
			"buffer":0,
			"byteLength":936,
			"byteOffset":41856,
			"target":34962
		},
		{
			"buffer":0,
			"byteLength":936,
			"byteOffset":42792,
			"target":34962
		},
		{
			"buffer":0,
			"byteLength":624,
			"byteOffset":43728,
			"target":34962
		},
		{
			"buffer":0,
			"byteLength":276,
			"byteOffset":44352,
			"target":34963
		},
		{
			"buffer":0,
			"byteLength":8700,
			"byteOffset":44628,
			"target":34962
		},
		{
			"buffer":0,
			"byteLength":8700,
			"byteOffset":53328,
			"target":34962
		},
		{
			"buffer":0,
			"byteLength":5800,
			"byteOffset":62028,
			"target":34962
		},
		{
			"buffer":0,
			"byteLength":4272,
			"byteOffset":67828,
			"target":34963
		},
		{
			"buffer":0,
			"byteLength":96,
			"byteOffset":72100,
			"target":34962
		},
		{
			"buffer":0,
			"byteLength":96,
			"byteOffset":72196,
			"target":34962
		},
		{
			"buffer":0,
			"byteLength":64,
			"byteOffset":72292,
			"target":34962
		},
		{
			"buffer":0,
			"byteLength":128,
			"byteOffset":72356,
			"target":34962
		},
		{
			"buffer":0,
			"byteLength":24,
			"byteOffset":72484,
			"target":34963
		},
		{
			"buffer":0,
			"byteLength":984,
			"byteOffset":72508,
			"target":34962
		},
		{
			"buffer":0,
			"byteLength":984,
			"byteOffset":73492,
			"target":34962
		},
		{
			"buffer":0,
			"byteLength":656,
			"byteOffset":74476,
			"target":34962
		},
		{
			"buffer":0,
			"byteLength":306,
			"byteOffset":75132,
			"target":34963
		},
		{
			"buffer":0,
			"byteLength":480,
			"byteOffset":75440,
			"target":34962
		},
		{
			"buffer":0,
			"byteLength":480,
			"byteOffset":75920,
			"target":34962
		},
		{
			"buffer":0,
			"byteLength":320,
			"byteOffset":76400,
			"target":34962
		},
		{
			"buffer":0,
			"byteLength":640,
			"byteOffset":76720,
			"target":34962
		},
		{
			"buffer":0,
			"byteLength":120,
			"byteOffset":77360,
			"target":34963
		}
	],
	"samplers":[
		{
			"magFilter":9729,
			"minFilter":9987
		}
	],
	"buffers":[
		{
			"byteLength":77480,
			"uri":"tile_11_0_4.bin"
		}
	]
}
