{
	"asset":{
		"generator":"Khronos glTF Blender I/O v4.0.44",
		"version":"2.0"
	},
	"scene":0,
	"scenes":[
		{
			"name":"Scene",
			"nodes":[
				0,
				1,
				2,
				3,
				4,
				5,
				6,
				7
			]
		}
	],
	"nodes":[
		{
			"mesh":0,
			"name":"pipe.main_collider",
			"rotation":[
				0.7071068286895752,
				0,
				0,
				0.7071068286895752
			]
		},
		{
			"mesh":1,
			"name":"bigSign.board",
			"rotation":[
				0,
				-0.7071067094802856,
				0,
				0.7071068286895752
			],
			"scale":[
				0.6813910007476807,
				0.6813910007476807,
				0.6813910007476807
			]
		},
		{
			"mesh":2,
			"name":"ground"
		},
		{
			"mesh":3,
			"name":"wall.east.003"
		},
		{
			"mesh":4,
			"name":"bigSign.text",
			"rotation":[
				0.5000001192092896,
				-0.49999985098838806,
				0.49999988079071045,
				0.5000001192092896
			],
			"scale":[
				9.438028335571289,
				8.741087913513184,
				10.611104011535645
			]
		},
		{
			"mesh":5,
			"name":"neons.001",
			"rotation":[
				0,
				0,
				-0.7071068286895752,
				0.7071068286895752
			],
			"scale":[
				0.19999998807907104,
				1,
				44.15021896362305
			]
		},
		{
			"mesh":6,
			"name":"pipe.main",
			"rotation":[
				0.7071068286895752,
				0,
				0,
				0.7071068286895752
			],
			"scale":[
				2,
				2,
				2
			]
		},
		{
			"mesh":7,
			"name":"pipe.main.rim",
			"rotation":[
				0.7071068286895752,
				0,
				0,
				0.7071068286895752
			],
			"scale":[
				2,
				2,
				2
			]
		}
	],
	"materials":[
		{
			"doubleSided":true,
			"name":"dcl.PiratesPack",
			"pbrMetallicRoughness":{
				"baseColorTexture":{
					"index":0
				},
				"metallicFactor":0
			}
		},
		{
			"doubleSided":true,
			"emissiveFactor":[
				1,
				1,
				1
			],
			"emissiveTexture":{
				"index":1
			},
			"name":"dcl.PiratesPack.emissive",
			"pbrMetallicRoughness":{
				"baseColorTexture":{
					"index":2
				},
				"metallicFactor":0
			}
		}
	],
	"meshes":[
		{
			"name":"Cylinder.440",
			"primitives":[
				{
					"attributes":{
						"POSITION":0,
						"NORMAL":1,
						"TEXCOORD_0":2
					},
					"indices":3
				}
			]
		},
		{
			"name":"Cube.373",
			"primitives":[
				{
					"attributes":{
						"POSITION":4,
						"NORMAL":5,
						"TEXCOORD_0":6
					},
					"indices":7,
					"material":0
				}
			]
		},
		{
			"name":"Cube.374",
			"primitives":[
				{
					"attributes":{
						"POSITION":8,
						"NORMAL":9,
						"TEXCOORD_0":10
					},
					"indices":11,
					"material":0
				}
			]
		},
		{
			"name":"Cylinder.441",
			"primitives":[
				{
					"attributes":{
						"POSITION":12,
						"NORMAL":13,
						"TEXCOORD_0":14,
						"TANGENT":15
					},
					"indices":16,
					"material":0
				}
			]
		},
		{
			"name":"Text.001",
			"primitives":[
				{
					"attributes":{
						"POSITION":17,
						"NORMAL":18,
						"TEXCOORD_0":19
					},
					"indices":20,
					"material":0
				}
			]
		},
		{
			"name":"Plane.043",
			"primitives":[
				{
					"attributes":{
						"POSITION":21,
						"NORMAL":22,
						"TEXCOORD_0":23,
						"TANGENT":24
					},
					"indices":25,
					"material":1
				}
			]
		},
		{
			"name":"Cylinder.442",
			"primitives":[
				{
					"attributes":{
						"POSITION":26,
						"NORMAL":27,
						"TEXCOORD_0":28
					},
					"indices":29,
					"material":0
				}
			]
		},
		{
			"name":"Cylinder.443",
			"primitives":[
				{
					"attributes":{
						"POSITION":30,
						"NORMAL":31,
						"TEXCOORD_0":32
					},
					"indices":33,
					"material":0
				}
			]
		}
	],
	"textures":[
		{
			"sampler":0,
			"source":0
		},
		{
			"sampler":0,
			"source":0
		},
		{
			"sampler":0,
			"source":0
		}
	],
	"images":[
		{
			"mimeType":"image/png",
			"name":"PiratesPack_TX",
			"uri":"tex/PiratesPack_TX.png"
		}
	],
	"accessors":[
		{
			"bufferView":0,
			"componentType":5126,
			"count":97,
			"max":[
				4.000009536743164,
				3.9999923706054688,
				10.606317520141602
			],
			"min":[
				-3.9999847412109375,
				-4.000007629394531,
				7.649999618530273
			],
			"type":"VEC3"
		},
		{
			"bufferView":1,
			"componentType":5126,
			"count":97,
			"type":"VEC3"
		},
		{
			"bufferView":2,
			"componentType":5126,
			"count":97,
			"type":"VEC2"
		},
		{
			"bufferView":3,
			"componentType":5123,
			"count":177,
			"type":"SCALAR"
		},
		{
			"bufferView":4,
			"componentType":5126,
			"count":62,
			"max":[
				-0.7982101440429688,
				20.322072982788086,
				5.480055809020996
			],
			"min":[
				-5.870344161987305,
				4.692480087280273,
				1.4244003295898438
			],
			"type":"VEC3"
		},
		{
			"bufferView":5,
			"componentType":5126,
			"count":62,
			"type":"VEC3"
		},
		{
			"bufferView":6,
			"componentType":5126,
			"count":62,
			"type":"VEC2"
		},
		{
			"bufferView":7,
			"componentType":5123,
			"count":180,
			"type":"SCALAR"
		},
		{
			"bufferView":8,
			"componentType":5126,
			"count":36,
			"max":[
				3.4499664306640625,
				-10.65999984741211,
				4
			],
			"min":[
				-4,
				-10.899999618530273,
				-4
			],
			"type":"VEC3"
		},
		{
			"bufferView":9,
			"componentType":5126,
			"count":36,
			"type":"VEC3"
		},
		{
			"bufferView":10,
			"componentType":5126,
			"count":36,
			"type":"VEC2"
		},
		{
			"bufferView":11,
			"componentType":5123,
			"count":60,
			"type":"SCALAR"
		},
		{
			"bufferView":12,
			"componentType":5126,
			"count":24,
			"max":[
				3.4666237831115723,
				7.9000091552734375,
				4
			],
			"min":[
				2.999969244003296,
				-10.85000228881836,
				-4
			],
			"type":"VEC3"
		},
		{
			"bufferView":13,
			"componentType":5126,
			"count":24,
			"type":"VEC3"
		},
		{
			"bufferView":14,
			"componentType":5126,
			"count":24,
			"type":"VEC2"
		},
		{
			"bufferView":15,
			"componentType":5126,
			"count":24,
			"type":"VEC4"
		},
		{
			"bufferView":16,
			"componentType":5123,
			"count":36,
			"type":"SCALAR"
		},
		{
			"bufferView":17,
			"componentType":5126,
			"count":50,
			"max":[
				-0.1940765380859375,
				0.33567285537719727,
				-0.6053687334060669
			],
			"min":[
				-0.4238168001174927,
				0.1568562090396881,
				-1.0186338424682617
			],
			"type":"VEC3"
		},
		{
			"bufferView":18,
			"componentType":5126,
			"count":50,
			"type":"VEC3"
		},
		{
			"bufferView":19,
			"componentType":5126,
			"count":50,
			"type":"VEC2"
		},
		{
			"bufferView":20,
			"componentType":5123,
			"count":90,
			"type":"SCALAR"
		},
		{
			"bufferView":21,
			"componentType":5126,
			"count":8,
			"max":[
				13.374977111816406,
				2.8999557495117188,
				0.0905998945236206
			],
			"min":[
				6.374977111816406,
				2.8999557495117188,
				-0.0905996561050415
			],
			"type":"VEC3"
		},
		{
			"bufferView":22,
			"componentType":5126,
			"count":8,
			"type":"VEC3"
		},
		{
			"bufferView":23,
			"componentType":5126,
			"count":8,
			"type":"VEC2"
		},
		{
			"bufferView":24,
			"componentType":5126,
			"count":8,
			"type":"VEC4"
		},
		{
			"bufferView":25,
			"componentType":5123,
			"count":12,
			"type":"SCALAR"
		},
		{
			"bufferView":26,
			"componentType":5126,
			"count":107,
			"max":[
				1.9999985694885254,
				2,
				7.5
			],
			"min":[
				-2.0000011920928955,
				-2.000001907348633,
				3.825000286102295
			],
			"type":"VEC3"
		},
		{
			"bufferView":27,
			"componentType":5126,
			"count":107,
			"type":"VEC3"
		},
		{
			"bufferView":28,
			"componentType":5126,
			"count":107,
			"type":"VEC2"
		},
		{
			"bufferView":29,
			"componentType":5123,
			"count":192,
			"type":"SCALAR"
		},
		{
			"bufferView":30,
			"componentType":5126,
			"count":70,
			"max":[
				-0.8478355407714844,
				0.051421165466308594,
				3.858786106109619
			],
			"min":[
				-2,
				-2.000000476837158,
				3.791215181350708
			],
			"type":"VEC3"
		},
		{
			"bufferView":31,
			"componentType":5126,
			"count":70,
			"type":"VEC3"
		},
		{
			"bufferView":32,
			"componentType":5126,
			"count":70,
			"type":"VEC2"
		},
		{
			"bufferView":33,
			"componentType":5123,
			"count":108,
			"type":"SCALAR"
		}
	],
	"bufferViews":[
		{
			"buffer":0,
			"byteLength":1164,
			"byteOffset":0,
			"target":34962
		},
		{
			"buffer":0,
			"byteLength":1164,
			"byteOffset":1164,
			"target":34962
		},
		{
			"buffer":0,
			"byteLength":776,
			"byteOffset":2328,
			"target":34962
		},
		{
			"buffer":0,
			"byteLength":354,
			"byteOffset":3104,
			"target":34963
		},
		{
			"buffer":0,
			"byteLength":744,
			"byteOffset":3460,
			"target":34962
		},
		{
			"buffer":0,
			"byteLength":744,
			"byteOffset":4204,
			"target":34962
		},
		{
			"buffer":0,
			"byteLength":496,
			"byteOffset":4948,
			"target":34962
		},
		{
			"buffer":0,
			"byteLength":360,
			"byteOffset":5444,
			"target":34963
		},
		{
			"buffer":0,
			"byteLength":432,
			"byteOffset":5804,
			"target":34962
		},
		{
			"buffer":0,
			"byteLength":432,
			"byteOffset":6236,
			"target":34962
		},
		{
			"buffer":0,
			"byteLength":288,
			"byteOffset":6668,
			"target":34962
		},
		{
			"buffer":0,
			"byteLength":120,
			"byteOffset":6956,
			"target":34963
		},
		{
			"buffer":0,
			"byteLength":288,
			"byteOffset":7076,
			"target":34962
		},
		{
			"buffer":0,
			"byteLength":288,
			"byteOffset":7364,
			"target":34962
		},
		{
			"buffer":0,
			"byteLength":192,
			"byteOffset":7652,
			"target":34962
		},
		{
			"buffer":0,
			"byteLength":384,
			"byteOffset":7844,
			"target":34962
		},
		{
			"buffer":0,
			"byteLength":72,
			"byteOffset":8228,
			"target":34963
		},
		{
			"buffer":0,
			"byteLength":600,
			"byteOffset":8300,
			"target":34962
		},
		{
			"buffer":0,
			"byteLength":600,
			"byteOffset":8900,
			"target":34962
		},
		{
			"buffer":0,
			"byteLength":400,
			"byteOffset":9500,
			"target":34962
		},
		{
			"buffer":0,
			"byteLength":180,
			"byteOffset":9900,
			"target":34963
		},
		{
			"buffer":0,
			"byteLength":96,
			"byteOffset":10080,
			"target":34962
		},
		{
			"buffer":0,
			"byteLength":96,
			"byteOffset":10176,
			"target":34962
		},
		{
			"buffer":0,
			"byteLength":64,
			"byteOffset":10272,
			"target":34962
		},
		{
			"buffer":0,
			"byteLength":128,
			"byteOffset":10336,
			"target":34962
		},
		{
			"buffer":0,
			"byteLength":24,
			"byteOffset":10464,
			"target":34963
		},
		{
			"buffer":0,
			"byteLength":1284,
			"byteOffset":10488,
			"target":34962
		},
		{
			"buffer":0,
			"byteLength":1284,
			"byteOffset":11772,
			"target":34962
		},
		{
			"buffer":0,
			"byteLength":856,
			"byteOffset":13056,
			"target":34962
		},
		{
			"buffer":0,
			"byteLength":384,
			"byteOffset":13912,
			"target":34963
		},
		{
			"buffer":0,
			"byteLength":840,
			"byteOffset":14296,
			"target":34962
		},
		{
			"buffer":0,
			"byteLength":840,
			"byteOffset":15136,
			"target":34962
		},
		{
			"buffer":0,
			"byteLength":560,
			"byteOffset":15976,
			"target":34962
		},
		{
			"buffer":0,
			"byteLength":216,
			"byteOffset":16536,
			"target":34963
		}
	],
	"samplers":[
		{
			"magFilter":9729,
			"minFilter":9987
		}
	],
	"buffers":[
		{
			"byteLength":16752,
			"uri":"tile_11_0_3.bin"
		}
	]
}
