{
	"asset":{
		"generator":"Khronos glTF Blender I/O v4.0.44",
		"version":"2.0"
	},
	"scene":0,
	"scenes":[
		{
			"name":"Scene",
			"nodes":[
				0,
				1,
				2,
				3,
				4,
				5,
				6,
				7,
				8
			]
		}
	],
	"nodes":[
		{
			"name":"grindcurve.01_collider",
			"rotation":[
				0,
				-0.6427873969078064,
				0,
				0.7660446763038635
			]
		},
		{
			"mesh":0,
			"name":"grindcurve.02_collider",
			"rotation":[
				0,
				-0.6427873969078064,
				0,
				0.7660446763038635
			]
		},
		{
			"mesh":1,
			"name":"ground"
		},
		{
			"name":"decal.main",
			"rotation":[
				0,
				-0.7071068286895752,
				0.7071068286895752,
				3.4560699191388267e-07
			]
		},
		{
			"name":"decal.circles",
			"scale":[
				3,
				3,
				3
			]
		},
		{
			"name":"grindcurve.01",
			"rotation":[
				0,
				0.7660448551177979,
				0,
				0.6427870988845825
			]
		},
		{
			"mesh":2,
			"name":"grindcurve.02",
			"rotation":[
				0,
				-0.6427873969078064,
				0,
				0.7660446763038635
			]
		},
		{
			"name":"grindcurve.003",
			"rotation":[
				0,
				0.7660448551177979,
				0,
				0.6427870988845825
			]
		},
		{
			"mesh":3,
			"name":"grindcurve.004",
			"rotation":[
				0,
				-0.6427873969078064,
				0,
				0.7660446763038635
			]
		}
	],
	"materials":[
		{
			"doubleSided":true,
			"name":"dcl.PiratesPack",
			"pbrMetallicRoughness":{
				"baseColorTexture":{
					"index":0
				},
				"metallicFactor":0
			}
		}
	],
	"meshes":[
		{
			"name":"Cylinder.241",
			"primitives":[
				{
					"attributes":{
						"POSITION":0,
						"NORMAL":1,
						"TEXCOORD_0":2
					},
					"indices":3
				}
			]
		},
		{
			"name":"Cube.284",
			"primitives":[
				{
					"attributes":{
						"POSITION":4,
						"NORMAL":5,
						"TEXCOORD_0":6,
						"TANGENT":7
					},
					"indices":8,
					"material":0
				}
			]
		},
		{
			"name":"Cylinder.244",
			"primitives":[
				{
					"attributes":{
						"POSITION":9,
						"NORMAL":10,
						"TEXCOORD_0":11
					},
					"indices":12,
					"material":0
				},
				{
					"attributes":{
						"POSITION":13,
						"NORMAL":14,
						"TEXCOORD_0":15
					},
					"indices":16,
					"material":0
				}
			]
		},
		{
			"name":"grindcurve.013",
			"primitives":[
				{
					"attributes":{
						"POSITION":17,
						"NORMAL":18,
						"TEXCOORD_0":19,
						"TANGENT":20
					},
					"indices":21,
					"material":0
				},
				{
					"attributes":{
						"POSITION":22,
						"NORMAL":23,
						"TEXCOORD_0":24,
						"TANGENT":25
					},
					"indices":26,
					"material":0
				}
			]
		}
	],
	"textures":[
		{
			"sampler":0,
			"source":0
		}
	],
	"images":[
		{
			"mimeType":"image/png",
			"name":"PiratesPack_TX",
			"uri":"tex/PiratesPack_TX.png"
		}
	],
	"accessors":[
		{
			"bufferView":0,
			"componentType":5126,
			"count":57,
			"max":[
				2.911064624786377,
				-8.5,
				4.217068672180176
			],
			"min":[
				-4.483648300170898,
				-11.049999237060547,
				-0.6947517395019531
			],
			"type":"VEC3"
		},
		{
			"bufferView":1,
			"componentType":5126,
			"count":57,
			"type":"VEC3"
		},
		{
			"bufferView":2,
			"componentType":5126,
			"count":57,
			"type":"VEC2"
		},
		{
			"bufferView":3,
			"componentType":5123,
			"count":132,
			"type":"SCALAR"
		},
		{
			"bufferView":4,
			"componentType":5126,
			"count":24,
			"max":[
				4,
				-10.65999984741211,
				4
			],
			"min":[
				-4,
				-10.899999618530273,
				-4
			],
			"type":"VEC3"
		},
		{
			"bufferView":5,
			"componentType":5126,
			"count":24,
			"type":"VEC3"
		},
		{
			"bufferView":6,
			"componentType":5126,
			"count":24,
			"type":"VEC2"
		},
		{
			"bufferView":7,
			"componentType":5126,
			"count":24,
			"type":"VEC4"
		},
		{
			"bufferView":8,
			"componentType":5123,
			"count":36,
			"type":"SCALAR"
		},
		{
			"bufferView":9,
			"componentType":5126,
			"count":112,
			"max":[
				2.911064624786377,
				-8.149999618530273,
				4.217068672180176
			],
			"min":[
				-4.483648300170898,
				-10.69999885559082,
				-0.6947517395019531
			],
			"type":"VEC3"
		},
		{
			"bufferView":10,
			"componentType":5126,
			"count":112,
			"type":"VEC3"
		},
		{
			"bufferView":11,
			"componentType":5126,
			"count":112,
			"type":"VEC2"
		},
		{
			"bufferView":12,
			"componentType":5123,
			"count":276,
			"type":"SCALAR"
		},
		{
			"bufferView":13,
			"componentType":5126,
			"count":17,
			"max":[
				0.8810954093933105,
				-8.149999618530273,
				4.217068672180176
			],
			"min":[
				-4.483648300170898,
				-10.69999885559082,
				-0.6748547554016113
			],
			"type":"VEC3"
		},
		{
			"bufferView":14,
			"componentType":5126,
			"count":17,
			"type":"VEC3"
		},
		{
			"bufferView":15,
			"componentType":5126,
			"count":17,
			"type":"VEC2"
		},
		{
			"bufferView":16,
			"componentType":5123,
			"count":36,
			"type":"SCALAR"
		},
		{
			"bufferView":17,
			"componentType":5126,
			"count":35,
			"max":[
				3.0270133018493652,
				-8.032134056091309,
				2.955841541290283
			],
			"min":[
				-3.969628095626831,
				-8.332134246826172,
				-0.8447513580322266
			],
			"type":"VEC3"
		},
		{
			"bufferView":18,
			"componentType":5126,
			"count":35,
			"type":"VEC3"
		},
		{
			"bufferView":19,
			"componentType":5126,
			"count":35,
			"type":"VEC2"
		},
		{
			"bufferView":20,
			"componentType":5126,
			"count":35,
			"type":"VEC4"
		},
		{
			"bufferView":21,
			"componentType":5123,
			"count":150,
			"type":"SCALAR"
		},
		{
			"bufferView":22,
			"componentType":5126,
			"count":4,
			"max":[
				-3.915794849395752,
				-8.032157897949219,
				-0.5222034454345703
			],
			"min":[
				-3.969628095626831,
				-8.332109451293945,
				-0.8275051116943359
			],
			"type":"VEC3"
		},
		{
			"bufferView":23,
			"componentType":5126,
			"count":4,
			"type":"VEC3"
		},
		{
			"bufferView":24,
			"componentType":5126,
			"count":4,
			"type":"VEC2"
		},
		{
			"bufferView":25,
			"componentType":5126,
			"count":4,
			"type":"VEC4"
		},
		{
			"bufferView":26,
			"componentType":5123,
			"count":6,
			"type":"SCALAR"
		}
	],
	"bufferViews":[
		{
			"buffer":0,
			"byteLength":684,
			"byteOffset":0,
			"target":34962
		},
		{
			"buffer":0,
			"byteLength":684,
			"byteOffset":684,
			"target":34962
		},
		{
			"buffer":0,
			"byteLength":456,
			"byteOffset":1368,
			"target":34962
		},
		{
			"buffer":0,
			"byteLength":264,
			"byteOffset":1824,
			"target":34963
		},
		{
			"buffer":0,
			"byteLength":288,
			"byteOffset":2088,
			"target":34962
		},
		{
			"buffer":0,
			"byteLength":288,
			"byteOffset":2376,
			"target":34962
		},
		{
			"buffer":0,
			"byteLength":192,
			"byteOffset":2664,
			"target":34962
		},
		{
			"buffer":0,
			"byteLength":384,
			"byteOffset":2856,
			"target":34962
		},
		{
			"buffer":0,
			"byteLength":72,
			"byteOffset":3240,
			"target":34963
		},
		{
			"buffer":0,
			"byteLength":1344,
			"byteOffset":3312,
			"target":34962
		},
		{
			"buffer":0,
			"byteLength":1344,
			"byteOffset":4656,
			"target":34962
		},
		{
			"buffer":0,
			"byteLength":896,
			"byteOffset":6000,
			"target":34962
		},
		{
			"buffer":0,
			"byteLength":552,
			"byteOffset":6896,
			"target":34963
		},
		{
			"buffer":0,
			"byteLength":204,
			"byteOffset":7448,
			"target":34962
		},
		{
			"buffer":0,
			"byteLength":204,
			"byteOffset":7652,
			"target":34962
		},
		{
			"buffer":0,
			"byteLength":136,
			"byteOffset":7856,
			"target":34962
		},
		{
			"buffer":0,
			"byteLength":72,
			"byteOffset":7992,
			"target":34963
		},
		{
			"buffer":0,
			"byteLength":420,
			"byteOffset":8064,
			"target":34962
		},
		{
			"buffer":0,
			"byteLength":420,
			"byteOffset":8484,
			"target":34962
		},
		{
			"buffer":0,
			"byteLength":280,
			"byteOffset":8904,
			"target":34962
		},
		{
			"buffer":0,
			"byteLength":560,
			"byteOffset":9184,
			"target":34962
		},
		{
			"buffer":0,
			"byteLength":300,
			"byteOffset":9744,
			"target":34963
		},
		{
			"buffer":0,
			"byteLength":48,
			"byteOffset":10044,
			"target":34962
		},
		{
			"buffer":0,
			"byteLength":48,
			"byteOffset":10092,
			"target":34962
		},
		{
			"buffer":0,
			"byteLength":32,
			"byteOffset":10140,
			"target":34962
		},
		{
			"buffer":0,
			"byteLength":64,
			"byteOffset":10172,
			"target":34962
		},
		{
			"buffer":0,
			"byteLength":12,
			"byteOffset":10236,
			"target":34963
		}
	],
	"samplers":[
		{
			"magFilter":9729,
			"minFilter":9987
		}
	],
	"buffers":[
		{
			"byteLength":10248,
			"uri":"tile_3_0_9.bin"
		}
	]
}
