{
	"asset":{
		"generator":"Khronos glTF Blender I/O v4.0.44",
		"version":"2.0"
	},
	"scene":0,
	"scenes":[
		{
			"name":"Scene",
			"nodes":[
				0,
				1,
				2,
				3,
				4,
				5,
				6,
				7,
				8,
				9,
				10,
				11
			]
		}
	],
	"nodes":[
		{
			"name":"pipe.main_collider",
			"rotation":[
				0.7071068286895752,
				0,
				0,
				0.7071068286895752
			]
		},
		{
			"mesh":0,
			"name":"entrance.pillar.002_collider",
			"rotation":[
				0.7071068286895752,
				0,
				0,
				0.7071068286895752
			]
		},
		{
			"mesh":1,
			"name":"wall.south.014"
		},
		{
			"mesh":2,
			"name":"ground"
		},
		{
			"name":"decal.main",
			"rotation":[
				0,
				-0.7071068286895752,
				0.7071068286895752,
				3.4560699191388267e-07
			]
		},
		{
			"name":"neons.003",
			"rotation":[
				0.4999999403953552,
				-0.49999988079071045,
				-0.5000001192092896,
				0.5000001192092896
			],
			"scale":[
				0.19999998807907104,
				1,
				47.68861770629883
			]
		},
		{
			"name":"pipe.main",
			"rotation":[
				0.7071068286895752,
				0,
				0,
				0.7071068286895752
			],
			"scale":[
				2,
				2,
				2
			]
		},
		{
			"name":"pipe.main.rim",
			"rotation":[
				0.7071068286895752,
				0,
				0,
				0.7071068286895752
			],
			"scale":[
				2,
				2,
				2
			]
		},
		{
			"mesh":3,
			"name":"tyre_001.002",
			"rotation":[
				0.7071068286895752,
				0,
				0,
				0.7071068286895752
			]
		},
		{
			"mesh":4,
			"name":"tyre_002.002",
			"rotation":[
				0.7071068286895752,
				0,
				0,
				0.7071068286895752
			]
		},
		{
			"mesh":5,
			"name":"tyre_003.002",
			"rotation":[
				0.7071068286895752,
				0,
				0,
				0.7071068286895752
			]
		},
		{
			"mesh":6,
			"name":"tyre_004.002",
			"rotation":[
				0.7071068286895752,
				0,
				0,
				0.7071068286895752
			]
		}
	],
	"materials":[
		{
			"doubleSided":true,
			"name":"dcl.PiratesPack",
			"pbrMetallicRoughness":{
				"baseColorTexture":{
					"index":0
				},
				"metallicFactor":0
			}
		}
	],
	"meshes":[
		{
			"name":"Cube.255",
			"primitives":[
				{
					"attributes":{
						"POSITION":0,
						"NORMAL":1,
						"TEXCOORD_0":2
					},
					"indices":3
				}
			]
		},
		{
			"name":"Cylinder.195",
			"primitives":[
				{
					"attributes":{
						"POSITION":4,
						"NORMAL":5,
						"TEXCOORD_0":6
					},
					"indices":7,
					"material":0
				}
			]
		},
		{
			"name":"Cube.256",
			"primitives":[
				{
					"attributes":{
						"POSITION":8,
						"NORMAL":9,
						"TEXCOORD_0":10
					},
					"indices":11,
					"material":0
				}
			]
		},
		{
			"name":"Cube.257",
			"primitives":[
				{
					"attributes":{
						"POSITION":12,
						"NORMAL":13,
						"TEXCOORD_0":14
					},
					"indices":15,
					"material":0
				}
			]
		},
		{
			"name":"Cube.258",
			"primitives":[
				{
					"attributes":{
						"POSITION":16,
						"NORMAL":17,
						"TEXCOORD_0":18
					},
					"indices":19,
					"material":0
				}
			]
		},
		{
			"name":"Cube.259",
			"primitives":[
				{
					"attributes":{
						"POSITION":20,
						"NORMAL":21,
						"TEXCOORD_0":22
					},
					"indices":23,
					"material":0
				}
			]
		},
		{
			"name":"Cube.260",
			"primitives":[
				{
					"attributes":{
						"POSITION":24,
						"NORMAL":25,
						"TEXCOORD_0":26
					},
					"indices":27,
					"material":0
				}
			]
		}
	],
	"textures":[
		{
			"sampler":0,
			"source":0
		}
	],
	"images":[
		{
			"mimeType":"image/png",
			"name":"PiratesPack_TX",
			"uri":"tex/PiratesPack_TX.png"
		}
	],
	"accessors":[
		{
			"bufferView":0,
			"componentType":5126,
			"count":74,
			"max":[
				4,
				0.07199239730834961,
				10.459592819213867
			],
			"min":[
				1.9767909049987793,
				-4,
				2.0826268196105957
			],
			"type":"VEC3"
		},
		{
			"bufferView":1,
			"componentType":5126,
			"count":74,
			"type":"VEC3"
		},
		{
			"bufferView":2,
			"componentType":5126,
			"count":74,
			"type":"VEC2"
		},
		{
			"bufferView":3,
			"componentType":5123,
			"count":192,
			"type":"SCALAR"
		},
		{
			"bufferView":4,
			"componentType":5126,
			"count":36,
			"max":[
				4,
				-0.12976646423339844,
				1.0000100135803223
			],
			"min":[
				3.2865257263183594,
				-10.899999618530273,
				1.6868114471435547e-05
			],
			"type":"VEC3"
		},
		{
			"bufferView":5,
			"componentType":5126,
			"count":36,
			"type":"VEC3"
		},
		{
			"bufferView":6,
			"componentType":5126,
			"count":36,
			"type":"VEC2"
		},
		{
			"bufferView":7,
			"componentType":5123,
			"count":72,
			"type":"SCALAR"
		},
		{
			"bufferView":8,
			"componentType":5126,
			"count":36,
			"max":[
				4,
				-10.65999984741211,
				0
			],
			"min":[
				-4,
				-10.899999618530273,
				-4
			],
			"type":"VEC3"
		},
		{
			"bufferView":9,
			"componentType":5126,
			"count":36,
			"type":"VEC3"
		},
		{
			"bufferView":10,
			"componentType":5126,
			"count":36,
			"type":"VEC2"
		},
		{
			"bufferView":11,
			"componentType":5123,
			"count":60,
			"type":"SCALAR"
		},
		{
			"bufferView":12,
			"componentType":5126,
			"count":143,
			"max":[
				4,
				-0.04661273956298828,
				10.65999984741211
			],
			"min":[
				2.123300552368164,
				-3.8954319953918457,
				8.65999984741211
			],
			"type":"VEC3"
		},
		{
			"bufferView":13,
			"componentType":5126,
			"count":143,
			"type":"VEC3"
		},
		{
			"bufferView":14,
			"componentType":5126,
			"count":143,
			"type":"VEC2"
		},
		{
			"bufferView":15,
			"componentType":5123,
			"count":381,
			"type":"SCALAR"
		},
		{
			"bufferView":16,
			"componentType":5126,
			"count":140,
			"max":[
				4,
				-0.08907473087310791,
				8.64003849029541
			],
			"min":[
				2.336771011352539,
				-3.8529701232910156,
				6.64003849029541
			],
			"type":"VEC3"
		},
		{
			"bufferView":17,
			"componentType":5126,
			"count":140,
			"type":"VEC3"
		},
		{
			"bufferView":18,
			"componentType":5126,
			"count":140,
			"type":"VEC2"
		},
		{
			"bufferView":19,
			"componentType":5123,
			"count":372,
			"type":"SCALAR"
		},
		{
			"bufferView":20,
			"componentType":5126,
			"count":147,
			"max":[
				4,
				-0.23713552951812744,
				6.582625865936279
			],
			"min":[
				2.1340885162353516,
				-4,
				4.582625865936279
			],
			"type":"VEC3"
		},
		{
			"bufferView":21,
			"componentType":5126,
			"count":147,
			"type":"VEC3"
		},
		{
			"bufferView":22,
			"componentType":5126,
			"count":147,
			"type":"VEC2"
		},
		{
			"bufferView":23,
			"componentType":5123,
			"count":387,
			"type":"SCALAR"
		},
		{
			"bufferView":24,
			"componentType":5126,
			"count":141,
			"max":[
				4,
				-0.10293948650360107,
				4.582625865936279
			],
			"min":[
				2.2519969940185547,
				-3.900559902191162,
				2.5826258659362793
			],
			"type":"VEC3"
		},
		{
			"bufferView":25,
			"componentType":5126,
			"count":141,
			"type":"VEC3"
		},
		{
			"bufferView":26,
			"componentType":5126,
			"count":141,
			"type":"VEC2"
		},
		{
			"bufferView":27,
			"componentType":5123,
			"count":375,
			"type":"SCALAR"
		}
	],
	"bufferViews":[
		{
			"buffer":0,
			"byteLength":888,
			"byteOffset":0,
			"target":34962
		},
		{
			"buffer":0,
			"byteLength":888,
			"byteOffset":888,
			"target":34962
		},
		{
			"buffer":0,
			"byteLength":592,
			"byteOffset":1776,
			"target":34962
		},
		{
			"buffer":0,
			"byteLength":384,
			"byteOffset":2368,
			"target":34963
		},
		{
			"buffer":0,
			"byteLength":432,
			"byteOffset":2752,
			"target":34962
		},
		{
			"buffer":0,
			"byteLength":432,
			"byteOffset":3184,
			"target":34962
		},
		{
			"buffer":0,
			"byteLength":288,
			"byteOffset":3616,
			"target":34962
		},
		{
			"buffer":0,
			"byteLength":144,
			"byteOffset":3904,
			"target":34963
		},
		{
			"buffer":0,
			"byteLength":432,
			"byteOffset":4048,
			"target":34962
		},
		{
			"buffer":0,
			"byteLength":432,
			"byteOffset":4480,
			"target":34962
		},
		{
			"buffer":0,
			"byteLength":288,
			"byteOffset":4912,
			"target":34962
		},
		{
			"buffer":0,
			"byteLength":120,
			"byteOffset":5200,
			"target":34963
		},
		{
			"buffer":0,
			"byteLength":1716,
			"byteOffset":5320,
			"target":34962
		},
		{
			"buffer":0,
			"byteLength":1716,
			"byteOffset":7036,
			"target":34962
		},
		{
			"buffer":0,
			"byteLength":1144,
			"byteOffset":8752,
			"target":34962
		},
		{
			"buffer":0,
			"byteLength":762,
			"byteOffset":9896,
			"target":34963
		},
		{
			"buffer":0,
			"byteLength":1680,
			"byteOffset":10660,
			"target":34962
		},
		{
			"buffer":0,
			"byteLength":1680,
			"byteOffset":12340,
			"target":34962
		},
		{
			"buffer":0,
			"byteLength":1120,
			"byteOffset":14020,
			"target":34962
		},
		{
			"buffer":0,
			"byteLength":744,
			"byteOffset":15140,
			"target":34963
		},
		{
			"buffer":0,
			"byteLength":1764,
			"byteOffset":15884,
			"target":34962
		},
		{
			"buffer":0,
			"byteLength":1764,
			"byteOffset":17648,
			"target":34962
		},
		{
			"buffer":0,
			"byteLength":1176,
			"byteOffset":19412,
			"target":34962
		},
		{
			"buffer":0,
			"byteLength":774,
			"byteOffset":20588,
			"target":34963
		},
		{
			"buffer":0,
			"byteLength":1692,
			"byteOffset":21364,
			"target":34962
		},
		{
			"buffer":0,
			"byteLength":1692,
			"byteOffset":23056,
			"target":34962
		},
		{
			"buffer":0,
			"byteLength":1128,
			"byteOffset":24748,
			"target":34962
		},
		{
			"buffer":0,
			"byteLength":750,
			"byteOffset":25876,
			"target":34963
		}
	],
	"samplers":[
		{
			"magFilter":9729,
			"minFilter":9987
		}
	],
	"buffers":[
		{
			"byteLength":26628,
			"uri":"tile_6_0_0.bin"
		}
	]
}
