{
	"asset":{
		"generator":"Khronos glTF Blender I/O v4.0.44",
		"version":"2.0"
	},
	"scene":0,
	"scenes":[
		{
			"name":"Scene",
			"nodes":[
				0,
				1,
				2,
				3,
				4,
				5
			]
		}
	],
	"nodes":[
		{
			"mesh":0,
			"name":"pipe.west_collider",
			"rotation":[
				0,
				-0.7071068286895752,
				0.7071068286895752,
				3.4560699191388267e-07
			]
		},
		{
			"mesh":1,
			"name":"wall.west.009"
		},
		{
			"mesh":2,
			"name":"ground"
		},
		{
			"name":"decal.main",
			"rotation":[
				0,
				-0.7071068286895752,
				0.7071068286895752,
				3.4560699191388267e-07
			]
		},
		{
			"mesh":3,
			"name":"neons.002",
			"rotation":[
				0.7071068286895752,
				-0.7071068286895752,
				0,
				1.1520234011186403e-07
			],
			"scale":[
				0.19999998807907104,
				1,
				44.15021896362305
			]
		},
		{
			"mesh":4,
			"name":"pipe.west.001",
			"rotation":[
				0,
				-0.7071068286895752,
				0.7071068286895752,
				3.4560699191388267e-07
			]
		}
	],
	"materials":[
		{
			"doubleSided":true,
			"name":"dcl.PiratesPack",
			"pbrMetallicRoughness":{
				"baseColorTexture":{
					"index":0
				},
				"metallicFactor":0
			}
		},
		{
			"doubleSided":true,
			"emissiveFactor":[
				1,
				1,
				1
			],
			"emissiveTexture":{
				"index":1
			},
			"name":"dcl.PiratesPack.emissive",
			"pbrMetallicRoughness":{
				"baseColorTexture":{
					"index":2
				},
				"metallicFactor":0
			}
		}
	],
	"meshes":[
		{
			"name":"Cylinder.056",
			"primitives":[
				{
					"attributes":{
						"POSITION":0,
						"NORMAL":1,
						"TEXCOORD_0":2
					},
					"indices":3
				}
			]
		},
		{
			"name":"Cylinder.057",
			"primitives":[
				{
					"attributes":{
						"POSITION":4,
						"NORMAL":5,
						"TEXCOORD_0":6
					},
					"indices":7,
					"material":0
				}
			]
		},
		{
			"name":"Cube.044",
			"primitives":[
				{
					"attributes":{
						"POSITION":8,
						"NORMAL":9,
						"TEXCOORD_0":10
					},
					"indices":11,
					"material":0
				}
			]
		},
		{
			"name":"Plane.011",
			"primitives":[
				{
					"attributes":{
						"POSITION":12,
						"NORMAL":13,
						"TEXCOORD_0":14,
						"TANGENT":15
					},
					"indices":16,
					"material":1
				}
			]
		},
		{
			"name":"Cylinder.059",
			"primitives":[
				{
					"attributes":{
						"POSITION":17,
						"NORMAL":18,
						"TEXCOORD_0":19
					},
					"indices":20,
					"material":0
				},
				{
					"attributes":{
						"POSITION":21,
						"NORMAL":22,
						"TEXCOORD_0":23
					},
					"indices":24,
					"material":1
				}
			]
		}
	],
	"textures":[
		{
			"sampler":0,
			"source":0
		},
		{
			"sampler":0,
			"source":0
		},
		{
			"sampler":0,
			"source":0
		}
	],
	"images":[
		{
			"mimeType":"image/png",
			"name":"PiratesPack_TX",
			"uri":"tex/PiratesPack_TX.png"
		}
	],
	"accessors":[
		{
			"bufferView":0,
			"componentType":5126,
			"count":48,
			"max":[
				2.49997615814209,
				3.9999961853027344,
				10.35096549987793
			],
			"min":[
				-3.999972343444824,
				-4.000003814697266,
				7.463168621063232
			],
			"type":"VEC3"
		},
		{
			"bufferView":1,
			"componentType":5126,
			"count":48,
			"type":"VEC3"
		},
		{
			"bufferView":2,
			"componentType":5126,
			"count":48,
			"type":"VEC2"
		},
		{
			"bufferView":3,
			"componentType":5123,
			"count":114,
			"type":"SCALAR"
		},
		{
			"bufferView":4,
			"componentType":5126,
			"count":21,
			"max":[
				-2.5000009536743164,
				7.900005340576172,
				4
			],
			"min":[
				-3.489985227584839,
				-10.850003242492676,
				-4
			],
			"type":"VEC3"
		},
		{
			"bufferView":5,
			"componentType":5126,
			"count":21,
			"type":"VEC3"
		},
		{
			"bufferView":6,
			"componentType":5126,
			"count":21,
			"type":"VEC2"
		},
		{
			"bufferView":7,
			"componentType":5123,
			"count":33,
			"type":"SCALAR"
		},
		{
			"bufferView":8,
			"componentType":5126,
			"count":36,
			"max":[
				4,
				-10.65999984741211,
				4
			],
			"min":[
				-2.9999542236328125,
				-10.899999618530273,
				-4
			],
			"type":"VEC3"
		},
		{
			"bufferView":9,
			"componentType":5126,
			"count":36,
			"type":"VEC3"
		},
		{
			"bufferView":10,
			"componentType":5126,
			"count":36,
			"type":"VEC2"
		},
		{
			"bufferView":11,
			"componentType":5123,
			"count":60,
			"type":"SCALAR"
		},
		{
			"bufferView":12,
			"componentType":5126,
			"count":8,
			"max":[
				13.374984741210938,
				2.449953079223633,
				0.09059977531433105
			],
			"min":[
				6.3749847412109375,
				2.449953079223633,
				-0.09059977531433105
			],
			"type":"VEC3"
		},
		{
			"bufferView":13,
			"componentType":5126,
			"count":8,
			"type":"VEC3"
		},
		{
			"bufferView":14,
			"componentType":5126,
			"count":8,
			"type":"VEC2"
		},
		{
			"bufferView":15,
			"componentType":5126,
			"count":8,
			"type":"VEC4"
		},
		{
			"bufferView":16,
			"componentType":5123,
			"count":12,
			"type":"SCALAR"
		},
		{
			"bufferView":17,
			"componentType":5126,
			"count":45,
			"max":[
				2.49997615814209,
				4.000003814697266,
				10.350964546203613
			],
			"min":[
				-3.999972343444824,
				-3.9999961853027344,
				7.463168621063232
			],
			"type":"VEC3"
		},
		{
			"bufferView":18,
			"componentType":5126,
			"count":45,
			"type":"VEC3"
		},
		{
			"bufferView":19,
			"componentType":5126,
			"count":45,
			"type":"VEC2"
		},
		{
			"bufferView":20,
			"componentType":5123,
			"count":102,
			"type":"SCALAR"
		},
		{
			"bufferView":21,
			"componentType":5126,
			"count":12,
			"max":[
				-2.9999890327453613,
				4.000003814697266,
				8.159996032714844
			],
			"min":[
				-2.999997138977051,
				-3.9999961853027344,
				7.463168621063232
			],
			"type":"VEC3"
		},
		{
			"bufferView":22,
			"componentType":5126,
			"count":12,
			"type":"VEC3"
		},
		{
			"bufferView":23,
			"componentType":5126,
			"count":12,
			"type":"VEC2"
		},
		{
			"bufferView":24,
			"componentType":5123,
			"count":18,
			"type":"SCALAR"
		}
	],
	"bufferViews":[
		{
			"buffer":0,
			"byteLength":576,
			"byteOffset":0,
			"target":34962
		},
		{
			"buffer":0,
			"byteLength":576,
			"byteOffset":576,
			"target":34962
		},
		{
			"buffer":0,
			"byteLength":384,
			"byteOffset":1152,
			"target":34962
		},
		{
			"buffer":0,
			"byteLength":228,
			"byteOffset":1536,
			"target":34963
		},
		{
			"buffer":0,
			"byteLength":252,
			"byteOffset":1764,
			"target":34962
		},
		{
			"buffer":0,
			"byteLength":252,
			"byteOffset":2016,
			"target":34962
		},
		{
			"buffer":0,
			"byteLength":168,
			"byteOffset":2268,
			"target":34962
		},
		{
			"buffer":0,
			"byteLength":66,
			"byteOffset":2436,
			"target":34963
		},
		{
			"buffer":0,
			"byteLength":432,
			"byteOffset":2504,
			"target":34962
		},
		{
			"buffer":0,
			"byteLength":432,
			"byteOffset":2936,
			"target":34962
		},
		{
			"buffer":0,
			"byteLength":288,
			"byteOffset":3368,
			"target":34962
		},
		{
			"buffer":0,
			"byteLength":120,
			"byteOffset":3656,
			"target":34963
		},
		{
			"buffer":0,
			"byteLength":96,
			"byteOffset":3776,
			"target":34962
		},
		{
			"buffer":0,
			"byteLength":96,
			"byteOffset":3872,
			"target":34962
		},
		{
			"buffer":0,
			"byteLength":64,
			"byteOffset":3968,
			"target":34962
		},
		{
			"buffer":0,
			"byteLength":128,
			"byteOffset":4032,
			"target":34962
		},
		{
			"buffer":0,
			"byteLength":24,
			"byteOffset":4160,
			"target":34963
		},
		{
			"buffer":0,
			"byteLength":540,
			"byteOffset":4184,
			"target":34962
		},
		{
			"buffer":0,
			"byteLength":540,
			"byteOffset":4724,
			"target":34962
		},
		{
			"buffer":0,
			"byteLength":360,
			"byteOffset":5264,
			"target":34962
		},
		{
			"buffer":0,
			"byteLength":204,
			"byteOffset":5624,
			"target":34963
		},
		{
			"buffer":0,
			"byteLength":144,
			"byteOffset":5828,
			"target":34962
		},
		{
			"buffer":0,
			"byteLength":144,
			"byteOffset":5972,
			"target":34962
		},
		{
			"buffer":0,
			"byteLength":96,
			"byteOffset":6116,
			"target":34962
		},
		{
			"buffer":0,
			"byteLength":36,
			"byteOffset":6212,
			"target":34963
		}
	],
	"samplers":[
		{
			"magFilter":9729,
			"minFilter":9987
		}
	],
	"buffers":[
		{
			"byteLength":6248,
			"uri":"tile_0_0_9.bin"
		}
	]
}
