{
	"asset":{
		"generator":"Khronos glTF Blender I/O v4.0.44",
		"version":"2.0"
	},
	"scene":0,
	"scenes":[
		{
			"name":"Scene",
			"nodes":[
				0,
				1,
				2,
				3,
				4,
				5
			]
		}
	],
	"nodes":[
		{
			"mesh":0,
			"name":"grindcurve.01_curve",
			"rotation":[
				0,
				-0.6427873969078064,
				0,
				0.7660446763038635
			]
		},
		{
			"mesh":1,
			"name":"ground"
		},
		{
			"mesh":2,
			"name":"decal.main",
			"rotation":[
				0,
				-0.7071068286895752,
				0.7071068286895752,
				3.4560699191388267e-07
			]
		},
		{
			"mesh":3,
			"name":"decal.circles",
			"scale":[
				3,
				3,
				3
			]
		},
		{
			"mesh":4,
			"name":"grindcurve.02",
			"rotation":[
				0,
				-0.6427873969078064,
				0,
				0.7660446763038635
			]
		},
		{
			"name":"grindcurve.004",
			"rotation":[
				0,
				-0.6427873969078064,
				0,
				0.7660446763038635
			]
		}
	],
	"materials":[
		{
			"doubleSided":true,
			"name":"dcl.PiratesPack",
			"pbrMetallicRoughness":{
				"baseColorTexture":{
					"index":0
				},
				"metallicFactor":0
			}
		},
		{
			"doubleSided":true,
			"emissiveFactor":[
				1,
				1,
				1
			],
			"emissiveTexture":{
				"index":1
			},
			"name":"dcl.PiratesPack.emissive",
			"pbrMetallicRoughness":{
				"baseColorTexture":{
					"index":2
				},
				"metallicFactor":0
			}
		}
	],
	"meshes":[
		{
			"name":"Cylinder.129",
			"primitives":[
				{
					"attributes":{
						"POSITION":0,
						"NORMAL":1,
						"TEXCOORD_0":2,
						"TANGENT":3
					},
					"indices":4
				}
			]
		},
		{
			"name":"Cube.146",
			"primitives":[
				{
					"attributes":{
						"POSITION":5,
						"NORMAL":6,
						"TEXCOORD_0":7
					},
					"indices":8,
					"material":0
				}
			]
		},
		{
			"name":"Cylinder.130",
			"primitives":[
				{
					"attributes":{
						"POSITION":9,
						"NORMAL":10,
						"TEXCOORD_0":11,
						"TANGENT":12
					},
					"indices":13,
					"material":1
				}
			]
		},
		{
			"name":"Circle.005",
			"primitives":[
				{
					"attributes":{
						"POSITION":14,
						"NORMAL":15,
						"TEXCOORD_0":16
					},
					"indices":17,
					"material":1
				}
			]
		},
		{
			"name":"Cylinder.131",
			"primitives":[
				{
					"attributes":{
						"POSITION":18,
						"NORMAL":19,
						"TEXCOORD_0":20
					},
					"indices":21,
					"material":0
				}
			]
		}
	],
	"textures":[
		{
			"sampler":0,
			"source":0
		},
		{
			"sampler":0,
			"source":0
		},
		{
			"sampler":0,
			"source":0
		}
	],
	"images":[
		{
			"mimeType":"image/png",
			"name":"PiratesPack_TX",
			"uri":"tex/PiratesPack_TX.png"
		}
	],
	"accessors":[
		{
			"bufferView":0,
			"componentType":5126,
			"count":15,
			"max":[
				3.1035850048065186,
				-9.16647720336914,
				-3.3292994499206543
			],
			"min":[
				2.5706682205200195,
				-11.049999237060547,
				-3.608427047729492
			],
			"type":"VEC3"
		},
		{
			"bufferView":1,
			"componentType":5126,
			"count":15,
			"type":"VEC3"
		},
		{
			"bufferView":2,
			"componentType":5126,
			"count":15,
			"type":"VEC2"
		},
		{
			"bufferView":3,
			"componentType":5126,
			"count":15,
			"type":"VEC4"
		},
		{
			"bufferView":4,
			"componentType":5123,
			"count":21,
			"type":"SCALAR"
		},
		{
			"bufferView":5,
			"componentType":5126,
			"count":36,
			"max":[
				4,
				-10.65999984741211,
				4
			],
			"min":[
				-4,
				-10.899999618530273,
				-4
			],
			"type":"VEC3"
		},
		{
			"bufferView":6,
			"componentType":5126,
			"count":36,
			"type":"VEC3"
		},
		{
			"bufferView":7,
			"componentType":5126,
			"count":36,
			"type":"VEC2"
		},
		{
			"bufferView":8,
			"componentType":5123,
			"count":60,
			"type":"SCALAR"
		},
		{
			"bufferView":9,
			"componentType":5126,
			"count":8,
			"max":[
				4.000034332275391,
				2.0000686645507812,
				10.640000343322754
			],
			"min":[
				-3.9999656677246094,
				-3.4999313354492188,
				10.625000953674316
			],
			"type":"VEC3"
		},
		{
			"bufferView":10,
			"componentType":5126,
			"count":8,
			"type":"VEC3"
		},
		{
			"bufferView":11,
			"componentType":5126,
			"count":8,
			"type":"VEC2"
		},
		{
			"bufferView":12,
			"componentType":5126,
			"count":8,
			"type":"VEC4"
		},
		{
			"bufferView":13,
			"componentType":5123,
			"count":12,
			"type":"SCALAR"
		},
		{
			"bufferView":14,
			"componentType":5126,
			"count":7,
			"max":[
				0.8786865472793579,
				-3.5333335399627686,
				1.3333334922790527
			],
			"min":[
				-0.7745711803436279,
				-3.5333335399627686,
				0.8615627288818359
			],
			"type":"VEC3"
		},
		{
			"bufferView":15,
			"componentType":5126,
			"count":7,
			"type":"VEC3"
		},
		{
			"bufferView":16,
			"componentType":5126,
			"count":7,
			"type":"VEC2"
		},
		{
			"bufferView":17,
			"componentType":5123,
			"count":15,
			"type":"SCALAR"
		},
		{
			"bufferView":18,
			"componentType":5126,
			"count":35,
			"max":[
				3.1035850048065186,
				-8.816476821899414,
				-3.3292994499206543
			],
			"min":[
				2.5706682205200195,
				-10.69999885559082,
				-3.608427047729492
			],
			"type":"VEC3"
		},
		{
			"bufferView":19,
			"componentType":5126,
			"count":35,
			"type":"VEC3"
		},
		{
			"bufferView":20,
			"componentType":5126,
			"count":35,
			"type":"VEC2"
		},
		{
			"bufferView":21,
			"componentType":5123,
			"count":57,
			"type":"SCALAR"
		}
	],
	"bufferViews":[
		{
			"buffer":0,
			"byteLength":180,
			"byteOffset":0,
			"target":34962
		},
		{
			"buffer":0,
			"byteLength":180,
			"byteOffset":180,
			"target":34962
		},
		{
			"buffer":0,
			"byteLength":120,
			"byteOffset":360,
			"target":34962
		},
		{
			"buffer":0,
			"byteLength":240,
			"byteOffset":480,
			"target":34962
		},
		{
			"buffer":0,
			"byteLength":42,
			"byteOffset":720,
			"target":34963
		},
		{
			"buffer":0,
			"byteLength":432,
			"byteOffset":764,
			"target":34962
		},
		{
			"buffer":0,
			"byteLength":432,
			"byteOffset":1196,
			"target":34962
		},
		{
			"buffer":0,
			"byteLength":288,
			"byteOffset":1628,
			"target":34962
		},
		{
			"buffer":0,
			"byteLength":120,
			"byteOffset":1916,
			"target":34963
		},
		{
			"buffer":0,
			"byteLength":96,
			"byteOffset":2036,
			"target":34962
		},
		{
			"buffer":0,
			"byteLength":96,
			"byteOffset":2132,
			"target":34962
		},
		{
			"buffer":0,
			"byteLength":64,
			"byteOffset":2228,
			"target":34962
		},
		{
			"buffer":0,
			"byteLength":128,
			"byteOffset":2292,
			"target":34962
		},
		{
			"buffer":0,
			"byteLength":24,
			"byteOffset":2420,
			"target":34963
		},
		{
			"buffer":0,
			"byteLength":84,
			"byteOffset":2444,
			"target":34962
		},
		{
			"buffer":0,
			"byteLength":84,
			"byteOffset":2528,
			"target":34962
		},
		{
			"buffer":0,
			"byteLength":56,
			"byteOffset":2612,
			"target":34962
		},
		{
			"buffer":0,
			"byteLength":30,
			"byteOffset":2668,
			"target":34963
		},
		{
			"buffer":0,
			"byteLength":420,
			"byteOffset":2700,
			"target":34962
		},
		{
			"buffer":0,
			"byteLength":420,
			"byteOffset":3120,
			"target":34962
		},
		{
			"buffer":0,
			"byteLength":280,
			"byteOffset":3540,
			"target":34962
		},
		{
			"buffer":0,
			"byteLength":114,
			"byteOffset":3820,
			"target":34963
		}
	],
	"samplers":[
		{
			"magFilter":9729,
			"minFilter":9987
		}
	],
	"buffers":[
		{
			"byteLength":3936,
			"uri":"tile_2_0_10.bin"
		}
	]
}
