{
	"asset":{
		"generator":"Khronos glTF Blender I/O v4.0.44",
		"version":"2.0"
	},
	"scene":0,
	"scenes":[
		{
			"name":"Scene",
			"nodes":[
				0,
				1,
				2,
				3,
				4
			]
		}
	],
	"nodes":[
		{
			"mesh":0,
			"name":"pipe.west_collider",
			"rotation":[
				0,
				-0.7071068286895752,
				0.7071068286895752,
				3.4560699191388267e-07
			]
		},
		{
			"mesh":1,
			"name":"wall.north.001"
		},
		{
			"mesh":2,
			"name":"ground"
		},
		{
			"mesh":3,
			"name":"neons.004",
			"rotation":[
				-0.5000002384185791,
				0.5000001788139343,
				-0.4999997615814209,
				0.4999998211860657
			],
			"scale":[
				0.19999998807907104,
				1,
				47.68861770629883
			]
		},
		{
			"mesh":4,
			"name":"pipe.west.001",
			"rotation":[
				0,
				-0.7071068286895752,
				0.7071068286895752,
				3.4560699191388267e-07
			]
		}
	],
	"materials":[
		{
			"doubleSided":true,
			"name":"dcl.PiratesPack",
			"pbrMetallicRoughness":{
				"baseColorTexture":{
					"index":0
				},
				"metallicFactor":0
			}
		},
		{
			"doubleSided":true,
			"emissiveFactor":[
				1,
				1,
				1
			],
			"emissiveTexture":{
				"index":1
			},
			"name":"dcl.PiratesPack.emissive",
			"pbrMetallicRoughness":{
				"baseColorTexture":{
					"index":2
				},
				"metallicFactor":0
			}
		}
	],
	"meshes":[
		{
			"name":"Cylinder.107",
			"primitives":[
				{
					"attributes":{
						"POSITION":0,
						"NORMAL":1,
						"TEXCOORD_0":2,
						"TANGENT":3
					},
					"indices":4
				}
			]
		},
		{
			"name":"Cylinder.108",
			"primitives":[
				{
					"attributes":{
						"POSITION":5,
						"NORMAL":6,
						"TEXCOORD_0":7,
						"TANGENT":8
					},
					"indices":9,
					"material":0
				}
			]
		},
		{
			"name":"Cube.104",
			"primitives":[
				{
					"attributes":{
						"POSITION":10,
						"NORMAL":11,
						"TEXCOORD_0":12
					},
					"indices":13,
					"material":0
				}
			]
		},
		{
			"name":"Plane.020",
			"primitives":[
				{
					"attributes":{
						"POSITION":14,
						"NORMAL":15,
						"TEXCOORD_0":16,
						"TANGENT":17
					},
					"indices":18,
					"material":1
				}
			]
		},
		{
			"name":"Cylinder.109",
			"primitives":[
				{
					"attributes":{
						"POSITION":19,
						"NORMAL":20,
						"TEXCOORD_0":21,
						"TANGENT":22
					},
					"indices":23,
					"material":0
				},
				{
					"attributes":{
						"POSITION":24,
						"NORMAL":25,
						"TEXCOORD_0":26,
						"TANGENT":27
					},
					"indices":28,
					"material":1
				}
			]
		}
	],
	"textures":[
		{
			"sampler":0,
			"source":0
		},
		{
			"sampler":0,
			"source":0
		},
		{
			"sampler":0,
			"source":0
		}
	],
	"images":[
		{
			"mimeType":"image/png",
			"name":"PiratesPack_TX",
			"uri":"tex/PiratesPack_TX.png"
		}
	],
	"accessors":[
		{
			"bufferView":0,
			"componentType":5126,
			"count":7,
			"max":[
				4.000042915344238,
				3.814697265625e-06,
				10.659997940063477
			],
			"min":[
				2.500004768371582,
				-3.999988555908203,
				10.350954055786133
			],
			"type":"VEC3"
		},
		{
			"bufferView":1,
			"componentType":5126,
			"count":7,
			"type":"VEC3"
		},
		{
			"bufferView":2,
			"componentType":5126,
			"count":7,
			"type":"VEC2"
		},
		{
			"bufferView":3,
			"componentType":5126,
			"count":7,
			"type":"VEC4"
		},
		{
			"bufferView":4,
			"componentType":5123,
			"count":15,
			"type":"SCALAR"
		},
		{
			"bufferView":5,
			"componentType":5126,
			"count":24,
			"max":[
				4,
				1.6000041961669922,
				9.47713851928711e-06
			],
			"min":[
				-4,
				-10.899999618530273,
				-0.999984860420227
			],
			"type":"VEC3"
		},
		{
			"bufferView":6,
			"componentType":5126,
			"count":24,
			"type":"VEC3"
		},
		{
			"bufferView":7,
			"componentType":5126,
			"count":24,
			"type":"VEC2"
		},
		{
			"bufferView":8,
			"componentType":5126,
			"count":24,
			"type":"VEC4"
		},
		{
			"bufferView":9,
			"componentType":5123,
			"count":36,
			"type":"SCALAR"
		},
		{
			"bufferView":10,
			"componentType":5126,
			"count":36,
			"max":[
				4,
				-10.65999984741211,
				4
			],
			"min":[
				-4,
				-10.899999618530273,
				-0.9999923706054688
			],
			"type":"VEC3"
		},
		{
			"bufferView":11,
			"componentType":5126,
			"count":36,
			"type":"VEC3"
		},
		{
			"bufferView":12,
			"componentType":5126,
			"count":36,
			"type":"VEC2"
		},
		{
			"bufferView":13,
			"componentType":5123,
			"count":60,
			"type":"SCALAR"
		},
		{
			"bufferView":14,
			"componentType":5126,
			"count":8,
			"max":[
				13.374995231628418,
				-0.050015538930892944,
				0.08387738466262817
			],
			"min":[
				6.374994277954102,
				-0.05001704767346382,
				-0.08387750387191772
			],
			"type":"VEC3"
		},
		{
			"bufferView":15,
			"componentType":5126,
			"count":8,
			"type":"VEC3"
		},
		{
			"bufferView":16,
			"componentType":5126,
			"count":8,
			"type":"VEC2"
		},
		{
			"bufferView":17,
			"componentType":5126,
			"count":8,
			"type":"VEC4"
		},
		{
			"bufferView":18,
			"componentType":5123,
			"count":12,
			"type":"SCALAR"
		},
		{
			"bufferView":19,
			"componentType":5126,
			"count":6,
			"max":[
				4.000042915344238,
				7.62939453125e-06,
				10.630559921264648
			],
			"min":[
				3.132687568664551,
				-3.999988555908203,
				10.350954055786133
			],
			"type":"VEC3"
		},
		{
			"bufferView":20,
			"componentType":5126,
			"count":6,
			"type":"VEC3"
		},
		{
			"bufferView":21,
			"componentType":5126,
			"count":6,
			"type":"VEC2"
		},
		{
			"bufferView":22,
			"componentType":5126,
			"count":6,
			"type":"VEC4"
		},
		{
			"bufferView":23,
			"componentType":5123,
			"count":12,
			"type":"SCALAR"
		},
		{
			"bufferView":24,
			"componentType":5126,
			"count":4,
			"max":[
				3.1326911449432373,
				7.62939453125e-06,
				10.659997940063477
			],
			"min":[
				2.500004768371582,
				-3.999988555908203,
				10.630559921264648
			],
			"type":"VEC3"
		},
		{
			"bufferView":25,
			"componentType":5126,
			"count":4,
			"type":"VEC3"
		},
		{
			"bufferView":26,
			"componentType":5126,
			"count":4,
			"type":"VEC2"
		},
		{
			"bufferView":27,
			"componentType":5126,
			"count":4,
			"type":"VEC4"
		},
		{
			"bufferView":28,
			"componentType":5123,
			"count":6,
			"type":"SCALAR"
		}
	],
	"bufferViews":[
		{
			"buffer":0,
			"byteLength":84,
			"byteOffset":0,
			"target":34962
		},
		{
			"buffer":0,
			"byteLength":84,
			"byteOffset":84,
			"target":34962
		},
		{
			"buffer":0,
			"byteLength":56,
			"byteOffset":168,
			"target":34962
		},
		{
			"buffer":0,
			"byteLength":112,
			"byteOffset":224,
			"target":34962
		},
		{
			"buffer":0,
			"byteLength":30,
			"byteOffset":336,
			"target":34963
		},
		{
			"buffer":0,
			"byteLength":288,
			"byteOffset":368,
			"target":34962
		},
		{
			"buffer":0,
			"byteLength":288,
			"byteOffset":656,
			"target":34962
		},
		{
			"buffer":0,
			"byteLength":192,
			"byteOffset":944,
			"target":34962
		},
		{
			"buffer":0,
			"byteLength":384,
			"byteOffset":1136,
			"target":34962
		},
		{
			"buffer":0,
			"byteLength":72,
			"byteOffset":1520,
			"target":34963
		},
		{
			"buffer":0,
			"byteLength":432,
			"byteOffset":1592,
			"target":34962
		},
		{
			"buffer":0,
			"byteLength":432,
			"byteOffset":2024,
			"target":34962
		},
		{
			"buffer":0,
			"byteLength":288,
			"byteOffset":2456,
			"target":34962
		},
		{
			"buffer":0,
			"byteLength":120,
			"byteOffset":2744,
			"target":34963
		},
		{
			"buffer":0,
			"byteLength":96,
			"byteOffset":2864,
			"target":34962
		},
		{
			"buffer":0,
			"byteLength":96,
			"byteOffset":2960,
			"target":34962
		},
		{
			"buffer":0,
			"byteLength":64,
			"byteOffset":3056,
			"target":34962
		},
		{
			"buffer":0,
			"byteLength":128,
			"byteOffset":3120,
			"target":34962
		},
		{
			"buffer":0,
			"byteLength":24,
			"byteOffset":3248,
			"target":34963
		},
		{
			"buffer":0,
			"byteLength":72,
			"byteOffset":3272,
			"target":34962
		},
		{
			"buffer":0,
			"byteLength":72,
			"byteOffset":3344,
			"target":34962
		},
		{
			"buffer":0,
			"byteLength":48,
			"byteOffset":3416,
			"target":34962
		},
		{
			"buffer":0,
			"byteLength":96,
			"byteOffset":3464,
			"target":34962
		},
		{
			"buffer":0,
			"byteLength":24,
			"byteOffset":3560,
			"target":34963
		},
		{
			"buffer":0,
			"byteLength":48,
			"byteOffset":3584,
			"target":34962
		},
		{
			"buffer":0,
			"byteLength":48,
			"byteOffset":3632,
			"target":34962
		},
		{
			"buffer":0,
			"byteLength":32,
			"byteOffset":3680,
			"target":34962
		},
		{
			"buffer":0,
			"byteLength":64,
			"byteOffset":3712,
			"target":34962
		},
		{
			"buffer":0,
			"byteLength":12,
			"byteOffset":3776,
			"target":34963
		}
	],
	"samplers":[
		{
			"magFilter":9729,
			"minFilter":9987
		}
	],
	"buffers":[
		{
			"byteLength":3788,
			"uri":"tile_1_0_11.bin"
		}
	]
}
