{
	"asset":{
		"generator":"Khronos glTF Blender I/O v4.0.44",
		"version":"2.0"
	},
	"scene":0,
	"scenes":[
		{
			"name":"Scene",
			"nodes":[
				0,
				1,
				2,
				3,
				4,
				5
			]
		}
	],
	"nodes":[
		{
			"mesh":0,
			"name":"pipe.main_collider",
			"rotation":[
				0.7071068286895752,
				0,
				0,
				0.7071068286895752
			]
		},
		{
			"mesh":1,
			"name":"wall.north.006"
		},
		{
			"mesh":2,
			"name":"ground"
		},
		{
			"mesh":3,
			"name":"neons.004",
			"rotation":[
				-0.5000002384185791,
				0.5000001788139343,
				-0.4999997615814209,
				0.4999998211860657
			],
			"scale":[
				0.19999998807907104,
				1,
				47.68861770629883
			]
		},
		{
			"mesh":4,
			"name":"pipe.main",
			"rotation":[
				0.7071068286895752,
				0,
				0,
				0.7071068286895752
			],
			"scale":[
				2,
				2,
				2
			]
		},
		{
			"mesh":5,
			"name":"pipe.main.rim",
			"rotation":[
				0.7071068286895752,
				0,
				0,
				0.7071068286895752
			],
			"scale":[
				2,
				2,
				2
			]
		}
	],
	"materials":[
		{
			"doubleSided":true,
			"name":"dcl.PiratesPack",
			"pbrMetallicRoughness":{
				"baseColorTexture":{
					"index":0
				},
				"metallicFactor":0
			}
		},
		{
			"doubleSided":true,
			"emissiveFactor":[
				1,
				1,
				1
			],
			"emissiveTexture":{
				"index":1
			},
			"name":"dcl.PiratesPack.emissive",
			"pbrMetallicRoughness":{
				"baseColorTexture":{
					"index":2
				},
				"metallicFactor":0
			}
		}
	],
	"meshes":[
		{
			"name":"Cylinder.298",
			"primitives":[
				{
					"attributes":{
						"POSITION":0,
						"NORMAL":1,
						"TEXCOORD_0":2
					},
					"indices":3
				}
			]
		},
		{
			"name":"Cylinder.299",
			"primitives":[
				{
					"attributes":{
						"POSITION":4,
						"NORMAL":5,
						"TEXCOORD_0":6
					},
					"indices":7,
					"material":0
				}
			]
		},
		{
			"name":"Cube.330",
			"primitives":[
				{
					"attributes":{
						"POSITION":8,
						"NORMAL":9,
						"TEXCOORD_0":10
					},
					"indices":11,
					"material":0
				}
			]
		},
		{
			"name":"Plane.032",
			"primitives":[
				{
					"attributes":{
						"POSITION":12,
						"NORMAL":13,
						"TEXCOORD_0":14,
						"TANGENT":15
					},
					"indices":16,
					"material":1
				}
			]
		},
		{
			"name":"Cylinder.300",
			"primitives":[
				{
					"attributes":{
						"POSITION":17,
						"NORMAL":18,
						"TEXCOORD_0":19
					},
					"indices":20,
					"material":0
				}
			]
		},
		{
			"name":"Cylinder.301",
			"primitives":[
				{
					"attributes":{
						"POSITION":21,
						"NORMAL":22,
						"TEXCOORD_0":23,
						"TANGENT":24
					},
					"indices":25,
					"material":0
				}
			]
		}
	],
	"textures":[
		{
			"sampler":0,
			"source":0
		},
		{
			"sampler":0,
			"source":0
		},
		{
			"sampler":0,
			"source":0
		}
	],
	"images":[
		{
			"mimeType":"image/png",
			"name":"PiratesPack_TX",
			"uri":"tex/PiratesPack_TX.png"
		}
	],
	"accessors":[
		{
			"bufferView":0,
			"componentType":5126,
			"count":81,
			"max":[
				3.999969482421875,
				4.0000152587890625,
				14.999998092651367
			],
			"min":[
				-4.000030517578125,
				-2.6702880859375e-05,
				7.649999618530273
			],
			"type":"VEC3"
		},
		{
			"bufferView":1,
			"componentType":5126,
			"count":81,
			"type":"VEC3"
		},
		{
			"bufferView":2,
			"componentType":5126,
			"count":81,
			"type":"VEC2"
		},
		{
			"bufferView":3,
			"componentType":5123,
			"count":156,
			"type":"SCALAR"
		},
		{
			"bufferView":4,
			"componentType":5126,
			"count":46,
			"max":[
				4,
				1.6000041961669922,
				-1.0192394256591797e-05
			],
			"min":[
				-4,
				-10.899999618530273,
				-1.0000081062316895
			],
			"type":"VEC3"
		},
		{
			"bufferView":5,
			"componentType":5126,
			"count":46,
			"type":"VEC3"
		},
		{
			"bufferView":6,
			"componentType":5126,
			"count":46,
			"type":"VEC2"
		},
		{
			"bufferView":7,
			"componentType":5123,
			"count":96,
			"type":"SCALAR"
		},
		{
			"bufferView":8,
			"componentType":5126,
			"count":36,
			"max":[
				4,
				-10.65999984741211,
				4
			],
			"min":[
				-4,
				-10.899999618530273,
				-0.9999885559082031
			],
			"type":"VEC3"
		},
		{
			"bufferView":9,
			"componentType":5126,
			"count":36,
			"type":"VEC3"
		},
		{
			"bufferView":10,
			"componentType":5126,
			"count":36,
			"type":"VEC2"
		},
		{
			"bufferView":11,
			"componentType":5123,
			"count":60,
			"type":"SCALAR"
		},
		{
			"bufferView":12,
			"componentType":5126,
			"count":8,
			"max":[
				13.374984741210938,
				-0.04996370151638985,
				0.08387747406959534
			],
			"min":[
				6.3749847412109375,
				-0.04996529966592789,
				-0.06156091392040253
			],
			"type":"VEC3"
		},
		{
			"bufferView":13,
			"componentType":5126,
			"count":8,
			"type":"VEC3"
		},
		{
			"bufferView":14,
			"componentType":5126,
			"count":8,
			"type":"VEC2"
		},
		{
			"bufferView":15,
			"componentType":5126,
			"count":8,
			"type":"VEC4"
		},
		{
			"bufferView":16,
			"componentType":5123,
			"count":12,
			"type":"SCALAR"
		},
		{
			"bufferView":17,
			"componentType":5126,
			"count":57,
			"max":[
				2,
				2.000001907348633,
				5.325000286102295
			],
			"min":[
				-2.0000009536743164,
				-1.33514404296875e-05,
				3.8249998092651367
			],
			"type":"VEC3"
		},
		{
			"bufferView":18,
			"componentType":5126,
			"count":57,
			"type":"VEC3"
		},
		{
			"bufferView":19,
			"componentType":5126,
			"count":57,
			"type":"VEC2"
		},
		{
			"bufferView":20,
			"componentType":5123,
			"count":132,
			"type":"SCALAR"
		},
		{
			"bufferView":21,
			"componentType":5126,
			"count":40,
			"max":[
				1.9999990463256836,
				1.6760063171386719,
				3.8693740367889404
			],
			"min":[
				-2.0000009536743164,
				1.4556026458740234,
				3.780625581741333
			],
			"type":"VEC3"
		},
		{
			"bufferView":22,
			"componentType":5126,
			"count":40,
			"type":"VEC3"
		},
		{
			"bufferView":23,
			"componentType":5126,
			"count":40,
			"type":"VEC2"
		},
		{
			"bufferView":24,
			"componentType":5126,
			"count":40,
			"type":"VEC4"
		},
		{
			"bufferView":25,
			"componentType":5123,
			"count":60,
			"type":"SCALAR"
		}
	],
	"bufferViews":[
		{
			"buffer":0,
			"byteLength":972,
			"byteOffset":0,
			"target":34962
		},
		{
			"buffer":0,
			"byteLength":972,
			"byteOffset":972,
			"target":34962
		},
		{
			"buffer":0,
			"byteLength":648,
			"byteOffset":1944,
			"target":34962
		},
		{
			"buffer":0,
			"byteLength":312,
			"byteOffset":2592,
			"target":34963
		},
		{
			"buffer":0,
			"byteLength":552,
			"byteOffset":2904,
			"target":34962
		},
		{
			"buffer":0,
			"byteLength":552,
			"byteOffset":3456,
			"target":34962
		},
		{
			"buffer":0,
			"byteLength":368,
			"byteOffset":4008,
			"target":34962
		},
		{
			"buffer":0,
			"byteLength":192,
			"byteOffset":4376,
			"target":34963
		},
		{
			"buffer":0,
			"byteLength":432,
			"byteOffset":4568,
			"target":34962
		},
		{
			"buffer":0,
			"byteLength":432,
			"byteOffset":5000,
			"target":34962
		},
		{
			"buffer":0,
			"byteLength":288,
			"byteOffset":5432,
			"target":34962
		},
		{
			"buffer":0,
			"byteLength":120,
			"byteOffset":5720,
			"target":34963
		},
		{
			"buffer":0,
			"byteLength":96,
			"byteOffset":5840,
			"target":34962
		},
		{
			"buffer":0,
			"byteLength":96,
			"byteOffset":5936,
			"target":34962
		},
		{
			"buffer":0,
			"byteLength":64,
			"byteOffset":6032,
			"target":34962
		},
		{
			"buffer":0,
			"byteLength":128,
			"byteOffset":6096,
			"target":34962
		},
		{
			"buffer":0,
			"byteLength":24,
			"byteOffset":6224,
			"target":34963
		},
		{
			"buffer":0,
			"byteLength":684,
			"byteOffset":6248,
			"target":34962
		},
		{
			"buffer":0,
			"byteLength":684,
			"byteOffset":6932,
			"target":34962
		},
		{
			"buffer":0,
			"byteLength":456,
			"byteOffset":7616,
			"target":34962
		},
		{
			"buffer":0,
			"byteLength":264,
			"byteOffset":8072,
			"target":34963
		},
		{
			"buffer":0,
			"byteLength":480,
			"byteOffset":8336,
			"target":34962
		},
		{
			"buffer":0,
			"byteLength":480,
			"byteOffset":8816,
			"target":34962
		},
		{
			"buffer":0,
			"byteLength":320,
			"byteOffset":9296,
			"target":34962
		},
		{
			"buffer":0,
			"byteLength":640,
			"byteOffset":9616,
			"target":34962
		},
		{
			"buffer":0,
			"byteLength":120,
			"byteOffset":10256,
			"target":34963
		}
	],
	"samplers":[
		{
			"magFilter":9729,
			"minFilter":9987
		}
	],
	"buffers":[
		{
			"byteLength":10376,
			"uri":"tile_7_0_11.bin"
		}
	]
}
