{
	"asset":{
		"generator":"Khronos glTF Blender I/O v4.0.44",
		"version":"2.0"
	},
	"scene":0,
	"scenes":[
		{
			"name":"Scene",
			"nodes":[
				0,
				1,
				2,
				3,
				4,
				5
			]
		}
	],
	"nodes":[
		{
			"mesh":0,
			"name":"grindcurve.01_collider",
			"rotation":[
				0,
				-0.6427873969078064,
				0,
				0.7660446763038635
			]
		},
		{
			"mesh":1,
			"name":"ground"
		},
		{
			"name":"decal.main",
			"rotation":[
				0,
				-0.7071068286895752,
				0.7071068286895752,
				3.4560699191388267e-07
			]
		},
		{
			"mesh":2,
			"name":"decal.circles",
			"scale":[
				3,
				3,
				3
			]
		},
		{
			"mesh":3,
			"name":"grindcurve.01",
			"rotation":[
				0,
				0.7660448551177979,
				0,
				0.6427870988845825
			]
		},
		{
			"mesh":4,
			"name":"grindcurve.003",
			"rotation":[
				0,
				0.7660448551177979,
				0,
				0.6427870988845825
			]
		}
	],
	"materials":[
		{
			"doubleSided":true,
			"name":"dcl.PiratesPack",
			"pbrMetallicRoughness":{
				"baseColorTexture":{
					"index":0
				},
				"metallicFactor":0
			}
		},
		{
			"doubleSided":true,
			"emissiveFactor":[
				1,
				1,
				1
			],
			"emissiveTexture":{
				"index":1
			},
			"name":"dcl.PiratesPack.emissive",
			"pbrMetallicRoughness":{
				"baseColorTexture":{
					"index":2
				},
				"metallicFactor":0
			}
		}
	],
	"meshes":[
		{
			"name":"Cylinder.144",
			"primitives":[
				{
					"attributes":{
						"POSITION":0,
						"NORMAL":1,
						"TEXCOORD_0":2
					},
					"indices":3
				}
			]
		},
		{
			"name":"Cube.184",
			"primitives":[
				{
					"attributes":{
						"POSITION":4,
						"NORMAL":5,
						"TEXCOORD_0":6,
						"TANGENT":7
					},
					"indices":8,
					"material":0
				}
			]
		},
		{
			"name":"Circle.007",
			"primitives":[
				{
					"attributes":{
						"POSITION":9,
						"NORMAL":10,
						"TEXCOORD_0":11
					},
					"indices":12,
					"material":1
				}
			]
		},
		{
			"name":"Cylinder.146",
			"primitives":[
				{
					"attributes":{
						"POSITION":13,
						"NORMAL":14,
						"TEXCOORD_0":15
					},
					"indices":16,
					"material":0
				}
			]
		},
		{
			"name":"grindcurve.009",
			"primitives":[
				{
					"attributes":{
						"POSITION":17,
						"NORMAL":18,
						"TEXCOORD_0":19,
						"TANGENT":20
					},
					"indices":21,
					"material":0
				}
			]
		}
	],
	"textures":[
		{
			"sampler":0,
			"source":0
		},
		{
			"sampler":0,
			"source":0
		},
		{
			"sampler":0,
			"source":0
		}
	],
	"images":[
		{
			"mimeType":"image/png",
			"name":"PiratesPack_TX",
			"uri":"tex/PiratesPack_TX.png"
		}
	],
	"accessors":[
		{
			"bufferView":0,
			"componentType":5126,
			"count":54,
			"max":[
				4.633833408355713,
				-8.5,
				-1.6440539360046387
			],
			"min":[
				-2.648747444152832,
				-15,
				-4.434935092926025
			],
			"type":"VEC3"
		},
		{
			"bufferView":1,
			"componentType":5126,
			"count":54,
			"type":"VEC3"
		},
		{
			"bufferView":2,
			"componentType":5126,
			"count":54,
			"type":"VEC2"
		},
		{
			"bufferView":3,
			"componentType":5123,
			"count":117,
			"type":"SCALAR"
		},
		{
			"bufferView":4,
			"componentType":5126,
			"count":24,
			"max":[
				4,
				-10.65999984741211,
				4
			],
			"min":[
				-4,
				-10.899999618530273,
				-4
			],
			"type":"VEC3"
		},
		{
			"bufferView":5,
			"componentType":5126,
			"count":24,
			"type":"VEC3"
		},
		{
			"bufferView":6,
			"componentType":5126,
			"count":24,
			"type":"VEC2"
		},
		{
			"bufferView":7,
			"componentType":5126,
			"count":24,
			"type":"VEC4"
		},
		{
			"bufferView":8,
			"componentType":5123,
			"count":36,
			"type":"SCALAR"
		},
		{
			"bufferView":9,
			"componentType":5126,
			"count":18,
			"max":[
				0.28287315368652344,
				-3.5366671085357666,
				1.3333314657211304
			],
			"min":[
				-1.3333333730697632,
				-3.544491767883301,
				-1.1655155420303345
			],
			"type":"VEC3"
		},
		{
			"bufferView":10,
			"componentType":5126,
			"count":18,
			"type":"VEC3"
		},
		{
			"bufferView":11,
			"componentType":5126,
			"count":18,
			"type":"VEC2"
		},
		{
			"bufferView":12,
			"componentType":5123,
			"count":36,
			"type":"SCALAR"
		},
		{
			"bufferView":13,
			"componentType":5126,
			"count":102,
			"max":[
				3.2446327209472656,
				-8.149999618530273,
				4.6338276863098145
			],
			"min":[
				-4.6338276863098145,
				-15,
				1.6440544128417969
			],
			"type":"VEC3"
		},
		{
			"bufferView":14,
			"componentType":5126,
			"count":102,
			"type":"VEC3"
		},
		{
			"bufferView":15,
			"componentType":5126,
			"count":102,
			"type":"VEC2"
		},
		{
			"bufferView":16,
			"componentType":5123,
			"count":228,
			"type":"SCALAR"
		},
		{
			"bufferView":17,
			"componentType":5126,
			"count":24,
			"max":[
				2.737093925476074,
				-8.029841423034668,
				4.477071285247803
			],
			"min":[
				1.8779945373535156,
				-8.329841613769531,
				4.008819103240967
			],
			"type":"VEC3"
		},
		{
			"bufferView":18,
			"componentType":5126,
			"count":24,
			"type":"VEC3"
		},
		{
			"bufferView":19,
			"componentType":5126,
			"count":24,
			"type":"VEC2"
		},
		{
			"bufferView":20,
			"componentType":5126,
			"count":24,
			"type":"VEC4"
		},
		{
			"bufferView":21,
			"componentType":5123,
			"count":36,
			"type":"SCALAR"
		}
	],
	"bufferViews":[
		{
			"buffer":0,
			"byteLength":648,
			"byteOffset":0,
			"target":34962
		},
		{
			"buffer":0,
			"byteLength":648,
			"byteOffset":648,
			"target":34962
		},
		{
			"buffer":0,
			"byteLength":432,
			"byteOffset":1296,
			"target":34962
		},
		{
			"buffer":0,
			"byteLength":234,
			"byteOffset":1728,
			"target":34963
		},
		{
			"buffer":0,
			"byteLength":288,
			"byteOffset":1964,
			"target":34962
		},
		{
			"buffer":0,
			"byteLength":288,
			"byteOffset":2252,
			"target":34962
		},
		{
			"buffer":0,
			"byteLength":192,
			"byteOffset":2540,
			"target":34962
		},
		{
			"buffer":0,
			"byteLength":384,
			"byteOffset":2732,
			"target":34962
		},
		{
			"buffer":0,
			"byteLength":72,
			"byteOffset":3116,
			"target":34963
		},
		{
			"buffer":0,
			"byteLength":216,
			"byteOffset":3188,
			"target":34962
		},
		{
			"buffer":0,
			"byteLength":216,
			"byteOffset":3404,
			"target":34962
		},
		{
			"buffer":0,
			"byteLength":144,
			"byteOffset":3620,
			"target":34962
		},
		{
			"buffer":0,
			"byteLength":72,
			"byteOffset":3764,
			"target":34963
		},
		{
			"buffer":0,
			"byteLength":1224,
			"byteOffset":3836,
			"target":34962
		},
		{
			"buffer":0,
			"byteLength":1224,
			"byteOffset":5060,
			"target":34962
		},
		{
			"buffer":0,
			"byteLength":816,
			"byteOffset":6284,
			"target":34962
		},
		{
			"buffer":0,
			"byteLength":456,
			"byteOffset":7100,
			"target":34963
		},
		{
			"buffer":0,
			"byteLength":288,
			"byteOffset":7556,
			"target":34962
		},
		{
			"buffer":0,
			"byteLength":288,
			"byteOffset":7844,
			"target":34962
		},
		{
			"buffer":0,
			"byteLength":192,
			"byteOffset":8132,
			"target":34962
		},
		{
			"buffer":0,
			"byteLength":384,
			"byteOffset":8324,
			"target":34962
		},
		{
			"buffer":0,
			"byteLength":72,
			"byteOffset":8708,
			"target":34963
		}
	],
	"samplers":[
		{
			"magFilter":9729,
			"minFilter":9987
		}
	],
	"buffers":[
		{
			"byteLength":8780,
			"uri":"tile_3_0_8.bin"
		}
	]
}
