{
	"asset":{
		"generator":"Khronos glTF Blender I/O v4.0.44",
		"version":"2.0"
	},
	"scene":0,
	"scenes":[
		{
			"name":"Scene",
			"nodes":[
				0,
				1,
				2,
				3
			]
		}
	],
	"nodes":[
		{
			"mesh":0,
			"name":"pipe.main_collider",
			"rotation":[
				0.7071068286895752,
				0,
				0,
				0.7071068286895752
			]
		},
		{
			"mesh":1,
			"name":"ground"
		},
		{
			"mesh":2,
			"name":"pipe.main",
			"rotation":[
				0.7071068286895752,
				0,
				0,
				0.7071068286895752
			],
			"scale":[
				2,
				2,
				2
			]
		},
		{
			"mesh":3,
			"name":"pipe.main.rim",
			"rotation":[
				0.7071068286895752,
				0,
				0,
				0.7071068286895752
			],
			"scale":[
				2,
				2,
				2
			]
		}
	],
	"materials":[
		{
			"doubleSided":true,
			"name":"dcl.PiratesPack",
			"pbrMetallicRoughness":{
				"baseColorTexture":{
					"index":0
				},
				"metallicFactor":0
			}
		}
	],
	"meshes":[
		{
			"name":"Cylinder.373",
			"primitives":[
				{
					"attributes":{
						"POSITION":0,
						"NORMAL":1,
						"TEXCOORD_0":2
					},
					"indices":3
				}
			]
		},
		{
			"name":"Cube.353",
			"primitives":[
				{
					"attributes":{
						"POSITION":4,
						"NORMAL":5,
						"TEXCOORD_0":6,
						"TANGENT":7
					},
					"indices":8,
					"material":0
				}
			]
		},
		{
			"name":"Cylinder.374",
			"primitives":[
				{
					"attributes":{
						"POSITION":9,
						"NORMAL":10,
						"TEXCOORD_0":11
					},
					"indices":12,
					"material":0
				}
			]
		},
		{
			"name":"Cylinder.375",
			"primitives":[
				{
					"attributes":{
						"POSITION":13,
						"NORMAL":14,
						"TEXCOORD_0":15
					},
					"indices":16,
					"material":0
				}
			]
		}
	],
	"textures":[
		{
			"sampler":0,
			"source":0
		}
	],
	"images":[
		{
			"mimeType":"image/png",
			"name":"PiratesPack_TX",
			"uri":"tex/PiratesPack_TX.png"
		}
	],
	"accessors":[
		{
			"bufferView":0,
			"componentType":5126,
			"count":265,
			"max":[
				3.9999923706054688,
				4.000003814697266,
				10.649999618530273
			],
			"min":[
				-4.000007629394531,
				-4,
				7.649998664855957
			],
			"type":"VEC3"
		},
		{
			"bufferView":1,
			"componentType":5126,
			"count":265,
			"type":"VEC3"
		},
		{
			"bufferView":2,
			"componentType":5126,
			"count":265,
			"type":"VEC2"
		},
		{
			"bufferView":3,
			"componentType":5123,
			"count":411,
			"type":"SCALAR"
		},
		{
			"bufferView":4,
			"componentType":5126,
			"count":24,
			"max":[
				4,
				-10.65999984741211,
				4
			],
			"min":[
				-4,
				-10.899999618530273,
				-4
			],
			"type":"VEC3"
		},
		{
			"bufferView":5,
			"componentType":5126,
			"count":24,
			"type":"VEC3"
		},
		{
			"bufferView":6,
			"componentType":5126,
			"count":24,
			"type":"VEC2"
		},
		{
			"bufferView":7,
			"componentType":5126,
			"count":24,
			"type":"VEC4"
		},
		{
			"bufferView":8,
			"componentType":5123,
			"count":36,
			"type":"SCALAR"
		},
		{
			"bufferView":9,
			"componentType":5126,
			"count":226,
			"max":[
				2.0000011920928955,
				2.0000009536743164,
				7.499999046325684
			],
			"min":[
				-2.000000476837158,
				-2.000001907348633,
				3.824990749359131
			],
			"type":"VEC3"
		},
		{
			"bufferView":10,
			"componentType":5126,
			"count":226,
			"type":"VEC3"
		},
		{
			"bufferView":11,
			"componentType":5126,
			"count":226,
			"type":"VEC2"
		},
		{
			"bufferView":12,
			"componentType":5123,
			"count":642,
			"type":"SCALAR"
		},
		{
			"bufferView":13,
			"componentType":5126,
			"count":206,
			"max":[
				-1.2134671211242676,
				0.28930091857910156,
				3.8615310192108154
			],
			"min":[
				-2,
				-2.0000009536743164,
				3.666489362716675
			],
			"type":"VEC3"
		},
		{
			"bufferView":14,
			"componentType":5126,
			"count":206,
			"type":"VEC3"
		},
		{
			"bufferView":15,
			"componentType":5126,
			"count":206,
			"type":"VEC2"
		},
		{
			"bufferView":16,
			"componentType":5123,
			"count":324,
			"type":"SCALAR"
		}
	],
	"bufferViews":[
		{
			"buffer":0,
			"byteLength":3180,
			"byteOffset":0,
			"target":34962
		},
		{
			"buffer":0,
			"byteLength":3180,
			"byteOffset":3180,
			"target":34962
		},
		{
			"buffer":0,
			"byteLength":2120,
			"byteOffset":6360,
			"target":34962
		},
		{
			"buffer":0,
			"byteLength":822,
			"byteOffset":8480,
			"target":34963
		},
		{
			"buffer":0,
			"byteLength":288,
			"byteOffset":9304,
			"target":34962
		},
		{
			"buffer":0,
			"byteLength":288,
			"byteOffset":9592,
			"target":34962
		},
		{
			"buffer":0,
			"byteLength":192,
			"byteOffset":9880,
			"target":34962
		},
		{
			"buffer":0,
			"byteLength":384,
			"byteOffset":10072,
			"target":34962
		},
		{
			"buffer":0,
			"byteLength":72,
			"byteOffset":10456,
			"target":34963
		},
		{
			"buffer":0,
			"byteLength":2712,
			"byteOffset":10528,
			"target":34962
		},
		{
			"buffer":0,
			"byteLength":2712,
			"byteOffset":13240,
			"target":34962
		},
		{
			"buffer":0,
			"byteLength":1808,
			"byteOffset":15952,
			"target":34962
		},
		{
			"buffer":0,
			"byteLength":1284,
			"byteOffset":17760,
			"target":34963
		},
		{
			"buffer":0,
			"byteLength":2472,
			"byteOffset":19044,
			"target":34962
		},
		{
			"buffer":0,
			"byteLength":2472,
			"byteOffset":21516,
			"target":34962
		},
		{
			"buffer":0,
			"byteLength":1648,
			"byteOffset":23988,
			"target":34962
		},
		{
			"buffer":0,
			"byteLength":648,
			"byteOffset":25636,
			"target":34963
		}
	],
	"samplers":[
		{
			"magFilter":9729,
			"minFilter":9987
		}
	],
	"buffers":[
		{
			"byteLength":26284,
			"uri":"tile_9_0_7.bin"
		}
	]
}
