{
	"asset":{
		"generator":"Khronos glTF Blender I/O v4.0.44",
		"version":"2.0"
	},
	"scene":0,
	"scenes":[
		{
			"name":"Scene",
			"nodes":[
				0,
				1,
				2,
				3,
				4,
				5,
				6,
				7,
				8,
				9,
				10,
				11,
				12,
				13
			]
		}
	],
	"nodes":[
		{
			"mesh":0,
			"name":"pipe.main_collider",
			"rotation":[
				0.7071068286895752,
				0,
				0,
				0.7071068286895752
			]
		},
		{
			"mesh":1,
			"name":"sign.pillar.01_collider"
		},
		{
			"mesh":2,
			"name":"sign.beam._collider",
			"rotation":[
				0.7071068286895752,
				0,
				0,
				0.7071068286895752
			]
		},
		{
			"mesh":3,
			"name":"bigSign.board",
			"rotation":[
				0,
				-0.7071067094802856,
				0,
				0.7071068286895752
			],
			"scale":[
				0.6813910007476807,
				0.6813910007476807,
				0.6813910007476807
			]
		},
		{
			"mesh":4,
			"name":"ground"
		},
		{
			"mesh":5,
			"name":"wall.east.006"
		},
		{
			"mesh":6,
			"name":"bigSign.pillars",
			"rotation":[
				0,
				0.70710688829422,
				0,
				0.7071066498756409
			]
		},
		{
			"mesh":7,
			"name":"bigSign.beam",
			"rotation":[
				0,
				0.70710688829422,
				0,
				0.7071066498756409
			]
		},
		{
			"mesh":8,
			"name":"bigSign.text",
			"rotation":[
				0.5000001192092896,
				-0.49999985098838806,
				0.49999988079071045,
				0.5000001192092896
			],
			"scale":[
				9.438028335571289,
				8.741087913513184,
				10.611104011535645
			]
		},
		{
			"mesh":9,
			"name":"bigSign.zigzag",
			"rotation":[
				0,
				0.70710688829422,
				0,
				0.7071066498756409
			]
		},
		{
			"mesh":10,
			"name":"skateboard.trucks",
			"rotation":[
				-0.4999999403953552,
				0.5000001192092896,
				0.5000000596046448,
				0.49999991059303284
			],
			"scale":[
				0.6813910007476807,
				0.6813910007476807,
				0.6813910007476807
			]
		},
		{
			"mesh":11,
			"name":"neons.001",
			"rotation":[
				0,
				0,
				-0.7071068286895752,
				0.7071068286895752
			],
			"scale":[
				0.19999998807907104,
				1,
				44.15021896362305
			]
		},
		{
			"mesh":12,
			"name":"pipe.main",
			"rotation":[
				0.7071068286895752,
				0,
				0,
				0.7071068286895752
			],
			"scale":[
				2,
				2,
				2
			]
		},
		{
			"mesh":13,
			"name":"pipe.main.rim",
			"rotation":[
				0.7071068286895752,
				0,
				0,
				0.7071068286895752
			],
			"scale":[
				2,
				2,
				2
			]
		}
	],
	"materials":[
		{
			"doubleSided":true,
			"name":"dcl.PiratesPack",
			"pbrMetallicRoughness":{
				"baseColorTexture":{
					"index":0
				},
				"metallicFactor":0
			}
		},
		{
			"doubleSided":true,
			"emissiveFactor":[
				1,
				1,
				1
			],
			"emissiveTexture":{
				"index":1
			},
			"name":"dcl.PiratesPack.emissive",
			"pbrMetallicRoughness":{
				"baseColorTexture":{
					"index":2
				},
				"metallicFactor":0
			}
		}
	],
	"meshes":[
		{
			"name":"Cylinder.458",
			"primitives":[
				{
					"attributes":{
						"POSITION":0,
						"NORMAL":1,
						"TEXCOORD_0":2
					},
					"indices":3
				}
			]
		},
		{
			"name":"Cube.384",
			"primitives":[
				{
					"attributes":{
						"POSITION":4,
						"NORMAL":5,
						"TEXCOORD_0":6
					},
					"indices":7
				}
			]
		},
		{
			"name":"Cube.385",
			"primitives":[
				{
					"attributes":{
						"POSITION":8,
						"NORMAL":9,
						"TEXCOORD_0":10,
						"TANGENT":11
					},
					"indices":12
				}
			]
		},
		{
			"name":"Cube.386",
			"primitives":[
				{
					"attributes":{
						"POSITION":13,
						"NORMAL":14,
						"TEXCOORD_0":15
					},
					"indices":16,
					"material":0
				}
			]
		},
		{
			"name":"Cube.387",
			"primitives":[
				{
					"attributes":{
						"POSITION":17,
						"NORMAL":18,
						"TEXCOORD_0":19
					},
					"indices":20,
					"material":0
				}
			]
		},
		{
			"name":"Cylinder.459",
			"primitives":[
				{
					"attributes":{
						"POSITION":21,
						"NORMAL":22,
						"TEXCOORD_0":23,
						"TANGENT":24
					},
					"indices":25,
					"material":0
				}
			]
		},
		{
			"name":"Cylinder.460",
			"primitives":[
				{
					"attributes":{
						"POSITION":26,
						"NORMAL":27,
						"TEXCOORD_0":28
					},
					"indices":29,
					"material":0
				}
			]
		},
		{
			"name":"Cylinder.461",
			"primitives":[
				{
					"attributes":{
						"POSITION":30,
						"NORMAL":31,
						"TEXCOORD_0":32
					},
					"indices":33,
					"material":0
				}
			]
		},
		{
			"name":"Text.004",
			"primitives":[
				{
					"attributes":{
						"POSITION":34,
						"NORMAL":35,
						"TEXCOORD_0":36
					},
					"indices":37,
					"material":0
				}
			]
		},
		{
			"name":"Cylinder.462",
			"primitives":[
				{
					"attributes":{
						"POSITION":38,
						"NORMAL":39,
						"TEXCOORD_0":40
					},
					"indices":41,
					"material":0
				}
			]
		},
		{
			"name":"Cube.388",
			"primitives":[
				{
					"attributes":{
						"POSITION":42,
						"NORMAL":43,
						"TEXCOORD_0":44
					},
					"indices":45,
					"material":0
				}
			]
		},
		{
			"name":"Plane.046",
			"primitives":[
				{
					"attributes":{
						"POSITION":46,
						"NORMAL":47,
						"TEXCOORD_0":48,
						"TANGENT":49
					},
					"indices":50,
					"material":1
				}
			]
		},
		{
			"name":"Cylinder.463",
			"primitives":[
				{
					"attributes":{
						"POSITION":51,
						"NORMAL":52,
						"TEXCOORD_0":53
					},
					"indices":54,
					"material":0
				}
			]
		},
		{
			"name":"Cylinder.464",
			"primitives":[
				{
					"attributes":{
						"POSITION":55,
						"NORMAL":56,
						"TEXCOORD_0":57,
						"TANGENT":58
					},
					"indices":59,
					"material":0
				}
			]
		}
	],
	"textures":[
		{
			"sampler":0,
			"source":0
		},
		{
			"sampler":0,
			"source":0
		},
		{
			"sampler":0,
			"source":0
		}
	],
	"images":[
		{
			"mimeType":"image/png",
			"name":"PiratesPack_TX",
			"uri":"tex/PiratesPack_TX.png"
		}
	],
	"accessors":[
		{
			"bufferView":0,
			"componentType":5126,
			"count":148,
			"max":[
				4,
				3.9999923706054688,
				10.65000057220459
			],
			"min":[
				-4,
				-4.000007629394531,
				7.650000095367432
			],
			"type":"VEC3"
		},
		{
			"bufferView":1,
			"componentType":5126,
			"count":148,
			"type":"VEC3"
		},
		{
			"bufferView":2,
			"componentType":5126,
			"count":148,
			"type":"VEC2"
		},
		{
			"bufferView":3,
			"componentType":5123,
			"count":213,
			"type":"SCALAR"
		},
		{
			"bufferView":4,
			"componentType":5126,
			"count":38,
			"max":[
				1.6268773078918457,
				13.590291976928711,
				-3.710426092147827
			],
			"min":[
				-0.1060187816619873,
				-10.65999984741211,
				-4
			],
			"type":"VEC3"
		},
		{
			"bufferView":5,
			"componentType":5126,
			"count":38,
			"type":"VEC3"
		},
		{
			"bufferView":6,
			"componentType":5126,
			"count":38,
			"type":"VEC2"
		},
		{
			"bufferView":7,
			"componentType":5123,
			"count":84,
			"type":"SCALAR"
		},
		{
			"bufferView":8,
			"componentType":5126,
			"count":24,
			"max":[
				1.2075986862182617,
				4,
				-0.6000027656555176
			],
			"min":[
				0.31323570013046265,
				-4,
				-2.8895492553710938
			],
			"type":"VEC3"
		},
		{
			"bufferView":9,
			"componentType":5126,
			"count":24,
			"type":"VEC3"
		},
		{
			"bufferView":10,
			"componentType":5126,
			"count":24,
			"type":"VEC2"
		},
		{
			"bufferView":11,
			"componentType":5126,
			"count":24,
			"type":"VEC4"
		},
		{
			"bufferView":12,
			"componentType":5123,
			"count":36,
			"type":"SCALAR"
		},
		{
			"bufferView":13,
			"componentType":5126,
			"count":32,
			"max":[
				5.870352268218994,
				20.50728416442871,
				1.6906667947769165
			],
			"min":[
				-5.870336532592773,
				4.507268905639648,
				1.0032448768615723
			],
			"type":"VEC3"
		},
		{
			"bufferView":14,
			"componentType":5126,
			"count":32,
			"type":"VEC3"
		},
		{
			"bufferView":15,
			"componentType":5126,
			"count":32,
			"type":"VEC2"
		},
		{
			"bufferView":16,
			"componentType":5123,
			"count":60,
			"type":"SCALAR"
		},
		{
			"bufferView":17,
			"componentType":5126,
			"count":36,
			"max":[
				3.4499664306640625,
				-10.65999984741211,
				4
			],
			"min":[
				-4,
				-10.899999618530273,
				-4
			],
			"type":"VEC3"
		},
		{
			"bufferView":18,
			"componentType":5126,
			"count":36,
			"type":"VEC3"
		},
		{
			"bufferView":19,
			"componentType":5126,
			"count":36,
			"type":"VEC2"
		},
		{
			"bufferView":20,
			"componentType":5123,
			"count":60,
			"type":"SCALAR"
		},
		{
			"bufferView":21,
			"componentType":5126,
			"count":24,
			"max":[
				3.4666218757629395,
				7.9000091552734375,
				4
			],
			"min":[
				2.999934673309326,
				-10.85000228881836,
				-4
			],
			"type":"VEC3"
		},
		{
			"bufferView":22,
			"componentType":5126,
			"count":24,
			"type":"VEC3"
		},
		{
			"bufferView":23,
			"componentType":5126,
			"count":24,
			"type":"VEC2"
		},
		{
			"bufferView":24,
			"componentType":5126,
			"count":24,
			"type":"VEC4"
		},
		{
			"bufferView":25,
			"componentType":5123,
			"count":36,
			"type":"SCALAR"
		},
		{
			"bufferView":26,
			"componentType":5126,
			"count":48,
			"max":[
				4,
				3.454392433166504,
				1.4302752017974854
			],
			"min":[
				3.821788787841797,
				-7.399995803833008,
				0.09056824445724487
			],
			"type":"VEC3"
		},
		{
			"bufferView":27,
			"componentType":5126,
			"count":48,
			"type":"VEC3"
		},
		{
			"bufferView":28,
			"componentType":5126,
			"count":48,
			"type":"VEC2"
		},
		{
			"bufferView":29,
			"componentType":5123,
			"count":96,
			"type":"SCALAR"
		},
		{
			"bufferView":30,
			"componentType":5126,
			"count":96,
			"max":[
				4,
				2.88955020904541,
				1.143105387687683
			],
			"min":[
				-4,
				0.6000022888183594,
				0.37773823738098145
			],
			"type":"VEC3"
		},
		{
			"bufferView":31,
			"componentType":5126,
			"count":96,
			"type":"VEC3"
		},
		{
			"bufferView":32,
			"componentType":5126,
			"count":96,
			"type":"VEC2"
		},
		{
			"bufferView":33,
			"componentType":5123,
			"count":168,
			"type":"SCALAR"
		},
		{
			"bufferView":34,
			"componentType":5126,
			"count":330,
			"max":[
				0.4238172173500061,
				0.3487292528152466,
				-0.4649670422077179
			],
			"min":[
				-0.42381751537323,
				0.12293679267168045,
				-1.1074166297912598
			],
			"type":"VEC3"
		},
		{
			"bufferView":35,
			"componentType":5126,
			"count":330,
			"type":"VEC3"
		},
		{
			"bufferView":36,
			"componentType":5126,
			"count":330,
			"type":"VEC2"
		},
		{
			"bufferView":37,
			"componentType":5123,
			"count":732,
			"type":"SCALAR"
		},
		{
			"bufferView":38,
			"componentType":5126,
			"count":212,
			"max":[
				4,
				2.507960796356201,
				1.1069917678833008
			],
			"min":[
				-4,
				0.9815921783447266,
				0.41697973012924194
			],
			"type":"VEC3"
		},
		{
			"bufferView":39,
			"componentType":5126,
			"count":212,
			"type":"VEC3"
		},
		{
			"bufferView":40,
			"componentType":5126,
			"count":212,
			"type":"VEC2"
		},
		{
			"bufferView":41,
			"componentType":5123,
			"count":426,
			"type":"SCALAR"
		},
		{
			"bufferView":42,
			"componentType":5126,
			"count":75,
			"max":[
				5.870336532592773,
				1.0039629936218262,
				13.8872652053833
			],
			"min":[
				5.016260147094727,
				-0.028110504150390625,
				11.127284049987793
			],
			"type":"VEC3"
		},
		{
			"bufferView":43,
			"componentType":5126,
			"count":75,
			"type":"VEC3"
		},
		{
			"bufferView":44,
			"componentType":5126,
			"count":75,
			"type":"VEC2"
		},
		{
			"bufferView":45,
			"componentType":5123,
			"count":183,
			"type":"SCALAR"
		},
		{
			"bufferView":46,
			"componentType":5126,
			"count":8,
			"max":[
				13.374977111816406,
				2.8999557495117188,
				0.09059978276491165
			],
			"min":[
				6.374977111816406,
				2.8999557495117188,
				-0.09059977531433105
			],
			"type":"VEC3"
		},
		{
			"bufferView":47,
			"componentType":5126,
			"count":8,
			"type":"VEC3"
		},
		{
			"bufferView":48,
			"componentType":5126,
			"count":8,
			"type":"VEC2"
		},
		{
			"bufferView":49,
			"componentType":5126,
			"count":8,
			"type":"VEC4"
		},
		{
			"bufferView":50,
			"componentType":5123,
			"count":12,
			"type":"SCALAR"
		},
		{
			"bufferView":51,
			"componentType":5126,
			"count":115,
			"max":[
				1.9999985694885254,
				2.0000011920928955,
				7.5
			],
			"min":[
				-2.0000011920928955,
				-2.0000009536743164,
				3.825000286102295
			],
			"type":"VEC3"
		},
		{
			"bufferView":52,
			"componentType":5126,
			"count":115,
			"type":"VEC3"
		},
		{
			"bufferView":53,
			"componentType":5126,
			"count":115,
			"type":"VEC2"
		},
		{
			"bufferView":54,
			"componentType":5123,
			"count":294,
			"type":"SCALAR"
		},
		{
			"bufferView":55,
			"componentType":5126,
			"count":72,
			"max":[
				-0.7165589332580566,
				1.9999994039535522,
				3.858785629272461
			],
			"min":[
				-0.9435348510742188,
				-2,
				3.7912144660949707
			],
			"type":"VEC3"
		},
		{
			"bufferView":56,
			"componentType":5126,
			"count":72,
			"type":"VEC3"
		},
		{
			"bufferView":57,
			"componentType":5126,
			"count":72,
			"type":"VEC2"
		},
		{
			"bufferView":58,
			"componentType":5126,
			"count":72,
			"type":"VEC4"
		},
		{
			"bufferView":59,
			"componentType":5123,
			"count":108,
			"type":"SCALAR"
		}
	],
	"bufferViews":[
		{
			"buffer":0,
			"byteLength":1776,
			"byteOffset":0,
			"target":34962
		},
		{
			"buffer":0,
			"byteLength":1776,
			"byteOffset":1776,
			"target":34962
		},
		{
			"buffer":0,
			"byteLength":1184,
			"byteOffset":3552,
			"target":34962
		},
		{
			"buffer":0,
			"byteLength":426,
			"byteOffset":4736,
			"target":34963
		},
		{
			"buffer":0,
			"byteLength":456,
			"byteOffset":5164,
			"target":34962
		},
		{
			"buffer":0,
			"byteLength":456,
			"byteOffset":5620,
			"target":34962
		},
		{
			"buffer":0,
			"byteLength":304,
			"byteOffset":6076,
			"target":34962
		},
		{
			"buffer":0,
			"byteLength":168,
			"byteOffset":6380,
			"target":34963
		},
		{
			"buffer":0,
			"byteLength":288,
			"byteOffset":6548,
			"target":34962
		},
		{
			"buffer":0,
			"byteLength":288,
			"byteOffset":6836,
			"target":34962
		},
		{
			"buffer":0,
			"byteLength":192,
			"byteOffset":7124,
			"target":34962
		},
		{
			"buffer":0,
			"byteLength":384,
			"byteOffset":7316,
			"target":34962
		},
		{
			"buffer":0,
			"byteLength":72,
			"byteOffset":7700,
			"target":34963
		},
		{
			"buffer":0,
			"byteLength":384,
			"byteOffset":7772,
			"target":34962
		},
		{
			"buffer":0,
			"byteLength":384,
			"byteOffset":8156,
			"target":34962
		},
		{
			"buffer":0,
			"byteLength":256,
			"byteOffset":8540,
			"target":34962
		},
		{
			"buffer":0,
			"byteLength":120,
			"byteOffset":8796,
			"target":34963
		},
		{
			"buffer":0,
			"byteLength":432,
			"byteOffset":8916,
			"target":34962
		},
		{
			"buffer":0,
			"byteLength":432,
			"byteOffset":9348,
			"target":34962
		},
		{
			"buffer":0,
			"byteLength":288,
			"byteOffset":9780,
			"target":34962
		},
		{
			"buffer":0,
			"byteLength":120,
			"byteOffset":10068,
			"target":34963
		},
		{
			"buffer":0,
			"byteLength":288,
			"byteOffset":10188,
			"target":34962
		},
		{
			"buffer":0,
			"byteLength":288,
			"byteOffset":10476,
			"target":34962
		},
		{
			"buffer":0,
			"byteLength":192,
			"byteOffset":10764,
			"target":34962
		},
		{
			"buffer":0,
			"byteLength":384,
			"byteOffset":10956,
			"target":34962
		},
		{
			"buffer":0,
			"byteLength":72,
			"byteOffset":11340,
			"target":34963
		},
		{
			"buffer":0,
			"byteLength":576,
			"byteOffset":11412,
			"target":34962
		},
		{
			"buffer":0,
			"byteLength":576,
			"byteOffset":11988,
			"target":34962
		},
		{
			"buffer":0,
			"byteLength":384,
			"byteOffset":12564,
			"target":34962
		},
		{
			"buffer":0,
			"byteLength":192,
			"byteOffset":12948,
			"target":34963
		},
		{
			"buffer":0,
			"byteLength":1152,
			"byteOffset":13140,
			"target":34962
		},
		{
			"buffer":0,
			"byteLength":1152,
			"byteOffset":14292,
			"target":34962
		},
		{
			"buffer":0,
			"byteLength":768,
			"byteOffset":15444,
			"target":34962
		},
		{
			"buffer":0,
			"byteLength":336,
			"byteOffset":16212,
			"target":34963
		},
		{
			"buffer":0,
			"byteLength":3960,
			"byteOffset":16548,
			"target":34962
		},
		{
			"buffer":0,
			"byteLength":3960,
			"byteOffset":20508,
			"target":34962
		},
		{
			"buffer":0,
			"byteLength":2640,
			"byteOffset":24468,
			"target":34962
		},
		{
			"buffer":0,
			"byteLength":1464,
			"byteOffset":27108,
			"target":34963
		},
		{
			"buffer":0,
			"byteLength":2544,
			"byteOffset":28572,
			"target":34962
		},
		{
			"buffer":0,
			"byteLength":2544,
			"byteOffset":31116,
			"target":34962
		},
		{
			"buffer":0,
			"byteLength":1696,
			"byteOffset":33660,
			"target":34962
		},
		{
			"buffer":0,
			"byteLength":852,
			"byteOffset":35356,
			"target":34963
		},
		{
			"buffer":0,
			"byteLength":900,
			"byteOffset":36208,
			"target":34962
		},
		{
			"buffer":0,
			"byteLength":900,
			"byteOffset":37108,
			"target":34962
		},
		{
			"buffer":0,
			"byteLength":600,
			"byteOffset":38008,
			"target":34962
		},
		{
			"buffer":0,
			"byteLength":366,
			"byteOffset":38608,
			"target":34963
		},
		{
			"buffer":0,
			"byteLength":96,
			"byteOffset":38976,
			"target":34962
		},
		{
			"buffer":0,
			"byteLength":96,
			"byteOffset":39072,
			"target":34962
		},
		{
			"buffer":0,
			"byteLength":64,
			"byteOffset":39168,
			"target":34962
		},
		{
			"buffer":0,
			"byteLength":128,
			"byteOffset":39232,
			"target":34962
		},
		{
			"buffer":0,
			"byteLength":24,
			"byteOffset":39360,
			"target":34963
		},
		{
			"buffer":0,
			"byteLength":1380,
			"byteOffset":39384,
			"target":34962
		},
		{
			"buffer":0,
			"byteLength":1380,
			"byteOffset":40764,
			"target":34962
		},
		{
			"buffer":0,
			"byteLength":920,
			"byteOffset":42144,
			"target":34962
		},
		{
			"buffer":0,
			"byteLength":588,
			"byteOffset":43064,
			"target":34963
		},
		{
			"buffer":0,
			"byteLength":864,
			"byteOffset":43652,
			"target":34962
		},
		{
			"buffer":0,
			"byteLength":864,
			"byteOffset":44516,
			"target":34962
		},
		{
			"buffer":0,
			"byteLength":576,
			"byteOffset":45380,
			"target":34962
		},
		{
			"buffer":0,
			"byteLength":1152,
			"byteOffset":45956,
			"target":34962
		},
		{
			"buffer":0,
			"byteLength":216,
			"byteOffset":47108,
			"target":34963
		}
	],
	"samplers":[
		{
			"magFilter":9729,
			"minFilter":9987
		}
	],
	"buffers":[
		{
			"byteLength":47324,
			"uri":"tile_11_0_6.bin"
		}
	]
}
