{
	"asset":{
		"generator":"Khronos glTF Blender I/O v4.0.44",
		"version":"2.0"
	},
	"scene":0,
	"scenes":[
		{
			"name":"Scene",
			"nodes":[
				0,
				1,
				2,
				3,
				4,
				5,
				6,
				7
			]
		}
	],
	"nodes":[
		{
			"name":"pipe.main_collider",
			"rotation":[
				0.7071068286895752,
				0,
				0,
				0.7071068286895752
			]
		},
		{
			"mesh":0,
			"name":"ramp.rectangular.03_mesh_collider",
			"rotation":[
				0,
				0.7071068286895752,
				0,
				0.7071068286895752
			]
		},
		{
			"mesh":1,
			"name":"ramp.rectangular.04_box_collider",
			"rotation":[
				0,
				0.7071068286895752,
				0,
				0.7071068286895752
			]
		},
		{
			"mesh":2,
			"name":"ground"
		},
		{
			"name":"decal.main",
			"rotation":[
				0,
				-0.7071068286895752,
				0.7071068286895752,
				3.4560699191388267e-07
			]
		},
		{
			"name":"pipe.main",
			"rotation":[
				0.7071068286895752,
				0,
				0,
				0.7071068286895752
			],
			"scale":[
				2,
				2,
				2
			]
		},
		{
			"name":"pipe.main.rim",
			"rotation":[
				0.7071068286895752,
				0,
				0,
				0.7071068286895752
			],
			"scale":[
				2,
				2,
				2
			]
		},
		{
			"mesh":3,
			"name":"ramp.rectangular.03",
			"rotation":[
				0,
				0.7071068286895752,
				0,
				0.7071068286895752
			],
			"scale":[
				1.5,
				1.5,
				1.5
			]
		}
	],
	"materials":[
		{
			"doubleSided":true,
			"name":"dcl.PiratesPack",
			"pbrMetallicRoughness":{
				"baseColorTexture":{
					"index":0
				},
				"metallicFactor":0
			}
		}
	],
	"meshes":[
		{
			"name":"Cube.286",
			"primitives":[
				{
					"attributes":{
						"POSITION":0,
						"NORMAL":1,
						"TEXCOORD_0":2,
						"TANGENT":3
					},
					"indices":4
				}
			]
		},
		{
			"name":"Cube.287",
			"primitives":[
				{
					"attributes":{
						"POSITION":5,
						"NORMAL":6,
						"TEXCOORD_0":7,
						"TANGENT":8
					},
					"indices":9
				}
			]
		},
		{
			"name":"Cube.288",
			"primitives":[
				{
					"attributes":{
						"POSITION":10,
						"NORMAL":11,
						"TEXCOORD_0":12,
						"TANGENT":13
					},
					"indices":14,
					"material":0
				}
			]
		},
		{
			"name":"Cube.289",
			"primitives":[
				{
					"attributes":{
						"POSITION":15,
						"NORMAL":16,
						"TEXCOORD_0":17
					},
					"indices":18,
					"material":0
				}
			]
		}
	],
	"textures":[
		{
			"sampler":0,
			"source":0
		}
	],
	"images":[
		{
			"mimeType":"image/png",
			"name":"PiratesPack_TX",
			"uri":"tex/PiratesPack_TX.png"
		}
	],
	"accessors":[
		{
			"bufferView":0,
			"componentType":5126,
			"count":17,
			"max":[
				3.851818084716797,
				-8.399999618530273,
				0.36856842041015625
			],
			"min":[
				0.35007476806640625,
				-10.68165111541748,
				-4
			],
			"type":"VEC3"
		},
		{
			"bufferView":1,
			"componentType":5126,
			"count":17,
			"type":"VEC3"
		},
		{
			"bufferView":2,
			"componentType":5126,
			"count":17,
			"type":"VEC2"
		},
		{
			"bufferView":3,
			"componentType":5126,
			"count":17,
			"type":"VEC4"
		},
		{
			"bufferView":4,
			"componentType":5123,
			"count":27,
			"type":"SCALAR"
		},
		{
			"bufferView":5,
			"componentType":5126,
			"count":24,
			"max":[
				4,
				-8.399999618530273,
				0.36856842041015625
			],
			"min":[
				3.851818084716797,
				-10.649999618530273,
				-4
			],
			"type":"VEC3"
		},
		{
			"bufferView":6,
			"componentType":5126,
			"count":24,
			"type":"VEC3"
		},
		{
			"bufferView":7,
			"componentType":5126,
			"count":24,
			"type":"VEC2"
		},
		{
			"bufferView":8,
			"componentType":5126,
			"count":24,
			"type":"VEC4"
		},
		{
			"bufferView":9,
			"componentType":5123,
			"count":36,
			"type":"SCALAR"
		},
		{
			"bufferView":10,
			"componentType":5126,
			"count":24,
			"max":[
				4,
				-10.65999984741211,
				4
			],
			"min":[
				-4,
				-10.899999618530273,
				-4
			],
			"type":"VEC3"
		},
		{
			"bufferView":11,
			"componentType":5126,
			"count":24,
			"type":"VEC3"
		},
		{
			"bufferView":12,
			"componentType":5126,
			"count":24,
			"type":"VEC2"
		},
		{
			"bufferView":13,
			"componentType":5126,
			"count":24,
			"type":"VEC4"
		},
		{
			"bufferView":14,
			"componentType":5123,
			"count":36,
			"type":"SCALAR"
		},
		{
			"bufferView":15,
			"componentType":5126,
			"count":155,
			"max":[
				2.6666669845581055,
				-5.485076904296875,
				0.26802778244018555
			],
			"min":[
				0.2333827018737793,
				-10,
				-2.6666629314422607
			],
			"type":"VEC3"
		},
		{
			"bufferView":16,
			"componentType":5126,
			"count":155,
			"type":"VEC3"
		},
		{
			"bufferView":17,
			"componentType":5126,
			"count":155,
			"type":"VEC2"
		},
		{
			"bufferView":18,
			"componentType":5123,
			"count":450,
			"type":"SCALAR"
		}
	],
	"bufferViews":[
		{
			"buffer":0,
			"byteLength":204,
			"byteOffset":0,
			"target":34962
		},
		{
			"buffer":0,
			"byteLength":204,
			"byteOffset":204,
			"target":34962
		},
		{
			"buffer":0,
			"byteLength":136,
			"byteOffset":408,
			"target":34962
		},
		{
			"buffer":0,
			"byteLength":272,
			"byteOffset":544,
			"target":34962
		},
		{
			"buffer":0,
			"byteLength":54,
			"byteOffset":816,
			"target":34963
		},
		{
			"buffer":0,
			"byteLength":288,
			"byteOffset":872,
			"target":34962
		},
		{
			"buffer":0,
			"byteLength":288,
			"byteOffset":1160,
			"target":34962
		},
		{
			"buffer":0,
			"byteLength":192,
			"byteOffset":1448,
			"target":34962
		},
		{
			"buffer":0,
			"byteLength":384,
			"byteOffset":1640,
			"target":34962
		},
		{
			"buffer":0,
			"byteLength":72,
			"byteOffset":2024,
			"target":34963
		},
		{
			"buffer":0,
			"byteLength":288,
			"byteOffset":2096,
			"target":34962
		},
		{
			"buffer":0,
			"byteLength":288,
			"byteOffset":2384,
			"target":34962
		},
		{
			"buffer":0,
			"byteLength":192,
			"byteOffset":2672,
			"target":34962
		},
		{
			"buffer":0,
			"byteLength":384,
			"byteOffset":2864,
			"target":34962
		},
		{
			"buffer":0,
			"byteLength":72,
			"byteOffset":3248,
			"target":34963
		},
		{
			"buffer":0,
			"byteLength":1860,
			"byteOffset":3320,
			"target":34962
		},
		{
			"buffer":0,
			"byteLength":1860,
			"byteOffset":5180,
			"target":34962
		},
		{
			"buffer":0,
			"byteLength":1240,
			"byteOffset":7040,
			"target":34962
		},
		{
			"buffer":0,
			"byteLength":900,
			"byteOffset":8280,
			"target":34963
		}
	],
	"samplers":[
		{
			"magFilter":9729,
			"minFilter":9987
		}
	],
	"buffers":[
		{
			"byteLength":9180,
			"uri":"tile_6_0_7.bin"
		}
	]
}
