{
	"asset":{
		"generator":"Khronos glTF Blender I/O v4.0.44",
		"version":"2.0"
	},
	"scene":0,
	"scenes":[
		{
			"name":"Scene",
			"nodes":[
				0,
				1,
				2,
				3,
				4,
				5,
				6,
				7
			]
		}
	],
	"nodes":[
		{
			"mesh":0,
			"name":"pipe.main_collider",
			"rotation":[
				0.7071068286895752,
				0,
				0,
				0.7071068286895752
			]
		},
		{
			"mesh":1,
			"name":"wall.south.011"
		},
		{
			"mesh":2,
			"name":"ground"
		},
		{
			"mesh":3,
			"name":"wall.east.013"
		},
		{
			"mesh":4,
			"name":"neons.001",
			"rotation":[
				0,
				0,
				-0.7071068286895752,
				0.7071068286895752
			],
			"scale":[
				0.19999998807907104,
				1,
				44.15021896362305
			]
		},
		{
			"mesh":5,
			"name":"neons.003",
			"rotation":[
				0.4999999403953552,
				-0.49999988079071045,
				-0.5000001192092896,
				0.5000001192092896
			],
			"scale":[
				0.19999998807907104,
				1,
				47.68861770629883
			]
		},
		{
			"mesh":6,
			"name":"pipe.main",
			"rotation":[
				0.7071068286895752,
				0,
				0,
				0.7071068286895752
			],
			"scale":[
				2,
				2,
				2
			]
		},
		{
			"name":"pipe.main.rim",
			"rotation":[
				0.7071068286895752,
				0,
				0,
				0.7071068286895752
			],
			"scale":[
				2,
				2,
				2
			]
		}
	],
	"materials":[
		{
			"doubleSided":true,
			"name":"dcl.PiratesPack",
			"pbrMetallicRoughness":{
				"baseColorTexture":{
					"index":0
				},
				"metallicFactor":0
			}
		},
		{
			"doubleSided":true,
			"emissiveFactor":[
				1,
				1,
				1
			],
			"emissiveTexture":{
				"index":1
			},
			"name":"dcl.PiratesPack.emissive",
			"pbrMetallicRoughness":{
				"baseColorTexture":{
					"index":2
				},
				"metallicFactor":0
			}
		}
	],
	"meshes":[
		{
			"name":"Cylinder.427",
			"primitives":[
				{
					"attributes":{
						"POSITION":0,
						"NORMAL":1,
						"TEXCOORD_0":2,
						"TANGENT":3
					},
					"indices":4
				}
			]
		},
		{
			"name":"Cylinder.428",
			"primitives":[
				{
					"attributes":{
						"POSITION":5,
						"NORMAL":6,
						"TEXCOORD_0":7,
						"TANGENT":8
					},
					"indices":9,
					"material":0
				}
			]
		},
		{
			"name":"Cube.370",
			"primitives":[
				{
					"attributes":{
						"POSITION":10,
						"NORMAL":11,
						"TEXCOORD_0":12
					},
					"indices":13,
					"material":0
				}
			]
		},
		{
			"name":"Cylinder.429",
			"primitives":[
				{
					"attributes":{
						"POSITION":14,
						"NORMAL":15,
						"TEXCOORD_0":16
					},
					"indices":17,
					"material":0
				}
			]
		},
		{
			"name":"Plane.039",
			"primitives":[
				{
					"attributes":{
						"POSITION":18,
						"NORMAL":19,
						"TEXCOORD_0":20,
						"TANGENT":21
					},
					"indices":22,
					"material":1
				}
			]
		},
		{
			"name":"Plane.040",
			"primitives":[
				{
					"attributes":{
						"POSITION":23,
						"NORMAL":24,
						"TEXCOORD_0":25,
						"TANGENT":26
					},
					"indices":27,
					"material":1
				}
			]
		},
		{
			"name":"Cylinder.430",
			"primitives":[
				{
					"attributes":{
						"POSITION":28,
						"NORMAL":29,
						"TEXCOORD_0":30
					},
					"indices":31,
					"material":0
				}
			]
		}
	],
	"textures":[
		{
			"sampler":0,
			"source":0
		},
		{
			"sampler":0,
			"source":0
		},
		{
			"sampler":0,
			"source":0
		}
	],
	"images":[
		{
			"mimeType":"image/png",
			"name":"PiratesPack_TX",
			"uri":"tex/PiratesPack_TX.png"
		}
	],
	"accessors":[
		{
			"bufferView":0,
			"componentType":5126,
			"count":28,
			"max":[
				4.000016212463379,
				-7.62939453125e-06,
				7.650002956390381
			],
			"min":[
				-3.999969482421875,
				-4.000007629394531,
				7.650002479553223
			],
			"type":"VEC3"
		},
		{
			"bufferView":1,
			"componentType":5126,
			"count":28,
			"type":"VEC3"
		},
		{
			"bufferView":2,
			"componentType":5126,
			"count":28,
			"type":"VEC2"
		},
		{
			"bufferView":3,
			"componentType":5126,
			"count":28,
			"type":"VEC4"
		},
		{
			"bufferView":4,
			"componentType":5123,
			"count":42,
			"type":"SCALAR"
		},
		{
			"bufferView":5,
			"componentType":5126,
			"count":24,
			"max":[
				3.4666290283203125,
				1.600001335144043,
				0.9999889135360718
			],
			"min":[
				-4,
				-10.900001525878906,
				-8.821487426757812e-06
			],
			"type":"VEC3"
		},
		{
			"bufferView":6,
			"componentType":5126,
			"count":24,
			"type":"VEC3"
		},
		{
			"bufferView":7,
			"componentType":5126,
			"count":24,
			"type":"VEC2"
		},
		{
			"bufferView":8,
			"componentType":5126,
			"count":24,
			"type":"VEC4"
		},
		{
			"bufferView":9,
			"componentType":5123,
			"count":36,
			"type":"SCALAR"
		},
		{
			"bufferView":10,
			"componentType":5126,
			"count":44,
			"max":[
				3.4499664306640625,
				-10.65999984741211,
				0
			],
			"min":[
				-4,
				-10.899999618530273,
				-4
			],
			"type":"VEC3"
		},
		{
			"bufferView":11,
			"componentType":5126,
			"count":44,
			"type":"VEC3"
		},
		{
			"bufferView":12,
			"componentType":5126,
			"count":44,
			"type":"VEC2"
		},
		{
			"bufferView":13,
			"componentType":5123,
			"count":72,
			"type":"SCALAR"
		},
		{
			"bufferView":14,
			"componentType":5126,
			"count":52,
			"max":[
				3.466625452041626,
				7.871212959289551,
				0.7076416015625
			],
			"min":[
				3.0000040531158447,
				-10.850003242492676,
				-4
			],
			"type":"VEC3"
		},
		{
			"bufferView":15,
			"componentType":5126,
			"count":52,
			"type":"VEC3"
		},
		{
			"bufferView":16,
			"componentType":5126,
			"count":52,
			"type":"VEC2"
		},
		{
			"bufferView":17,
			"componentType":5123,
			"count":120,
			"type":"SCALAR"
		},
		{
			"bufferView":18,
			"componentType":5126,
			"count":8,
			"max":[
				13.374977111816406,
				2.8999557495117188,
				0.0034016892313957214
			],
			"min":[
				6.374977111816406,
				2.8999557495117188,
				-0.09059960395097733
			],
			"type":"VEC3"
		},
		{
			"bufferView":19,
			"componentType":5126,
			"count":8,
			"type":"VEC3"
		},
		{
			"bufferView":20,
			"componentType":5126,
			"count":8,
			"type":"VEC2"
		},
		{
			"bufferView":21,
			"componentType":5126,
			"count":8,
			"type":"VEC4"
		},
		{
			"bufferView":22,
			"componentType":5123,
			"count":12,
			"type":"SCALAR"
		},
		{
			"bufferView":23,
			"componentType":5126,
			"count":8,
			"max":[
				13.37496566772461,
				-0.10001026839017868,
				0.08387744426727295
			],
			"min":[
				6.374964237213135,
				-0.10001049190759659,
				-0.06703269481658936
			],
			"type":"VEC3"
		},
		{
			"bufferView":24,
			"componentType":5126,
			"count":8,
			"type":"VEC3"
		},
		{
			"bufferView":25,
			"componentType":5126,
			"count":8,
			"type":"VEC2"
		},
		{
			"bufferView":26,
			"componentType":5126,
			"count":8,
			"type":"VEC4"
		},
		{
			"bufferView":27,
			"componentType":5123,
			"count":12,
			"type":"SCALAR"
		},
		{
			"bufferView":28,
			"componentType":5126,
			"count":29,
			"max":[
				1.724987506866455,
				-3.814697265625e-06,
				7.500000953674316
			],
			"min":[
				-1.999999761581421,
				-2.000001907348633,
				3.8250012397766113
			],
			"type":"VEC3"
		},
		{
			"bufferView":29,
			"componentType":5126,
			"count":29,
			"type":"VEC3"
		},
		{
			"bufferView":30,
			"componentType":5126,
			"count":29,
			"type":"VEC2"
		},
		{
			"bufferView":31,
			"componentType":5123,
			"count":42,
			"type":"SCALAR"
		}
	],
	"bufferViews":[
		{
			"buffer":0,
			"byteLength":336,
			"byteOffset":0,
			"target":34962
		},
		{
			"buffer":0,
			"byteLength":336,
			"byteOffset":336,
			"target":34962
		},
		{
			"buffer":0,
			"byteLength":224,
			"byteOffset":672,
			"target":34962
		},
		{
			"buffer":0,
			"byteLength":448,
			"byteOffset":896,
			"target":34962
		},
		{
			"buffer":0,
			"byteLength":84,
			"byteOffset":1344,
			"target":34963
		},
		{
			"buffer":0,
			"byteLength":288,
			"byteOffset":1428,
			"target":34962
		},
		{
			"buffer":0,
			"byteLength":288,
			"byteOffset":1716,
			"target":34962
		},
		{
			"buffer":0,
			"byteLength":192,
			"byteOffset":2004,
			"target":34962
		},
		{
			"buffer":0,
			"byteLength":384,
			"byteOffset":2196,
			"target":34962
		},
		{
			"buffer":0,
			"byteLength":72,
			"byteOffset":2580,
			"target":34963
		},
		{
			"buffer":0,
			"byteLength":528,
			"byteOffset":2652,
			"target":34962
		},
		{
			"buffer":0,
			"byteLength":528,
			"byteOffset":3180,
			"target":34962
		},
		{
			"buffer":0,
			"byteLength":352,
			"byteOffset":3708,
			"target":34962
		},
		{
			"buffer":0,
			"byteLength":144,
			"byteOffset":4060,
			"target":34963
		},
		{
			"buffer":0,
			"byteLength":624,
			"byteOffset":4204,
			"target":34962
		},
		{
			"buffer":0,
			"byteLength":624,
			"byteOffset":4828,
			"target":34962
		},
		{
			"buffer":0,
			"byteLength":416,
			"byteOffset":5452,
			"target":34962
		},
		{
			"buffer":0,
			"byteLength":240,
			"byteOffset":5868,
			"target":34963
		},
		{
			"buffer":0,
			"byteLength":96,
			"byteOffset":6108,
			"target":34962
		},
		{
			"buffer":0,
			"byteLength":96,
			"byteOffset":6204,
			"target":34962
		},
		{
			"buffer":0,
			"byteLength":64,
			"byteOffset":6300,
			"target":34962
		},
		{
			"buffer":0,
			"byteLength":128,
			"byteOffset":6364,
			"target":34962
		},
		{
			"buffer":0,
			"byteLength":24,
			"byteOffset":6492,
			"target":34963
		},
		{
			"buffer":0,
			"byteLength":96,
			"byteOffset":6516,
			"target":34962
		},
		{
			"buffer":0,
			"byteLength":96,
			"byteOffset":6612,
			"target":34962
		},
		{
			"buffer":0,
			"byteLength":64,
			"byteOffset":6708,
			"target":34962
		},
		{
			"buffer":0,
			"byteLength":128,
			"byteOffset":6772,
			"target":34962
		},
		{
			"buffer":0,
			"byteLength":24,
			"byteOffset":6900,
			"target":34963
		},
		{
			"buffer":0,
			"byteLength":348,
			"byteOffset":6924,
			"target":34962
		},
		{
			"buffer":0,
			"byteLength":348,
			"byteOffset":7272,
			"target":34962
		},
		{
			"buffer":0,
			"byteLength":232,
			"byteOffset":7620,
			"target":34962
		},
		{
			"buffer":0,
			"byteLength":84,
			"byteOffset":7852,
			"target":34963
		}
	],
	"samplers":[
		{
			"magFilter":9729,
			"minFilter":9987
		}
	],
	"buffers":[
		{
			"byteLength":7936,
			"uri":"tile_11_0_0.bin"
		}
	]
}
