{
	"asset":{
		"generator":"Khronos glTF Blender I/O v4.0.44",
		"version":"2.0"
	},
	"scene":0,
	"scenes":[
		{
			"name":"Scene",
			"nodes":[
				0,
				1,
				2,
				3,
				4,
				5
			]
		}
	],
	"nodes":[
		{
			"mesh":0,
			"name":"ramp.rectangular.03_collider",
			"rotation":[
				0,
				-1,
				0,
				1.6292068494294654e-07
			]
		},
		{
			"mesh":1,
			"name":"ramp.rectangular.04_collider",
			"rotation":[
				0,
				0,
				0.3214394450187683,
				0.9469301104545593
			]
		},
		{
			"mesh":2,
			"name":"ground"
		},
		{
			"name":"decal.main",
			"rotation":[
				0,
				-0.7071068286895752,
				0.7071068286895752,
				3.4560699191388267e-07
			]
		},
		{
			"mesh":3,
			"name":"decal.ramp.branches",
			"rotation":[
				0,
				-1,
				0,
				1.6292068494294654e-07
			],
			"scale":[
				1.5,
				1.5,
				1.5
			]
		},
		{
			"mesh":4,
			"name":"ramp.rectangular.01",
			"rotation":[
				0,
				-1,
				0,
				1.6292068494294654e-07
			]
		}
	],
	"materials":[
		{
			"doubleSided":true,
			"name":"dcl.PiratesPack",
			"pbrMetallicRoughness":{
				"baseColorTexture":{
					"index":0
				},
				"metallicFactor":0
			}
		},
		{
			"doubleSided":true,
			"emissiveFactor":[
				1,
				1,
				1
			],
			"emissiveTexture":{
				"index":1
			},
			"name":"dcl.PiratesPack.emissive",
			"pbrMetallicRoughness":{
				"baseColorTexture":{
					"index":2
				},
				"metallicFactor":0
			}
		}
	],
	"meshes":[
		{
			"name":"Cube.211",
			"primitives":[
				{
					"attributes":{
						"POSITION":0,
						"NORMAL":1,
						"TEXCOORD_0":2,
						"TANGENT":3
					},
					"indices":4
				}
			]
		},
		{
			"name":"Cube.212",
			"primitives":[
				{
					"attributes":{
						"POSITION":5,
						"NORMAL":6,
						"TEXCOORD_0":7,
						"TANGENT":8
					},
					"indices":9
				}
			]
		},
		{
			"name":"Cube.213",
			"primitives":[
				{
					"attributes":{
						"POSITION":10,
						"NORMAL":11,
						"TEXCOORD_0":12,
						"TANGENT":13
					},
					"indices":14,
					"material":0
				}
			]
		},
		{
			"name":"Cube.214",
			"primitives":[
				{
					"attributes":{
						"POSITION":15,
						"NORMAL":16,
						"TEXCOORD_0":17
					},
					"indices":18,
					"material":1
				}
			]
		},
		{
			"name":"Cube.215",
			"primitives":[
				{
					"attributes":{
						"POSITION":19,
						"NORMAL":20,
						"TEXCOORD_0":21
					},
					"indices":22,
					"material":0
				},
				{
					"attributes":{
						"POSITION":23,
						"NORMAL":24,
						"TEXCOORD_0":25
					},
					"indices":26,
					"material":1
				}
			]
		}
	],
	"textures":[
		{
			"sampler":0,
			"source":0
		},
		{
			"sampler":0,
			"source":0
		},
		{
			"sampler":0,
			"source":0
		}
	],
	"images":[
		{
			"mimeType":"image/png",
			"name":"PiratesPack_TX",
			"uri":"tex/PiratesPack_TX.png"
		}
	],
	"accessors":[
		{
			"bufferView":0,
			"componentType":5126,
			"count":24,
			"max":[
				0.4993290901184082,
				-9,
				3.9999990463256836
			],
			"min":[
				-3.8616769313812256,
				-10.649999618530273,
				3.287724018096924
			],
			"type":"VEC3"
		},
		{
			"bufferView":1,
			"componentType":5126,
			"count":24,
			"type":"VEC3"
		},
		{
			"bufferView":2,
			"componentType":5126,
			"count":24,
			"type":"VEC2"
		},
		{
			"bufferView":3,
			"componentType":5126,
			"count":24,
			"type":"VEC4"
		},
		{
			"bufferView":4,
			"componentType":5123,
			"count":36,
			"type":"SCALAR"
		},
		{
			"bufferView":5,
			"componentType":5126,
			"count":24,
			"max":[
				-5.87493896484375,
				-6.835521697998047,
				-3.2880730628967285
			],
			"min":[
				-10.235942840576172,
				-8.48552131652832,
				-4
			],
			"type":"VEC3"
		},
		{
			"bufferView":6,
			"componentType":5126,
			"count":24,
			"type":"VEC3"
		},
		{
			"bufferView":7,
			"componentType":5126,
			"count":24,
			"type":"VEC2"
		},
		{
			"bufferView":8,
			"componentType":5126,
			"count":24,
			"type":"VEC4"
		},
		{
			"bufferView":9,
			"componentType":5123,
			"count":36,
			"type":"SCALAR"
		},
		{
			"bufferView":10,
			"componentType":5126,
			"count":24,
			"max":[
				4,
				-10.65999984741211,
				4
			],
			"min":[
				-4,
				-10.899999618530273,
				-4
			],
			"type":"VEC3"
		},
		{
			"bufferView":11,
			"componentType":5126,
			"count":24,
			"type":"VEC3"
		},
		{
			"bufferView":12,
			"componentType":5126,
			"count":24,
			"type":"VEC2"
		},
		{
			"bufferView":13,
			"componentType":5126,
			"count":24,
			"type":"VEC4"
		},
		{
			"bufferView":14,
			"componentType":5123,
			"count":36,
			"type":"SCALAR"
		},
		{
			"bufferView":15,
			"componentType":5126,
			"count":7,
			"max":[
				2.6666574478149414,
				-7.093332290649414,
				2.6666650772094727
			],
			"min":[
				-2.6666765213012695,
				-7.093332290649414,
				2.191817283630371
			],
			"type":"VEC3"
		},
		{
			"bufferView":16,
			"componentType":5126,
			"count":7,
			"type":"VEC3"
		},
		{
			"bufferView":17,
			"componentType":5126,
			"count":7,
			"type":"VEC2"
		},
		{
			"bufferView":18,
			"componentType":5123,
			"count":15,
			"type":"SCALAR"
		},
		{
			"bufferView":19,
			"componentType":5126,
			"count":36,
			"max":[
				2.6798319816589355,
				-9,
				3.9999990463256836
			],
			"min":[
				-3.861675977706909,
				-10.649999618530273,
				3.3377251625061035
			],
			"type":"VEC3"
		},
		{
			"bufferView":20,
			"componentType":5126,
			"count":36,
			"type":"VEC3"
		},
		{
			"bufferView":21,
			"componentType":5126,
			"count":36,
			"type":"VEC2"
		},
		{
			"bufferView":22,
			"componentType":5123,
			"count":57,
			"type":"SCALAR"
		},
		{
			"bufferView":23,
			"componentType":5126,
			"count":44,
			"max":[
				2.798455238342285,
				-8.949999809265137,
				3.7877249717712402
			],
			"min":[
				-3.9116737842559814,
				-10.663400650024414,
				3.2877249717712402
			],
			"type":"VEC3"
		},
		{
			"bufferView":24,
			"componentType":5126,
			"count":44,
			"type":"VEC3"
		},
		{
			"bufferView":25,
			"componentType":5126,
			"count":44,
			"type":"VEC2"
		},
		{
			"bufferView":26,
			"componentType":5123,
			"count":72,
			"type":"SCALAR"
		}
	],
	"bufferViews":[
		{
			"buffer":0,
			"byteLength":288,
			"byteOffset":0,
			"target":34962
		},
		{
			"buffer":0,
			"byteLength":288,
			"byteOffset":288,
			"target":34962
		},
		{
			"buffer":0,
			"byteLength":192,
			"byteOffset":576,
			"target":34962
		},
		{
			"buffer":0,
			"byteLength":384,
			"byteOffset":768,
			"target":34962
		},
		{
			"buffer":0,
			"byteLength":72,
			"byteOffset":1152,
			"target":34963
		},
		{
			"buffer":0,
			"byteLength":288,
			"byteOffset":1224,
			"target":34962
		},
		{
			"buffer":0,
			"byteLength":288,
			"byteOffset":1512,
			"target":34962
		},
		{
			"buffer":0,
			"byteLength":192,
			"byteOffset":1800,
			"target":34962
		},
		{
			"buffer":0,
			"byteLength":384,
			"byteOffset":1992,
			"target":34962
		},
		{
			"buffer":0,
			"byteLength":72,
			"byteOffset":2376,
			"target":34963
		},
		{
			"buffer":0,
			"byteLength":288,
			"byteOffset":2448,
			"target":34962
		},
		{
			"buffer":0,
			"byteLength":288,
			"byteOffset":2736,
			"target":34962
		},
		{
			"buffer":0,
			"byteLength":192,
			"byteOffset":3024,
			"target":34962
		},
		{
			"buffer":0,
			"byteLength":384,
			"byteOffset":3216,
			"target":34962
		},
		{
			"buffer":0,
			"byteLength":72,
			"byteOffset":3600,
			"target":34963
		},
		{
			"buffer":0,
			"byteLength":84,
			"byteOffset":3672,
			"target":34962
		},
		{
			"buffer":0,
			"byteLength":84,
			"byteOffset":3756,
			"target":34962
		},
		{
			"buffer":0,
			"byteLength":56,
			"byteOffset":3840,
			"target":34962
		},
		{
			"buffer":0,
			"byteLength":30,
			"byteOffset":3896,
			"target":34963
		},
		{
			"buffer":0,
			"byteLength":432,
			"byteOffset":3928,
			"target":34962
		},
		{
			"buffer":0,
			"byteLength":432,
			"byteOffset":4360,
			"target":34962
		},
		{
			"buffer":0,
			"byteLength":288,
			"byteOffset":4792,
			"target":34962
		},
		{
			"buffer":0,
			"byteLength":114,
			"byteOffset":5080,
			"target":34963
		},
		{
			"buffer":0,
			"byteLength":528,
			"byteOffset":5196,
			"target":34962
		},
		{
			"buffer":0,
			"byteLength":528,
			"byteOffset":5724,
			"target":34962
		},
		{
			"buffer":0,
			"byteLength":352,
			"byteOffset":6252,
			"target":34962
		},
		{
			"buffer":0,
			"byteLength":144,
			"byteOffset":6604,
			"target":34963
		}
	],
	"samplers":[
		{
			"magFilter":9729,
			"minFilter":9987
		}
	],
	"buffers":[
		{
			"byteLength":6748,
			"uri":"tile_5_0_1.bin"
		}
	]
}
