{
	"asset":{
		"generator":"Khronos glTF Blender I/O v4.0.44",
		"version":"2.0"
	},
	"scene":0,
	"scenes":[
		{
			"name":"Scene",
			"nodes":[
				0,
				1,
				2,
				3,
				4,
				5,
				6,
				7,
				8
			]
		}
	],
	"nodes":[
		{
			"mesh":0,
			"name":"entrance.pillar.001_collider",
			"rotation":[
				0.7071068286895752,
				0,
				0,
				0.7071068286895752
			]
		},
		{
			"mesh":1,
			"name":"wall.south.003"
		},
		{
			"mesh":2,
			"name":"ground"
		},
		{
			"name":"decal.main",
			"rotation":[
				0,
				-0.7071068286895752,
				0.7071068286895752,
				3.4560699191388267e-07
			]
		},
		{
			"mesh":3,
			"name":"neons.003",
			"rotation":[
				0.4999999403953552,
				-0.49999988079071045,
				-0.5000001192092896,
				0.5000001192092896
			],
			"scale":[
				0.19999998807907104,
				1,
				47.68861770629883
			]
		},
		{
			"mesh":4,
			"name":"tyre_005.001",
			"rotation":[
				0.7071068286895752,
				0,
				0,
				0.7071068286895752
			]
		},
		{
			"mesh":5,
			"name":"tyre_006.001",
			"rotation":[
				0.7071068286895752,
				0,
				0,
				0.7071068286895752
			]
		},
		{
			"mesh":6,
			"name":"tyre_007.001",
			"rotation":[
				0.7071068286895752,
				0,
				0,
				0.7071068286895752
			]
		},
		{
			"mesh":7,
			"name":"tyre_008.001",
			"rotation":[
				0.7071068286895752,
				0,
				0,
				0.7071068286895752
			]
		}
	],
	"materials":[
		{
			"doubleSided":true,
			"name":"dcl.PiratesPack",
			"pbrMetallicRoughness":{
				"baseColorTexture":{
					"index":0
				},
				"metallicFactor":0
			}
		},
		{
			"doubleSided":true,
			"emissiveFactor":[
				1,
				1,
				1
			],
			"emissiveTexture":{
				"index":1
			},
			"name":"dcl.PiratesPack.emissive",
			"pbrMetallicRoughness":{
				"baseColorTexture":{
					"index":2
				},
				"metallicFactor":0
			}
		}
	],
	"meshes":[
		{
			"name":"Cube.148",
			"primitives":[
				{
					"attributes":{
						"POSITION":0,
						"NORMAL":1,
						"TEXCOORD_0":2
					},
					"indices":3
				}
			]
		},
		{
			"name":"Cylinder.133",
			"primitives":[
				{
					"attributes":{
						"POSITION":4,
						"NORMAL":5,
						"TEXCOORD_0":6
					},
					"indices":7,
					"material":0
				}
			]
		},
		{
			"name":"Cube.149",
			"primitives":[
				{
					"attributes":{
						"POSITION":8,
						"NORMAL":9,
						"TEXCOORD_0":10
					},
					"indices":11,
					"material":0
				}
			]
		},
		{
			"name":"Plane.023",
			"primitives":[
				{
					"attributes":{
						"POSITION":12,
						"NORMAL":13,
						"TEXCOORD_0":14,
						"TANGENT":15
					},
					"indices":16,
					"material":1
				}
			]
		},
		{
			"name":"Cube.150",
			"primitives":[
				{
					"attributes":{
						"POSITION":17,
						"NORMAL":18,
						"TEXCOORD_0":19
					},
					"indices":20,
					"material":0
				}
			]
		},
		{
			"name":"Cube.151",
			"primitives":[
				{
					"attributes":{
						"POSITION":21,
						"NORMAL":22,
						"TEXCOORD_0":23
					},
					"indices":24,
					"material":0
				}
			]
		},
		{
			"name":"Cube.152",
			"primitives":[
				{
					"attributes":{
						"POSITION":25,
						"NORMAL":26,
						"TEXCOORD_0":27
					},
					"indices":28,
					"material":0
				}
			]
		},
		{
			"name":"Cube.153",
			"primitives":[
				{
					"attributes":{
						"POSITION":29,
						"NORMAL":30,
						"TEXCOORD_0":31
					},
					"indices":32,
					"material":0
				}
			]
		}
	],
	"textures":[
		{
			"sampler":0,
			"source":0
		},
		{
			"sampler":0,
			"source":0
		},
		{
			"sampler":0,
			"source":0
		}
	],
	"images":[
		{
			"mimeType":"image/png",
			"name":"PiratesPack_TX",
			"uri":"tex/PiratesPack_TX.png"
		}
	],
	"accessors":[
		{
			"bufferView":0,
			"componentType":5126,
			"count":74,
			"max":[
				4,
				0.07680392265319824,
				10.459592819213867
			],
			"min":[
				1.9526019096374512,
				-4,
				2.0826268196105957
			],
			"type":"VEC3"
		},
		{
			"bufferView":1,
			"componentType":5126,
			"count":74,
			"type":"VEC3"
		},
		{
			"bufferView":2,
			"componentType":5126,
			"count":74,
			"type":"VEC2"
		},
		{
			"bufferView":3,
			"componentType":5123,
			"count":192,
			"type":"SCALAR"
		},
		{
			"bufferView":4,
			"componentType":5126,
			"count":50,
			"max":[
				4,
				1.6000008583068848,
				1.0000267028808594
			],
			"min":[
				-4,
				-10.899999618530273,
				3.254413604736328e-05
			],
			"type":"VEC3"
		},
		{
			"bufferView":5,
			"componentType":5126,
			"count":50,
			"type":"VEC3"
		},
		{
			"bufferView":6,
			"componentType":5126,
			"count":50,
			"type":"VEC2"
		},
		{
			"bufferView":7,
			"componentType":5123,
			"count":108,
			"type":"SCALAR"
		},
		{
			"bufferView":8,
			"componentType":5126,
			"count":36,
			"max":[
				4,
				-10.65999984741211,
				0
			],
			"min":[
				-4,
				-10.899999618530273,
				-4
			],
			"type":"VEC3"
		},
		{
			"bufferView":9,
			"componentType":5126,
			"count":36,
			"type":"VEC3"
		},
		{
			"bufferView":10,
			"componentType":5126,
			"count":36,
			"type":"VEC2"
		},
		{
			"bufferView":11,
			"componentType":5123,
			"count":60,
			"type":"SCALAR"
		},
		{
			"bufferView":12,
			"componentType":5126,
			"count":8,
			"max":[
				13.375003814697266,
				-0.09997664391994476,
				0.08387750387191772
			],
			"min":[
				6.375003814697266,
				-0.09997688978910446,
				-0.054999709129333496
			],
			"type":"VEC3"
		},
		{
			"bufferView":13,
			"componentType":5126,
			"count":8,
			"type":"VEC3"
		},
		{
			"bufferView":14,
			"componentType":5126,
			"count":8,
			"type":"VEC2"
		},
		{
			"bufferView":15,
			"componentType":5126,
			"count":8,
			"type":"VEC4"
		},
		{
			"bufferView":16,
			"componentType":5123,
			"count":12,
			"type":"SCALAR"
		},
		{
			"bufferView":17,
			"componentType":5126,
			"count":180,
			"max":[
				4,
				-0.034766554832458496,
				10.65999984741211
			],
			"min":[
				2.0230770111083984,
				-3.907278060913086,
				8.65999984741211
			],
			"type":"VEC3"
		},
		{
			"bufferView":18,
			"componentType":5126,
			"count":180,
			"type":"VEC3"
		},
		{
			"bufferView":19,
			"componentType":5126,
			"count":180,
			"type":"VEC2"
		},
		{
			"bufferView":20,
			"componentType":5123,
			"count":474,
			"type":"SCALAR"
		},
		{
			"bufferView":21,
			"componentType":5126,
			"count":141,
			"max":[
				4,
				-0.06913900375366211,
				8.64003849029541
			],
			"min":[
				2.2365474700927734,
				-3.872905731201172,
				6.64003849029541
			],
			"type":"VEC3"
		},
		{
			"bufferView":22,
			"componentType":5126,
			"count":141,
			"type":"VEC3"
		},
		{
			"bufferView":23,
			"componentType":5126,
			"count":141,
			"type":"VEC2"
		},
		{
			"bufferView":24,
			"componentType":5123,
			"count":375,
			"type":"SCALAR"
		},
		{
			"bufferView":25,
			"componentType":5126,
			"count":189,
			"max":[
				4,
				-0.22314345836639404,
				6.582625865936279
			],
			"min":[
				2.033864974975586,
				-4,
				4.582625865936279
			],
			"type":"VEC3"
		},
		{
			"bufferView":26,
			"componentType":5126,
			"count":189,
			"type":"VEC3"
		},
		{
			"bufferView":27,
			"componentType":5126,
			"count":189,
			"type":"VEC2"
		},
		{
			"bufferView":28,
			"componentType":5123,
			"count":495,
			"type":"SCALAR"
		},
		{
			"bufferView":29,
			"componentType":5126,
			"count":141,
			"max":[
				4,
				-0.08300375938415527,
				4.582625865936279
			],
			"min":[
				2.151773452758789,
				-3.9204957485198975,
				2.5826258659362793
			],
			"type":"VEC3"
		},
		{
			"bufferView":30,
			"componentType":5126,
			"count":141,
			"type":"VEC3"
		},
		{
			"bufferView":31,
			"componentType":5126,
			"count":141,
			"type":"VEC2"
		},
		{
			"bufferView":32,
			"componentType":5123,
			"count":375,
			"type":"SCALAR"
		}
	],
	"bufferViews":[
		{
			"buffer":0,
			"byteLength":888,
			"byteOffset":0,
			"target":34962
		},
		{
			"buffer":0,
			"byteLength":888,
			"byteOffset":888,
			"target":34962
		},
		{
			"buffer":0,
			"byteLength":592,
			"byteOffset":1776,
			"target":34962
		},
		{
			"buffer":0,
			"byteLength":384,
			"byteOffset":2368,
			"target":34963
		},
		{
			"buffer":0,
			"byteLength":600,
			"byteOffset":2752,
			"target":34962
		},
		{
			"buffer":0,
			"byteLength":600,
			"byteOffset":3352,
			"target":34962
		},
		{
			"buffer":0,
			"byteLength":400,
			"byteOffset":3952,
			"target":34962
		},
		{
			"buffer":0,
			"byteLength":216,
			"byteOffset":4352,
			"target":34963
		},
		{
			"buffer":0,
			"byteLength":432,
			"byteOffset":4568,
			"target":34962
		},
		{
			"buffer":0,
			"byteLength":432,
			"byteOffset":5000,
			"target":34962
		},
		{
			"buffer":0,
			"byteLength":288,
			"byteOffset":5432,
			"target":34962
		},
		{
			"buffer":0,
			"byteLength":120,
			"byteOffset":5720,
			"target":34963
		},
		{
			"buffer":0,
			"byteLength":96,
			"byteOffset":5840,
			"target":34962
		},
		{
			"buffer":0,
			"byteLength":96,
			"byteOffset":5936,
			"target":34962
		},
		{
			"buffer":0,
			"byteLength":64,
			"byteOffset":6032,
			"target":34962
		},
		{
			"buffer":0,
			"byteLength":128,
			"byteOffset":6096,
			"target":34962
		},
		{
			"buffer":0,
			"byteLength":24,
			"byteOffset":6224,
			"target":34963
		},
		{
			"buffer":0,
			"byteLength":2160,
			"byteOffset":6248,
			"target":34962
		},
		{
			"buffer":0,
			"byteLength":2160,
			"byteOffset":8408,
			"target":34962
		},
		{
			"buffer":0,
			"byteLength":1440,
			"byteOffset":10568,
			"target":34962
		},
		{
			"buffer":0,
			"byteLength":948,
			"byteOffset":12008,
			"target":34963
		},
		{
			"buffer":0,
			"byteLength":1692,
			"byteOffset":12956,
			"target":34962
		},
		{
			"buffer":0,
			"byteLength":1692,
			"byteOffset":14648,
			"target":34962
		},
		{
			"buffer":0,
			"byteLength":1128,
			"byteOffset":16340,
			"target":34962
		},
		{
			"buffer":0,
			"byteLength":750,
			"byteOffset":17468,
			"target":34963
		},
		{
			"buffer":0,
			"byteLength":2268,
			"byteOffset":18220,
			"target":34962
		},
		{
			"buffer":0,
			"byteLength":2268,
			"byteOffset":20488,
			"target":34962
		},
		{
			"buffer":0,
			"byteLength":1512,
			"byteOffset":22756,
			"target":34962
		},
		{
			"buffer":0,
			"byteLength":990,
			"byteOffset":24268,
			"target":34963
		},
		{
			"buffer":0,
			"byteLength":1692,
			"byteOffset":25260,
			"target":34962
		},
		{
			"buffer":0,
			"byteLength":1692,
			"byteOffset":26952,
			"target":34962
		},
		{
			"buffer":0,
			"byteLength":1128,
			"byteOffset":28644,
			"target":34962
		},
		{
			"buffer":0,
			"byteLength":750,
			"byteOffset":29772,
			"target":34963
		}
	],
	"samplers":[
		{
			"magFilter":9729,
			"minFilter":9987
		}
	],
	"buffers":[
		{
			"byteLength":30524,
			"uri":"tile_3_0_0.bin"
		}
	]
}
