{
	"asset":{
		"generator":"Khronos glTF Blender I/O v4.0.44",
		"version":"2.0"
	},
	"scene":0,
	"scenes":[
		{
			"name":"Scene",
			"nodes":[
				0,
				1,
				2,
				3,
				4,
				5
			]
		}
	],
	"nodes":[
		{
			"mesh":0,
			"name":"pipe.west_collider",
			"rotation":[
				0,
				-0.7071068286895752,
				0.7071068286895752,
				3.4560699191388267e-07
			]
		},
		{
			"mesh":1,
			"name":"wall.west.002"
		},
		{
			"mesh":2,
			"name":"ground"
		},
		{
			"name":"decal.main",
			"rotation":[
				0,
				-0.7071068286895752,
				0.7071068286895752,
				3.4560699191388267e-07
			]
		},
		{
			"mesh":3,
			"name":"neons.002",
			"rotation":[
				0.7071068286895752,
				-0.7071068286895752,
				0,
				1.1520234011186403e-07
			],
			"scale":[
				0.19999998807907104,
				1,
				44.15021896362305
			]
		},
		{
			"mesh":4,
			"name":"pipe.west.001",
			"rotation":[
				0,
				-0.7071068286895752,
				0.7071068286895752,
				3.4560699191388267e-07
			]
		}
	],
	"materials":[
		{
			"doubleSided":true,
			"name":"dcl.PiratesPack",
			"pbrMetallicRoughness":{
				"baseColorTexture":{
					"index":0
				},
				"metallicFactor":0
			}
		},
		{
			"doubleSided":true,
			"emissiveFactor":[
				1,
				1,
				1
			],
			"emissiveTexture":{
				"index":1
			},
			"name":"dcl.PiratesPack.emissive",
			"pbrMetallicRoughness":{
				"baseColorTexture":{
					"index":2
				},
				"metallicFactor":0
			}
		}
	],
	"meshes":[
		{
			"name":"Cylinder.020",
			"primitives":[
				{
					"attributes":{
						"POSITION":0,
						"NORMAL":1,
						"TEXCOORD_0":2
					},
					"indices":3
				}
			]
		},
		{
			"name":"Cylinder.021",
			"primitives":[
				{
					"attributes":{
						"POSITION":4,
						"NORMAL":5,
						"TEXCOORD_0":6
					},
					"indices":7,
					"material":0
				}
			]
		},
		{
			"name":"Cube.032",
			"primitives":[
				{
					"attributes":{
						"POSITION":8,
						"NORMAL":9,
						"TEXCOORD_0":10
					},
					"indices":11,
					"material":0
				}
			]
		},
		{
			"name":"Plane.004",
			"primitives":[
				{
					"attributes":{
						"POSITION":12,
						"NORMAL":13,
						"TEXCOORD_0":14,
						"TANGENT":15
					},
					"indices":16,
					"material":1
				}
			]
		},
		{
			"name":"Cylinder.023",
			"primitives":[
				{
					"attributes":{
						"POSITION":17,
						"NORMAL":18,
						"TEXCOORD_0":19
					},
					"indices":20,
					"material":0
				},
				{
					"attributes":{
						"POSITION":21,
						"NORMAL":22,
						"TEXCOORD_0":23
					},
					"indices":24,
					"material":1
				}
			]
		}
	],
	"textures":[
		{
			"sampler":0,
			"source":0
		},
		{
			"sampler":0,
			"source":0
		},
		{
			"sampler":0,
			"source":0
		}
	],
	"images":[
		{
			"mimeType":"image/png",
			"name":"PiratesPack_TX",
			"uri":"tex/PiratesPack_TX.png"
		}
	],
	"accessors":[
		{
			"bufferView":0,
			"componentType":5126,
			"count":39,
			"max":[
				2.499922037124634,
				3.999998092651367,
				10.350963592529297
			],
			"min":[
				-4.000027179718018,
				-4.000001907348633,
				7.552474021911621
			],
			"type":"VEC3"
		},
		{
			"bufferView":1,
			"componentType":5126,
			"count":39,
			"type":"VEC3"
		},
		{
			"bufferView":2,
			"componentType":5126,
			"count":39,
			"type":"VEC2"
		},
		{
			"bufferView":3,
			"componentType":5123,
			"count":87,
			"type":"SCALAR"
		},
		{
			"bufferView":4,
			"componentType":5126,
			"count":21,
			"max":[
				-2.4999608993530273,
				7.900005340576172,
				4
			],
			"min":[
				-3.4899849891662598,
				-10.850001335144043,
				-4
			],
			"type":"VEC3"
		},
		{
			"bufferView":5,
			"componentType":5126,
			"count":21,
			"type":"VEC3"
		},
		{
			"bufferView":6,
			"componentType":5126,
			"count":21,
			"type":"VEC2"
		},
		{
			"bufferView":7,
			"componentType":5123,
			"count":33,
			"type":"SCALAR"
		},
		{
			"bufferView":8,
			"componentType":5126,
			"count":36,
			"max":[
				4,
				-10.65999984741211,
				4
			],
			"min":[
				-2.9999542236328125,
				-10.899999618530273,
				-4
			],
			"type":"VEC3"
		},
		{
			"bufferView":9,
			"componentType":5126,
			"count":36,
			"type":"VEC3"
		},
		{
			"bufferView":10,
			"componentType":5126,
			"count":36,
			"type":"VEC2"
		},
		{
			"bufferView":11,
			"componentType":5123,
			"count":60,
			"type":"SCALAR"
		},
		{
			"bufferView":12,
			"componentType":5126,
			"count":8,
			"max":[
				13.374984741210938,
				2.449934482574463,
				0.09059968590736389
			],
			"min":[
				6.3749847412109375,
				2.449934482574463,
				-0.09059986472129822
			],
			"type":"VEC3"
		},
		{
			"bufferView":13,
			"componentType":5126,
			"count":8,
			"type":"VEC3"
		},
		{
			"bufferView":14,
			"componentType":5126,
			"count":8,
			"type":"VEC2"
		},
		{
			"bufferView":15,
			"componentType":5126,
			"count":8,
			"type":"VEC4"
		},
		{
			"bufferView":16,
			"componentType":5123,
			"count":12,
			"type":"SCALAR"
		},
		{
			"bufferView":17,
			"componentType":5126,
			"count":40,
			"max":[
				2.499922037124634,
				4,
				10.350963592529297
			],
			"min":[
				-4.000027179718018,
				-4,
				7.552474021911621
			],
			"type":"VEC3"
		},
		{
			"bufferView":18,
			"componentType":5126,
			"count":40,
			"type":"VEC3"
		},
		{
			"bufferView":19,
			"componentType":5126,
			"count":40,
			"type":"VEC2"
		},
		{
			"bufferView":20,
			"componentType":5123,
			"count":87,
			"type":"SCALAR"
		},
		{
			"bufferView":21,
			"componentType":5126,
			"count":8,
			"max":[
				-3.0000429153442383,
				4,
				8.159994125366211
			],
			"min":[
				-3.000051498413086,
				-4,
				7.552474021911621
			],
			"type":"VEC3"
		},
		{
			"bufferView":22,
			"componentType":5126,
			"count":8,
			"type":"VEC3"
		},
		{
			"bufferView":23,
			"componentType":5126,
			"count":8,
			"type":"VEC2"
		},
		{
			"bufferView":24,
			"componentType":5123,
			"count":12,
			"type":"SCALAR"
		}
	],
	"bufferViews":[
		{
			"buffer":0,
			"byteLength":468,
			"byteOffset":0,
			"target":34962
		},
		{
			"buffer":0,
			"byteLength":468,
			"byteOffset":468,
			"target":34962
		},
		{
			"buffer":0,
			"byteLength":312,
			"byteOffset":936,
			"target":34962
		},
		{
			"buffer":0,
			"byteLength":174,
			"byteOffset":1248,
			"target":34963
		},
		{
			"buffer":0,
			"byteLength":252,
			"byteOffset":1424,
			"target":34962
		},
		{
			"buffer":0,
			"byteLength":252,
			"byteOffset":1676,
			"target":34962
		},
		{
			"buffer":0,
			"byteLength":168,
			"byteOffset":1928,
			"target":34962
		},
		{
			"buffer":0,
			"byteLength":66,
			"byteOffset":2096,
			"target":34963
		},
		{
			"buffer":0,
			"byteLength":432,
			"byteOffset":2164,
			"target":34962
		},
		{
			"buffer":0,
			"byteLength":432,
			"byteOffset":2596,
			"target":34962
		},
		{
			"buffer":0,
			"byteLength":288,
			"byteOffset":3028,
			"target":34962
		},
		{
			"buffer":0,
			"byteLength":120,
			"byteOffset":3316,
			"target":34963
		},
		{
			"buffer":0,
			"byteLength":96,
			"byteOffset":3436,
			"target":34962
		},
		{
			"buffer":0,
			"byteLength":96,
			"byteOffset":3532,
			"target":34962
		},
		{
			"buffer":0,
			"byteLength":64,
			"byteOffset":3628,
			"target":34962
		},
		{
			"buffer":0,
			"byteLength":128,
			"byteOffset":3692,
			"target":34962
		},
		{
			"buffer":0,
			"byteLength":24,
			"byteOffset":3820,
			"target":34963
		},
		{
			"buffer":0,
			"byteLength":480,
			"byteOffset":3844,
			"target":34962
		},
		{
			"buffer":0,
			"byteLength":480,
			"byteOffset":4324,
			"target":34962
		},
		{
			"buffer":0,
			"byteLength":320,
			"byteOffset":4804,
			"target":34962
		},
		{
			"buffer":0,
			"byteLength":174,
			"byteOffset":5124,
			"target":34963
		},
		{
			"buffer":0,
			"byteLength":96,
			"byteOffset":5300,
			"target":34962
		},
		{
			"buffer":0,
			"byteLength":96,
			"byteOffset":5396,
			"target":34962
		},
		{
			"buffer":0,
			"byteLength":64,
			"byteOffset":5492,
			"target":34962
		},
		{
			"buffer":0,
			"byteLength":24,
			"byteOffset":5556,
			"target":34963
		}
	],
	"samplers":[
		{
			"magFilter":9729,
			"minFilter":9987
		}
	],
	"buffers":[
		{
			"byteLength":5580,
			"uri":"tile_0_0_2.bin"
		}
	]
}
