{
	"asset":{
		"generator":"Khronos glTF Blender I/O v4.0.44",
		"version":"2.0"
	},
	"scene":0,
	"scenes":[
		{
			"name":"Scene",
			"nodes":[
				0,
				1,
				2,
				3
			]
		}
	],
	"nodes":[
		{
			"mesh":0,
			"name":"pipe.main_collider",
			"rotation":[
				0.7071068286895752,
				0,
				0,
				0.7071068286895752
			]
		},
		{
			"mesh":1,
			"name":"ground"
		},
		{
			"mesh":2,
			"name":"pipe.main",
			"rotation":[
				0.7071068286895752,
				0,
				0,
				0.7071068286895752
			],
			"scale":[
				2,
				2,
				2
			]
		},
		{
			"mesh":3,
			"name":"pipe.main.rim",
			"rotation":[
				0.7071068286895752,
				0,
				0,
				0.7071068286895752
			],
			"scale":[
				2,
				2,
				2
			]
		}
	],
	"materials":[
		{
			"doubleSided":true,
			"name":"dcl.PiratesPack",
			"pbrMetallicRoughness":{
				"baseColorTexture":{
					"index":0
				},
				"metallicFactor":0
			}
		}
	],
	"meshes":[
		{
			"name":"Cylinder.361",
			"primitives":[
				{
					"attributes":{
						"POSITION":0,
						"NORMAL":1,
						"TEXCOORD_0":2
					},
					"indices":3
				}
			]
		},
		{
			"name":"Cube.349",
			"primitives":[
				{
					"attributes":{
						"POSITION":4,
						"NORMAL":5,
						"TEXCOORD_0":6,
						"TANGENT":7
					},
					"indices":8,
					"material":0
				}
			]
		},
		{
			"name":"Cylinder.362",
			"primitives":[
				{
					"attributes":{
						"POSITION":9,
						"NORMAL":10,
						"TEXCOORD_0":11
					},
					"indices":12,
					"material":0
				}
			]
		},
		{
			"name":"Cylinder.363",
			"primitives":[
				{
					"attributes":{
						"POSITION":13,
						"NORMAL":14,
						"TEXCOORD_0":15
					},
					"indices":16,
					"material":0
				}
			]
		}
	],
	"textures":[
		{
			"sampler":0,
			"source":0
		}
	],
	"images":[
		{
			"mimeType":"image/png",
			"name":"PiratesPack_TX",
			"uri":"tex/PiratesPack_TX.png"
		}
	],
	"accessors":[
		{
			"bufferView":0,
			"componentType":5126,
			"count":194,
			"max":[
				4.0000152587890625,
				4.000003814697266,
				10.650001525878906
			],
			"min":[
				-3.9999847412109375,
				-3.9999961853027344,
				7.650000095367432
			],
			"type":"VEC3"
		},
		{
			"bufferView":1,
			"componentType":5126,
			"count":194,
			"type":"VEC3"
		},
		{
			"bufferView":2,
			"componentType":5126,
			"count":194,
			"type":"VEC2"
		},
		{
			"bufferView":3,
			"componentType":5123,
			"count":330,
			"type":"SCALAR"
		},
		{
			"bufferView":4,
			"componentType":5126,
			"count":24,
			"max":[
				4,
				-10.65999984741211,
				4
			],
			"min":[
				-4,
				-10.899999618530273,
				-4
			],
			"type":"VEC3"
		},
		{
			"bufferView":5,
			"componentType":5126,
			"count":24,
			"type":"VEC3"
		},
		{
			"bufferView":6,
			"componentType":5126,
			"count":24,
			"type":"VEC2"
		},
		{
			"bufferView":7,
			"componentType":5126,
			"count":24,
			"type":"VEC4"
		},
		{
			"bufferView":8,
			"componentType":5123,
			"count":36,
			"type":"SCALAR"
		},
		{
			"bufferView":9,
			"componentType":5126,
			"count":204,
			"max":[
				2.0000011920928955,
				2.0000009536743164,
				7.5
			],
			"min":[
				-2.0000009536743164,
				-2.0000009536743164,
				3.825000047683716
			],
			"type":"VEC3"
		},
		{
			"bufferView":10,
			"componentType":5126,
			"count":204,
			"type":"VEC3"
		},
		{
			"bufferView":11,
			"componentType":5126,
			"count":204,
			"type":"VEC2"
		},
		{
			"bufferView":12,
			"componentType":5123,
			"count":372,
			"type":"SCALAR"
		},
		{
			"bufferView":13,
			"componentType":5126,
			"count":152,
			"max":[
				1.9999992847442627,
				1.1439504623413086,
				4.431948661804199
			],
			"min":[
				-1.1527538299560547,
				-2.000000476837158,
				3.7906172275543213
			],
			"type":"VEC3"
		},
		{
			"bufferView":14,
			"componentType":5126,
			"count":152,
			"type":"VEC3"
		},
		{
			"bufferView":15,
			"componentType":5126,
			"count":152,
			"type":"VEC2"
		},
		{
			"bufferView":16,
			"componentType":5123,
			"count":234,
			"type":"SCALAR"
		}
	],
	"bufferViews":[
		{
			"buffer":0,
			"byteLength":2328,
			"byteOffset":0,
			"target":34962
		},
		{
			"buffer":0,
			"byteLength":2328,
			"byteOffset":2328,
			"target":34962
		},
		{
			"buffer":0,
			"byteLength":1552,
			"byteOffset":4656,
			"target":34962
		},
		{
			"buffer":0,
			"byteLength":660,
			"byteOffset":6208,
			"target":34963
		},
		{
			"buffer":0,
			"byteLength":288,
			"byteOffset":6868,
			"target":34962
		},
		{
			"buffer":0,
			"byteLength":288,
			"byteOffset":7156,
			"target":34962
		},
		{
			"buffer":0,
			"byteLength":192,
			"byteOffset":7444,
			"target":34962
		},
		{
			"buffer":0,
			"byteLength":384,
			"byteOffset":7636,
			"target":34962
		},
		{
			"buffer":0,
			"byteLength":72,
			"byteOffset":8020,
			"target":34963
		},
		{
			"buffer":0,
			"byteLength":2448,
			"byteOffset":8092,
			"target":34962
		},
		{
			"buffer":0,
			"byteLength":2448,
			"byteOffset":10540,
			"target":34962
		},
		{
			"buffer":0,
			"byteLength":1632,
			"byteOffset":12988,
			"target":34962
		},
		{
			"buffer":0,
			"byteLength":744,
			"byteOffset":14620,
			"target":34963
		},
		{
			"buffer":0,
			"byteLength":1824,
			"byteOffset":15364,
			"target":34962
		},
		{
			"buffer":0,
			"byteLength":1824,
			"byteOffset":17188,
			"target":34962
		},
		{
			"buffer":0,
			"byteLength":1216,
			"byteOffset":19012,
			"target":34962
		},
		{
			"buffer":0,
			"byteLength":468,
			"byteOffset":20228,
			"target":34963
		}
	],
	"samplers":[
		{
			"magFilter":9729,
			"minFilter":9987
		}
	],
	"buffers":[
		{
			"byteLength":20696,
			"uri":"tile_9_0_3.bin"
		}
	]
}
