{
	"asset":{
		"generator":"Khronos glTF Blender I/O v4.0.44",
		"version":"2.0"
	},
	"scene":0,
	"scenes":[
		{
			"name":"Scene",
			"nodes":[
				0,
				1,
				2,
				3,
				4,
				5,
				6,
				7
			]
		}
	],
	"nodes":[
		{
			"mesh":0,
			"name":"pipe.west_collider",
			"rotation":[
				0,
				-0.7071068286895752,
				0.7071068286895752,
				3.4560699191388267e-07
			]
		},
		{
			"mesh":1,
			"name":"ramp.box.01_collider"
		},
		{
			"mesh":2,
			"name":"wall.south.001"
		},
		{
			"mesh":3,
			"name":"ground"
		},
		{
			"name":"decal.main",
			"rotation":[
				0,
				-0.7071068286895752,
				0.7071068286895752,
				3.4560699191388267e-07
			]
		},
		{
			"mesh":4,
			"name":"neons.003",
			"rotation":[
				0.4999999403953552,
				-0.49999988079071045,
				-0.5000001192092896,
				0.5000001192092896
			],
			"scale":[
				0.19999998807907104,
				1,
				47.68861770629883
			]
		},
		{
			"mesh":5,
			"name":"pipe.west.001",
			"rotation":[
				0,
				-0.7071068286895752,
				0.7071068286895752,
				3.4560699191388267e-07
			]
		},
		{
			"mesh":6,
			"name":"ramp.box.01"
		}
	],
	"materials":[
		{
			"doubleSided":true,
			"name":"dcl.PiratesPack",
			"pbrMetallicRoughness":{
				"baseColorTexture":{
					"index":0
				},
				"metallicFactor":0
			}
		},
		{
			"doubleSided":true,
			"emissiveFactor":[
				1,
				1,
				1
			],
			"emissiveTexture":{
				"index":1
			},
			"name":"dcl.PiratesPack.emissive",
			"pbrMetallicRoughness":{
				"baseColorTexture":{
					"index":2
				},
				"metallicFactor":0
			}
		}
	],
	"meshes":[
		{
			"name":"Cylinder.073",
			"primitives":[
				{
					"attributes":{
						"POSITION":0,
						"NORMAL":1,
						"TEXCOORD_0":2,
						"TANGENT":3
					},
					"indices":4
				}
			]
		},
		{
			"name":"Cube.062",
			"primitives":[
				{
					"attributes":{
						"POSITION":5,
						"NORMAL":6,
						"TEXCOORD_0":7
					},
					"indices":8
				}
			]
		},
		{
			"name":"Cylinder.074",
			"primitives":[
				{
					"attributes":{
						"POSITION":9,
						"NORMAL":10,
						"TEXCOORD_0":11,
						"TANGENT":12
					},
					"indices":13,
					"material":0
				}
			]
		},
		{
			"name":"Cube.063",
			"primitives":[
				{
					"attributes":{
						"POSITION":14,
						"NORMAL":15,
						"TEXCOORD_0":16
					},
					"indices":17,
					"material":0
				}
			]
		},
		{
			"name":"Plane.015",
			"primitives":[
				{
					"attributes":{
						"POSITION":18,
						"NORMAL":19,
						"TEXCOORD_0":20,
						"TANGENT":21
					},
					"indices":22,
					"material":1
				}
			]
		},
		{
			"name":"Cylinder.076",
			"primitives":[
				{
					"attributes":{
						"POSITION":23,
						"NORMAL":24,
						"TEXCOORD_0":25,
						"TANGENT":26
					},
					"indices":27,
					"material":0
				},
				{
					"attributes":{
						"POSITION":28,
						"NORMAL":29,
						"TEXCOORD_0":30,
						"TANGENT":31
					},
					"indices":32,
					"material":1
				}
			]
		},
		{
			"name":"Cube.064",
			"primitives":[
				{
					"attributes":{
						"POSITION":33,
						"NORMAL":34,
						"TEXCOORD_0":35
					},
					"indices":36,
					"material":0
				}
			]
		}
	],
	"textures":[
		{
			"sampler":0,
			"source":0
		},
		{
			"sampler":0,
			"source":0
		},
		{
			"sampler":0,
			"source":0
		}
	],
	"images":[
		{
			"mimeType":"image/png",
			"name":"PiratesPack_TX",
			"uri":"tex/PiratesPack_TX.png"
		}
	],
	"accessors":[
		{
			"bufferView":0,
			"componentType":5126,
			"count":7,
			"max":[
				3.9999570846557617,
				4.000007629394531,
				10.659994125366211
			],
			"min":[
				2.4999189376831055,
				-0.7972946166992188,
				10.350950241088867
			],
			"type":"VEC3"
		},
		{
			"bufferView":1,
			"componentType":5126,
			"count":7,
			"type":"VEC3"
		},
		{
			"bufferView":2,
			"componentType":5126,
			"count":7,
			"type":"VEC2"
		},
		{
			"bufferView":3,
			"componentType":5126,
			"count":7,
			"type":"VEC4"
		},
		{
			"bufferView":4,
			"componentType":5123,
			"count":15,
			"type":"SCALAR"
		},
		{
			"bufferView":5,
			"componentType":5126,
			"count":71,
			"max":[
				4.000000953674316,
				-8.51350212097168,
				-0.05996084213256836
			],
			"min":[
				1.2120180130004883,
				-10.670757293701172,
				-3.0599608421325684
			],
			"type":"VEC3"
		},
		{
			"bufferView":6,
			"componentType":5126,
			"count":71,
			"type":"VEC3"
		},
		{
			"bufferView":7,
			"componentType":5126,
			"count":71,
			"type":"VEC2"
		},
		{
			"bufferView":8,
			"componentType":5123,
			"count":123,
			"type":"SCALAR"
		},
		{
			"bufferView":9,
			"componentType":5126,
			"count":24,
			"max":[
				4,
				1.6000008583068848,
				1.0000298023223877
			],
			"min":[
				-4,
				-10.899999618530273,
				3.546476364135742e-05
			],
			"type":"VEC3"
		},
		{
			"bufferView":10,
			"componentType":5126,
			"count":24,
			"type":"VEC3"
		},
		{
			"bufferView":11,
			"componentType":5126,
			"count":24,
			"type":"VEC2"
		},
		{
			"bufferView":12,
			"componentType":5126,
			"count":24,
			"type":"VEC4"
		},
		{
			"bufferView":13,
			"componentType":5123,
			"count":36,
			"type":"SCALAR"
		},
		{
			"bufferView":14,
			"componentType":5126,
			"count":36,
			"max":[
				4,
				-10.65999984741211,
				0
			],
			"min":[
				-4,
				-10.899999618530273,
				-4
			],
			"type":"VEC3"
		},
		{
			"bufferView":15,
			"componentType":5126,
			"count":36,
			"type":"VEC3"
		},
		{
			"bufferView":16,
			"componentType":5126,
			"count":36,
			"type":"VEC2"
		},
		{
			"bufferView":17,
			"componentType":5123,
			"count":60,
			"type":"SCALAR"
		},
		{
			"bufferView":18,
			"componentType":5126,
			"count":8,
			"max":[
				13.375003814697266,
				-0.09996939450502396,
				0.08387750387191772
			],
			"min":[
				6.375003337860107,
				-0.09996967017650604,
				-0.08387738466262817
			],
			"type":"VEC3"
		},
		{
			"bufferView":19,
			"componentType":5126,
			"count":8,
			"type":"VEC3"
		},
		{
			"bufferView":20,
			"componentType":5126,
			"count":8,
			"type":"VEC2"
		},
		{
			"bufferView":21,
			"componentType":5126,
			"count":8,
			"type":"VEC4"
		},
		{
			"bufferView":22,
			"componentType":5123,
			"count":12,
			"type":"SCALAR"
		},
		{
			"bufferView":23,
			"componentType":5126,
			"count":6,
			"max":[
				3.9999570846557617,
				4.000007629394531,
				10.630556106567383
			],
			"min":[
				3.132601737976074,
				-0.7972984313964844,
				10.350950241088867
			],
			"type":"VEC3"
		},
		{
			"bufferView":24,
			"componentType":5126,
			"count":6,
			"type":"VEC3"
		},
		{
			"bufferView":25,
			"componentType":5126,
			"count":6,
			"type":"VEC2"
		},
		{
			"bufferView":26,
			"componentType":5126,
			"count":6,
			"type":"VEC4"
		},
		{
			"bufferView":27,
			"componentType":5123,
			"count":12,
			"type":"SCALAR"
		},
		{
			"bufferView":28,
			"componentType":5126,
			"count":4,
			"max":[
				3.132606267929077,
				4.000007629394531,
				10.659994125366211
			],
			"min":[
				2.4999189376831055,
				-0.7972984313964844,
				10.630556106567383
			],
			"type":"VEC3"
		},
		{
			"bufferView":29,
			"componentType":5126,
			"count":4,
			"type":"VEC3"
		},
		{
			"bufferView":30,
			"componentType":5126,
			"count":4,
			"type":"VEC2"
		},
		{
			"bufferView":31,
			"componentType":5126,
			"count":4,
			"type":"VEC4"
		},
		{
			"bufferView":32,
			"componentType":5123,
			"count":6,
			"type":"SCALAR"
		},
		{
			"bufferView":33,
			"componentType":5126,
			"count":95,
			"max":[
				4.000000953674316,
				-8.51350212097168,
				-0.059960365295410156
			],
			"min":[
				1.2470064163208008,
				-10.639999389648438,
				-3.05996036529541
			],
			"type":"VEC3"
		},
		{
			"bufferView":34,
			"componentType":5126,
			"count":95,
			"type":"VEC3"
		},
		{
			"bufferView":35,
			"componentType":5126,
			"count":95,
			"type":"VEC2"
		},
		{
			"bufferView":36,
			"componentType":5123,
			"count":171,
			"type":"SCALAR"
		}
	],
	"bufferViews":[
		{
			"buffer":0,
			"byteLength":84,
			"byteOffset":0,
			"target":34962
		},
		{
			"buffer":0,
			"byteLength":84,
			"byteOffset":84,
			"target":34962
		},
		{
			"buffer":0,
			"byteLength":56,
			"byteOffset":168,
			"target":34962
		},
		{
			"buffer":0,
			"byteLength":112,
			"byteOffset":224,
			"target":34962
		},
		{
			"buffer":0,
			"byteLength":30,
			"byteOffset":336,
			"target":34963
		},
		{
			"buffer":0,
			"byteLength":852,
			"byteOffset":368,
			"target":34962
		},
		{
			"buffer":0,
			"byteLength":852,
			"byteOffset":1220,
			"target":34962
		},
		{
			"buffer":0,
			"byteLength":568,
			"byteOffset":2072,
			"target":34962
		},
		{
			"buffer":0,
			"byteLength":246,
			"byteOffset":2640,
			"target":34963
		},
		{
			"buffer":0,
			"byteLength":288,
			"byteOffset":2888,
			"target":34962
		},
		{
			"buffer":0,
			"byteLength":288,
			"byteOffset":3176,
			"target":34962
		},
		{
			"buffer":0,
			"byteLength":192,
			"byteOffset":3464,
			"target":34962
		},
		{
			"buffer":0,
			"byteLength":384,
			"byteOffset":3656,
			"target":34962
		},
		{
			"buffer":0,
			"byteLength":72,
			"byteOffset":4040,
			"target":34963
		},
		{
			"buffer":0,
			"byteLength":432,
			"byteOffset":4112,
			"target":34962
		},
		{
			"buffer":0,
			"byteLength":432,
			"byteOffset":4544,
			"target":34962
		},
		{
			"buffer":0,
			"byteLength":288,
			"byteOffset":4976,
			"target":34962
		},
		{
			"buffer":0,
			"byteLength":120,
			"byteOffset":5264,
			"target":34963
		},
		{
			"buffer":0,
			"byteLength":96,
			"byteOffset":5384,
			"target":34962
		},
		{
			"buffer":0,
			"byteLength":96,
			"byteOffset":5480,
			"target":34962
		},
		{
			"buffer":0,
			"byteLength":64,
			"byteOffset":5576,
			"target":34962
		},
		{
			"buffer":0,
			"byteLength":128,
			"byteOffset":5640,
			"target":34962
		},
		{
			"buffer":0,
			"byteLength":24,
			"byteOffset":5768,
			"target":34963
		},
		{
			"buffer":0,
			"byteLength":72,
			"byteOffset":5792,
			"target":34962
		},
		{
			"buffer":0,
			"byteLength":72,
			"byteOffset":5864,
			"target":34962
		},
		{
			"buffer":0,
			"byteLength":48,
			"byteOffset":5936,
			"target":34962
		},
		{
			"buffer":0,
			"byteLength":96,
			"byteOffset":5984,
			"target":34962
		},
		{
			"buffer":0,
			"byteLength":24,
			"byteOffset":6080,
			"target":34963
		},
		{
			"buffer":0,
			"byteLength":48,
			"byteOffset":6104,
			"target":34962
		},
		{
			"buffer":0,
			"byteLength":48,
			"byteOffset":6152,
			"target":34962
		},
		{
			"buffer":0,
			"byteLength":32,
			"byteOffset":6200,
			"target":34962
		},
		{
			"buffer":0,
			"byteLength":64,
			"byteOffset":6232,
			"target":34962
		},
		{
			"buffer":0,
			"byteLength":12,
			"byteOffset":6296,
			"target":34963
		},
		{
			"buffer":0,
			"byteLength":1140,
			"byteOffset":6308,
			"target":34962
		},
		{
			"buffer":0,
			"byteLength":1140,
			"byteOffset":7448,
			"target":34962
		},
		{
			"buffer":0,
			"byteLength":760,
			"byteOffset":8588,
			"target":34962
		},
		{
			"buffer":0,
			"byteLength":342,
			"byteOffset":9348,
			"target":34963
		}
	],
	"samplers":[
		{
			"magFilter":9729,
			"minFilter":9987
		}
	],
	"buffers":[
		{
			"byteLength":9692,
			"uri":"tile_1_0_0.bin"
		}
	]
}
