{
	"asset":{
		"generator":"Khronos glTF Blender I/O v4.0.44",
		"version":"2.0"
	},
	"scene":0,
	"scenes":[
		{
			"name":"Scene",
			"nodes":[
				0,
				1,
				2,
				3,
				4,
				5
			]
		}
	],
	"nodes":[
		{
			"mesh":0,
			"name":"pipe.main_collider",
			"rotation":[
				0.7071068286895752,
				0,
				0,
				0.7071068286895752
			]
		},
		{
			"mesh":1,
			"name":"ground"
		},
		{
			"mesh":2,
			"name":"wall.east.002"
		},
		{
			"mesh":3,
			"name":"neons.001",
			"rotation":[
				0,
				0,
				-0.7071068286895752,
				0.7071068286895752
			],
			"scale":[
				0.19999998807907104,
				1,
				44.15021896362305
			]
		},
		{
			"mesh":4,
			"name":"pipe.main",
			"rotation":[
				0.7071068286895752,
				0,
				0,
				0.7071068286895752
			],
			"scale":[
				2,
				2,
				2
			]
		},
		{
			"mesh":5,
			"name":"pipe.main.rim",
			"rotation":[
				0.7071068286895752,
				0,
				0,
				0.7071068286895752
			],
			"scale":[
				2,
				2,
				2
			]
		}
	],
	"materials":[
		{
			"doubleSided":true,
			"name":"dcl.PiratesPack",
			"pbrMetallicRoughness":{
				"baseColorTexture":{
					"index":0
				},
				"metallicFactor":0
			}
		},
		{
			"doubleSided":true,
			"emissiveFactor":[
				1,
				1,
				1
			],
			"emissiveTexture":{
				"index":1
			},
			"name":"dcl.PiratesPack.emissive",
			"pbrMetallicRoughness":{
				"baseColorTexture":{
					"index":2
				},
				"metallicFactor":0
			}
		}
	],
	"meshes":[
		{
			"name":"Cylinder.436",
			"primitives":[
				{
					"attributes":{
						"POSITION":0,
						"NORMAL":1,
						"TEXCOORD_0":2
					},
					"indices":3
				}
			]
		},
		{
			"name":"Cube.372",
			"primitives":[
				{
					"attributes":{
						"POSITION":4,
						"NORMAL":5,
						"TEXCOORD_0":6
					},
					"indices":7,
					"material":0
				}
			]
		},
		{
			"name":"Cylinder.437",
			"primitives":[
				{
					"attributes":{
						"POSITION":8,
						"NORMAL":9,
						"TEXCOORD_0":10,
						"TANGENT":11
					},
					"indices":12,
					"material":0
				}
			]
		},
		{
			"name":"Plane.042",
			"primitives":[
				{
					"attributes":{
						"POSITION":13,
						"NORMAL":14,
						"TEXCOORD_0":15,
						"TANGENT":16
					},
					"indices":17,
					"material":1
				}
			]
		},
		{
			"name":"Cylinder.438",
			"primitives":[
				{
					"attributes":{
						"POSITION":18,
						"NORMAL":19,
						"TEXCOORD_0":20
					},
					"indices":21,
					"material":0
				}
			]
		},
		{
			"name":"Cylinder.439",
			"primitives":[
				{
					"attributes":{
						"POSITION":22,
						"NORMAL":23,
						"TEXCOORD_0":24,
						"TANGENT":25
					},
					"indices":26,
					"material":0
				}
			]
		}
	],
	"textures":[
		{
			"sampler":0,
			"source":0
		},
		{
			"sampler":0,
			"source":0
		},
		{
			"sampler":0,
			"source":0
		}
	],
	"images":[
		{
			"mimeType":"image/png",
			"name":"PiratesPack_TX",
			"uri":"tex/PiratesPack_TX.png"
		}
	],
	"accessors":[
		{
			"bufferView":0,
			"componentType":5126,
			"count":66,
			"max":[
				4.000006675720215,
				3.9999923706054688,
				9.908692359924316
			],
			"min":[
				-3.9999847412109375,
				-4.000007629394531,
				7.650000095367432
			],
			"type":"VEC3"
		},
		{
			"bufferView":1,
			"componentType":5126,
			"count":66,
			"type":"VEC3"
		},
		{
			"bufferView":2,
			"componentType":5126,
			"count":66,
			"type":"VEC2"
		},
		{
			"bufferView":3,
			"componentType":5123,
			"count":129,
			"type":"SCALAR"
		},
		{
			"bufferView":4,
			"componentType":5126,
			"count":36,
			"max":[
				3.4499664306640625,
				-10.65999984741211,
				4
			],
			"min":[
				-4,
				-10.899999618530273,
				-4
			],
			"type":"VEC3"
		},
		{
			"bufferView":5,
			"componentType":5126,
			"count":36,
			"type":"VEC3"
		},
		{
			"bufferView":6,
			"componentType":5126,
			"count":36,
			"type":"VEC2"
		},
		{
			"bufferView":7,
			"componentType":5123,
			"count":60,
			"type":"SCALAR"
		},
		{
			"bufferView":8,
			"componentType":5126,
			"count":24,
			"max":[
				3.4666244983673096,
				7.9000091552734375,
				4
			],
			"min":[
				2.999980926513672,
				-10.850003242492676,
				-4
			],
			"type":"VEC3"
		},
		{
			"bufferView":9,
			"componentType":5126,
			"count":24,
			"type":"VEC3"
		},
		{
			"bufferView":10,
			"componentType":5126,
			"count":24,
			"type":"VEC2"
		},
		{
			"bufferView":11,
			"componentType":5126,
			"count":24,
			"type":"VEC4"
		},
		{
			"bufferView":12,
			"componentType":5123,
			"count":36,
			"type":"SCALAR"
		},
		{
			"bufferView":13,
			"componentType":5126,
			"count":8,
			"max":[
				13.374977111816406,
				2.8999557495117188,
				0.0905998945236206
			],
			"min":[
				6.374977111816406,
				2.8999557495117188,
				-0.0905996561050415
			],
			"type":"VEC3"
		},
		{
			"bufferView":14,
			"componentType":5126,
			"count":8,
			"type":"VEC3"
		},
		{
			"bufferView":15,
			"componentType":5126,
			"count":8,
			"type":"VEC2"
		},
		{
			"bufferView":16,
			"componentType":5126,
			"count":8,
			"type":"VEC4"
		},
		{
			"bufferView":17,
			"componentType":5123,
			"count":12,
			"type":"SCALAR"
		},
		{
			"bufferView":18,
			"componentType":5126,
			"count":53,
			"max":[
				1.9999985694885254,
				2,
				7.5
			],
			"min":[
				-2.0000011920928955,
				-2.000001907348633,
				3.825000286102295
			],
			"type":"VEC3"
		},
		{
			"bufferView":19,
			"componentType":5126,
			"count":53,
			"type":"VEC3"
		},
		{
			"bufferView":20,
			"componentType":5126,
			"count":53,
			"type":"VEC2"
		},
		{
			"bufferView":21,
			"componentType":5123,
			"count":120,
			"type":"SCALAR"
		},
		{
			"bufferView":22,
			"componentType":5126,
			"count":56,
			"max":[
				-1.5186786651611328,
				1.9999990463256836,
				3.85764741897583
			],
			"min":[
				-1.9999995231628418,
				-0.1352863311767578,
				3.7923545837402344
			],
			"type":"VEC3"
		},
		{
			"bufferView":23,
			"componentType":5126,
			"count":56,
			"type":"VEC3"
		},
		{
			"bufferView":24,
			"componentType":5126,
			"count":56,
			"type":"VEC2"
		},
		{
			"bufferView":25,
			"componentType":5126,
			"count":56,
			"type":"VEC4"
		},
		{
			"bufferView":26,
			"componentType":5123,
			"count":84,
			"type":"SCALAR"
		}
	],
	"bufferViews":[
		{
			"buffer":0,
			"byteLength":792,
			"byteOffset":0,
			"target":34962
		},
		{
			"buffer":0,
			"byteLength":792,
			"byteOffset":792,
			"target":34962
		},
		{
			"buffer":0,
			"byteLength":528,
			"byteOffset":1584,
			"target":34962
		},
		{
			"buffer":0,
			"byteLength":258,
			"byteOffset":2112,
			"target":34963
		},
		{
			"buffer":0,
			"byteLength":432,
			"byteOffset":2372,
			"target":34962
		},
		{
			"buffer":0,
			"byteLength":432,
			"byteOffset":2804,
			"target":34962
		},
		{
			"buffer":0,
			"byteLength":288,
			"byteOffset":3236,
			"target":34962
		},
		{
			"buffer":0,
			"byteLength":120,
			"byteOffset":3524,
			"target":34963
		},
		{
			"buffer":0,
			"byteLength":288,
			"byteOffset":3644,
			"target":34962
		},
		{
			"buffer":0,
			"byteLength":288,
			"byteOffset":3932,
			"target":34962
		},
		{
			"buffer":0,
			"byteLength":192,
			"byteOffset":4220,
			"target":34962
		},
		{
			"buffer":0,
			"byteLength":384,
			"byteOffset":4412,
			"target":34962
		},
		{
			"buffer":0,
			"byteLength":72,
			"byteOffset":4796,
			"target":34963
		},
		{
			"buffer":0,
			"byteLength":96,
			"byteOffset":4868,
			"target":34962
		},
		{
			"buffer":0,
			"byteLength":96,
			"byteOffset":4964,
			"target":34962
		},
		{
			"buffer":0,
			"byteLength":64,
			"byteOffset":5060,
			"target":34962
		},
		{
			"buffer":0,
			"byteLength":128,
			"byteOffset":5124,
			"target":34962
		},
		{
			"buffer":0,
			"byteLength":24,
			"byteOffset":5252,
			"target":34963
		},
		{
			"buffer":0,
			"byteLength":636,
			"byteOffset":5276,
			"target":34962
		},
		{
			"buffer":0,
			"byteLength":636,
			"byteOffset":5912,
			"target":34962
		},
		{
			"buffer":0,
			"byteLength":424,
			"byteOffset":6548,
			"target":34962
		},
		{
			"buffer":0,
			"byteLength":240,
			"byteOffset":6972,
			"target":34963
		},
		{
			"buffer":0,
			"byteLength":672,
			"byteOffset":7212,
			"target":34962
		},
		{
			"buffer":0,
			"byteLength":672,
			"byteOffset":7884,
			"target":34962
		},
		{
			"buffer":0,
			"byteLength":448,
			"byteOffset":8556,
			"target":34962
		},
		{
			"buffer":0,
			"byteLength":896,
			"byteOffset":9004,
			"target":34962
		},
		{
			"buffer":0,
			"byteLength":168,
			"byteOffset":9900,
			"target":34963
		}
	],
	"samplers":[
		{
			"magFilter":9729,
			"minFilter":9987
		}
	],
	"buffers":[
		{
			"byteLength":10068,
			"uri":"tile_11_0_2.bin"
		}
	]
}
