{
	"asset":{
		"generator":"Khronos glTF Blender I/O v4.0.44",
		"version":"2.0"
	},
	"scene":0,
	"scenes":[
		{
			"name":"Scene",
			"nodes":[
				0,
				1,
				2,
				3,
				4,
				5,
				6,
				7
			]
		}
	],
	"nodes":[
		{
			"mesh":0,
			"name":"pipe.main_collider",
			"rotation":[
				0.7071068286895752,
				0,
				0,
				0.7071068286895752
			]
		},
		{
			"mesh":1,
			"name":"wall.north.011"
		},
		{
			"mesh":2,
			"name":"ground"
		},
		{
			"mesh":3,
			"name":"wall.east.011"
		},
		{
			"mesh":4,
			"name":"neons.001",
			"rotation":[
				0,
				0,
				-0.7071068286895752,
				0.7071068286895752
			],
			"scale":[
				0.19999998807907104,
				1,
				44.15021896362305
			]
		},
		{
			"mesh":5,
			"name":"neons.004",
			"rotation":[
				-0.5000002384185791,
				0.5000001788139343,
				-0.4999997615814209,
				0.4999998211860657
			],
			"scale":[
				0.19999998807907104,
				1,
				47.68861770629883
			]
		},
		{
			"mesh":6,
			"name":"pipe.main",
			"rotation":[
				0.7071068286895752,
				0,
				0,
				0.7071068286895752
			],
			"scale":[
				2,
				2,
				2
			]
		},
		{
			"name":"pipe.main.rim",
			"rotation":[
				0.7071068286895752,
				0,
				0,
				0.7071068286895752
			],
			"scale":[
				2,
				2,
				2
			]
		}
	],
	"materials":[
		{
			"doubleSided":true,
			"name":"dcl.PiratesPack",
			"pbrMetallicRoughness":{
				"baseColorTexture":{
					"index":0
				},
				"metallicFactor":0
			}
		},
		{
			"doubleSided":true,
			"emissiveFactor":[
				1,
				1,
				1
			],
			"emissiveTexture":{
				"index":1
			},
			"name":"dcl.PiratesPack.emissive",
			"pbrMetallicRoughness":{
				"baseColorTexture":{
					"index":2
				},
				"metallicFactor":0
			}
		}
	],
	"meshes":[
		{
			"name":"Cylinder.484",
			"primitives":[
				{
					"attributes":{
						"POSITION":0,
						"NORMAL":1,
						"TEXCOORD_0":2
					},
					"indices":3
				}
			]
		},
		{
			"name":"Cylinder.485",
			"primitives":[
				{
					"attributes":{
						"POSITION":4,
						"NORMAL":5,
						"TEXCOORD_0":6,
						"TANGENT":7
					},
					"indices":8,
					"material":0
				}
			]
		},
		{
			"name":"Cube.398",
			"primitives":[
				{
					"attributes":{
						"POSITION":9,
						"NORMAL":10,
						"TEXCOORD_0":11
					},
					"indices":12,
					"material":0
				}
			]
		},
		{
			"name":"Cylinder.486",
			"primitives":[
				{
					"attributes":{
						"POSITION":13,
						"NORMAL":14,
						"TEXCOORD_0":15
					},
					"indices":16,
					"material":0
				}
			]
		},
		{
			"name":"Plane.051",
			"primitives":[
				{
					"attributes":{
						"POSITION":17,
						"NORMAL":18,
						"TEXCOORD_0":19,
						"TANGENT":20
					},
					"indices":21,
					"material":1
				}
			]
		},
		{
			"name":"Plane.052",
			"primitives":[
				{
					"attributes":{
						"POSITION":22,
						"NORMAL":23,
						"TEXCOORD_0":24,
						"TANGENT":25
					},
					"indices":26,
					"material":1
				}
			]
		},
		{
			"name":"Cylinder.487",
			"primitives":[
				{
					"attributes":{
						"POSITION":27,
						"NORMAL":28,
						"TEXCOORD_0":29
					},
					"indices":30,
					"material":0
				}
			]
		}
	],
	"textures":[
		{
			"sampler":0,
			"source":0
		},
		{
			"sampler":0,
			"source":0
		},
		{
			"sampler":0,
			"source":0
		}
	],
	"images":[
		{
			"mimeType":"image/png",
			"name":"PiratesPack_TX",
			"uri":"tex/PiratesPack_TX.png"
		}
	],
	"accessors":[
		{
			"bufferView":0,
			"componentType":5126,
			"count":37,
			"max":[
				3.999969482421875,
				3.9999923706054688,
				7.650000095367432
			],
			"min":[
				-4.000030517578125,
				-3.4332275390625e-05,
				7.649999618530273
			],
			"type":"VEC3"
		},
		{
			"bufferView":1,
			"componentType":5126,
			"count":37,
			"type":"VEC3"
		},
		{
			"bufferView":2,
			"componentType":5126,
			"count":37,
			"type":"VEC2"
		},
		{
			"bufferView":3,
			"componentType":5123,
			"count":87,
			"type":"SCALAR"
		},
		{
			"bufferView":4,
			"componentType":5126,
			"count":24,
			"max":[
				3.4666290283203125,
				1.6000041961669922,
				-3.7044286727905273e-05
			],
			"min":[
				-4,
				-10.900001525878906,
				-1.0000286102294922
			],
			"type":"VEC3"
		},
		{
			"bufferView":5,
			"componentType":5126,
			"count":24,
			"type":"VEC3"
		},
		{
			"bufferView":6,
			"componentType":5126,
			"count":24,
			"type":"VEC2"
		},
		{
			"bufferView":7,
			"componentType":5126,
			"count":24,
			"type":"VEC4"
		},
		{
			"bufferView":8,
			"componentType":5123,
			"count":36,
			"type":"SCALAR"
		},
		{
			"bufferView":9,
			"componentType":5126,
			"count":46,
			"max":[
				3.4499664306640625,
				-10.65999984741211,
				4
			],
			"min":[
				-4,
				-10.899999618530273,
				-0.9999847412109375
			],
			"type":"VEC3"
		},
		{
			"bufferView":10,
			"componentType":5126,
			"count":46,
			"type":"VEC3"
		},
		{
			"bufferView":11,
			"componentType":5126,
			"count":46,
			"type":"VEC2"
		},
		{
			"bufferView":12,
			"componentType":5123,
			"count":72,
			"type":"SCALAR"
		},
		{
			"bufferView":13,
			"componentType":5126,
			"count":52,
			"max":[
				3.466618537902832,
				7.871223449707031,
				4
			],
			"min":[
				2.9998817443847656,
				-10.850000381469727,
				-0.707733154296875
			],
			"type":"VEC3"
		},
		{
			"bufferView":14,
			"componentType":5126,
			"count":52,
			"type":"VEC3"
		},
		{
			"bufferView":15,
			"componentType":5126,
			"count":52,
			"type":"VEC2"
		},
		{
			"bufferView":16,
			"componentType":5123,
			"count":120,
			"type":"SCALAR"
		},
		{
			"bufferView":17,
			"componentType":5126,
			"count":8,
			"max":[
				13.374977111816406,
				2.8999557495117188,
				0.09059977531433105
			],
			"min":[
				6.374977111816406,
				2.8999557495117188,
				-0.0034034252166748047
			],
			"type":"VEC3"
		},
		{
			"bufferView":18,
			"componentType":5126,
			"count":8,
			"type":"VEC3"
		},
		{
			"bufferView":19,
			"componentType":5126,
			"count":8,
			"type":"VEC2"
		},
		{
			"bufferView":20,
			"componentType":5126,
			"count":8,
			"type":"VEC4"
		},
		{
			"bufferView":21,
			"componentType":5123,
			"count":12,
			"type":"SCALAR"
		},
		{
			"bufferView":22,
			"componentType":5126,
			"count":8,
			"max":[
				13.37496566772461,
				-0.04993998259305954,
				0.06290555000305176
			],
			"min":[
				6.374964237213135,
				-0.04994159936904907,
				-0.08387744426727295
			],
			"type":"VEC3"
		},
		{
			"bufferView":23,
			"componentType":5126,
			"count":8,
			"type":"VEC3"
		},
		{
			"bufferView":24,
			"componentType":5126,
			"count":8,
			"type":"VEC2"
		},
		{
			"bufferView":25,
			"componentType":5126,
			"count":8,
			"type":"VEC4"
		},
		{
			"bufferView":26,
			"componentType":5123,
			"count":12,
			"type":"SCALAR"
		},
		{
			"bufferView":27,
			"componentType":5126,
			"count":35,
			"max":[
				1.9999985694885254,
				2.000001907348633,
				7.499999046325684
			],
			"min":[
				-2.0000011920928955,
				-1.71661376953125e-05,
				3.825000047683716
			],
			"type":"VEC3"
		},
		{
			"bufferView":28,
			"componentType":5126,
			"count":35,
			"type":"VEC3"
		},
		{
			"bufferView":29,
			"componentType":5126,
			"count":35,
			"type":"VEC2"
		},
		{
			"bufferView":30,
			"componentType":5123,
			"count":54,
			"type":"SCALAR"
		}
	],
	"bufferViews":[
		{
			"buffer":0,
			"byteLength":444,
			"byteOffset":0,
			"target":34962
		},
		{
			"buffer":0,
			"byteLength":444,
			"byteOffset":444,
			"target":34962
		},
		{
			"buffer":0,
			"byteLength":296,
			"byteOffset":888,
			"target":34962
		},
		{
			"buffer":0,
			"byteLength":174,
			"byteOffset":1184,
			"target":34963
		},
		{
			"buffer":0,
			"byteLength":288,
			"byteOffset":1360,
			"target":34962
		},
		{
			"buffer":0,
			"byteLength":288,
			"byteOffset":1648,
			"target":34962
		},
		{
			"buffer":0,
			"byteLength":192,
			"byteOffset":1936,
			"target":34962
		},
		{
			"buffer":0,
			"byteLength":384,
			"byteOffset":2128,
			"target":34962
		},
		{
			"buffer":0,
			"byteLength":72,
			"byteOffset":2512,
			"target":34963
		},
		{
			"buffer":0,
			"byteLength":552,
			"byteOffset":2584,
			"target":34962
		},
		{
			"buffer":0,
			"byteLength":552,
			"byteOffset":3136,
			"target":34962
		},
		{
			"buffer":0,
			"byteLength":368,
			"byteOffset":3688,
			"target":34962
		},
		{
			"buffer":0,
			"byteLength":144,
			"byteOffset":4056,
			"target":34963
		},
		{
			"buffer":0,
			"byteLength":624,
			"byteOffset":4200,
			"target":34962
		},
		{
			"buffer":0,
			"byteLength":624,
			"byteOffset":4824,
			"target":34962
		},
		{
			"buffer":0,
			"byteLength":416,
			"byteOffset":5448,
			"target":34962
		},
		{
			"buffer":0,
			"byteLength":240,
			"byteOffset":5864,
			"target":34963
		},
		{
			"buffer":0,
			"byteLength":96,
			"byteOffset":6104,
			"target":34962
		},
		{
			"buffer":0,
			"byteLength":96,
			"byteOffset":6200,
			"target":34962
		},
		{
			"buffer":0,
			"byteLength":64,
			"byteOffset":6296,
			"target":34962
		},
		{
			"buffer":0,
			"byteLength":128,
			"byteOffset":6360,
			"target":34962
		},
		{
			"buffer":0,
			"byteLength":24,
			"byteOffset":6488,
			"target":34963
		},
		{
			"buffer":0,
			"byteLength":96,
			"byteOffset":6512,
			"target":34962
		},
		{
			"buffer":0,
			"byteLength":96,
			"byteOffset":6608,
			"target":34962
		},
		{
			"buffer":0,
			"byteLength":64,
			"byteOffset":6704,
			"target":34962
		},
		{
			"buffer":0,
			"byteLength":128,
			"byteOffset":6768,
			"target":34962
		},
		{
			"buffer":0,
			"byteLength":24,
			"byteOffset":6896,
			"target":34963
		},
		{
			"buffer":0,
			"byteLength":420,
			"byteOffset":6920,
			"target":34962
		},
		{
			"buffer":0,
			"byteLength":420,
			"byteOffset":7340,
			"target":34962
		},
		{
			"buffer":0,
			"byteLength":280,
			"byteOffset":7760,
			"target":34962
		},
		{
			"buffer":0,
			"byteLength":108,
			"byteOffset":8040,
			"target":34963
		}
	],
	"samplers":[
		{
			"magFilter":9729,
			"minFilter":9987
		}
	],
	"buffers":[
		{
			"byteLength":8148,
			"uri":"tile_11_0_11.bin"
		}
	]
}
