{
	"asset":{
		"generator":"Khronos glTF Blender I/O v4.0.44",
		"version":"2.0"
	},
	"scene":0,
	"scenes":[
		{
			"name":"Scene",
			"nodes":[
				0,
				1,
				2,
				3,
				4,
				5
			]
		}
	],
	"nodes":[
		{
			"mesh":0,
			"name":"pipe.main_collider",
			"rotation":[
				0.7071068286895752,
				0,
				0,
				0.7071068286895752
			]
		},
		{
			"mesh":1,
			"name":"ground"
		},
		{
			"mesh":2,
			"name":"decal.main",
			"rotation":[
				0,
				-0.7071068286895752,
				0.7071068286895752,
				3.4560699191388267e-07
			]
		},
		{
			"mesh":3,
			"name":"decal.ramp.branches",
			"rotation":[
				0,
				-1,
				0,
				1.6292068494294654e-07
			],
			"scale":[
				1.5,
				1.5,
				1.5
			]
		},
		{
			"mesh":4,
			"name":"pipe.main",
			"rotation":[
				0.7071068286895752,
				0,
				0,
				0.7071068286895752
			],
			"scale":[
				2,
				2,
				2
			]
		},
		{
			"mesh":5,
			"name":"pipe.main.rim",
			"rotation":[
				0.7071068286895752,
				0,
				0,
				0.7071068286895752
			],
			"scale":[
				2,
				2,
				2
			]
		}
	],
	"materials":[
		{
			"doubleSided":true,
			"name":"dcl.PiratesPack",
			"pbrMetallicRoughness":{
				"baseColorTexture":{
					"index":0
				},
				"metallicFactor":0
			}
		},
		{
			"doubleSided":true,
			"emissiveFactor":[
				1,
				1,
				1
			],
			"emissiveTexture":{
				"index":1
			},
			"name":"dcl.PiratesPack.emissive",
			"pbrMetallicRoughness":{
				"baseColorTexture":{
					"index":2
				},
				"metallicFactor":0
			}
		}
	],
	"meshes":[
		{
			"name":"Cylinder.315",
			"primitives":[
				{
					"attributes":{
						"POSITION":0,
						"NORMAL":1,
						"TEXCOORD_0":2
					},
					"indices":3
				}
			]
		},
		{
			"name":"Cube.336",
			"primitives":[
				{
					"attributes":{
						"POSITION":4,
						"NORMAL":5,
						"TEXCOORD_0":6,
						"TANGENT":7
					},
					"indices":8,
					"material":0
				}
			]
		},
		{
			"name":"Cylinder.316",
			"primitives":[
				{
					"attributes":{
						"POSITION":9,
						"NORMAL":10,
						"TEXCOORD_0":11,
						"TANGENT":12
					},
					"indices":13,
					"material":1
				}
			]
		},
		{
			"name":"Cube.337",
			"primitives":[
				{
					"attributes":{
						"POSITION":14,
						"NORMAL":15,
						"TEXCOORD_0":16
					},
					"indices":17,
					"material":1
				}
			]
		},
		{
			"name":"Cylinder.317",
			"primitives":[
				{
					"attributes":{
						"POSITION":18,
						"NORMAL":19,
						"TEXCOORD_0":20
					},
					"indices":21,
					"material":0
				}
			]
		},
		{
			"name":"Cylinder.318",
			"primitives":[
				{
					"attributes":{
						"POSITION":22,
						"NORMAL":23,
						"TEXCOORD_0":24,
						"TANGENT":25
					},
					"indices":26,
					"material":0
				}
			]
		}
	],
	"textures":[
		{
			"sampler":0,
			"source":0
		},
		{
			"sampler":0,
			"source":0
		},
		{
			"sampler":0,
			"source":0
		}
	],
	"images":[
		{
			"mimeType":"image/png",
			"name":"PiratesPack_TX",
			"uri":"tex/PiratesPack_TX.png"
		}
	],
	"accessors":[
		{
			"bufferView":0,
			"componentType":5126,
			"count":52,
			"max":[
				4.0000152587890625,
				4.000007629394531,
				15
			],
			"min":[
				-0.4999837875366211,
				-3.9999923706054688,
				7.649999618530273
			],
			"type":"VEC3"
		},
		{
			"bufferView":1,
			"componentType":5126,
			"count":52,
			"type":"VEC3"
		},
		{
			"bufferView":2,
			"componentType":5126,
			"count":52,
			"type":"VEC2"
		},
		{
			"bufferView":3,
			"componentType":5123,
			"count":108,
			"type":"SCALAR"
		},
		{
			"bufferView":4,
			"componentType":5126,
			"count":24,
			"max":[
				4,
				-10.65999984741211,
				4
			],
			"min":[
				-4,
				-10.899999618530273,
				-4
			],
			"type":"VEC3"
		},
		{
			"bufferView":5,
			"componentType":5126,
			"count":24,
			"type":"VEC3"
		},
		{
			"bufferView":6,
			"componentType":5126,
			"count":24,
			"type":"VEC2"
		},
		{
			"bufferView":7,
			"componentType":5126,
			"count":24,
			"type":"VEC4"
		},
		{
			"bufferView":8,
			"componentType":5123,
			"count":36,
			"type":"SCALAR"
		},
		{
			"bufferView":9,
			"componentType":5126,
			"count":4,
			"max":[
				1.5000076293945312,
				4.00006103515625,
				10.624999046325684
			],
			"min":[
				1,
				-3.99993896484375,
				10.624999046325684
			],
			"type":"VEC3"
		},
		{
			"bufferView":10,
			"componentType":5126,
			"count":4,
			"type":"VEC3"
		},
		{
			"bufferView":11,
			"componentType":5126,
			"count":4,
			"type":"VEC2"
		},
		{
			"bufferView":12,
			"componentType":5126,
			"count":4,
			"type":"VEC4"
		},
		{
			"bufferView":13,
			"componentType":5123,
			"count":6,
			"type":"SCALAR"
		},
		{
			"bufferView":14,
			"componentType":5126,
			"count":6,
			"max":[
				2.6666629314422607,
				-7.083332538604736,
				-1.9934189319610596
			],
			"min":[
				0.9999990463256836,
				-7.083332538604736,
				-2.3110098838806152
			],
			"type":"VEC3"
		},
		{
			"bufferView":15,
			"componentType":5126,
			"count":6,
			"type":"VEC3"
		},
		{
			"bufferView":16,
			"componentType":5126,
			"count":6,
			"type":"VEC2"
		},
		{
			"bufferView":17,
			"componentType":5123,
			"count":12,
			"type":"SCALAR"
		},
		{
			"bufferView":18,
			"componentType":5126,
			"count":49,
			"max":[
				2.0000009536743164,
				2,
				7.5
			],
			"min":[
				-0.24999189376831055,
				-2.0000009536743164,
				3.8249998092651367
			],
			"type":"VEC3"
		},
		{
			"bufferView":19,
			"componentType":5126,
			"count":49,
			"type":"VEC3"
		},
		{
			"bufferView":20,
			"componentType":5126,
			"count":49,
			"type":"VEC2"
		},
		{
			"bufferView":21,
			"componentType":5123,
			"count":78,
			"type":"SCALAR"
		},
		{
			"bufferView":22,
			"componentType":5126,
			"count":24,
			"max":[
				1.0347094535827637,
				2.0000009536743164,
				3.8593835830688477
			],
			"min":[
				0.966163158416748,
				-1.9999990463256836,
				3.790616989135742
			],
			"type":"VEC3"
		},
		{
			"bufferView":23,
			"componentType":5126,
			"count":24,
			"type":"VEC3"
		},
		{
			"bufferView":24,
			"componentType":5126,
			"count":24,
			"type":"VEC2"
		},
		{
			"bufferView":25,
			"componentType":5126,
			"count":24,
			"type":"VEC4"
		},
		{
			"bufferView":26,
			"componentType":5123,
			"count":36,
			"type":"SCALAR"
		}
	],
	"bufferViews":[
		{
			"buffer":0,
			"byteLength":624,
			"byteOffset":0,
			"target":34962
		},
		{
			"buffer":0,
			"byteLength":624,
			"byteOffset":624,
			"target":34962
		},
		{
			"buffer":0,
			"byteLength":416,
			"byteOffset":1248,
			"target":34962
		},
		{
			"buffer":0,
			"byteLength":216,
			"byteOffset":1664,
			"target":34963
		},
		{
			"buffer":0,
			"byteLength":288,
			"byteOffset":1880,
			"target":34962
		},
		{
			"buffer":0,
			"byteLength":288,
			"byteOffset":2168,
			"target":34962
		},
		{
			"buffer":0,
			"byteLength":192,
			"byteOffset":2456,
			"target":34962
		},
		{
			"buffer":0,
			"byteLength":384,
			"byteOffset":2648,
			"target":34962
		},
		{
			"buffer":0,
			"byteLength":72,
			"byteOffset":3032,
			"target":34963
		},
		{
			"buffer":0,
			"byteLength":48,
			"byteOffset":3104,
			"target":34962
		},
		{
			"buffer":0,
			"byteLength":48,
			"byteOffset":3152,
			"target":34962
		},
		{
			"buffer":0,
			"byteLength":32,
			"byteOffset":3200,
			"target":34962
		},
		{
			"buffer":0,
			"byteLength":64,
			"byteOffset":3232,
			"target":34962
		},
		{
			"buffer":0,
			"byteLength":12,
			"byteOffset":3296,
			"target":34963
		},
		{
			"buffer":0,
			"byteLength":72,
			"byteOffset":3308,
			"target":34962
		},
		{
			"buffer":0,
			"byteLength":72,
			"byteOffset":3380,
			"target":34962
		},
		{
			"buffer":0,
			"byteLength":48,
			"byteOffset":3452,
			"target":34962
		},
		{
			"buffer":0,
			"byteLength":24,
			"byteOffset":3500,
			"target":34963
		},
		{
			"buffer":0,
			"byteLength":588,
			"byteOffset":3524,
			"target":34962
		},
		{
			"buffer":0,
			"byteLength":588,
			"byteOffset":4112,
			"target":34962
		},
		{
			"buffer":0,
			"byteLength":392,
			"byteOffset":4700,
			"target":34962
		},
		{
			"buffer":0,
			"byteLength":156,
			"byteOffset":5092,
			"target":34963
		},
		{
			"buffer":0,
			"byteLength":288,
			"byteOffset":5248,
			"target":34962
		},
		{
			"buffer":0,
			"byteLength":288,
			"byteOffset":5536,
			"target":34962
		},
		{
			"buffer":0,
			"byteLength":192,
			"byteOffset":5824,
			"target":34962
		},
		{
			"buffer":0,
			"byteLength":384,
			"byteOffset":6016,
			"target":34962
		},
		{
			"buffer":0,
			"byteLength":72,
			"byteOffset":6400,
			"target":34963
		}
	],
	"samplers":[
		{
			"magFilter":9729,
			"minFilter":9987
		}
	],
	"buffers":[
		{
			"byteLength":6472,
			"uri":"tile_8_0_3.bin"
		}
	]
}
