{
	"asset":{
		"generator":"Khronos glTF Blender I/O v4.0.44",
		"version":"2.0"
	},
	"scene":0,
	"scenes":[
		{
			"name":"Scene",
			"nodes":[
				0,
				1,
				2,
				3,
				4
			]
		}
	],
	"nodes":[
		{
			"mesh":0,
			"name":"pipe.main_collider",
			"rotation":[
				0.7071068286895752,
				0,
				0,
				0.7071068286895752
			]
		},
		{
			"mesh":1,
			"name":"ground"
		},
		{
			"mesh":2,
			"name":"decal.main",
			"rotation":[
				0,
				-0.7071068286895752,
				0.7071068286895752,
				3.4560699191388267e-07
			]
		},
		{
			"mesh":3,
			"name":"pipe.main",
			"rotation":[
				0.7071068286895752,
				0,
				0,
				0.7071068286895752
			],
			"scale":[
				2,
				2,
				2
			]
		},
		{
			"mesh":4,
			"name":"pipe.main.rim",
			"rotation":[
				0.7071068286895752,
				0,
				0,
				0.7071068286895752
			],
			"scale":[
				2,
				2,
				2
			]
		}
	],
	"materials":[
		{
			"doubleSided":true,
			"name":"dcl.PiratesPack",
			"pbrMetallicRoughness":{
				"baseColorTexture":{
					"index":0
				},
				"metallicFactor":0
			}
		},
		{
			"doubleSided":true,
			"emissiveFactor":[
				1,
				1,
				1
			],
			"emissiveTexture":{
				"index":1
			},
			"name":"dcl.PiratesPack.emissive",
			"pbrMetallicRoughness":{
				"baseColorTexture":{
					"index":2
				},
				"metallicFactor":0
			}
		}
	],
	"meshes":[
		{
			"name":"Cylinder.319",
			"primitives":[
				{
					"attributes":{
						"POSITION":0,
						"NORMAL":1,
						"TEXCOORD_0":2
					},
					"indices":3
				}
			]
		},
		{
			"name":"Cube.338",
			"primitives":[
				{
					"attributes":{
						"POSITION":4,
						"NORMAL":5,
						"TEXCOORD_0":6,
						"TANGENT":7
					},
					"indices":8,
					"material":0
				}
			]
		},
		{
			"name":"Cylinder.320",
			"primitives":[
				{
					"attributes":{
						"POSITION":9,
						"NORMAL":10,
						"TEXCOORD_0":11,
						"TANGENT":12
					},
					"indices":13,
					"material":1
				}
			]
		},
		{
			"name":"Cylinder.321",
			"primitives":[
				{
					"attributes":{
						"POSITION":14,
						"NORMAL":15,
						"TEXCOORD_0":16
					},
					"indices":17,
					"material":0
				}
			]
		},
		{
			"name":"Cylinder.322",
			"primitives":[
				{
					"attributes":{
						"POSITION":18,
						"NORMAL":19,
						"TEXCOORD_0":20,
						"TANGENT":21
					},
					"indices":22,
					"material":0
				}
			]
		}
	],
	"textures":[
		{
			"sampler":0,
			"source":0
		},
		{
			"sampler":0,
			"source":0
		},
		{
			"sampler":0,
			"source":0
		}
	],
	"images":[
		{
			"mimeType":"image/png",
			"name":"PiratesPack_TX",
			"uri":"tex/PiratesPack_TX.png"
		}
	],
	"accessors":[
		{
			"bufferView":0,
			"componentType":5126,
			"count":163,
			"max":[
				4.000007629394531,
				4.000007629394531,
				15
			],
			"min":[
				-0.49998950958251953,
				-1,
				7.649999618530273
			],
			"type":"VEC3"
		},
		{
			"bufferView":1,
			"componentType":5126,
			"count":163,
			"type":"VEC3"
		},
		{
			"bufferView":2,
			"componentType":5126,
			"count":163,
			"type":"VEC2"
		},
		{
			"bufferView":3,
			"componentType":5123,
			"count":255,
			"type":"SCALAR"
		},
		{
			"bufferView":4,
			"componentType":5126,
			"count":24,
			"max":[
				4,
				-10.65999984741211,
				4
			],
			"min":[
				-4,
				-10.899999618530273,
				-4
			],
			"type":"VEC3"
		},
		{
			"bufferView":5,
			"componentType":5126,
			"count":24,
			"type":"VEC3"
		},
		{
			"bufferView":6,
			"componentType":5126,
			"count":24,
			"type":"VEC2"
		},
		{
			"bufferView":7,
			"componentType":5126,
			"count":24,
			"type":"VEC4"
		},
		{
			"bufferView":8,
			"componentType":5123,
			"count":36,
			"type":"SCALAR"
		},
		{
			"bufferView":9,
			"componentType":5126,
			"count":10,
			"max":[
				1.5000076293945312,
				4.00006103515625,
				10.624999046325684
			],
			"min":[
				-1.2499847412109375,
				-3.99993896484375,
				10.624999046325684
			],
			"type":"VEC3"
		},
		{
			"bufferView":10,
			"componentType":5126,
			"count":10,
			"type":"VEC3"
		},
		{
			"bufferView":11,
			"componentType":5126,
			"count":10,
			"type":"VEC2"
		},
		{
			"bufferView":12,
			"componentType":5126,
			"count":10,
			"type":"VEC4"
		},
		{
			"bufferView":13,
			"componentType":5123,
			"count":18,
			"type":"SCALAR"
		},
		{
			"bufferView":14,
			"componentType":5126,
			"count":154,
			"max":[
				2,
				2.0000009536743164,
				7.5
			],
			"min":[
				-0.24999475479125977,
				-0.5,
				3.8249998092651367
			],
			"type":"VEC3"
		},
		{
			"bufferView":15,
			"componentType":5126,
			"count":154,
			"type":"VEC3"
		},
		{
			"bufferView":16,
			"componentType":5126,
			"count":154,
			"type":"VEC2"
		},
		{
			"bufferView":17,
			"componentType":5123,
			"count":294,
			"type":"SCALAR"
		},
		{
			"bufferView":18,
			"componentType":5126,
			"count":104,
			"max":[
				1.9999995231628418,
				2.000000476837158,
				3.8593833446502686
			],
			"min":[
				0.9662046432495117,
				0.7156381607055664,
				3.790616512298584
			],
			"type":"VEC3"
		},
		{
			"bufferView":19,
			"componentType":5126,
			"count":104,
			"type":"VEC3"
		},
		{
			"bufferView":20,
			"componentType":5126,
			"count":104,
			"type":"VEC2"
		},
		{
			"bufferView":21,
			"componentType":5126,
			"count":104,
			"type":"VEC4"
		},
		{
			"bufferView":22,
			"componentType":5123,
			"count":156,
			"type":"SCALAR"
		}
	],
	"bufferViews":[
		{
			"buffer":0,
			"byteLength":1956,
			"byteOffset":0,
			"target":34962
		},
		{
			"buffer":0,
			"byteLength":1956,
			"byteOffset":1956,
			"target":34962
		},
		{
			"buffer":0,
			"byteLength":1304,
			"byteOffset":3912,
			"target":34962
		},
		{
			"buffer":0,
			"byteLength":510,
			"byteOffset":5216,
			"target":34963
		},
		{
			"buffer":0,
			"byteLength":288,
			"byteOffset":5728,
			"target":34962
		},
		{
			"buffer":0,
			"byteLength":288,
			"byteOffset":6016,
			"target":34962
		},
		{
			"buffer":0,
			"byteLength":192,
			"byteOffset":6304,
			"target":34962
		},
		{
			"buffer":0,
			"byteLength":384,
			"byteOffset":6496,
			"target":34962
		},
		{
			"buffer":0,
			"byteLength":72,
			"byteOffset":6880,
			"target":34963
		},
		{
			"buffer":0,
			"byteLength":120,
			"byteOffset":6952,
			"target":34962
		},
		{
			"buffer":0,
			"byteLength":120,
			"byteOffset":7072,
			"target":34962
		},
		{
			"buffer":0,
			"byteLength":80,
			"byteOffset":7192,
			"target":34962
		},
		{
			"buffer":0,
			"byteLength":160,
			"byteOffset":7272,
			"target":34962
		},
		{
			"buffer":0,
			"byteLength":36,
			"byteOffset":7432,
			"target":34963
		},
		{
			"buffer":0,
			"byteLength":1848,
			"byteOffset":7468,
			"target":34962
		},
		{
			"buffer":0,
			"byteLength":1848,
			"byteOffset":9316,
			"target":34962
		},
		{
			"buffer":0,
			"byteLength":1232,
			"byteOffset":11164,
			"target":34962
		},
		{
			"buffer":0,
			"byteLength":588,
			"byteOffset":12396,
			"target":34963
		},
		{
			"buffer":0,
			"byteLength":1248,
			"byteOffset":12984,
			"target":34962
		},
		{
			"buffer":0,
			"byteLength":1248,
			"byteOffset":14232,
			"target":34962
		},
		{
			"buffer":0,
			"byteLength":832,
			"byteOffset":15480,
			"target":34962
		},
		{
			"buffer":0,
			"byteLength":1664,
			"byteOffset":16312,
			"target":34962
		},
		{
			"buffer":0,
			"byteLength":312,
			"byteOffset":17976,
			"target":34963
		}
	],
	"samplers":[
		{
			"magFilter":9729,
			"minFilter":9987
		}
	],
	"buffers":[
		{
			"byteLength":18288,
			"uri":"tile_8_0_4.bin"
		}
	]
}
