{
	"asset":{
		"generator":"Khronos glTF Blender I/O v4.0.44",
		"version":"2.0"
	},
	"scene":0,
	"scenes":[
		{
			"name":"Scene",
			"nodes":[
				0,
				1,
				2,
				3,
				4,
				5,
				6,
				7,
				8,
				9,
				10
			]
		}
	],
	"nodes":[
		{
			"mesh":0,
			"name":"ramp.rectangular.02_collider",
			"rotation":[
				0,
				-1,
				0,
				1.6292068494294654e-07
			]
		},
		{
			"mesh":1,
			"name":"ground"
		},
		{
			"mesh":2,
			"name":"rail.002_collider"
		},
		{
			"mesh":3,
			"name":"rail.003_collider",
			"rotation":[
				0,
				0,
				-0.1787828952074051,
				0.9838886260986328
			]
		},
		{
			"mesh":4,
			"name":"rail.004_collider",
			"rotation":[
				0,
				0,
				-0.1787828952074051,
				0.9838886260986328
			]
		},
		{
			"mesh":5,
			"name":"rail.005_collider"
		},
		{
			"name":"decal.main",
			"rotation":[
				0,
				-0.7071068286895752,
				0.7071068286895752,
				3.4560699191388267e-07
			]
		},
		{
			"mesh":6,
			"name":"decal.ramp.branches",
			"rotation":[
				0,
				-1,
				0,
				1.6292068494294654e-07
			],
			"scale":[
				1.5,
				1.5,
				1.5
			]
		},
		{
			"mesh":7,
			"name":"ramp.rectangular.02",
			"rotation":[
				0,
				-1,
				0,
				1.6292068494294654e-07
			]
		},
		{
			"mesh":8,
			"name":"ramp.rectangular.02.rail.01",
			"rotation":[
				0,
				0.70710688829422,
				0,
				0.7071066498756409
			]
		},
		{
			"mesh":9,
			"name":"ramp.rectangular.02.rail.02",
			"rotation":[
				0,
				0.70710688829422,
				0,
				0.7071066498756409
			]
		}
	],
	"materials":[
		{
			"doubleSided":true,
			"name":"dcl.PiratesPack",
			"pbrMetallicRoughness":{
				"baseColorTexture":{
					"index":0
				},
				"metallicFactor":0
			}
		},
		{
			"doubleSided":true,
			"emissiveFactor":[
				1,
				1,
				1
			],
			"emissiveTexture":{
				"index":1
			},
			"name":"dcl.PiratesPack.emissive",
			"pbrMetallicRoughness":{
				"baseColorTexture":{
					"index":2
				},
				"metallicFactor":0
			}
		}
	],
	"meshes":[
		{
			"name":"Cube.160",
			"primitives":[
				{
					"attributes":{
						"POSITION":0,
						"NORMAL":1,
						"TEXCOORD_0":2
					},
					"indices":3
				}
			]
		},
		{
			"name":"Cube.161",
			"primitives":[
				{
					"attributes":{
						"POSITION":4,
						"NORMAL":5,
						"TEXCOORD_0":6,
						"TANGENT":7
					},
					"indices":8,
					"material":0
				}
			]
		},
		{
			"name":"Cube.162",
			"primitives":[
				{
					"attributes":{
						"POSITION":9,
						"NORMAL":10,
						"TEXCOORD_0":11,
						"TANGENT":12
					},
					"indices":13
				}
			]
		},
		{
			"name":"Cube.163",
			"primitives":[
				{
					"attributes":{
						"POSITION":14,
						"NORMAL":15,
						"TEXCOORD_0":16,
						"TANGENT":17
					},
					"indices":18
				}
			]
		},
		{
			"name":"Cube.164",
			"primitives":[
				{
					"attributes":{
						"POSITION":19,
						"NORMAL":20,
						"TEXCOORD_0":21,
						"TANGENT":22
					},
					"indices":18
				}
			]
		},
		{
			"name":"Cube.165",
			"primitives":[
				{
					"attributes":{
						"POSITION":23,
						"NORMAL":24,
						"TEXCOORD_0":25,
						"TANGENT":26
					},
					"indices":13
				}
			]
		},
		{
			"name":"Cube.166",
			"primitives":[
				{
					"attributes":{
						"POSITION":27,
						"NORMAL":28,
						"TEXCOORD_0":29,
						"TANGENT":30
					},
					"indices":31,
					"material":1
				}
			]
		},
		{
			"name":"Cube.167",
			"primitives":[
				{
					"attributes":{
						"POSITION":32,
						"NORMAL":33,
						"TEXCOORD_0":34
					},
					"indices":35,
					"material":0
				}
			]
		},
		{
			"name":"Cube.168",
			"primitives":[
				{
					"attributes":{
						"POSITION":36,
						"NORMAL":37,
						"TEXCOORD_0":38,
						"TANGENT":39
					},
					"indices":40,
					"material":0
				}
			]
		},
		{
			"name":"Cube.169",
			"primitives":[
				{
					"attributes":{
						"POSITION":41,
						"NORMAL":42,
						"TEXCOORD_0":43,
						"TANGENT":44
					},
					"indices":45,
					"material":0
				}
			]
		}
	],
	"textures":[
		{
			"sampler":0,
			"source":0
		},
		{
			"sampler":0,
			"source":0
		},
		{
			"sampler":0,
			"source":0
		}
	],
	"images":[
		{
			"mimeType":"image/png",
			"name":"PiratesPack_TX",
			"uri":"tex/PiratesPack_TX.png"
		}
	],
	"accessors":[
		{
			"bufferView":0,
			"componentType":5126,
			"count":26,
			"max":[
				3.999998092651367,
				-9,
				4.000001907348633
			],
			"min":[
				-2.9259490966796875,
				-10.670775413513184,
				-3.999998092651367
			],
			"type":"VEC3"
		},
		{
			"bufferView":1,
			"componentType":5126,
			"count":26,
			"type":"VEC3"
		},
		{
			"bufferView":2,
			"componentType":5126,
			"count":26,
			"type":"VEC2"
		},
		{
			"bufferView":3,
			"componentType":5123,
			"count":54,
			"type":"SCALAR"
		},
		{
			"bufferView":4,
			"componentType":5126,
			"count":24,
			"max":[
				4,
				-10.65999984741211,
				4
			],
			"min":[
				-4,
				-10.899999618530273,
				-4
			],
			"type":"VEC3"
		},
		{
			"bufferView":5,
			"componentType":5126,
			"count":24,
			"type":"VEC3"
		},
		{
			"bufferView":6,
			"componentType":5126,
			"count":24,
			"type":"VEC2"
		},
		{
			"bufferView":7,
			"componentType":5126,
			"count":24,
			"type":"VEC4"
		},
		{
			"bufferView":8,
			"componentType":5123,
			"count":36,
			"type":"SCALAR"
		},
		{
			"bufferView":9,
			"componentType":5126,
			"count":24,
			"max":[
				-1.4678950309753418,
				-8.146517753601074,
				-1.0314409732818604
			],
			"min":[
				-3.999998092651367,
				-10.146517753601074,
				-1.4826772212982178
			],
			"type":"VEC3"
		},
		{
			"bufferView":10,
			"componentType":5126,
			"count":24,
			"type":"VEC3"
		},
		{
			"bufferView":11,
			"componentType":5126,
			"count":24,
			"type":"VEC2"
		},
		{
			"bufferView":12,
			"componentType":5126,
			"count":24,
			"type":"VEC4"
		},
		{
			"bufferView":13,
			"componentType":5123,
			"count":36,
			"type":"SCALAR"
		},
		{
			"bufferView":14,
			"componentType":5126,
			"count":24,
			"max":[
				6.258527755737305,
				-8.1421480178833,
				-1.0314505100250244
			],
			"min":[
				1.491922378540039,
				-10.1421480178833,
				-1.4826867580413818
			],
			"type":"VEC3"
		},
		{
			"bufferView":15,
			"componentType":5126,
			"count":24,
			"type":"VEC3"
		},
		{
			"bufferView":16,
			"componentType":5126,
			"count":24,
			"type":"VEC2"
		},
		{
			"bufferView":17,
			"componentType":5126,
			"count":24,
			"type":"VEC4"
		},
		{
			"bufferView":18,
			"componentType":5123,
			"count":36,
			"type":"SCALAR"
		},
		{
			"bufferView":19,
			"componentType":5126,
			"count":24,
			"max":[
				5.911985397338867,
				-7.220078468322754,
				1.2421491146087646
			],
			"min":[
				1.1453800201416016,
				-9.220078468322754,
				0.790912926197052
			],
			"type":"VEC3"
		},
		{
			"bufferView":20,
			"componentType":5126,
			"count":24,
			"type":"VEC3"
		},
		{
			"bufferView":21,
			"componentType":5126,
			"count":24,
			"type":"VEC2"
		},
		{
			"bufferView":22,
			"componentType":5126,
			"count":24,
			"type":"VEC4"
		},
		{
			"bufferView":23,
			"componentType":5126,
			"count":24,
			"max":[
				-1.4678969383239746,
				-7.145320892333984,
				1.267770528793335
			],
			"min":[
				-4,
				-9.145320892333984,
				0.8165343403816223
			],
			"type":"VEC3"
		},
		{
			"bufferView":24,
			"componentType":5126,
			"count":24,
			"type":"VEC3"
		},
		{
			"bufferView":25,
			"componentType":5126,
			"count":24,
			"type":"VEC2"
		},
		{
			"bufferView":26,
			"componentType":5126,
			"count":24,
			"type":"VEC4"
		},
		{
			"bufferView":27,
			"componentType":5126,
			"count":8,
			"max":[
				2.6666603088378906,
				-7.093332290649414,
				1.0127935409545898
			],
			"min":[
				-2.6666717529296875,
				-7.093332290649414,
				-0.8502635955810547
			],
			"type":"VEC3"
		},
		{
			"bufferView":28,
			"componentType":5126,
			"count":8,
			"type":"VEC3"
		},
		{
			"bufferView":29,
			"componentType":5126,
			"count":8,
			"type":"VEC2"
		},
		{
			"bufferView":30,
			"componentType":5126,
			"count":8,
			"type":"VEC4"
		},
		{
			"bufferView":31,
			"componentType":5123,
			"count":12,
			"type":"SCALAR"
		},
		{
			"bufferView":32,
			"componentType":5126,
			"count":38,
			"max":[
				3.999998092651367,
				-9,
				4.000001907348633
			],
			"min":[
				-2.8925352096557617,
				-10.649999618530273,
				-3.999998092651367
			],
			"type":"VEC3"
		},
		{
			"bufferView":33,
			"componentType":5126,
			"count":38,
			"type":"VEC3"
		},
		{
			"bufferView":34,
			"componentType":5126,
			"count":38,
			"type":"VEC2"
		},
		{
			"bufferView":35,
			"componentType":5123,
			"count":78,
			"type":"SCALAR"
		},
		{
			"bufferView":36,
			"componentType":5126,
			"count":76,
			"max":[
				-0.8421504497528076,
				-7.149999141693115,
				2.892533302307129
			],
			"min":[
				-1.2421505451202393,
				-10.84999942779541,
				-4
			],
			"type":"VEC3"
		},
		{
			"bufferView":37,
			"componentType":5126,
			"count":76,
			"type":"VEC3"
		},
		{
			"bufferView":38,
			"componentType":5126,
			"count":76,
			"type":"VEC2"
		},
		{
			"bufferView":39,
			"componentType":5126,
			"count":76,
			"type":"VEC4"
		},
		{
			"bufferView":40,
			"componentType":5123,
			"count":114,
			"type":"SCALAR"
		},
		{
			"bufferView":41,
			"componentType":5126,
			"count":80,
			"max":[
				1.4859325885772705,
				-8.149998664855957,
				2.892533302307129
			],
			"min":[
				1.0859324932098389,
				-10.84999942779541,
				-4
			],
			"type":"VEC3"
		},
		{
			"bufferView":42,
			"componentType":5126,
			"count":80,
			"type":"VEC3"
		},
		{
			"bufferView":43,
			"componentType":5126,
			"count":80,
			"type":"VEC2"
		},
		{
			"bufferView":44,
			"componentType":5126,
			"count":80,
			"type":"VEC4"
		},
		{
			"bufferView":45,
			"componentType":5123,
			"count":120,
			"type":"SCALAR"
		}
	],
	"bufferViews":[
		{
			"buffer":0,
			"byteLength":312,
			"byteOffset":0,
			"target":34962
		},
		{
			"buffer":0,
			"byteLength":312,
			"byteOffset":312,
			"target":34962
		},
		{
			"buffer":0,
			"byteLength":208,
			"byteOffset":624,
			"target":34962
		},
		{
			"buffer":0,
			"byteLength":108,
			"byteOffset":832,
			"target":34963
		},
		{
			"buffer":0,
			"byteLength":288,
			"byteOffset":940,
			"target":34962
		},
		{
			"buffer":0,
			"byteLength":288,
			"byteOffset":1228,
			"target":34962
		},
		{
			"buffer":0,
			"byteLength":192,
			"byteOffset":1516,
			"target":34962
		},
		{
			"buffer":0,
			"byteLength":384,
			"byteOffset":1708,
			"target":34962
		},
		{
			"buffer":0,
			"byteLength":72,
			"byteOffset":2092,
			"target":34963
		},
		{
			"buffer":0,
			"byteLength":288,
			"byteOffset":2164,
			"target":34962
		},
		{
			"buffer":0,
			"byteLength":288,
			"byteOffset":2452,
			"target":34962
		},
		{
			"buffer":0,
			"byteLength":192,
			"byteOffset":2740,
			"target":34962
		},
		{
			"buffer":0,
			"byteLength":384,
			"byteOffset":2932,
			"target":34962
		},
		{
			"buffer":0,
			"byteLength":72,
			"byteOffset":3316,
			"target":34963
		},
		{
			"buffer":0,
			"byteLength":288,
			"byteOffset":3388,
			"target":34962
		},
		{
			"buffer":0,
			"byteLength":288,
			"byteOffset":3676,
			"target":34962
		},
		{
			"buffer":0,
			"byteLength":192,
			"byteOffset":3964,
			"target":34962
		},
		{
			"buffer":0,
			"byteLength":384,
			"byteOffset":4156,
			"target":34962
		},
		{
			"buffer":0,
			"byteLength":72,
			"byteOffset":4540,
			"target":34963
		},
		{
			"buffer":0,
			"byteLength":288,
			"byteOffset":4612,
			"target":34962
		},
		{
			"buffer":0,
			"byteLength":288,
			"byteOffset":4900,
			"target":34962
		},
		{
			"buffer":0,
			"byteLength":192,
			"byteOffset":5188,
			"target":34962
		},
		{
			"buffer":0,
			"byteLength":384,
			"byteOffset":5380,
			"target":34962
		},
		{
			"buffer":0,
			"byteLength":288,
			"byteOffset":5764,
			"target":34962
		},
		{
			"buffer":0,
			"byteLength":288,
			"byteOffset":6052,
			"target":34962
		},
		{
			"buffer":0,
			"byteLength":192,
			"byteOffset":6340,
			"target":34962
		},
		{
			"buffer":0,
			"byteLength":384,
			"byteOffset":6532,
			"target":34962
		},
		{
			"buffer":0,
			"byteLength":96,
			"byteOffset":6916,
			"target":34962
		},
		{
			"buffer":0,
			"byteLength":96,
			"byteOffset":7012,
			"target":34962
		},
		{
			"buffer":0,
			"byteLength":64,
			"byteOffset":7108,
			"target":34962
		},
		{
			"buffer":0,
			"byteLength":128,
			"byteOffset":7172,
			"target":34962
		},
		{
			"buffer":0,
			"byteLength":24,
			"byteOffset":7300,
			"target":34963
		},
		{
			"buffer":0,
			"byteLength":456,
			"byteOffset":7324,
			"target":34962
		},
		{
			"buffer":0,
			"byteLength":456,
			"byteOffset":7780,
			"target":34962
		},
		{
			"buffer":0,
			"byteLength":304,
			"byteOffset":8236,
			"target":34962
		},
		{
			"buffer":0,
			"byteLength":156,
			"byteOffset":8540,
			"target":34963
		},
		{
			"buffer":0,
			"byteLength":912,
			"byteOffset":8696,
			"target":34962
		},
		{
			"buffer":0,
			"byteLength":912,
			"byteOffset":9608,
			"target":34962
		},
		{
			"buffer":0,
			"byteLength":608,
			"byteOffset":10520,
			"target":34962
		},
		{
			"buffer":0,
			"byteLength":1216,
			"byteOffset":11128,
			"target":34962
		},
		{
			"buffer":0,
			"byteLength":228,
			"byteOffset":12344,
			"target":34963
		},
		{
			"buffer":0,
			"byteLength":960,
			"byteOffset":12572,
			"target":34962
		},
		{
			"buffer":0,
			"byteLength":960,
			"byteOffset":13532,
			"target":34962
		},
		{
			"buffer":0,
			"byteLength":640,
			"byteOffset":14492,
			"target":34962
		},
		{
			"buffer":0,
			"byteLength":1280,
			"byteOffset":15132,
			"target":34962
		},
		{
			"buffer":0,
			"byteLength":240,
			"byteOffset":16412,
			"target":34963
		}
	],
	"samplers":[
		{
			"magFilter":9729,
			"minFilter":9987
		}
	],
	"buffers":[
		{
			"byteLength":16652,
			"uri":"tile_3_0_2.bin"
		}
	]
}
