{
	"asset":{
		"generator":"Khronos glTF Blender I/O v4.0.44",
		"version":"2.0"
	},
	"scene":0,
	"scenes":[
		{
			"name":"Scene",
			"nodes":[
				0,
				1,
				2,
				3,
				4,
				5,
				6,
				7,
				8
			]
		}
	],
	"nodes":[
		{
			"name":"grindcurve.01_collider",
			"rotation":[
				0,
				-0.6427873969078064,
				0,
				0.7660446763038635
			]
		},
		{
			"mesh":0,
			"name":"grindcurve.01_curve",
			"rotation":[
				0,
				-0.6427873969078064,
				0,
				0.7660446763038635
			]
		},
		{
			"mesh":1,
			"name":"ground"
		},
		{
			"name":"decal.main",
			"rotation":[
				0,
				-0.7071068286895752,
				0.7071068286895752,
				3.4560699191388267e-07
			]
		},
		{
			"name":"decal.circles",
			"scale":[
				3,
				3,
				3
			]
		},
		{
			"name":"grindcurve.01",
			"rotation":[
				0,
				0.7660448551177979,
				0,
				0.6427870988845825
			]
		},
		{
			"mesh":2,
			"name":"grindcurve.02",
			"rotation":[
				0,
				-0.6427873969078064,
				0,
				0.7660446763038635
			]
		},
		{
			"name":"grindcurve.003",
			"rotation":[
				0,
				0.7660448551177979,
				0,
				0.6427870988845825
			]
		},
		{
			"mesh":3,
			"name":"grindcurve.004",
			"rotation":[
				0,
				-0.6427873969078064,
				0,
				0.7660446763038635
			]
		}
	],
	"materials":[
		{
			"doubleSided":true,
			"name":"dcl.PiratesPack",
			"pbrMetallicRoughness":{
				"baseColorTexture":{
					"index":0
				},
				"metallicFactor":0
			}
		}
	],
	"meshes":[
		{
			"name":"Cylinder.148",
			"primitives":[
				{
					"attributes":{
						"POSITION":0,
						"NORMAL":1,
						"TEXCOORD_0":2
					},
					"indices":3
				}
			]
		},
		{
			"name":"Cube.185",
			"primitives":[
				{
					"attributes":{
						"POSITION":4,
						"NORMAL":5,
						"TEXCOORD_0":6,
						"TANGENT":7
					},
					"indices":8,
					"material":0
				}
			]
		},
		{
			"name":"Cylinder.151",
			"primitives":[
				{
					"attributes":{
						"POSITION":9,
						"NORMAL":10,
						"TEXCOORD_0":11
					},
					"indices":12,
					"material":0
				}
			]
		},
		{
			"name":"grindcurve.011",
			"primitives":[
				{
					"attributes":{
						"POSITION":13,
						"NORMAL":14,
						"TEXCOORD_0":15,
						"TANGENT":16
					},
					"indices":17,
					"material":0
				}
			]
		}
	],
	"textures":[
		{
			"sampler":0,
			"source":0
		}
	],
	"images":[
		{
			"mimeType":"image/png",
			"name":"PiratesPack_TX",
			"uri":"tex/PiratesPack_TX.png"
		}
	],
	"accessors":[
		{
			"bufferView":0,
			"componentType":5126,
			"count":57,
			"max":[
				2.911064624786377,
				-8.5,
				4.217068672180176
			],
			"min":[
				-4.483648300170898,
				-11.049999237060547,
				-0.6947517395019531
			],
			"type":"VEC3"
		},
		{
			"bufferView":1,
			"componentType":5126,
			"count":57,
			"type":"VEC3"
		},
		{
			"bufferView":2,
			"componentType":5126,
			"count":57,
			"type":"VEC2"
		},
		{
			"bufferView":3,
			"componentType":5123,
			"count":132,
			"type":"SCALAR"
		},
		{
			"bufferView":4,
			"componentType":5126,
			"count":24,
			"max":[
				4,
				-10.65999984741211,
				4
			],
			"min":[
				-4,
				-10.899999618530273,
				-4
			],
			"type":"VEC3"
		},
		{
			"bufferView":5,
			"componentType":5126,
			"count":24,
			"type":"VEC3"
		},
		{
			"bufferView":6,
			"componentType":5126,
			"count":24,
			"type":"VEC2"
		},
		{
			"bufferView":7,
			"componentType":5126,
			"count":24,
			"type":"VEC4"
		},
		{
			"bufferView":8,
			"componentType":5123,
			"count":36,
			"type":"SCALAR"
		},
		{
			"bufferView":9,
			"componentType":5126,
			"count":129,
			"max":[
				2.911064624786377,
				-8.149999618530273,
				4.217068672180176
			],
			"min":[
				-4.483648300170898,
				-10.69999885559082,
				-0.6947517395019531
			],
			"type":"VEC3"
		},
		{
			"bufferView":10,
			"componentType":5126,
			"count":129,
			"type":"VEC3"
		},
		{
			"bufferView":11,
			"componentType":5126,
			"count":129,
			"type":"VEC2"
		},
		{
			"bufferView":12,
			"componentType":5123,
			"count":312,
			"type":"SCALAR"
		},
		{
			"bufferView":13,
			"componentType":5126,
			"count":39,
			"max":[
				3.0270133018493652,
				-8.032134056091309,
				2.955841541290283
			],
			"min":[
				-3.969628095626831,
				-8.332134246826172,
				-0.8447513580322266
			],
			"type":"VEC3"
		},
		{
			"bufferView":14,
			"componentType":5126,
			"count":39,
			"type":"VEC3"
		},
		{
			"bufferView":15,
			"componentType":5126,
			"count":39,
			"type":"VEC2"
		},
		{
			"bufferView":16,
			"componentType":5126,
			"count":39,
			"type":"VEC4"
		},
		{
			"bufferView":17,
			"componentType":5123,
			"count":156,
			"type":"SCALAR"
		}
	],
	"bufferViews":[
		{
			"buffer":0,
			"byteLength":684,
			"byteOffset":0,
			"target":34962
		},
		{
			"buffer":0,
			"byteLength":684,
			"byteOffset":684,
			"target":34962
		},
		{
			"buffer":0,
			"byteLength":456,
			"byteOffset":1368,
			"target":34962
		},
		{
			"buffer":0,
			"byteLength":264,
			"byteOffset":1824,
			"target":34963
		},
		{
			"buffer":0,
			"byteLength":288,
			"byteOffset":2088,
			"target":34962
		},
		{
			"buffer":0,
			"byteLength":288,
			"byteOffset":2376,
			"target":34962
		},
		{
			"buffer":0,
			"byteLength":192,
			"byteOffset":2664,
			"target":34962
		},
		{
			"buffer":0,
			"byteLength":384,
			"byteOffset":2856,
			"target":34962
		},
		{
			"buffer":0,
			"byteLength":72,
			"byteOffset":3240,
			"target":34963
		},
		{
			"buffer":0,
			"byteLength":1548,
			"byteOffset":3312,
			"target":34962
		},
		{
			"buffer":0,
			"byteLength":1548,
			"byteOffset":4860,
			"target":34962
		},
		{
			"buffer":0,
			"byteLength":1032,
			"byteOffset":6408,
			"target":34962
		},
		{
			"buffer":0,
			"byteLength":624,
			"byteOffset":7440,
			"target":34963
		},
		{
			"buffer":0,
			"byteLength":468,
			"byteOffset":8064,
			"target":34962
		},
		{
			"buffer":0,
			"byteLength":468,
			"byteOffset":8532,
			"target":34962
		},
		{
			"buffer":0,
			"byteLength":312,
			"byteOffset":9000,
			"target":34962
		},
		{
			"buffer":0,
			"byteLength":624,
			"byteOffset":9312,
			"target":34962
		},
		{
			"buffer":0,
			"byteLength":312,
			"byteOffset":9936,
			"target":34963
		}
	],
	"samplers":[
		{
			"magFilter":9729,
			"minFilter":9987
		}
	],
	"buffers":[
		{
			"byteLength":10248,
			"uri":"tile_3_0_9.bin"
		}
	]
}
