{
	"asset":{
		"generator":"Khronos glTF Blender I/O v4.0.44",
		"version":"2.0"
	},
	"scene":0,
	"scenes":[
		{
			"name":"Scene",
			"nodes":[
				0,
				1,
				2,
				3,
				4,
				5,
				6
			]
		}
	],
	"nodes":[
		{
			"mesh":0,
			"name":"pipe.main_collider",
			"rotation":[
				0.7071068286895752,
				0,
				0,
				0.7071068286895752
			]
		},
		{
			"mesh":1,
			"name":"ramp.rectangular.05_collider",
			"rotation":[
				-0.10451703518629074,
				0.6993398070335388,
				-0.10451705008745193,
				0.6993398666381836
			]
		},
		{
			"mesh":2,
			"name":"ground"
		},
		{
			"mesh":3,
			"name":"decal.main",
			"rotation":[
				0,
				-0.7071068286895752,
				0.7071068286895752,
				3.4560699191388267e-07
			]
		},
		{
			"mesh":4,
			"name":"pipe.main",
			"rotation":[
				0.7071068286895752,
				0,
				0,
				0.7071068286895752
			],
			"scale":[
				2,
				2,
				2
			]
		},
		{
			"name":"pipe.main.rim",
			"rotation":[
				0.7071068286895752,
				0,
				0,
				0.7071068286895752
			],
			"scale":[
				2,
				2,
				2
			]
		},
		{
			"mesh":5,
			"name":"ramp.rectangular.03",
			"rotation":[
				0,
				0.7071068286895752,
				0,
				0.7071068286895752
			],
			"scale":[
				1.5,
				1.5,
				1.5
			]
		}
	],
	"materials":[
		{
			"doubleSided":true,
			"name":"dcl.PiratesPack",
			"pbrMetallicRoughness":{
				"baseColorTexture":{
					"index":0
				},
				"metallicFactor":0
			}
		},
		{
			"doubleSided":true,
			"emissiveFactor":[
				1,
				1,
				1
			],
			"emissiveTexture":{
				"index":1
			},
			"name":"dcl.PiratesPack.emissive",
			"pbrMetallicRoughness":{
				"baseColorTexture":{
					"index":2
				},
				"metallicFactor":0
			}
		}
	],
	"meshes":[
		{
			"name":"Cylinder.245",
			"primitives":[
				{
					"attributes":{
						"POSITION":0,
						"NORMAL":1,
						"TEXCOORD_0":2,
						"TANGENT":3
					},
					"indices":4
				}
			]
		},
		{
			"name":"Cube.297",
			"primitives":[
				{
					"attributes":{
						"POSITION":5,
						"NORMAL":6,
						"TEXCOORD_0":7,
						"TANGENT":8
					},
					"indices":9
				}
			]
		},
		{
			"name":"Cube.298",
			"primitives":[
				{
					"attributes":{
						"POSITION":10,
						"NORMAL":11,
						"TEXCOORD_0":12
					},
					"indices":13,
					"material":0
				}
			]
		},
		{
			"name":"Cylinder.246",
			"primitives":[
				{
					"attributes":{
						"POSITION":14,
						"NORMAL":15,
						"TEXCOORD_0":16
					},
					"indices":17,
					"material":1
				}
			]
		},
		{
			"name":"Cylinder.247",
			"primitives":[
				{
					"attributes":{
						"POSITION":18,
						"NORMAL":19,
						"TEXCOORD_0":20
					},
					"indices":21,
					"material":0
				}
			]
		},
		{
			"name":"Cube.299",
			"primitives":[
				{
					"attributes":{
						"POSITION":22,
						"NORMAL":23,
						"TEXCOORD_0":24
					},
					"indices":25,
					"material":0
				}
			]
		}
	],
	"textures":[
		{
			"sampler":0,
			"source":0
		},
		{
			"sampler":0,
			"source":0
		},
		{
			"sampler":0,
			"source":0
		}
	],
	"images":[
		{
			"mimeType":"image/png",
			"name":"PiratesPack_TX",
			"uri":"tex/PiratesPack_TX.png"
		}
	],
	"accessors":[
		{
			"bufferView":0,
			"componentType":5126,
			"count":22,
			"max":[
				3.9999771118164062,
				-2.5000572204589844,
				10.65000057220459
			],
			"min":[
				3.286520004272461,
				-3.9999771118164062,
				10.34104061126709
			],
			"type":"VEC3"
		},
		{
			"bufferView":1,
			"componentType":5126,
			"count":22,
			"type":"VEC3"
		},
		{
			"bufferView":2,
			"componentType":5126,
			"count":22,
			"type":"VEC2"
		},
		{
			"bufferView":3,
			"componentType":5126,
			"count":22,
			"type":"VEC4"
		},
		{
			"bufferView":4,
			"componentType":5123,
			"count":30,
			"type":"SCALAR"
		},
		{
			"bufferView":5,
			"componentType":5126,
			"count":24,
			"max":[
				1.2806930541992188,
				-11.219711303710938,
				0.36856889724731445
			],
			"min":[
				-0.7525498867034912,
				-13.469711303710938,
				-4
			],
			"type":"VEC3"
		},
		{
			"bufferView":6,
			"componentType":5126,
			"count":24,
			"type":"VEC3"
		},
		{
			"bufferView":7,
			"componentType":5126,
			"count":24,
			"type":"VEC2"
		},
		{
			"bufferView":8,
			"componentType":5126,
			"count":24,
			"type":"VEC4"
		},
		{
			"bufferView":9,
			"componentType":5123,
			"count":36,
			"type":"SCALAR"
		},
		{
			"bufferView":10,
			"componentType":5126,
			"count":36,
			"max":[
				4,
				-10.65999984741211,
				4
			],
			"min":[
				-4,
				-10.899999618530273,
				-4
			],
			"type":"VEC3"
		},
		{
			"bufferView":11,
			"componentType":5126,
			"count":36,
			"type":"VEC3"
		},
		{
			"bufferView":12,
			"componentType":5126,
			"count":36,
			"type":"VEC2"
		},
		{
			"bufferView":13,
			"componentType":5123,
			"count":60,
			"type":"SCALAR"
		},
		{
			"bufferView":14,
			"componentType":5126,
			"count":13,
			"max":[
				4.000034332275391,
				2.0000686645507812,
				10.639999389648438
			],
			"min":[
				-3.9999656677246094,
				-3.499927520751953,
				10.625000953674316
			],
			"type":"VEC3"
		},
		{
			"bufferView":15,
			"componentType":5126,
			"count":13,
			"type":"VEC3"
		},
		{
			"bufferView":16,
			"componentType":5126,
			"count":13,
			"type":"VEC2"
		},
		{
			"bufferView":17,
			"componentType":5123,
			"count":21,
			"type":"SCALAR"
		},
		{
			"bufferView":18,
			"componentType":5126,
			"count":29,
			"max":[
				2.0000009536743164,
				-1.2500286102294922,
				5.325000286102295
			],
			"min":[
				1.6432600021362305,
				-1.9999980926513672,
				5.170514106750488
			],
			"type":"VEC3"
		},
		{
			"bufferView":19,
			"componentType":5126,
			"count":29,
			"type":"VEC3"
		},
		{
			"bufferView":20,
			"componentType":5126,
			"count":29,
			"type":"VEC2"
		},
		{
			"bufferView":21,
			"componentType":5123,
			"count":45,
			"type":"SCALAR"
		},
		{
			"bufferView":22,
			"componentType":5126,
			"count":53,
			"max":[
				-2.2666163444519043,
				-6.8204450607299805,
				0.2680244445800781
			],
			"min":[
				-2.6666669845581055,
				-7.09999942779541,
				-2.6666667461395264
			],
			"type":"VEC3"
		},
		{
			"bufferView":23,
			"componentType":5126,
			"count":53,
			"type":"VEC3"
		},
		{
			"bufferView":24,
			"componentType":5126,
			"count":53,
			"type":"VEC2"
		},
		{
			"bufferView":25,
			"componentType":5123,
			"count":117,
			"type":"SCALAR"
		}
	],
	"bufferViews":[
		{
			"buffer":0,
			"byteLength":264,
			"byteOffset":0,
			"target":34962
		},
		{
			"buffer":0,
			"byteLength":264,
			"byteOffset":264,
			"target":34962
		},
		{
			"buffer":0,
			"byteLength":176,
			"byteOffset":528,
			"target":34962
		},
		{
			"buffer":0,
			"byteLength":352,
			"byteOffset":704,
			"target":34962
		},
		{
			"buffer":0,
			"byteLength":60,
			"byteOffset":1056,
			"target":34963
		},
		{
			"buffer":0,
			"byteLength":288,
			"byteOffset":1116,
			"target":34962
		},
		{
			"buffer":0,
			"byteLength":288,
			"byteOffset":1404,
			"target":34962
		},
		{
			"buffer":0,
			"byteLength":192,
			"byteOffset":1692,
			"target":34962
		},
		{
			"buffer":0,
			"byteLength":384,
			"byteOffset":1884,
			"target":34962
		},
		{
			"buffer":0,
			"byteLength":72,
			"byteOffset":2268,
			"target":34963
		},
		{
			"buffer":0,
			"byteLength":432,
			"byteOffset":2340,
			"target":34962
		},
		{
			"buffer":0,
			"byteLength":432,
			"byteOffset":2772,
			"target":34962
		},
		{
			"buffer":0,
			"byteLength":288,
			"byteOffset":3204,
			"target":34962
		},
		{
			"buffer":0,
			"byteLength":120,
			"byteOffset":3492,
			"target":34963
		},
		{
			"buffer":0,
			"byteLength":156,
			"byteOffset":3612,
			"target":34962
		},
		{
			"buffer":0,
			"byteLength":156,
			"byteOffset":3768,
			"target":34962
		},
		{
			"buffer":0,
			"byteLength":104,
			"byteOffset":3924,
			"target":34962
		},
		{
			"buffer":0,
			"byteLength":42,
			"byteOffset":4028,
			"target":34963
		},
		{
			"buffer":0,
			"byteLength":348,
			"byteOffset":4072,
			"target":34962
		},
		{
			"buffer":0,
			"byteLength":348,
			"byteOffset":4420,
			"target":34962
		},
		{
			"buffer":0,
			"byteLength":232,
			"byteOffset":4768,
			"target":34962
		},
		{
			"buffer":0,
			"byteLength":90,
			"byteOffset":5000,
			"target":34963
		},
		{
			"buffer":0,
			"byteLength":636,
			"byteOffset":5092,
			"target":34962
		},
		{
			"buffer":0,
			"byteLength":636,
			"byteOffset":5728,
			"target":34962
		},
		{
			"buffer":0,
			"byteLength":424,
			"byteOffset":6364,
			"target":34962
		},
		{
			"buffer":0,
			"byteLength":234,
			"byteOffset":6788,
			"target":34963
		}
	],
	"samplers":[
		{
			"magFilter":9729,
			"minFilter":9987
		}
	],
	"buffers":[
		{
			"byteLength":7024,
			"uri":"tile_6_0_10.bin"
		}
	]
}
