{
	"asset":{
		"generator":"Khronos glTF Blender I/O v4.0.44",
		"version":"2.0"
	},
	"scene":0,
	"scenes":[
		{
			"name":"Scene",
			"nodes":[
				0,
				1,
				2,
				3,
				4,
				5
			]
		}
	],
	"nodes":[
		{
			"mesh":0,
			"name":"grindcurve.01_collider",
			"rotation":[
				0,
				-0.6427873969078064,
				0,
				0.7660446763038635
			]
		},
		{
			"mesh":1,
			"name":"ground"
		},
		{
			"name":"decal.main",
			"rotation":[
				0,
				-0.7071068286895752,
				0.7071068286895752,
				3.4560699191388267e-07
			]
		},
		{
			"mesh":2,
			"name":"decal.circles",
			"scale":[
				3,
				3,
				3
			]
		},
		{
			"mesh":3,
			"name":"grindcurve.01",
			"rotation":[
				0,
				0.7660448551177979,
				0,
				0.6427870988845825
			]
		},
		{
			"mesh":4,
			"name":"grindcurve.003",
			"rotation":[
				0,
				0.7660448551177979,
				0,
				0.6427870988845825
			]
		}
	],
	"materials":[
		{
			"doubleSided":true,
			"name":"dcl.PiratesPack",
			"pbrMetallicRoughness":{
				"baseColorTexture":{
					"index":0
				},
				"metallicFactor":0
			}
		},
		{
			"doubleSided":true,
			"emissiveFactor":[
				1,
				1,
				1
			],
			"emissiveTexture":{
				"index":1
			},
			"name":"dcl.PiratesPack.emissive",
			"pbrMetallicRoughness":{
				"baseColorTexture":{
					"index":2
				},
				"metallicFactor":0
			}
		}
	],
	"meshes":[
		{
			"name":"Cylinder.141",
			"primitives":[
				{
					"attributes":{
						"POSITION":0,
						"NORMAL":1,
						"TEXCOORD_0":2
					},
					"indices":3
				}
			]
		},
		{
			"name":"Cube.183",
			"primitives":[
				{
					"attributes":{
						"POSITION":4,
						"NORMAL":5,
						"TEXCOORD_0":6,
						"TANGENT":7
					},
					"indices":8,
					"material":0
				}
			]
		},
		{
			"name":"Circle.006",
			"primitives":[
				{
					"attributes":{
						"POSITION":9,
						"NORMAL":10,
						"TEXCOORD_0":11
					},
					"indices":12,
					"material":1
				}
			]
		},
		{
			"name":"Cylinder.143",
			"primitives":[
				{
					"attributes":{
						"POSITION":13,
						"NORMAL":14,
						"TEXCOORD_0":15
					},
					"indices":16,
					"material":0
				}
			]
		},
		{
			"name":"grindcurve.008",
			"primitives":[
				{
					"attributes":{
						"POSITION":17,
						"NORMAL":18,
						"TEXCOORD_0":19,
						"TANGENT":20
					},
					"indices":21,
					"material":0
				}
			]
		}
	],
	"textures":[
		{
			"sampler":0,
			"source":0
		},
		{
			"sampler":0,
			"source":0
		},
		{
			"sampler":0,
			"source":0
		}
	],
	"images":[
		{
			"mimeType":"image/png",
			"name":"PiratesPack_TX",
			"uri":"tex/PiratesPack_TX.png"
		}
	],
	"accessors":[
		{
			"bufferView":0,
			"componentType":5126,
			"count":78,
			"max":[
				1.9173545837402344,
				-8.5,
				4.282169342041016
			],
			"min":[
				-3.5084228515625,
				-15,
				-4.633825778961182
			],
			"type":"VEC3"
		},
		{
			"bufferView":1,
			"componentType":5126,
			"count":78,
			"type":"VEC3"
		},
		{
			"bufferView":2,
			"componentType":5126,
			"count":78,
			"type":"VEC2"
		},
		{
			"bufferView":3,
			"componentType":5123,
			"count":177,
			"type":"SCALAR"
		},
		{
			"bufferView":4,
			"componentType":5126,
			"count":24,
			"max":[
				4,
				-10.65999984741211,
				4
			],
			"min":[
				-4,
				-10.899999618530273,
				-4
			],
			"type":"VEC3"
		},
		{
			"bufferView":5,
			"componentType":5126,
			"count":24,
			"type":"VEC3"
		},
		{
			"bufferView":6,
			"componentType":5126,
			"count":24,
			"type":"VEC2"
		},
		{
			"bufferView":7,
			"componentType":5126,
			"count":24,
			"type":"VEC4"
		},
		{
			"bufferView":8,
			"componentType":5123,
			"count":36,
			"type":"SCALAR"
		},
		{
			"bufferView":9,
			"componentType":5126,
			"count":7,
			"max":[
				0.06218552589416504,
				-3.5366671085357666,
				-0.9323749542236328
			],
			"min":[
				-1.3333333730697632,
				-3.5366671085357666,
				-1.3333314657211304
			],
			"type":"VEC3"
		},
		{
			"bufferView":10,
			"componentType":5126,
			"count":7,
			"type":"VEC3"
		},
		{
			"bufferView":11,
			"componentType":5126,
			"count":7,
			"type":"VEC2"
		},
		{
			"bufferView":12,
			"componentType":5123,
			"count":15,
			"type":"SCALAR"
		},
		{
			"bufferView":13,
			"componentType":5126,
			"count":166,
			"max":[
				3.508427858352661,
				-8.149999618530273,
				4.6338276863098145
			],
			"min":[
				-1.9173507690429688,
				-15,
				-4.282170295715332
			],
			"type":"VEC3"
		},
		{
			"bufferView":14,
			"componentType":5126,
			"count":166,
			"type":"VEC3"
		},
		{
			"bufferView":15,
			"componentType":5126,
			"count":166,
			"type":"VEC2"
		},
		{
			"bufferView":16,
			"componentType":5123,
			"count":393,
			"type":"SCALAR"
		},
		{
			"bufferView":17,
			"componentType":5126,
			"count":120,
			"max":[
				0.2600560188293457,
				-8.029866218566895,
				4.10756254196167
			],
			"min":[
				-2.067350387573242,
				-8.329817771911621,
				-4.309445858001709
			],
			"type":"VEC3"
		},
		{
			"bufferView":18,
			"componentType":5126,
			"count":120,
			"type":"VEC3"
		},
		{
			"bufferView":19,
			"componentType":5126,
			"count":120,
			"type":"VEC2"
		},
		{
			"bufferView":20,
			"componentType":5126,
			"count":120,
			"type":"VEC4"
		},
		{
			"bufferView":21,
			"componentType":5123,
			"count":180,
			"type":"SCALAR"
		}
	],
	"bufferViews":[
		{
			"buffer":0,
			"byteLength":936,
			"byteOffset":0,
			"target":34962
		},
		{
			"buffer":0,
			"byteLength":936,
			"byteOffset":936,
			"target":34962
		},
		{
			"buffer":0,
			"byteLength":624,
			"byteOffset":1872,
			"target":34962
		},
		{
			"buffer":0,
			"byteLength":354,
			"byteOffset":2496,
			"target":34963
		},
		{
			"buffer":0,
			"byteLength":288,
			"byteOffset":2852,
			"target":34962
		},
		{
			"buffer":0,
			"byteLength":288,
			"byteOffset":3140,
			"target":34962
		},
		{
			"buffer":0,
			"byteLength":192,
			"byteOffset":3428,
			"target":34962
		},
		{
			"buffer":0,
			"byteLength":384,
			"byteOffset":3620,
			"target":34962
		},
		{
			"buffer":0,
			"byteLength":72,
			"byteOffset":4004,
			"target":34963
		},
		{
			"buffer":0,
			"byteLength":84,
			"byteOffset":4076,
			"target":34962
		},
		{
			"buffer":0,
			"byteLength":84,
			"byteOffset":4160,
			"target":34962
		},
		{
			"buffer":0,
			"byteLength":56,
			"byteOffset":4244,
			"target":34962
		},
		{
			"buffer":0,
			"byteLength":30,
			"byteOffset":4300,
			"target":34963
		},
		{
			"buffer":0,
			"byteLength":1992,
			"byteOffset":4332,
			"target":34962
		},
		{
			"buffer":0,
			"byteLength":1992,
			"byteOffset":6324,
			"target":34962
		},
		{
			"buffer":0,
			"byteLength":1328,
			"byteOffset":8316,
			"target":34962
		},
		{
			"buffer":0,
			"byteLength":786,
			"byteOffset":9644,
			"target":34963
		},
		{
			"buffer":0,
			"byteLength":1440,
			"byteOffset":10432,
			"target":34962
		},
		{
			"buffer":0,
			"byteLength":1440,
			"byteOffset":11872,
			"target":34962
		},
		{
			"buffer":0,
			"byteLength":960,
			"byteOffset":13312,
			"target":34962
		},
		{
			"buffer":0,
			"byteLength":1920,
			"byteOffset":14272,
			"target":34962
		},
		{
			"buffer":0,
			"byteLength":360,
			"byteOffset":16192,
			"target":34963
		}
	],
	"samplers":[
		{
			"magFilter":9729,
			"minFilter":9987
		}
	],
	"buffers":[
		{
			"byteLength":16552,
			"uri":"tile_3_0_7.bin"
		}
	]
}
