{
	"asset":{
		"generator":"Khronos glTF Blender I/O v4.0.44",
		"version":"2.0"
	},
	"scene":0,
	"scenes":[
		{
			"name":"Scene",
			"nodes":[
				0,
				1,
				2,
				3,
				4,
				5
			]
		}
	],
	"nodes":[
		{
			"mesh":0,
			"name":"pipe.main_collider",
			"rotation":[
				0.7071068286895752,
				0,
				0,
				0.7071068286895752
			]
		},
		{
			"mesh":1,
			"name":"wall.north.014"
		},
		{
			"mesh":2,
			"name":"ground"
		},
		{
			"name":"neons.004",
			"rotation":[
				-0.5000002384185791,
				0.5000001788139343,
				-0.4999997615814209,
				0.4999998211860657
			],
			"scale":[
				0.19999998807907104,
				1,
				47.68861770629883
			]
		},
		{
			"mesh":3,
			"name":"pipe.main",
			"rotation":[
				0.7071068286895752,
				0,
				0,
				0.7071068286895752
			],
			"scale":[
				2,
				2,
				2
			]
		},
		{
			"mesh":4,
			"name":"pipe.main.rim",
			"rotation":[
				0.7071068286895752,
				0,
				0,
				0.7071068286895752
			],
			"scale":[
				2,
				2,
				2
			]
		}
	],
	"materials":[
		{
			"doubleSided":true,
			"name":"dcl.PiratesPack",
			"pbrMetallicRoughness":{
				"baseColorTexture":{
					"index":0
				},
				"metallicFactor":0
			}
		}
	],
	"meshes":[
		{
			"name":"Cylinder.249",
			"primitives":[
				{
					"attributes":{
						"POSITION":0,
						"NORMAL":1,
						"TEXCOORD_0":2
					},
					"indices":3
				}
			]
		},
		{
			"name":"Cylinder.250",
			"primitives":[
				{
					"attributes":{
						"POSITION":4,
						"NORMAL":5,
						"TEXCOORD_0":6
					},
					"indices":7,
					"material":0
				}
			]
		},
		{
			"name":"Cube.300",
			"primitives":[
				{
					"attributes":{
						"POSITION":8,
						"NORMAL":9,
						"TEXCOORD_0":10
					},
					"indices":11,
					"material":0
				}
			]
		},
		{
			"name":"Cylinder.251",
			"primitives":[
				{
					"attributes":{
						"POSITION":12,
						"NORMAL":13,
						"TEXCOORD_0":14
					},
					"indices":15,
					"material":0
				}
			]
		},
		{
			"name":"Cylinder.252",
			"primitives":[
				{
					"attributes":{
						"POSITION":16,
						"NORMAL":17,
						"TEXCOORD_0":18,
						"TANGENT":19
					},
					"indices":20,
					"material":0
				}
			]
		}
	],
	"textures":[
		{
			"sampler":0,
			"source":0
		}
	],
	"images":[
		{
			"mimeType":"image/png",
			"name":"PiratesPack_TX",
			"uri":"tex/PiratesPack_TX.png"
		}
	],
	"accessors":[
		{
			"bufferView":0,
			"componentType":5126,
			"count":53,
			"max":[
				3.999969482421875,
				4.000022888183594,
				10.65000057220459
			],
			"min":[
				3.2865123748779297,
				-1.9073486328125e-05,
				7.649999618530273
			],
			"type":"VEC3"
		},
		{
			"bufferView":1,
			"componentType":5126,
			"count":53,
			"type":"VEC3"
		},
		{
			"bufferView":2,
			"componentType":5126,
			"count":53,
			"type":"VEC2"
		},
		{
			"bufferView":3,
			"componentType":5123,
			"count":93,
			"type":"SCALAR"
		},
		{
			"bufferView":4,
			"componentType":5126,
			"count":36,
			"max":[
				4,
				-0.12976360321044922,
				-9.715557098388672e-06
			],
			"min":[
				3.2865257263183594,
				-10.899999618530273,
				-1.0000028610229492
			],
			"type":"VEC3"
		},
		{
			"bufferView":5,
			"componentType":5126,
			"count":36,
			"type":"VEC3"
		},
		{
			"bufferView":6,
			"componentType":5126,
			"count":36,
			"type":"VEC2"
		},
		{
			"bufferView":7,
			"componentType":5123,
			"count":72,
			"type":"SCALAR"
		},
		{
			"bufferView":8,
			"componentType":5126,
			"count":36,
			"max":[
				4,
				-10.65999984741211,
				4
			],
			"min":[
				-4,
				-10.899999618530273,
				-0.9999885559082031
			],
			"type":"VEC3"
		},
		{
			"bufferView":9,
			"componentType":5126,
			"count":36,
			"type":"VEC3"
		},
		{
			"bufferView":10,
			"componentType":5126,
			"count":36,
			"type":"VEC2"
		},
		{
			"bufferView":11,
			"componentType":5123,
			"count":60,
			"type":"SCALAR"
		},
		{
			"bufferView":12,
			"componentType":5126,
			"count":60,
			"max":[
				2,
				2.000001907348633,
				5.325000286102295
			],
			"min":[
				1.6432561874389648,
				-9.5367431640625e-06,
				3.8249998092651367
			],
			"type":"VEC3"
		},
		{
			"bufferView":13,
			"componentType":5126,
			"count":60,
			"type":"VEC3"
		},
		{
			"bufferView":14,
			"componentType":5126,
			"count":60,
			"type":"VEC2"
		},
		{
			"bufferView":15,
			"componentType":5123,
			"count":111,
			"type":"SCALAR"
		},
		{
			"bufferView":16,
			"componentType":5126,
			"count":20,
			"max":[
				1.9999990463256836,
				1.5443458557128906,
				3.8693737983703613
			],
			"min":[
				1.643265724182129,
				1.455596923828125,
				3.780625581741333
			],
			"type":"VEC3"
		},
		{
			"bufferView":17,
			"componentType":5126,
			"count":20,
			"type":"VEC3"
		},
		{
			"bufferView":18,
			"componentType":5126,
			"count":20,
			"type":"VEC2"
		},
		{
			"bufferView":19,
			"componentType":5126,
			"count":20,
			"type":"VEC4"
		},
		{
			"bufferView":20,
			"componentType":5123,
			"count":30,
			"type":"SCALAR"
		}
	],
	"bufferViews":[
		{
			"buffer":0,
			"byteLength":636,
			"byteOffset":0,
			"target":34962
		},
		{
			"buffer":0,
			"byteLength":636,
			"byteOffset":636,
			"target":34962
		},
		{
			"buffer":0,
			"byteLength":424,
			"byteOffset":1272,
			"target":34962
		},
		{
			"buffer":0,
			"byteLength":186,
			"byteOffset":1696,
			"target":34963
		},
		{
			"buffer":0,
			"byteLength":432,
			"byteOffset":1884,
			"target":34962
		},
		{
			"buffer":0,
			"byteLength":432,
			"byteOffset":2316,
			"target":34962
		},
		{
			"buffer":0,
			"byteLength":288,
			"byteOffset":2748,
			"target":34962
		},
		{
			"buffer":0,
			"byteLength":144,
			"byteOffset":3036,
			"target":34963
		},
		{
			"buffer":0,
			"byteLength":432,
			"byteOffset":3180,
			"target":34962
		},
		{
			"buffer":0,
			"byteLength":432,
			"byteOffset":3612,
			"target":34962
		},
		{
			"buffer":0,
			"byteLength":288,
			"byteOffset":4044,
			"target":34962
		},
		{
			"buffer":0,
			"byteLength":120,
			"byteOffset":4332,
			"target":34963
		},
		{
			"buffer":0,
			"byteLength":720,
			"byteOffset":4452,
			"target":34962
		},
		{
			"buffer":0,
			"byteLength":720,
			"byteOffset":5172,
			"target":34962
		},
		{
			"buffer":0,
			"byteLength":480,
			"byteOffset":5892,
			"target":34962
		},
		{
			"buffer":0,
			"byteLength":222,
			"byteOffset":6372,
			"target":34963
		},
		{
			"buffer":0,
			"byteLength":240,
			"byteOffset":6596,
			"target":34962
		},
		{
			"buffer":0,
			"byteLength":240,
			"byteOffset":6836,
			"target":34962
		},
		{
			"buffer":0,
			"byteLength":160,
			"byteOffset":7076,
			"target":34962
		},
		{
			"buffer":0,
			"byteLength":320,
			"byteOffset":7236,
			"target":34962
		},
		{
			"buffer":0,
			"byteLength":60,
			"byteOffset":7556,
			"target":34963
		}
	],
	"samplers":[
		{
			"magFilter":9729,
			"minFilter":9987
		}
	],
	"buffers":[
		{
			"byteLength":7616,
			"uri":"tile_6_0_11.bin"
		}
	]
}
