{
	"asset":{
		"generator":"Khronos glTF Blender I/O v4.0.44",
		"version":"2.0"
	},
	"scene":0,
	"scenes":[
		{
			"name":"Scene",
			"nodes":[
				0,
				1,
				2,
				3,
				4,
				5,
				6
			]
		}
	],
	"nodes":[
		{
			"mesh":0,
			"name":"entrance.pillar.001_collider",
			"rotation":[
				0.7071068286895752,
				0,
				0,
				0.7071068286895752
			]
		},
		{
			"mesh":1,
			"name":"ramp.rectangular.02_collider",
			"rotation":[
				0,
				-1,
				0,
				1.6292068494294654e-07
			]
		},
		{
			"mesh":2,
			"name":"ground"
		},
		{
			"name":"decal.main",
			"rotation":[
				0,
				-0.7071068286895752,
				0.7071068286895752,
				3.4560699191388267e-07
			]
		},
		{
			"name":"decal.ramp.branches",
			"rotation":[
				0,
				-1,
				0,
				1.6292068494294654e-07
			],
			"scale":[
				1.5,
				1.5,
				1.5
			]
		},
		{
			"mesh":3,
			"name":"ramp.rectangular.02",
			"rotation":[
				0,
				-1,
				0,
				1.6292068494294654e-07
			]
		},
		{
			"mesh":4,
			"name":"tyre_007.002",
			"rotation":[
				0.7071068286895752,
				0,
				0,
				0.7071068286895752
			]
		}
	],
	"materials":[
		{
			"doubleSided":true,
			"name":"dcl.PiratesPack",
			"pbrMetallicRoughness":{
				"baseColorTexture":{
					"index":0
				},
				"metallicFactor":0
			}
		}
	],
	"meshes":[
		{
			"name":"Cube.154",
			"primitives":[
				{
					"attributes":{
						"POSITION":0,
						"NORMAL":1,
						"TEXCOORD_0":2,
						"TANGENT":3
					},
					"indices":4
				}
			]
		},
		{
			"name":"Cube.155",
			"primitives":[
				{
					"attributes":{
						"POSITION":5,
						"NORMAL":6,
						"TEXCOORD_0":7,
						"TANGENT":8
					},
					"indices":9
				}
			]
		},
		{
			"name":"Cube.156",
			"primitives":[
				{
					"attributes":{
						"POSITION":10,
						"NORMAL":11,
						"TEXCOORD_0":12,
						"TANGENT":13
					},
					"indices":14,
					"material":0
				}
			]
		},
		{
			"name":"Cube.158",
			"primitives":[
				{
					"attributes":{
						"POSITION":15,
						"NORMAL":16,
						"TEXCOORD_0":17,
						"TANGENT":18
					},
					"indices":19,
					"material":0
				}
			]
		},
		{
			"name":"Cube.159",
			"primitives":[
				{
					"attributes":{
						"POSITION":20,
						"NORMAL":21,
						"TEXCOORD_0":22
					},
					"indices":23,
					"material":0
				}
			]
		}
	],
	"textures":[
		{
			"sampler":0,
			"source":0
		}
	],
	"images":[
		{
			"mimeType":"image/png",
			"name":"PiratesPack_TX",
			"uri":"tex/PiratesPack_TX.png"
		}
	],
	"accessors":[
		{
			"bufferView":0,
			"componentType":5126,
			"count":18,
			"max":[
				4,
				4.000000476837158,
				10.45959186553955
			],
			"min":[
				3.519770622253418,
				3.9044768810272217,
				2.0826258659362793
			],
			"type":"VEC3"
		},
		{
			"bufferView":1,
			"componentType":5126,
			"count":18,
			"type":"VEC3"
		},
		{
			"bufferView":2,
			"componentType":5126,
			"count":18,
			"type":"VEC2"
		},
		{
			"bufferView":3,
			"componentType":5126,
			"count":18,
			"type":"VEC4"
		},
		{
			"bufferView":4,
			"componentType":5123,
			"count":24,
			"type":"SCALAR"
		},
		{
			"bufferView":5,
			"componentType":5126,
			"count":7,
			"max":[
				3.9999961853027344,
				-10.415928840637207,
				4.000001907348633
			],
			"min":[
				-2.9259510040283203,
				-10.670775413513184,
				3.1878066062927246
			],
			"type":"VEC3"
		},
		{
			"bufferView":6,
			"componentType":5126,
			"count":7,
			"type":"VEC3"
		},
		{
			"bufferView":7,
			"componentType":5126,
			"count":7,
			"type":"VEC2"
		},
		{
			"bufferView":8,
			"componentType":5126,
			"count":7,
			"type":"VEC4"
		},
		{
			"bufferView":9,
			"componentType":5123,
			"count":9,
			"type":"SCALAR"
		},
		{
			"bufferView":10,
			"componentType":5126,
			"count":24,
			"max":[
				4,
				-10.65999984741211,
				4
			],
			"min":[
				-4,
				-10.899999618530273,
				-4
			],
			"type":"VEC3"
		},
		{
			"bufferView":11,
			"componentType":5126,
			"count":24,
			"type":"VEC3"
		},
		{
			"bufferView":12,
			"componentType":5126,
			"count":24,
			"type":"VEC2"
		},
		{
			"bufferView":13,
			"componentType":5126,
			"count":24,
			"type":"VEC4"
		},
		{
			"bufferView":14,
			"componentType":5123,
			"count":36,
			"type":"SCALAR"
		},
		{
			"bufferView":15,
			"componentType":5126,
			"count":7,
			"max":[
				3.9999961853027344,
				-10.434831619262695,
				4.000001907348633
			],
			"min":[
				-2.8925371170043945,
				-10.649999618530273,
				3.2157130241394043
			],
			"type":"VEC3"
		},
		{
			"bufferView":16,
			"componentType":5126,
			"count":7,
			"type":"VEC3"
		},
		{
			"bufferView":17,
			"componentType":5126,
			"count":7,
			"type":"VEC2"
		},
		{
			"bufferView":18,
			"componentType":5126,
			"count":7,
			"type":"VEC4"
		},
		{
			"bufferView":19,
			"componentType":5123,
			"count":9,
			"type":"SCALAR"
		},
		{
			"bufferView":20,
			"componentType":5126,
			"count":22,
			"max":[
				4,
				4.000000476837158,
				6.461618900299072
			],
			"min":[
				3.489229440689087,
				3.9043455123901367,
				4.7036309242248535
			],
			"type":"VEC3"
		},
		{
			"bufferView":21,
			"componentType":5126,
			"count":22,
			"type":"VEC3"
		},
		{
			"bufferView":22,
			"componentType":5126,
			"count":22,
			"type":"VEC2"
		},
		{
			"bufferView":23,
			"componentType":5123,
			"count":48,
			"type":"SCALAR"
		}
	],
	"bufferViews":[
		{
			"buffer":0,
			"byteLength":216,
			"byteOffset":0,
			"target":34962
		},
		{
			"buffer":0,
			"byteLength":216,
			"byteOffset":216,
			"target":34962
		},
		{
			"buffer":0,
			"byteLength":144,
			"byteOffset":432,
			"target":34962
		},
		{
			"buffer":0,
			"byteLength":288,
			"byteOffset":576,
			"target":34962
		},
		{
			"buffer":0,
			"byteLength":48,
			"byteOffset":864,
			"target":34963
		},
		{
			"buffer":0,
			"byteLength":84,
			"byteOffset":912,
			"target":34962
		},
		{
			"buffer":0,
			"byteLength":84,
			"byteOffset":996,
			"target":34962
		},
		{
			"buffer":0,
			"byteLength":56,
			"byteOffset":1080,
			"target":34962
		},
		{
			"buffer":0,
			"byteLength":112,
			"byteOffset":1136,
			"target":34962
		},
		{
			"buffer":0,
			"byteLength":18,
			"byteOffset":1248,
			"target":34963
		},
		{
			"buffer":0,
			"byteLength":288,
			"byteOffset":1268,
			"target":34962
		},
		{
			"buffer":0,
			"byteLength":288,
			"byteOffset":1556,
			"target":34962
		},
		{
			"buffer":0,
			"byteLength":192,
			"byteOffset":1844,
			"target":34962
		},
		{
			"buffer":0,
			"byteLength":384,
			"byteOffset":2036,
			"target":34962
		},
		{
			"buffer":0,
			"byteLength":72,
			"byteOffset":2420,
			"target":34963
		},
		{
			"buffer":0,
			"byteLength":84,
			"byteOffset":2492,
			"target":34962
		},
		{
			"buffer":0,
			"byteLength":84,
			"byteOffset":2576,
			"target":34962
		},
		{
			"buffer":0,
			"byteLength":56,
			"byteOffset":2660,
			"target":34962
		},
		{
			"buffer":0,
			"byteLength":112,
			"byteOffset":2716,
			"target":34962
		},
		{
			"buffer":0,
			"byteLength":18,
			"byteOffset":2828,
			"target":34963
		},
		{
			"buffer":0,
			"byteLength":264,
			"byteOffset":2848,
			"target":34962
		},
		{
			"buffer":0,
			"byteLength":264,
			"byteOffset":3112,
			"target":34962
		},
		{
			"buffer":0,
			"byteLength":176,
			"byteOffset":3376,
			"target":34962
		},
		{
			"buffer":0,
			"byteLength":96,
			"byteOffset":3552,
			"target":34963
		}
	],
	"samplers":[
		{
			"magFilter":9729,
			"minFilter":9987
		}
	],
	"buffers":[
		{
			"byteLength":3648,
			"uri":"tile_3_0_1.bin"
		}
	]
}
