{
	"asset":{
		"generator":"Khronos glTF Blender I/O v4.0.44",
		"version":"2.0"
	},
	"scene":0,
	"scenes":[
		{
			"name":"Scene",
			"nodes":[
				0,
				1,
				2,
				3
			]
		}
	],
	"nodes":[
		{
			"mesh":0,
			"name":"pipe.main_collider",
			"rotation":[
				0.7071068286895752,
				0,
				0,
				0.7071068286895752
			]
		},
		{
			"mesh":1,
			"name":"ground"
		},
		{
			"mesh":2,
			"name":"pipe.main",
			"rotation":[
				0.7071068286895752,
				0,
				0,
				0.7071068286895752
			],
			"scale":[
				2,
				2,
				2
			]
		},
		{
			"mesh":3,
			"name":"pipe.main.rim",
			"rotation":[
				0.7071068286895752,
				0,
				0,
				0.7071068286895752
			],
			"scale":[
				2,
				2,
				2
			]
		}
	],
	"materials":[
		{
			"doubleSided":true,
			"name":"dcl.PiratesPack",
			"pbrMetallicRoughness":{
				"baseColorTexture":{
					"index":0
				},
				"metallicFactor":0
			}
		}
	],
	"meshes":[
		{
			"name":"Cylinder.355",
			"primitives":[
				{
					"attributes":{
						"POSITION":0,
						"NORMAL":1,
						"TEXCOORD_0":2
					},
					"indices":3
				}
			]
		},
		{
			"name":"Cube.347",
			"primitives":[
				{
					"attributes":{
						"POSITION":4,
						"NORMAL":5,
						"TEXCOORD_0":6,
						"TANGENT":7
					},
					"indices":8,
					"material":0
				}
			]
		},
		{
			"name":"Cylinder.356",
			"primitives":[
				{
					"attributes":{
						"POSITION":9,
						"NORMAL":10,
						"TEXCOORD_0":11
					},
					"indices":12,
					"material":0
				}
			]
		},
		{
			"name":"Cylinder.357",
			"primitives":[
				{
					"attributes":{
						"POSITION":13,
						"NORMAL":14,
						"TEXCOORD_0":15,
						"TANGENT":16
					},
					"indices":17,
					"material":0
				}
			]
		}
	],
	"textures":[
		{
			"sampler":0,
			"source":0
		}
	],
	"images":[
		{
			"mimeType":"image/png",
			"name":"PiratesPack_TX",
			"uri":"tex/PiratesPack_TX.png"
		}
	],
	"accessors":[
		{
			"bufferView":0,
			"componentType":5126,
			"count":102,
			"max":[
				4.000022888183594,
				4.000003814697266,
				10.555351257324219
			],
			"min":[
				-3.9999771118164062,
				-3.9999961853027344,
				7.650002956390381
			],
			"type":"VEC3"
		},
		{
			"bufferView":1,
			"componentType":5126,
			"count":102,
			"type":"VEC3"
		},
		{
			"bufferView":2,
			"componentType":5126,
			"count":102,
			"type":"VEC2"
		},
		{
			"bufferView":3,
			"componentType":5123,
			"count":186,
			"type":"SCALAR"
		},
		{
			"bufferView":4,
			"componentType":5126,
			"count":24,
			"max":[
				4,
				-10.65999984741211,
				4
			],
			"min":[
				-4,
				-10.899999618530273,
				-4
			],
			"type":"VEC3"
		},
		{
			"bufferView":5,
			"componentType":5126,
			"count":24,
			"type":"VEC3"
		},
		{
			"bufferView":6,
			"componentType":5126,
			"count":24,
			"type":"VEC2"
		},
		{
			"bufferView":7,
			"componentType":5126,
			"count":24,
			"type":"VEC4"
		},
		{
			"bufferView":8,
			"componentType":5123,
			"count":36,
			"type":"SCALAR"
		},
		{
			"bufferView":9,
			"componentType":5126,
			"count":77,
			"max":[
				2.000000238418579,
				2.000001907348633,
				7.500000953674316
			],
			"min":[
				-2.0000009536743164,
				-2.0000009536743164,
				3.8250012397766113
			],
			"type":"VEC3"
		},
		{
			"bufferView":10,
			"componentType":5126,
			"count":77,
			"type":"VEC3"
		},
		{
			"bufferView":11,
			"componentType":5126,
			"count":77,
			"type":"VEC2"
		},
		{
			"bufferView":12,
			"componentType":5123,
			"count":204,
			"type":"SCALAR"
		},
		{
			"bufferView":13,
			"componentType":5126,
			"count":72,
			"max":[
				1.9999992847442627,
				0.9953956604003906,
				3.85764741897583
			],
			"min":[
				-0.6692936420440674,
				-2,
				3.7923545837402344
			],
			"type":"VEC3"
		},
		{
			"bufferView":14,
			"componentType":5126,
			"count":72,
			"type":"VEC3"
		},
		{
			"bufferView":15,
			"componentType":5126,
			"count":72,
			"type":"VEC2"
		},
		{
			"bufferView":16,
			"componentType":5126,
			"count":72,
			"type":"VEC4"
		},
		{
			"bufferView":17,
			"componentType":5123,
			"count":108,
			"type":"SCALAR"
		}
	],
	"bufferViews":[
		{
			"buffer":0,
			"byteLength":1224,
			"byteOffset":0,
			"target":34962
		},
		{
			"buffer":0,
			"byteLength":1224,
			"byteOffset":1224,
			"target":34962
		},
		{
			"buffer":0,
			"byteLength":816,
			"byteOffset":2448,
			"target":34962
		},
		{
			"buffer":0,
			"byteLength":372,
			"byteOffset":3264,
			"target":34963
		},
		{
			"buffer":0,
			"byteLength":288,
			"byteOffset":3636,
			"target":34962
		},
		{
			"buffer":0,
			"byteLength":288,
			"byteOffset":3924,
			"target":34962
		},
		{
			"buffer":0,
			"byteLength":192,
			"byteOffset":4212,
			"target":34962
		},
		{
			"buffer":0,
			"byteLength":384,
			"byteOffset":4404,
			"target":34962
		},
		{
			"buffer":0,
			"byteLength":72,
			"byteOffset":4788,
			"target":34963
		},
		{
			"buffer":0,
			"byteLength":924,
			"byteOffset":4860,
			"target":34962
		},
		{
			"buffer":0,
			"byteLength":924,
			"byteOffset":5784,
			"target":34962
		},
		{
			"buffer":0,
			"byteLength":616,
			"byteOffset":6708,
			"target":34962
		},
		{
			"buffer":0,
			"byteLength":408,
			"byteOffset":7324,
			"target":34963
		},
		{
			"buffer":0,
			"byteLength":864,
			"byteOffset":7732,
			"target":34962
		},
		{
			"buffer":0,
			"byteLength":864,
			"byteOffset":8596,
			"target":34962
		},
		{
			"buffer":0,
			"byteLength":576,
			"byteOffset":9460,
			"target":34962
		},
		{
			"buffer":0,
			"byteLength":1152,
			"byteOffset":10036,
			"target":34962
		},
		{
			"buffer":0,
			"byteLength":216,
			"byteOffset":11188,
			"target":34963
		}
	],
	"samplers":[
		{
			"magFilter":9729,
			"minFilter":9987
		}
	],
	"buffers":[
		{
			"byteLength":11404,
			"uri":"tile_9_0_1.bin"
		}
	]
}
