{
	"asset":{
		"generator":"Khronos glTF Blender I/O v4.0.44",
		"version":"2.0"
	},
	"scene":0,
	"scenes":[
		{
			"name":"Scene",
			"nodes":[
				0,
				1,
				2,
				3,
				4,
				5
			]
		}
	],
	"nodes":[
		{
			"mesh":0,
			"name":"pipe.west_collider",
			"rotation":[
				0,
				-0.7071068286895752,
				0.7071068286895752,
				3.4560699191388267e-07
			]
		},
		{
			"mesh":1,
			"name":"wall.west.010"
		},
		{
			"mesh":2,
			"name":"ground"
		},
		{
			"name":"decal.main",
			"rotation":[
				0,
				-0.7071068286895752,
				0.7071068286895752,
				3.4560699191388267e-07
			]
		},
		{
			"mesh":3,
			"name":"neons.002",
			"rotation":[
				0.7071068286895752,
				-0.7071068286895752,
				0,
				1.1520234011186403e-07
			],
			"scale":[
				0.19999998807907104,
				1,
				44.15021896362305
			]
		},
		{
			"mesh":4,
			"name":"pipe.west.001",
			"rotation":[
				0,
				-0.7071068286895752,
				0.7071068286895752,
				3.4560699191388267e-07
			]
		}
	],
	"materials":[
		{
			"doubleSided":true,
			"name":"dcl.PiratesPack",
			"pbrMetallicRoughness":{
				"baseColorTexture":{
					"index":0
				},
				"metallicFactor":0
			}
		},
		{
			"doubleSided":true,
			"emissiveFactor":[
				1,
				1,
				1
			],
			"emissiveTexture":{
				"index":1
			},
			"name":"dcl.PiratesPack.emissive",
			"pbrMetallicRoughness":{
				"baseColorTexture":{
					"index":2
				},
				"metallicFactor":0
			}
		}
	],
	"meshes":[
		{
			"name":"Cylinder.060",
			"primitives":[
				{
					"attributes":{
						"POSITION":0,
						"NORMAL":1,
						"TEXCOORD_0":2
					},
					"indices":3
				}
			]
		},
		{
			"name":"Cylinder.066",
			"primitives":[
				{
					"attributes":{
						"POSITION":4,
						"NORMAL":5,
						"TEXCOORD_0":6
					},
					"indices":7,
					"material":0
				}
			]
		},
		{
			"name":"Cube.058",
			"primitives":[
				{
					"attributes":{
						"POSITION":8,
						"NORMAL":9,
						"TEXCOORD_0":10
					},
					"indices":11,
					"material":0
				}
			]
		},
		{
			"name":"Plane.012",
			"primitives":[
				{
					"attributes":{
						"POSITION":12,
						"NORMAL":13,
						"TEXCOORD_0":14,
						"TANGENT":15
					},
					"indices":16,
					"material":1
				}
			]
		},
		{
			"name":"Cylinder.068",
			"primitives":[
				{
					"attributes":{
						"POSITION":17,
						"NORMAL":18,
						"TEXCOORD_0":19
					},
					"indices":20,
					"material":0
				},
				{
					"attributes":{
						"POSITION":21,
						"NORMAL":22,
						"TEXCOORD_0":23
					},
					"indices":24,
					"material":1
				}
			]
		}
	],
	"textures":[
		{
			"sampler":0,
			"source":0
		},
		{
			"sampler":0,
			"source":0
		},
		{
			"sampler":0,
			"source":0
		}
	],
	"images":[
		{
			"mimeType":"image/png",
			"name":"PiratesPack_TX",
			"uri":"tex/PiratesPack_TX.png"
		}
	],
	"accessors":[
		{
			"bufferView":0,
			"componentType":5126,
			"count":71,
			"max":[
				4.000035285949707,
				4.000003814697266,
				15.000001907348633
			],
			"min":[
				-3.999964714050293,
				-3.9999961853027344,
				3.63804292678833
			],
			"type":"VEC3"
		},
		{
			"bufferView":1,
			"componentType":5126,
			"count":71,
			"type":"VEC3"
		},
		{
			"bufferView":2,
			"componentType":5126,
			"count":71,
			"type":"VEC2"
		},
		{
			"bufferView":3,
			"componentType":5123,
			"count":177,
			"type":"SCALAR"
		},
		{
			"bufferView":4,
			"componentType":5126,
			"count":27,
			"max":[
				-2.500006675720215,
				7.900005340576172,
				4
			],
			"min":[
				-3.489985227584839,
				-10.850003242492676,
				-4
			],
			"type":"VEC3"
		},
		{
			"bufferView":5,
			"componentType":5126,
			"count":27,
			"type":"VEC3"
		},
		{
			"bufferView":6,
			"componentType":5126,
			"count":27,
			"type":"VEC2"
		},
		{
			"bufferView":7,
			"componentType":5123,
			"count":45,
			"type":"SCALAR"
		},
		{
			"bufferView":8,
			"componentType":5126,
			"count":48,
			"max":[
				4,
				-10.65999984741211,
				4
			],
			"min":[
				-2.9999542236328125,
				-10.899999618530273,
				-4
			],
			"type":"VEC3"
		},
		{
			"bufferView":9,
			"componentType":5126,
			"count":48,
			"type":"VEC3"
		},
		{
			"bufferView":10,
			"componentType":5126,
			"count":48,
			"type":"VEC2"
		},
		{
			"bufferView":11,
			"componentType":5123,
			"count":84,
			"type":"SCALAR"
		},
		{
			"bufferView":12,
			"componentType":5126,
			"count":8,
			"max":[
				13.374984741210938,
				2.4499549865722656,
				0.09059977531433105
			],
			"min":[
				6.3749847412109375,
				2.4499549865722656,
				-0.09059977531433105
			],
			"type":"VEC3"
		},
		{
			"bufferView":13,
			"componentType":5126,
			"count":8,
			"type":"VEC3"
		},
		{
			"bufferView":14,
			"componentType":5126,
			"count":8,
			"type":"VEC2"
		},
		{
			"bufferView":15,
			"componentType":5126,
			"count":8,
			"type":"VEC4"
		},
		{
			"bufferView":16,
			"componentType":5123,
			"count":12,
			"type":"SCALAR"
		},
		{
			"bufferView":17,
			"componentType":5126,
			"count":69,
			"max":[
				4.000035285949707,
				4.000003814697266,
				15.000001907348633
			],
			"min":[
				-3.999964714050293,
				-3.9999961853027344,
				3.63804292678833
			],
			"type":"VEC3"
		},
		{
			"bufferView":18,
			"componentType":5126,
			"count":69,
			"type":"VEC3"
		},
		{
			"bufferView":19,
			"componentType":5126,
			"count":69,
			"type":"VEC2"
		},
		{
			"bufferView":20,
			"componentType":5123,
			"count":159,
			"type":"SCALAR"
		},
		{
			"bufferView":21,
			"componentType":5126,
			"count":28,
			"max":[
				-2.9999890327453613,
				4.000003814697266,
				7.97475528717041
			],
			"min":[
				-2.999997138977051,
				-3.9999961853027344,
				3.63804292678833
			],
			"type":"VEC3"
		},
		{
			"bufferView":22,
			"componentType":5126,
			"count":28,
			"type":"VEC3"
		},
		{
			"bufferView":23,
			"componentType":5126,
			"count":28,
			"type":"VEC2"
		},
		{
			"bufferView":24,
			"componentType":5123,
			"count":42,
			"type":"SCALAR"
		}
	],
	"bufferViews":[
		{
			"buffer":0,
			"byteLength":852,
			"byteOffset":0,
			"target":34962
		},
		{
			"buffer":0,
			"byteLength":852,
			"byteOffset":852,
			"target":34962
		},
		{
			"buffer":0,
			"byteLength":568,
			"byteOffset":1704,
			"target":34962
		},
		{
			"buffer":0,
			"byteLength":354,
			"byteOffset":2272,
			"target":34963
		},
		{
			"buffer":0,
			"byteLength":324,
			"byteOffset":2628,
			"target":34962
		},
		{
			"buffer":0,
			"byteLength":324,
			"byteOffset":2952,
			"target":34962
		},
		{
			"buffer":0,
			"byteLength":216,
			"byteOffset":3276,
			"target":34962
		},
		{
			"buffer":0,
			"byteLength":90,
			"byteOffset":3492,
			"target":34963
		},
		{
			"buffer":0,
			"byteLength":576,
			"byteOffset":3584,
			"target":34962
		},
		{
			"buffer":0,
			"byteLength":576,
			"byteOffset":4160,
			"target":34962
		},
		{
			"buffer":0,
			"byteLength":384,
			"byteOffset":4736,
			"target":34962
		},
		{
			"buffer":0,
			"byteLength":168,
			"byteOffset":5120,
			"target":34963
		},
		{
			"buffer":0,
			"byteLength":96,
			"byteOffset":5288,
			"target":34962
		},
		{
			"buffer":0,
			"byteLength":96,
			"byteOffset":5384,
			"target":34962
		},
		{
			"buffer":0,
			"byteLength":64,
			"byteOffset":5480,
			"target":34962
		},
		{
			"buffer":0,
			"byteLength":128,
			"byteOffset":5544,
			"target":34962
		},
		{
			"buffer":0,
			"byteLength":24,
			"byteOffset":5672,
			"target":34963
		},
		{
			"buffer":0,
			"byteLength":828,
			"byteOffset":5696,
			"target":34962
		},
		{
			"buffer":0,
			"byteLength":828,
			"byteOffset":6524,
			"target":34962
		},
		{
			"buffer":0,
			"byteLength":552,
			"byteOffset":7352,
			"target":34962
		},
		{
			"buffer":0,
			"byteLength":318,
			"byteOffset":7904,
			"target":34963
		},
		{
			"buffer":0,
			"byteLength":336,
			"byteOffset":8224,
			"target":34962
		},
		{
			"buffer":0,
			"byteLength":336,
			"byteOffset":8560,
			"target":34962
		},
		{
			"buffer":0,
			"byteLength":224,
			"byteOffset":8896,
			"target":34962
		},
		{
			"buffer":0,
			"byteLength":84,
			"byteOffset":9120,
			"target":34963
		}
	],
	"samplers":[
		{
			"magFilter":9729,
			"minFilter":9987
		}
	],
	"buffers":[
		{
			"byteLength":9204,
			"uri":"tile_0_0_10.bin"
		}
	]
}
