{
	"asset":{
		"generator":"Khronos glTF Blender I/O v4.0.44",
		"version":"2.0"
	},
	"scene":0,
	"scenes":[
		{
			"name":"Scene",
			"nodes":[
				0,
				1,
				2,
				3,
				4,
				5,
				6,
				7,
				8,
				9,
				10,
				11,
				12
			]
		}
	],
	"nodes":[
		{
			"mesh":0,
			"name":"pipe.main_collider",
			"rotation":[
				0.7071068286895752,
				0,
				0,
				0.7071068286895752
			]
		},
		{
			"mesh":1,
			"name":"sign.beam._collider",
			"rotation":[
				0.7071068286895752,
				0,
				0,
				0.7071068286895752
			]
		},
		{
			"mesh":2,
			"name":"bigSign.board",
			"rotation":[
				0,
				-0.7071067094802856,
				0,
				0.7071068286895752
			],
			"scale":[
				0.6813910007476807,
				0.6813910007476807,
				0.6813910007476807
			]
		},
		{
			"mesh":3,
			"name":"ground"
		},
		{
			"mesh":4,
			"name":"wall.east.005"
		},
		{
			"name":"bigSign.pillars",
			"rotation":[
				0,
				0.70710688829422,
				0,
				0.7071066498756409
			]
		},
		{
			"mesh":5,
			"name":"bigSign.beam",
			"rotation":[
				0,
				0.70710688829422,
				0,
				0.7071066498756409
			]
		},
		{
			"mesh":6,
			"name":"bigSign.text",
			"rotation":[
				0.5000001192092896,
				-0.49999985098838806,
				0.49999988079071045,
				0.5000001192092896
			],
			"scale":[
				9.438028335571289,
				8.741087913513184,
				10.611104011535645
			]
		},
		{
			"mesh":7,
			"name":"bigSign.zigzag",
			"rotation":[
				0,
				0.70710688829422,
				0,
				0.7071066498756409
			]
		},
		{
			"name":"skateboard.trucks",
			"rotation":[
				-0.4999999403953552,
				0.5000001192092896,
				0.5000000596046448,
				0.49999991059303284
			],
			"scale":[
				0.6813910007476807,
				0.6813910007476807,
				0.6813910007476807
			]
		},
		{
			"mesh":8,
			"name":"neons.001",
			"rotation":[
				0,
				0,
				-0.7071068286895752,
				0.7071068286895752
			],
			"scale":[
				0.19999998807907104,
				1,
				44.15021896362305
			]
		},
		{
			"mesh":9,
			"name":"pipe.main",
			"rotation":[
				0.7071068286895752,
				0,
				0,
				0.7071068286895752
			],
			"scale":[
				2,
				2,
				2
			]
		},
		{
			"mesh":10,
			"name":"pipe.main.rim",
			"rotation":[
				0.7071068286895752,
				0,
				0,
				0.7071068286895752
			],
			"scale":[
				2,
				2,
				2
			]
		}
	],
	"materials":[
		{
			"doubleSided":true,
			"name":"dcl.PiratesPack",
			"pbrMetallicRoughness":{
				"baseColorTexture":{
					"index":0
				},
				"metallicFactor":0
			}
		},
		{
			"doubleSided":true,
			"emissiveFactor":[
				1,
				1,
				1
			],
			"emissiveTexture":{
				"index":1
			},
			"name":"dcl.PiratesPack.emissive",
			"pbrMetallicRoughness":{
				"baseColorTexture":{
					"index":2
				},
				"metallicFactor":0
			}
		}
	],
	"meshes":[
		{
			"name":"Cylinder.451",
			"primitives":[
				{
					"attributes":{
						"POSITION":0,
						"NORMAL":1,
						"TEXCOORD_0":2
					},
					"indices":3
				}
			]
		},
		{
			"name":"Cube.380",
			"primitives":[
				{
					"attributes":{
						"POSITION":4,
						"NORMAL":5,
						"TEXCOORD_0":6,
						"TANGENT":7
					},
					"indices":8
				}
			]
		},
		{
			"name":"Cube.381",
			"primitives":[
				{
					"attributes":{
						"POSITION":9,
						"NORMAL":10,
						"TEXCOORD_0":11
					},
					"indices":12,
					"material":0
				}
			]
		},
		{
			"name":"Cube.382",
			"primitives":[
				{
					"attributes":{
						"POSITION":13,
						"NORMAL":14,
						"TEXCOORD_0":15
					},
					"indices":16,
					"material":0
				}
			]
		},
		{
			"name":"Cylinder.452",
			"primitives":[
				{
					"attributes":{
						"POSITION":17,
						"NORMAL":18,
						"TEXCOORD_0":19,
						"TANGENT":20
					},
					"indices":21,
					"material":0
				}
			]
		},
		{
			"name":"Cylinder.454",
			"primitives":[
				{
					"attributes":{
						"POSITION":22,
						"NORMAL":23,
						"TEXCOORD_0":24
					},
					"indices":25,
					"material":0
				}
			]
		},
		{
			"name":"Text.003",
			"primitives":[
				{
					"attributes":{
						"POSITION":26,
						"NORMAL":27,
						"TEXCOORD_0":28
					},
					"indices":29,
					"material":0
				}
			]
		},
		{
			"name":"Cylinder.455",
			"primitives":[
				{
					"attributes":{
						"POSITION":30,
						"NORMAL":31,
						"TEXCOORD_0":32
					},
					"indices":33,
					"material":0
				}
			]
		},
		{
			"name":"Plane.045",
			"primitives":[
				{
					"attributes":{
						"POSITION":34,
						"NORMAL":35,
						"TEXCOORD_0":36,
						"TANGENT":37
					},
					"indices":38,
					"material":1
				}
			]
		},
		{
			"name":"Cylinder.456",
			"primitives":[
				{
					"attributes":{
						"POSITION":39,
						"NORMAL":40,
						"TEXCOORD_0":41
					},
					"indices":42,
					"material":0
				}
			]
		},
		{
			"name":"Cylinder.457",
			"primitives":[
				{
					"attributes":{
						"POSITION":43,
						"NORMAL":44,
						"TEXCOORD_0":45,
						"TANGENT":46
					},
					"indices":47,
					"material":0
				}
			]
		}
	],
	"textures":[
		{
			"sampler":0,
			"source":0
		},
		{
			"sampler":0,
			"source":0
		},
		{
			"sampler":0,
			"source":0
		}
	],
	"images":[
		{
			"mimeType":"image/png",
			"name":"PiratesPack_TX",
			"uri":"tex/PiratesPack_TX.png"
		}
	],
	"accessors":[
		{
			"bufferView":0,
			"componentType":5126,
			"count":249,
			"max":[
				4,
				3.9999923706054688,
				10.65000057220459
			],
			"min":[
				-4,
				-4.000007629394531,
				7.649999618530273
			],
			"type":"VEC3"
		},
		{
			"bufferView":1,
			"componentType":5126,
			"count":249,
			"type":"VEC3"
		},
		{
			"bufferView":2,
			"componentType":5126,
			"count":249,
			"type":"VEC2"
		},
		{
			"bufferView":3,
			"componentType":5123,
			"count":339,
			"type":"SCALAR"
		},
		{
			"bufferView":4,
			"componentType":5126,
			"count":24,
			"max":[
				1.2075986862182617,
				4,
				-0.6000027656555176
			],
			"min":[
				0.31323570013046265,
				-4,
				-2.8895492553710938
			],
			"type":"VEC3"
		},
		{
			"bufferView":5,
			"componentType":5126,
			"count":24,
			"type":"VEC3"
		},
		{
			"bufferView":6,
			"componentType":5126,
			"count":24,
			"type":"VEC2"
		},
		{
			"bufferView":7,
			"componentType":5126,
			"count":24,
			"type":"VEC4"
		},
		{
			"bufferView":8,
			"componentType":5123,
			"count":36,
			"type":"SCALAR"
		},
		{
			"bufferView":9,
			"componentType":5126,
			"count":48,
			"max":[
				5.870344161987305,
				20.507282257080078,
				1.6907449960708618
			],
			"min":[
				-5.870344638824463,
				4.507269859313965,
				1.0030362606048584
			],
			"type":"VEC3"
		},
		{
			"bufferView":10,
			"componentType":5126,
			"count":48,
			"type":"VEC3"
		},
		{
			"bufferView":11,
			"componentType":5126,
			"count":48,
			"type":"VEC2"
		},
		{
			"bufferView":12,
			"componentType":5123,
			"count":96,
			"type":"SCALAR"
		},
		{
			"bufferView":13,
			"componentType":5126,
			"count":36,
			"max":[
				3.4499664306640625,
				-10.65999984741211,
				4
			],
			"min":[
				-4,
				-10.899999618530273,
				-4
			],
			"type":"VEC3"
		},
		{
			"bufferView":14,
			"componentType":5126,
			"count":36,
			"type":"VEC3"
		},
		{
			"bufferView":15,
			"componentType":5126,
			"count":36,
			"type":"VEC2"
		},
		{
			"bufferView":16,
			"componentType":5123,
			"count":60,
			"type":"SCALAR"
		},
		{
			"bufferView":17,
			"componentType":5126,
			"count":24,
			"max":[
				3.4666223526000977,
				7.9000091552734375,
				4
			],
			"min":[
				2.999946117401123,
				-10.85000228881836,
				-4
			],
			"type":"VEC3"
		},
		{
			"bufferView":18,
			"componentType":5126,
			"count":24,
			"type":"VEC3"
		},
		{
			"bufferView":19,
			"componentType":5126,
			"count":24,
			"type":"VEC2"
		},
		{
			"bufferView":20,
			"componentType":5126,
			"count":24,
			"type":"VEC4"
		},
		{
			"bufferView":21,
			"componentType":5123,
			"count":36,
			"type":"SCALAR"
		},
		{
			"bufferView":22,
			"componentType":5126,
			"count":128,
			"max":[
				4,
				2.88955020904541,
				1.1431055068969727
			],
			"min":[
				-4,
				0.6000022888183594,
				0.3777337968349457
			],
			"type":"VEC3"
		},
		{
			"bufferView":23,
			"componentType":5126,
			"count":128,
			"type":"VEC3"
		},
		{
			"bufferView":24,
			"componentType":5126,
			"count":128,
			"type":"VEC2"
		},
		{
			"bufferView":25,
			"componentType":5123,
			"count":264,
			"type":"SCALAR"
		},
		{
			"bufferView":26,
			"componentType":5126,
			"count":263,
			"max":[
				0.4238172173500061,
				0.3487301766872406,
				-0.5023605823516846
			],
			"min":[
				-0.42381751537323,
				0.12295027077198029,
				-1.141842246055603
			],
			"type":"VEC3"
		},
		{
			"bufferView":27,
			"componentType":5126,
			"count":263,
			"type":"VEC3"
		},
		{
			"bufferView":28,
			"componentType":5126,
			"count":263,
			"type":"VEC2"
		},
		{
			"bufferView":29,
			"componentType":5123,
			"count":573,
			"type":"SCALAR"
		},
		{
			"bufferView":30,
			"componentType":5126,
			"count":220,
			"max":[
				4,
				2.507960796356201,
				1.1069917678833008
			],
			"min":[
				-4,
				0.9815917015075684,
				0.41697967052459717
			],
			"type":"VEC3"
		},
		{
			"bufferView":31,
			"componentType":5126,
			"count":220,
			"type":"VEC3"
		},
		{
			"bufferView":32,
			"componentType":5126,
			"count":220,
			"type":"VEC2"
		},
		{
			"bufferView":33,
			"componentType":5123,
			"count":456,
			"type":"SCALAR"
		},
		{
			"bufferView":34,
			"componentType":5126,
			"count":8,
			"max":[
				13.374977111816406,
				2.8999557495117188,
				0.0905998945236206
			],
			"min":[
				6.374977111816406,
				2.8999557495117188,
				-0.0905996635556221
			],
			"type":"VEC3"
		},
		{
			"bufferView":35,
			"componentType":5126,
			"count":8,
			"type":"VEC3"
		},
		{
			"bufferView":36,
			"componentType":5126,
			"count":8,
			"type":"VEC2"
		},
		{
			"bufferView":37,
			"componentType":5126,
			"count":8,
			"type":"VEC4"
		},
		{
			"bufferView":38,
			"componentType":5123,
			"count":12,
			"type":"SCALAR"
		},
		{
			"bufferView":39,
			"componentType":5126,
			"count":179,
			"max":[
				1.9999985694885254,
				2.0000011920928955,
				7.5
			],
			"min":[
				-2.000000238418579,
				-2.0000011920928955,
				3.8249998092651367
			],
			"type":"VEC3"
		},
		{
			"bufferView":40,
			"componentType":5126,
			"count":179,
			"type":"VEC3"
		},
		{
			"bufferView":41,
			"componentType":5126,
			"count":179,
			"type":"VEC2"
		},
		{
			"bufferView":42,
			"componentType":5123,
			"count":537,
			"type":"SCALAR"
		},
		{
			"bufferView":43,
			"componentType":5126,
			"count":232,
			"max":[
				-0.7164320945739746,
				1.9999995231628418,
				3.858785629272461
			],
			"min":[
				-1.6498126983642578,
				-2.000000476837158,
				3.7912144660949707
			],
			"type":"VEC3"
		},
		{
			"bufferView":44,
			"componentType":5126,
			"count":232,
			"type":"VEC3"
		},
		{
			"bufferView":45,
			"componentType":5126,
			"count":232,
			"type":"VEC2"
		},
		{
			"bufferView":46,
			"componentType":5126,
			"count":232,
			"type":"VEC4"
		},
		{
			"bufferView":47,
			"componentType":5123,
			"count":348,
			"type":"SCALAR"
		}
	],
	"bufferViews":[
		{
			"buffer":0,
			"byteLength":2988,
			"byteOffset":0,
			"target":34962
		},
		{
			"buffer":0,
			"byteLength":2988,
			"byteOffset":2988,
			"target":34962
		},
		{
			"buffer":0,
			"byteLength":1992,
			"byteOffset":5976,
			"target":34962
		},
		{
			"buffer":0,
			"byteLength":678,
			"byteOffset":7968,
			"target":34963
		},
		{
			"buffer":0,
			"byteLength":288,
			"byteOffset":8648,
			"target":34962
		},
		{
			"buffer":0,
			"byteLength":288,
			"byteOffset":8936,
			"target":34962
		},
		{
			"buffer":0,
			"byteLength":192,
			"byteOffset":9224,
			"target":34962
		},
		{
			"buffer":0,
			"byteLength":384,
			"byteOffset":9416,
			"target":34962
		},
		{
			"buffer":0,
			"byteLength":72,
			"byteOffset":9800,
			"target":34963
		},
		{
			"buffer":0,
			"byteLength":576,
			"byteOffset":9872,
			"target":34962
		},
		{
			"buffer":0,
			"byteLength":576,
			"byteOffset":10448,
			"target":34962
		},
		{
			"buffer":0,
			"byteLength":384,
			"byteOffset":11024,
			"target":34962
		},
		{
			"buffer":0,
			"byteLength":192,
			"byteOffset":11408,
			"target":34963
		},
		{
			"buffer":0,
			"byteLength":432,
			"byteOffset":11600,
			"target":34962
		},
		{
			"buffer":0,
			"byteLength":432,
			"byteOffset":12032,
			"target":34962
		},
		{
			"buffer":0,
			"byteLength":288,
			"byteOffset":12464,
			"target":34962
		},
		{
			"buffer":0,
			"byteLength":120,
			"byteOffset":12752,
			"target":34963
		},
		{
			"buffer":0,
			"byteLength":288,
			"byteOffset":12872,
			"target":34962
		},
		{
			"buffer":0,
			"byteLength":288,
			"byteOffset":13160,
			"target":34962
		},
		{
			"buffer":0,
			"byteLength":192,
			"byteOffset":13448,
			"target":34962
		},
		{
			"buffer":0,
			"byteLength":384,
			"byteOffset":13640,
			"target":34962
		},
		{
			"buffer":0,
			"byteLength":72,
			"byteOffset":14024,
			"target":34963
		},
		{
			"buffer":0,
			"byteLength":1536,
			"byteOffset":14096,
			"target":34962
		},
		{
			"buffer":0,
			"byteLength":1536,
			"byteOffset":15632,
			"target":34962
		},
		{
			"buffer":0,
			"byteLength":1024,
			"byteOffset":17168,
			"target":34962
		},
		{
			"buffer":0,
			"byteLength":528,
			"byteOffset":18192,
			"target":34963
		},
		{
			"buffer":0,
			"byteLength":3156,
			"byteOffset":18720,
			"target":34962
		},
		{
			"buffer":0,
			"byteLength":3156,
			"byteOffset":21876,
			"target":34962
		},
		{
			"buffer":0,
			"byteLength":2104,
			"byteOffset":25032,
			"target":34962
		},
		{
			"buffer":0,
			"byteLength":1146,
			"byteOffset":27136,
			"target":34963
		},
		{
			"buffer":0,
			"byteLength":2640,
			"byteOffset":28284,
			"target":34962
		},
		{
			"buffer":0,
			"byteLength":2640,
			"byteOffset":30924,
			"target":34962
		},
		{
			"buffer":0,
			"byteLength":1760,
			"byteOffset":33564,
			"target":34962
		},
		{
			"buffer":0,
			"byteLength":912,
			"byteOffset":35324,
			"target":34963
		},
		{
			"buffer":0,
			"byteLength":96,
			"byteOffset":36236,
			"target":34962
		},
		{
			"buffer":0,
			"byteLength":96,
			"byteOffset":36332,
			"target":34962
		},
		{
			"buffer":0,
			"byteLength":64,
			"byteOffset":36428,
			"target":34962
		},
		{
			"buffer":0,
			"byteLength":128,
			"byteOffset":36492,
			"target":34962
		},
		{
			"buffer":0,
			"byteLength":24,
			"byteOffset":36620,
			"target":34963
		},
		{
			"buffer":0,
			"byteLength":2148,
			"byteOffset":36644,
			"target":34962
		},
		{
			"buffer":0,
			"byteLength":2148,
			"byteOffset":38792,
			"target":34962
		},
		{
			"buffer":0,
			"byteLength":1432,
			"byteOffset":40940,
			"target":34962
		},
		{
			"buffer":0,
			"byteLength":1074,
			"byteOffset":42372,
			"target":34963
		},
		{
			"buffer":0,
			"byteLength":2784,
			"byteOffset":43448,
			"target":34962
		},
		{
			"buffer":0,
			"byteLength":2784,
			"byteOffset":46232,
			"target":34962
		},
		{
			"buffer":0,
			"byteLength":1856,
			"byteOffset":49016,
			"target":34962
		},
		{
			"buffer":0,
			"byteLength":3712,
			"byteOffset":50872,
			"target":34962
		},
		{
			"buffer":0,
			"byteLength":696,
			"byteOffset":54584,
			"target":34963
		}
	],
	"samplers":[
		{
			"magFilter":9729,
			"minFilter":9987
		}
	],
	"buffers":[
		{
			"byteLength":55280,
			"uri":"tile_11_0_5.bin"
		}
	]
}
