{
	"asset":{
		"generator":"Khronos glTF Blender I/O v4.0.44",
		"version":"2.0"
	},
	"scene":0,
	"scenes":[
		{
			"name":"Scene",
			"nodes":[
				0,
				1,
				2,
				3
			]
		}
	],
	"nodes":[
		{
			"mesh":0,
			"name":"pipe.main_collider",
			"rotation":[
				0.7071068286895752,
				0,
				0,
				0.7071068286895752
			]
		},
		{
			"mesh":1,
			"name":"ground"
		},
		{
			"mesh":2,
			"name":"pipe.main",
			"rotation":[
				0.7071068286895752,
				0,
				0,
				0.7071068286895752
			],
			"scale":[
				2,
				2,
				2
			]
		},
		{
			"mesh":3,
			"name":"pipe.main.rim",
			"rotation":[
				0.7071068286895752,
				0,
				0,
				0.7071068286895752
			],
			"scale":[
				2,
				2,
				2
			]
		}
	],
	"materials":[
		{
			"doubleSided":true,
			"name":"dcl.PiratesPack",
			"pbrMetallicRoughness":{
				"baseColorTexture":{
					"index":0
				},
				"metallicFactor":0
			}
		}
	],
	"meshes":[
		{
			"name":"Cylinder.417",
			"primitives":[
				{
					"attributes":{
						"POSITION":0,
						"NORMAL":1,
						"TEXCOORD_0":2
					},
					"indices":3
				}
			]
		},
		{
			"name":"Cube.367",
			"primitives":[
				{
					"attributes":{
						"POSITION":4,
						"NORMAL":5,
						"TEXCOORD_0":6,
						"TANGENT":7
					},
					"indices":8,
					"material":0
				}
			]
		},
		{
			"name":"Cylinder.418",
			"primitives":[
				{
					"attributes":{
						"POSITION":9,
						"NORMAL":10,
						"TEXCOORD_0":11
					},
					"indices":12,
					"material":0
				}
			]
		},
		{
			"name":"Cylinder.419",
			"primitives":[
				{
					"attributes":{
						"POSITION":13,
						"NORMAL":14,
						"TEXCOORD_0":15
					},
					"indices":16,
					"material":0
				}
			]
		}
	],
	"textures":[
		{
			"sampler":0,
			"source":0
		}
	],
	"images":[
		{
			"mimeType":"image/png",
			"name":"PiratesPack_TX",
			"uri":"tex/PiratesPack_TX.png"
		}
	],
	"accessors":[
		{
			"bufferView":0,
			"componentType":5126,
			"count":240,
			"max":[
				3.9999847412109375,
				4.000003814697266,
				10.649999618530273
			],
			"min":[
				-4.0000152587890625,
				-4,
				7.649999618530273
			],
			"type":"VEC3"
		},
		{
			"bufferView":1,
			"componentType":5126,
			"count":240,
			"type":"VEC3"
		},
		{
			"bufferView":2,
			"componentType":5126,
			"count":240,
			"type":"VEC2"
		},
		{
			"bufferView":3,
			"componentType":5123,
			"count":381,
			"type":"SCALAR"
		},
		{
			"bufferView":4,
			"componentType":5126,
			"count":24,
			"max":[
				4,
				-10.65999984741211,
				4
			],
			"min":[
				-4,
				-10.899999618530273,
				-4
			],
			"type":"VEC3"
		},
		{
			"bufferView":5,
			"componentType":5126,
			"count":24,
			"type":"VEC3"
		},
		{
			"bufferView":6,
			"componentType":5126,
			"count":24,
			"type":"VEC2"
		},
		{
			"bufferView":7,
			"componentType":5126,
			"count":24,
			"type":"VEC4"
		},
		{
			"bufferView":8,
			"componentType":5123,
			"count":36,
			"type":"SCALAR"
		},
		{
			"bufferView":9,
			"componentType":5126,
			"count":179,
			"max":[
				2.0000011920928955,
				2.000001907348633,
				7.499999046325684
			],
			"min":[
				-2.0000011920928955,
				-2.000001907348633,
				3.8249998092651367
			],
			"type":"VEC3"
		},
		{
			"bufferView":10,
			"componentType":5126,
			"count":179,
			"type":"VEC3"
		},
		{
			"bufferView":11,
			"componentType":5126,
			"count":179,
			"type":"VEC2"
		},
		{
			"bufferView":12,
			"componentType":5123,
			"count":504,
			"type":"SCALAR"
		},
		{
			"bufferView":13,
			"componentType":5126,
			"count":54,
			"max":[
				2.000000476837158,
				-0.9569616317749023,
				3.85878586769104
			],
			"min":[
				0.26639819145202637,
				-2,
				3.79121470451355
			],
			"type":"VEC3"
		},
		{
			"bufferView":14,
			"componentType":5126,
			"count":54,
			"type":"VEC3"
		},
		{
			"bufferView":15,
			"componentType":5126,
			"count":54,
			"type":"VEC2"
		},
		{
			"bufferView":16,
			"componentType":5123,
			"count":84,
			"type":"SCALAR"
		}
	],
	"bufferViews":[
		{
			"buffer":0,
			"byteLength":2880,
			"byteOffset":0,
			"target":34962
		},
		{
			"buffer":0,
			"byteLength":2880,
			"byteOffset":2880,
			"target":34962
		},
		{
			"buffer":0,
			"byteLength":1920,
			"byteOffset":5760,
			"target":34962
		},
		{
			"buffer":0,
			"byteLength":762,
			"byteOffset":7680,
			"target":34963
		},
		{
			"buffer":0,
			"byteLength":288,
			"byteOffset":8444,
			"target":34962
		},
		{
			"buffer":0,
			"byteLength":288,
			"byteOffset":8732,
			"target":34962
		},
		{
			"buffer":0,
			"byteLength":192,
			"byteOffset":9020,
			"target":34962
		},
		{
			"buffer":0,
			"byteLength":384,
			"byteOffset":9212,
			"target":34962
		},
		{
			"buffer":0,
			"byteLength":72,
			"byteOffset":9596,
			"target":34963
		},
		{
			"buffer":0,
			"byteLength":2148,
			"byteOffset":9668,
			"target":34962
		},
		{
			"buffer":0,
			"byteLength":2148,
			"byteOffset":11816,
			"target":34962
		},
		{
			"buffer":0,
			"byteLength":1432,
			"byteOffset":13964,
			"target":34962
		},
		{
			"buffer":0,
			"byteLength":1008,
			"byteOffset":15396,
			"target":34963
		},
		{
			"buffer":0,
			"byteLength":648,
			"byteOffset":16404,
			"target":34962
		},
		{
			"buffer":0,
			"byteLength":648,
			"byteOffset":17052,
			"target":34962
		},
		{
			"buffer":0,
			"byteLength":432,
			"byteOffset":17700,
			"target":34962
		},
		{
			"buffer":0,
			"byteLength":168,
			"byteOffset":18132,
			"target":34963
		}
	],
	"samplers":[
		{
			"magFilter":9729,
			"minFilter":9987
		}
	],
	"buffers":[
		{
			"byteLength":18300,
			"uri":"tile_10_0_9.bin"
		}
	]
}
