{
	"asset":{
		"generator":"Khronos glTF Blender I/O v4.0.44",
		"version":"2.0"
	},
	"scene":0,
	"scenes":[
		{
			"name":"Scene",
			"nodes":[
				0,
				1,
				2,
				3
			]
		}
	],
	"nodes":[
		{
			"mesh":0,
			"name":"pipe.main_collider",
			"rotation":[
				0.7071068286895752,
				0,
				0,
				0.7071068286895752
			]
		},
		{
			"mesh":1,
			"name":"ground"
		},
		{
			"mesh":2,
			"name":"pipe.main",
			"rotation":[
				0.7071068286895752,
				0,
				0,
				0.7071068286895752
			],
			"scale":[
				2,
				2,
				2
			]
		},
		{
			"mesh":3,
			"name":"pipe.main.rim",
			"rotation":[
				0.7071068286895752,
				0,
				0,
				0.7071068286895752
			],
			"scale":[
				2,
				2,
				2
			]
		}
	],
	"materials":[
		{
			"doubleSided":true,
			"name":"dcl.PiratesPack",
			"pbrMetallicRoughness":{
				"baseColorTexture":{
					"index":0
				},
				"metallicFactor":0
			}
		}
	],
	"meshes":[
		{
			"name":"Cylinder.370",
			"primitives":[
				{
					"attributes":{
						"POSITION":0,
						"NORMAL":1,
						"TEXCOORD_0":2
					},
					"indices":3
				}
			]
		},
		{
			"name":"Cube.352",
			"primitives":[
				{
					"attributes":{
						"POSITION":4,
						"NORMAL":5,
						"TEXCOORD_0":6,
						"TANGENT":7
					},
					"indices":8,
					"material":0
				}
			]
		},
		{
			"name":"Cylinder.371",
			"primitives":[
				{
					"attributes":{
						"POSITION":9,
						"NORMAL":10,
						"TEXCOORD_0":11
					},
					"indices":12,
					"material":0
				}
			]
		},
		{
			"name":"Cylinder.372",
			"primitives":[
				{
					"attributes":{
						"POSITION":13,
						"NORMAL":14,
						"TEXCOORD_0":15
					},
					"indices":16,
					"material":0
				}
			]
		}
	],
	"textures":[
		{
			"sampler":0,
			"source":0
		}
	],
	"images":[
		{
			"mimeType":"image/png",
			"name":"PiratesPack_TX",
			"uri":"tex/PiratesPack_TX.png"
		}
	],
	"accessors":[
		{
			"bufferView":0,
			"componentType":5126,
			"count":407,
			"max":[
				4,
				4.000003814697266,
				10.65000057220459
			],
			"min":[
				-4,
				-3.9999961853027344,
				7.649998664855957
			],
			"type":"VEC3"
		},
		{
			"bufferView":1,
			"componentType":5126,
			"count":407,
			"type":"VEC3"
		},
		{
			"bufferView":2,
			"componentType":5126,
			"count":407,
			"type":"VEC2"
		},
		{
			"bufferView":3,
			"componentType":5123,
			"count":645,
			"type":"SCALAR"
		},
		{
			"bufferView":4,
			"componentType":5126,
			"count":24,
			"max":[
				4,
				-10.65999984741211,
				4
			],
			"min":[
				-4,
				-10.899999618530273,
				-4
			],
			"type":"VEC3"
		},
		{
			"bufferView":5,
			"componentType":5126,
			"count":24,
			"type":"VEC3"
		},
		{
			"bufferView":6,
			"componentType":5126,
			"count":24,
			"type":"VEC2"
		},
		{
			"bufferView":7,
			"componentType":5126,
			"count":24,
			"type":"VEC4"
		},
		{
			"bufferView":8,
			"componentType":5123,
			"count":36,
			"type":"SCALAR"
		},
		{
			"bufferView":9,
			"componentType":5126,
			"count":249,
			"max":[
				2.0000011920928955,
				2.0000011920928955,
				7.5
			],
			"min":[
				-2.0000009536743164,
				-2.000000476837158,
				3.8249993324279785
			],
			"type":"VEC3"
		},
		{
			"bufferView":10,
			"componentType":5126,
			"count":249,
			"type":"VEC3"
		},
		{
			"bufferView":11,
			"componentType":5126,
			"count":249,
			"type":"VEC2"
		},
		{
			"bufferView":12,
			"componentType":5123,
			"count":801,
			"type":"SCALAR"
		},
		{
			"bufferView":13,
			"componentType":5126,
			"count":252,
			"max":[
				2.0000009536743164,
				1.778182029724121,
				3.8532845973968506
			],
			"min":[
				-1.7781517505645752,
				-1.6828980445861816,
				3.796715021133423
			],
			"type":"VEC3"
		},
		{
			"bufferView":14,
			"componentType":5126,
			"count":252,
			"type":"VEC3"
		},
		{
			"bufferView":15,
			"componentType":5126,
			"count":252,
			"type":"VEC2"
		},
		{
			"bufferView":16,
			"componentType":5123,
			"count":492,
			"type":"SCALAR"
		}
	],
	"bufferViews":[
		{
			"buffer":0,
			"byteLength":4884,
			"byteOffset":0,
			"target":34962
		},
		{
			"buffer":0,
			"byteLength":4884,
			"byteOffset":4884,
			"target":34962
		},
		{
			"buffer":0,
			"byteLength":3256,
			"byteOffset":9768,
			"target":34962
		},
		{
			"buffer":0,
			"byteLength":1290,
			"byteOffset":13024,
			"target":34963
		},
		{
			"buffer":0,
			"byteLength":288,
			"byteOffset":14316,
			"target":34962
		},
		{
			"buffer":0,
			"byteLength":288,
			"byteOffset":14604,
			"target":34962
		},
		{
			"buffer":0,
			"byteLength":192,
			"byteOffset":14892,
			"target":34962
		},
		{
			"buffer":0,
			"byteLength":384,
			"byteOffset":15084,
			"target":34962
		},
		{
			"buffer":0,
			"byteLength":72,
			"byteOffset":15468,
			"target":34963
		},
		{
			"buffer":0,
			"byteLength":2988,
			"byteOffset":15540,
			"target":34962
		},
		{
			"buffer":0,
			"byteLength":2988,
			"byteOffset":18528,
			"target":34962
		},
		{
			"buffer":0,
			"byteLength":1992,
			"byteOffset":21516,
			"target":34962
		},
		{
			"buffer":0,
			"byteLength":1602,
			"byteOffset":23508,
			"target":34963
		},
		{
			"buffer":0,
			"byteLength":3024,
			"byteOffset":25112,
			"target":34962
		},
		{
			"buffer":0,
			"byteLength":3024,
			"byteOffset":28136,
			"target":34962
		},
		{
			"buffer":0,
			"byteLength":2016,
			"byteOffset":31160,
			"target":34962
		},
		{
			"buffer":0,
			"byteLength":984,
			"byteOffset":33176,
			"target":34963
		}
	],
	"samplers":[
		{
			"magFilter":9729,
			"minFilter":9987
		}
	],
	"buffers":[
		{
			"byteLength":34160,
			"uri":"tile_9_0_6.bin"
		}
	]
}
