{
	"asset":{
		"generator":"Khronos glTF Blender I/O v4.0.44",
		"version":"2.0"
	},
	"scene":0,
	"scenes":[
		{
			"name":"Scene",
			"nodes":[
				0,
				1,
				2,
				3
			]
		}
	],
	"nodes":[
		{
			"mesh":0,
			"name":"pipe.main_collider",
			"rotation":[
				0.7071068286895752,
				0,
				0,
				0.7071068286895752
			]
		},
		{
			"mesh":1,
			"name":"ground"
		},
		{
			"mesh":2,
			"name":"pipe.main",
			"rotation":[
				0.7071068286895752,
				0,
				0,
				0.7071068286895752
			],
			"scale":[
				2,
				2,
				2
			]
		},
		{
			"mesh":3,
			"name":"pipe.main.rim",
			"rotation":[
				0.7071068286895752,
				0,
				0,
				0.7071068286895752
			],
			"scale":[
				2,
				2,
				2
			]
		}
	],
	"materials":[
		{
			"doubleSided":true,
			"name":"dcl.PiratesPack",
			"pbrMetallicRoughness":{
				"baseColorTexture":{
					"index":0
				},
				"metallicFactor":0
			}
		}
	],
	"meshes":[
		{
			"name":"Cylinder.408",
			"primitives":[
				{
					"attributes":{
						"POSITION":0,
						"NORMAL":1,
						"TEXCOORD_0":2
					},
					"indices":3
				}
			]
		},
		{
			"name":"Cube.364",
			"primitives":[
				{
					"attributes":{
						"POSITION":4,
						"NORMAL":5,
						"TEXCOORD_0":6,
						"TANGENT":7
					},
					"indices":8,
					"material":0
				}
			]
		},
		{
			"name":"Cylinder.409",
			"primitives":[
				{
					"attributes":{
						"POSITION":9,
						"NORMAL":10,
						"TEXCOORD_0":11
					},
					"indices":12,
					"material":0
				}
			]
		},
		{
			"name":"Cylinder.410",
			"primitives":[
				{
					"attributes":{
						"POSITION":13,
						"NORMAL":14,
						"TEXCOORD_0":15
					},
					"indices":16,
					"material":0
				}
			]
		}
	],
	"textures":[
		{
			"sampler":0,
			"source":0
		}
	],
	"images":[
		{
			"mimeType":"image/png",
			"name":"PiratesPack_TX",
			"uri":"tex/PiratesPack_TX.png"
		}
	],
	"accessors":[
		{
			"bufferView":0,
			"componentType":5126,
			"count":269,
			"max":[
				4,
				4,
				10.650001525878906
			],
			"min":[
				-4,
				-4,
				7.649998664855957
			],
			"type":"VEC3"
		},
		{
			"bufferView":1,
			"componentType":5126,
			"count":269,
			"type":"VEC3"
		},
		{
			"bufferView":2,
			"componentType":5126,
			"count":269,
			"type":"VEC2"
		},
		{
			"bufferView":3,
			"componentType":5123,
			"count":405,
			"type":"SCALAR"
		},
		{
			"bufferView":4,
			"componentType":5126,
			"count":24,
			"max":[
				4,
				-10.65999984741211,
				4
			],
			"min":[
				-4,
				-10.899999618530273,
				-4
			],
			"type":"VEC3"
		},
		{
			"bufferView":5,
			"componentType":5126,
			"count":24,
			"type":"VEC3"
		},
		{
			"bufferView":6,
			"componentType":5126,
			"count":24,
			"type":"VEC2"
		},
		{
			"bufferView":7,
			"componentType":5126,
			"count":24,
			"type":"VEC4"
		},
		{
			"bufferView":8,
			"componentType":5123,
			"count":36,
			"type":"SCALAR"
		},
		{
			"bufferView":9,
			"componentType":5126,
			"count":121,
			"max":[
				1.9999995231628418,
				2.0000011920928955,
				7.5
			],
			"min":[
				-2.0000011920928955,
				-2.0000009536743164,
				3.8249993324279785
			],
			"type":"VEC3"
		},
		{
			"bufferView":10,
			"componentType":5126,
			"count":121,
			"type":"VEC3"
		},
		{
			"bufferView":11,
			"componentType":5126,
			"count":121,
			"type":"VEC2"
		},
		{
			"bufferView":12,
			"componentType":5123,
			"count":378,
			"type":"SCALAR"
		},
		{
			"bufferView":13,
			"componentType":5126,
			"count":120,
			"max":[
				-0.7218506336212158,
				0.7789881229400635,
				3.8532845973968506
			],
			"min":[
				-2.000000476837158,
				-2.0000009536743164,
				3.796715021133423
			],
			"type":"VEC3"
		},
		{
			"bufferView":14,
			"componentType":5126,
			"count":120,
			"type":"VEC3"
		},
		{
			"bufferView":15,
			"componentType":5126,
			"count":120,
			"type":"VEC2"
		},
		{
			"bufferView":16,
			"componentType":5123,
			"count":216,
			"type":"SCALAR"
		}
	],
	"bufferViews":[
		{
			"buffer":0,
			"byteLength":3228,
			"byteOffset":0,
			"target":34962
		},
		{
			"buffer":0,
			"byteLength":3228,
			"byteOffset":3228,
			"target":34962
		},
		{
			"buffer":0,
			"byteLength":2152,
			"byteOffset":6456,
			"target":34962
		},
		{
			"buffer":0,
			"byteLength":810,
			"byteOffset":8608,
			"target":34963
		},
		{
			"buffer":0,
			"byteLength":288,
			"byteOffset":9420,
			"target":34962
		},
		{
			"buffer":0,
			"byteLength":288,
			"byteOffset":9708,
			"target":34962
		},
		{
			"buffer":0,
			"byteLength":192,
			"byteOffset":9996,
			"target":34962
		},
		{
			"buffer":0,
			"byteLength":384,
			"byteOffset":10188,
			"target":34962
		},
		{
			"buffer":0,
			"byteLength":72,
			"byteOffset":10572,
			"target":34963
		},
		{
			"buffer":0,
			"byteLength":1452,
			"byteOffset":10644,
			"target":34962
		},
		{
			"buffer":0,
			"byteLength":1452,
			"byteOffset":12096,
			"target":34962
		},
		{
			"buffer":0,
			"byteLength":968,
			"byteOffset":13548,
			"target":34962
		},
		{
			"buffer":0,
			"byteLength":756,
			"byteOffset":14516,
			"target":34963
		},
		{
			"buffer":0,
			"byteLength":1440,
			"byteOffset":15272,
			"target":34962
		},
		{
			"buffer":0,
			"byteLength":1440,
			"byteOffset":16712,
			"target":34962
		},
		{
			"buffer":0,
			"byteLength":960,
			"byteOffset":18152,
			"target":34962
		},
		{
			"buffer":0,
			"byteLength":432,
			"byteOffset":19112,
			"target":34963
		}
	],
	"samplers":[
		{
			"magFilter":9729,
			"minFilter":9987
		}
	],
	"buffers":[
		{
			"byteLength":19544,
			"uri":"tile_10_0_6.bin"
		}
	]
}
