{
	"asset":{
		"generator":"Khronos glTF Blender I/O v4.0.44",
		"version":"2.0"
	},
	"scene":0,
	"scenes":[
		{
			"name":"Scene",
			"nodes":[
				0,
				1,
				2,
				3,
				4,
				5
			]
		}
	],
	"nodes":[
		{
			"mesh":0,
			"name":"ramp.box.01_collider"
		},
		{
			"mesh":1,
			"name":"wall.south.002"
		},
		{
			"mesh":2,
			"name":"ground"
		},
		{
			"name":"decal.main",
			"rotation":[
				0,
				-0.7071068286895752,
				0.7071068286895752,
				3.4560699191388267e-07
			]
		},
		{
			"mesh":3,
			"name":"neons.003",
			"rotation":[
				0.4999999403953552,
				-0.49999988079071045,
				-0.5000001192092896,
				0.5000001192092896
			],
			"scale":[
				0.19999998807907104,
				1,
				47.68861770629883
			]
		},
		{
			"mesh":4,
			"name":"ramp.box.01"
		}
	],
	"materials":[
		{
			"doubleSided":true,
			"name":"dcl.PiratesPack",
			"pbrMetallicRoughness":{
				"baseColorTexture":{
					"index":0
				},
				"metallicFactor":0
			}
		},
		{
			"doubleSided":true,
			"emissiveFactor":[
				1,
				1,
				1
			],
			"emissiveTexture":{
				"index":1
			},
			"name":"dcl.PiratesPack.emissive",
			"pbrMetallicRoughness":{
				"baseColorTexture":{
					"index":2
				},
				"metallicFactor":0
			}
		}
	],
	"meshes":[
		{
			"name":"Cube.105",
			"primitives":[
				{
					"attributes":{
						"POSITION":0,
						"NORMAL":1,
						"TEXCOORD_0":2
					},
					"indices":3
				}
			]
		},
		{
			"name":"Cylinder.110",
			"primitives":[
				{
					"attributes":{
						"POSITION":4,
						"NORMAL":5,
						"TEXCOORD_0":6,
						"TANGENT":7
					},
					"indices":8,
					"material":0
				}
			]
		},
		{
			"name":"Cube.106",
			"primitives":[
				{
					"attributes":{
						"POSITION":9,
						"NORMAL":10,
						"TEXCOORD_0":11
					},
					"indices":12,
					"material":0
				}
			]
		},
		{
			"name":"Plane.021",
			"primitives":[
				{
					"attributes":{
						"POSITION":13,
						"NORMAL":14,
						"TEXCOORD_0":15,
						"TANGENT":16
					},
					"indices":17,
					"material":1
				}
			]
		},
		{
			"name":"Cube.107",
			"primitives":[
				{
					"attributes":{
						"POSITION":18,
						"NORMAL":19,
						"TEXCOORD_0":20
					},
					"indices":21,
					"material":0
				}
			]
		}
	],
	"textures":[
		{
			"sampler":0,
			"source":0
		},
		{
			"sampler":0,
			"source":0
		},
		{
			"sampler":0,
			"source":0
		}
	],
	"images":[
		{
			"mimeType":"image/png",
			"name":"PiratesPack_TX",
			"uri":"tex/PiratesPack_TX.png"
		}
	],
	"accessors":[
		{
			"bufferView":0,
			"componentType":5126,
			"count":105,
			"max":[
				3.2819976806640625,
				-8.389999389648438,
				-0.05996274948120117
			],
			"min":[
				-3.9999961853027344,
				-10.670757293701172,
				-4.000000476837158
			],
			"type":"VEC3"
		},
		{
			"bufferView":1,
			"componentType":5126,
			"count":105,
			"type":"VEC3"
		},
		{
			"bufferView":2,
			"componentType":5126,
			"count":105,
			"type":"VEC2"
		},
		{
			"bufferView":3,
			"componentType":5123,
			"count":183,
			"type":"SCALAR"
		},
		{
			"bufferView":4,
			"componentType":5126,
			"count":24,
			"max":[
				4,
				1.6000008583068848,
				1.0000282526016235
			],
			"min":[
				-4,
				-10.899999618530273,
				3.400444984436035e-05
			],
			"type":"VEC3"
		},
		{
			"bufferView":5,
			"componentType":5126,
			"count":24,
			"type":"VEC3"
		},
		{
			"bufferView":6,
			"componentType":5126,
			"count":24,
			"type":"VEC2"
		},
		{
			"bufferView":7,
			"componentType":5126,
			"count":24,
			"type":"VEC4"
		},
		{
			"bufferView":8,
			"componentType":5123,
			"count":36,
			"type":"SCALAR"
		},
		{
			"bufferView":9,
			"componentType":5126,
			"count":36,
			"max":[
				4,
				-10.65999984741211,
				0
			],
			"min":[
				-4,
				-10.899999618530273,
				-4
			],
			"type":"VEC3"
		},
		{
			"bufferView":10,
			"componentType":5126,
			"count":36,
			"type":"VEC3"
		},
		{
			"bufferView":11,
			"componentType":5126,
			"count":36,
			"type":"VEC2"
		},
		{
			"bufferView":12,
			"componentType":5123,
			"count":60,
			"type":"SCALAR"
		},
		{
			"bufferView":13,
			"componentType":5126,
			"count":8,
			"max":[
				13.374996185302734,
				-0.09997323900461197,
				0.08387750387191772
			],
			"min":[
				6.374996185302734,
				-0.09997352212667465,
				-0.08387738466262817
			],
			"type":"VEC3"
		},
		{
			"bufferView":14,
			"componentType":5126,
			"count":8,
			"type":"VEC3"
		},
		{
			"bufferView":15,
			"componentType":5126,
			"count":8,
			"type":"VEC2"
		},
		{
			"bufferView":16,
			"componentType":5126,
			"count":8,
			"type":"VEC4"
		},
		{
			"bufferView":17,
			"componentType":5123,
			"count":12,
			"type":"SCALAR"
		},
		{
			"bufferView":18,
			"componentType":5126,
			"count":146,
			"max":[
				3.247007369995117,
				-8.389999389648438,
				-0.05996227264404297
			],
			"min":[
				-3.999998092651367,
				-10.639999389648438,
				-4
			],
			"type":"VEC3"
		},
		{
			"bufferView":19,
			"componentType":5126,
			"count":146,
			"type":"VEC3"
		},
		{
			"bufferView":20,
			"componentType":5126,
			"count":146,
			"type":"VEC2"
		},
		{
			"bufferView":21,
			"componentType":5123,
			"count":285,
			"type":"SCALAR"
		}
	],
	"bufferViews":[
		{
			"buffer":0,
			"byteLength":1260,
			"byteOffset":0,
			"target":34962
		},
		{
			"buffer":0,
			"byteLength":1260,
			"byteOffset":1260,
			"target":34962
		},
		{
			"buffer":0,
			"byteLength":840,
			"byteOffset":2520,
			"target":34962
		},
		{
			"buffer":0,
			"byteLength":366,
			"byteOffset":3360,
			"target":34963
		},
		{
			"buffer":0,
			"byteLength":288,
			"byteOffset":3728,
			"target":34962
		},
		{
			"buffer":0,
			"byteLength":288,
			"byteOffset":4016,
			"target":34962
		},
		{
			"buffer":0,
			"byteLength":192,
			"byteOffset":4304,
			"target":34962
		},
		{
			"buffer":0,
			"byteLength":384,
			"byteOffset":4496,
			"target":34962
		},
		{
			"buffer":0,
			"byteLength":72,
			"byteOffset":4880,
			"target":34963
		},
		{
			"buffer":0,
			"byteLength":432,
			"byteOffset":4952,
			"target":34962
		},
		{
			"buffer":0,
			"byteLength":432,
			"byteOffset":5384,
			"target":34962
		},
		{
			"buffer":0,
			"byteLength":288,
			"byteOffset":5816,
			"target":34962
		},
		{
			"buffer":0,
			"byteLength":120,
			"byteOffset":6104,
			"target":34963
		},
		{
			"buffer":0,
			"byteLength":96,
			"byteOffset":6224,
			"target":34962
		},
		{
			"buffer":0,
			"byteLength":96,
			"byteOffset":6320,
			"target":34962
		},
		{
			"buffer":0,
			"byteLength":64,
			"byteOffset":6416,
			"target":34962
		},
		{
			"buffer":0,
			"byteLength":128,
			"byteOffset":6480,
			"target":34962
		},
		{
			"buffer":0,
			"byteLength":24,
			"byteOffset":6608,
			"target":34963
		},
		{
			"buffer":0,
			"byteLength":1752,
			"byteOffset":6632,
			"target":34962
		},
		{
			"buffer":0,
			"byteLength":1752,
			"byteOffset":8384,
			"target":34962
		},
		{
			"buffer":0,
			"byteLength":1168,
			"byteOffset":10136,
			"target":34962
		},
		{
			"buffer":0,
			"byteLength":570,
			"byteOffset":11304,
			"target":34963
		}
	],
	"samplers":[
		{
			"magFilter":9729,
			"minFilter":9987
		}
	],
	"buffers":[
		{
			"byteLength":11876,
			"uri":"tile_2_0_0.bin"
		}
	]
}
