{
	"asset":{
		"generator":"Khronos glTF Blender I/O v4.0.44",
		"version":"2.0"
	},
	"scene":0,
	"scenes":[
		{
			"name":"Scene",
			"nodes":[
				0,
				1,
				2,
				3,
				4,
				5,
				6,
				7,
				8,
				9,
				10
			]
		}
	],
	"nodes":[
		{
			"name":"pipe.main_collider",
			"rotation":[
				0.7071068286895752,
				0,
				0,
				0.7071068286895752
			]
		},
		{
			"mesh":0,
			"name":"ramp.small.02_collider",
			"rotation":[
				0,
				-1,
				0,
				1.6292068494294654e-07
			]
		},
		{
			"mesh":1,
			"name":"ramp.small.03",
			"rotation":[
				0,
				0,
				-0.1521233767271042,
				0.9883615374565125
			]
		},
		{
			"mesh":2,
			"name":"ground"
		},
		{
			"name":"decal.main",
			"rotation":[
				0,
				-0.7071068286895752,
				0.7071068286895752,
				3.4560699191388267e-07
			]
		},
		{
			"name":"decal.ramp.branches",
			"rotation":[
				0,
				-1,
				0,
				1.6292068494294654e-07
			],
			"scale":[
				1.5,
				1.5,
				1.5
			]
		},
		{
			"mesh":3,
			"name":"decal.ramp.small.03",
			"rotation":[
				0,
				-1,
				0,
				1.6292068494294654e-07
			]
		},
		{
			"name":"pipe.main",
			"rotation":[
				0.7071068286895752,
				0,
				0,
				0.7071068286895752
			],
			"scale":[
				2,
				2,
				2
			]
		},
		{
			"name":"pipe.main.rim",
			"rotation":[
				0.7071068286895752,
				0,
				0,
				0.7071068286895752
			],
			"scale":[
				2,
				2,
				2
			]
		},
		{
			"mesh":4,
			"name":"ramp.rails.01",
			"rotation":[
				0.7071068286895752,
				0,
				0,
				0.7071068286895752
			]
		},
		{
			"mesh":5,
			"name":"ramp.small.02",
			"rotation":[
				0,
				-1,
				0,
				1.6292068494294654e-07
			]
		}
	],
	"materials":[
		{
			"doubleSided":true,
			"name":"dcl.PiratesPack",
			"pbrMetallicRoughness":{
				"baseColorTexture":{
					"index":0
				},
				"metallicFactor":0
			}
		}
	],
	"meshes":[
		{
			"name":"Cube.271",
			"primitives":[
				{
					"attributes":{
						"POSITION":0,
						"NORMAL":1,
						"TEXCOORD_0":2
					},
					"indices":3
				}
			]
		},
		{
			"name":"Cube.272",
			"primitives":[
				{
					"attributes":{
						"POSITION":4,
						"NORMAL":5,
						"TEXCOORD_0":6,
						"TANGENT":7
					},
					"indices":8,
					"material":0
				}
			]
		},
		{
			"name":"Cube.273",
			"primitives":[
				{
					"attributes":{
						"POSITION":9,
						"NORMAL":10,
						"TEXCOORD_0":11,
						"TANGENT":12
					},
					"indices":13,
					"material":0
				}
			]
		},
		{
			"name":"Cube.275",
			"primitives":[
				{
					"attributes":{
						"POSITION":14,
						"NORMAL":15,
						"TEXCOORD_0":16,
						"TANGENT":17
					},
					"indices":18,
					"material":0
				}
			]
		},
		{
			"name":"Cylinder.212",
			"primitives":[
				{
					"attributes":{
						"POSITION":19,
						"NORMAL":20,
						"TEXCOORD_0":21
					},
					"indices":22,
					"material":0
				}
			]
		},
		{
			"name":"Cube.276",
			"primitives":[
				{
					"attributes":{
						"POSITION":23,
						"NORMAL":24,
						"TEXCOORD_0":25
					},
					"indices":26,
					"material":0
				}
			]
		}
	],
	"textures":[
		{
			"sampler":0,
			"source":0
		}
	],
	"images":[
		{
			"mimeType":"image/png",
			"name":"PiratesPack_TX",
			"uri":"tex/PiratesPack_TX.png"
		}
	],
	"accessors":[
		{
			"bufferView":0,
			"componentType":5126,
			"count":56,
			"max":[
				-0.5,
				-9.161642074584961,
				-3.500020980834961
			],
			"min":[
				-4,
				-10.661642074584961,
				-4
			],
			"type":"VEC3"
		},
		{
			"bufferView":1,
			"componentType":5126,
			"count":56,
			"type":"VEC3"
		},
		{
			"bufferView":2,
			"componentType":5126,
			"count":56,
			"type":"VEC2"
		},
		{
			"bufferView":3,
			"componentType":5123,
			"count":96,
			"type":"SCALAR"
		},
		{
			"bufferView":4,
			"componentType":5126,
			"count":24,
			"max":[
				7.525911331176758,
				-8.56709098815918,
				2.500019073486328
			],
			"min":[
				3.241905450820923,
				-10.56709098815918,
				-0.4999809265136719
			],
			"type":"VEC3"
		},
		{
			"bufferView":5,
			"componentType":5126,
			"count":24,
			"type":"VEC3"
		},
		{
			"bufferView":6,
			"componentType":5126,
			"count":24,
			"type":"VEC2"
		},
		{
			"bufferView":7,
			"componentType":5126,
			"count":24,
			"type":"VEC4"
		},
		{
			"bufferView":8,
			"componentType":5123,
			"count":36,
			"type":"SCALAR"
		},
		{
			"bufferView":9,
			"componentType":5126,
			"count":24,
			"max":[
				4,
				-10.65999984741211,
				4
			],
			"min":[
				-4,
				-10.899999618530273,
				-4
			],
			"type":"VEC3"
		},
		{
			"bufferView":10,
			"componentType":5126,
			"count":24,
			"type":"VEC3"
		},
		{
			"bufferView":11,
			"componentType":5126,
			"count":24,
			"type":"VEC2"
		},
		{
			"bufferView":12,
			"componentType":5126,
			"count":24,
			"type":"VEC4"
		},
		{
			"bufferView":13,
			"componentType":5123,
			"count":36,
			"type":"SCALAR"
		},
		{
			"bufferView":14,
			"componentType":5126,
			"count":16,
			"max":[
				-0.7499998211860657,
				-9.161642074584961,
				0.4999791383743286
			],
			"min":[
				-4,
				-10.219154357910156,
				-2.50002121925354
			],
			"type":"VEC3"
		},
		{
			"bufferView":15,
			"componentType":5126,
			"count":16,
			"type":"VEC3"
		},
		{
			"bufferView":16,
			"componentType":5126,
			"count":16,
			"type":"VEC2"
		},
		{
			"bufferView":17,
			"componentType":5126,
			"count":16,
			"type":"VEC4"
		},
		{
			"bufferView":18,
			"componentType":5123,
			"count":30,
			"type":"SCALAR"
		},
		{
			"bufferView":19,
			"componentType":5126,
			"count":94,
			"max":[
				0.7437390089035034,
				4,
				9.308638572692871
			],
			"min":[
				0.4837390184402466,
				-0.5499792098999023,
				9.048638343811035
			],
			"type":"VEC3"
		},
		{
			"bufferView":20,
			"componentType":5126,
			"count":94,
			"type":"VEC3"
		},
		{
			"bufferView":21,
			"componentType":5126,
			"count":94,
			"type":"VEC2"
		},
		{
			"bufferView":22,
			"componentType":5123,
			"count":168,
			"type":"SCALAR"
		},
		{
			"bufferView":23,
			"componentType":5126,
			"count":107,
			"max":[
				-0.5,
				-9.161642074584961,
				-3.500020980834961
			],
			"min":[
				-4,
				-10.661642074584961,
				-4
			],
			"type":"VEC3"
		},
		{
			"bufferView":24,
			"componentType":5126,
			"count":107,
			"type":"VEC3"
		},
		{
			"bufferView":25,
			"componentType":5126,
			"count":107,
			"type":"VEC2"
		},
		{
			"bufferView":26,
			"componentType":5123,
			"count":192,
			"type":"SCALAR"
		}
	],
	"bufferViews":[
		{
			"buffer":0,
			"byteLength":672,
			"byteOffset":0,
			"target":34962
		},
		{
			"buffer":0,
			"byteLength":672,
			"byteOffset":672,
			"target":34962
		},
		{
			"buffer":0,
			"byteLength":448,
			"byteOffset":1344,
			"target":34962
		},
		{
			"buffer":0,
			"byteLength":192,
			"byteOffset":1792,
			"target":34963
		},
		{
			"buffer":0,
			"byteLength":288,
			"byteOffset":1984,
			"target":34962
		},
		{
			"buffer":0,
			"byteLength":288,
			"byteOffset":2272,
			"target":34962
		},
		{
			"buffer":0,
			"byteLength":192,
			"byteOffset":2560,
			"target":34962
		},
		{
			"buffer":0,
			"byteLength":384,
			"byteOffset":2752,
			"target":34962
		},
		{
			"buffer":0,
			"byteLength":72,
			"byteOffset":3136,
			"target":34963
		},
		{
			"buffer":0,
			"byteLength":288,
			"byteOffset":3208,
			"target":34962
		},
		{
			"buffer":0,
			"byteLength":288,
			"byteOffset":3496,
			"target":34962
		},
		{
			"buffer":0,
			"byteLength":192,
			"byteOffset":3784,
			"target":34962
		},
		{
			"buffer":0,
			"byteLength":384,
			"byteOffset":3976,
			"target":34962
		},
		{
			"buffer":0,
			"byteLength":72,
			"byteOffset":4360,
			"target":34963
		},
		{
			"buffer":0,
			"byteLength":192,
			"byteOffset":4432,
			"target":34962
		},
		{
			"buffer":0,
			"byteLength":192,
			"byteOffset":4624,
			"target":34962
		},
		{
			"buffer":0,
			"byteLength":128,
			"byteOffset":4816,
			"target":34962
		},
		{
			"buffer":0,
			"byteLength":256,
			"byteOffset":4944,
			"target":34962
		},
		{
			"buffer":0,
			"byteLength":60,
			"byteOffset":5200,
			"target":34963
		},
		{
			"buffer":0,
			"byteLength":1128,
			"byteOffset":5260,
			"target":34962
		},
		{
			"buffer":0,
			"byteLength":1128,
			"byteOffset":6388,
			"target":34962
		},
		{
			"buffer":0,
			"byteLength":752,
			"byteOffset":7516,
			"target":34962
		},
		{
			"buffer":0,
			"byteLength":336,
			"byteOffset":8268,
			"target":34963
		},
		{
			"buffer":0,
			"byteLength":1284,
			"byteOffset":8604,
			"target":34962
		},
		{
			"buffer":0,
			"byteLength":1284,
			"byteOffset":9888,
			"target":34962
		},
		{
			"buffer":0,
			"byteLength":856,
			"byteOffset":11172,
			"target":34962
		},
		{
			"buffer":0,
			"byteLength":384,
			"byteOffset":12028,
			"target":34963
		}
	],
	"samplers":[
		{
			"magFilter":9729,
			"minFilter":9987
		}
	],
	"buffers":[
		{
			"byteLength":12412,
			"uri":"tile_6_0_3.bin"
		}
	]
}
