{
	"asset":{
		"generator":"Khronos glTF Blender I/O v4.0.44",
		"version":"2.0"
	},
	"scene":0,
	"scenes":[
		{
			"name":"Scene",
			"nodes":[
				0,
				1,
				2,
				3,
				4,
				5
			]
		}
	],
	"nodes":[
		{
			"mesh":0,
			"name":"grindcurve.01_collider",
			"rotation":[
				0,
				-0.6427873969078064,
				0,
				0.7660446763038635
			]
		},
		{
			"mesh":1,
			"name":"ground"
		},
		{
			"name":"decal.main",
			"rotation":[
				0,
				-0.7071068286895752,
				0.7071068286895752,
				3.4560699191388267e-07
			]
		},
		{
			"mesh":2,
			"name":"decal.circles",
			"scale":[
				3,
				3,
				3
			]
		},
		{
			"mesh":3,
			"name":"grindcurve.01",
			"rotation":[
				0,
				0.7660448551177979,
				0,
				0.6427870988845825
			]
		},
		{
			"mesh":4,
			"name":"grindcurve.003",
			"rotation":[
				0,
				0.7660448551177979,
				0,
				0.6427870988845825
			]
		}
	],
	"materials":[
		{
			"doubleSided":true,
			"name":"dcl.PiratesPack",
			"pbrMetallicRoughness":{
				"baseColorTexture":{
					"index":0
				},
				"metallicFactor":0
			}
		},
		{
			"doubleSided":true,
			"emissiveFactor":[
				1,
				1,
				1
			],
			"emissiveTexture":{
				"index":1
			},
			"name":"dcl.PiratesPack.emissive",
			"pbrMetallicRoughness":{
				"baseColorTexture":{
					"index":2
				},
				"metallicFactor":0
			}
		}
	],
	"meshes":[
		{
			"name":"Cylinder.118",
			"primitives":[
				{
					"attributes":{
						"POSITION":0,
						"NORMAL":1,
						"TEXCOORD_0":2,
						"TANGENT":3
					},
					"indices":4
				}
			]
		},
		{
			"name":"Cube.143",
			"primitives":[
				{
					"attributes":{
						"POSITION":5,
						"NORMAL":6,
						"TEXCOORD_0":7,
						"TANGENT":8
					},
					"indices":9,
					"material":0
				}
			]
		},
		{
			"name":"Circle.002",
			"primitives":[
				{
					"attributes":{
						"POSITION":10,
						"NORMAL":11,
						"TEXCOORD_0":12,
						"TANGENT":13
					},
					"indices":14,
					"material":1
				}
			]
		},
		{
			"name":"Cylinder.120",
			"primitives":[
				{
					"attributes":{
						"POSITION":15,
						"NORMAL":16,
						"TEXCOORD_0":17
					},
					"indices":18,
					"material":0
				}
			]
		},
		{
			"name":"grindcurve.001",
			"primitives":[
				{
					"attributes":{
						"POSITION":19,
						"NORMAL":20,
						"TEXCOORD_0":21,
						"TANGENT":22
					},
					"indices":23,
					"material":0
				}
			]
		}
	],
	"textures":[
		{
			"sampler":0,
			"source":0
		},
		{
			"sampler":0,
			"source":0
		},
		{
			"sampler":0,
			"source":0
		}
	],
	"images":[
		{
			"mimeType":"image/png",
			"name":"PiratesPack_TX",
			"uri":"tex/PiratesPack_TX.png"
		}
	],
	"accessors":[
		{
			"bufferView":0,
			"componentType":5126,
			"count":56,
			"max":[
				2.639493942260742,
				-8.5,
				1.1920537948608398
			],
			"min":[
				-4.271894931793213,
				-11.049999237060547,
				-4.144436836242676
			],
			"type":"VEC3"
		},
		{
			"bufferView":1,
			"componentType":5126,
			"count":56,
			"type":"VEC3"
		},
		{
			"bufferView":2,
			"componentType":5126,
			"count":56,
			"type":"VEC2"
		},
		{
			"bufferView":3,
			"componentType":5126,
			"count":56,
			"type":"VEC4"
		},
		{
			"bufferView":4,
			"componentType":5123,
			"count":120,
			"type":"SCALAR"
		},
		{
			"bufferView":5,
			"componentType":5126,
			"count":24,
			"max":[
				4,
				-10.65999984741211,
				4
			],
			"min":[
				-4,
				-10.899999618530273,
				-4
			],
			"type":"VEC3"
		},
		{
			"bufferView":6,
			"componentType":5126,
			"count":24,
			"type":"VEC3"
		},
		{
			"bufferView":7,
			"componentType":5126,
			"count":24,
			"type":"VEC2"
		},
		{
			"bufferView":8,
			"componentType":5126,
			"count":24,
			"type":"VEC4"
		},
		{
			"bufferView":9,
			"componentType":5123,
			"count":36,
			"type":"SCALAR"
		},
		{
			"bufferView":10,
			"componentType":5126,
			"count":4,
			"max":[
				1.3333338499069214,
				-3.5366671085357666,
				-1.1645307540893555
			],
			"min":[
				1.1702282428741455,
				-3.5366671085357666,
				-1.3333314657211304
			],
			"type":"VEC3"
		},
		{
			"bufferView":11,
			"componentType":5126,
			"count":4,
			"type":"VEC3"
		},
		{
			"bufferView":12,
			"componentType":5126,
			"count":4,
			"type":"VEC2"
		},
		{
			"bufferView":13,
			"componentType":5126,
			"count":4,
			"type":"VEC4"
		},
		{
			"bufferView":14,
			"componentType":5123,
			"count":6,
			"type":"SCALAR"
		},
		{
			"bufferView":15,
			"componentType":5126,
			"count":128,
			"max":[
				4.271899223327637,
				-8.149999618530273,
				4.144436836242676
			],
			"min":[
				-2.6394944190979004,
				-10.69999885559082,
				-1.1920504570007324
			],
			"type":"VEC3"
		},
		{
			"bufferView":16,
			"componentType":5126,
			"count":128,
			"type":"VEC3"
		},
		{
			"bufferView":17,
			"componentType":5126,
			"count":128,
			"type":"VEC2"
		},
		{
			"bufferView":18,
			"componentType":5123,
			"count":288,
			"type":"SCALAR"
		},
		{
			"bufferView":19,
			"componentType":5126,
			"count":104,
			"max":[
				4.298816204071045,
				-8.029866218566895,
				3.623565196990967
			],
			"min":[
				-2.7941794395446777,
				-8.329817771911621,
				-1.344700813293457
			],
			"type":"VEC3"
		},
		{
			"bufferView":20,
			"componentType":5126,
			"count":104,
			"type":"VEC3"
		},
		{
			"bufferView":21,
			"componentType":5126,
			"count":104,
			"type":"VEC2"
		},
		{
			"bufferView":22,
			"componentType":5126,
			"count":104,
			"type":"VEC4"
		},
		{
			"bufferView":23,
			"componentType":5123,
			"count":156,
			"type":"SCALAR"
		}
	],
	"bufferViews":[
		{
			"buffer":0,
			"byteLength":672,
			"byteOffset":0,
			"target":34962
		},
		{
			"buffer":0,
			"byteLength":672,
			"byteOffset":672,
			"target":34962
		},
		{
			"buffer":0,
			"byteLength":448,
			"byteOffset":1344,
			"target":34962
		},
		{
			"buffer":0,
			"byteLength":896,
			"byteOffset":1792,
			"target":34962
		},
		{
			"buffer":0,
			"byteLength":240,
			"byteOffset":2688,
			"target":34963
		},
		{
			"buffer":0,
			"byteLength":288,
			"byteOffset":2928,
			"target":34962
		},
		{
			"buffer":0,
			"byteLength":288,
			"byteOffset":3216,
			"target":34962
		},
		{
			"buffer":0,
			"byteLength":192,
			"byteOffset":3504,
			"target":34962
		},
		{
			"buffer":0,
			"byteLength":384,
			"byteOffset":3696,
			"target":34962
		},
		{
			"buffer":0,
			"byteLength":72,
			"byteOffset":4080,
			"target":34963
		},
		{
			"buffer":0,
			"byteLength":48,
			"byteOffset":4152,
			"target":34962
		},
		{
			"buffer":0,
			"byteLength":48,
			"byteOffset":4200,
			"target":34962
		},
		{
			"buffer":0,
			"byteLength":32,
			"byteOffset":4248,
			"target":34962
		},
		{
			"buffer":0,
			"byteLength":64,
			"byteOffset":4280,
			"target":34962
		},
		{
			"buffer":0,
			"byteLength":12,
			"byteOffset":4344,
			"target":34963
		},
		{
			"buffer":0,
			"byteLength":1536,
			"byteOffset":4356,
			"target":34962
		},
		{
			"buffer":0,
			"byteLength":1536,
			"byteOffset":5892,
			"target":34962
		},
		{
			"buffer":0,
			"byteLength":1024,
			"byteOffset":7428,
			"target":34962
		},
		{
			"buffer":0,
			"byteLength":576,
			"byteOffset":8452,
			"target":34963
		},
		{
			"buffer":0,
			"byteLength":1248,
			"byteOffset":9028,
			"target":34962
		},
		{
			"buffer":0,
			"byteLength":1248,
			"byteOffset":10276,
			"target":34962
		},
		{
			"buffer":0,
			"byteLength":832,
			"byteOffset":11524,
			"target":34962
		},
		{
			"buffer":0,
			"byteLength":1664,
			"byteOffset":12356,
			"target":34962
		},
		{
			"buffer":0,
			"byteLength":312,
			"byteOffset":14020,
			"target":34963
		}
	],
	"samplers":[
		{
			"magFilter":9729,
			"minFilter":9987
		}
	],
	"buffers":[
		{
			"byteLength":14332,
			"uri":"tile_2_0_7.bin"
		}
	]
}
