{
	"asset":{
		"generator":"Khronos glTF Blender I/O v4.0.44",
		"version":"2.0"
	},
	"scene":0,
	"scenes":[
		{
			"name":"Scene",
			"nodes":[
				0,
				1,
				2,
				3,
				4,
				5,
				6,
				7
			]
		}
	],
	"nodes":[
		{
			"mesh":0,
			"name":"dropin-pillar.01_collider",
			"rotation":[
				0.5000002384185791,
				-0.4999997615814209,
				0.4999997615814209,
				0.5000002384185791
			]
		},
		{
			"mesh":1,
			"name":"dropin-pillar.003_box_collider",
			"rotation":[
				0,
				-1,
				0,
				1.6292068494294654e-07
			]
		},
		{
			"mesh":2,
			"name":"dropin-pillar.010_box_collider",
			"rotation":[
				0,
				-1,
				0,
				1.6292068494294654e-07
			]
		},
		{
			"mesh":3,
			"name":"dropin-pillar.009_box_collider",
			"rotation":[
				0,
				-1,
				0,
				1.6292068494294654e-07
			]
		},
		{
			"mesh":4,
			"name":"ground"
		},
		{
			"mesh":5,
			"name":"decal.main",
			"rotation":[
				0,
				-0.7071068286895752,
				0.7071068286895752,
				3.4560699191388267e-07
			]
		},
		{
			"mesh":6,
			"name":"dropin-pillar.01",
			"rotation":[
				0.5000002384185791,
				-0.4999997615814209,
				0.4999997615814209,
				0.5000002384185791
			],
			"scale":[
				3,
				3,
				3
			]
		},
		{
			"mesh":7,
			"name":"dropin-pillar.01.flag",
			"rotation":[
				0,
				-0.7071068286895752,
				0.7071068286895752,
				1.1520233300643667e-07
			],
			"scale":[
				2,
				2,
				2
			]
		}
	],
	"materials":[
		{
			"doubleSided":true,
			"name":"dcl.PiratesPack",
			"pbrMetallicRoughness":{
				"baseColorTexture":{
					"index":0
				},
				"metallicFactor":0
			}
		},
		{
			"doubleSided":true,
			"emissiveFactor":[
				1,
				1,
				1
			],
			"emissiveTexture":{
				"index":1
			},
			"name":"dcl.PiratesPack.emissive",
			"pbrMetallicRoughness":{
				"baseColorTexture":{
					"index":2
				},
				"metallicFactor":0
			}
		}
	],
	"meshes":[
		{
			"name":"Cylinder.186",
			"primitives":[
				{
					"attributes":{
						"POSITION":0,
						"NORMAL":1,
						"TEXCOORD_0":2
					},
					"indices":3
				}
			]
		},
		{
			"name":"Cube.236",
			"primitives":[
				{
					"attributes":{
						"POSITION":4,
						"NORMAL":5,
						"TEXCOORD_0":6,
						"TANGENT":7
					},
					"indices":8
				}
			]
		},
		{
			"name":"Cube.237",
			"primitives":[
				{
					"attributes":{
						"POSITION":9,
						"NORMAL":10,
						"TEXCOORD_0":11,
						"TANGENT":12
					},
					"indices":8
				}
			]
		},
		{
			"name":"Cube.238",
			"primitives":[
				{
					"attributes":{
						"POSITION":13,
						"NORMAL":14,
						"TEXCOORD_0":15,
						"TANGENT":16
					},
					"indices":17
				}
			]
		},
		{
			"name":"Cube.239",
			"primitives":[
				{
					"attributes":{
						"POSITION":18,
						"NORMAL":19,
						"TEXCOORD_0":20,
						"TANGENT":21
					},
					"indices":22,
					"material":0
				}
			]
		},
		{
			"name":"Cylinder.187",
			"primitives":[
				{
					"attributes":{
						"POSITION":23,
						"NORMAL":24,
						"TEXCOORD_0":25,
						"TANGENT":26
					},
					"indices":27,
					"material":1
				}
			]
		},
		{
			"name":"Cylinder.188",
			"primitives":[
				{
					"attributes":{
						"POSITION":28,
						"NORMAL":29,
						"TEXCOORD_0":30
					},
					"indices":31,
					"material":0
				}
			]
		},
		{
			"name":"Cylinder.189",
			"primitives":[
				{
					"attributes":{
						"POSITION":32,
						"NORMAL":33,
						"TEXCOORD_0":34
					},
					"indices":35,
					"material":0
				}
			]
		}
	],
	"textures":[
		{
			"sampler":0,
			"source":0
		},
		{
			"sampler":0,
			"source":0
		},
		{
			"sampler":0,
			"source":0
		}
	],
	"images":[
		{
			"mimeType":"image/png",
			"name":"PiratesPack_TX",
			"uri":"tex/PiratesPack_TX.png"
		}
	],
	"accessors":[
		{
			"bufferView":0,
			"componentType":5126,
			"count":80,
			"max":[
				4.000003814697266,
				3.370534896850586,
				15
			],
			"min":[
				-2.239053726196289,
				-3.9999961853027344,
				6.293066024780273
			],
			"type":"VEC3"
		},
		{
			"bufferView":1,
			"componentType":5126,
			"count":80,
			"type":"VEC3"
		},
		{
			"bufferView":2,
			"componentType":5126,
			"count":80,
			"type":"VEC2"
		},
		{
			"bufferView":3,
			"componentType":5123,
			"count":234,
			"type":"SCALAR"
		},
		{
			"bufferView":4,
			"componentType":5126,
			"count":24,
			"max":[
				-0.37876349687576294,
				-4.790686130523682,
				-1.6540513038635254
			],
			"min":[
				-1.6192834377288818,
				-10.290685653686523,
				-2.7504591941833496
			],
			"type":"VEC3"
		},
		{
			"bufferView":5,
			"componentType":5126,
			"count":24,
			"type":"VEC3"
		},
		{
			"bufferView":6,
			"componentType":5126,
			"count":24,
			"type":"VEC2"
		},
		{
			"bufferView":7,
			"componentType":5126,
			"count":24,
			"type":"VEC4"
		},
		{
			"bufferView":8,
			"componentType":5123,
			"count":36,
			"type":"SCALAR"
		},
		{
			"bufferView":9,
			"componentType":5126,
			"count":24,
			"max":[
				-0.7713627815246582,
				-0.29633235931396484,
				-2.001042127609253
			],
			"min":[
				-1.2266840934753418,
				-5.1272783279418945,
				-2.403468370437622
			],
			"type":"VEC3"
		},
		{
			"bufferView":10,
			"componentType":5126,
			"count":24,
			"type":"VEC3"
		},
		{
			"bufferView":11,
			"componentType":5126,
			"count":24,
			"type":"VEC2"
		},
		{
			"bufferView":12,
			"componentType":5126,
			"count":24,
			"type":"VEC4"
		},
		{
			"bufferView":13,
			"componentType":5126,
			"count":24,
			"max":[
				-0.7340874671936035,
				-0.31800782680511475,
				-1.9777283668518066
			],
			"min":[
				-1.2639594078063965,
				-1.8424440622329712,
				-4
			],
			"type":"VEC3"
		},
		{
			"bufferView":14,
			"componentType":5126,
			"count":24,
			"type":"VEC3"
		},
		{
			"bufferView":15,
			"componentType":5126,
			"count":24,
			"type":"VEC2"
		},
		{
			"bufferView":16,
			"componentType":5126,
			"count":24,
			"type":"VEC4"
		},
		{
			"bufferView":17,
			"componentType":5123,
			"count":36,
			"type":"SCALAR"
		},
		{
			"bufferView":18,
			"componentType":5126,
			"count":24,
			"max":[
				4,
				-10.65999984741211,
				4
			],
			"min":[
				-4,
				-10.899999618530273,
				-4
			],
			"type":"VEC3"
		},
		{
			"bufferView":19,
			"componentType":5126,
			"count":24,
			"type":"VEC3"
		},
		{
			"bufferView":20,
			"componentType":5126,
			"count":24,
			"type":"VEC2"
		},
		{
			"bufferView":21,
			"componentType":5126,
			"count":24,
			"type":"VEC4"
		},
		{
			"bufferView":22,
			"componentType":5123,
			"count":36,
			"type":"SCALAR"
		},
		{
			"bufferView":23,
			"componentType":5126,
			"count":4,
			"max":[
				4.000003814697266,
				3.4890594482421875,
				10.630559921264648
			],
			"min":[
				-3.9999961853027344,
				2.98905086517334,
				10.630559921264648
			],
			"type":"VEC3"
		},
		{
			"bufferView":24,
			"componentType":5126,
			"count":4,
			"type":"VEC3"
		},
		{
			"bufferView":25,
			"componentType":5126,
			"count":4,
			"type":"VEC2"
		},
		{
			"bufferView":26,
			"componentType":5126,
			"count":4,
			"type":"VEC4"
		},
		{
			"bufferView":27,
			"componentType":5123,
			"count":6,
			"type":"SCALAR"
		},
		{
			"bufferView":28,
			"componentType":5126,
			"count":395,
			"max":[
				1.3333346843719482,
				1.1235084533691406,
				5.000000476837158
			],
			"min":[
				-0.7463502883911133,
				-1.333335041999817,
				1.597688913345337
			],
			"type":"VEC3"
		},
		{
			"bufferView":29,
			"componentType":5126,
			"count":395,
			"type":"VEC3"
		},
		{
			"bufferView":30,
			"componentType":5126,
			"count":395,
			"type":"VEC2"
		},
		{
			"bufferView":31,
			"componentType":5123,
			"count":1011,
			"type":"SCALAR"
		},
		{
			"bufferView":32,
			"componentType":5126,
			"count":44,
			"max":[
				-0.41539859771728516,
				-0.981115460395813,
				2.396533489227295
			],
			"min":[
				-0.6103990077972412,
				-2,
				0.14653348922729492
			],
			"type":"VEC3"
		},
		{
			"bufferView":33,
			"componentType":5126,
			"count":44,
			"type":"VEC3"
		},
		{
			"bufferView":34,
			"componentType":5126,
			"count":44,
			"type":"VEC2"
		},
		{
			"bufferView":35,
			"componentType":5123,
			"count":90,
			"type":"SCALAR"
		}
	],
	"bufferViews":[
		{
			"buffer":0,
			"byteLength":960,
			"byteOffset":0,
			"target":34962
		},
		{
			"buffer":0,
			"byteLength":960,
			"byteOffset":960,
			"target":34962
		},
		{
			"buffer":0,
			"byteLength":640,
			"byteOffset":1920,
			"target":34962
		},
		{
			"buffer":0,
			"byteLength":468,
			"byteOffset":2560,
			"target":34963
		},
		{
			"buffer":0,
			"byteLength":288,
			"byteOffset":3028,
			"target":34962
		},
		{
			"buffer":0,
			"byteLength":288,
			"byteOffset":3316,
			"target":34962
		},
		{
			"buffer":0,
			"byteLength":192,
			"byteOffset":3604,
			"target":34962
		},
		{
			"buffer":0,
			"byteLength":384,
			"byteOffset":3796,
			"target":34962
		},
		{
			"buffer":0,
			"byteLength":72,
			"byteOffset":4180,
			"target":34963
		},
		{
			"buffer":0,
			"byteLength":288,
			"byteOffset":4252,
			"target":34962
		},
		{
			"buffer":0,
			"byteLength":288,
			"byteOffset":4540,
			"target":34962
		},
		{
			"buffer":0,
			"byteLength":192,
			"byteOffset":4828,
			"target":34962
		},
		{
			"buffer":0,
			"byteLength":384,
			"byteOffset":5020,
			"target":34962
		},
		{
			"buffer":0,
			"byteLength":288,
			"byteOffset":5404,
			"target":34962
		},
		{
			"buffer":0,
			"byteLength":288,
			"byteOffset":5692,
			"target":34962
		},
		{
			"buffer":0,
			"byteLength":192,
			"byteOffset":5980,
			"target":34962
		},
		{
			"buffer":0,
			"byteLength":384,
			"byteOffset":6172,
			"target":34962
		},
		{
			"buffer":0,
			"byteLength":72,
			"byteOffset":6556,
			"target":34963
		},
		{
			"buffer":0,
			"byteLength":288,
			"byteOffset":6628,
			"target":34962
		},
		{
			"buffer":0,
			"byteLength":288,
			"byteOffset":6916,
			"target":34962
		},
		{
			"buffer":0,
			"byteLength":192,
			"byteOffset":7204,
			"target":34962
		},
		{
			"buffer":0,
			"byteLength":384,
			"byteOffset":7396,
			"target":34962
		},
		{
			"buffer":0,
			"byteLength":72,
			"byteOffset":7780,
			"target":34963
		},
		{
			"buffer":0,
			"byteLength":48,
			"byteOffset":7852,
			"target":34962
		},
		{
			"buffer":0,
			"byteLength":48,
			"byteOffset":7900,
			"target":34962
		},
		{
			"buffer":0,
			"byteLength":32,
			"byteOffset":7948,
			"target":34962
		},
		{
			"buffer":0,
			"byteLength":64,
			"byteOffset":7980,
			"target":34962
		},
		{
			"buffer":0,
			"byteLength":12,
			"byteOffset":8044,
			"target":34963
		},
		{
			"buffer":0,
			"byteLength":4740,
			"byteOffset":8056,
			"target":34962
		},
		{
			"buffer":0,
			"byteLength":4740,
			"byteOffset":12796,
			"target":34962
		},
		{
			"buffer":0,
			"byteLength":3160,
			"byteOffset":17536,
			"target":34962
		},
		{
			"buffer":0,
			"byteLength":2022,
			"byteOffset":20696,
			"target":34963
		},
		{
			"buffer":0,
			"byteLength":528,
			"byteOffset":22720,
			"target":34962
		},
		{
			"buffer":0,
			"byteLength":528,
			"byteOffset":23248,
			"target":34962
		},
		{
			"buffer":0,
			"byteLength":352,
			"byteOffset":23776,
			"target":34962
		},
		{
			"buffer":0,
			"byteLength":180,
			"byteOffset":24128,
			"target":34963
		}
	],
	"samplers":[
		{
			"magFilter":9729,
			"minFilter":9987
		}
	],
	"buffers":[
		{
			"byteLength":24308,
			"uri":"tile_5_0_6.bin"
		}
	]
}
