{
	"asset":{
		"generator":"Khronos glTF Blender I/O v4.0.44",
		"version":"2.0"
	},
	"scene":0,
	"scenes":[
		{
			"name":"Scene",
			"nodes":[
				0,
				1,
				2,
				3,
				4
			]
		}
	],
	"nodes":[
		{
			"mesh":0,
			"name":"pipe.main_collider",
			"rotation":[
				0.7071068286895752,
				0,
				0,
				0.7071068286895752
			]
		},
		{
			"mesh":1,
			"name":"ground"
		},
		{
			"mesh":2,
			"name":"decal.main",
			"rotation":[
				0,
				-0.7071068286895752,
				0.7071068286895752,
				3.4560699191388267e-07
			]
		},
		{
			"mesh":3,
			"name":"pipe.main",
			"rotation":[
				0.7071068286895752,
				0,
				0,
				0.7071068286895752
			],
			"scale":[
				2,
				2,
				2
			]
		},
		{
			"mesh":4,
			"name":"pipe.main.rim",
			"rotation":[
				0.7071068286895752,
				0,
				0,
				0.7071068286895752
			],
			"scale":[
				2,
				2,
				2
			]
		}
	],
	"materials":[
		{
			"doubleSided":true,
			"name":"dcl.PiratesPack",
			"pbrMetallicRoughness":{
				"baseColorTexture":{
					"index":0
				},
				"metallicFactor":0
			}
		},
		{
			"doubleSided":true,
			"emissiveFactor":[
				1,
				1,
				1
			],
			"emissiveTexture":{
				"index":1
			},
			"name":"dcl.PiratesPack.emissive",
			"pbrMetallicRoughness":{
				"baseColorTexture":{
					"index":2
				},
				"metallicFactor":0
			}
		}
	],
	"meshes":[
		{
			"name":"Cylinder.335",
			"primitives":[
				{
					"attributes":{
						"POSITION":0,
						"NORMAL":1,
						"TEXCOORD_0":2
					},
					"indices":3
				}
			]
		},
		{
			"name":"Cube.342",
			"primitives":[
				{
					"attributes":{
						"POSITION":4,
						"NORMAL":5,
						"TEXCOORD_0":6,
						"TANGENT":7
					},
					"indices":8,
					"material":0
				}
			]
		},
		{
			"name":"Cylinder.336",
			"primitives":[
				{
					"attributes":{
						"POSITION":9,
						"NORMAL":10,
						"TEXCOORD_0":11,
						"TANGENT":12
					},
					"indices":13,
					"material":1
				}
			]
		},
		{
			"name":"Cylinder.337",
			"primitives":[
				{
					"attributes":{
						"POSITION":14,
						"NORMAL":15,
						"TEXCOORD_0":16
					},
					"indices":17,
					"material":0
				}
			]
		},
		{
			"name":"Cylinder.338",
			"primitives":[
				{
					"attributes":{
						"POSITION":18,
						"NORMAL":19,
						"TEXCOORD_0":20
					},
					"indices":21,
					"material":0
				}
			]
		}
	],
	"textures":[
		{
			"sampler":0,
			"source":0
		},
		{
			"sampler":0,
			"source":0
		},
		{
			"sampler":0,
			"source":0
		}
	],
	"images":[
		{
			"mimeType":"image/png",
			"name":"PiratesPack_TX",
			"uri":"tex/PiratesPack_TX.png"
		}
	],
	"accessors":[
		{
			"bufferView":0,
			"componentType":5126,
			"count":131,
			"max":[
				3.9999847412109375,
				4.000007629394531,
				10.649999618530273
			],
			"min":[
				-0.5000009536743164,
				-3.9999923706054688,
				5.649999141693115
			],
			"type":"VEC3"
		},
		{
			"bufferView":1,
			"componentType":5126,
			"count":131,
			"type":"VEC3"
		},
		{
			"bufferView":2,
			"componentType":5126,
			"count":131,
			"type":"VEC2"
		},
		{
			"bufferView":3,
			"componentType":5123,
			"count":273,
			"type":"SCALAR"
		},
		{
			"bufferView":4,
			"componentType":5126,
			"count":24,
			"max":[
				4,
				-10.65999984741211,
				4
			],
			"min":[
				-4,
				-10.899999618530273,
				-4
			],
			"type":"VEC3"
		},
		{
			"bufferView":5,
			"componentType":5126,
			"count":24,
			"type":"VEC3"
		},
		{
			"bufferView":6,
			"componentType":5126,
			"count":24,
			"type":"VEC2"
		},
		{
			"bufferView":7,
			"componentType":5126,
			"count":24,
			"type":"VEC4"
		},
		{
			"bufferView":8,
			"componentType":5123,
			"count":36,
			"type":"SCALAR"
		},
		{
			"bufferView":9,
			"componentType":5126,
			"count":4,
			"max":[
				1.5000076293945312,
				4.000064849853516,
				10.625
			],
			"min":[
				1,
				-3.9999351501464844,
				10.625
			],
			"type":"VEC3"
		},
		{
			"bufferView":10,
			"componentType":5126,
			"count":4,
			"type":"VEC3"
		},
		{
			"bufferView":11,
			"componentType":5126,
			"count":4,
			"type":"VEC2"
		},
		{
			"bufferView":12,
			"componentType":5126,
			"count":4,
			"type":"VEC4"
		},
		{
			"bufferView":13,
			"componentType":5123,
			"count":6,
			"type":"SCALAR"
		},
		{
			"bufferView":14,
			"componentType":5126,
			"count":97,
			"max":[
				2.0000009536743164,
				2.0000009536743164,
				7.499999046325684
			],
			"min":[
				-0.2500004768371582,
				-2,
				2.8249995708465576
			],
			"type":"VEC3"
		},
		{
			"bufferView":15,
			"componentType":5126,
			"count":97,
			"type":"VEC3"
		},
		{
			"bufferView":16,
			"componentType":5126,
			"count":97,
			"type":"VEC2"
		},
		{
			"bufferView":17,
			"componentType":5123,
			"count":222,
			"type":"SCALAR"
		},
		{
			"bufferView":18,
			"componentType":5126,
			"count":212,
			"max":[
				1.030289649963379,
				2.0000009536743164,
				3.852877140045166
			],
			"min":[
				0.9583845138549805,
				-2,
				2.7890639305114746
			],
			"type":"VEC3"
		},
		{
			"bufferView":19,
			"componentType":5126,
			"count":212,
			"type":"VEC3"
		},
		{
			"bufferView":20,
			"componentType":5126,
			"count":212,
			"type":"VEC2"
		},
		{
			"bufferView":21,
			"componentType":5123,
			"count":348,
			"type":"SCALAR"
		}
	],
	"bufferViews":[
		{
			"buffer":0,
			"byteLength":1572,
			"byteOffset":0,
			"target":34962
		},
		{
			"buffer":0,
			"byteLength":1572,
			"byteOffset":1572,
			"target":34962
		},
		{
			"buffer":0,
			"byteLength":1048,
			"byteOffset":3144,
			"target":34962
		},
		{
			"buffer":0,
			"byteLength":546,
			"byteOffset":4192,
			"target":34963
		},
		{
			"buffer":0,
			"byteLength":288,
			"byteOffset":4740,
			"target":34962
		},
		{
			"buffer":0,
			"byteLength":288,
			"byteOffset":5028,
			"target":34962
		},
		{
			"buffer":0,
			"byteLength":192,
			"byteOffset":5316,
			"target":34962
		},
		{
			"buffer":0,
			"byteLength":384,
			"byteOffset":5508,
			"target":34962
		},
		{
			"buffer":0,
			"byteLength":72,
			"byteOffset":5892,
			"target":34963
		},
		{
			"buffer":0,
			"byteLength":48,
			"byteOffset":5964,
			"target":34962
		},
		{
			"buffer":0,
			"byteLength":48,
			"byteOffset":6012,
			"target":34962
		},
		{
			"buffer":0,
			"byteLength":32,
			"byteOffset":6060,
			"target":34962
		},
		{
			"buffer":0,
			"byteLength":64,
			"byteOffset":6092,
			"target":34962
		},
		{
			"buffer":0,
			"byteLength":12,
			"byteOffset":6156,
			"target":34963
		},
		{
			"buffer":0,
			"byteLength":1164,
			"byteOffset":6168,
			"target":34962
		},
		{
			"buffer":0,
			"byteLength":1164,
			"byteOffset":7332,
			"target":34962
		},
		{
			"buffer":0,
			"byteLength":776,
			"byteOffset":8496,
			"target":34962
		},
		{
			"buffer":0,
			"byteLength":444,
			"byteOffset":9272,
			"target":34963
		},
		{
			"buffer":0,
			"byteLength":2544,
			"byteOffset":9716,
			"target":34962
		},
		{
			"buffer":0,
			"byteLength":2544,
			"byteOffset":12260,
			"target":34962
		},
		{
			"buffer":0,
			"byteLength":1696,
			"byteOffset":14804,
			"target":34962
		},
		{
			"buffer":0,
			"byteLength":696,
			"byteOffset":16500,
			"target":34963
		}
	],
	"samplers":[
		{
			"magFilter":9729,
			"minFilter":9987
		}
	],
	"buffers":[
		{
			"byteLength":17196,
			"uri":"tile_8_0_8.bin"
		}
	]
}
