{
	"asset":{
		"generator":"Khronos glTF Blender I/O v4.0.44",
		"version":"2.0"
	},
	"scene":0,
	"scenes":[
		{
			"name":"Scene",
			"nodes":[
				0,
				1,
				2,
				3,
				4
			]
		}
	],
	"nodes":[
		{
			"mesh":0,
			"name":"pipe.main_collider",
			"rotation":[
				0.7071068286895752,
				0,
				0,
				0.7071068286895752
			]
		},
		{
			"mesh":1,
			"name":"ground"
		},
		{
			"mesh":2,
			"name":"decal.main",
			"rotation":[
				0,
				-0.7071068286895752,
				0.7071068286895752,
				3.4560699191388267e-07
			]
		},
		{
			"mesh":3,
			"name":"pipe.main",
			"rotation":[
				0.7071068286895752,
				0,
				0,
				0.7071068286895752
			],
			"scale":[
				2,
				2,
				2
			]
		},
		{
			"mesh":4,
			"name":"pipe.main.rim",
			"rotation":[
				0.7071068286895752,
				0,
				0,
				0.7071068286895752
			],
			"scale":[
				2,
				2,
				2
			]
		}
	],
	"materials":[
		{
			"doubleSided":true,
			"name":"dcl.PiratesPack",
			"pbrMetallicRoughness":{
				"baseColorTexture":{
					"index":0
				},
				"metallicFactor":0
			}
		},
		{
			"doubleSided":true,
			"emissiveFactor":[
				1,
				1,
				1
			],
			"emissiveTexture":{
				"index":1
			},
			"name":"dcl.PiratesPack.emissive",
			"pbrMetallicRoughness":{
				"baseColorTexture":{
					"index":2
				},
				"metallicFactor":0
			}
		}
	],
	"meshes":[
		{
			"name":"Cylinder.331",
			"primitives":[
				{
					"attributes":{
						"POSITION":0,
						"NORMAL":1,
						"TEXCOORD_0":2
					},
					"indices":3
				}
			]
		},
		{
			"name":"Cube.341",
			"primitives":[
				{
					"attributes":{
						"POSITION":4,
						"NORMAL":5,
						"TEXCOORD_0":6,
						"TANGENT":7
					},
					"indices":8,
					"material":0
				}
			]
		},
		{
			"name":"Cylinder.332",
			"primitives":[
				{
					"attributes":{
						"POSITION":9,
						"NORMAL":10,
						"TEXCOORD_0":11,
						"TANGENT":12
					},
					"indices":13,
					"material":1
				}
			]
		},
		{
			"name":"Cylinder.333",
			"primitives":[
				{
					"attributes":{
						"POSITION":14,
						"NORMAL":15,
						"TEXCOORD_0":16
					},
					"indices":17,
					"material":0
				}
			]
		},
		{
			"name":"Cylinder.334",
			"primitives":[
				{
					"attributes":{
						"POSITION":18,
						"NORMAL":19,
						"TEXCOORD_0":20
					},
					"indices":21,
					"material":0
				}
			]
		}
	],
	"textures":[
		{
			"sampler":0,
			"source":0
		},
		{
			"sampler":0,
			"source":0
		},
		{
			"sampler":0,
			"source":0
		}
	],
	"images":[
		{
			"mimeType":"image/png",
			"name":"PiratesPack_TX",
			"uri":"tex/PiratesPack_TX.png"
		}
	],
	"accessors":[
		{
			"bufferView":0,
			"componentType":5126,
			"count":149,
			"max":[
				3.9999923706054688,
				3.005584716796875,
				10.649999618530273
			],
			"min":[
				-0.49999427795410156,
				-3.9999923706054688,
				7.649998664855957
			],
			"type":"VEC3"
		},
		{
			"bufferView":1,
			"componentType":5126,
			"count":149,
			"type":"VEC3"
		},
		{
			"bufferView":2,
			"componentType":5126,
			"count":149,
			"type":"VEC2"
		},
		{
			"bufferView":3,
			"componentType":5123,
			"count":237,
			"type":"SCALAR"
		},
		{
			"bufferView":4,
			"componentType":5126,
			"count":24,
			"max":[
				4,
				-10.65999984741211,
				4
			],
			"min":[
				-4,
				-10.899999618530273,
				-4
			],
			"type":"VEC3"
		},
		{
			"bufferView":5,
			"componentType":5126,
			"count":24,
			"type":"VEC3"
		},
		{
			"bufferView":6,
			"componentType":5126,
			"count":24,
			"type":"VEC2"
		},
		{
			"bufferView":7,
			"componentType":5126,
			"count":24,
			"type":"VEC4"
		},
		{
			"bufferView":8,
			"componentType":5123,
			"count":36,
			"type":"SCALAR"
		},
		{
			"bufferView":9,
			"componentType":5126,
			"count":6,
			"max":[
				1.5000076293945312,
				4.00006103515625,
				10.625
			],
			"min":[
				-0.47965240478515625,
				-3.99993896484375,
				10.625
			],
			"type":"VEC3"
		},
		{
			"bufferView":10,
			"componentType":5126,
			"count":6,
			"type":"VEC3"
		},
		{
			"bufferView":11,
			"componentType":5126,
			"count":6,
			"type":"VEC2"
		},
		{
			"bufferView":12,
			"componentType":5126,
			"count":6,
			"type":"VEC4"
		},
		{
			"bufferView":13,
			"componentType":5123,
			"count":12,
			"type":"SCALAR"
		},
		{
			"bufferView":14,
			"componentType":5126,
			"count":90,
			"max":[
				2.0000009536743164,
				1.5027923583984375,
				7.499999046325684
			],
			"min":[
				-0.24999713897705078,
				-2,
				3.8249826431274414
			],
			"type":"VEC3"
		},
		{
			"bufferView":15,
			"componentType":5126,
			"count":90,
			"type":"VEC3"
		},
		{
			"bufferView":16,
			"componentType":5126,
			"count":90,
			"type":"VEC2"
		},
		{
			"bufferView":17,
			"componentType":5123,
			"count":273,
			"type":"SCALAR"
		},
		{
			"bufferView":18,
			"componentType":5126,
			"count":126,
			"max":[
				1.999999761581421,
				0.2893028259277344,
				3.8615310192108154
			],
			"min":[
				0.9579706192016602,
				-2,
				3.6693127155303955
			],
			"type":"VEC3"
		},
		{
			"bufferView":19,
			"componentType":5126,
			"count":126,
			"type":"VEC3"
		},
		{
			"bufferView":20,
			"componentType":5126,
			"count":126,
			"type":"VEC2"
		},
		{
			"bufferView":21,
			"componentType":5123,
			"count":204,
			"type":"SCALAR"
		}
	],
	"bufferViews":[
		{
			"buffer":0,
			"byteLength":1788,
			"byteOffset":0,
			"target":34962
		},
		{
			"buffer":0,
			"byteLength":1788,
			"byteOffset":1788,
			"target":34962
		},
		{
			"buffer":0,
			"byteLength":1192,
			"byteOffset":3576,
			"target":34962
		},
		{
			"buffer":0,
			"byteLength":474,
			"byteOffset":4768,
			"target":34963
		},
		{
			"buffer":0,
			"byteLength":288,
			"byteOffset":5244,
			"target":34962
		},
		{
			"buffer":0,
			"byteLength":288,
			"byteOffset":5532,
			"target":34962
		},
		{
			"buffer":0,
			"byteLength":192,
			"byteOffset":5820,
			"target":34962
		},
		{
			"buffer":0,
			"byteLength":384,
			"byteOffset":6012,
			"target":34962
		},
		{
			"buffer":0,
			"byteLength":72,
			"byteOffset":6396,
			"target":34963
		},
		{
			"buffer":0,
			"byteLength":72,
			"byteOffset":6468,
			"target":34962
		},
		{
			"buffer":0,
			"byteLength":72,
			"byteOffset":6540,
			"target":34962
		},
		{
			"buffer":0,
			"byteLength":48,
			"byteOffset":6612,
			"target":34962
		},
		{
			"buffer":0,
			"byteLength":96,
			"byteOffset":6660,
			"target":34962
		},
		{
			"buffer":0,
			"byteLength":24,
			"byteOffset":6756,
			"target":34963
		},
		{
			"buffer":0,
			"byteLength":1080,
			"byteOffset":6780,
			"target":34962
		},
		{
			"buffer":0,
			"byteLength":1080,
			"byteOffset":7860,
			"target":34962
		},
		{
			"buffer":0,
			"byteLength":720,
			"byteOffset":8940,
			"target":34962
		},
		{
			"buffer":0,
			"byteLength":546,
			"byteOffset":9660,
			"target":34963
		},
		{
			"buffer":0,
			"byteLength":1512,
			"byteOffset":10208,
			"target":34962
		},
		{
			"buffer":0,
			"byteLength":1512,
			"byteOffset":11720,
			"target":34962
		},
		{
			"buffer":0,
			"byteLength":1008,
			"byteOffset":13232,
			"target":34962
		},
		{
			"buffer":0,
			"byteLength":408,
			"byteOffset":14240,
			"target":34963
		}
	],
	"samplers":[
		{
			"magFilter":9729,
			"minFilter":9987
		}
	],
	"buffers":[
		{
			"byteLength":14648,
			"uri":"tile_8_0_7.bin"
		}
	]
}
