{
	"asset":{
		"generator":"Khronos glTF Blender I/O v4.0.44",
		"version":"2.0"
	},
	"scene":0,
	"scenes":[
		{
			"name":"Scene",
			"nodes":[
				0,
				1,
				2,
				3,
				4,
				5,
				6,
				7,
				8
			]
		}
	],
	"nodes":[
		{
			"mesh":0,
			"name":"pipe.west_collider",
			"rotation":[
				0,
				-0.7071068286895752,
				0.7071068286895752,
				3.4560699191388267e-07
			]
		},
		{
			"mesh":1,
			"name":"ramp.rectangular.02_collider",
			"rotation":[
				0,
				-1,
				0,
				1.6292068494294654e-07
			]
		},
		{
			"name":"ramp.box.01_collider"
		},
		{
			"mesh":2,
			"name":"ground"
		},
		{
			"name":"decal.main",
			"rotation":[
				0,
				-0.7071068286895752,
				0.7071068286895752,
				3.4560699191388267e-07
			]
		},
		{
			"name":"decal.ramp.branches",
			"rotation":[
				0,
				-1,
				0,
				1.6292068494294654e-07
			],
			"scale":[
				1.5,
				1.5,
				1.5
			]
		},
		{
			"mesh":3,
			"name":"pipe.west.001",
			"rotation":[
				0,
				-0.7071068286895752,
				0.7071068286895752,
				3.4560699191388267e-07
			]
		},
		{
			"name":"ramp.box.01"
		},
		{
			"mesh":4,
			"name":"ramp.rectangular.02",
			"rotation":[
				0,
				-1,
				0,
				1.6292068494294654e-07
			]
		}
	],
	"materials":[
		{
			"doubleSided":true,
			"name":"dcl.PiratesPack",
			"pbrMetallicRoughness":{
				"baseColorTexture":{
					"index":0
				},
				"metallicFactor":0
			}
		},
		{
			"doubleSided":true,
			"emissiveFactor":[
				1,
				1,
				1
			],
			"emissiveTexture":{
				"index":1
			},
			"name":"dcl.PiratesPack.emissive",
			"pbrMetallicRoughness":{
				"baseColorTexture":{
					"index":2
				},
				"metallicFactor":0
			}
		}
	],
	"meshes":[
		{
			"name":"Cylinder.077",
			"primitives":[
				{
					"attributes":{
						"POSITION":0,
						"NORMAL":1,
						"TEXCOORD_0":2,
						"TANGENT":3
					},
					"indices":4
				}
			]
		},
		{
			"name":"Cube.067",
			"primitives":[
				{
					"attributes":{
						"POSITION":5,
						"NORMAL":6,
						"TEXCOORD_0":7,
						"TANGENT":8
					},
					"indices":9
				}
			]
		},
		{
			"name":"Cube.080",
			"primitives":[
				{
					"attributes":{
						"POSITION":10,
						"NORMAL":11,
						"TEXCOORD_0":12,
						"TANGENT":13
					},
					"indices":14,
					"material":0
				}
			]
		},
		{
			"name":"Cylinder.079",
			"primitives":[
				{
					"attributes":{
						"POSITION":15,
						"NORMAL":16,
						"TEXCOORD_0":17,
						"TANGENT":18
					},
					"indices":19,
					"material":0
				},
				{
					"attributes":{
						"POSITION":20,
						"NORMAL":21,
						"TEXCOORD_0":22,
						"TANGENT":23
					},
					"indices":24,
					"material":1
				}
			]
		},
		{
			"name":"Cube.084",
			"primitives":[
				{
					"attributes":{
						"POSITION":25,
						"NORMAL":26,
						"TEXCOORD_0":27,
						"TANGENT":28
					},
					"indices":29,
					"material":0
				}
			]
		}
	],
	"textures":[
		{
			"sampler":0,
			"source":0
		},
		{
			"sampler":0,
			"source":0
		},
		{
			"sampler":0,
			"source":0
		}
	],
	"images":[
		{
			"mimeType":"image/png",
			"name":"PiratesPack_TX",
			"uri":"tex/PiratesPack_TX.png"
		}
	],
	"accessors":[
		{
			"bufferView":0,
			"componentType":5126,
			"count":8,
			"max":[
				3.999964714050293,
				4.000007629394531,
				10.659995079040527
			],
			"min":[
				2.4999308586120605,
				-3.9999923706054688,
				10.350953102111816
			],
			"type":"VEC3"
		},
		{
			"bufferView":1,
			"componentType":5126,
			"count":8,
			"type":"VEC3"
		},
		{
			"bufferView":2,
			"componentType":5126,
			"count":8,
			"type":"VEC2"
		},
		{
			"bufferView":3,
			"componentType":5126,
			"count":8,
			"type":"VEC4"
		},
		{
			"bufferView":4,
			"componentType":5123,
			"count":18,
			"type":"SCALAR"
		},
		{
			"bufferView":5,
			"componentType":5126,
			"count":7,
			"max":[
				-1.4151058197021484,
				-10.415928840637207,
				3.999997138977051
			],
			"min":[
				-4.000003814697266,
				-10.670775413513184,
				3.1878018379211426
			],
			"type":"VEC3"
		},
		{
			"bufferView":6,
			"componentType":5126,
			"count":7,
			"type":"VEC3"
		},
		{
			"bufferView":7,
			"componentType":5126,
			"count":7,
			"type":"VEC2"
		},
		{
			"bufferView":8,
			"componentType":5126,
			"count":7,
			"type":"VEC4"
		},
		{
			"bufferView":9,
			"componentType":5123,
			"count":9,
			"type":"SCALAR"
		},
		{
			"bufferView":10,
			"componentType":5126,
			"count":24,
			"max":[
				4,
				-10.65999984741211,
				4
			],
			"min":[
				-4,
				-10.899999618530273,
				-4
			],
			"type":"VEC3"
		},
		{
			"bufferView":11,
			"componentType":5126,
			"count":24,
			"type":"VEC3"
		},
		{
			"bufferView":12,
			"componentType":5126,
			"count":24,
			"type":"VEC2"
		},
		{
			"bufferView":13,
			"componentType":5126,
			"count":24,
			"type":"VEC4"
		},
		{
			"bufferView":14,
			"componentType":5123,
			"count":36,
			"type":"SCALAR"
		},
		{
			"bufferView":15,
			"componentType":5126,
			"count":6,
			"max":[
				3.999964714050293,
				4.000007629394531,
				10.6305570602417
			],
			"min":[
				3.1326138973236084,
				-3.9999923706054688,
				10.350953102111816
			],
			"type":"VEC3"
		},
		{
			"bufferView":16,
			"componentType":5126,
			"count":6,
			"type":"VEC3"
		},
		{
			"bufferView":17,
			"componentType":5126,
			"count":6,
			"type":"VEC2"
		},
		{
			"bufferView":18,
			"componentType":5126,
			"count":6,
			"type":"VEC4"
		},
		{
			"bufferView":19,
			"componentType":5123,
			"count":12,
			"type":"SCALAR"
		},
		{
			"bufferView":20,
			"componentType":5126,
			"count":4,
			"max":[
				3.1326212882995605,
				4.000007629394531,
				10.659995079040527
			],
			"min":[
				2.4999308586120605,
				-3.9999923706054688,
				10.630556106567383
			],
			"type":"VEC3"
		},
		{
			"bufferView":21,
			"componentType":5126,
			"count":4,
			"type":"VEC3"
		},
		{
			"bufferView":22,
			"componentType":5126,
			"count":4,
			"type":"VEC2"
		},
		{
			"bufferView":23,
			"componentType":5126,
			"count":4,
			"type":"VEC4"
		},
		{
			"bufferView":24,
			"componentType":5123,
			"count":6,
			"type":"SCALAR"
		},
		{
			"bufferView":25,
			"componentType":5126,
			"count":7,
			"max":[
				-1.4485197067260742,
				-10.434831619262695,
				3.9999961853027344
			],
			"min":[
				-4.000003814697266,
				-10.649999618530273,
				3.215707302093506
			],
			"type":"VEC3"
		},
		{
			"bufferView":26,
			"componentType":5126,
			"count":7,
			"type":"VEC3"
		},
		{
			"bufferView":27,
			"componentType":5126,
			"count":7,
			"type":"VEC2"
		},
		{
			"bufferView":28,
			"componentType":5126,
			"count":7,
			"type":"VEC4"
		},
		{
			"bufferView":29,
			"componentType":5123,
			"count":9,
			"type":"SCALAR"
		}
	],
	"bufferViews":[
		{
			"buffer":0,
			"byteLength":96,
			"byteOffset":0,
			"target":34962
		},
		{
			"buffer":0,
			"byteLength":96,
			"byteOffset":96,
			"target":34962
		},
		{
			"buffer":0,
			"byteLength":64,
			"byteOffset":192,
			"target":34962
		},
		{
			"buffer":0,
			"byteLength":128,
			"byteOffset":256,
			"target":34962
		},
		{
			"buffer":0,
			"byteLength":36,
			"byteOffset":384,
			"target":34963
		},
		{
			"buffer":0,
			"byteLength":84,
			"byteOffset":420,
			"target":34962
		},
		{
			"buffer":0,
			"byteLength":84,
			"byteOffset":504,
			"target":34962
		},
		{
			"buffer":0,
			"byteLength":56,
			"byteOffset":588,
			"target":34962
		},
		{
			"buffer":0,
			"byteLength":112,
			"byteOffset":644,
			"target":34962
		},
		{
			"buffer":0,
			"byteLength":18,
			"byteOffset":756,
			"target":34963
		},
		{
			"buffer":0,
			"byteLength":288,
			"byteOffset":776,
			"target":34962
		},
		{
			"buffer":0,
			"byteLength":288,
			"byteOffset":1064,
			"target":34962
		},
		{
			"buffer":0,
			"byteLength":192,
			"byteOffset":1352,
			"target":34962
		},
		{
			"buffer":0,
			"byteLength":384,
			"byteOffset":1544,
			"target":34962
		},
		{
			"buffer":0,
			"byteLength":72,
			"byteOffset":1928,
			"target":34963
		},
		{
			"buffer":0,
			"byteLength":72,
			"byteOffset":2000,
			"target":34962
		},
		{
			"buffer":0,
			"byteLength":72,
			"byteOffset":2072,
			"target":34962
		},
		{
			"buffer":0,
			"byteLength":48,
			"byteOffset":2144,
			"target":34962
		},
		{
			"buffer":0,
			"byteLength":96,
			"byteOffset":2192,
			"target":34962
		},
		{
			"buffer":0,
			"byteLength":24,
			"byteOffset":2288,
			"target":34963
		},
		{
			"buffer":0,
			"byteLength":48,
			"byteOffset":2312,
			"target":34962
		},
		{
			"buffer":0,
			"byteLength":48,
			"byteOffset":2360,
			"target":34962
		},
		{
			"buffer":0,
			"byteLength":32,
			"byteOffset":2408,
			"target":34962
		},
		{
			"buffer":0,
			"byteLength":64,
			"byteOffset":2440,
			"target":34962
		},
		{
			"buffer":0,
			"byteLength":12,
			"byteOffset":2504,
			"target":34963
		},
		{
			"buffer":0,
			"byteLength":84,
			"byteOffset":2516,
			"target":34962
		},
		{
			"buffer":0,
			"byteLength":84,
			"byteOffset":2600,
			"target":34962
		},
		{
			"buffer":0,
			"byteLength":56,
			"byteOffset":2684,
			"target":34962
		},
		{
			"buffer":0,
			"byteLength":112,
			"byteOffset":2740,
			"target":34962
		},
		{
			"buffer":0,
			"byteLength":18,
			"byteOffset":2852,
			"target":34963
		}
	],
	"samplers":[
		{
			"magFilter":9729,
			"minFilter":9987
		}
	],
	"buffers":[
		{
			"byteLength":2872,
			"uri":"tile_1_0_1.bin"
		}
	]
}
