{
	"asset":{
		"generator":"Khronos glTF Blender I/O v4.0.44",
		"version":"2.0"
	},
	"scene":0,
	"scenes":[
		{
			"name":"Scene",
			"nodes":[
				0,
				1,
				2,
				3,
				4,
				5
			]
		}
	],
	"nodes":[
		{
			"mesh":0,
			"name":"pipe.main_collider",
			"rotation":[
				0.7071068286895752,
				0,
				0,
				0.7071068286895752
			]
		},
		{
			"mesh":1,
			"name":"wall.north.008"
		},
		{
			"mesh":2,
			"name":"ground"
		},
		{
			"mesh":3,
			"name":"neons.004",
			"rotation":[
				-0.5000002384185791,
				0.5000001788139343,
				-0.4999997615814209,
				0.4999998211860657
			],
			"scale":[
				0.19999998807907104,
				1,
				47.68861770629883
			]
		},
		{
			"mesh":4,
			"name":"pipe.main",
			"rotation":[
				0.7071068286895752,
				0,
				0,
				0.7071068286895752
			],
			"scale":[
				2,
				2,
				2
			]
		},
		{
			"mesh":5,
			"name":"pipe.main.rim",
			"rotation":[
				0.7071068286895752,
				0,
				0,
				0.7071068286895752
			],
			"scale":[
				2,
				2,
				2
			]
		}
	],
	"materials":[
		{
			"doubleSided":true,
			"name":"dcl.PiratesPack",
			"pbrMetallicRoughness":{
				"baseColorTexture":{
					"index":0
				},
				"metallicFactor":0
			}
		},
		{
			"doubleSided":true,
			"emissiveFactor":[
				1,
				1,
				1
			],
			"emissiveTexture":{
				"index":1
			},
			"name":"dcl.PiratesPack.emissive",
			"pbrMetallicRoughness":{
				"baseColorTexture":{
					"index":2
				},
				"metallicFactor":0
			}
		}
	],
	"meshes":[
		{
			"name":"Cylinder.347",
			"primitives":[
				{
					"attributes":{
						"POSITION":0,
						"NORMAL":1,
						"TEXCOORD_0":2
					},
					"indices":3
				}
			]
		},
		{
			"name":"Cylinder.348",
			"primitives":[
				{
					"attributes":{
						"POSITION":4,
						"NORMAL":5,
						"TEXCOORD_0":6,
						"TANGENT":7
					},
					"indices":8,
					"material":0
				}
			]
		},
		{
			"name":"Cube.345",
			"primitives":[
				{
					"attributes":{
						"POSITION":9,
						"NORMAL":10,
						"TEXCOORD_0":11
					},
					"indices":12,
					"material":0
				}
			]
		},
		{
			"name":"Plane.034",
			"primitives":[
				{
					"attributes":{
						"POSITION":13,
						"NORMAL":14,
						"TEXCOORD_0":15,
						"TANGENT":16
					},
					"indices":17,
					"material":1
				}
			]
		},
		{
			"name":"Cylinder.349",
			"primitives":[
				{
					"attributes":{
						"POSITION":18,
						"NORMAL":19,
						"TEXCOORD_0":20
					},
					"indices":21,
					"material":0
				}
			]
		},
		{
			"name":"Cylinder.350",
			"primitives":[
				{
					"attributes":{
						"POSITION":22,
						"NORMAL":23,
						"TEXCOORD_0":24
					},
					"indices":25,
					"material":0
				}
			]
		}
	],
	"textures":[
		{
			"sampler":0,
			"source":0
		},
		{
			"sampler":0,
			"source":0
		},
		{
			"sampler":0,
			"source":0
		}
	],
	"images":[
		{
			"mimeType":"image/png",
			"name":"PiratesPack_TX",
			"uri":"tex/PiratesPack_TX.png"
		}
	],
	"accessors":[
		{
			"bufferView":0,
			"componentType":5126,
			"count":68,
			"max":[
				3.999969482421875,
				4.000007629394531,
				14.999998092651367
			],
			"min":[
				-4.000030517578125,
				-3.0517578125e-05,
				7.650000095367432
			],
			"type":"VEC3"
		},
		{
			"bufferView":1,
			"componentType":5126,
			"count":68,
			"type":"VEC3"
		},
		{
			"bufferView":2,
			"componentType":5126,
			"count":68,
			"type":"VEC2"
		},
		{
			"bufferView":3,
			"componentType":5123,
			"count":129,
			"type":"SCALAR"
		},
		{
			"bufferView":4,
			"componentType":5126,
			"count":24,
			"max":[
				4,
				1.6000041961669922,
				-1.6868114471435547e-05
			],
			"min":[
				-4,
				-10.90000057220459,
				-1.0000133514404297
			],
			"type":"VEC3"
		},
		{
			"bufferView":5,
			"componentType":5126,
			"count":24,
			"type":"VEC3"
		},
		{
			"bufferView":6,
			"componentType":5126,
			"count":24,
			"type":"VEC2"
		},
		{
			"bufferView":7,
			"componentType":5126,
			"count":24,
			"type":"VEC4"
		},
		{
			"bufferView":8,
			"componentType":5123,
			"count":36,
			"type":"SCALAR"
		},
		{
			"bufferView":9,
			"componentType":5126,
			"count":36,
			"max":[
				4,
				-10.65999984741211,
				4
			],
			"min":[
				-4,
				-10.899999618530273,
				-0.9999885559082031
			],
			"type":"VEC3"
		},
		{
			"bufferView":10,
			"componentType":5126,
			"count":36,
			"type":"VEC3"
		},
		{
			"bufferView":11,
			"componentType":5126,
			"count":36,
			"type":"VEC2"
		},
		{
			"bufferView":12,
			"componentType":5123,
			"count":60,
			"type":"SCALAR"
		},
		{
			"bufferView":13,
			"componentType":5126,
			"count":8,
			"max":[
				13.374985694885254,
				-0.04995759576559067,
				0.08387747406959534
			],
			"min":[
				6.374985218048096,
				-0.04995942860841751,
				-0.08387747406959534
			],
			"type":"VEC3"
		},
		{
			"bufferView":14,
			"componentType":5126,
			"count":8,
			"type":"VEC3"
		},
		{
			"bufferView":15,
			"componentType":5126,
			"count":8,
			"type":"VEC2"
		},
		{
			"bufferView":16,
			"componentType":5126,
			"count":8,
			"type":"VEC4"
		},
		{
			"bufferView":17,
			"componentType":5123,
			"count":12,
			"type":"SCALAR"
		},
		{
			"bufferView":18,
			"componentType":5126,
			"count":64,
			"max":[
				2,
				2.000001907348633,
				7.499999046325684
			],
			"min":[
				-2.0000009536743164,
				-1.52587890625e-05,
				3.8249998092651367
			],
			"type":"VEC3"
		},
		{
			"bufferView":19,
			"componentType":5126,
			"count":64,
			"type":"VEC3"
		},
		{
			"bufferView":20,
			"componentType":5126,
			"count":64,
			"type":"VEC2"
		},
		{
			"bufferView":21,
			"componentType":5123,
			"count":132,
			"type":"SCALAR"
		},
		{
			"bufferView":22,
			"componentType":5126,
			"count":50,
			"max":[
				-0.9744906425476074,
				2,
				3.8693740367889404
			],
			"min":[
				-2.0000009536743164,
				1.5872364044189453,
				3.780625581741333
			],
			"type":"VEC3"
		},
		{
			"bufferView":23,
			"componentType":5126,
			"count":50,
			"type":"VEC3"
		},
		{
			"bufferView":24,
			"componentType":5126,
			"count":50,
			"type":"VEC2"
		},
		{
			"bufferView":25,
			"componentType":5123,
			"count":78,
			"type":"SCALAR"
		}
	],
	"bufferViews":[
		{
			"buffer":0,
			"byteLength":816,
			"byteOffset":0,
			"target":34962
		},
		{
			"buffer":0,
			"byteLength":816,
			"byteOffset":816,
			"target":34962
		},
		{
			"buffer":0,
			"byteLength":544,
			"byteOffset":1632,
			"target":34962
		},
		{
			"buffer":0,
			"byteLength":258,
			"byteOffset":2176,
			"target":34963
		},
		{
			"buffer":0,
			"byteLength":288,
			"byteOffset":2436,
			"target":34962
		},
		{
			"buffer":0,
			"byteLength":288,
			"byteOffset":2724,
			"target":34962
		},
		{
			"buffer":0,
			"byteLength":192,
			"byteOffset":3012,
			"target":34962
		},
		{
			"buffer":0,
			"byteLength":384,
			"byteOffset":3204,
			"target":34962
		},
		{
			"buffer":0,
			"byteLength":72,
			"byteOffset":3588,
			"target":34963
		},
		{
			"buffer":0,
			"byteLength":432,
			"byteOffset":3660,
			"target":34962
		},
		{
			"buffer":0,
			"byteLength":432,
			"byteOffset":4092,
			"target":34962
		},
		{
			"buffer":0,
			"byteLength":288,
			"byteOffset":4524,
			"target":34962
		},
		{
			"buffer":0,
			"byteLength":120,
			"byteOffset":4812,
			"target":34963
		},
		{
			"buffer":0,
			"byteLength":96,
			"byteOffset":4932,
			"target":34962
		},
		{
			"buffer":0,
			"byteLength":96,
			"byteOffset":5028,
			"target":34962
		},
		{
			"buffer":0,
			"byteLength":64,
			"byteOffset":5124,
			"target":34962
		},
		{
			"buffer":0,
			"byteLength":128,
			"byteOffset":5188,
			"target":34962
		},
		{
			"buffer":0,
			"byteLength":24,
			"byteOffset":5316,
			"target":34963
		},
		{
			"buffer":0,
			"byteLength":768,
			"byteOffset":5340,
			"target":34962
		},
		{
			"buffer":0,
			"byteLength":768,
			"byteOffset":6108,
			"target":34962
		},
		{
			"buffer":0,
			"byteLength":512,
			"byteOffset":6876,
			"target":34962
		},
		{
			"buffer":0,
			"byteLength":264,
			"byteOffset":7388,
			"target":34963
		},
		{
			"buffer":0,
			"byteLength":600,
			"byteOffset":7652,
			"target":34962
		},
		{
			"buffer":0,
			"byteLength":600,
			"byteOffset":8252,
			"target":34962
		},
		{
			"buffer":0,
			"byteLength":400,
			"byteOffset":8852,
			"target":34962
		},
		{
			"buffer":0,
			"byteLength":156,
			"byteOffset":9252,
			"target":34963
		}
	],
	"samplers":[
		{
			"magFilter":9729,
			"minFilter":9987
		}
	],
	"buffers":[
		{
			"byteLength":9408,
			"uri":"tile_8_0_11.bin"
		}
	]
}
