{
	"asset":{
		"generator":"Khronos glTF Blender I/O v4.0.44",
		"version":"2.0"
	},
	"scene":0,
	"scenes":[
		{
			"name":"Scene",
			"nodes":[
				0,
				1,
				2,
				3,
				4,
				5,
				6
			]
		}
	],
	"nodes":[
		{
			"mesh":0,
			"name":"ramp.horseshoe.006_collider",
			"rotation":[
				-0.22975344955921173,
				-0.9732488989830017,
				0,
				7.214931088128651e-07
			]
		},
		{
			"mesh":1,
			"name":"ramp.horseshoe.001_collider",
			"rotation":[
				0,
				-1,
				0,
				1.6292068494294654e-07
			]
		},
		{
			"mesh":2,
			"name":"ramp.horseshoe.003_collider",
			"rotation":[
				0,
				-1,
				0,
				1.6292068494294654e-07
			]
		},
		{
			"mesh":3,
			"name":"ramp.horseshoe.007_collider",
			"rotation":[
				0,
				0,
				0.22975344955921173,
				0.9732488989830017
			]
		},
		{
			"mesh":4,
			"name":"ground"
		},
		{
			"mesh":5,
			"name":"decal.main",
			"rotation":[
				0,
				-0.7071068286895752,
				0.7071068286895752,
				3.4560699191388267e-07
			]
		},
		{
			"mesh":6,
			"name":"ramp.horseshoe.01",
			"rotation":[
				0,
				-1,
				0,
				1.6292068494294654e-07
			]
		}
	],
	"materials":[
		{
			"doubleSided":true,
			"name":"dcl.PiratesPack",
			"pbrMetallicRoughness":{
				"baseColorTexture":{
					"index":0
				},
				"metallicFactor":0
			}
		},
		{
			"doubleSided":true,
			"emissiveFactor":[
				1,
				1,
				1
			],
			"emissiveTexture":{
				"index":1
			},
			"name":"dcl.PiratesPack.emissive",
			"pbrMetallicRoughness":{
				"baseColorTexture":{
					"index":2
				},
				"metallicFactor":0
			}
		}
	],
	"meshes":[
		{
			"name":"Cube.137",
			"primitives":[
				{
					"attributes":{
						"POSITION":0,
						"NORMAL":1,
						"TEXCOORD_0":2,
						"TANGENT":3
					},
					"indices":4
				}
			]
		},
		{
			"name":"Cube.138",
			"primitives":[
				{
					"attributes":{
						"POSITION":5,
						"NORMAL":6,
						"TEXCOORD_0":7,
						"TANGENT":8
					},
					"indices":9
				}
			]
		},
		{
			"name":"Cube.139",
			"primitives":[
				{
					"attributes":{
						"POSITION":10,
						"NORMAL":11,
						"TEXCOORD_0":12
					},
					"indices":13
				}
			]
		},
		{
			"name":"Cube.140",
			"primitives":[
				{
					"attributes":{
						"POSITION":14,
						"NORMAL":15,
						"TEXCOORD_0":16,
						"TANGENT":17
					},
					"indices":18
				}
			]
		},
		{
			"name":"Cube.141",
			"primitives":[
				{
					"attributes":{
						"POSITION":19,
						"NORMAL":20,
						"TEXCOORD_0":21,
						"TANGENT":22
					},
					"indices":23,
					"material":0
				}
			]
		},
		{
			"name":"Cylinder.117",
			"primitives":[
				{
					"attributes":{
						"POSITION":24,
						"NORMAL":25,
						"TEXCOORD_0":26
					},
					"indices":27,
					"material":1
				}
			]
		},
		{
			"name":"Cube.142",
			"primitives":[
				{
					"attributes":{
						"POSITION":28,
						"NORMAL":29,
						"TEXCOORD_0":30
					},
					"indices":31,
					"material":0
				}
			]
		}
	],
	"textures":[
		{
			"sampler":0,
			"source":0
		},
		{
			"sampler":0,
			"source":0
		},
		{
			"sampler":0,
			"source":0
		}
	],
	"images":[
		{
			"mimeType":"image/png",
			"name":"PiratesPack_TX",
			"uri":"tex/PiratesPack_TX.png"
		}
	],
	"accessors":[
		{
			"bufferView":0,
			"componentType":5126,
			"count":24,
			"max":[
				-7.375035285949707,
				-6.542494297027588,
				-3.8124685287475586
			],
			"min":[
				-8.493389129638672,
				-8.042494773864746,
				-4.000007629394531
			],
			"type":"VEC3"
		},
		{
			"bufferView":1,
			"componentType":5126,
			"count":24,
			"type":"VEC3"
		},
		{
			"bufferView":2,
			"componentType":5126,
			"count":24,
			"type":"VEC2"
		},
		{
			"bufferView":3,
			"componentType":5126,
			"count":24,
			"type":"VEC4"
		},
		{
			"bufferView":4,
			"componentType":5123,
			"count":36,
			"type":"SCALAR"
		},
		{
			"bufferView":5,
			"componentType":5126,
			"count":24,
			"max":[
				0.32948100566864014,
				-9.149999618530273,
				-3.8124606609344482
			],
			"min":[
				-3.6705188751220703,
				-10.649999618530273,
				-4
			],
			"type":"VEC3"
		},
		{
			"bufferView":6,
			"componentType":5126,
			"count":24,
			"type":"VEC3"
		},
		{
			"bufferView":7,
			"componentType":5126,
			"count":24,
			"type":"VEC2"
		},
		{
			"bufferView":8,
			"componentType":5126,
			"count":24,
			"type":"VEC4"
		},
		{
			"bufferView":9,
			"componentType":5123,
			"count":36,
			"type":"SCALAR"
		},
		{
			"bufferView":10,
			"componentType":5126,
			"count":17,
			"max":[
				3.530893325805664,
				-9.149999618530273,
				-0.6916143894195557
			],
			"min":[
				-3.999998092651367,
				-10.747476577758789,
				-3.8124618530273438
			],
			"type":"VEC3"
		},
		{
			"bufferView":11,
			"componentType":5126,
			"count":17,
			"type":"VEC3"
		},
		{
			"bufferView":12,
			"componentType":5126,
			"count":17,
			"type":"VEC2"
		},
		{
			"bufferView":13,
			"componentType":5123,
			"count":27,
			"type":"SCALAR"
		},
		{
			"bufferView":14,
			"componentType":5126,
			"count":24,
			"max":[
				-4.386714935302734,
				-8.03665542602539,
				3.999997615814209
			],
			"min":[
				-8.386730194091797,
				-9.53665542602539,
				3.8124570846557617
			],
			"type":"VEC3"
		},
		{
			"bufferView":15,
			"componentType":5126,
			"count":24,
			"type":"VEC3"
		},
		{
			"bufferView":16,
			"componentType":5126,
			"count":24,
			"type":"VEC2"
		},
		{
			"bufferView":17,
			"componentType":5126,
			"count":24,
			"type":"VEC4"
		},
		{
			"bufferView":18,
			"componentType":5123,
			"count":36,
			"type":"SCALAR"
		},
		{
			"bufferView":19,
			"componentType":5126,
			"count":24,
			"max":[
				4,
				-10.65999984741211,
				4
			],
			"min":[
				-4,
				-10.899999618530273,
				-4
			],
			"type":"VEC3"
		},
		{
			"bufferView":20,
			"componentType":5126,
			"count":24,
			"type":"VEC3"
		},
		{
			"bufferView":21,
			"componentType":5126,
			"count":24,
			"type":"VEC2"
		},
		{
			"bufferView":22,
			"componentType":5126,
			"count":24,
			"type":"VEC4"
		},
		{
			"bufferView":23,
			"componentType":5123,
			"count":36,
			"type":"SCALAR"
		},
		{
			"bufferView":24,
			"componentType":5126,
			"count":8,
			"max":[
				4.000003814697266,
				3.489055633544922,
				10.630559921264648
			],
			"min":[
				-3.9999961853027344,
				-1.649024486541748,
				10.630559921264648
			],
			"type":"VEC3"
		},
		{
			"bufferView":25,
			"componentType":5126,
			"count":8,
			"type":"VEC3"
		},
		{
			"bufferView":26,
			"componentType":5126,
			"count":8,
			"type":"VEC2"
		},
		{
			"bufferView":27,
			"componentType":5123,
			"count":18,
			"type":"SCALAR"
		},
		{
			"bufferView":28,
			"componentType":5126,
			"count":54,
			"max":[
				3.3294811248779297,
				-9.149999618530273,
				-0.8124618530273438
			],
			"min":[
				-3.999998092651367,
				-10.649999618530273,
				-4
			],
			"type":"VEC3"
		},
		{
			"bufferView":29,
			"componentType":5126,
			"count":54,
			"type":"VEC3"
		},
		{
			"bufferView":30,
			"componentType":5126,
			"count":54,
			"type":"VEC2"
		},
		{
			"bufferView":31,
			"componentType":5123,
			"count":105,
			"type":"SCALAR"
		}
	],
	"bufferViews":[
		{
			"buffer":0,
			"byteLength":288,
			"byteOffset":0,
			"target":34962
		},
		{
			"buffer":0,
			"byteLength":288,
			"byteOffset":288,
			"target":34962
		},
		{
			"buffer":0,
			"byteLength":192,
			"byteOffset":576,
			"target":34962
		},
		{
			"buffer":0,
			"byteLength":384,
			"byteOffset":768,
			"target":34962
		},
		{
			"buffer":0,
			"byteLength":72,
			"byteOffset":1152,
			"target":34963
		},
		{
			"buffer":0,
			"byteLength":288,
			"byteOffset":1224,
			"target":34962
		},
		{
			"buffer":0,
			"byteLength":288,
			"byteOffset":1512,
			"target":34962
		},
		{
			"buffer":0,
			"byteLength":192,
			"byteOffset":1800,
			"target":34962
		},
		{
			"buffer":0,
			"byteLength":384,
			"byteOffset":1992,
			"target":34962
		},
		{
			"buffer":0,
			"byteLength":72,
			"byteOffset":2376,
			"target":34963
		},
		{
			"buffer":0,
			"byteLength":204,
			"byteOffset":2448,
			"target":34962
		},
		{
			"buffer":0,
			"byteLength":204,
			"byteOffset":2652,
			"target":34962
		},
		{
			"buffer":0,
			"byteLength":136,
			"byteOffset":2856,
			"target":34962
		},
		{
			"buffer":0,
			"byteLength":54,
			"byteOffset":2992,
			"target":34963
		},
		{
			"buffer":0,
			"byteLength":288,
			"byteOffset":3048,
			"target":34962
		},
		{
			"buffer":0,
			"byteLength":288,
			"byteOffset":3336,
			"target":34962
		},
		{
			"buffer":0,
			"byteLength":192,
			"byteOffset":3624,
			"target":34962
		},
		{
			"buffer":0,
			"byteLength":384,
			"byteOffset":3816,
			"target":34962
		},
		{
			"buffer":0,
			"byteLength":72,
			"byteOffset":4200,
			"target":34963
		},
		{
			"buffer":0,
			"byteLength":288,
			"byteOffset":4272,
			"target":34962
		},
		{
			"buffer":0,
			"byteLength":288,
			"byteOffset":4560,
			"target":34962
		},
		{
			"buffer":0,
			"byteLength":192,
			"byteOffset":4848,
			"target":34962
		},
		{
			"buffer":0,
			"byteLength":384,
			"byteOffset":5040,
			"target":34962
		},
		{
			"buffer":0,
			"byteLength":72,
			"byteOffset":5424,
			"target":34963
		},
		{
			"buffer":0,
			"byteLength":96,
			"byteOffset":5496,
			"target":34962
		},
		{
			"buffer":0,
			"byteLength":96,
			"byteOffset":5592,
			"target":34962
		},
		{
			"buffer":0,
			"byteLength":64,
			"byteOffset":5688,
			"target":34962
		},
		{
			"buffer":0,
			"byteLength":36,
			"byteOffset":5752,
			"target":34963
		},
		{
			"buffer":0,
			"byteLength":648,
			"byteOffset":5788,
			"target":34962
		},
		{
			"buffer":0,
			"byteLength":648,
			"byteOffset":6436,
			"target":34962
		},
		{
			"buffer":0,
			"byteLength":432,
			"byteOffset":7084,
			"target":34962
		},
		{
			"buffer":0,
			"byteLength":210,
			"byteOffset":7516,
			"target":34963
		}
	],
	"samplers":[
		{
			"magFilter":9729,
			"minFilter":9987
		}
	],
	"buffers":[
		{
			"byteLength":7728,
			"uri":"tile_2_0_6.bin"
		}
	]
}
