{
	"asset":{
		"generator":"Khronos glTF Blender I/O v4.0.44",
		"version":"2.0"
	},
	"scene":0,
	"scenes":[
		{
			"name":"Scene",
			"nodes":[
				0,
				1,
				2,
				3
			]
		}
	],
	"nodes":[
		{
			"mesh":0,
			"name":"pipe.main_collider",
			"rotation":[
				0.7071068286895752,
				0,
				0,
				0.7071068286895752
			]
		},
		{
			"mesh":1,
			"name":"ground"
		},
		{
			"mesh":2,
			"name":"pipe.main",
			"rotation":[
				0.7071068286895752,
				0,
				0,
				0.7071068286895752
			],
			"scale":[
				2,
				2,
				2
			]
		},
		{
			"mesh":3,
			"name":"pipe.main.rim",
			"rotation":[
				0.7071068286895752,
				0,
				0,
				0.7071068286895752
			],
			"scale":[
				2,
				2,
				2
			]
		}
	],
	"materials":[
		{
			"doubleSided":true,
			"name":"dcl.PiratesPack",
			"pbrMetallicRoughness":{
				"baseColorTexture":{
					"index":0
				},
				"metallicFactor":0
			}
		}
	],
	"meshes":[
		{
			"name":"Cylinder.405",
			"primitives":[
				{
					"attributes":{
						"POSITION":0,
						"NORMAL":1,
						"TEXCOORD_0":2
					},
					"indices":3
				}
			]
		},
		{
			"name":"Cube.363",
			"primitives":[
				{
					"attributes":{
						"POSITION":4,
						"NORMAL":5,
						"TEXCOORD_0":6,
						"TANGENT":7
					},
					"indices":8,
					"material":0
				}
			]
		},
		{
			"name":"Cylinder.406",
			"primitives":[
				{
					"attributes":{
						"POSITION":9,
						"NORMAL":10,
						"TEXCOORD_0":11
					},
					"indices":12,
					"material":0
				}
			]
		},
		{
			"name":"Cylinder.407",
			"primitives":[
				{
					"attributes":{
						"POSITION":13,
						"NORMAL":14,
						"TEXCOORD_0":15
					},
					"indices":16,
					"material":0
				}
			]
		}
	],
	"textures":[
		{
			"sampler":0,
			"source":0
		}
	],
	"images":[
		{
			"mimeType":"image/png",
			"name":"PiratesPack_TX",
			"uri":"tex/PiratesPack_TX.png"
		}
	],
	"accessors":[
		{
			"bufferView":0,
			"componentType":5126,
			"count":255,
			"max":[
				4,
				3.9999961853027344,
				10.65000057220459
			],
			"min":[
				-4,
				-4.000003814697266,
				6.649999618530273
			],
			"type":"VEC3"
		},
		{
			"bufferView":1,
			"componentType":5126,
			"count":255,
			"type":"VEC3"
		},
		{
			"bufferView":2,
			"componentType":5126,
			"count":255,
			"type":"VEC2"
		},
		{
			"bufferView":3,
			"componentType":5123,
			"count":369,
			"type":"SCALAR"
		},
		{
			"bufferView":4,
			"componentType":5126,
			"count":24,
			"max":[
				4,
				-10.65999984741211,
				4
			],
			"min":[
				-4,
				-10.899999618530273,
				-4
			],
			"type":"VEC3"
		},
		{
			"bufferView":5,
			"componentType":5126,
			"count":24,
			"type":"VEC3"
		},
		{
			"bufferView":6,
			"componentType":5126,
			"count":24,
			"type":"VEC2"
		},
		{
			"bufferView":7,
			"componentType":5126,
			"count":24,
			"type":"VEC4"
		},
		{
			"bufferView":8,
			"componentType":5123,
			"count":36,
			"type":"SCALAR"
		},
		{
			"bufferView":9,
			"componentType":5126,
			"count":157,
			"max":[
				2.0000011920928955,
				1.9999983310699463,
				7.5
			],
			"min":[
				-2.0000011920928955,
				-2.0000030994415283,
				3.3249998092651367
			],
			"type":"VEC3"
		},
		{
			"bufferView":10,
			"componentType":5126,
			"count":157,
			"type":"VEC3"
		},
		{
			"bufferView":11,
			"componentType":5126,
			"count":157,
			"type":"VEC2"
		},
		{
			"bufferView":12,
			"componentType":5123,
			"count":483,
			"type":"SCALAR"
		},
		{
			"bufferView":13,
			"componentType":5126,
			"count":84,
			"max":[
				-0.7218395471572876,
				1.9999995231628418,
				3.3532843589782715
			],
			"min":[
				-2,
				0.22119832038879395,
				3.296715259552002
			],
			"type":"VEC3"
		},
		{
			"bufferView":14,
			"componentType":5126,
			"count":84,
			"type":"VEC3"
		},
		{
			"bufferView":15,
			"componentType":5126,
			"count":84,
			"type":"VEC2"
		},
		{
			"bufferView":16,
			"componentType":5123,
			"count":156,
			"type":"SCALAR"
		}
	],
	"bufferViews":[
		{
			"buffer":0,
			"byteLength":3060,
			"byteOffset":0,
			"target":34962
		},
		{
			"buffer":0,
			"byteLength":3060,
			"byteOffset":3060,
			"target":34962
		},
		{
			"buffer":0,
			"byteLength":2040,
			"byteOffset":6120,
			"target":34962
		},
		{
			"buffer":0,
			"byteLength":738,
			"byteOffset":8160,
			"target":34963
		},
		{
			"buffer":0,
			"byteLength":288,
			"byteOffset":8900,
			"target":34962
		},
		{
			"buffer":0,
			"byteLength":288,
			"byteOffset":9188,
			"target":34962
		},
		{
			"buffer":0,
			"byteLength":192,
			"byteOffset":9476,
			"target":34962
		},
		{
			"buffer":0,
			"byteLength":384,
			"byteOffset":9668,
			"target":34962
		},
		{
			"buffer":0,
			"byteLength":72,
			"byteOffset":10052,
			"target":34963
		},
		{
			"buffer":0,
			"byteLength":1884,
			"byteOffset":10124,
			"target":34962
		},
		{
			"buffer":0,
			"byteLength":1884,
			"byteOffset":12008,
			"target":34962
		},
		{
			"buffer":0,
			"byteLength":1256,
			"byteOffset":13892,
			"target":34962
		},
		{
			"buffer":0,
			"byteLength":966,
			"byteOffset":15148,
			"target":34963
		},
		{
			"buffer":0,
			"byteLength":1008,
			"byteOffset":16116,
			"target":34962
		},
		{
			"buffer":0,
			"byteLength":1008,
			"byteOffset":17124,
			"target":34962
		},
		{
			"buffer":0,
			"byteLength":672,
			"byteOffset":18132,
			"target":34962
		},
		{
			"buffer":0,
			"byteLength":312,
			"byteOffset":18804,
			"target":34963
		}
	],
	"samplers":[
		{
			"magFilter":9729,
			"minFilter":9987
		}
	],
	"buffers":[
		{
			"byteLength":19116,
			"uri":"tile_10_0_5.bin"
		}
	]
}
