{
	"asset":{
		"generator":"Khronos glTF Blender I/O v4.0.44",
		"version":"2.0"
	},
	"scene":0,
	"scenes":[
		{
			"name":"Scene",
			"nodes":[
				0,
				1,
				2,
				3
			]
		}
	],
	"nodes":[
		{
			"mesh":0,
			"name":"pipe.main_collider",
			"rotation":[
				0.7071068286895752,
				0,
				0,
				0.7071068286895752
			]
		},
		{
			"mesh":1,
			"name":"ground"
		},
		{
			"mesh":2,
			"name":"pipe.main",
			"rotation":[
				0.7071068286895752,
				0,
				0,
				0.7071068286895752
			],
			"scale":[
				2,
				2,
				2
			]
		},
		{
			"mesh":3,
			"name":"pipe.main.rim",
			"rotation":[
				0.7071068286895752,
				0,
				0,
				0.7071068286895752
			],
			"scale":[
				2,
				2,
				2
			]
		}
	],
	"materials":[
		{
			"doubleSided":true,
			"name":"dcl.PiratesPack",
			"pbrMetallicRoughness":{
				"baseColorTexture":{
					"index":0
				},
				"metallicFactor":0
			}
		}
	],
	"meshes":[
		{
			"name":"Cylinder.402",
			"primitives":[
				{
					"attributes":{
						"POSITION":0,
						"NORMAL":1,
						"TEXCOORD_0":2
					},
					"indices":3
				}
			]
		},
		{
			"name":"Cube.362",
			"primitives":[
				{
					"attributes":{
						"POSITION":4,
						"NORMAL":5,
						"TEXCOORD_0":6,
						"TANGENT":7
					},
					"indices":8,
					"material":0
				}
			]
		},
		{
			"name":"Cylinder.403",
			"primitives":[
				{
					"attributes":{
						"POSITION":9,
						"NORMAL":10,
						"TEXCOORD_0":11
					},
					"indices":12,
					"material":0
				}
			]
		},
		{
			"name":"Cylinder.404",
			"primitives":[
				{
					"attributes":{
						"POSITION":13,
						"NORMAL":14,
						"TEXCOORD_0":15
					},
					"indices":16,
					"material":0
				}
			]
		}
	],
	"textures":[
		{
			"sampler":0,
			"source":0
		}
	],
	"images":[
		{
			"mimeType":"image/png",
			"name":"PiratesPack_TX",
			"uri":"tex/PiratesPack_TX.png"
		}
	],
	"accessors":[
		{
			"bufferView":0,
			"componentType":5126,
			"count":231,
			"max":[
				4.000007629394531,
				4,
				10.65000057220459
			],
			"min":[
				-3.9999923706054688,
				-4,
				6.649999618530273
			],
			"type":"VEC3"
		},
		{
			"bufferView":1,
			"componentType":5126,
			"count":231,
			"type":"VEC3"
		},
		{
			"bufferView":2,
			"componentType":5126,
			"count":231,
			"type":"VEC2"
		},
		{
			"bufferView":3,
			"componentType":5123,
			"count":363,
			"type":"SCALAR"
		},
		{
			"bufferView":4,
			"componentType":5126,
			"count":24,
			"max":[
				4,
				-10.65999984741211,
				4
			],
			"min":[
				-4,
				-10.899999618530273,
				-4
			],
			"type":"VEC3"
		},
		{
			"bufferView":5,
			"componentType":5126,
			"count":24,
			"type":"VEC3"
		},
		{
			"bufferView":6,
			"componentType":5126,
			"count":24,
			"type":"VEC2"
		},
		{
			"bufferView":7,
			"componentType":5126,
			"count":24,
			"type":"VEC4"
		},
		{
			"bufferView":8,
			"componentType":5123,
			"count":36,
			"type":"SCALAR"
		},
		{
			"bufferView":9,
			"componentType":5126,
			"count":134,
			"max":[
				1.9999992847442627,
				2.0000009536743164,
				7.5
			],
			"min":[
				-2.0000011920928955,
				-2.0000011920928955,
				3.3249998092651367
			],
			"type":"VEC3"
		},
		{
			"bufferView":10,
			"componentType":5126,
			"count":134,
			"type":"VEC3"
		},
		{
			"bufferView":11,
			"componentType":5126,
			"count":134,
			"type":"VEC2"
		},
		{
			"bufferView":12,
			"componentType":5123,
			"count":450,
			"type":"SCALAR"
		},
		{
			"bufferView":13,
			"componentType":5126,
			"count":188,
			"max":[
				-0.7217724323272705,
				1.278285026550293,
				3.3532848358154297
			],
			"min":[
				-1.9999990463256836,
				-2.000000476837158,
				3.296715497970581
			],
			"type":"VEC3"
		},
		{
			"bufferView":14,
			"componentType":5126,
			"count":188,
			"type":"VEC3"
		},
		{
			"bufferView":15,
			"componentType":5126,
			"count":188,
			"type":"VEC2"
		},
		{
			"bufferView":16,
			"componentType":5123,
			"count":372,
			"type":"SCALAR"
		}
	],
	"bufferViews":[
		{
			"buffer":0,
			"byteLength":2772,
			"byteOffset":0,
			"target":34962
		},
		{
			"buffer":0,
			"byteLength":2772,
			"byteOffset":2772,
			"target":34962
		},
		{
			"buffer":0,
			"byteLength":1848,
			"byteOffset":5544,
			"target":34962
		},
		{
			"buffer":0,
			"byteLength":726,
			"byteOffset":7392,
			"target":34963
		},
		{
			"buffer":0,
			"byteLength":288,
			"byteOffset":8120,
			"target":34962
		},
		{
			"buffer":0,
			"byteLength":288,
			"byteOffset":8408,
			"target":34962
		},
		{
			"buffer":0,
			"byteLength":192,
			"byteOffset":8696,
			"target":34962
		},
		{
			"buffer":0,
			"byteLength":384,
			"byteOffset":8888,
			"target":34962
		},
		{
			"buffer":0,
			"byteLength":72,
			"byteOffset":9272,
			"target":34963
		},
		{
			"buffer":0,
			"byteLength":1608,
			"byteOffset":9344,
			"target":34962
		},
		{
			"buffer":0,
			"byteLength":1608,
			"byteOffset":10952,
			"target":34962
		},
		{
			"buffer":0,
			"byteLength":1072,
			"byteOffset":12560,
			"target":34962
		},
		{
			"buffer":0,
			"byteLength":900,
			"byteOffset":13632,
			"target":34963
		},
		{
			"buffer":0,
			"byteLength":2256,
			"byteOffset":14532,
			"target":34962
		},
		{
			"buffer":0,
			"byteLength":2256,
			"byteOffset":16788,
			"target":34962
		},
		{
			"buffer":0,
			"byteLength":1504,
			"byteOffset":19044,
			"target":34962
		},
		{
			"buffer":0,
			"byteLength":744,
			"byteOffset":20548,
			"target":34963
		}
	],
	"samplers":[
		{
			"magFilter":9729,
			"minFilter":9987
		}
	],
	"buffers":[
		{
			"byteLength":21292,
			"uri":"tile_10_0_4.bin"
		}
	]
}
