{
	"asset":{
		"generator":"Khronos glTF Blender I/O v4.0.44",
		"version":"2.0"
	},
	"scene":0,
	"scenes":[
		{
			"name":"Scene",
			"nodes":[
				0,
				1,
				2,
				3,
				4,
				5,
				6
			]
		}
	],
	"nodes":[
		{
			"mesh":0,
			"name":"pipe.main_collider",
			"rotation":[
				0.7071068286895752,
				0,
				0,
				0.7071068286895752
			]
		},
		{
			"mesh":1,
			"name":"bigSign.board",
			"rotation":[
				0,
				-0.7071067094802856,
				0,
				0.7071068286895752
			],
			"scale":[
				0.6813910007476807,
				0.6813910007476807,
				0.6813910007476807
			]
		},
		{
			"mesh":2,
			"name":"ground"
		},
		{
			"mesh":3,
			"name":"wall.east.008"
		},
		{
			"mesh":4,
			"name":"neons.001",
			"rotation":[
				0,
				0,
				-0.7071068286895752,
				0.7071068286895752
			],
			"scale":[
				0.19999998807907104,
				1,
				44.15021896362305
			]
		},
		{
			"mesh":5,
			"name":"pipe.main",
			"rotation":[
				0.7071068286895752,
				0,
				0,
				0.7071068286895752
			],
			"scale":[
				2,
				2,
				2
			]
		},
		{
			"mesh":6,
			"name":"pipe.main.rim",
			"rotation":[
				0.7071068286895752,
				0,
				0,
				0.7071068286895752
			],
			"scale":[
				2,
				2,
				2
			]
		}
	],
	"materials":[
		{
			"doubleSided":true,
			"name":"dcl.PiratesPack",
			"pbrMetallicRoughness":{
				"baseColorTexture":{
					"index":0
				},
				"metallicFactor":0
			}
		},
		{
			"doubleSided":true,
			"emissiveFactor":[
				1,
				1,
				1
			],
			"emissiveTexture":{
				"index":1
			},
			"name":"dcl.PiratesPack.emissive",
			"pbrMetallicRoughness":{
				"baseColorTexture":{
					"index":2
				},
				"metallicFactor":0
			}
		}
	],
	"meshes":[
		{
			"name":"Cylinder.472",
			"primitives":[
				{
					"attributes":{
						"POSITION":0,
						"NORMAL":1,
						"TEXCOORD_0":2
					},
					"indices":3
				}
			]
		},
		{
			"name":"Cube.394",
			"primitives":[
				{
					"attributes":{
						"POSITION":4,
						"NORMAL":5,
						"TEXCOORD_0":6
					},
					"indices":7,
					"material":0
				}
			]
		},
		{
			"name":"Cube.395",
			"primitives":[
				{
					"attributes":{
						"POSITION":8,
						"NORMAL":9,
						"TEXCOORD_0":10
					},
					"indices":11,
					"material":0
				}
			]
		},
		{
			"name":"Cylinder.473",
			"primitives":[
				{
					"attributes":{
						"POSITION":12,
						"NORMAL":13,
						"TEXCOORD_0":14,
						"TANGENT":15
					},
					"indices":16,
					"material":0
				}
			]
		},
		{
			"name":"Plane.048",
			"primitives":[
				{
					"attributes":{
						"POSITION":17,
						"NORMAL":18,
						"TEXCOORD_0":19,
						"TANGENT":20
					},
					"indices":21,
					"material":1
				}
			]
		},
		{
			"name":"Cylinder.474",
			"primitives":[
				{
					"attributes":{
						"POSITION":22,
						"NORMAL":23,
						"TEXCOORD_0":24
					},
					"indices":25,
					"material":0
				}
			]
		},
		{
			"name":"Cylinder.475",
			"primitives":[
				{
					"attributes":{
						"POSITION":26,
						"NORMAL":27,
						"TEXCOORD_0":28
					},
					"indices":29,
					"material":0
				}
			]
		}
	],
	"textures":[
		{
			"sampler":0,
			"source":0
		},
		{
			"sampler":0,
			"source":0
		},
		{
			"sampler":0,
			"source":0
		}
	],
	"images":[
		{
			"mimeType":"image/png",
			"name":"PiratesPack_TX",
			"uri":"tex/PiratesPack_TX.png"
		}
	],
	"accessors":[
		{
			"bufferView":0,
			"componentType":5126,
			"count":301,
			"max":[
				3.9999847412109375,
				3.9999923706054688,
				10.649999618530273
			],
			"min":[
				-4.0000152587890625,
				-4.000007629394531,
				7.649998664855957
			],
			"type":"VEC3"
		},
		{
			"bufferView":1,
			"componentType":5126,
			"count":301,
			"type":"VEC3"
		},
		{
			"bufferView":2,
			"componentType":5126,
			"count":301,
			"type":"VEC2"
		},
		{
			"bufferView":3,
			"componentType":5123,
			"count":393,
			"type":"SCALAR"
		},
		{
			"bufferView":4,
			"componentType":5126,
			"count":42,
			"max":[
				5.870336532592773,
				19.120229721069336,
				5.480057716369629
			],
			"min":[
				3.843578338623047,
				5.894323348999023,
				2.7089595794677734
			],
			"type":"VEC3"
		},
		{
			"bufferView":5,
			"componentType":5126,
			"count":42,
			"type":"VEC3"
		},
		{
			"bufferView":6,
			"componentType":5126,
			"count":42,
			"type":"VEC2"
		},
		{
			"bufferView":7,
			"componentType":5123,
			"count":108,
			"type":"SCALAR"
		},
		{
			"bufferView":8,
			"componentType":5126,
			"count":36,
			"max":[
				3.4499664306640625,
				-10.65999984741211,
				4
			],
			"min":[
				-4,
				-10.899999618530273,
				-4
			],
			"type":"VEC3"
		},
		{
			"bufferView":9,
			"componentType":5126,
			"count":36,
			"type":"VEC3"
		},
		{
			"bufferView":10,
			"componentType":5126,
			"count":36,
			"type":"VEC2"
		},
		{
			"bufferView":11,
			"componentType":5123,
			"count":60,
			"type":"SCALAR"
		},
		{
			"bufferView":12,
			"componentType":5126,
			"count":24,
			"max":[
				3.466620445251465,
				7.9000091552734375,
				4
			],
			"min":[
				2.9999115467071533,
				-10.850001335144043,
				-4
			],
			"type":"VEC3"
		},
		{
			"bufferView":13,
			"componentType":5126,
			"count":24,
			"type":"VEC3"
		},
		{
			"bufferView":14,
			"componentType":5126,
			"count":24,
			"type":"VEC2"
		},
		{
			"bufferView":15,
			"componentType":5126,
			"count":24,
			"type":"VEC4"
		},
		{
			"bufferView":16,
			"componentType":5123,
			"count":36,
			"type":"SCALAR"
		},
		{
			"bufferView":17,
			"componentType":5126,
			"count":8,
			"max":[
				13.374977111816406,
				2.8999557495117188,
				0.09059977531433105
			],
			"min":[
				6.374977111816406,
				2.8999557495117188,
				-0.09059977531433105
			],
			"type":"VEC3"
		},
		{
			"bufferView":18,
			"componentType":5126,
			"count":8,
			"type":"VEC3"
		},
		{
			"bufferView":19,
			"componentType":5126,
			"count":8,
			"type":"VEC2"
		},
		{
			"bufferView":20,
			"componentType":5126,
			"count":8,
			"type":"VEC4"
		},
		{
			"bufferView":21,
			"componentType":5123,
			"count":12,
			"type":"SCALAR"
		},
		{
			"bufferView":22,
			"componentType":5126,
			"count":267,
			"max":[
				1.9999985694885254,
				2.0000009536743164,
				7.499999046325684
			],
			"min":[
				-2.0000011920928955,
				-2.0000009536743164,
				3.8249993324279785
			],
			"type":"VEC3"
		},
		{
			"bufferView":23,
			"componentType":5126,
			"count":267,
			"type":"VEC3"
		},
		{
			"bufferView":24,
			"componentType":5126,
			"count":267,
			"type":"VEC2"
		},
		{
			"bufferView":25,
			"componentType":5123,
			"count":786,
			"type":"SCALAR"
		},
		{
			"bufferView":26,
			"componentType":5126,
			"count":294,
			"max":[
				-0.7162880897521973,
				2,
				3.858785390853882
			],
			"min":[
				-1.6498169898986816,
				-2,
				3.7912142276763916
			],
			"type":"VEC3"
		},
		{
			"bufferView":27,
			"componentType":5126,
			"count":294,
			"type":"VEC3"
		},
		{
			"bufferView":28,
			"componentType":5126,
			"count":294,
			"type":"VEC2"
		},
		{
			"bufferView":29,
			"componentType":5123,
			"count":444,
			"type":"SCALAR"
		}
	],
	"bufferViews":[
		{
			"buffer":0,
			"byteLength":3612,
			"byteOffset":0,
			"target":34962
		},
		{
			"buffer":0,
			"byteLength":3612,
			"byteOffset":3612,
			"target":34962
		},
		{
			"buffer":0,
			"byteLength":2408,
			"byteOffset":7224,
			"target":34962
		},
		{
			"buffer":0,
			"byteLength":786,
			"byteOffset":9632,
			"target":34963
		},
		{
			"buffer":0,
			"byteLength":504,
			"byteOffset":10420,
			"target":34962
		},
		{
			"buffer":0,
			"byteLength":504,
			"byteOffset":10924,
			"target":34962
		},
		{
			"buffer":0,
			"byteLength":336,
			"byteOffset":11428,
			"target":34962
		},
		{
			"buffer":0,
			"byteLength":216,
			"byteOffset":11764,
			"target":34963
		},
		{
			"buffer":0,
			"byteLength":432,
			"byteOffset":11980,
			"target":34962
		},
		{
			"buffer":0,
			"byteLength":432,
			"byteOffset":12412,
			"target":34962
		},
		{
			"buffer":0,
			"byteLength":288,
			"byteOffset":12844,
			"target":34962
		},
		{
			"buffer":0,
			"byteLength":120,
			"byteOffset":13132,
			"target":34963
		},
		{
			"buffer":0,
			"byteLength":288,
			"byteOffset":13252,
			"target":34962
		},
		{
			"buffer":0,
			"byteLength":288,
			"byteOffset":13540,
			"target":34962
		},
		{
			"buffer":0,
			"byteLength":192,
			"byteOffset":13828,
			"target":34962
		},
		{
			"buffer":0,
			"byteLength":384,
			"byteOffset":14020,
			"target":34962
		},
		{
			"buffer":0,
			"byteLength":72,
			"byteOffset":14404,
			"target":34963
		},
		{
			"buffer":0,
			"byteLength":96,
			"byteOffset":14476,
			"target":34962
		},
		{
			"buffer":0,
			"byteLength":96,
			"byteOffset":14572,
			"target":34962
		},
		{
			"buffer":0,
			"byteLength":64,
			"byteOffset":14668,
			"target":34962
		},
		{
			"buffer":0,
			"byteLength":128,
			"byteOffset":14732,
			"target":34962
		},
		{
			"buffer":0,
			"byteLength":24,
			"byteOffset":14860,
			"target":34963
		},
		{
			"buffer":0,
			"byteLength":3204,
			"byteOffset":14884,
			"target":34962
		},
		{
			"buffer":0,
			"byteLength":3204,
			"byteOffset":18088,
			"target":34962
		},
		{
			"buffer":0,
			"byteLength":2136,
			"byteOffset":21292,
			"target":34962
		},
		{
			"buffer":0,
			"byteLength":1572,
			"byteOffset":23428,
			"target":34963
		},
		{
			"buffer":0,
			"byteLength":3528,
			"byteOffset":25000,
			"target":34962
		},
		{
			"buffer":0,
			"byteLength":3528,
			"byteOffset":28528,
			"target":34962
		},
		{
			"buffer":0,
			"byteLength":2352,
			"byteOffset":32056,
			"target":34962
		},
		{
			"buffer":0,
			"byteLength":888,
			"byteOffset":34408,
			"target":34963
		}
	],
	"samplers":[
		{
			"magFilter":9729,
			"minFilter":9987
		}
	],
	"buffers":[
		{
			"byteLength":35296,
			"uri":"tile_11_0_8.bin"
		}
	]
}
