{
	"asset":{
		"generator":"Khronos glTF Blender I/O v4.0.44",
		"version":"2.0"
	},
	"scene":0,
	"scenes":[
		{
			"name":"Scene",
			"nodes":[
				0,
				1,
				2,
				3,
				4
			]
		}
	],
	"nodes":[
		{
			"mesh":0,
			"name":"pipe.main_collider",
			"rotation":[
				0.7071068286895752,
				0,
				0,
				0.7071068286895752
			]
		},
		{
			"mesh":1,
			"name":"ground"
		},
		{
			"mesh":2,
			"name":"decal.main",
			"rotation":[
				0,
				-0.7071068286895752,
				0.7071068286895752,
				3.4560699191388267e-07
			]
		},
		{
			"mesh":3,
			"name":"pipe.main",
			"rotation":[
				0.7071068286895752,
				0,
				0,
				0.7071068286895752
			],
			"scale":[
				2,
				2,
				2
			]
		},
		{
			"mesh":4,
			"name":"pipe.main.rim",
			"rotation":[
				0.7071068286895752,
				0,
				0,
				0.7071068286895752
			],
			"scale":[
				2,
				2,
				2
			]
		}
	],
	"materials":[
		{
			"doubleSided":true,
			"name":"dcl.PiratesPack",
			"pbrMetallicRoughness":{
				"baseColorTexture":{
					"index":0
				},
				"metallicFactor":0
			}
		},
		{
			"doubleSided":true,
			"emissiveFactor":[
				1,
				1,
				1
			],
			"emissiveTexture":{
				"index":1
			},
			"name":"dcl.PiratesPack.emissive",
			"pbrMetallicRoughness":{
				"baseColorTexture":{
					"index":2
				},
				"metallicFactor":0
			}
		}
	],
	"meshes":[
		{
			"name":"Cylinder.343",
			"primitives":[
				{
					"attributes":{
						"POSITION":0,
						"NORMAL":1,
						"TEXCOORD_0":2
					},
					"indices":3
				}
			]
		},
		{
			"name":"Cube.344",
			"primitives":[
				{
					"attributes":{
						"POSITION":4,
						"NORMAL":5,
						"TEXCOORD_0":6
					},
					"indices":7,
					"material":0
				}
			]
		},
		{
			"name":"Cylinder.344",
			"primitives":[
				{
					"attributes":{
						"POSITION":8,
						"NORMAL":9,
						"TEXCOORD_0":10,
						"TANGENT":11
					},
					"indices":12,
					"material":1
				}
			]
		},
		{
			"name":"Cylinder.345",
			"primitives":[
				{
					"attributes":{
						"POSITION":13,
						"NORMAL":14,
						"TEXCOORD_0":15
					},
					"indices":16,
					"material":0
				}
			]
		},
		{
			"name":"Cylinder.346",
			"primitives":[
				{
					"attributes":{
						"POSITION":17,
						"NORMAL":18,
						"TEXCOORD_0":19
					},
					"indices":20,
					"material":0
				}
			]
		}
	],
	"textures":[
		{
			"sampler":0,
			"source":0
		},
		{
			"sampler":0,
			"source":0
		},
		{
			"sampler":0,
			"source":0
		}
	],
	"images":[
		{
			"mimeType":"image/png",
			"name":"PiratesPack_TX",
			"uri":"tex/PiratesPack_TX.png"
		}
	],
	"accessors":[
		{
			"bufferView":0,
			"componentType":5126,
			"count":166,
			"max":[
				3.9999771118164062,
				4.000007629394531,
				10.65000057220459
			],
			"min":[
				-4.000022888183594,
				-3.9999923706054688,
				7.649999618530273
			],
			"type":"VEC3"
		},
		{
			"bufferView":1,
			"componentType":5126,
			"count":166,
			"type":"VEC3"
		},
		{
			"bufferView":2,
			"componentType":5126,
			"count":166,
			"type":"VEC2"
		},
		{
			"bufferView":3,
			"componentType":5123,
			"count":294,
			"type":"SCALAR"
		},
		{
			"bufferView":4,
			"componentType":5126,
			"count":36,
			"max":[
				4,
				-10.65999984741211,
				4
			],
			"min":[
				-4,
				-10.899999618530273,
				-4
			],
			"type":"VEC3"
		},
		{
			"bufferView":5,
			"componentType":5126,
			"count":36,
			"type":"VEC3"
		},
		{
			"bufferView":6,
			"componentType":5126,
			"count":36,
			"type":"VEC2"
		},
		{
			"bufferView":7,
			"componentType":5123,
			"count":60,
			"type":"SCALAR"
		},
		{
			"bufferView":8,
			"componentType":5126,
			"count":16,
			"max":[
				4.000038146972656,
				1.5326728820800781,
				10.625000953674316
			],
			"min":[
				1.0000076293945312,
				-3.9999351501464844,
				10.625000953674316
			],
			"type":"VEC3"
		},
		{
			"bufferView":9,
			"componentType":5126,
			"count":16,
			"type":"VEC3"
		},
		{
			"bufferView":10,
			"componentType":5126,
			"count":16,
			"type":"VEC2"
		},
		{
			"bufferView":11,
			"componentType":5126,
			"count":16,
			"type":"VEC4"
		},
		{
			"bufferView":12,
			"componentType":5123,
			"count":36,
			"type":"SCALAR"
		},
		{
			"bufferView":13,
			"componentType":5126,
			"count":123,
			"max":[
				2.0000009536743164,
				2.000001907348633,
				7.499999046325684
			],
			"min":[
				-1.9999990463256836,
				-2.000001907348633,
				3.8249998092651367
			],
			"type":"VEC3"
		},
		{
			"bufferView":14,
			"componentType":5126,
			"count":123,
			"type":"VEC3"
		},
		{
			"bufferView":15,
			"componentType":5126,
			"count":123,
			"type":"VEC2"
		},
		{
			"bufferView":16,
			"componentType":5123,
			"count":324,
			"type":"SCALAR"
		},
		{
			"bufferView":17,
			"componentType":5126,
			"count":114,
			"max":[
				1.044271469116211,
				2.000001907348633,
				3.869375228881836
			],
			"min":[
				-1.201570987701416,
				-2.000001907348633,
				3.7806239128112793
			],
			"type":"VEC3"
		},
		{
			"bufferView":18,
			"componentType":5126,
			"count":114,
			"type":"VEC3"
		},
		{
			"bufferView":19,
			"componentType":5126,
			"count":114,
			"type":"VEC2"
		},
		{
			"bufferView":20,
			"componentType":5123,
			"count":186,
			"type":"SCALAR"
		}
	],
	"bufferViews":[
		{
			"buffer":0,
			"byteLength":1992,
			"byteOffset":0,
			"target":34962
		},
		{
			"buffer":0,
			"byteLength":1992,
			"byteOffset":1992,
			"target":34962
		},
		{
			"buffer":0,
			"byteLength":1328,
			"byteOffset":3984,
			"target":34962
		},
		{
			"buffer":0,
			"byteLength":588,
			"byteOffset":5312,
			"target":34963
		},
		{
			"buffer":0,
			"byteLength":432,
			"byteOffset":5900,
			"target":34962
		},
		{
			"buffer":0,
			"byteLength":432,
			"byteOffset":6332,
			"target":34962
		},
		{
			"buffer":0,
			"byteLength":288,
			"byteOffset":6764,
			"target":34962
		},
		{
			"buffer":0,
			"byteLength":120,
			"byteOffset":7052,
			"target":34963
		},
		{
			"buffer":0,
			"byteLength":192,
			"byteOffset":7172,
			"target":34962
		},
		{
			"buffer":0,
			"byteLength":192,
			"byteOffset":7364,
			"target":34962
		},
		{
			"buffer":0,
			"byteLength":128,
			"byteOffset":7556,
			"target":34962
		},
		{
			"buffer":0,
			"byteLength":256,
			"byteOffset":7684,
			"target":34962
		},
		{
			"buffer":0,
			"byteLength":72,
			"byteOffset":7940,
			"target":34963
		},
		{
			"buffer":0,
			"byteLength":1476,
			"byteOffset":8012,
			"target":34962
		},
		{
			"buffer":0,
			"byteLength":1476,
			"byteOffset":9488,
			"target":34962
		},
		{
			"buffer":0,
			"byteLength":984,
			"byteOffset":10964,
			"target":34962
		},
		{
			"buffer":0,
			"byteLength":648,
			"byteOffset":11948,
			"target":34963
		},
		{
			"buffer":0,
			"byteLength":1368,
			"byteOffset":12596,
			"target":34962
		},
		{
			"buffer":0,
			"byteLength":1368,
			"byteOffset":13964,
			"target":34962
		},
		{
			"buffer":0,
			"byteLength":912,
			"byteOffset":15332,
			"target":34962
		},
		{
			"buffer":0,
			"byteLength":372,
			"byteOffset":16244,
			"target":34963
		}
	],
	"samplers":[
		{
			"magFilter":9729,
			"minFilter":9987
		}
	],
	"buffers":[
		{
			"byteLength":16616,
			"uri":"tile_8_0_10.bin"
		}
	]
}
