{
	"asset":{
		"generator":"Khronos glTF Blender I/O v4.0.44",
		"version":"2.0"
	},
	"scene":0,
	"scenes":[
		{
			"name":"Scene",
			"nodes":[
				0,
				1,
				2,
				3,
				4,
				5
			]
		}
	],
	"nodes":[
		{
			"mesh":0,
			"name":"pipe.main_collider",
			"rotation":[
				0.7071068286895752,
				0,
				0,
				0.7071068286895752
			]
		},
		{
			"mesh":1,
			"name":"ground"
		},
		{
			"mesh":2,
			"name":"wall.east.009"
		},
		{
			"mesh":3,
			"name":"neons.001",
			"rotation":[
				0,
				0,
				-0.7071068286895752,
				0.7071068286895752
			],
			"scale":[
				0.19999998807907104,
				1,
				44.15021896362305
			]
		},
		{
			"mesh":4,
			"name":"pipe.main",
			"rotation":[
				0.7071068286895752,
				0,
				0,
				0.7071068286895752
			],
			"scale":[
				2,
				2,
				2
			]
		},
		{
			"mesh":5,
			"name":"pipe.main.rim",
			"rotation":[
				0.7071068286895752,
				0,
				0,
				0.7071068286895752
			],
			"scale":[
				2,
				2,
				2
			]
		}
	],
	"materials":[
		{
			"doubleSided":true,
			"name":"dcl.PiratesPack",
			"pbrMetallicRoughness":{
				"baseColorTexture":{
					"index":0
				},
				"metallicFactor":0
			}
		},
		{
			"doubleSided":true,
			"emissiveFactor":[
				1,
				1,
				1
			],
			"emissiveTexture":{
				"index":1
			},
			"name":"dcl.PiratesPack.emissive",
			"pbrMetallicRoughness":{
				"baseColorTexture":{
					"index":2
				},
				"metallicFactor":0
			}
		}
	],
	"meshes":[
		{
			"name":"Cylinder.476",
			"primitives":[
				{
					"attributes":{
						"POSITION":0,
						"NORMAL":1,
						"TEXCOORD_0":2
					},
					"indices":3
				}
			]
		},
		{
			"name":"Cube.396",
			"primitives":[
				{
					"attributes":{
						"POSITION":4,
						"NORMAL":5,
						"TEXCOORD_0":6
					},
					"indices":7,
					"material":0
				}
			]
		},
		{
			"name":"Cylinder.477",
			"primitives":[
				{
					"attributes":{
						"POSITION":8,
						"NORMAL":9,
						"TEXCOORD_0":10,
						"TANGENT":11
					},
					"indices":12,
					"material":0
				}
			]
		},
		{
			"name":"Plane.049",
			"primitives":[
				{
					"attributes":{
						"POSITION":13,
						"NORMAL":14,
						"TEXCOORD_0":15,
						"TANGENT":16
					},
					"indices":17,
					"material":1
				}
			]
		},
		{
			"name":"Cylinder.478",
			"primitives":[
				{
					"attributes":{
						"POSITION":18,
						"NORMAL":19,
						"TEXCOORD_0":20
					},
					"indices":21,
					"material":0
				}
			]
		},
		{
			"name":"Cylinder.479",
			"primitives":[
				{
					"attributes":{
						"POSITION":22,
						"NORMAL":23,
						"TEXCOORD_0":24
					},
					"indices":25,
					"material":0
				}
			]
		}
	],
	"textures":[
		{
			"sampler":0,
			"source":0
		},
		{
			"sampler":0,
			"source":0
		},
		{
			"sampler":0,
			"source":0
		}
	],
	"images":[
		{
			"mimeType":"image/png",
			"name":"PiratesPack_TX",
			"uri":"tex/PiratesPack_TX.png"
		}
	],
	"accessors":[
		{
			"bufferView":0,
			"componentType":5126,
			"count":118,
			"max":[
				3.9999847412109375,
				3.9999923706054688,
				10.649999618530273
			],
			"min":[
				-4.0000152587890625,
				-4.000007629394531,
				7.649999141693115
			],
			"type":"VEC3"
		},
		{
			"bufferView":1,
			"componentType":5126,
			"count":118,
			"type":"VEC3"
		},
		{
			"bufferView":2,
			"componentType":5126,
			"count":118,
			"type":"VEC2"
		},
		{
			"bufferView":3,
			"componentType":5123,
			"count":207,
			"type":"SCALAR"
		},
		{
			"bufferView":4,
			"componentType":5126,
			"count":36,
			"max":[
				3.4499664306640625,
				-10.65999984741211,
				4
			],
			"min":[
				-4,
				-10.899999618530273,
				-4
			],
			"type":"VEC3"
		},
		{
			"bufferView":5,
			"componentType":5126,
			"count":36,
			"type":"VEC3"
		},
		{
			"bufferView":6,
			"componentType":5126,
			"count":36,
			"type":"VEC2"
		},
		{
			"bufferView":7,
			"componentType":5123,
			"count":60,
			"type":"SCALAR"
		},
		{
			"bufferView":8,
			"componentType":5126,
			"count":24,
			"max":[
				3.4666199684143066,
				7.9000091552734375,
				4
			],
			"min":[
				2.9998998641967773,
				-10.850001335144043,
				-4
			],
			"type":"VEC3"
		},
		{
			"bufferView":9,
			"componentType":5126,
			"count":24,
			"type":"VEC3"
		},
		{
			"bufferView":10,
			"componentType":5126,
			"count":24,
			"type":"VEC2"
		},
		{
			"bufferView":11,
			"componentType":5126,
			"count":24,
			"type":"VEC4"
		},
		{
			"bufferView":12,
			"componentType":5123,
			"count":36,
			"type":"SCALAR"
		},
		{
			"bufferView":13,
			"componentType":5126,
			"count":8,
			"max":[
				13.374977111816406,
				2.8999557495117188,
				0.09059977531433105
			],
			"min":[
				6.374977111816406,
				2.8999557495117188,
				-0.09059977531433105
			],
			"type":"VEC3"
		},
		{
			"bufferView":14,
			"componentType":5126,
			"count":8,
			"type":"VEC3"
		},
		{
			"bufferView":15,
			"componentType":5126,
			"count":8,
			"type":"VEC2"
		},
		{
			"bufferView":16,
			"componentType":5126,
			"count":8,
			"type":"VEC4"
		},
		{
			"bufferView":17,
			"componentType":5123,
			"count":12,
			"type":"SCALAR"
		},
		{
			"bufferView":18,
			"componentType":5126,
			"count":109,
			"max":[
				1.9999985694885254,
				2.0000009536743164,
				7.499999046325684
			],
			"min":[
				-2.0000011920928955,
				-2.000001907348633,
				3.8249995708465576
			],
			"type":"VEC3"
		},
		{
			"bufferView":19,
			"componentType":5126,
			"count":109,
			"type":"VEC3"
		},
		{
			"bufferView":20,
			"componentType":5126,
			"count":109,
			"type":"VEC2"
		},
		{
			"bufferView":21,
			"componentType":5123,
			"count":258,
			"type":"SCALAR"
		},
		{
			"bufferView":22,
			"componentType":5126,
			"count":84,
			"max":[
				-0.7162876129150391,
				2,
				3.858785629272461
			],
			"min":[
				-1.9999990463256836,
				-1.0514230728149414,
				3.7912144660949707
			],
			"type":"VEC3"
		},
		{
			"bufferView":23,
			"componentType":5126,
			"count":84,
			"type":"VEC3"
		},
		{
			"bufferView":24,
			"componentType":5126,
			"count":84,
			"type":"VEC2"
		},
		{
			"bufferView":25,
			"componentType":5123,
			"count":132,
			"type":"SCALAR"
		}
	],
	"bufferViews":[
		{
			"buffer":0,
			"byteLength":1416,
			"byteOffset":0,
			"target":34962
		},
		{
			"buffer":0,
			"byteLength":1416,
			"byteOffset":1416,
			"target":34962
		},
		{
			"buffer":0,
			"byteLength":944,
			"byteOffset":2832,
			"target":34962
		},
		{
			"buffer":0,
			"byteLength":414,
			"byteOffset":3776,
			"target":34963
		},
		{
			"buffer":0,
			"byteLength":432,
			"byteOffset":4192,
			"target":34962
		},
		{
			"buffer":0,
			"byteLength":432,
			"byteOffset":4624,
			"target":34962
		},
		{
			"buffer":0,
			"byteLength":288,
			"byteOffset":5056,
			"target":34962
		},
		{
			"buffer":0,
			"byteLength":120,
			"byteOffset":5344,
			"target":34963
		},
		{
			"buffer":0,
			"byteLength":288,
			"byteOffset":5464,
			"target":34962
		},
		{
			"buffer":0,
			"byteLength":288,
			"byteOffset":5752,
			"target":34962
		},
		{
			"buffer":0,
			"byteLength":192,
			"byteOffset":6040,
			"target":34962
		},
		{
			"buffer":0,
			"byteLength":384,
			"byteOffset":6232,
			"target":34962
		},
		{
			"buffer":0,
			"byteLength":72,
			"byteOffset":6616,
			"target":34963
		},
		{
			"buffer":0,
			"byteLength":96,
			"byteOffset":6688,
			"target":34962
		},
		{
			"buffer":0,
			"byteLength":96,
			"byteOffset":6784,
			"target":34962
		},
		{
			"buffer":0,
			"byteLength":64,
			"byteOffset":6880,
			"target":34962
		},
		{
			"buffer":0,
			"byteLength":128,
			"byteOffset":6944,
			"target":34962
		},
		{
			"buffer":0,
			"byteLength":24,
			"byteOffset":7072,
			"target":34963
		},
		{
			"buffer":0,
			"byteLength":1308,
			"byteOffset":7096,
			"target":34962
		},
		{
			"buffer":0,
			"byteLength":1308,
			"byteOffset":8404,
			"target":34962
		},
		{
			"buffer":0,
			"byteLength":872,
			"byteOffset":9712,
			"target":34962
		},
		{
			"buffer":0,
			"byteLength":516,
			"byteOffset":10584,
			"target":34963
		},
		{
			"buffer":0,
			"byteLength":1008,
			"byteOffset":11100,
			"target":34962
		},
		{
			"buffer":0,
			"byteLength":1008,
			"byteOffset":12108,
			"target":34962
		},
		{
			"buffer":0,
			"byteLength":672,
			"byteOffset":13116,
			"target":34962
		},
		{
			"buffer":0,
			"byteLength":264,
			"byteOffset":13788,
			"target":34963
		}
	],
	"samplers":[
		{
			"magFilter":9729,
			"minFilter":9987
		}
	],
	"buffers":[
		{
			"byteLength":14052,
			"uri":"tile_11_0_9.bin"
		}
	]
}
