{
	"asset":{
		"generator":"Khronos glTF Blender I/O v4.0.44",
		"version":"2.0"
	},
	"scene":0,
	"scenes":[
		{
			"name":"Scene",
			"nodes":[
				0,
				1,
				2,
				3
			]
		}
	],
	"nodes":[
		{
			"mesh":0,
			"name":"pipe.main_collider",
			"rotation":[
				0.7071068286895752,
				0,
				0,
				0.7071068286895752
			]
		},
		{
			"mesh":1,
			"name":"ground"
		},
		{
			"mesh":2,
			"name":"pipe.main",
			"rotation":[
				0.7071068286895752,
				0,
				0,
				0.7071068286895752
			],
			"scale":[
				2,
				2,
				2
			]
		},
		{
			"mesh":3,
			"name":"pipe.main.rim",
			"rotation":[
				0.7071068286895752,
				0,
				0,
				0.7071068286895752
			],
			"scale":[
				2,
				2,
				2
			]
		}
	],
	"materials":[
		{
			"doubleSided":true,
			"name":"dcl.PiratesPack",
			"pbrMetallicRoughness":{
				"baseColorTexture":{
					"index":0
				},
				"metallicFactor":0
			}
		}
	],
	"meshes":[
		{
			"name":"Cylinder.411",
			"primitives":[
				{
					"attributes":{
						"POSITION":0,
						"NORMAL":1,
						"TEXCOORD_0":2
					},
					"indices":3
				}
			]
		},
		{
			"name":"Cube.365",
			"primitives":[
				{
					"attributes":{
						"POSITION":4,
						"NORMAL":5,
						"TEXCOORD_0":6,
						"TANGENT":7
					},
					"indices":8,
					"material":0
				}
			]
		},
		{
			"name":"Cylinder.412",
			"primitives":[
				{
					"attributes":{
						"POSITION":9,
						"NORMAL":10,
						"TEXCOORD_0":11
					},
					"indices":12,
					"material":0
				}
			]
		},
		{
			"name":"Cylinder.413",
			"primitives":[
				{
					"attributes":{
						"POSITION":13,
						"NORMAL":14,
						"TEXCOORD_0":15
					},
					"indices":16,
					"material":0
				}
			]
		}
	],
	"textures":[
		{
			"sampler":0,
			"source":0
		}
	],
	"images":[
		{
			"mimeType":"image/png",
			"name":"PiratesPack_TX",
			"uri":"tex/PiratesPack_TX.png"
		}
	],
	"accessors":[
		{
			"bufferView":0,
			"componentType":5126,
			"count":178,
			"max":[
				3.9999923706054688,
				4,
				10.649999618530273
			],
			"min":[
				-4.000007629394531,
				-4.000003814697266,
				7.649996280670166
			],
			"type":"VEC3"
		},
		{
			"bufferView":1,
			"componentType":5126,
			"count":178,
			"type":"VEC3"
		},
		{
			"bufferView":2,
			"componentType":5126,
			"count":178,
			"type":"VEC2"
		},
		{
			"bufferView":3,
			"componentType":5123,
			"count":282,
			"type":"SCALAR"
		},
		{
			"bufferView":4,
			"componentType":5126,
			"count":24,
			"max":[
				4,
				-10.65999984741211,
				4
			],
			"min":[
				-4,
				-10.899999618530273,
				-4
			],
			"type":"VEC3"
		},
		{
			"bufferView":5,
			"componentType":5126,
			"count":24,
			"type":"VEC3"
		},
		{
			"bufferView":6,
			"componentType":5126,
			"count":24,
			"type":"VEC2"
		},
		{
			"bufferView":7,
			"componentType":5126,
			"count":24,
			"type":"VEC4"
		},
		{
			"bufferView":8,
			"componentType":5123,
			"count":36,
			"type":"SCALAR"
		},
		{
			"bufferView":9,
			"componentType":5126,
			"count":104,
			"max":[
				2.0000011920928955,
				2,
				5.324999809265137
			],
			"min":[
				-2.0000011920928955,
				-2.0000009536743164,
				3.824998140335083
			],
			"type":"VEC3"
		},
		{
			"bufferView":10,
			"componentType":5126,
			"count":104,
			"type":"VEC3"
		},
		{
			"bufferView":11,
			"componentType":5126,
			"count":104,
			"type":"VEC2"
		},
		{
			"bufferView":12,
			"componentType":5123,
			"count":321,
			"type":"SCALAR"
		},
		{
			"bufferView":13,
			"componentType":5126,
			"count":86,
			"max":[
				-0.7242435216903687,
				1.9999995231628418,
				3.8532843589782715
			],
			"min":[
				-1.7968127727508545,
				-2.0000009536743164,
				3.7967143058776855
			],
			"type":"VEC3"
		},
		{
			"bufferView":14,
			"componentType":5126,
			"count":86,
			"type":"VEC3"
		},
		{
			"bufferView":15,
			"componentType":5126,
			"count":86,
			"type":"VEC2"
		},
		{
			"bufferView":16,
			"componentType":5123,
			"count":162,
			"type":"SCALAR"
		}
	],
	"bufferViews":[
		{
			"buffer":0,
			"byteLength":2136,
			"byteOffset":0,
			"target":34962
		},
		{
			"buffer":0,
			"byteLength":2136,
			"byteOffset":2136,
			"target":34962
		},
		{
			"buffer":0,
			"byteLength":1424,
			"byteOffset":4272,
			"target":34962
		},
		{
			"buffer":0,
			"byteLength":564,
			"byteOffset":5696,
			"target":34963
		},
		{
			"buffer":0,
			"byteLength":288,
			"byteOffset":6260,
			"target":34962
		},
		{
			"buffer":0,
			"byteLength":288,
			"byteOffset":6548,
			"target":34962
		},
		{
			"buffer":0,
			"byteLength":192,
			"byteOffset":6836,
			"target":34962
		},
		{
			"buffer":0,
			"byteLength":384,
			"byteOffset":7028,
			"target":34962
		},
		{
			"buffer":0,
			"byteLength":72,
			"byteOffset":7412,
			"target":34963
		},
		{
			"buffer":0,
			"byteLength":1248,
			"byteOffset":7484,
			"target":34962
		},
		{
			"buffer":0,
			"byteLength":1248,
			"byteOffset":8732,
			"target":34962
		},
		{
			"buffer":0,
			"byteLength":832,
			"byteOffset":9980,
			"target":34962
		},
		{
			"buffer":0,
			"byteLength":642,
			"byteOffset":10812,
			"target":34963
		},
		{
			"buffer":0,
			"byteLength":1032,
			"byteOffset":11456,
			"target":34962
		},
		{
			"buffer":0,
			"byteLength":1032,
			"byteOffset":12488,
			"target":34962
		},
		{
			"buffer":0,
			"byteLength":688,
			"byteOffset":13520,
			"target":34962
		},
		{
			"buffer":0,
			"byteLength":324,
			"byteOffset":14208,
			"target":34963
		}
	],
	"samplers":[
		{
			"magFilter":9729,
			"minFilter":9987
		}
	],
	"buffers":[
		{
			"byteLength":14532,
			"uri":"tile_10_0_7.bin"
		}
	]
}
