{
	"asset":{
		"generator":"Khronos glTF Blender I/O v4.0.44",
		"version":"2.0"
	},
	"scene":0,
	"scenes":[
		{
			"name":"Scene",
			"nodes":[
				0,
				1,
				2,
				3,
				4,
				5,
				6
			]
		}
	],
	"nodes":[
		{
			"mesh":0,
			"name":"dropin-pillar.01_collider",
			"rotation":[
				0.5000002384185791,
				-0.4999997615814209,
				0.4999997615814209,
				0.5000002384185791
			]
		},
		{
			"mesh":1,
			"name":"ramp.rectangular.06_collider",
			"rotation":[
				-0.2438528835773468,
				0,
				0,
				0.9698123335838318
			],
			"scale":[
				1.4041002988815308,
				1,
				1
			]
		},
		{
			"mesh":2,
			"name":"ramp.rectangular.06_collider.001_collider.001",
			"rotation":[
				-0.07481721043586731,
				0,
				0,
				0.9971972703933716
			],
			"scale":[
				1.344779372215271,
				1,
				1
			]
		},
		{
			"mesh":3,
			"name":"ground"
		},
		{
			"mesh":4,
			"name":"decal.main",
			"rotation":[
				0,
				-0.7071068286895752,
				0.7071068286895752,
				3.4560699191388267e-07
			]
		},
		{
			"mesh":5,
			"name":"dropin-pillar.01",
			"rotation":[
				0.5000002384185791,
				-0.4999997615814209,
				0.4999997615814209,
				0.5000002384185791
			],
			"scale":[
				3,
				3,
				3
			]
		},
		{
			"mesh":6,
			"name":"ramp.rectangular.01",
			"rotation":[
				0,
				-1,
				0,
				1.6292068494294654e-07
			]
		}
	],
	"materials":[
		{
			"doubleSided":true,
			"name":"dcl.PiratesPack",
			"pbrMetallicRoughness":{
				"baseColorTexture":{
					"index":0
				},
				"metallicFactor":0
			}
		},
		{
			"doubleSided":true,
			"emissiveFactor":[
				1,
				1,
				1
			],
			"emissiveTexture":{
				"index":1
			},
			"name":"dcl.PiratesPack.emissive",
			"pbrMetallicRoughness":{
				"baseColorTexture":{
					"index":2
				},
				"metallicFactor":0
			}
		}
	],
	"meshes":[
		{
			"name":"Cylinder.179",
			"primitives":[
				{
					"attributes":{
						"POSITION":0,
						"NORMAL":1,
						"TEXCOORD_0":2,
						"TANGENT":3
					},
					"indices":4
				}
			]
		},
		{
			"name":"Cube.228",
			"primitives":[
				{
					"attributes":{
						"POSITION":5,
						"NORMAL":6,
						"TEXCOORD_0":7,
						"TANGENT":8
					},
					"indices":9
				}
			]
		},
		{
			"name":"Cube.229",
			"primitives":[
				{
					"attributes":{
						"POSITION":10,
						"NORMAL":11,
						"TEXCOORD_0":12,
						"TANGENT":13
					},
					"indices":14
				}
			]
		},
		{
			"name":"Cube.230",
			"primitives":[
				{
					"attributes":{
						"POSITION":15,
						"NORMAL":16,
						"TEXCOORD_0":17,
						"TANGENT":18
					},
					"indices":19,
					"material":0
				}
			]
		},
		{
			"name":"Cylinder.180",
			"primitives":[
				{
					"attributes":{
						"POSITION":20,
						"NORMAL":21,
						"TEXCOORD_0":22,
						"TANGENT":23
					},
					"indices":24,
					"material":1
				}
			]
		},
		{
			"name":"Cylinder.181",
			"primitives":[
				{
					"attributes":{
						"POSITION":25,
						"NORMAL":26,
						"TEXCOORD_0":27,
						"TANGENT":28
					},
					"indices":29,
					"material":0
				}
			]
		},
		{
			"name":"Cube.231",
			"primitives":[
				{
					"attributes":{
						"POSITION":30,
						"NORMAL":31,
						"TEXCOORD_0":32
					},
					"indices":33,
					"material":0
				}
			]
		}
	],
	"textures":[
		{
			"sampler":0,
			"source":0
		},
		{
			"sampler":0,
			"source":0
		},
		{
			"sampler":0,
			"source":0
		}
	],
	"images":[
		{
			"mimeType":"image/png",
			"name":"PiratesPack_TX",
			"uri":"tex/PiratesPack_TX.png"
		}
	],
	"accessors":[
		{
			"bufferView":0,
			"componentType":5126,
			"count":12,
			"max":[
				-3.760915756225586,
				2.813441276550293,
				10.68169116973877
			],
			"min":[
				-3.9999961853027344,
				-4.000011444091797,
				10.641995429992676
			],
			"type":"VEC3"
		},
		{
			"bufferView":1,
			"componentType":5126,
			"count":12,
			"type":"VEC3"
		},
		{
			"bufferView":2,
			"componentType":5126,
			"count":12,
			"type":"VEC2"
		},
		{
			"bufferView":3,
			"componentType":5126,
			"count":12,
			"type":"VEC4"
		},
		{
			"bufferView":4,
			"componentType":5123,
			"count":18,
			"type":"SCALAR"
		},
		{
			"bufferView":5,
			"componentType":5126,
			"count":18,
			"max":[
				2.7496607303619385,
				-11.478989601135254,
				-1.622307300567627
			],
			"min":[
				-0.37349092960357666,
				-12.250264167785645,
				-2.0363481044769287
			],
			"type":"VEC3"
		},
		{
			"bufferView":6,
			"componentType":5126,
			"count":18,
			"type":"VEC3"
		},
		{
			"bufferView":7,
			"componentType":5126,
			"count":18,
			"type":"VEC2"
		},
		{
			"bufferView":8,
			"componentType":5126,
			"count":18,
			"type":"VEC4"
		},
		{
			"bufferView":9,
			"componentType":5123,
			"count":24,
			"type":"SCALAR"
		},
		{
			"bufferView":10,
			"componentType":5126,
			"count":24,
			"max":[
				2.8752102851867676,
				-10.946313858032227,
				2.393444538116455
			],
			"min":[
				-0.39554476737976074,
				-11.771313667297363,
				-0.3636322021484375
			],
			"type":"VEC3"
		},
		{
			"bufferView":11,
			"componentType":5126,
			"count":24,
			"type":"VEC3"
		},
		{
			"bufferView":12,
			"componentType":5126,
			"count":24,
			"type":"VEC2"
		},
		{
			"bufferView":13,
			"componentType":5126,
			"count":24,
			"type":"VEC4"
		},
		{
			"bufferView":14,
			"componentType":5123,
			"count":36,
			"type":"SCALAR"
		},
		{
			"bufferView":15,
			"componentType":5126,
			"count":24,
			"max":[
				4,
				-10.65999984741211,
				4
			],
			"min":[
				-4,
				-10.899999618530273,
				-4
			],
			"type":"VEC3"
		},
		{
			"bufferView":16,
			"componentType":5126,
			"count":24,
			"type":"VEC3"
		},
		{
			"bufferView":17,
			"componentType":5126,
			"count":24,
			"type":"VEC2"
		},
		{
			"bufferView":18,
			"componentType":5126,
			"count":24,
			"type":"VEC4"
		},
		{
			"bufferView":19,
			"componentType":5123,
			"count":36,
			"type":"SCALAR"
		},
		{
			"bufferView":20,
			"componentType":5126,
			"count":4,
			"max":[
				3.999988555908203,
				3.010941505432129,
				10.630558967590332
			],
			"min":[
				-4.000011444091797,
				2.5109338760375977,
				10.630558967590332
			],
			"type":"VEC3"
		},
		{
			"bufferView":21,
			"componentType":5126,
			"count":4,
			"type":"VEC3"
		},
		{
			"bufferView":22,
			"componentType":5126,
			"count":4,
			"type":"VEC2"
		},
		{
			"bufferView":23,
			"componentType":5126,
			"count":4,
			"type":"VEC4"
		},
		{
			"bufferView":24,
			"componentType":5123,
			"count":6,
			"type":"SCALAR"
		},
		{
			"bufferView":25,
			"componentType":5126,
			"count":27,
			"max":[
				-1.2536382675170898,
				1.0650181770324707,
				3.5466670989990234
			],
			"min":[
				-1.3333334922790527,
				-1.3333346843719482,
				3.539219617843628
			],
			"type":"VEC3"
		},
		{
			"bufferView":26,
			"componentType":5126,
			"count":27,
			"type":"VEC3"
		},
		{
			"bufferView":27,
			"componentType":5126,
			"count":27,
			"type":"VEC2"
		},
		{
			"bufferView":28,
			"componentType":5126,
			"count":27,
			"type":"VEC4"
		},
		{
			"bufferView":29,
			"componentType":5123,
			"count":51,
			"type":"SCALAR"
		},
		{
			"bufferView":30,
			"componentType":5126,
			"count":18,
			"max":[
				0.49933624267578125,
				-10.478904724121094,
				-2.8578853607177734
			],
			"min":[
				-3.8616695404052734,
				-10.649999618530273,
				-4
			],
			"type":"VEC3"
		},
		{
			"bufferView":31,
			"componentType":5126,
			"count":18,
			"type":"VEC3"
		},
		{
			"bufferView":32,
			"componentType":5126,
			"count":18,
			"type":"VEC2"
		},
		{
			"bufferView":33,
			"componentType":5123,
			"count":24,
			"type":"SCALAR"
		}
	],
	"bufferViews":[
		{
			"buffer":0,
			"byteLength":144,
			"byteOffset":0,
			"target":34962
		},
		{
			"buffer":0,
			"byteLength":144,
			"byteOffset":144,
			"target":34962
		},
		{
			"buffer":0,
			"byteLength":96,
			"byteOffset":288,
			"target":34962
		},
		{
			"buffer":0,
			"byteLength":192,
			"byteOffset":384,
			"target":34962
		},
		{
			"buffer":0,
			"byteLength":36,
			"byteOffset":576,
			"target":34963
		},
		{
			"buffer":0,
			"byteLength":216,
			"byteOffset":612,
			"target":34962
		},
		{
			"buffer":0,
			"byteLength":216,
			"byteOffset":828,
			"target":34962
		},
		{
			"buffer":0,
			"byteLength":144,
			"byteOffset":1044,
			"target":34962
		},
		{
			"buffer":0,
			"byteLength":288,
			"byteOffset":1188,
			"target":34962
		},
		{
			"buffer":0,
			"byteLength":48,
			"byteOffset":1476,
			"target":34963
		},
		{
			"buffer":0,
			"byteLength":288,
			"byteOffset":1524,
			"target":34962
		},
		{
			"buffer":0,
			"byteLength":288,
			"byteOffset":1812,
			"target":34962
		},
		{
			"buffer":0,
			"byteLength":192,
			"byteOffset":2100,
			"target":34962
		},
		{
			"buffer":0,
			"byteLength":384,
			"byteOffset":2292,
			"target":34962
		},
		{
			"buffer":0,
			"byteLength":72,
			"byteOffset":2676,
			"target":34963
		},
		{
			"buffer":0,
			"byteLength":288,
			"byteOffset":2748,
			"target":34962
		},
		{
			"buffer":0,
			"byteLength":288,
			"byteOffset":3036,
			"target":34962
		},
		{
			"buffer":0,
			"byteLength":192,
			"byteOffset":3324,
			"target":34962
		},
		{
			"buffer":0,
			"byteLength":384,
			"byteOffset":3516,
			"target":34962
		},
		{
			"buffer":0,
			"byteLength":72,
			"byteOffset":3900,
			"target":34963
		},
		{
			"buffer":0,
			"byteLength":48,
			"byteOffset":3972,
			"target":34962
		},
		{
			"buffer":0,
			"byteLength":48,
			"byteOffset":4020,
			"target":34962
		},
		{
			"buffer":0,
			"byteLength":32,
			"byteOffset":4068,
			"target":34962
		},
		{
			"buffer":0,
			"byteLength":64,
			"byteOffset":4100,
			"target":34962
		},
		{
			"buffer":0,
			"byteLength":12,
			"byteOffset":4164,
			"target":34963
		},
		{
			"buffer":0,
			"byteLength":324,
			"byteOffset":4176,
			"target":34962
		},
		{
			"buffer":0,
			"byteLength":324,
			"byteOffset":4500,
			"target":34962
		},
		{
			"buffer":0,
			"byteLength":216,
			"byteOffset":4824,
			"target":34962
		},
		{
			"buffer":0,
			"byteLength":432,
			"byteOffset":5040,
			"target":34962
		},
		{
			"buffer":0,
			"byteLength":102,
			"byteOffset":5472,
			"target":34963
		},
		{
			"buffer":0,
			"byteLength":216,
			"byteOffset":5576,
			"target":34962
		},
		{
			"buffer":0,
			"byteLength":216,
			"byteOffset":5792,
			"target":34962
		},
		{
			"buffer":0,
			"byteLength":144,
			"byteOffset":6008,
			"target":34962
		},
		{
			"buffer":0,
			"byteLength":48,
			"byteOffset":6152,
			"target":34963
		}
	],
	"samplers":[
		{
			"magFilter":9729,
			"minFilter":9987
		}
	],
	"buffers":[
		{
			"byteLength":6200,
			"uri":"tile_5_0_4.bin"
		}
	]
}
