{
	"asset":{
		"generator":"Khronos glTF Blender I/O v4.0.44",
		"version":"2.0"
	},
	"scene":0,
	"scenes":[
		{
			"name":"Scene",
			"nodes":[
				0,
				1,
				2,
				3
			]
		}
	],
	"nodes":[
		{
			"mesh":0,
			"name":"pipe.main_collider",
			"rotation":[
				0.7071068286895752,
				0,
				0,
				0.7071068286895752
			]
		},
		{
			"mesh":1,
			"name":"ground"
		},
		{
			"mesh":2,
			"name":"pipe.main",
			"rotation":[
				0.7071068286895752,
				0,
				0,
				0.7071068286895752
			],
			"scale":[
				2,
				2,
				2
			]
		},
		{
			"mesh":3,
			"name":"pipe.main.rim",
			"rotation":[
				0.7071068286895752,
				0,
				0,
				0.7071068286895752
			],
			"scale":[
				2,
				2,
				2
			]
		}
	],
	"materials":[
		{
			"doubleSided":true,
			"name":"dcl.PiratesPack",
			"pbrMetallicRoughness":{
				"baseColorTexture":{
					"index":0
				},
				"metallicFactor":0
			}
		}
	],
	"meshes":[
		{
			"name":"Cylinder.379",
			"primitives":[
				{
					"attributes":{
						"POSITION":0,
						"NORMAL":1,
						"TEXCOORD_0":2
					},
					"indices":3
				}
			]
		},
		{
			"name":"Cube.355",
			"primitives":[
				{
					"attributes":{
						"POSITION":4,
						"NORMAL":5,
						"TEXCOORD_0":6,
						"TANGENT":7
					},
					"indices":8,
					"material":0
				}
			]
		},
		{
			"name":"Cylinder.380",
			"primitives":[
				{
					"attributes":{
						"POSITION":9,
						"NORMAL":10,
						"TEXCOORD_0":11
					},
					"indices":12,
					"material":0
				}
			]
		},
		{
			"name":"Cylinder.381",
			"primitives":[
				{
					"attributes":{
						"POSITION":13,
						"NORMAL":14,
						"TEXCOORD_0":15
					},
					"indices":16,
					"material":0
				}
			]
		}
	],
	"textures":[
		{
			"sampler":0,
			"source":0
		}
	],
	"images":[
		{
			"mimeType":"image/png",
			"name":"PiratesPack_TX",
			"uri":"tex/PiratesPack_TX.png"
		}
	],
	"accessors":[
		{
			"bufferView":0,
			"componentType":5126,
			"count":193,
			"max":[
				3.9999847412109375,
				4.000007629394531,
				10.649999618530273
			],
			"min":[
				-4.0000152587890625,
				-3.9999923706054688,
				7.649918556213379
			],
			"type":"VEC3"
		},
		{
			"bufferView":1,
			"componentType":5126,
			"count":193,
			"type":"VEC3"
		},
		{
			"bufferView":2,
			"componentType":5126,
			"count":193,
			"type":"VEC2"
		},
		{
			"bufferView":3,
			"componentType":5123,
			"count":315,
			"type":"SCALAR"
		},
		{
			"bufferView":4,
			"componentType":5126,
			"count":24,
			"max":[
				4,
				-10.65999984741211,
				4
			],
			"min":[
				-4,
				-10.899999618530273,
				-4
			],
			"type":"VEC3"
		},
		{
			"bufferView":5,
			"componentType":5126,
			"count":24,
			"type":"VEC3"
		},
		{
			"bufferView":6,
			"componentType":5126,
			"count":24,
			"type":"VEC2"
		},
		{
			"bufferView":7,
			"componentType":5126,
			"count":24,
			"type":"VEC4"
		},
		{
			"bufferView":8,
			"componentType":5123,
			"count":36,
			"type":"SCALAR"
		},
		{
			"bufferView":9,
			"componentType":5126,
			"count":151,
			"max":[
				2.0000011920928955,
				2.0000009536743164,
				7.499999046325684
			],
			"min":[
				-2.0000009536743164,
				-2.000001907348633,
				3.8249833583831787
			],
			"type":"VEC3"
		},
		{
			"bufferView":10,
			"componentType":5126,
			"count":151,
			"type":"VEC3"
		},
		{
			"bufferView":11,
			"componentType":5126,
			"count":151,
			"type":"VEC2"
		},
		{
			"bufferView":12,
			"componentType":5123,
			"count":399,
			"type":"SCALAR"
		},
		{
			"bufferView":13,
			"componentType":5126,
			"count":108,
			"max":[
				1.733618974685669,
				1.9999990463256836,
				3.858785629272461
			],
			"min":[
				-1.2849233150482178,
				-1.9999980926513672,
				3.663778305053711
			],
			"type":"VEC3"
		},
		{
			"bufferView":14,
			"componentType":5126,
			"count":108,
			"type":"VEC3"
		},
		{
			"bufferView":15,
			"componentType":5126,
			"count":108,
			"type":"VEC2"
		},
		{
			"bufferView":16,
			"componentType":5123,
			"count":174,
			"type":"SCALAR"
		}
	],
	"bufferViews":[
		{
			"buffer":0,
			"byteLength":2316,
			"byteOffset":0,
			"target":34962
		},
		{
			"buffer":0,
			"byteLength":2316,
			"byteOffset":2316,
			"target":34962
		},
		{
			"buffer":0,
			"byteLength":1544,
			"byteOffset":4632,
			"target":34962
		},
		{
			"buffer":0,
			"byteLength":630,
			"byteOffset":6176,
			"target":34963
		},
		{
			"buffer":0,
			"byteLength":288,
			"byteOffset":6808,
			"target":34962
		},
		{
			"buffer":0,
			"byteLength":288,
			"byteOffset":7096,
			"target":34962
		},
		{
			"buffer":0,
			"byteLength":192,
			"byteOffset":7384,
			"target":34962
		},
		{
			"buffer":0,
			"byteLength":384,
			"byteOffset":7576,
			"target":34962
		},
		{
			"buffer":0,
			"byteLength":72,
			"byteOffset":7960,
			"target":34963
		},
		{
			"buffer":0,
			"byteLength":1812,
			"byteOffset":8032,
			"target":34962
		},
		{
			"buffer":0,
			"byteLength":1812,
			"byteOffset":9844,
			"target":34962
		},
		{
			"buffer":0,
			"byteLength":1208,
			"byteOffset":11656,
			"target":34962
		},
		{
			"buffer":0,
			"byteLength":798,
			"byteOffset":12864,
			"target":34963
		},
		{
			"buffer":0,
			"byteLength":1296,
			"byteOffset":13664,
			"target":34962
		},
		{
			"buffer":0,
			"byteLength":1296,
			"byteOffset":14960,
			"target":34962
		},
		{
			"buffer":0,
			"byteLength":864,
			"byteOffset":16256,
			"target":34962
		},
		{
			"buffer":0,
			"byteLength":348,
			"byteOffset":17120,
			"target":34963
		}
	],
	"samplers":[
		{
			"magFilter":9729,
			"minFilter":9987
		}
	],
	"buffers":[
		{
			"byteLength":17468,
			"uri":"tile_9_0_9.bin"
		}
	]
}
