{
	"asset":{
		"generator":"Khronos glTF Blender I/O v4.0.44",
		"version":"2.0"
	},
	"scene":0,
	"scenes":[
		{
			"name":"Scene",
			"nodes":[
				0,
				1,
				2,
				3,
				4
			]
		}
	],
	"nodes":[
		{
			"mesh":0,
			"name":"grindcurve.01_collider",
			"rotation":[
				0,
				-0.6427873969078064,
				0,
				0.7660446763038635
			]
		},
		{
			"mesh":1,
			"name":"ground"
		},
		{
			"name":"decal.main",
			"rotation":[
				0,
				-0.7071068286895752,
				0.7071068286895752,
				3.4560699191388267e-07
			]
		},
		{
			"mesh":2,
			"name":"grindcurve.01",
			"rotation":[
				0,
				0.7660448551177979,
				0,
				0.6427870988845825
			]
		},
		{
			"mesh":3,
			"name":"grindcurve.003",
			"rotation":[
				0,
				0.7660448551177979,
				0,
				0.6427870988845825
			]
		}
	],
	"materials":[
		{
			"doubleSided":true,
			"name":"dcl.PiratesPack",
			"pbrMetallicRoughness":{
				"baseColorTexture":{
					"index":0
				},
				"metallicFactor":0
			}
		}
	],
	"meshes":[
		{
			"name":"Cylinder.164",
			"primitives":[
				{
					"attributes":{
						"POSITION":0,
						"NORMAL":1,
						"TEXCOORD_0":2
					},
					"indices":3
				}
			]
		},
		{
			"name":"Cube.205",
			"primitives":[
				{
					"attributes":{
						"POSITION":4,
						"NORMAL":5,
						"TEXCOORD_0":6,
						"TANGENT":7
					},
					"indices":8,
					"material":0
				}
			]
		},
		{
			"name":"Cylinder.166",
			"primitives":[
				{
					"attributes":{
						"POSITION":9,
						"NORMAL":10,
						"TEXCOORD_0":11
					},
					"indices":12,
					"material":0
				}
			]
		},
		{
			"name":"grindcurve.013",
			"primitives":[
				{
					"attributes":{
						"POSITION":13,
						"NORMAL":14,
						"TEXCOORD_0":15,
						"TANGENT":16
					},
					"indices":17,
					"material":0
				}
			]
		}
	],
	"textures":[
		{
			"sampler":0,
			"source":0
		}
	],
	"images":[
		{
			"mimeType":"image/png",
			"name":"PiratesPack_TX",
			"uri":"tex/PiratesPack_TX.png"
		}
	],
	"accessors":[
		{
			"bufferView":0,
			"componentType":5126,
			"count":25,
			"max":[
				-1.4234600067138672,
				-8.5,
				3.8107104301452637
			],
			"min":[
				-4.63381814956665,
				-15,
				1.6320099830627441
			],
			"type":"VEC3"
		},
		{
			"bufferView":1,
			"componentType":5126,
			"count":25,
			"type":"VEC3"
		},
		{
			"bufferView":2,
			"componentType":5126,
			"count":25,
			"type":"VEC2"
		},
		{
			"bufferView":3,
			"componentType":5123,
			"count":51,
			"type":"SCALAR"
		},
		{
			"bufferView":4,
			"componentType":5126,
			"count":24,
			"max":[
				4,
				-10.65999984741211,
				4
			],
			"min":[
				-4,
				-10.899999618530273,
				-4
			],
			"type":"VEC3"
		},
		{
			"bufferView":5,
			"componentType":5126,
			"count":24,
			"type":"VEC3"
		},
		{
			"bufferView":6,
			"componentType":5126,
			"count":24,
			"type":"VEC2"
		},
		{
			"bufferView":7,
			"componentType":5126,
			"count":24,
			"type":"VEC4"
		},
		{
			"bufferView":8,
			"componentType":5123,
			"count":36,
			"type":"SCALAR"
		},
		{
			"bufferView":9,
			"componentType":5126,
			"count":42,
			"max":[
				4.6338276863098145,
				-8.149999618530273,
				-1.6320056915283203
			],
			"min":[
				1.423464298248291,
				-10.69999885559082,
				-3.8107104301452637
			],
			"type":"VEC3"
		},
		{
			"bufferView":10,
			"componentType":5126,
			"count":42,
			"type":"VEC3"
		},
		{
			"bufferView":11,
			"componentType":5126,
			"count":42,
			"type":"VEC2"
		},
		{
			"bufferView":12,
			"componentType":5123,
			"count":90,
			"type":"SCALAR"
		},
		{
			"bufferView":13,
			"componentType":5126,
			"count":56,
			"max":[
				4.37675142288208,
				-8.029866218566895,
				-1.477320671081543
			],
			"min":[
				1.197679042816162,
				-8.329817771911621,
				-3.850522518157959
			],
			"type":"VEC3"
		},
		{
			"bufferView":14,
			"componentType":5126,
			"count":56,
			"type":"VEC3"
		},
		{
			"bufferView":15,
			"componentType":5126,
			"count":56,
			"type":"VEC2"
		},
		{
			"bufferView":16,
			"componentType":5126,
			"count":56,
			"type":"VEC4"
		},
		{
			"bufferView":17,
			"componentType":5123,
			"count":84,
			"type":"SCALAR"
		}
	],
	"bufferViews":[
		{
			"buffer":0,
			"byteLength":300,
			"byteOffset":0,
			"target":34962
		},
		{
			"buffer":0,
			"byteLength":300,
			"byteOffset":300,
			"target":34962
		},
		{
			"buffer":0,
			"byteLength":200,
			"byteOffset":600,
			"target":34962
		},
		{
			"buffer":0,
			"byteLength":102,
			"byteOffset":800,
			"target":34963
		},
		{
			"buffer":0,
			"byteLength":288,
			"byteOffset":904,
			"target":34962
		},
		{
			"buffer":0,
			"byteLength":288,
			"byteOffset":1192,
			"target":34962
		},
		{
			"buffer":0,
			"byteLength":192,
			"byteOffset":1480,
			"target":34962
		},
		{
			"buffer":0,
			"byteLength":384,
			"byteOffset":1672,
			"target":34962
		},
		{
			"buffer":0,
			"byteLength":72,
			"byteOffset":2056,
			"target":34963
		},
		{
			"buffer":0,
			"byteLength":504,
			"byteOffset":2128,
			"target":34962
		},
		{
			"buffer":0,
			"byteLength":504,
			"byteOffset":2632,
			"target":34962
		},
		{
			"buffer":0,
			"byteLength":336,
			"byteOffset":3136,
			"target":34962
		},
		{
			"buffer":0,
			"byteLength":180,
			"byteOffset":3472,
			"target":34963
		},
		{
			"buffer":0,
			"byteLength":672,
			"byteOffset":3652,
			"target":34962
		},
		{
			"buffer":0,
			"byteLength":672,
			"byteOffset":4324,
			"target":34962
		},
		{
			"buffer":0,
			"byteLength":448,
			"byteOffset":4996,
			"target":34962
		},
		{
			"buffer":0,
			"byteLength":896,
			"byteOffset":5444,
			"target":34962
		},
		{
			"buffer":0,
			"byteLength":168,
			"byteOffset":6340,
			"target":34963
		}
	],
	"samplers":[
		{
			"magFilter":9729,
			"minFilter":9987
		}
	],
	"buffers":[
		{
			"byteLength":6508,
			"uri":"tile_4_0_7.bin"
		}
	]
}
