{
	"asset":{
		"generator":"Khronos glTF Blender I/O v4.0.44",
		"version":"2.0"
	},
	"scene":0,
	"scenes":[
		{
			"name":"Scene",
			"nodes":[
				0,
				1,
				2,
				3,
				4,
				5
			]
		}
	],
	"nodes":[
		{
			"mesh":0,
			"name":"pipe.west_collider",
			"rotation":[
				0,
				-0.7071068286895752,
				0.7071068286895752,
				3.4560699191388267e-07
			]
		},
		{
			"mesh":1,
			"name":"wall.west.005"
		},
		{
			"mesh":2,
			"name":"ground"
		},
		{
			"mesh":3,
			"name":"decal.main",
			"rotation":[
				0,
				-0.7071068286895752,
				0.7071068286895752,
				3.4560699191388267e-07
			]
		},
		{
			"mesh":4,
			"name":"neons.002",
			"rotation":[
				0.7071068286895752,
				-0.7071068286895752,
				0,
				1.1520234011186403e-07
			],
			"scale":[
				0.19999998807907104,
				1,
				44.15021896362305
			]
		},
		{
			"mesh":5,
			"name":"pipe.west.001",
			"rotation":[
				0,
				-0.7071068286895752,
				0.7071068286895752,
				3.4560699191388267e-07
			]
		}
	],
	"materials":[
		{
			"doubleSided":true,
			"name":"dcl.PiratesPack",
			"pbrMetallicRoughness":{
				"baseColorTexture":{
					"index":0
				},
				"metallicFactor":0
			}
		},
		{
			"doubleSided":true,
			"emissiveFactor":[
				1,
				1,
				1
			],
			"emissiveTexture":{
				"index":1
			},
			"name":"dcl.PiratesPack.emissive",
			"pbrMetallicRoughness":{
				"baseColorTexture":{
					"index":2
				},
				"metallicFactor":0
			}
		}
	],
	"meshes":[
		{
			"name":"Cylinder.032",
			"primitives":[
				{
					"attributes":{
						"POSITION":0,
						"NORMAL":1,
						"TEXCOORD_0":2
					},
					"indices":3
				}
			]
		},
		{
			"name":"Cylinder.033",
			"primitives":[
				{
					"attributes":{
						"POSITION":4,
						"NORMAL":5,
						"TEXCOORD_0":6
					},
					"indices":7,
					"material":0
				}
			]
		},
		{
			"name":"Cube.040",
			"primitives":[
				{
					"attributes":{
						"POSITION":8,
						"NORMAL":9,
						"TEXCOORD_0":10
					},
					"indices":11,
					"material":0
				}
			]
		},
		{
			"name":"Cylinder.034",
			"primitives":[
				{
					"attributes":{
						"POSITION":12,
						"NORMAL":13,
						"TEXCOORD_0":14,
						"TANGENT":15
					},
					"indices":16,
					"material":1
				}
			]
		},
		{
			"name":"Plane.007",
			"primitives":[
				{
					"attributes":{
						"POSITION":17,
						"NORMAL":18,
						"TEXCOORD_0":19,
						"TANGENT":20
					},
					"indices":21,
					"material":1
				}
			]
		},
		{
			"name":"Cylinder.035",
			"primitives":[
				{
					"attributes":{
						"POSITION":22,
						"NORMAL":23,
						"TEXCOORD_0":24
					},
					"indices":25,
					"material":0
				},
				{
					"attributes":{
						"POSITION":26,
						"NORMAL":27,
						"TEXCOORD_0":28
					},
					"indices":29,
					"material":1
				}
			]
		}
	],
	"textures":[
		{
			"sampler":0,
			"source":0
		},
		{
			"sampler":0,
			"source":0
		},
		{
			"sampler":0,
			"source":0
		}
	],
	"images":[
		{
			"mimeType":"image/png",
			"name":"PiratesPack_TX",
			"uri":"tex/PiratesPack_TX.png"
		}
	],
	"accessors":[
		{
			"bufferView":0,
			"componentType":5126,
			"count":79,
			"max":[
				3.9999961853027344,
				4,
				15
			],
			"min":[
				-4.000003814697266,
				-4,
				2.403409957885742
			],
			"type":"VEC3"
		},
		{
			"bufferView":1,
			"componentType":5126,
			"count":79,
			"type":"VEC3"
		},
		{
			"bufferView":2,
			"componentType":5126,
			"count":79,
			"type":"VEC2"
		},
		{
			"bufferView":3,
			"componentType":5123,
			"count":213,
			"type":"SCALAR"
		},
		{
			"bufferView":4,
			"componentType":5126,
			"count":21,
			"max":[
				-2.4999780654907227,
				7.900005340576172,
				4
			],
			"min":[
				-3.4899849891662598,
				-10.850001335144043,
				-4
			],
			"type":"VEC3"
		},
		{
			"bufferView":5,
			"componentType":5126,
			"count":21,
			"type":"VEC3"
		},
		{
			"bufferView":6,
			"componentType":5126,
			"count":21,
			"type":"VEC2"
		},
		{
			"bufferView":7,
			"componentType":5123,
			"count":33,
			"type":"SCALAR"
		},
		{
			"bufferView":8,
			"componentType":5126,
			"count":36,
			"max":[
				4,
				-10.65999984741211,
				4
			],
			"min":[
				-2.9999542236328125,
				-10.899999618530273,
				-4
			],
			"type":"VEC3"
		},
		{
			"bufferView":9,
			"componentType":5126,
			"count":36,
			"type":"VEC3"
		},
		{
			"bufferView":10,
			"componentType":5126,
			"count":36,
			"type":"VEC2"
		},
		{
			"bufferView":11,
			"componentType":5123,
			"count":60,
			"type":"SCALAR"
		},
		{
			"bufferView":12,
			"componentType":5126,
			"count":40,
			"max":[
				-3.0250000953674316,
				4,
				10.334274291992188
			],
			"min":[
				-4.000003814697266,
				0.35171985626220703,
				3.403409957885742
			],
			"type":"VEC3"
		},
		{
			"bufferView":13,
			"componentType":5126,
			"count":40,
			"type":"VEC3"
		},
		{
			"bufferView":14,
			"componentType":5126,
			"count":40,
			"type":"VEC2"
		},
		{
			"bufferView":15,
			"componentType":5126,
			"count":40,
			"type":"VEC4"
		},
		{
			"bufferView":16,
			"componentType":5123,
			"count":60,
			"type":"SCALAR"
		},
		{
			"bufferView":17,
			"componentType":5126,
			"count":8,
			"max":[
				13.374984741210938,
				2.449942111968994,
				0.09059978276491165
			],
			"min":[
				6.3749847412109375,
				2.449942111968994,
				-0.09059977531433105
			],
			"type":"VEC3"
		},
		{
			"bufferView":18,
			"componentType":5126,
			"count":8,
			"type":"VEC3"
		},
		{
			"bufferView":19,
			"componentType":5126,
			"count":8,
			"type":"VEC2"
		},
		{
			"bufferView":20,
			"componentType":5126,
			"count":8,
			"type":"VEC4"
		},
		{
			"bufferView":21,
			"componentType":5123,
			"count":12,
			"type":"SCALAR"
		},
		{
			"bufferView":22,
			"componentType":5126,
			"count":89,
			"max":[
				2.4999661445617676,
				4,
				15
			],
			"min":[
				-4.000003814697266,
				-4,
				2.403409957885742
			],
			"type":"VEC3"
		},
		{
			"bufferView":23,
			"componentType":5126,
			"count":89,
			"type":"VEC3"
		},
		{
			"bufferView":24,
			"componentType":5126,
			"count":89,
			"type":"VEC2"
		},
		{
			"bufferView":25,
			"componentType":5123,
			"count":237,
			"type":"SCALAR"
		},
		{
			"bufferView":26,
			"componentType":5126,
			"count":38,
			"max":[
				-2.999999523162842,
				4,
				8.112730979919434
			],
			"min":[
				-3.0000052452087402,
				-4,
				2.403409957885742
			],
			"type":"VEC3"
		},
		{
			"bufferView":27,
			"componentType":5126,
			"count":38,
			"type":"VEC3"
		},
		{
			"bufferView":28,
			"componentType":5126,
			"count":38,
			"type":"VEC2"
		},
		{
			"bufferView":29,
			"componentType":5123,
			"count":60,
			"type":"SCALAR"
		}
	],
	"bufferViews":[
		{
			"buffer":0,
			"byteLength":948,
			"byteOffset":0,
			"target":34962
		},
		{
			"buffer":0,
			"byteLength":948,
			"byteOffset":948,
			"target":34962
		},
		{
			"buffer":0,
			"byteLength":632,
			"byteOffset":1896,
			"target":34962
		},
		{
			"buffer":0,
			"byteLength":426,
			"byteOffset":2528,
			"target":34963
		},
		{
			"buffer":0,
			"byteLength":252,
			"byteOffset":2956,
			"target":34962
		},
		{
			"buffer":0,
			"byteLength":252,
			"byteOffset":3208,
			"target":34962
		},
		{
			"buffer":0,
			"byteLength":168,
			"byteOffset":3460,
			"target":34962
		},
		{
			"buffer":0,
			"byteLength":66,
			"byteOffset":3628,
			"target":34963
		},
		{
			"buffer":0,
			"byteLength":432,
			"byteOffset":3696,
			"target":34962
		},
		{
			"buffer":0,
			"byteLength":432,
			"byteOffset":4128,
			"target":34962
		},
		{
			"buffer":0,
			"byteLength":288,
			"byteOffset":4560,
			"target":34962
		},
		{
			"buffer":0,
			"byteLength":120,
			"byteOffset":4848,
			"target":34963
		},
		{
			"buffer":0,
			"byteLength":480,
			"byteOffset":4968,
			"target":34962
		},
		{
			"buffer":0,
			"byteLength":480,
			"byteOffset":5448,
			"target":34962
		},
		{
			"buffer":0,
			"byteLength":320,
			"byteOffset":5928,
			"target":34962
		},
		{
			"buffer":0,
			"byteLength":640,
			"byteOffset":6248,
			"target":34962
		},
		{
			"buffer":0,
			"byteLength":120,
			"byteOffset":6888,
			"target":34963
		},
		{
			"buffer":0,
			"byteLength":96,
			"byteOffset":7008,
			"target":34962
		},
		{
			"buffer":0,
			"byteLength":96,
			"byteOffset":7104,
			"target":34962
		},
		{
			"buffer":0,
			"byteLength":64,
			"byteOffset":7200,
			"target":34962
		},
		{
			"buffer":0,
			"byteLength":128,
			"byteOffset":7264,
			"target":34962
		},
		{
			"buffer":0,
			"byteLength":24,
			"byteOffset":7392,
			"target":34963
		},
		{
			"buffer":0,
			"byteLength":1068,
			"byteOffset":7416,
			"target":34962
		},
		{
			"buffer":0,
			"byteLength":1068,
			"byteOffset":8484,
			"target":34962
		},
		{
			"buffer":0,
			"byteLength":712,
			"byteOffset":9552,
			"target":34962
		},
		{
			"buffer":0,
			"byteLength":474,
			"byteOffset":10264,
			"target":34963
		},
		{
			"buffer":0,
			"byteLength":456,
			"byteOffset":10740,
			"target":34962
		},
		{
			"buffer":0,
			"byteLength":456,
			"byteOffset":11196,
			"target":34962
		},
		{
			"buffer":0,
			"byteLength":304,
			"byteOffset":11652,
			"target":34962
		},
		{
			"buffer":0,
			"byteLength":120,
			"byteOffset":11956,
			"target":34963
		}
	],
	"samplers":[
		{
			"magFilter":9729,
			"minFilter":9987
		}
	],
	"buffers":[
		{
			"byteLength":12076,
			"uri":"tile_0_0_5.bin"
		}
	]
}
