{
	"asset":{
		"generator":"Khronos glTF Blender I/O v4.0.44",
		"version":"2.0"
	},
	"scene":0,
	"scenes":[
		{
			"name":"Scene",
			"nodes":[
				0,
				1,
				2,
				3,
				4
			]
		}
	],
	"nodes":[
		{
			"mesh":0,
			"name":"pipe.main_collider",
			"rotation":[
				0.7071068286895752,
				0,
				0,
				0.7071068286895752
			]
		},
		{
			"mesh":1,
			"name":"ground"
		},
		{
			"mesh":2,
			"name":"decal.main",
			"rotation":[
				0,
				-0.7071068286895752,
				0.7071068286895752,
				3.4560699191388267e-07
			]
		},
		{
			"mesh":3,
			"name":"pipe.main",
			"rotation":[
				0.7071068286895752,
				0,
				0,
				0.7071068286895752
			],
			"scale":[
				2,
				2,
				2
			]
		},
		{
			"mesh":4,
			"name":"pipe.main.rim",
			"rotation":[
				0.7071068286895752,
				0,
				0,
				0.7071068286895752
			],
			"scale":[
				2,
				2,
				2
			]
		}
	],
	"materials":[
		{
			"doubleSided":true,
			"name":"dcl.PiratesPack",
			"pbrMetallicRoughness":{
				"baseColorTexture":{
					"index":0
				},
				"metallicFactor":0
			}
		},
		{
			"doubleSided":true,
			"emissiveFactor":[
				1,
				1,
				1
			],
			"emissiveTexture":{
				"index":1
			},
			"name":"dcl.PiratesPack.emissive",
			"pbrMetallicRoughness":{
				"baseColorTexture":{
					"index":2
				},
				"metallicFactor":0
			}
		}
	],
	"meshes":[
		{
			"name":"Cylinder.339",
			"primitives":[
				{
					"attributes":{
						"POSITION":0,
						"NORMAL":1,
						"TEXCOORD_0":2
					},
					"indices":3
				}
			]
		},
		{
			"name":"Cube.343",
			"primitives":[
				{
					"attributes":{
						"POSITION":4,
						"NORMAL":5,
						"TEXCOORD_0":6,
						"TANGENT":7
					},
					"indices":8,
					"material":0
				}
			]
		},
		{
			"name":"Cylinder.340",
			"primitives":[
				{
					"attributes":{
						"POSITION":9,
						"NORMAL":10,
						"TEXCOORD_0":11,
						"TANGENT":12
					},
					"indices":13,
					"material":1
				}
			]
		},
		{
			"name":"Cylinder.341",
			"primitives":[
				{
					"attributes":{
						"POSITION":14,
						"NORMAL":15,
						"TEXCOORD_0":16
					},
					"indices":17,
					"material":0
				}
			]
		},
		{
			"name":"Cylinder.342",
			"primitives":[
				{
					"attributes":{
						"POSITION":18,
						"NORMAL":19,
						"TEXCOORD_0":20
					},
					"indices":21,
					"material":0
				}
			]
		}
	],
	"textures":[
		{
			"sampler":0,
			"source":0
		},
		{
			"sampler":0,
			"source":0
		},
		{
			"sampler":0,
			"source":0
		}
	],
	"images":[
		{
			"mimeType":"image/png",
			"name":"PiratesPack_TX",
			"uri":"tex/PiratesPack_TX.png"
		}
	],
	"accessors":[
		{
			"bufferView":0,
			"componentType":5126,
			"count":63,
			"max":[
				3.9999847412109375,
				4.000007629394531,
				10.65000057220459
			],
			"min":[
				-0.5,
				-3.9999923706054688,
				7.649913311004639
			],
			"type":"VEC3"
		},
		{
			"bufferView":1,
			"componentType":5126,
			"count":63,
			"type":"VEC3"
		},
		{
			"bufferView":2,
			"componentType":5126,
			"count":63,
			"type":"VEC2"
		},
		{
			"bufferView":3,
			"componentType":5123,
			"count":135,
			"type":"SCALAR"
		},
		{
			"bufferView":4,
			"componentType":5126,
			"count":24,
			"max":[
				4,
				-10.65999984741211,
				4
			],
			"min":[
				-4,
				-10.899999618530273,
				-4
			],
			"type":"VEC3"
		},
		{
			"bufferView":5,
			"componentType":5126,
			"count":24,
			"type":"VEC3"
		},
		{
			"bufferView":6,
			"componentType":5126,
			"count":24,
			"type":"VEC2"
		},
		{
			"bufferView":7,
			"componentType":5126,
			"count":24,
			"type":"VEC4"
		},
		{
			"bufferView":8,
			"componentType":5123,
			"count":36,
			"type":"SCALAR"
		},
		{
			"bufferView":9,
			"componentType":5126,
			"count":4,
			"max":[
				1.5000076293945312,
				4.000064849853516,
				10.625
			],
			"min":[
				1,
				-3.9999351501464844,
				10.624999046325684
			],
			"type":"VEC3"
		},
		{
			"bufferView":10,
			"componentType":5126,
			"count":4,
			"type":"VEC3"
		},
		{
			"bufferView":11,
			"componentType":5126,
			"count":4,
			"type":"VEC2"
		},
		{
			"bufferView":12,
			"componentType":5126,
			"count":4,
			"type":"VEC4"
		},
		{
			"bufferView":13,
			"componentType":5123,
			"count":6,
			"type":"SCALAR"
		},
		{
			"bufferView":14,
			"componentType":5126,
			"count":60,
			"max":[
				2.0000009536743164,
				2.0000009536743164,
				7.499999046325684
			],
			"min":[
				-0.25,
				-2,
				3.8249735832214355
			],
			"type":"VEC3"
		},
		{
			"bufferView":15,
			"componentType":5126,
			"count":60,
			"type":"VEC3"
		},
		{
			"bufferView":16,
			"componentType":5126,
			"count":60,
			"type":"VEC2"
		},
		{
			"bufferView":17,
			"componentType":5123,
			"count":114,
			"type":"SCALAR"
		},
		{
			"bufferView":18,
			"componentType":5126,
			"count":54,
			"max":[
				1.0427131652832031,
				2.0000009536743164,
				3.8675460815429688
			],
			"min":[
				0.9560160636901855,
				-2,
				3.6693220138549805
			],
			"type":"VEC3"
		},
		{
			"bufferView":19,
			"componentType":5126,
			"count":54,
			"type":"VEC3"
		},
		{
			"bufferView":20,
			"componentType":5126,
			"count":54,
			"type":"VEC2"
		},
		{
			"bufferView":21,
			"componentType":5123,
			"count":108,
			"type":"SCALAR"
		}
	],
	"bufferViews":[
		{
			"buffer":0,
			"byteLength":756,
			"byteOffset":0,
			"target":34962
		},
		{
			"buffer":0,
			"byteLength":756,
			"byteOffset":756,
			"target":34962
		},
		{
			"buffer":0,
			"byteLength":504,
			"byteOffset":1512,
			"target":34962
		},
		{
			"buffer":0,
			"byteLength":270,
			"byteOffset":2016,
			"target":34963
		},
		{
			"buffer":0,
			"byteLength":288,
			"byteOffset":2288,
			"target":34962
		},
		{
			"buffer":0,
			"byteLength":288,
			"byteOffset":2576,
			"target":34962
		},
		{
			"buffer":0,
			"byteLength":192,
			"byteOffset":2864,
			"target":34962
		},
		{
			"buffer":0,
			"byteLength":384,
			"byteOffset":3056,
			"target":34962
		},
		{
			"buffer":0,
			"byteLength":72,
			"byteOffset":3440,
			"target":34963
		},
		{
			"buffer":0,
			"byteLength":48,
			"byteOffset":3512,
			"target":34962
		},
		{
			"buffer":0,
			"byteLength":48,
			"byteOffset":3560,
			"target":34962
		},
		{
			"buffer":0,
			"byteLength":32,
			"byteOffset":3608,
			"target":34962
		},
		{
			"buffer":0,
			"byteLength":64,
			"byteOffset":3640,
			"target":34962
		},
		{
			"buffer":0,
			"byteLength":12,
			"byteOffset":3704,
			"target":34963
		},
		{
			"buffer":0,
			"byteLength":720,
			"byteOffset":3716,
			"target":34962
		},
		{
			"buffer":0,
			"byteLength":720,
			"byteOffset":4436,
			"target":34962
		},
		{
			"buffer":0,
			"byteLength":480,
			"byteOffset":5156,
			"target":34962
		},
		{
			"buffer":0,
			"byteLength":228,
			"byteOffset":5636,
			"target":34963
		},
		{
			"buffer":0,
			"byteLength":648,
			"byteOffset":5864,
			"target":34962
		},
		{
			"buffer":0,
			"byteLength":648,
			"byteOffset":6512,
			"target":34962
		},
		{
			"buffer":0,
			"byteLength":432,
			"byteOffset":7160,
			"target":34962
		},
		{
			"buffer":0,
			"byteLength":216,
			"byteOffset":7592,
			"target":34963
		}
	],
	"samplers":[
		{
			"magFilter":9729,
			"minFilter":9987
		}
	],
	"buffers":[
		{
			"byteLength":7808,
			"uri":"tile_8_0_9.bin"
		}
	]
}
