{
	"asset":{
		"generator":"Khronos glTF Blender I/O v4.0.44",
		"version":"2.0"
	},
	"scene":0,
	"scenes":[
		{
			"name":"Scene",
			"nodes":[
				0,
				1,
				2,
				3,
				4
			]
		}
	],
	"nodes":[
		{
			"mesh":0,
			"name":"pipe.main_collider",
			"rotation":[
				0.7071068286895752,
				0,
				0,
				0.7071068286895752
			]
		},
		{
			"mesh":1,
			"name":"ground"
		},
		{
			"mesh":2,
			"name":"decal.main",
			"rotation":[
				0,
				-0.7071068286895752,
				0.7071068286895752,
				3.4560699191388267e-07
			]
		},
		{
			"mesh":3,
			"name":"pipe.main",
			"rotation":[
				0.7071068286895752,
				0,
				0,
				0.7071068286895752
			],
			"scale":[
				2,
				2,
				2
			]
		},
		{
			"name":"pipe.main.rim",
			"rotation":[
				0.7071068286895752,
				0,
				0,
				0.7071068286895752
			],
			"scale":[
				2,
				2,
				2
			]
		}
	],
	"materials":[
		{
			"doubleSided":true,
			"name":"dcl.PiratesPack",
			"pbrMetallicRoughness":{
				"baseColorTexture":{
					"index":0
				},
				"metallicFactor":0
			}
		},
		{
			"doubleSided":true,
			"emissiveFactor":[
				1,
				1,
				1
			],
			"emissiveTexture":{
				"index":1
			},
			"name":"dcl.PiratesPack.emissive",
			"pbrMetallicRoughness":{
				"baseColorTexture":{
					"index":2
				},
				"metallicFactor":0
			}
		}
	],
	"meshes":[
		{
			"name":"Cylinder.294",
			"primitives":[
				{
					"attributes":{
						"POSITION":0,
						"NORMAL":1,
						"TEXCOORD_0":2,
						"TANGENT":3
					},
					"indices":4
				}
			]
		},
		{
			"name":"Cube.329",
			"primitives":[
				{
					"attributes":{
						"POSITION":5,
						"NORMAL":6,
						"TEXCOORD_0":7
					},
					"indices":8,
					"material":0
				}
			]
		},
		{
			"name":"Cylinder.295",
			"primitives":[
				{
					"attributes":{
						"POSITION":9,
						"NORMAL":10,
						"TEXCOORD_0":11,
						"TANGENT":12
					},
					"indices":13,
					"material":1
				}
			]
		},
		{
			"name":"Cylinder.296",
			"primitives":[
				{
					"attributes":{
						"POSITION":14,
						"NORMAL":15,
						"TEXCOORD_0":16,
						"TANGENT":17
					},
					"indices":18,
					"material":0
				}
			]
		}
	],
	"textures":[
		{
			"sampler":0,
			"source":0
		},
		{
			"sampler":0,
			"source":0
		},
		{
			"sampler":0,
			"source":0
		}
	],
	"images":[
		{
			"mimeType":"image/png",
			"name":"PiratesPack_TX",
			"uri":"tex/PiratesPack_TX.png"
		}
	],
	"accessors":[
		{
			"bufferView":0,
			"componentType":5126,
			"count":33,
			"max":[
				3.9999771118164062,
				-2.0738563537597656,
				10.65000057220459
			],
			"min":[
				-4.000022888183594,
				-3.9999847412109375,
				10.143961906433105
			],
			"type":"VEC3"
		},
		{
			"bufferView":1,
			"componentType":5126,
			"count":33,
			"type":"VEC3"
		},
		{
			"bufferView":2,
			"componentType":5126,
			"count":33,
			"type":"VEC2"
		},
		{
			"bufferView":3,
			"componentType":5126,
			"count":33,
			"type":"VEC4"
		},
		{
			"bufferView":4,
			"componentType":5123,
			"count":48,
			"type":"SCALAR"
		},
		{
			"bufferView":5,
			"componentType":5126,
			"count":36,
			"max":[
				4,
				-10.65999984741211,
				4
			],
			"min":[
				-4,
				-10.899999618530273,
				-4
			],
			"type":"VEC3"
		},
		{
			"bufferView":6,
			"componentType":5126,
			"count":36,
			"type":"VEC3"
		},
		{
			"bufferView":7,
			"componentType":5126,
			"count":36,
			"type":"VEC2"
		},
		{
			"bufferView":8,
			"componentType":5123,
			"count":60,
			"type":"SCALAR"
		},
		{
			"bufferView":9,
			"componentType":5126,
			"count":8,
			"max":[
				4.000034332275391,
				2.0000686645507812,
				10.625000953674316
			],
			"min":[
				-3.9999656677246094,
				0.9914703369140625,
				10.625000953674316
			],
			"type":"VEC3"
		},
		{
			"bufferView":10,
			"componentType":5126,
			"count":8,
			"type":"VEC3"
		},
		{
			"bufferView":11,
			"componentType":5126,
			"count":8,
			"type":"VEC2"
		},
		{
			"bufferView":12,
			"componentType":5126,
			"count":8,
			"type":"VEC4"
		},
		{
			"bufferView":13,
			"componentType":5123,
			"count":18,
			"type":"SCALAR"
		},
		{
			"bufferView":14,
			"componentType":5126,
			"count":24,
			"max":[
				2.0000009536743164,
				-1.0369224548339844,
				5.325000286102295
			],
			"min":[
				-1.9999990463256836,
				-2.000001907348633,
				5.071974277496338
			],
			"type":"VEC3"
		},
		{
			"bufferView":15,
			"componentType":5126,
			"count":24,
			"type":"VEC3"
		},
		{
			"bufferView":16,
			"componentType":5126,
			"count":24,
			"type":"VEC2"
		},
		{
			"bufferView":17,
			"componentType":5126,
			"count":24,
			"type":"VEC4"
		},
		{
			"bufferView":18,
			"componentType":5123,
			"count":54,
			"type":"SCALAR"
		}
	],
	"bufferViews":[
		{
			"buffer":0,
			"byteLength":396,
			"byteOffset":0,
			"target":34962
		},
		{
			"buffer":0,
			"byteLength":396,
			"byteOffset":396,
			"target":34962
		},
		{
			"buffer":0,
			"byteLength":264,
			"byteOffset":792,
			"target":34962
		},
		{
			"buffer":0,
			"byteLength":528,
			"byteOffset":1056,
			"target":34962
		},
		{
			"buffer":0,
			"byteLength":96,
			"byteOffset":1584,
			"target":34963
		},
		{
			"buffer":0,
			"byteLength":432,
			"byteOffset":1680,
			"target":34962
		},
		{
			"buffer":0,
			"byteLength":432,
			"byteOffset":2112,
			"target":34962
		},
		{
			"buffer":0,
			"byteLength":288,
			"byteOffset":2544,
			"target":34962
		},
		{
			"buffer":0,
			"byteLength":120,
			"byteOffset":2832,
			"target":34963
		},
		{
			"buffer":0,
			"byteLength":96,
			"byteOffset":2952,
			"target":34962
		},
		{
			"buffer":0,
			"byteLength":96,
			"byteOffset":3048,
			"target":34962
		},
		{
			"buffer":0,
			"byteLength":64,
			"byteOffset":3144,
			"target":34962
		},
		{
			"buffer":0,
			"byteLength":128,
			"byteOffset":3208,
			"target":34962
		},
		{
			"buffer":0,
			"byteLength":36,
			"byteOffset":3336,
			"target":34963
		},
		{
			"buffer":0,
			"byteLength":288,
			"byteOffset":3372,
			"target":34962
		},
		{
			"buffer":0,
			"byteLength":288,
			"byteOffset":3660,
			"target":34962
		},
		{
			"buffer":0,
			"byteLength":192,
			"byteOffset":3948,
			"target":34962
		},
		{
			"buffer":0,
			"byteLength":384,
			"byteOffset":4140,
			"target":34962
		},
		{
			"buffer":0,
			"byteLength":108,
			"byteOffset":4524,
			"target":34963
		}
	],
	"samplers":[
		{
			"magFilter":9729,
			"minFilter":9987
		}
	],
	"buffers":[
		{
			"byteLength":4632,
			"uri":"tile_7_0_10.bin"
		}
	]
}
