{
	"asset":{
		"generator":"Khronos glTF Blender I/O v4.0.44",
		"version":"2.0"
	},
	"scene":0,
	"scenes":[
		{
			"name":"Scene",
			"nodes":[
				0,
				1,
				2,
				3
			]
		}
	],
	"nodes":[
		{
			"mesh":0,
			"name":"pipe.main_collider",
			"rotation":[
				0.7071068286895752,
				0,
				0,
				0.7071068286895752
			]
		},
		{
			"mesh":1,
			"name":"ground"
		},
		{
			"mesh":2,
			"name":"pipe.main",
			"rotation":[
				0.7071068286895752,
				0,
				0,
				0.7071068286895752
			],
			"scale":[
				2,
				2,
				2
			]
		},
		{
			"mesh":3,
			"name":"pipe.main.rim",
			"rotation":[
				0.7071068286895752,
				0,
				0,
				0.7071068286895752
			],
			"scale":[
				2,
				2,
				2
			]
		}
	],
	"materials":[
		{
			"doubleSided":true,
			"name":"dcl.PiratesPack",
			"pbrMetallicRoughness":{
				"baseColorTexture":{
					"index":0
				},
				"metallicFactor":0
			}
		}
	],
	"meshes":[
		{
			"name":"Cylinder.358",
			"primitives":[
				{
					"attributes":{
						"POSITION":0,
						"NORMAL":1,
						"TEXCOORD_0":2
					},
					"indices":3
				}
			]
		},
		{
			"name":"Cube.348",
			"primitives":[
				{
					"attributes":{
						"POSITION":4,
						"NORMAL":5,
						"TEXCOORD_0":6,
						"TANGENT":7
					},
					"indices":8,
					"material":0
				}
			]
		},
		{
			"name":"Cylinder.359",
			"primitives":[
				{
					"attributes":{
						"POSITION":9,
						"NORMAL":10,
						"TEXCOORD_0":11
					},
					"indices":12,
					"material":0
				}
			]
		},
		{
			"name":"Cylinder.360",
			"primitives":[
				{
					"attributes":{
						"POSITION":13,
						"NORMAL":14,
						"TEXCOORD_0":15
					},
					"indices":16,
					"material":0
				}
			]
		}
	],
	"textures":[
		{
			"sampler":0,
			"source":0
		}
	],
	"images":[
		{
			"mimeType":"image/png",
			"name":"PiratesPack_TX",
			"uri":"tex/PiratesPack_TX.png"
		}
	],
	"accessors":[
		{
			"bufferView":0,
			"componentType":5126,
			"count":151,
			"max":[
				4.0000152587890625,
				4.000003814697266,
				10.555349349975586
			],
			"min":[
				-3.9999847412109375,
				-3.9999961853027344,
				7.65000057220459
			],
			"type":"VEC3"
		},
		{
			"bufferView":1,
			"componentType":5126,
			"count":151,
			"type":"VEC3"
		},
		{
			"bufferView":2,
			"componentType":5126,
			"count":151,
			"type":"VEC2"
		},
		{
			"bufferView":3,
			"componentType":5123,
			"count":261,
			"type":"SCALAR"
		},
		{
			"bufferView":4,
			"componentType":5126,
			"count":24,
			"max":[
				4,
				-10.65999984741211,
				4
			],
			"min":[
				-4,
				-10.899999618530273,
				-4
			],
			"type":"VEC3"
		},
		{
			"bufferView":5,
			"componentType":5126,
			"count":24,
			"type":"VEC3"
		},
		{
			"bufferView":6,
			"componentType":5126,
			"count":24,
			"type":"VEC2"
		},
		{
			"bufferView":7,
			"componentType":5126,
			"count":24,
			"type":"VEC4"
		},
		{
			"bufferView":8,
			"componentType":5123,
			"count":36,
			"type":"SCALAR"
		},
		{
			"bufferView":9,
			"componentType":5126,
			"count":108,
			"max":[
				2.0000011920928955,
				2,
				7.5
			],
			"min":[
				-2.0000009536743164,
				-2.0000009536743164,
				3.825000286102295
			],
			"type":"VEC3"
		},
		{
			"bufferView":10,
			"componentType":5126,
			"count":108,
			"type":"VEC3"
		},
		{
			"bufferView":11,
			"componentType":5126,
			"count":108,
			"type":"VEC2"
		},
		{
			"bufferView":12,
			"componentType":5123,
			"count":300,
			"type":"SCALAR"
		},
		{
			"bufferView":13,
			"componentType":5126,
			"count":138,
			"max":[
				2.0000011920928955,
				2,
				4.416329383850098
			],
			"min":[
				-0.7638835906982422,
				-1.8919057846069336,
				3.7923545837402344
			],
			"type":"VEC3"
		},
		{
			"bufferView":14,
			"componentType":5126,
			"count":138,
			"type":"VEC3"
		},
		{
			"bufferView":15,
			"componentType":5126,
			"count":138,
			"type":"VEC2"
		},
		{
			"bufferView":16,
			"componentType":5123,
			"count":216,
			"type":"SCALAR"
		}
	],
	"bufferViews":[
		{
			"buffer":0,
			"byteLength":1812,
			"byteOffset":0,
			"target":34962
		},
		{
			"buffer":0,
			"byteLength":1812,
			"byteOffset":1812,
			"target":34962
		},
		{
			"buffer":0,
			"byteLength":1208,
			"byteOffset":3624,
			"target":34962
		},
		{
			"buffer":0,
			"byteLength":522,
			"byteOffset":4832,
			"target":34963
		},
		{
			"buffer":0,
			"byteLength":288,
			"byteOffset":5356,
			"target":34962
		},
		{
			"buffer":0,
			"byteLength":288,
			"byteOffset":5644,
			"target":34962
		},
		{
			"buffer":0,
			"byteLength":192,
			"byteOffset":5932,
			"target":34962
		},
		{
			"buffer":0,
			"byteLength":384,
			"byteOffset":6124,
			"target":34962
		},
		{
			"buffer":0,
			"byteLength":72,
			"byteOffset":6508,
			"target":34963
		},
		{
			"buffer":0,
			"byteLength":1296,
			"byteOffset":6580,
			"target":34962
		},
		{
			"buffer":0,
			"byteLength":1296,
			"byteOffset":7876,
			"target":34962
		},
		{
			"buffer":0,
			"byteLength":864,
			"byteOffset":9172,
			"target":34962
		},
		{
			"buffer":0,
			"byteLength":600,
			"byteOffset":10036,
			"target":34963
		},
		{
			"buffer":0,
			"byteLength":1656,
			"byteOffset":10636,
			"target":34962
		},
		{
			"buffer":0,
			"byteLength":1656,
			"byteOffset":12292,
			"target":34962
		},
		{
			"buffer":0,
			"byteLength":1104,
			"byteOffset":13948,
			"target":34962
		},
		{
			"buffer":0,
			"byteLength":432,
			"byteOffset":15052,
			"target":34963
		}
	],
	"samplers":[
		{
			"magFilter":9729,
			"minFilter":9987
		}
	],
	"buffers":[
		{
			"byteLength":15484,
			"uri":"tile_9_0_2.bin"
		}
	]
}
