{
	"asset":{
		"generator":"Khronos glTF Blender I/O v4.0.44",
		"version":"2.0"
	},
	"scene":0,
	"scenes":[
		{
			"name":"Scene",
			"nodes":[
				0,
				1,
				2,
				3
			]
		}
	],
	"nodes":[
		{
			"mesh":0,
			"name":"pipe.main_collider",
			"rotation":[
				0.7071068286895752,
				0,
				0,
				0.7071068286895752
			]
		},
		{
			"mesh":1,
			"name":"ground"
		},
		{
			"mesh":2,
			"name":"pipe.main",
			"rotation":[
				0.7071068286895752,
				0,
				0,
				0.7071068286895752
			],
			"scale":[
				2,
				2,
				2
			]
		},
		{
			"mesh":3,
			"name":"pipe.main.rim",
			"rotation":[
				0.7071068286895752,
				0,
				0,
				0.7071068286895752
			],
			"scale":[
				2,
				2,
				2
			]
		}
	],
	"materials":[
		{
			"doubleSided":true,
			"name":"dcl.PiratesPack",
			"pbrMetallicRoughness":{
				"baseColorTexture":{
					"index":0
				},
				"metallicFactor":0
			}
		}
	],
	"meshes":[
		{
			"name":"Cylinder.399",
			"primitives":[
				{
					"attributes":{
						"POSITION":0,
						"NORMAL":1,
						"TEXCOORD_0":2
					},
					"indices":3
				}
			]
		},
		{
			"name":"Cube.361",
			"primitives":[
				{
					"attributes":{
						"POSITION":4,
						"NORMAL":5,
						"TEXCOORD_0":6,
						"TANGENT":7
					},
					"indices":8,
					"material":0
				}
			]
		},
		{
			"name":"Cylinder.400",
			"primitives":[
				{
					"attributes":{
						"POSITION":9,
						"NORMAL":10,
						"TEXCOORD_0":11
					},
					"indices":12,
					"material":0
				}
			]
		},
		{
			"name":"Cylinder.401",
			"primitives":[
				{
					"attributes":{
						"POSITION":13,
						"NORMAL":14,
						"TEXCOORD_0":15
					},
					"indices":16,
					"material":0
				}
			]
		}
	],
	"textures":[
		{
			"sampler":0,
			"source":0
		}
	],
	"images":[
		{
			"mimeType":"image/png",
			"name":"PiratesPack_TX",
			"uri":"tex/PiratesPack_TX.png"
		}
	],
	"accessors":[
		{
			"bufferView":0,
			"componentType":5126,
			"count":253,
			"max":[
				4.0000152587890625,
				3.999998092651367,
				10.650001525878906
			],
			"min":[
				-3.9999847412109375,
				-4.000001907348633,
				7.65000057220459
			],
			"type":"VEC3"
		},
		{
			"bufferView":1,
			"componentType":5126,
			"count":253,
			"type":"VEC3"
		},
		{
			"bufferView":2,
			"componentType":5126,
			"count":253,
			"type":"VEC2"
		},
		{
			"bufferView":3,
			"componentType":5123,
			"count":381,
			"type":"SCALAR"
		},
		{
			"bufferView":4,
			"componentType":5126,
			"count":24,
			"max":[
				4,
				-10.65999984741211,
				4
			],
			"min":[
				-4,
				-10.899999618530273,
				-4
			],
			"type":"VEC3"
		},
		{
			"bufferView":5,
			"componentType":5126,
			"count":24,
			"type":"VEC3"
		},
		{
			"bufferView":6,
			"componentType":5126,
			"count":24,
			"type":"VEC2"
		},
		{
			"bufferView":7,
			"componentType":5126,
			"count":24,
			"type":"VEC4"
		},
		{
			"bufferView":8,
			"componentType":5123,
			"count":36,
			"type":"SCALAR"
		},
		{
			"bufferView":9,
			"componentType":5126,
			"count":281,
			"max":[
				2.0000011920928955,
				2.0000009536743164,
				7.5
			],
			"min":[
				-2.0000011920928955,
				-2.0000009536743164,
				3.825000286102295
			],
			"type":"VEC3"
		},
		{
			"bufferView":10,
			"componentType":5126,
			"count":281,
			"type":"VEC3"
		},
		{
			"bufferView":11,
			"componentType":5126,
			"count":281,
			"type":"VEC2"
		},
		{
			"bufferView":12,
			"componentType":5123,
			"count":534,
			"type":"SCALAR"
		},
		{
			"bufferView":13,
			"componentType":5126,
			"count":142,
			"max":[
				2,
				1.149322509765625,
				4.431948184967041
			],
			"min":[
				-2.0000007152557373,
				-0.043025970458984375,
				3.791215419769287
			],
			"type":"VEC3"
		},
		{
			"bufferView":14,
			"componentType":5126,
			"count":142,
			"type":"VEC3"
		},
		{
			"bufferView":15,
			"componentType":5126,
			"count":142,
			"type":"VEC2"
		},
		{
			"bufferView":16,
			"componentType":5123,
			"count":216,
			"type":"SCALAR"
		}
	],
	"bufferViews":[
		{
			"buffer":0,
			"byteLength":3036,
			"byteOffset":0,
			"target":34962
		},
		{
			"buffer":0,
			"byteLength":3036,
			"byteOffset":3036,
			"target":34962
		},
		{
			"buffer":0,
			"byteLength":2024,
			"byteOffset":6072,
			"target":34962
		},
		{
			"buffer":0,
			"byteLength":762,
			"byteOffset":8096,
			"target":34963
		},
		{
			"buffer":0,
			"byteLength":288,
			"byteOffset":8860,
			"target":34962
		},
		{
			"buffer":0,
			"byteLength":288,
			"byteOffset":9148,
			"target":34962
		},
		{
			"buffer":0,
			"byteLength":192,
			"byteOffset":9436,
			"target":34962
		},
		{
			"buffer":0,
			"byteLength":384,
			"byteOffset":9628,
			"target":34962
		},
		{
			"buffer":0,
			"byteLength":72,
			"byteOffset":10012,
			"target":34963
		},
		{
			"buffer":0,
			"byteLength":3372,
			"byteOffset":10084,
			"target":34962
		},
		{
			"buffer":0,
			"byteLength":3372,
			"byteOffset":13456,
			"target":34962
		},
		{
			"buffer":0,
			"byteLength":2248,
			"byteOffset":16828,
			"target":34962
		},
		{
			"buffer":0,
			"byteLength":1068,
			"byteOffset":19076,
			"target":34963
		},
		{
			"buffer":0,
			"byteLength":1704,
			"byteOffset":20144,
			"target":34962
		},
		{
			"buffer":0,
			"byteLength":1704,
			"byteOffset":21848,
			"target":34962
		},
		{
			"buffer":0,
			"byteLength":1136,
			"byteOffset":23552,
			"target":34962
		},
		{
			"buffer":0,
			"byteLength":432,
			"byteOffset":24688,
			"target":34963
		}
	],
	"samplers":[
		{
			"magFilter":9729,
			"minFilter":9987
		}
	],
	"buffers":[
		{
			"byteLength":25120,
			"uri":"tile_10_0_3.bin"
		}
	]
}
