{
	"asset":{
		"generator":"Khronos glTF Blender I/O v4.0.44",
		"version":"2.0"
	},
	"scene":0,
	"scenes":[
		{
			"name":"Scene",
			"nodes":[
				0,
				1,
				2,
				3
			]
		}
	],
	"nodes":[
		{
			"mesh":0,
			"name":"pipe.main_collider",
			"rotation":[
				0.7071068286895752,
				0,
				0,
				0.7071068286895752
			]
		},
		{
			"mesh":1,
			"name":"ground"
		},
		{
			"mesh":2,
			"name":"pipe.main",
			"rotation":[
				0.7071068286895752,
				0,
				0,
				0.7071068286895752
			],
			"scale":[
				2,
				2,
				2
			]
		},
		{
			"mesh":3,
			"name":"pipe.main.rim",
			"rotation":[
				0.7071068286895752,
				0,
				0,
				0.7071068286895752
			],
			"scale":[
				2,
				2,
				2
			]
		}
	],
	"materials":[
		{
			"doubleSided":true,
			"name":"dcl.PiratesPack",
			"pbrMetallicRoughness":{
				"baseColorTexture":{
					"index":0
				},
				"metallicFactor":0
			}
		}
	],
	"meshes":[
		{
			"name":"Cylinder.376",
			"primitives":[
				{
					"attributes":{
						"POSITION":0,
						"NORMAL":1,
						"TEXCOORD_0":2
					},
					"indices":3
				}
			]
		},
		{
			"name":"Cube.354",
			"primitives":[
				{
					"attributes":{
						"POSITION":4,
						"NORMAL":5,
						"TEXCOORD_0":6,
						"TANGENT":7
					},
					"indices":8,
					"material":0
				}
			]
		},
		{
			"name":"Cylinder.377",
			"primitives":[
				{
					"attributes":{
						"POSITION":9,
						"NORMAL":10,
						"TEXCOORD_0":11
					},
					"indices":12,
					"material":0
				}
			]
		},
		{
			"name":"Cylinder.378",
			"primitives":[
				{
					"attributes":{
						"POSITION":13,
						"NORMAL":14,
						"TEXCOORD_0":15
					},
					"indices":16,
					"material":0
				}
			]
		}
	],
	"textures":[
		{
			"sampler":0,
			"source":0
		}
	],
	"images":[
		{
			"mimeType":"image/png",
			"name":"PiratesPack_TX",
			"uri":"tex/PiratesPack_TX.png"
		}
	],
	"accessors":[
		{
			"bufferView":0,
			"componentType":5126,
			"count":210,
			"max":[
				4.265355110168457,
				4.000011444091797,
				10.649999618530273
			],
			"min":[
				-4.0000152587890625,
				-3.9999923706054688,
				5.649999141693115
			],
			"type":"VEC3"
		},
		{
			"bufferView":1,
			"componentType":5126,
			"count":210,
			"type":"VEC3"
		},
		{
			"bufferView":2,
			"componentType":5126,
			"count":210,
			"type":"VEC2"
		},
		{
			"bufferView":3,
			"componentType":5123,
			"count":393,
			"type":"SCALAR"
		},
		{
			"bufferView":4,
			"componentType":5126,
			"count":24,
			"max":[
				4,
				-10.65999984741211,
				4
			],
			"min":[
				-4,
				-10.899999618530273,
				-4
			],
			"type":"VEC3"
		},
		{
			"bufferView":5,
			"componentType":5126,
			"count":24,
			"type":"VEC3"
		},
		{
			"bufferView":6,
			"componentType":5126,
			"count":24,
			"type":"VEC2"
		},
		{
			"bufferView":7,
			"componentType":5126,
			"count":24,
			"type":"VEC4"
		},
		{
			"bufferView":8,
			"componentType":5123,
			"count":36,
			"type":"SCALAR"
		},
		{
			"bufferView":9,
			"componentType":5126,
			"count":174,
			"max":[
				2.0000011920928955,
				2.0000009536743164,
				7.499999046325684
			],
			"min":[
				-2.0000009536743164,
				-2.0000009536743164,
				2.8249995708465576
			],
			"type":"VEC3"
		},
		{
			"bufferView":10,
			"componentType":5126,
			"count":174,
			"type":"VEC3"
		},
		{
			"bufferView":11,
			"componentType":5126,
			"count":174,
			"type":"VEC2"
		},
		{
			"bufferView":12,
			"componentType":5123,
			"count":414,
			"type":"SCALAR"
		},
		{
			"bufferView":13,
			"componentType":5126,
			"count":210,
			"max":[
				-1.2134654521942139,
				1.9999990463256836,
				3.8536059856414795
			],
			"min":[
				-1.2865335941314697,
				-2.0000009536743164,
				2.788468837738037
			],
			"type":"VEC3"
		},
		{
			"bufferView":14,
			"componentType":5126,
			"count":210,
			"type":"VEC3"
		},
		{
			"bufferView":15,
			"componentType":5126,
			"count":210,
			"type":"VEC2"
		},
		{
			"bufferView":16,
			"componentType":5123,
			"count":342,
			"type":"SCALAR"
		}
	],
	"bufferViews":[
		{
			"buffer":0,
			"byteLength":2520,
			"byteOffset":0,
			"target":34962
		},
		{
			"buffer":0,
			"byteLength":2520,
			"byteOffset":2520,
			"target":34962
		},
		{
			"buffer":0,
			"byteLength":1680,
			"byteOffset":5040,
			"target":34962
		},
		{
			"buffer":0,
			"byteLength":786,
			"byteOffset":6720,
			"target":34963
		},
		{
			"buffer":0,
			"byteLength":288,
			"byteOffset":7508,
			"target":34962
		},
		{
			"buffer":0,
			"byteLength":288,
			"byteOffset":7796,
			"target":34962
		},
		{
			"buffer":0,
			"byteLength":192,
			"byteOffset":8084,
			"target":34962
		},
		{
			"buffer":0,
			"byteLength":384,
			"byteOffset":8276,
			"target":34962
		},
		{
			"buffer":0,
			"byteLength":72,
			"byteOffset":8660,
			"target":34963
		},
		{
			"buffer":0,
			"byteLength":2088,
			"byteOffset":8732,
			"target":34962
		},
		{
			"buffer":0,
			"byteLength":2088,
			"byteOffset":10820,
			"target":34962
		},
		{
			"buffer":0,
			"byteLength":1392,
			"byteOffset":12908,
			"target":34962
		},
		{
			"buffer":0,
			"byteLength":828,
			"byteOffset":14300,
			"target":34963
		},
		{
			"buffer":0,
			"byteLength":2520,
			"byteOffset":15128,
			"target":34962
		},
		{
			"buffer":0,
			"byteLength":2520,
			"byteOffset":17648,
			"target":34962
		},
		{
			"buffer":0,
			"byteLength":1680,
			"byteOffset":20168,
			"target":34962
		},
		{
			"buffer":0,
			"byteLength":684,
			"byteOffset":21848,
			"target":34963
		}
	],
	"samplers":[
		{
			"magFilter":9729,
			"minFilter":9987
		}
	],
	"buffers":[
		{
			"byteLength":22532,
			"uri":"tile_9_0_8.bin"
		}
	]
}
