{
	"asset":{
		"generator":"Khronos glTF Blender I/O v4.0.44",
		"version":"2.0"
	},
	"scene":0,
	"scenes":[
		{
			"name":"Scene",
			"nodes":[
				0,
				1,
				2,
				3,
				4,
				5
			]
		}
	],
	"nodes":[
		{
			"mesh":0,
			"name":"pipe.west_collider",
			"rotation":[
				0,
				-0.7071068286895752,
				0.7071068286895752,
				3.4560699191388267e-07
			]
		},
		{
			"mesh":1,
			"name":"wall.west.006"
		},
		{
			"mesh":2,
			"name":"ground"
		},
		{
			"mesh":3,
			"name":"decal.main",
			"rotation":[
				0,
				-0.7071068286895752,
				0.7071068286895752,
				3.4560699191388267e-07
			]
		},
		{
			"mesh":4,
			"name":"neons.002",
			"rotation":[
				0.7071068286895752,
				-0.7071068286895752,
				0,
				1.1520234011186403e-07
			],
			"scale":[
				0.19999998807907104,
				1,
				44.15021896362305
			]
		},
		{
			"mesh":5,
			"name":"pipe.west.001",
			"rotation":[
				0,
				-0.7071068286895752,
				0.7071068286895752,
				3.4560699191388267e-07
			]
		}
	],
	"materials":[
		{
			"doubleSided":true,
			"name":"dcl.PiratesPack",
			"pbrMetallicRoughness":{
				"baseColorTexture":{
					"index":0
				},
				"metallicFactor":0
			}
		},
		{
			"doubleSided":true,
			"emissiveFactor":[
				1,
				1,
				1
			],
			"emissiveTexture":{
				"index":1
			},
			"name":"dcl.PiratesPack.emissive",
			"pbrMetallicRoughness":{
				"baseColorTexture":{
					"index":2
				},
				"metallicFactor":0
			}
		}
	],
	"meshes":[
		{
			"name":"Cylinder.037",
			"primitives":[
				{
					"attributes":{
						"POSITION":0,
						"NORMAL":1,
						"TEXCOORD_0":2
					},
					"indices":3
				}
			]
		},
		{
			"name":"Cylinder.039",
			"primitives":[
				{
					"attributes":{
						"POSITION":4,
						"NORMAL":5,
						"TEXCOORD_0":6
					},
					"indices":7,
					"material":0
				}
			]
		},
		{
			"name":"Cube.041",
			"primitives":[
				{
					"attributes":{
						"POSITION":8,
						"NORMAL":9,
						"TEXCOORD_0":10
					},
					"indices":11,
					"material":0
				}
			]
		},
		{
			"name":"Cylinder.040",
			"primitives":[
				{
					"attributes":{
						"POSITION":12,
						"NORMAL":13,
						"TEXCOORD_0":14,
						"TANGENT":15
					},
					"indices":16,
					"material":1
				}
			]
		},
		{
			"name":"Plane.008",
			"primitives":[
				{
					"attributes":{
						"POSITION":17,
						"NORMAL":18,
						"TEXCOORD_0":19,
						"TANGENT":20
					},
					"indices":21,
					"material":1
				}
			]
		},
		{
			"name":"Cylinder.041",
			"primitives":[
				{
					"attributes":{
						"POSITION":22,
						"NORMAL":23,
						"TEXCOORD_0":24
					},
					"indices":25,
					"material":0
				},
				{
					"attributes":{
						"POSITION":26,
						"NORMAL":27,
						"TEXCOORD_0":28
					},
					"indices":29,
					"material":1
				}
			]
		}
	],
	"textures":[
		{
			"sampler":0,
			"source":0
		},
		{
			"sampler":0,
			"source":0
		},
		{
			"sampler":0,
			"source":0
		}
	],
	"images":[
		{
			"mimeType":"image/png",
			"name":"PiratesPack_TX",
			"uri":"tex/PiratesPack_TX.png"
		}
	],
	"accessors":[
		{
			"bufferView":0,
			"componentType":5126,
			"count":84,
			"max":[
				4.000004291534424,
				4,
				15
			],
			"min":[
				-3.999995708465576,
				-4,
				2.403409957885742
			],
			"type":"VEC3"
		},
		{
			"bufferView":1,
			"componentType":5126,
			"count":84,
			"type":"VEC3"
		},
		{
			"bufferView":2,
			"componentType":5126,
			"count":84,
			"type":"VEC2"
		},
		{
			"bufferView":3,
			"componentType":5123,
			"count":216,
			"type":"SCALAR"
		},
		{
			"bufferView":4,
			"componentType":5126,
			"count":21,
			"max":[
				-2.499983787536621,
				7.900005340576172,
				4
			],
			"min":[
				-3.4899849891662598,
				-10.85000228881836,
				-4
			],
			"type":"VEC3"
		},
		{
			"bufferView":5,
			"componentType":5126,
			"count":21,
			"type":"VEC3"
		},
		{
			"bufferView":6,
			"componentType":5126,
			"count":21,
			"type":"VEC2"
		},
		{
			"bufferView":7,
			"componentType":5123,
			"count":33,
			"type":"SCALAR"
		},
		{
			"bufferView":8,
			"componentType":5126,
			"count":36,
			"max":[
				4,
				-10.65999984741211,
				4
			],
			"min":[
				-2.9999542236328125,
				-10.899999618530273,
				-4
			],
			"type":"VEC3"
		},
		{
			"bufferView":9,
			"componentType":5126,
			"count":36,
			"type":"VEC3"
		},
		{
			"bufferView":10,
			"componentType":5126,
			"count":36,
			"type":"VEC2"
		},
		{
			"bufferView":11,
			"componentType":5123,
			"count":60,
			"type":"SCALAR"
		},
		{
			"bufferView":12,
			"componentType":5126,
			"count":36,
			"max":[
				-3.0249924659729004,
				-1.1490297317504883,
				10.334274291992188
			],
			"min":[
				-3.999995708465576,
				-4,
				3.403409957885742
			],
			"type":"VEC3"
		},
		{
			"bufferView":13,
			"componentType":5126,
			"count":36,
			"type":"VEC3"
		},
		{
			"bufferView":14,
			"componentType":5126,
			"count":36,
			"type":"VEC2"
		},
		{
			"bufferView":15,
			"componentType":5126,
			"count":36,
			"type":"VEC4"
		},
		{
			"bufferView":16,
			"componentType":5123,
			"count":54,
			"type":"SCALAR"
		},
		{
			"bufferView":17,
			"componentType":5126,
			"count":8,
			"max":[
				13.374984741210938,
				2.4499449729919434,
				0.0905998945236206
			],
			"min":[
				6.3749847412109375,
				2.4499449729919434,
				-0.0905996635556221
			],
			"type":"VEC3"
		},
		{
			"bufferView":18,
			"componentType":5126,
			"count":8,
			"type":"VEC3"
		},
		{
			"bufferView":19,
			"componentType":5126,
			"count":8,
			"type":"VEC2"
		},
		{
			"bufferView":20,
			"componentType":5126,
			"count":8,
			"type":"VEC4"
		},
		{
			"bufferView":21,
			"componentType":5123,
			"count":12,
			"type":"SCALAR"
		},
		{
			"bufferView":22,
			"componentType":5126,
			"count":85,
			"max":[
				4.000004291534424,
				4,
				15
			],
			"min":[
				-3.999995708465576,
				-4,
				2.403409957885742
			],
			"type":"VEC3"
		},
		{
			"bufferView":23,
			"componentType":5126,
			"count":85,
			"type":"VEC3"
		},
		{
			"bufferView":24,
			"componentType":5126,
			"count":85,
			"type":"VEC2"
		},
		{
			"bufferView":25,
			"componentType":5123,
			"count":213,
			"type":"SCALAR"
		},
		{
			"bufferView":26,
			"componentType":5126,
			"count":40,
			"max":[
				-2.9999914169311523,
				4,
				8.15999698638916
			],
			"min":[
				-2.999997854232788,
				-4,
				2.403409957885742
			],
			"type":"VEC3"
		},
		{
			"bufferView":27,
			"componentType":5126,
			"count":40,
			"type":"VEC3"
		},
		{
			"bufferView":28,
			"componentType":5126,
			"count":40,
			"type":"VEC2"
		},
		{
			"bufferView":29,
			"componentType":5123,
			"count":60,
			"type":"SCALAR"
		}
	],
	"bufferViews":[
		{
			"buffer":0,
			"byteLength":1008,
			"byteOffset":0,
			"target":34962
		},
		{
			"buffer":0,
			"byteLength":1008,
			"byteOffset":1008,
			"target":34962
		},
		{
			"buffer":0,
			"byteLength":672,
			"byteOffset":2016,
			"target":34962
		},
		{
			"buffer":0,
			"byteLength":432,
			"byteOffset":2688,
			"target":34963
		},
		{
			"buffer":0,
			"byteLength":252,
			"byteOffset":3120,
			"target":34962
		},
		{
			"buffer":0,
			"byteLength":252,
			"byteOffset":3372,
			"target":34962
		},
		{
			"buffer":0,
			"byteLength":168,
			"byteOffset":3624,
			"target":34962
		},
		{
			"buffer":0,
			"byteLength":66,
			"byteOffset":3792,
			"target":34963
		},
		{
			"buffer":0,
			"byteLength":432,
			"byteOffset":3860,
			"target":34962
		},
		{
			"buffer":0,
			"byteLength":432,
			"byteOffset":4292,
			"target":34962
		},
		{
			"buffer":0,
			"byteLength":288,
			"byteOffset":4724,
			"target":34962
		},
		{
			"buffer":0,
			"byteLength":120,
			"byteOffset":5012,
			"target":34963
		},
		{
			"buffer":0,
			"byteLength":432,
			"byteOffset":5132,
			"target":34962
		},
		{
			"buffer":0,
			"byteLength":432,
			"byteOffset":5564,
			"target":34962
		},
		{
			"buffer":0,
			"byteLength":288,
			"byteOffset":5996,
			"target":34962
		},
		{
			"buffer":0,
			"byteLength":576,
			"byteOffset":6284,
			"target":34962
		},
		{
			"buffer":0,
			"byteLength":108,
			"byteOffset":6860,
			"target":34963
		},
		{
			"buffer":0,
			"byteLength":96,
			"byteOffset":6968,
			"target":34962
		},
		{
			"buffer":0,
			"byteLength":96,
			"byteOffset":7064,
			"target":34962
		},
		{
			"buffer":0,
			"byteLength":64,
			"byteOffset":7160,
			"target":34962
		},
		{
			"buffer":0,
			"byteLength":128,
			"byteOffset":7224,
			"target":34962
		},
		{
			"buffer":0,
			"byteLength":24,
			"byteOffset":7352,
			"target":34963
		},
		{
			"buffer":0,
			"byteLength":1020,
			"byteOffset":7376,
			"target":34962
		},
		{
			"buffer":0,
			"byteLength":1020,
			"byteOffset":8396,
			"target":34962
		},
		{
			"buffer":0,
			"byteLength":680,
			"byteOffset":9416,
			"target":34962
		},
		{
			"buffer":0,
			"byteLength":426,
			"byteOffset":10096,
			"target":34963
		},
		{
			"buffer":0,
			"byteLength":480,
			"byteOffset":10524,
			"target":34962
		},
		{
			"buffer":0,
			"byteLength":480,
			"byteOffset":11004,
			"target":34962
		},
		{
			"buffer":0,
			"byteLength":320,
			"byteOffset":11484,
			"target":34962
		},
		{
			"buffer":0,
			"byteLength":120,
			"byteOffset":11804,
			"target":34963
		}
	],
	"samplers":[
		{
			"magFilter":9729,
			"minFilter":9987
		}
	],
	"buffers":[
		{
			"byteLength":11924,
			"uri":"tile_0_0_6.bin"
		}
	]
}
