{
	"asset":{
		"generator":"Khronos glTF Blender I/O v4.0.44",
		"version":"2.0"
	},
	"scene":0,
	"scenes":[
		{
			"name":"Scene",
			"nodes":[
				0,
				1,
				2,
				3,
				4,
				5,
				6,
				7,
				8,
				9,
				10
			]
		}
	],
	"nodes":[
		{
			"name":"pipe.main_collider",
			"rotation":[
				0.7071068286895752,
				0,
				0,
				0.7071068286895752
			]
		},
		{
			"mesh":0,
			"name":"dropin-pillar.01_collider",
			"rotation":[
				0.5000002384185791,
				-0.4999997615814209,
				0.4999997615814209,
				0.5000002384185791
			]
		},
		{
			"mesh":1,
			"name":"dropin-pillar.001_box_collider"
		},
		{
			"mesh":2,
			"name":"dropin-pillar.005_box_collider"
		},
		{
			"mesh":3,
			"name":"dropin-pillar.007_box_collider",
			"rotation":[
				0,
				-1,
				0,
				1.6292068494294654e-07
			],
			"scale":[
				0.2649359703063965,
				0.7622181177139282,
				3.020394802093506
			]
		},
		{
			"mesh":4,
			"name":"ground"
		},
		{
			"mesh":5,
			"name":"decal.main",
			"rotation":[
				0,
				-0.7071068286895752,
				0.7071068286895752,
				3.4560699191388267e-07
			]
		},
		{
			"mesh":6,
			"name":"dropin-pillar.01",
			"rotation":[
				0.5000002384185791,
				-0.4999997615814209,
				0.4999997615814209,
				0.5000002384185791
			],
			"scale":[
				3,
				3,
				3
			]
		},
		{
			"mesh":7,
			"name":"dropin-pillar.01.flag",
			"rotation":[
				0,
				-0.7071068286895752,
				0.7071068286895752,
				1.1520233300643667e-07
			],
			"scale":[
				2,
				2,
				2
			]
		},
		{
			"name":"pipe.main",
			"rotation":[
				0.7071068286895752,
				0,
				0,
				0.7071068286895752
			],
			"scale":[
				2,
				2,
				2
			]
		},
		{
			"name":"pipe.main.rim",
			"rotation":[
				0.7071068286895752,
				0,
				0,
				0.7071068286895752
			],
			"scale":[
				2,
				2,
				2
			]
		}
	],
	"materials":[
		{
			"doubleSided":true,
			"name":"dcl.PiratesPack",
			"pbrMetallicRoughness":{
				"baseColorTexture":{
					"index":0
				},
				"metallicFactor":0
			}
		},
		{
			"doubleSided":true,
			"emissiveFactor":[
				1,
				1,
				1
			],
			"emissiveTexture":{
				"index":1
			},
			"name":"dcl.PiratesPack.emissive",
			"pbrMetallicRoughness":{
				"baseColorTexture":{
					"index":2
				},
				"metallicFactor":0
			}
		}
	],
	"meshes":[
		{
			"name":"Cylinder.220",
			"primitives":[
				{
					"attributes":{
						"POSITION":0,
						"NORMAL":1,
						"TEXCOORD_0":2
					},
					"indices":3
				}
			]
		},
		{
			"name":"Cube.278",
			"primitives":[
				{
					"attributes":{
						"POSITION":4,
						"NORMAL":5,
						"TEXCOORD_0":6,
						"TANGENT":7
					},
					"indices":8
				}
			]
		},
		{
			"name":"Cube.279",
			"primitives":[
				{
					"attributes":{
						"POSITION":9,
						"NORMAL":10,
						"TEXCOORD_0":11,
						"TANGENT":12
					},
					"indices":8
				}
			]
		},
		{
			"name":"Cube.280",
			"primitives":[
				{
					"attributes":{
						"POSITION":13,
						"NORMAL":14,
						"TEXCOORD_0":15,
						"TANGENT":16
					},
					"indices":17
				}
			]
		},
		{
			"name":"Cube.281",
			"primitives":[
				{
					"attributes":{
						"POSITION":18,
						"NORMAL":19,
						"TEXCOORD_0":20,
						"TANGENT":21
					},
					"indices":22,
					"material":0
				}
			]
		},
		{
			"name":"Cylinder.221",
			"primitives":[
				{
					"attributes":{
						"POSITION":23,
						"NORMAL":24,
						"TEXCOORD_0":25,
						"TANGENT":26
					},
					"indices":27,
					"material":1
				}
			]
		},
		{
			"name":"Cylinder.222",
			"primitives":[
				{
					"attributes":{
						"POSITION":28,
						"NORMAL":29,
						"TEXCOORD_0":30
					},
					"indices":31,
					"material":0
				}
			]
		},
		{
			"name":"Cylinder.223",
			"primitives":[
				{
					"attributes":{
						"POSITION":32,
						"NORMAL":33,
						"TEXCOORD_0":34
					},
					"indices":35,
					"material":0
				}
			]
		}
	],
	"textures":[
		{
			"sampler":0,
			"source":0
		},
		{
			"sampler":0,
			"source":0
		},
		{
			"sampler":0,
			"source":0
		}
	],
	"images":[
		{
			"mimeType":"image/png",
			"name":"PiratesPack_TX",
			"uri":"tex/PiratesPack_TX.png"
		}
	],
	"accessors":[
		{
			"bufferView":0,
			"componentType":5126,
			"count":83,
			"max":[
				3.9999961853027344,
				3.9999961853027344,
				15
			],
			"min":[
				-4.000003814697266,
				-3.107656478881836,
				6.293066024780273
			],
			"type":"VEC3"
		},
		{
			"bufferView":1,
			"componentType":5126,
			"count":83,
			"type":"VEC3"
		},
		{
			"bufferView":2,
			"componentType":5126,
			"count":83,
			"type":"VEC2"
		},
		{
			"bufferView":3,
			"componentType":5123,
			"count":240,
			"type":"SCALAR"
		},
		{
			"bufferView":4,
			"componentType":5126,
			"count":24,
			"max":[
				-0.6416419148445129,
				-4.790685653686523,
				0.34597158432006836
			],
			"min":[
				-1.8821618556976318,
				-10.290685653686523,
				-0.7504363059997559
			],
			"type":"VEC3"
		},
		{
			"bufferView":5,
			"componentType":5126,
			"count":24,
			"type":"VEC3"
		},
		{
			"bufferView":6,
			"componentType":5126,
			"count":24,
			"type":"VEC2"
		},
		{
			"bufferView":7,
			"componentType":5126,
			"count":24,
			"type":"VEC4"
		},
		{
			"bufferView":8,
			"componentType":5123,
			"count":36,
			"type":"SCALAR"
		},
		{
			"bufferView":9,
			"componentType":5126,
			"count":24,
			"max":[
				-1.0342411994934082,
				-0.29633235931396484,
				-0.001019209623336792
			],
			"min":[
				-1.4895625114440918,
				-5.1272783279418945,
				-0.4034455120563507
			],
			"type":"VEC3"
		},
		{
			"bufferView":10,
			"componentType":5126,
			"count":24,
			"type":"VEC3"
		},
		{
			"bufferView":11,
			"componentType":5126,
			"count":24,
			"type":"VEC2"
		},
		{
			"bufferView":12,
			"componentType":5126,
			"count":24,
			"type":"VEC4"
		},
		{
			"bufferView":13,
			"componentType":5126,
			"count":24,
			"max":[
				5.7658233642578125,
				-0.417213499546051,
				1.324329137802124
			],
			"min":[
				3.7658233642578125,
				-2.4172134399414062,
				-0.005316674709320068
			],
			"type":"VEC3"
		},
		{
			"bufferView":14,
			"componentType":5126,
			"count":24,
			"type":"VEC3"
		},
		{
			"bufferView":15,
			"componentType":5126,
			"count":24,
			"type":"VEC2"
		},
		{
			"bufferView":16,
			"componentType":5126,
			"count":24,
			"type":"VEC4"
		},
		{
			"bufferView":17,
			"componentType":5123,
			"count":36,
			"type":"SCALAR"
		},
		{
			"bufferView":18,
			"componentType":5126,
			"count":24,
			"max":[
				4,
				-10.65999984741211,
				4
			],
			"min":[
				-4,
				-10.899999618530273,
				-4
			],
			"type":"VEC3"
		},
		{
			"bufferView":19,
			"componentType":5126,
			"count":24,
			"type":"VEC3"
		},
		{
			"bufferView":20,
			"componentType":5126,
			"count":24,
			"type":"VEC2"
		},
		{
			"bufferView":21,
			"componentType":5126,
			"count":24,
			"type":"VEC4"
		},
		{
			"bufferView":22,
			"componentType":5123,
			"count":36,
			"type":"SCALAR"
		},
		{
			"bufferView":23,
			"componentType":5126,
			"count":14,
			"max":[
				-3.8576507568359375,
				4.0000457763671875,
				10.630559921264648
			],
			"min":[
				-4.000003814697266,
				-3.9999542236328125,
				10.630500793457031
			],
			"type":"VEC3"
		},
		{
			"bufferView":24,
			"componentType":5126,
			"count":14,
			"type":"VEC3"
		},
		{
			"bufferView":25,
			"componentType":5126,
			"count":14,
			"type":"VEC2"
		},
		{
			"bufferView":26,
			"componentType":5126,
			"count":14,
			"type":"VEC4"
		},
		{
			"bufferView":27,
			"componentType":5123,
			"count":18,
			"type":"SCALAR"
		},
		{
			"bufferView":28,
			"componentType":5126,
			"count":397,
			"max":[
				1.3333353996276855,
				1.3333346843719482,
				4.999999523162842
			],
			"min":[
				-1.3333337306976318,
				-1.035888671875,
				1.5976879596710205
			],
			"type":"VEC3"
		},
		{
			"bufferView":29,
			"componentType":5126,
			"count":397,
			"type":"VEC3"
		},
		{
			"bufferView":30,
			"componentType":5126,
			"count":397,
			"type":"VEC2"
		},
		{
			"bufferView":31,
			"componentType":5123,
			"count":1017,
			"type":"SCALAR"
		},
		{
			"bufferView":32,
			"componentType":5126,
			"count":52,
			"max":[
				0.741830587387085,
				2,
				2.396533489227295
			],
			"min":[
				0.5468301773071289,
				-0.018895983695983887,
				0.14653348922729492
			],
			"type":"VEC3"
		},
		{
			"bufferView":33,
			"componentType":5126,
			"count":52,
			"type":"VEC3"
		},
		{
			"bufferView":34,
			"componentType":5126,
			"count":52,
			"type":"VEC2"
		},
		{
			"bufferView":35,
			"componentType":5123,
			"count":114,
			"type":"SCALAR"
		}
	],
	"bufferViews":[
		{
			"buffer":0,
			"byteLength":996,
			"byteOffset":0,
			"target":34962
		},
		{
			"buffer":0,
			"byteLength":996,
			"byteOffset":996,
			"target":34962
		},
		{
			"buffer":0,
			"byteLength":664,
			"byteOffset":1992,
			"target":34962
		},
		{
			"buffer":0,
			"byteLength":480,
			"byteOffset":2656,
			"target":34963
		},
		{
			"buffer":0,
			"byteLength":288,
			"byteOffset":3136,
			"target":34962
		},
		{
			"buffer":0,
			"byteLength":288,
			"byteOffset":3424,
			"target":34962
		},
		{
			"buffer":0,
			"byteLength":192,
			"byteOffset":3712,
			"target":34962
		},
		{
			"buffer":0,
			"byteLength":384,
			"byteOffset":3904,
			"target":34962
		},
		{
			"buffer":0,
			"byteLength":72,
			"byteOffset":4288,
			"target":34963
		},
		{
			"buffer":0,
			"byteLength":288,
			"byteOffset":4360,
			"target":34962
		},
		{
			"buffer":0,
			"byteLength":288,
			"byteOffset":4648,
			"target":34962
		},
		{
			"buffer":0,
			"byteLength":192,
			"byteOffset":4936,
			"target":34962
		},
		{
			"buffer":0,
			"byteLength":384,
			"byteOffset":5128,
			"target":34962
		},
		{
			"buffer":0,
			"byteLength":288,
			"byteOffset":5512,
			"target":34962
		},
		{
			"buffer":0,
			"byteLength":288,
			"byteOffset":5800,
			"target":34962
		},
		{
			"buffer":0,
			"byteLength":192,
			"byteOffset":6088,
			"target":34962
		},
		{
			"buffer":0,
			"byteLength":384,
			"byteOffset":6280,
			"target":34962
		},
		{
			"buffer":0,
			"byteLength":72,
			"byteOffset":6664,
			"target":34963
		},
		{
			"buffer":0,
			"byteLength":288,
			"byteOffset":6736,
			"target":34962
		},
		{
			"buffer":0,
			"byteLength":288,
			"byteOffset":7024,
			"target":34962
		},
		{
			"buffer":0,
			"byteLength":192,
			"byteOffset":7312,
			"target":34962
		},
		{
			"buffer":0,
			"byteLength":384,
			"byteOffset":7504,
			"target":34962
		},
		{
			"buffer":0,
			"byteLength":72,
			"byteOffset":7888,
			"target":34963
		},
		{
			"buffer":0,
			"byteLength":168,
			"byteOffset":7960,
			"target":34962
		},
		{
			"buffer":0,
			"byteLength":168,
			"byteOffset":8128,
			"target":34962
		},
		{
			"buffer":0,
			"byteLength":112,
			"byteOffset":8296,
			"target":34962
		},
		{
			"buffer":0,
			"byteLength":224,
			"byteOffset":8408,
			"target":34962
		},
		{
			"buffer":0,
			"byteLength":36,
			"byteOffset":8632,
			"target":34963
		},
		{
			"buffer":0,
			"byteLength":4764,
			"byteOffset":8668,
			"target":34962
		},
		{
			"buffer":0,
			"byteLength":4764,
			"byteOffset":13432,
			"target":34962
		},
		{
			"buffer":0,
			"byteLength":3176,
			"byteOffset":18196,
			"target":34962
		},
		{
			"buffer":0,
			"byteLength":2034,
			"byteOffset":21372,
			"target":34963
		},
		{
			"buffer":0,
			"byteLength":624,
			"byteOffset":23408,
			"target":34962
		},
		{
			"buffer":0,
			"byteLength":624,
			"byteOffset":24032,
			"target":34962
		},
		{
			"buffer":0,
			"byteLength":416,
			"byteOffset":24656,
			"target":34962
		},
		{
			"buffer":0,
			"byteLength":228,
			"byteOffset":25072,
			"target":34963
		}
	],
	"samplers":[
		{
			"magFilter":9729,
			"minFilter":9987
		}
	],
	"buffers":[
		{
			"byteLength":25300,
			"uri":"tile_6_0_5.bin"
		}
	]
}
