{
	"asset":{
		"generator":"Khronos glTF Blender I/O v4.0.44",
		"version":"2.0"
	},
	"scene":0,
	"scenes":[
		{
			"name":"Scene",
			"nodes":[
				0,
				1,
				2,
				3,
				4
			]
		}
	],
	"nodes":[
		{
			"mesh":0,
			"name":"entrance.pillar.001_collider",
			"rotation":[
				0.7071068286895752,
				0,
				0,
				0.7071068286895752
			]
		},
		{
			"mesh":1,
			"name":"ground"
		},
		{
			"name":"decal.main",
			"rotation":[
				0,
				-0.7071068286895752,
				0.7071068286895752,
				3.4560699191388267e-07
			]
		},
		{
			"mesh":2,
			"name":"decal.ramp.branches",
			"rotation":[
				0,
				-1,
				0,
				1.6292068494294654e-07
			],
			"scale":[
				1.5,
				1.5,
				1.5
			]
		},
		{
			"mesh":3,
			"name":"tyre_007.004",
			"rotation":[
				0.7071068286895752,
				0,
				0,
				0.7071068286895752
			]
		}
	],
	"materials":[
		{
			"doubleSided":true,
			"name":"dcl.PiratesPack",
			"pbrMetallicRoughness":{
				"baseColorTexture":{
					"index":0
				},
				"metallicFactor":0
			}
		},
		{
			"doubleSided":true,
			"emissiveFactor":[
				1,
				1,
				1
			],
			"emissiveTexture":{
				"index":1
			},
			"name":"dcl.PiratesPack.emissive",
			"pbrMetallicRoughness":{
				"baseColorTexture":{
					"index":2
				},
				"metallicFactor":0
			}
		}
	],
	"meshes":[
		{
			"name":"Cube.194",
			"primitives":[
				{
					"attributes":{
						"POSITION":0,
						"NORMAL":1,
						"TEXCOORD_0":2
					},
					"indices":3
				}
			]
		},
		{
			"name":"Cube.195",
			"primitives":[
				{
					"attributes":{
						"POSITION":4,
						"NORMAL":5,
						"TEXCOORD_0":6,
						"TANGENT":7
					},
					"indices":8,
					"material":0
				}
			]
		},
		{
			"name":"Cube.196",
			"primitives":[
				{
					"attributes":{
						"POSITION":9,
						"NORMAL":10,
						"TEXCOORD_0":11,
						"TANGENT":12
					},
					"indices":13,
					"material":1
				}
			]
		},
		{
			"name":"Cube.197",
			"primitives":[
				{
					"attributes":{
						"POSITION":14,
						"NORMAL":15,
						"TEXCOORD_0":16,
						"TANGENT":17
					},
					"indices":18,
					"material":0
				}
			]
		}
	],
	"textures":[
		{
			"sampler":0,
			"source":0
		},
		{
			"sampler":0,
			"source":0
		},
		{
			"sampler":0,
			"source":0
		}
	],
	"images":[
		{
			"mimeType":"image/png",
			"name":"PiratesPack_TX",
			"uri":"tex/PiratesPack_TX.png"
		}
	],
	"accessors":[
		{
			"bufferView":0,
			"componentType":5126,
			"count":26,
			"max":[
				-3.422991991043091,
				4.000000476837158,
				10.45959186553955
			],
			"min":[
				-4,
				3.8948516845703125,
				2.0826258659362793
			],
			"type":"VEC3"
		},
		{
			"bufferView":1,
			"componentType":5126,
			"count":26,
			"type":"VEC3"
		},
		{
			"bufferView":2,
			"componentType":5126,
			"count":26,
			"type":"VEC2"
		},
		{
			"bufferView":3,
			"componentType":5123,
			"count":48,
			"type":"SCALAR"
		},
		{
			"bufferView":4,
			"componentType":5126,
			"count":24,
			"max":[
				4,
				-10.65999984741211,
				4
			],
			"min":[
				-4,
				-10.899999618530273,
				-4
			],
			"type":"VEC3"
		},
		{
			"bufferView":5,
			"componentType":5126,
			"count":24,
			"type":"VEC3"
		},
		{
			"bufferView":6,
			"componentType":5126,
			"count":24,
			"type":"VEC2"
		},
		{
			"bufferView":7,
			"componentType":5126,
			"count":24,
			"type":"VEC4"
		},
		{
			"bufferView":8,
			"componentType":5123,
			"count":36,
			"type":"SCALAR"
		},
		{
			"bufferView":9,
			"componentType":5126,
			"count":3,
			"max":[
				-2.229886054992676,
				-7.093332290649414,
				2.6666626930236816
			],
			"min":[
				-2.6666746139526367,
				-7.093332290649414,
				2.2377514839172363
			],
			"type":"VEC3"
		},
		{
			"bufferView":10,
			"componentType":5126,
			"count":3,
			"type":"VEC3"
		},
		{
			"bufferView":11,
			"componentType":5126,
			"count":3,
			"type":"VEC2"
		},
		{
			"bufferView":12,
			"componentType":5126,
			"count":3,
			"type":"VEC4"
		},
		{
			"bufferView":13,
			"componentType":5123,
			"count":3,
			"type":"SCALAR"
		},
		{
			"bufferView":14,
			"componentType":5126,
			"count":14,
			"max":[
				-3.548990488052368,
				4.000000476837158,
				6.456685543060303
			],
			"min":[
				-4,
				3.9102890491485596,
				4.708564281463623
			],
			"type":"VEC3"
		},
		{
			"bufferView":15,
			"componentType":5126,
			"count":14,
			"type":"VEC3"
		},
		{
			"bufferView":16,
			"componentType":5126,
			"count":14,
			"type":"VEC2"
		},
		{
			"bufferView":17,
			"componentType":5126,
			"count":14,
			"type":"VEC4"
		},
		{
			"bufferView":18,
			"componentType":5123,
			"count":24,
			"type":"SCALAR"
		}
	],
	"bufferViews":[
		{
			"buffer":0,
			"byteLength":312,
			"byteOffset":0,
			"target":34962
		},
		{
			"buffer":0,
			"byteLength":312,
			"byteOffset":312,
			"target":34962
		},
		{
			"buffer":0,
			"byteLength":208,
			"byteOffset":624,
			"target":34962
		},
		{
			"buffer":0,
			"byteLength":96,
			"byteOffset":832,
			"target":34963
		},
		{
			"buffer":0,
			"byteLength":288,
			"byteOffset":928,
			"target":34962
		},
		{
			"buffer":0,
			"byteLength":288,
			"byteOffset":1216,
			"target":34962
		},
		{
			"buffer":0,
			"byteLength":192,
			"byteOffset":1504,
			"target":34962
		},
		{
			"buffer":0,
			"byteLength":384,
			"byteOffset":1696,
			"target":34962
		},
		{
			"buffer":0,
			"byteLength":72,
			"byteOffset":2080,
			"target":34963
		},
		{
			"buffer":0,
			"byteLength":36,
			"byteOffset":2152,
			"target":34962
		},
		{
			"buffer":0,
			"byteLength":36,
			"byteOffset":2188,
			"target":34962
		},
		{
			"buffer":0,
			"byteLength":24,
			"byteOffset":2224,
			"target":34962
		},
		{
			"buffer":0,
			"byteLength":48,
			"byteOffset":2248,
			"target":34962
		},
		{
			"buffer":0,
			"byteLength":6,
			"byteOffset":2296,
			"target":34963
		},
		{
			"buffer":0,
			"byteLength":168,
			"byteOffset":2304,
			"target":34962
		},
		{
			"buffer":0,
			"byteLength":168,
			"byteOffset":2472,
			"target":34962
		},
		{
			"buffer":0,
			"byteLength":112,
			"byteOffset":2640,
			"target":34962
		},
		{
			"buffer":0,
			"byteLength":224,
			"byteOffset":2752,
			"target":34962
		},
		{
			"buffer":0,
			"byteLength":48,
			"byteOffset":2976,
			"target":34963
		}
	],
	"samplers":[
		{
			"magFilter":9729,
			"minFilter":9987
		}
	],
	"buffers":[
		{
			"byteLength":3024,
			"uri":"tile_4_0_1.bin"
		}
	]
}
