{
	"asset":{
		"generator":"Khronos glTF Blender I/O v4.0.44",
		"version":"2.0"
	},
	"scene":0,
	"scenes":[
		{
			"name":"Scene",
			"nodes":[
				0,
				1,
				2,
				3
			]
		}
	],
	"nodes":[
		{
			"mesh":0,
			"name":"pipe.main_collider",
			"rotation":[
				0.7071068286895752,
				0,
				0,
				0.7071068286895752
			]
		},
		{
			"mesh":1,
			"name":"ground"
		},
		{
			"mesh":2,
			"name":"pipe.main",
			"rotation":[
				0.7071068286895752,
				0,
				0,
				0.7071068286895752
			],
			"scale":[
				2,
				2,
				2
			]
		},
		{
			"mesh":3,
			"name":"pipe.main.rim",
			"rotation":[
				0.7071068286895752,
				0,
				0,
				0.7071068286895752
			],
			"scale":[
				2,
				2,
				2
			]
		}
	],
	"materials":[
		{
			"doubleSided":true,
			"name":"dcl.PiratesPack",
			"pbrMetallicRoughness":{
				"baseColorTexture":{
					"index":0
				},
				"metallicFactor":0
			}
		}
	],
	"meshes":[
		{
			"name":"Cylinder.396",
			"primitives":[
				{
					"attributes":{
						"POSITION":0,
						"NORMAL":1,
						"TEXCOORD_0":2
					},
					"indices":3
				}
			]
		},
		{
			"name":"Cube.360",
			"primitives":[
				{
					"attributes":{
						"POSITION":4,
						"NORMAL":5,
						"TEXCOORD_0":6,
						"TANGENT":7
					},
					"indices":8,
					"material":0
				}
			]
		},
		{
			"name":"Cylinder.397",
			"primitives":[
				{
					"attributes":{
						"POSITION":9,
						"NORMAL":10,
						"TEXCOORD_0":11
					},
					"indices":12,
					"material":0
				}
			]
		},
		{
			"name":"Cylinder.398",
			"primitives":[
				{
					"attributes":{
						"POSITION":13,
						"NORMAL":14,
						"TEXCOORD_0":15
					},
					"indices":16,
					"material":0
				}
			]
		}
	],
	"textures":[
		{
			"sampler":0,
			"source":0
		}
	],
	"images":[
		{
			"mimeType":"image/png",
			"name":"PiratesPack_TX",
			"uri":"tex/PiratesPack_TX.png"
		}
	],
	"accessors":[
		{
			"bufferView":0,
			"componentType":5126,
			"count":206,
			"max":[
				4.0000152587890625,
				3.999998092651367,
				10.555349349975586
			],
			"min":[
				-3.9999847412109375,
				-4.000001907348633,
				7.650001049041748
			],
			"type":"VEC3"
		},
		{
			"bufferView":1,
			"componentType":5126,
			"count":206,
			"type":"VEC3"
		},
		{
			"bufferView":2,
			"componentType":5126,
			"count":206,
			"type":"VEC2"
		},
		{
			"bufferView":3,
			"componentType":5123,
			"count":300,
			"type":"SCALAR"
		},
		{
			"bufferView":4,
			"componentType":5126,
			"count":24,
			"max":[
				4,
				-10.65999984741211,
				4
			],
			"min":[
				-4,
				-10.899999618530273,
				-4
			],
			"type":"VEC3"
		},
		{
			"bufferView":5,
			"componentType":5126,
			"count":24,
			"type":"VEC3"
		},
		{
			"bufferView":6,
			"componentType":5126,
			"count":24,
			"type":"VEC2"
		},
		{
			"bufferView":7,
			"componentType":5126,
			"count":24,
			"type":"VEC4"
		},
		{
			"bufferView":8,
			"componentType":5123,
			"count":36,
			"type":"SCALAR"
		},
		{
			"bufferView":9,
			"componentType":5126,
			"count":165,
			"max":[
				2.0000011920928955,
				2.0000009536743164,
				7.5
			],
			"min":[
				-1.9999995231628418,
				-2.0000009536743164,
				3.825000524520874
			],
			"type":"VEC3"
		},
		{
			"bufferView":10,
			"componentType":5126,
			"count":165,
			"type":"VEC3"
		},
		{
			"bufferView":11,
			"componentType":5126,
			"count":165,
			"type":"VEC2"
		},
		{
			"bufferView":12,
			"componentType":5123,
			"count":429,
			"type":"SCALAR"
		},
		{
			"bufferView":13,
			"componentType":5126,
			"count":130,
			"max":[
				2,
				-0.014403343200683594,
				4.4160847663879395
			],
			"min":[
				-1.9999988079071045,
				-1.8835992813110352,
				3.7923545837402344
			],
			"type":"VEC3"
		},
		{
			"bufferView":14,
			"componentType":5126,
			"count":130,
			"type":"VEC3"
		},
		{
			"bufferView":15,
			"componentType":5126,
			"count":130,
			"type":"VEC2"
		},
		{
			"bufferView":16,
			"componentType":5123,
			"count":198,
			"type":"SCALAR"
		}
	],
	"bufferViews":[
		{
			"buffer":0,
			"byteLength":2472,
			"byteOffset":0,
			"target":34962
		},
		{
			"buffer":0,
			"byteLength":2472,
			"byteOffset":2472,
			"target":34962
		},
		{
			"buffer":0,
			"byteLength":1648,
			"byteOffset":4944,
			"target":34962
		},
		{
			"buffer":0,
			"byteLength":600,
			"byteOffset":6592,
			"target":34963
		},
		{
			"buffer":0,
			"byteLength":288,
			"byteOffset":7192,
			"target":34962
		},
		{
			"buffer":0,
			"byteLength":288,
			"byteOffset":7480,
			"target":34962
		},
		{
			"buffer":0,
			"byteLength":192,
			"byteOffset":7768,
			"target":34962
		},
		{
			"buffer":0,
			"byteLength":384,
			"byteOffset":7960,
			"target":34962
		},
		{
			"buffer":0,
			"byteLength":72,
			"byteOffset":8344,
			"target":34963
		},
		{
			"buffer":0,
			"byteLength":1980,
			"byteOffset":8416,
			"target":34962
		},
		{
			"buffer":0,
			"byteLength":1980,
			"byteOffset":10396,
			"target":34962
		},
		{
			"buffer":0,
			"byteLength":1320,
			"byteOffset":12376,
			"target":34962
		},
		{
			"buffer":0,
			"byteLength":858,
			"byteOffset":13696,
			"target":34963
		},
		{
			"buffer":0,
			"byteLength":1560,
			"byteOffset":14556,
			"target":34962
		},
		{
			"buffer":0,
			"byteLength":1560,
			"byteOffset":16116,
			"target":34962
		},
		{
			"buffer":0,
			"byteLength":1040,
			"byteOffset":17676,
			"target":34962
		},
		{
			"buffer":0,
			"byteLength":396,
			"byteOffset":18716,
			"target":34963
		}
	],
	"samplers":[
		{
			"magFilter":9729,
			"minFilter":9987
		}
	],
	"buffers":[
		{
			"byteLength":19112,
			"uri":"tile_10_0_2.bin"
		}
	]
}
