{
	"asset":{
		"generator":"Khronos glTF Blender I/O v4.0.44",
		"version":"2.0"
	},
	"scene":0,
	"scenes":[
		{
			"name":"Scene",
			"nodes":[
				0,
				1,
				2,
				3,
				4,
				5,
				6,
				7
			]
		}
	],
	"nodes":[
		{
			"mesh":0,
			"name":"dropin-pillar.01_collider",
			"rotation":[
				0.5000002384185791,
				-0.4999997615814209,
				0.4999997615814209,
				0.5000002384185791
			]
		},
		{
			"mesh":1,
			"name":"dropin-pillar.002_box_collider"
		},
		{
			"mesh":2,
			"name":"dropin-pillar.008_box_collider"
		},
		{
			"mesh":3,
			"name":"dropin-pillar.009_box_collider",
			"rotation":[
				0,
				-1,
				0,
				1.6292068494294654e-07
			]
		},
		{
			"mesh":4,
			"name":"ground"
		},
		{
			"name":"decal.main",
			"rotation":[
				0,
				-0.7071068286895752,
				0.7071068286895752,
				3.4560699191388267e-07
			]
		},
		{
			"mesh":5,
			"name":"dropin-pillar.01",
			"rotation":[
				0.5000002384185791,
				-0.4999997615814209,
				0.4999997615814209,
				0.5000002384185791
			],
			"scale":[
				3,
				3,
				3
			]
		},
		{
			"mesh":6,
			"name":"dropin-pillar.01.flag",
			"rotation":[
				0,
				-0.7071068286895752,
				0.7071068286895752,
				1.1520233300643667e-07
			],
			"scale":[
				2,
				2,
				2
			]
		}
	],
	"materials":[
		{
			"doubleSided":true,
			"name":"dcl.PiratesPack",
			"pbrMetallicRoughness":{
				"baseColorTexture":{
					"index":0
				},
				"metallicFactor":0
			}
		}
	],
	"meshes":[
		{
			"name":"Cylinder.182",
			"primitives":[
				{
					"attributes":{
						"POSITION":0,
						"NORMAL":1,
						"TEXCOORD_0":2
					},
					"indices":3
				}
			]
		},
		{
			"name":"Cube.232",
			"primitives":[
				{
					"attributes":{
						"POSITION":4,
						"NORMAL":5,
						"TEXCOORD_0":6,
						"TANGENT":7
					},
					"indices":8
				}
			]
		},
		{
			"name":"Cube.233",
			"primitives":[
				{
					"attributes":{
						"POSITION":9,
						"NORMAL":10,
						"TEXCOORD_0":11,
						"TANGENT":12
					},
					"indices":8
				}
			]
		},
		{
			"name":"Cube.234",
			"primitives":[
				{
					"attributes":{
						"POSITION":13,
						"NORMAL":14,
						"TEXCOORD_0":15,
						"TANGENT":16
					},
					"indices":17
				}
			]
		},
		{
			"name":"Cube.235",
			"primitives":[
				{
					"attributes":{
						"POSITION":18,
						"NORMAL":19,
						"TEXCOORD_0":20,
						"TANGENT":21
					},
					"indices":22,
					"material":0
				}
			]
		},
		{
			"name":"Cylinder.184",
			"primitives":[
				{
					"attributes":{
						"POSITION":23,
						"NORMAL":24,
						"TEXCOORD_0":25
					},
					"indices":26,
					"material":0
				}
			]
		},
		{
			"name":"Cylinder.185",
			"primitives":[
				{
					"attributes":{
						"POSITION":27,
						"NORMAL":28,
						"TEXCOORD_0":29
					},
					"indices":30,
					"material":0
				}
			]
		}
	],
	"textures":[
		{
			"sampler":0,
			"source":0
		}
	],
	"images":[
		{
			"mimeType":"image/png",
			"name":"PiratesPack_TX",
			"uri":"tex/PiratesPack_TX.png"
		}
	],
	"accessors":[
		{
			"bufferView":0,
			"componentType":5126,
			"count":95,
			"max":[
				4.000003814697266,
				3.3705272674560547,
				15
			],
			"min":[
				-3.9999961853027344,
				-4.000003814697266,
				6.293066024780273
			],
			"type":"VEC3"
		},
		{
			"bufferView":1,
			"componentType":5126,
			"count":95,
			"type":"VEC3"
		},
		{
			"bufferView":2,
			"componentType":5126,
			"count":95,
			"type":"VEC2"
		},
		{
			"bufferView":3,
			"componentType":5123,
			"count":297,
			"type":"SCALAR"
		},
		{
			"bufferView":4,
			"componentType":5126,
			"count":24,
			"max":[
				1.6200158596038818,
				-4.79068660736084,
				0.3464179039001465
			],
			"min":[
				0.37949591875076294,
				-10.29068660736084,
				-0.7499899864196777
			],
			"type":"VEC3"
		},
		{
			"bufferView":5,
			"componentType":5126,
			"count":24,
			"type":"VEC3"
		},
		{
			"bufferView":6,
			"componentType":5126,
			"count":24,
			"type":"VEC2"
		},
		{
			"bufferView":7,
			"componentType":5126,
			"count":24,
			"type":"VEC4"
		},
		{
			"bufferView":8,
			"componentType":5123,
			"count":36,
			"type":"SCALAR"
		},
		{
			"bufferView":9,
			"componentType":5126,
			"count":24,
			"max":[
				1.2274165153503418,
				-0.29633235931396484,
				-0.000572890043258667
			],
			"min":[
				0.7720952033996582,
				-5.1272783279418945,
				-0.4029991924762726
			],
			"type":"VEC3"
		},
		{
			"bufferView":10,
			"componentType":5126,
			"count":24,
			"type":"VEC3"
		},
		{
			"bufferView":11,
			"componentType":5126,
			"count":24,
			"type":"VEC2"
		},
		{
			"bufferView":12,
			"componentType":5126,
			"count":24,
			"type":"VEC4"
		},
		{
			"bufferView":13,
			"componentType":5126,
			"count":24,
			"max":[
				-0.7340874671936035,
				-0.31800782680511475,
				4
			],
			"min":[
				-1.2639594078063965,
				-1.8424440622329712,
				-0.01851797103881836
			],
			"type":"VEC3"
		},
		{
			"bufferView":14,
			"componentType":5126,
			"count":24,
			"type":"VEC3"
		},
		{
			"bufferView":15,
			"componentType":5126,
			"count":24,
			"type":"VEC2"
		},
		{
			"bufferView":16,
			"componentType":5126,
			"count":24,
			"type":"VEC4"
		},
		{
			"bufferView":17,
			"componentType":5123,
			"count":36,
			"type":"SCALAR"
		},
		{
			"bufferView":18,
			"componentType":5126,
			"count":24,
			"max":[
				4,
				-10.65999984741211,
				4
			],
			"min":[
				-4,
				-10.899999618530273,
				-4
			],
			"type":"VEC3"
		},
		{
			"bufferView":19,
			"componentType":5126,
			"count":24,
			"type":"VEC3"
		},
		{
			"bufferView":20,
			"componentType":5126,
			"count":24,
			"type":"VEC2"
		},
		{
			"bufferView":21,
			"componentType":5126,
			"count":24,
			"type":"VEC4"
		},
		{
			"bufferView":22,
			"componentType":5123,
			"count":36,
			"type":"SCALAR"
		},
		{
			"bufferView":23,
			"componentType":5126,
			"count":410,
			"max":[
				1.333336591720581,
				1.1235065460205078,
				5.000000476837158
			],
			"min":[
				-1.3333325386047363,
				-1.3333346843719482,
				1.597688913345337
			],
			"type":"VEC3"
		},
		{
			"bufferView":24,
			"componentType":5126,
			"count":410,
			"type":"VEC3"
		},
		{
			"bufferView":25,
			"componentType":5126,
			"count":410,
			"type":"VEC2"
		},
		{
			"bufferView":26,
			"componentType":5123,
			"count":1077,
			"type":"SCALAR"
		},
		{
			"bufferView":27,
			"componentType":5126,
			"count":52,
			"max":[
				-0.41539859771728516,
				2,
				2.396533489227295
			],
			"min":[
				-0.6103990077972412,
				-0.018895983695983887,
				0.14653348922729492
			],
			"type":"VEC3"
		},
		{
			"bufferView":28,
			"componentType":5126,
			"count":52,
			"type":"VEC3"
		},
		{
			"bufferView":29,
			"componentType":5126,
			"count":52,
			"type":"VEC2"
		},
		{
			"bufferView":30,
			"componentType":5123,
			"count":114,
			"type":"SCALAR"
		}
	],
	"bufferViews":[
		{
			"buffer":0,
			"byteLength":1140,
			"byteOffset":0,
			"target":34962
		},
		{
			"buffer":0,
			"byteLength":1140,
			"byteOffset":1140,
			"target":34962
		},
		{
			"buffer":0,
			"byteLength":760,
			"byteOffset":2280,
			"target":34962
		},
		{
			"buffer":0,
			"byteLength":594,
			"byteOffset":3040,
			"target":34963
		},
		{
			"buffer":0,
			"byteLength":288,
			"byteOffset":3636,
			"target":34962
		},
		{
			"buffer":0,
			"byteLength":288,
			"byteOffset":3924,
			"target":34962
		},
		{
			"buffer":0,
			"byteLength":192,
			"byteOffset":4212,
			"target":34962
		},
		{
			"buffer":0,
			"byteLength":384,
			"byteOffset":4404,
			"target":34962
		},
		{
			"buffer":0,
			"byteLength":72,
			"byteOffset":4788,
			"target":34963
		},
		{
			"buffer":0,
			"byteLength":288,
			"byteOffset":4860,
			"target":34962
		},
		{
			"buffer":0,
			"byteLength":288,
			"byteOffset":5148,
			"target":34962
		},
		{
			"buffer":0,
			"byteLength":192,
			"byteOffset":5436,
			"target":34962
		},
		{
			"buffer":0,
			"byteLength":384,
			"byteOffset":5628,
			"target":34962
		},
		{
			"buffer":0,
			"byteLength":288,
			"byteOffset":6012,
			"target":34962
		},
		{
			"buffer":0,
			"byteLength":288,
			"byteOffset":6300,
			"target":34962
		},
		{
			"buffer":0,
			"byteLength":192,
			"byteOffset":6588,
			"target":34962
		},
		{
			"buffer":0,
			"byteLength":384,
			"byteOffset":6780,
			"target":34962
		},
		{
			"buffer":0,
			"byteLength":72,
			"byteOffset":7164,
			"target":34963
		},
		{
			"buffer":0,
			"byteLength":288,
			"byteOffset":7236,
			"target":34962
		},
		{
			"buffer":0,
			"byteLength":288,
			"byteOffset":7524,
			"target":34962
		},
		{
			"buffer":0,
			"byteLength":192,
			"byteOffset":7812,
			"target":34962
		},
		{
			"buffer":0,
			"byteLength":384,
			"byteOffset":8004,
			"target":34962
		},
		{
			"buffer":0,
			"byteLength":72,
			"byteOffset":8388,
			"target":34963
		},
		{
			"buffer":0,
			"byteLength":4920,
			"byteOffset":8460,
			"target":34962
		},
		{
			"buffer":0,
			"byteLength":4920,
			"byteOffset":13380,
			"target":34962
		},
		{
			"buffer":0,
			"byteLength":3280,
			"byteOffset":18300,
			"target":34962
		},
		{
			"buffer":0,
			"byteLength":2154,
			"byteOffset":21580,
			"target":34963
		},
		{
			"buffer":0,
			"byteLength":624,
			"byteOffset":23736,
			"target":34962
		},
		{
			"buffer":0,
			"byteLength":624,
			"byteOffset":24360,
			"target":34962
		},
		{
			"buffer":0,
			"byteLength":416,
			"byteOffset":24984,
			"target":34962
		},
		{
			"buffer":0,
			"byteLength":228,
			"byteOffset":25400,
			"target":34963
		}
	],
	"samplers":[
		{
			"magFilter":9729,
			"minFilter":9987
		}
	],
	"buffers":[
		{
			"byteLength":25628,
			"uri":"tile_5_0_5.bin"
		}
	]
}
