{
	"asset":{
		"generator":"Khronos glTF Blender I/O v4.0.44",
		"version":"2.0"
	},
	"scene":0,
	"scenes":[
		{
			"name":"Scene",
			"nodes":[
				0,
				1,
				2,
				3
			]
		}
	],
	"nodes":[
		{
			"mesh":0,
			"name":"pipe.main_collider",
			"rotation":[
				0.7071068286895752,
				0,
				0,
				0.7071068286895752
			]
		},
		{
			"mesh":1,
			"name":"ground"
		},
		{
			"mesh":2,
			"name":"pipe.main",
			"rotation":[
				0.7071068286895752,
				0,
				0,
				0.7071068286895752
			],
			"scale":[
				2,
				2,
				2
			]
		},
		{
			"mesh":3,
			"name":"pipe.main.rim",
			"rotation":[
				0.7071068286895752,
				0,
				0,
				0.7071068286895752
			],
			"scale":[
				2,
				2,
				2
			]
		}
	],
	"materials":[
		{
			"doubleSided":true,
			"name":"dcl.PiratesPack",
			"pbrMetallicRoughness":{
				"baseColorTexture":{
					"index":0
				},
				"metallicFactor":0
			}
		}
	],
	"meshes":[
		{
			"name":"Cylinder.414",
			"primitives":[
				{
					"attributes":{
						"POSITION":0,
						"NORMAL":1,
						"TEXCOORD_0":2
					},
					"indices":3
				}
			]
		},
		{
			"name":"Cube.366",
			"primitives":[
				{
					"attributes":{
						"POSITION":4,
						"NORMAL":5,
						"TEXCOORD_0":6,
						"TANGENT":7
					},
					"indices":8,
					"material":0
				}
			]
		},
		{
			"name":"Cylinder.415",
			"primitives":[
				{
					"attributes":{
						"POSITION":9,
						"NORMAL":10,
						"TEXCOORD_0":11
					},
					"indices":12,
					"material":0
				}
			]
		},
		{
			"name":"Cylinder.416",
			"primitives":[
				{
					"attributes":{
						"POSITION":13,
						"NORMAL":14,
						"TEXCOORD_0":15
					},
					"indices":16,
					"material":0
				}
			]
		}
	],
	"textures":[
		{
			"sampler":0,
			"source":0
		}
	],
	"images":[
		{
			"mimeType":"image/png",
			"name":"PiratesPack_TX",
			"uri":"tex/PiratesPack_TX.png"
		}
	],
	"accessors":[
		{
			"bufferView":0,
			"componentType":5126,
			"count":154,
			"max":[
				3.9999847412109375,
				4.000003814697266,
				10.649999618530273
			],
			"min":[
				-4.0000152587890625,
				-4,
				7.649996280670166
			],
			"type":"VEC3"
		},
		{
			"bufferView":1,
			"componentType":5126,
			"count":154,
			"type":"VEC3"
		},
		{
			"bufferView":2,
			"componentType":5126,
			"count":154,
			"type":"VEC2"
		},
		{
			"bufferView":3,
			"componentType":5123,
			"count":237,
			"type":"SCALAR"
		},
		{
			"bufferView":4,
			"componentType":5126,
			"count":24,
			"max":[
				4,
				-10.65999984741211,
				4
			],
			"min":[
				-4,
				-10.899999618530273,
				-4
			],
			"type":"VEC3"
		},
		{
			"bufferView":5,
			"componentType":5126,
			"count":24,
			"type":"VEC3"
		},
		{
			"bufferView":6,
			"componentType":5126,
			"count":24,
			"type":"VEC2"
		},
		{
			"bufferView":7,
			"componentType":5126,
			"count":24,
			"type":"VEC4"
		},
		{
			"bufferView":8,
			"componentType":5123,
			"count":36,
			"type":"SCALAR"
		},
		{
			"bufferView":9,
			"componentType":5126,
			"count":179,
			"max":[
				2.0000011920928955,
				2.000001907348633,
				5.324999809265137
			],
			"min":[
				-2.2500057220458984,
				-2.0000009536743164,
				3.824998140335083
			],
			"type":"VEC3"
		},
		{
			"bufferView":10,
			"componentType":5126,
			"count":179,
			"type":"VEC3"
		},
		{
			"bufferView":11,
			"componentType":5126,
			"count":179,
			"type":"VEC2"
		},
		{
			"bufferView":12,
			"componentType":5123,
			"count":480,
			"type":"SCALAR"
		},
		{
			"bufferView":13,
			"componentType":5126,
			"count":30,
			"max":[
				-0.7299745082855225,
				2,
				3.8532843589782715
			],
			"min":[
				-1.2701661586761475,
				1.980001449584961,
				3.7967143058776855
			],
			"type":"VEC3"
		},
		{
			"bufferView":14,
			"componentType":5126,
			"count":30,
			"type":"VEC3"
		},
		{
			"bufferView":15,
			"componentType":5126,
			"count":30,
			"type":"VEC2"
		},
		{
			"bufferView":16,
			"componentType":5123,
			"count":54,
			"type":"SCALAR"
		}
	],
	"bufferViews":[
		{
			"buffer":0,
			"byteLength":1848,
			"byteOffset":0,
			"target":34962
		},
		{
			"buffer":0,
			"byteLength":1848,
			"byteOffset":1848,
			"target":34962
		},
		{
			"buffer":0,
			"byteLength":1232,
			"byteOffset":3696,
			"target":34962
		},
		{
			"buffer":0,
			"byteLength":474,
			"byteOffset":4928,
			"target":34963
		},
		{
			"buffer":0,
			"byteLength":288,
			"byteOffset":5404,
			"target":34962
		},
		{
			"buffer":0,
			"byteLength":288,
			"byteOffset":5692,
			"target":34962
		},
		{
			"buffer":0,
			"byteLength":192,
			"byteOffset":5980,
			"target":34962
		},
		{
			"buffer":0,
			"byteLength":384,
			"byteOffset":6172,
			"target":34962
		},
		{
			"buffer":0,
			"byteLength":72,
			"byteOffset":6556,
			"target":34963
		},
		{
			"buffer":0,
			"byteLength":2148,
			"byteOffset":6628,
			"target":34962
		},
		{
			"buffer":0,
			"byteLength":2148,
			"byteOffset":8776,
			"target":34962
		},
		{
			"buffer":0,
			"byteLength":1432,
			"byteOffset":10924,
			"target":34962
		},
		{
			"buffer":0,
			"byteLength":960,
			"byteOffset":12356,
			"target":34963
		},
		{
			"buffer":0,
			"byteLength":360,
			"byteOffset":13316,
			"target":34962
		},
		{
			"buffer":0,
			"byteLength":360,
			"byteOffset":13676,
			"target":34962
		},
		{
			"buffer":0,
			"byteLength":240,
			"byteOffset":14036,
			"target":34962
		},
		{
			"buffer":0,
			"byteLength":108,
			"byteOffset":14276,
			"target":34963
		}
	],
	"samplers":[
		{
			"magFilter":9729,
			"minFilter":9987
		}
	],
	"buffers":[
		{
			"byteLength":14384,
			"uri":"tile_10_0_8.bin"
		}
	]
}
