{
	"asset":{
		"generator":"Khronos glTF Blender I/O v4.0.44",
		"version":"2.0"
	},
	"scene":0,
	"scenes":[
		{
			"name":"Scene",
			"nodes":[
				0,
				1,
				2,
				3,
				4,
				5,
				6,
				7,
				8,
				9,
				10
			]
		}
	],
	"nodes":[
		{
			"mesh":0,
			"name":"ramp.rectangular.02_collider",
			"rotation":[
				0,
				-1,
				0,
				1.6292068494294654e-07
			]
		},
		{
			"mesh":1,
			"name":"ground"
		},
		{
			"mesh":2,
			"name":"rail.002_collider"
		},
		{
			"mesh":3,
			"name":"rail.005_collider"
		},
		{
			"mesh":4,
			"name":"rail.006_collider",
			"rotation":[
				0.1787828952074051,
				-0.9838886260986328,
				0,
				1.602958121793563e-07
			]
		},
		{
			"mesh":5,
			"name":"rail.001_collider",
			"rotation":[
				0.1787828952074051,
				-0.9838886260986328,
				0,
				1.602958121793563e-07
			]
		},
		{
			"name":"decal.main",
			"rotation":[
				0,
				-0.7071068286895752,
				0.7071068286895752,
				3.4560699191388267e-07
			]
		},
		{
			"mesh":6,
			"name":"decal.ramp.branches",
			"rotation":[
				0,
				-1,
				0,
				1.6292068494294654e-07
			],
			"scale":[
				1.5,
				1.5,
				1.5
			]
		},
		{
			"mesh":7,
			"name":"ramp.rectangular.02",
			"rotation":[
				0,
				-1,
				0,
				1.6292068494294654e-07
			]
		},
		{
			"mesh":8,
			"name":"ramp.rectangular.02.rail.01",
			"rotation":[
				0,
				0.70710688829422,
				0,
				0.7071066498756409
			]
		},
		{
			"mesh":9,
			"name":"ramp.rectangular.02.rail.02",
			"rotation":[
				0,
				0.70710688829422,
				0,
				0.7071066498756409
			]
		}
	],
	"materials":[
		{
			"doubleSided":true,
			"name":"dcl.PiratesPack",
			"pbrMetallicRoughness":{
				"baseColorTexture":{
					"index":0
				},
				"metallicFactor":0
			}
		},
		{
			"doubleSided":true,
			"emissiveFactor":[
				1,
				1,
				1
			],
			"emissiveTexture":{
				"index":1
			},
			"name":"dcl.PiratesPack.emissive",
			"pbrMetallicRoughness":{
				"baseColorTexture":{
					"index":2
				},
				"metallicFactor":0
			}
		}
	],
	"meshes":[
		{
			"name":"Cube.114",
			"primitives":[
				{
					"attributes":{
						"POSITION":0,
						"NORMAL":1,
						"TEXCOORD_0":2
					},
					"indices":3
				}
			]
		},
		{
			"name":"Cube.115",
			"primitives":[
				{
					"attributes":{
						"POSITION":4,
						"NORMAL":5,
						"TEXCOORD_0":6,
						"TANGENT":7
					},
					"indices":8,
					"material":0
				}
			]
		},
		{
			"name":"Cube.116",
			"primitives":[
				{
					"attributes":{
						"POSITION":9,
						"NORMAL":10,
						"TEXCOORD_0":11,
						"TANGENT":12
					},
					"indices":13
				}
			]
		},
		{
			"name":"Cube.117",
			"primitives":[
				{
					"attributes":{
						"POSITION":14,
						"NORMAL":15,
						"TEXCOORD_0":16,
						"TANGENT":17
					},
					"indices":13
				}
			]
		},
		{
			"name":"Cube.118",
			"primitives":[
				{
					"attributes":{
						"POSITION":18,
						"NORMAL":19,
						"TEXCOORD_0":20,
						"TANGENT":21
					},
					"indices":22
				}
			]
		},
		{
			"name":"Cube.119",
			"primitives":[
				{
					"attributes":{
						"POSITION":23,
						"NORMAL":24,
						"TEXCOORD_0":25,
						"TANGENT":26
					},
					"indices":22
				}
			]
		},
		{
			"name":"Cube.120",
			"primitives":[
				{
					"attributes":{
						"POSITION":27,
						"NORMAL":28,
						"TEXCOORD_0":29,
						"TANGENT":30
					},
					"indices":31,
					"material":1
				}
			]
		},
		{
			"name":"Cube.121",
			"primitives":[
				{
					"attributes":{
						"POSITION":32,
						"NORMAL":33,
						"TEXCOORD_0":34
					},
					"indices":35,
					"material":0
				}
			]
		},
		{
			"name":"Cube.122",
			"primitives":[
				{
					"attributes":{
						"POSITION":36,
						"NORMAL":37,
						"TEXCOORD_0":38,
						"TANGENT":39
					},
					"indices":40,
					"material":0
				}
			]
		},
		{
			"name":"Cube.123",
			"primitives":[
				{
					"attributes":{
						"POSITION":41,
						"NORMAL":42,
						"TEXCOORD_0":43,
						"TANGENT":44
					},
					"indices":45,
					"material":0
				}
			]
		}
	],
	"textures":[
		{
			"sampler":0,
			"source":0
		},
		{
			"sampler":0,
			"source":0
		},
		{
			"sampler":0,
			"source":0
		}
	],
	"images":[
		{
			"mimeType":"image/png",
			"name":"PiratesPack_TX",
			"uri":"tex/PiratesPack_TX.png"
		}
	],
	"accessors":[
		{
			"bufferView":0,
			"componentType":5126,
			"count":27,
			"max":[
				4,
				-9,
				4
			],
			"min":[
				-4,
				-10.415928840637207,
				-4
			],
			"type":"VEC3"
		},
		{
			"bufferView":1,
			"componentType":5126,
			"count":27,
			"type":"VEC3"
		},
		{
			"bufferView":2,
			"componentType":5126,
			"count":27,
			"type":"VEC2"
		},
		{
			"bufferView":3,
			"componentType":5123,
			"count":51,
			"type":"SCALAR"
		},
		{
			"bufferView":4,
			"componentType":5126,
			"count":24,
			"max":[
				4,
				-10.65999984741211,
				4
			],
			"min":[
				-4,
				-10.899999618530273,
				-4
			],
			"type":"VEC3"
		},
		{
			"bufferView":5,
			"componentType":5126,
			"count":24,
			"type":"VEC3"
		},
		{
			"bufferView":6,
			"componentType":5126,
			"count":24,
			"type":"VEC2"
		},
		{
			"bufferView":7,
			"componentType":5126,
			"count":24,
			"type":"VEC4"
		},
		{
			"bufferView":8,
			"componentType":5123,
			"count":36,
			"type":"SCALAR"
		},
		{
			"bufferView":9,
			"componentType":5126,
			"count":24,
			"max":[
				4.000001907348633,
				-8.146514892578125,
				-1.031444787979126
			],
			"min":[
				-2.191051959991455,
				-10.146514892578125,
				-1.4826810359954834
			],
			"type":"VEC3"
		},
		{
			"bufferView":10,
			"componentType":5126,
			"count":24,
			"type":"VEC3"
		},
		{
			"bufferView":11,
			"componentType":5126,
			"count":24,
			"type":"VEC2"
		},
		{
			"bufferView":12,
			"componentType":5126,
			"count":24,
			"type":"VEC4"
		},
		{
			"bufferView":13,
			"componentType":5123,
			"count":36,
			"type":"SCALAR"
		},
		{
			"bufferView":14,
			"componentType":5126,
			"count":24,
			"max":[
				4,
				-7.145320892333984,
				1.267770528793335
			],
			"min":[
				-2.191053867340088,
				-9.145320892333984,
				0.8165343403816223
			],
			"type":"VEC3"
		},
		{
			"bufferView":15,
			"componentType":5126,
			"count":24,
			"type":"VEC3"
		},
		{
			"bufferView":16,
			"componentType":5126,
			"count":24,
			"type":"VEC2"
		},
		{
			"bufferView":17,
			"componentType":5126,
			"count":24,
			"type":"VEC4"
		},
		{
			"bufferView":18,
			"componentType":5126,
			"count":24,
			"max":[
				7.254572868347168,
				-5.9328413009643555,
				-0.8421538472175598
			],
			"min":[
				4.570428848266602,
				-7.9328413009643555,
				-1.2933900356292725
			],
			"type":"VEC3"
		},
		{
			"bufferView":19,
			"componentType":5126,
			"count":24,
			"type":"VEC3"
		},
		{
			"bufferView":20,
			"componentType":5126,
			"count":24,
			"type":"VEC2"
		},
		{
			"bufferView":21,
			"componentType":5126,
			"count":24,
			"type":"VEC4"
		},
		{
			"bufferView":22,
			"componentType":5123,
			"count":36,
			"type":"SCALAR"
		},
		{
			"bufferView":23,
			"componentType":5126,
			"count":24,
			"max":[
				7.6011128425598145,
				-6.854911804199219,
				1.4826886653900146
			],
			"min":[
				4.916969299316406,
				-8.854911804199219,
				1.0314524173736572
			],
			"type":"VEC3"
		},
		{
			"bufferView":24,
			"componentType":5126,
			"count":24,
			"type":"VEC3"
		},
		{
			"bufferView":25,
			"componentType":5126,
			"count":24,
			"type":"VEC2"
		},
		{
			"bufferView":26,
			"componentType":5126,
			"count":24,
			"type":"VEC4"
		},
		{
			"bufferView":27,
			"componentType":5126,
			"count":8,
			"max":[
				2.6666622161865234,
				-7.093332290649414,
				1.0127930641174316
			],
			"min":[
				-2.6666698455810547,
				-7.093332290649414,
				-0.8502640724182129
			],
			"type":"VEC3"
		},
		{
			"bufferView":28,
			"componentType":5126,
			"count":8,
			"type":"VEC3"
		},
		{
			"bufferView":29,
			"componentType":5126,
			"count":8,
			"type":"VEC2"
		},
		{
			"bufferView":30,
			"componentType":5126,
			"count":8,
			"type":"VEC4"
		},
		{
			"bufferView":31,
			"componentType":5123,
			"count":12,
			"type":"SCALAR"
		},
		{
			"bufferView":32,
			"componentType":5126,
			"count":37,
			"max":[
				4,
				-9,
				4
			],
			"min":[
				-4,
				-10.434831619262695,
				-4
			],
			"type":"VEC3"
		},
		{
			"bufferView":33,
			"componentType":5126,
			"count":37,
			"type":"VEC3"
		},
		{
			"bufferView":34,
			"componentType":5126,
			"count":37,
			"type":"VEC2"
		},
		{
			"bufferView":35,
			"componentType":5123,
			"count":75,
			"type":"SCALAR"
		},
		{
			"bufferView":36,
			"componentType":5126,
			"count":76,
			"max":[
				-0.8421523571014404,
				-7.149999141693115,
				4
			],
			"min":[
				-1.242152452468872,
				-9.19999885559082,
				-4
			],
			"type":"VEC3"
		},
		{
			"bufferView":37,
			"componentType":5126,
			"count":76,
			"type":"VEC3"
		},
		{
			"bufferView":38,
			"componentType":5126,
			"count":76,
			"type":"VEC2"
		},
		{
			"bufferView":39,
			"componentType":5126,
			"count":76,
			"type":"VEC4"
		},
		{
			"bufferView":40,
			"componentType":5123,
			"count":114,
			"type":"SCALAR"
		},
		{
			"bufferView":41,
			"componentType":5126,
			"count":80,
			"max":[
				1.4859306812286377,
				-8.149998664855957,
				4
			],
			"min":[
				1.085930585861206,
				-9.19999885559082,
				-4
			],
			"type":"VEC3"
		},
		{
			"bufferView":42,
			"componentType":5126,
			"count":80,
			"type":"VEC3"
		},
		{
			"bufferView":43,
			"componentType":5126,
			"count":80,
			"type":"VEC2"
		},
		{
			"bufferView":44,
			"componentType":5126,
			"count":80,
			"type":"VEC4"
		},
		{
			"bufferView":45,
			"componentType":5123,
			"count":120,
			"type":"SCALAR"
		}
	],
	"bufferViews":[
		{
			"buffer":0,
			"byteLength":324,
			"byteOffset":0,
			"target":34962
		},
		{
			"buffer":0,
			"byteLength":324,
			"byteOffset":324,
			"target":34962
		},
		{
			"buffer":0,
			"byteLength":216,
			"byteOffset":648,
			"target":34962
		},
		{
			"buffer":0,
			"byteLength":102,
			"byteOffset":864,
			"target":34963
		},
		{
			"buffer":0,
			"byteLength":288,
			"byteOffset":968,
			"target":34962
		},
		{
			"buffer":0,
			"byteLength":288,
			"byteOffset":1256,
			"target":34962
		},
		{
			"buffer":0,
			"byteLength":192,
			"byteOffset":1544,
			"target":34962
		},
		{
			"buffer":0,
			"byteLength":384,
			"byteOffset":1736,
			"target":34962
		},
		{
			"buffer":0,
			"byteLength":72,
			"byteOffset":2120,
			"target":34963
		},
		{
			"buffer":0,
			"byteLength":288,
			"byteOffset":2192,
			"target":34962
		},
		{
			"buffer":0,
			"byteLength":288,
			"byteOffset":2480,
			"target":34962
		},
		{
			"buffer":0,
			"byteLength":192,
			"byteOffset":2768,
			"target":34962
		},
		{
			"buffer":0,
			"byteLength":384,
			"byteOffset":2960,
			"target":34962
		},
		{
			"buffer":0,
			"byteLength":72,
			"byteOffset":3344,
			"target":34963
		},
		{
			"buffer":0,
			"byteLength":288,
			"byteOffset":3416,
			"target":34962
		},
		{
			"buffer":0,
			"byteLength":288,
			"byteOffset":3704,
			"target":34962
		},
		{
			"buffer":0,
			"byteLength":192,
			"byteOffset":3992,
			"target":34962
		},
		{
			"buffer":0,
			"byteLength":384,
			"byteOffset":4184,
			"target":34962
		},
		{
			"buffer":0,
			"byteLength":288,
			"byteOffset":4568,
			"target":34962
		},
		{
			"buffer":0,
			"byteLength":288,
			"byteOffset":4856,
			"target":34962
		},
		{
			"buffer":0,
			"byteLength":192,
			"byteOffset":5144,
			"target":34962
		},
		{
			"buffer":0,
			"byteLength":384,
			"byteOffset":5336,
			"target":34962
		},
		{
			"buffer":0,
			"byteLength":72,
			"byteOffset":5720,
			"target":34963
		},
		{
			"buffer":0,
			"byteLength":288,
			"byteOffset":5792,
			"target":34962
		},
		{
			"buffer":0,
			"byteLength":288,
			"byteOffset":6080,
			"target":34962
		},
		{
			"buffer":0,
			"byteLength":192,
			"byteOffset":6368,
			"target":34962
		},
		{
			"buffer":0,
			"byteLength":384,
			"byteOffset":6560,
			"target":34962
		},
		{
			"buffer":0,
			"byteLength":96,
			"byteOffset":6944,
			"target":34962
		},
		{
			"buffer":0,
			"byteLength":96,
			"byteOffset":7040,
			"target":34962
		},
		{
			"buffer":0,
			"byteLength":64,
			"byteOffset":7136,
			"target":34962
		},
		{
			"buffer":0,
			"byteLength":128,
			"byteOffset":7200,
			"target":34962
		},
		{
			"buffer":0,
			"byteLength":24,
			"byteOffset":7328,
			"target":34963
		},
		{
			"buffer":0,
			"byteLength":444,
			"byteOffset":7352,
			"target":34962
		},
		{
			"buffer":0,
			"byteLength":444,
			"byteOffset":7796,
			"target":34962
		},
		{
			"buffer":0,
			"byteLength":296,
			"byteOffset":8240,
			"target":34962
		},
		{
			"buffer":0,
			"byteLength":150,
			"byteOffset":8536,
			"target":34963
		},
		{
			"buffer":0,
			"byteLength":912,
			"byteOffset":8688,
			"target":34962
		},
		{
			"buffer":0,
			"byteLength":912,
			"byteOffset":9600,
			"target":34962
		},
		{
			"buffer":0,
			"byteLength":608,
			"byteOffset":10512,
			"target":34962
		},
		{
			"buffer":0,
			"byteLength":1216,
			"byteOffset":11120,
			"target":34962
		},
		{
			"buffer":0,
			"byteLength":228,
			"byteOffset":12336,
			"target":34963
		},
		{
			"buffer":0,
			"byteLength":960,
			"byteOffset":12564,
			"target":34962
		},
		{
			"buffer":0,
			"byteLength":960,
			"byteOffset":13524,
			"target":34962
		},
		{
			"buffer":0,
			"byteLength":640,
			"byteOffset":14484,
			"target":34962
		},
		{
			"buffer":0,
			"byteLength":1280,
			"byteOffset":15124,
			"target":34962
		},
		{
			"buffer":0,
			"byteLength":240,
			"byteOffset":16404,
			"target":34963
		}
	],
	"samplers":[
		{
			"magFilter":9729,
			"minFilter":9987
		}
	],
	"buffers":[
		{
			"byteLength":16644,
			"uri":"tile_2_0_2.bin"
		}
	]
}
