{
	"asset":{
		"generator":"Khronos glTF Blender I/O v4.0.44",
		"version":"2.0"
	},
	"scene":0,
	"scenes":[
		{
			"name":"Scene",
			"nodes":[
				0,
				1,
				2,
				3
			]
		}
	],
	"nodes":[
		{
			"mesh":0,
			"name":"pipe.main_collider",
			"rotation":[
				0.7071068286895752,
				0,
				0,
				0.7071068286895752
			]
		},
		{
			"mesh":1,
			"name":"ground"
		},
		{
			"mesh":2,
			"name":"pipe.main",
			"rotation":[
				0.7071068286895752,
				0,
				0,
				0.7071068286895752
			],
			"scale":[
				2,
				2,
				2
			]
		},
		{
			"mesh":3,
			"name":"pipe.main.rim",
			"rotation":[
				0.7071068286895752,
				0,
				0,
				0.7071068286895752
			],
			"scale":[
				2,
				2,
				2
			]
		}
	],
	"materials":[
		{
			"doubleSided":true,
			"name":"dcl.PiratesPack",
			"pbrMetallicRoughness":{
				"baseColorTexture":{
					"index":0
				},
				"metallicFactor":0
			}
		}
	],
	"meshes":[
		{
			"name":"Cylinder.364",
			"primitives":[
				{
					"attributes":{
						"POSITION":0,
						"NORMAL":1,
						"TEXCOORD_0":2
					},
					"indices":3
				}
			]
		},
		{
			"name":"Cube.350",
			"primitives":[
				{
					"attributes":{
						"POSITION":4,
						"NORMAL":5,
						"TEXCOORD_0":6,
						"TANGENT":7
					},
					"indices":8,
					"material":0
				}
			]
		},
		{
			"name":"Cylinder.365",
			"primitives":[
				{
					"attributes":{
						"POSITION":9,
						"NORMAL":10,
						"TEXCOORD_0":11
					},
					"indices":12,
					"material":0
				}
			]
		},
		{
			"name":"Cylinder.366",
			"primitives":[
				{
					"attributes":{
						"POSITION":13,
						"NORMAL":14,
						"TEXCOORD_0":15
					},
					"indices":16,
					"material":0
				}
			]
		}
	],
	"textures":[
		{
			"sampler":0,
			"source":0
		}
	],
	"images":[
		{
			"mimeType":"image/png",
			"name":"PiratesPack_TX",
			"uri":"tex/PiratesPack_TX.png"
		}
	],
	"accessors":[
		{
			"bufferView":0,
			"componentType":5126,
			"count":249,
			"max":[
				4.000007629394531,
				4.000003814697266,
				10.65000057220459
			],
			"min":[
				-3.9999923706054688,
				-3.9999961853027344,
				6.649999618530273
			],
			"type":"VEC3"
		},
		{
			"bufferView":1,
			"componentType":5126,
			"count":249,
			"type":"VEC3"
		},
		{
			"bufferView":2,
			"componentType":5126,
			"count":249,
			"type":"VEC2"
		},
		{
			"bufferView":3,
			"componentType":5123,
			"count":423,
			"type":"SCALAR"
		},
		{
			"bufferView":4,
			"componentType":5126,
			"count":24,
			"max":[
				4,
				-10.65999984741211,
				4
			],
			"min":[
				-4,
				-10.899999618530273,
				-4
			],
			"type":"VEC3"
		},
		{
			"bufferView":5,
			"componentType":5126,
			"count":24,
			"type":"VEC3"
		},
		{
			"bufferView":6,
			"componentType":5126,
			"count":24,
			"type":"VEC2"
		},
		{
			"bufferView":7,
			"componentType":5126,
			"count":24,
			"type":"VEC4"
		},
		{
			"bufferView":8,
			"componentType":5123,
			"count":36,
			"type":"SCALAR"
		},
		{
			"bufferView":9,
			"componentType":5126,
			"count":230,
			"max":[
				2.0000011920928955,
				2.0000009536743164,
				7.5
			],
			"min":[
				-2.0000009536743164,
				-2.0000009536743164,
				3.3249998092651367
			],
			"type":"VEC3"
		},
		{
			"bufferView":10,
			"componentType":5126,
			"count":230,
			"type":"VEC3"
		},
		{
			"bufferView":11,
			"componentType":5126,
			"count":230,
			"type":"VEC2"
		},
		{
			"bufferView":12,
			"componentType":5123,
			"count":501,
			"type":"SCALAR"
		},
		{
			"bufferView":13,
			"componentType":5126,
			"count":166,
			"max":[
				2.0000009536743164,
				1.9999990463256836,
				3.8593835830688477
			],
			"min":[
				-2.000000476837158,
				-1.9999988079071045,
				3.296715259552002
			],
			"type":"VEC3"
		},
		{
			"bufferView":14,
			"componentType":5126,
			"count":166,
			"type":"VEC3"
		},
		{
			"bufferView":15,
			"componentType":5126,
			"count":166,
			"type":"VEC2"
		},
		{
			"bufferView":16,
			"componentType":5123,
			"count":252,
			"type":"SCALAR"
		}
	],
	"bufferViews":[
		{
			"buffer":0,
			"byteLength":2988,
			"byteOffset":0,
			"target":34962
		},
		{
			"buffer":0,
			"byteLength":2988,
			"byteOffset":2988,
			"target":34962
		},
		{
			"buffer":0,
			"byteLength":1992,
			"byteOffset":5976,
			"target":34962
		},
		{
			"buffer":0,
			"byteLength":846,
			"byteOffset":7968,
			"target":34963
		},
		{
			"buffer":0,
			"byteLength":288,
			"byteOffset":8816,
			"target":34962
		},
		{
			"buffer":0,
			"byteLength":288,
			"byteOffset":9104,
			"target":34962
		},
		{
			"buffer":0,
			"byteLength":192,
			"byteOffset":9392,
			"target":34962
		},
		{
			"buffer":0,
			"byteLength":384,
			"byteOffset":9584,
			"target":34962
		},
		{
			"buffer":0,
			"byteLength":72,
			"byteOffset":9968,
			"target":34963
		},
		{
			"buffer":0,
			"byteLength":2760,
			"byteOffset":10040,
			"target":34962
		},
		{
			"buffer":0,
			"byteLength":2760,
			"byteOffset":12800,
			"target":34962
		},
		{
			"buffer":0,
			"byteLength":1840,
			"byteOffset":15560,
			"target":34962
		},
		{
			"buffer":0,
			"byteLength":1002,
			"byteOffset":17400,
			"target":34963
		},
		{
			"buffer":0,
			"byteLength":1992,
			"byteOffset":18404,
			"target":34962
		},
		{
			"buffer":0,
			"byteLength":1992,
			"byteOffset":20396,
			"target":34962
		},
		{
			"buffer":0,
			"byteLength":1328,
			"byteOffset":22388,
			"target":34962
		},
		{
			"buffer":0,
			"byteLength":504,
			"byteOffset":23716,
			"target":34963
		}
	],
	"samplers":[
		{
			"magFilter":9729,
			"minFilter":9987
		}
	],
	"buffers":[
		{
			"byteLength":24220,
			"uri":"tile_9_0_4.bin"
		}
	]
}
