{
	"asset":{
		"generator":"Khronos glTF Blender I/O v4.0.44",
		"version":"2.0"
	},
	"extensionsUsed":[
		"KHR_materials_specular",
		"KHR_materials_ior",
		"KHR_materials_emissive_strength"
	],
	"scene":0,
	"scenes":[
		{
			"name":"Scene",
			"nodes":[
				0,
				1,
				2
			]
		}
	],
	"nodes":[
		{
			"mesh":0,
			"name":"Plane",
			"scale":[
				7.873531341552734,
				0.9841914176940918,
				7.873531341552734
			]
		},
		{
			"name":"track.141",
			"scale":[
				3.7706682682037354,
				3.7706682682037354,
				3.7706682682037354
			]
		},
		{
			"mesh":1,
			"name":"Cube.004",
			"rotation":[
				0,
				0.7251519560813904,
				0,
				0.6885889172554016
			],
			"scale":[
				1.9629734754562378,
				3.1461997032165527,
				1.9629734754562378
			]
		}
	],
	"materials":[
		{
			"doubleSided":true,
			"extensions":{
				"KHR_materials_specular":{
					"specularColorFactor":[
						2.0,
						2.0,
						2.0
					]
				},
				"KHR_materials_ior":{
					"ior":1.4500000476837158
				}
			},
			"name":"building",
			"pbrMetallicRoughness":{
				"baseColorTexture":{
					"index":0
				},
				"metallicFactor":0
			}
		},
		{
			"doubleSided":true,
			"emissiveFactor":[
				0.09784298909313212,
				1,
				0.08569416583338194
			],
			"extensions":{
				"KHR_materials_emissive_strength":{
					"emissiveStrength":1.5982129573822021
				}
			},
			"name":"Glow4",
			"pbrMetallicRoughness":{
				"baseColorFactor":[
					0.078976109623909,
					0.8012131452560425,
					0.06799241155385971,
					1
				],
				"metallicFactor":0
			}
		}
	],
	"meshes":[
		{
			"name":"Plane.932",
			"primitives":[
				{
					"attributes":{
						"POSITION":0,
						"NORMAL":1,
						"TEXCOORD_0":2
					},
					"indices":3,
					"material":0
				}
			]
		},
		{
			"name":"Cube.634",
			"primitives":[
				{
					"attributes":{
						"POSITION":4,
						"NORMAL":5,
						"TEXCOORD_0":6
					},
					"indices":7,
					"material":0
				},
				{
					"attributes":{
						"POSITION":8,
						"NORMAL":9,
						"TEXCOORD_0":10
					},
					"indices":11,
					"material":1
				},
				{
					"attributes":{
						"POSITION":12,
						"NORMAL":13,
						"TEXCOORD_0":14
					},
					"indices":15,
					"material":1
				}
			]
		}
	],
	"textures":[
		{
			"sampler":0,
			"source":0
		}
	],
	"images":[
		{
			"mimeType":"image/png",
			"name":"AvatarWearables_TX",
			"uri":"tex/AvatarWearables_TX.png"
		}
	],
	"accessors":[
		{
			"bufferView":0,
			"componentType":5126,
			"count":74,
			"max":[
				0.5080312490463257,
				-11.610142707824707,
				0.5080304145812988
			],
			"min":[
				-0.5080312490463257,
				-16.256999969482422,
				-0.5080323219299316
			],
			"type":"VEC3"
		},
		{
			"bufferView":1,
			"componentType":5126,
			"count":74,
			"type":"VEC3"
		},
		{
			"bufferView":2,
			"componentType":5126,
			"count":74,
			"type":"VEC2"
		},
		{
			"bufferView":3,
			"componentType":5123,
			"count":228,
			"type":"SCALAR"
		},
		{
			"bufferView":4,
			"componentType":5126,
			"count":2420,
			"max":[
				1.7303128242492676,
				-0.6547188758850098,
				2.1300134658813477
			],
			"min":[
				-0.4512518644332886,
				-4.646101474761963,
				1.1347098350524902
			],
			"type":"VEC3"
		},
		{
			"bufferView":5,
			"componentType":5126,
			"count":2420,
			"type":"VEC3"
		},
		{
			"bufferView":6,
			"componentType":5126,
			"count":2420,
			"type":"VEC2"
		},
		{
			"bufferView":7,
			"componentType":5123,
			"count":5064,
			"type":"SCALAR"
		},
		{
			"bufferView":8,
			"componentType":5126,
			"count":504,
			"max":[
				1.7303147315979004,
				-0.6547183990478516,
				2.1300137042999268
			],
			"min":[
				-0.45124995708465576,
				-4.358293056488037,
				1.1347098350524902
			],
			"type":"VEC3"
		},
		{
			"bufferView":9,
			"componentType":5126,
			"count":504,
			"type":"VEC3"
		},
		{
			"bufferView":10,
			"componentType":5126,
			"count":504,
			"type":"VEC2"
		},
		{
			"bufferView":11,
			"componentType":5123,
			"count":864,
			"type":"SCALAR"
		},
		{
			"bufferView":12,
			"componentType":5126,
			"count":410,
			"max":[
				1.7303141355514526,
				-0.6547183990478516,
				2.1300137042999268
			],
			"min":[
				-0.4512518644332886,
				-4.646101474761963,
				2.0170960426330566
			],
			"type":"VEC3"
		},
		{
			"bufferView":13,
			"componentType":5126,
			"count":410,
			"type":"VEC3"
		},
		{
			"bufferView":14,
			"componentType":5126,
			"count":410,
			"type":"VEC2"
		},
		{
			"bufferView":15,
			"componentType":5123,
			"count":1263,
			"type":"SCALAR"
		}
	],
	"bufferViews":[
		{
			"buffer":0,
			"byteLength":888,
			"byteOffset":0,
			"target":34962
		},
		{
			"buffer":0,
			"byteLength":888,
			"byteOffset":888,
			"target":34962
		},
		{
			"buffer":0,
			"byteLength":592,
			"byteOffset":1776,
			"target":34962
		},
		{
			"buffer":0,
			"byteLength":456,
			"byteOffset":2368,
			"target":34963
		},
		{
			"buffer":0,
			"byteLength":29040,
			"byteOffset":2824,
			"target":34962
		},
		{
			"buffer":0,
			"byteLength":29040,
			"byteOffset":31864,
			"target":34962
		},
		{
			"buffer":0,
			"byteLength":19360,
			"byteOffset":60904,
			"target":34962
		},
		{
			"buffer":0,
			"byteLength":10128,
			"byteOffset":80264,
			"target":34963
		},
		{
			"buffer":0,
			"byteLength":6048,
			"byteOffset":90392,
			"target":34962
		},
		{
			"buffer":0,
			"byteLength":6048,
			"byteOffset":96440,
			"target":34962
		},
		{
			"buffer":0,
			"byteLength":4032,
			"byteOffset":102488,
			"target":34962
		},
		{
			"buffer":0,
			"byteLength":1728,
			"byteOffset":106520,
			"target":34963
		},
		{
			"buffer":0,
			"byteLength":4920,
			"byteOffset":108248,
			"target":34962
		},
		{
			"buffer":0,
			"byteLength":4920,
			"byteOffset":113168,
			"target":34962
		},
		{
			"buffer":0,
			"byteLength":3280,
			"byteOffset":118088,
			"target":34962
		},
		{
			"buffer":0,
			"byteLength":2526,
			"byteOffset":121368,
			"target":34963
		}
	],
	"samplers":[
		{
			"magFilter":9729,
			"minFilter":9987
		}
	],
	"buffers":[
		{
			"byteLength":123896,
			"uri":"tile_11_0_8.bin"
		}
	]
}
