{
	"asset":{
		"generator":"Khronos glTF Blender I/O v4.0.44",
		"version":"2.0"
	},
	"extensionsUsed":[
		"KHR_materials_specular",
		"KHR_materials_ior",
		"KHR_materials_emissive_strength"
	],
	"scene":0,
	"scenes":[
		{
			"name":"Scene",
			"nodes":[
				0,
				1,
				2
			]
		}
	],
	"nodes":[
		{
			"mesh":0,
			"name":"Plane",
			"scale":[
				7.873531341552734,
				0.9841914176940918,
				7.873531341552734
			]
		},
		{
			"mesh":1,
			"name":"track.264",
			"scale":[
				3.7706682682037354,
				3.7706682682037354,
				3.7706682682037354
			]
		},
		{
			"mesh":2,
			"name":"Cube.002",
			"rotation":[
				0,
				-0.30317404866218567,
				0,
				0.9529352188110352
			],
			"scale":[
				3.3134214878082275,
				3.3134217262268066,
				3.3134214878082275
			]
		}
	],
	"materials":[
		{
			"doubleSided":true,
			"extensions":{
				"KHR_materials_specular":{
					"specularColorFactor":[
						2.0,
						2.0,
						2.0
					]
				},
				"KHR_materials_ior":{
					"ior":1.4500000476837158
				}
			},
			"name":"building",
			"pbrMetallicRoughness":{
				"baseColorTexture":{
					"index":0
				},
				"metallicFactor":0
			}
		},
		{
			"doubleSided":true,
			"emissiveFactor":[
				0.0802171136311348,
				0.06480263589233753,
				1
			],
			"extensions":{
				"KHR_materials_emissive_strength":{
					"emissiveStrength":2.0000481605529785
				}
			},
			"name":"Glow5",
			"pbrMetallicRoughness":{
				"baseColorFactor":[
					0.08072357624769211,
					0.06527391821146011,
					1,
					1
				],
				"metallicFactor":0
			}
		}
	],
	"meshes":[
		{
			"name":"Plane.1178",
			"primitives":[
				{
					"attributes":{
						"POSITION":0,
						"NORMAL":1,
						"TEXCOORD_0":2,
						"TANGENT":3
					},
					"indices":4,
					"material":0
				}
			]
		},
		{
			"name":"Plane.1179",
			"primitives":[
				{
					"attributes":{
						"POSITION":5,
						"NORMAL":6,
						"TEXCOORD_0":7,
						"TANGENT":8
					},
					"indices":9,
					"material":0
				}
			]
		},
		{
			"name":"Cube.691",
			"primitives":[
				{
					"attributes":{
						"POSITION":10,
						"NORMAL":11,
						"TEXCOORD_0":12
					},
					"indices":13,
					"material":0
				},
				{
					"attributes":{
						"POSITION":14,
						"NORMAL":15,
						"TEXCOORD_0":16
					},
					"indices":17,
					"material":1
				}
			]
		}
	],
	"textures":[
		{
			"sampler":0,
			"source":0
		}
	],
	"images":[
		{
			"mimeType":"image/png",
			"name":"AvatarWearables_TX",
			"uri":"tex/AvatarWearables_TX.png"
		}
	],
	"accessors":[
		{
			"bufferView":0,
			"componentType":5126,
			"count":62,
			"max":[
				0.508030891418457,
				-14.567778587341309,
				0.5080313682556152
			],
			"min":[
				-0.508030891418457,
				-14.900496482849121,
				-0.41324806213378906
			],
			"type":"VEC3"
		},
		{
			"bufferView":1,
			"componentType":5126,
			"count":62,
			"type":"VEC3"
		},
		{
			"bufferView":2,
			"componentType":5126,
			"count":62,
			"type":"VEC2"
		},
		{
			"bufferView":3,
			"componentType":5126,
			"count":62,
			"type":"VEC4"
		},
		{
			"bufferView":4,
			"componentType":5123,
			"count":192,
			"type":"SCALAR"
		},
		{
			"bufferView":5,
			"componentType":5126,
			"count":18,
			"max":[
				-0.9191989898681641,
				-3.5411062240600586,
				1.0608196258544922
			],
			"min":[
				-1.0608234405517578,
				-3.709982395172119,
				0.9397783279418945
			],
			"type":"VEC3"
		},
		{
			"bufferView":6,
			"componentType":5126,
			"count":18,
			"type":"VEC3"
		},
		{
			"bufferView":7,
			"componentType":5126,
			"count":18,
			"type":"VEC2"
		},
		{
			"bufferView":8,
			"componentType":5126,
			"count":18,
			"type":"VEC4"
		},
		{
			"bufferView":9,
			"componentType":5123,
			"count":24,
			"type":"SCALAR"
		},
		{
			"bufferView":10,
			"componentType":5126,
			"count":961,
			"max":[
				1.6828302145004272,
				1.4348971843719482,
				1.0331743955612183
			],
			"min":[
				0.629902720451355,
				-4.483445167541504,
				-0.35752594470977783
			],
			"type":"VEC3"
		},
		{
			"bufferView":11,
			"componentType":5126,
			"count":961,
			"type":"VEC3"
		},
		{
			"bufferView":12,
			"componentType":5126,
			"count":961,
			"type":"VEC2"
		},
		{
			"bufferView":13,
			"componentType":5123,
			"count":1758,
			"type":"SCALAR"
		},
		{
			"bufferView":14,
			"componentType":5126,
			"count":60,
			"max":[
				1.6828302145004272,
				1.1188695430755615,
				0.8903207778930664
			],
			"min":[
				0.831686794757843,
				-3.588505744934082,
				-0.15574198961257935
			],
			"type":"VEC3"
		},
		{
			"bufferView":15,
			"componentType":5126,
			"count":60,
			"type":"VEC3"
		},
		{
			"bufferView":16,
			"componentType":5126,
			"count":60,
			"type":"VEC2"
		},
		{
			"bufferView":17,
			"componentType":5123,
			"count":90,
			"type":"SCALAR"
		}
	],
	"bufferViews":[
		{
			"buffer":0,
			"byteLength":744,
			"byteOffset":0,
			"target":34962
		},
		{
			"buffer":0,
			"byteLength":744,
			"byteOffset":744,
			"target":34962
		},
		{
			"buffer":0,
			"byteLength":496,
			"byteOffset":1488,
			"target":34962
		},
		{
			"buffer":0,
			"byteLength":992,
			"byteOffset":1984,
			"target":34962
		},
		{
			"buffer":0,
			"byteLength":384,
			"byteOffset":2976,
			"target":34963
		},
		{
			"buffer":0,
			"byteLength":216,
			"byteOffset":3360,
			"target":34962
		},
		{
			"buffer":0,
			"byteLength":216,
			"byteOffset":3576,
			"target":34962
		},
		{
			"buffer":0,
			"byteLength":144,
			"byteOffset":3792,
			"target":34962
		},
		{
			"buffer":0,
			"byteLength":288,
			"byteOffset":3936,
			"target":34962
		},
		{
			"buffer":0,
			"byteLength":48,
			"byteOffset":4224,
			"target":34963
		},
		{
			"buffer":0,
			"byteLength":11532,
			"byteOffset":4272,
			"target":34962
		},
		{
			"buffer":0,
			"byteLength":11532,
			"byteOffset":15804,
			"target":34962
		},
		{
			"buffer":0,
			"byteLength":7688,
			"byteOffset":27336,
			"target":34962
		},
		{
			"buffer":0,
			"byteLength":3516,
			"byteOffset":35024,
			"target":34963
		},
		{
			"buffer":0,
			"byteLength":720,
			"byteOffset":38540,
			"target":34962
		},
		{
			"buffer":0,
			"byteLength":720,
			"byteOffset":39260,
			"target":34962
		},
		{
			"buffer":0,
			"byteLength":480,
			"byteOffset":39980,
			"target":34962
		},
		{
			"buffer":0,
			"byteLength":180,
			"byteOffset":40460,
			"target":34963
		}
	],
	"samplers":[
		{
			"magFilter":9729,
			"minFilter":9987
		}
	],
	"buffers":[
		{
			"byteLength":40640,
			"uri":"tile_21_0_11.bin"
		}
	]
}
