{
	"asset":{
		"generator":"Khronos glTF Blender I/O v4.0.44",
		"version":"2.0"
	},
	"extensionsUsed":[
		"KHR_materials_specular",
		"KHR_materials_ior"
	],
	"scene":0,
	"scenes":[
		{
			"name":"Scene",
			"nodes":[
				0,
				1,
				2,
				3
			]
		}
	],
	"nodes":[
		{
			"mesh":0,
			"name":"Plane",
			"scale":[
				7.873531341552734,
				0.9841914176940918,
				7.873531341552734
			]
		},
		{
			"mesh":1,
			"name":"track.215",
			"scale":[
				3.7706682682037354,
				3.7706682682037354,
				3.7706682682037354
			]
		},
		{
			"mesh":2,
			"name":"Cube.007"
		},
		{
			"mesh":3,
			"name":"Cube.077"
		}
	],
	"materials":[
		{
			"doubleSided":true,
			"extensions":{
				"KHR_materials_specular":{
					"specularColorFactor":[
						2.0,
						2.0,
						2.0
					]
				},
				"KHR_materials_ior":{
					"ior":1.4500000476837158
				}
			},
			"name":"building",
			"pbrMetallicRoughness":{
				"baseColorTexture":{
					"index":0
				},
				"metallicFactor":0
			}
		}
	],
	"meshes":[
		{
			"name":"Plane.1080",
			"primitives":[
				{
					"attributes":{
						"POSITION":0,
						"NORMAL":1,
						"TEXCOORD_0":2,
						"TANGENT":3
					},
					"indices":4,
					"material":0
				}
			]
		},
		{
			"name":"Plane.1081",
			"primitives":[
				{
					"attributes":{
						"POSITION":5,
						"NORMAL":6,
						"TEXCOORD_0":7
					},
					"indices":8,
					"material":0
				},
				{
					"attributes":{
						"POSITION":9,
						"NORMAL":10,
						"TEXCOORD_0":11
					},
					"indices":12,
					"material":0
				}
			]
		},
		{
			"name":"Cube.670",
			"primitives":[
				{
					"attributes":{
						"POSITION":13,
						"NORMAL":14,
						"TEXCOORD_0":15
					},
					"indices":16,
					"material":0
				}
			]
		},
		{
			"name":"Cube.671",
			"primitives":[
				{
					"attributes":{
						"POSITION":17,
						"NORMAL":18,
						"TEXCOORD_0":19,
						"TANGENT":20
					},
					"indices":21,
					"material":0
				},
				{
					"attributes":{
						"POSITION":22,
						"NORMAL":23,
						"TEXCOORD_0":24,
						"TANGENT":25
					},
					"indices":26,
					"material":0
				}
			]
		}
	],
	"textures":[
		{
			"sampler":0,
			"source":0
		}
	],
	"images":[
		{
			"mimeType":"image/png",
			"name":"AvatarWearables_TX",
			"uri":"tex/AvatarWearables_TX.png"
		}
	],
	"accessors":[
		{
			"bufferView":0,
			"componentType":5126,
			"count":36,
			"max":[
				0.508033275604248,
				-14.900496482849121,
				0.5080313682556152
			],
			"min":[
				-0.5080294609069824,
				-14.900496482849121,
				-0.5080313682556152
			],
			"type":"VEC3"
		},
		{
			"bufferView":1,
			"componentType":5126,
			"count":36,
			"type":"VEC3"
		},
		{
			"bufferView":2,
			"componentType":5126,
			"count":36,
			"type":"VEC2"
		},
		{
			"bufferView":3,
			"componentType":5126,
			"count":36,
			"type":"VEC4"
		},
		{
			"bufferView":4,
			"componentType":5123,
			"count":150,
			"type":"SCALAR"
		},
		{
			"bufferView":5,
			"componentType":5126,
			"count":60,
			"max":[
				1.0608196258544922,
				-3.530496120452881,
				0.7066125869750977
			],
			"min":[
				-1.0608196258544922,
				-4.10733699798584,
				-1.0608196258544922
			],
			"type":"VEC3"
		},
		{
			"bufferView":6,
			"componentType":5126,
			"count":60,
			"type":"VEC3"
		},
		{
			"bufferView":7,
			"componentType":5126,
			"count":60,
			"type":"VEC2"
		},
		{
			"bufferView":8,
			"componentType":5123,
			"count":90,
			"type":"SCALAR"
		},
		{
			"bufferView":9,
			"componentType":5126,
			"count":20,
			"max":[
				1.0608196258544922,
				-3.530496120452881,
				0.7066125869750977
			],
			"min":[
				-1.0608196258544922,
				-4.243279933929443,
				-1.0608196258544922
			],
			"type":"VEC3"
		},
		{
			"bufferView":10,
			"componentType":5126,
			"count":20,
			"type":"VEC3"
		},
		{
			"bufferView":11,
			"componentType":5126,
			"count":20,
			"type":"VEC2"
		},
		{
			"bufferView":12,
			"componentType":5123,
			"count":42,
			"type":"SCALAR"
		},
		{
			"bufferView":13,
			"componentType":5126,
			"count":80,
			"max":[
				2.720898151397705,
				-13.868947982788086,
				4
			],
			"min":[
				-4,
				-14.759161949157715,
				3.660184860229492
			],
			"type":"VEC3"
		},
		{
			"bufferView":14,
			"componentType":5126,
			"count":80,
			"type":"VEC3"
		},
		{
			"bufferView":15,
			"componentType":5126,
			"count":80,
			"type":"VEC2"
		},
		{
			"bufferView":16,
			"componentType":5123,
			"count":180,
			"type":"SCALAR"
		},
		{
			"bufferView":17,
			"componentType":5126,
			"count":16,
			"max":[
				2.6664228439331055,
				-14.049240112304688,
				4
			],
			"min":[
				-4,
				-14.107187271118164,
				3.896552562713623
			],
			"type":"VEC3"
		},
		{
			"bufferView":18,
			"componentType":5126,
			"count":16,
			"type":"VEC3"
		},
		{
			"bufferView":19,
			"componentType":5126,
			"count":16,
			"type":"VEC2"
		},
		{
			"bufferView":20,
			"componentType":5126,
			"count":16,
			"type":"VEC4"
		},
		{
			"bufferView":21,
			"componentType":5123,
			"count":24,
			"type":"SCALAR"
		},
		{
			"bufferView":22,
			"componentType":5126,
			"count":8,
			"max":[
				2.6664228439331055,
				-14.049240112304688,
				4
			],
			"min":[
				-4,
				-14.107187271118164,
				3.8965530395507812
			],
			"type":"VEC3"
		},
		{
			"bufferView":23,
			"componentType":5126,
			"count":8,
			"type":"VEC3"
		},
		{
			"bufferView":24,
			"componentType":5126,
			"count":8,
			"type":"VEC2"
		},
		{
			"bufferView":25,
			"componentType":5126,
			"count":8,
			"type":"VEC4"
		},
		{
			"bufferView":26,
			"componentType":5123,
			"count":12,
			"type":"SCALAR"
		}
	],
	"bufferViews":[
		{
			"buffer":0,
			"byteLength":432,
			"byteOffset":0,
			"target":34962
		},
		{
			"buffer":0,
			"byteLength":432,
			"byteOffset":432,
			"target":34962
		},
		{
			"buffer":0,
			"byteLength":288,
			"byteOffset":864,
			"target":34962
		},
		{
			"buffer":0,
			"byteLength":576,
			"byteOffset":1152,
			"target":34962
		},
		{
			"buffer":0,
			"byteLength":300,
			"byteOffset":1728,
			"target":34963
		},
		{
			"buffer":0,
			"byteLength":720,
			"byteOffset":2028,
			"target":34962
		},
		{
			"buffer":0,
			"byteLength":720,
			"byteOffset":2748,
			"target":34962
		},
		{
			"buffer":0,
			"byteLength":480,
			"byteOffset":3468,
			"target":34962
		},
		{
			"buffer":0,
			"byteLength":180,
			"byteOffset":3948,
			"target":34963
		},
		{
			"buffer":0,
			"byteLength":240,
			"byteOffset":4128,
			"target":34962
		},
		{
			"buffer":0,
			"byteLength":240,
			"byteOffset":4368,
			"target":34962
		},
		{
			"buffer":0,
			"byteLength":160,
			"byteOffset":4608,
			"target":34962
		},
		{
			"buffer":0,
			"byteLength":84,
			"byteOffset":4768,
			"target":34963
		},
		{
			"buffer":0,
			"byteLength":960,
			"byteOffset":4852,
			"target":34962
		},
		{
			"buffer":0,
			"byteLength":960,
			"byteOffset":5812,
			"target":34962
		},
		{
			"buffer":0,
			"byteLength":640,
			"byteOffset":6772,
			"target":34962
		},
		{
			"buffer":0,
			"byteLength":360,
			"byteOffset":7412,
			"target":34963
		},
		{
			"buffer":0,
			"byteLength":192,
			"byteOffset":7772,
			"target":34962
		},
		{
			"buffer":0,
			"byteLength":192,
			"byteOffset":7964,
			"target":34962
		},
		{
			"buffer":0,
			"byteLength":128,
			"byteOffset":8156,
			"target":34962
		},
		{
			"buffer":0,
			"byteLength":256,
			"byteOffset":8284,
			"target":34962
		},
		{
			"buffer":0,
			"byteLength":48,
			"byteOffset":8540,
			"target":34963
		},
		{
			"buffer":0,
			"byteLength":96,
			"byteOffset":8588,
			"target":34962
		},
		{
			"buffer":0,
			"byteLength":96,
			"byteOffset":8684,
			"target":34962
		},
		{
			"buffer":0,
			"byteLength":64,
			"byteOffset":8780,
			"target":34962
		},
		{
			"buffer":0,
			"byteLength":128,
			"byteOffset":8844,
			"target":34962
		},
		{
			"buffer":0,
			"byteLength":24,
			"byteOffset":8972,
			"target":34963
		}
	],
	"samplers":[
		{
			"magFilter":9729,
			"minFilter":9987
		}
	],
	"buffers":[
		{
			"byteLength":8996,
			"uri":"tile_17_0_10.bin"
		}
	]
}
