{
	"asset":{
		"generator":"Khronos glTF Blender I/O v4.0.44",
		"version":"2.0"
	},
	"extensionsUsed":[
		"KHR_materials_specular",
		"KHR_materials_ior"
	],
	"scene":0,
	"scenes":[
		{
			"name":"Scene",
			"nodes":[
				0,
				1,
				2,
				3,
				4
			]
		}
	],
	"nodes":[
		{
			"mesh":0,
			"name":"Plane",
			"scale":[
				7.873531341552734,
				0.9841914176940918,
				7.873531341552734
			]
		},
		{
			"name":"track.055",
			"scale":[
				3.7706682682037354,
				3.7706682682037354,
				3.7706682682037354
			]
		},
		{
			"mesh":1,
			"name":"Cylinder.021"
		},
		{
			"mesh":2,
			"name":"Cylinder.115"
		},
		{
			"mesh":3,
			"name":"Cylinder.116"
		}
	],
	"materials":[
		{
			"doubleSided":true,
			"extensions":{
				"KHR_materials_specular":{
					"specularColorFactor":[
						2.0,
						2.0,
						2.0
					]
				},
				"KHR_materials_ior":{
					"ior":1.4500000476837158
				}
			},
			"name":"building",
			"pbrMetallicRoughness":{
				"baseColorTexture":{
					"index":0
				},
				"metallicFactor":0
			}
		}
	],
	"meshes":[
		{
			"name":"Plane.762",
			"primitives":[
				{
					"attributes":{
						"POSITION":0,
						"NORMAL":1,
						"TEXCOORD_0":2
					},
					"indices":3,
					"material":0
				}
			]
		},
		{
			"name":"Cylinder.363",
			"primitives":[
				{
					"attributes":{
						"POSITION":4,
						"NORMAL":5,
						"TEXCOORD_0":6
					},
					"indices":7,
					"material":0
				}
			]
		},
		{
			"name":"Cylinder.364",
			"primitives":[
				{
					"attributes":{
						"POSITION":8,
						"NORMAL":9,
						"TEXCOORD_0":10
					},
					"indices":11,
					"material":0
				}
			]
		},
		{
			"name":"Cylinder.365",
			"primitives":[
				{
					"attributes":{
						"POSITION":12,
						"NORMAL":13,
						"TEXCOORD_0":14
					},
					"indices":15,
					"material":0
				}
			]
		}
	],
	"textures":[
		{
			"sampler":0,
			"source":0
		}
	],
	"images":[
		{
			"mimeType":"image/png",
			"name":"AvatarWearables_TX",
			"uri":"tex/AvatarWearables_TX.png"
		}
	],
	"accessors":[
		{
			"bufferView":0,
			"componentType":5126,
			"count":95,
			"max":[
				0.5080313682556152,
				-6.26358699798584,
				0.5080312490463257
			],
			"min":[
				-0.5080313682556152,
				-16.256999969482422,
				-0.5080313682556152
			],
			"type":"VEC3"
		},
		{
			"bufferView":1,
			"componentType":5126,
			"count":95,
			"type":"VEC3"
		},
		{
			"bufferView":2,
			"componentType":5126,
			"count":95,
			"type":"VEC2"
		},
		{
			"bufferView":3,
			"componentType":5123,
			"count":300,
			"type":"SCALAR"
		},
		{
			"bufferView":4,
			"componentType":5126,
			"count":53,
			"max":[
				1.6403608322143555,
				-2.7988929748535156,
				-3.5404839515686035
			],
			"min":[
				0.2629057765007019,
				-5.653345108032227,
				-4
			],
			"type":"VEC3"
		},
		{
			"bufferView":5,
			"componentType":5126,
			"count":53,
			"type":"VEC3"
		},
		{
			"bufferView":6,
			"componentType":5126,
			"count":53,
			"type":"VEC2"
		},
		{
			"bufferView":7,
			"componentType":5123,
			"count":156,
			"type":"SCALAR"
		},
		{
			"bufferView":8,
			"componentType":5126,
			"count":48,
			"max":[
				4,
				2.4658918380737305,
				-3.0977020263671875
			],
			"min":[
				0.9861544370651245,
				-0.738555908203125,
				-4
			],
			"type":"VEC3"
		},
		{
			"bufferView":9,
			"componentType":5126,
			"count":48,
			"type":"VEC3"
		},
		{
			"bufferView":10,
			"componentType":5126,
			"count":48,
			"type":"VEC2"
		},
		{
			"bufferView":11,
			"componentType":5123,
			"count":72,
			"type":"SCALAR"
		},
		{
			"bufferView":12,
			"componentType":5126,
			"count":72,
			"max":[
				1.2670899629592896,
				-3.4975719451904297,
				-2.601517677307129
			],
			"min":[
				-0.575764536857605,
				-5.26912784576416,
				-4
			],
			"type":"VEC3"
		},
		{
			"bufferView":13,
			"componentType":5126,
			"count":72,
			"type":"VEC3"
		},
		{
			"bufferView":14,
			"componentType":5126,
			"count":72,
			"type":"VEC2"
		},
		{
			"bufferView":15,
			"componentType":5123,
			"count":96,
			"type":"SCALAR"
		}
	],
	"bufferViews":[
		{
			"buffer":0,
			"byteLength":1140,
			"byteOffset":0,
			"target":34962
		},
		{
			"buffer":0,
			"byteLength":1140,
			"byteOffset":1140,
			"target":34962
		},
		{
			"buffer":0,
			"byteLength":760,
			"byteOffset":2280,
			"target":34962
		},
		{
			"buffer":0,
			"byteLength":600,
			"byteOffset":3040,
			"target":34963
		},
		{
			"buffer":0,
			"byteLength":636,
			"byteOffset":3640,
			"target":34962
		},
		{
			"buffer":0,
			"byteLength":636,
			"byteOffset":4276,
			"target":34962
		},
		{
			"buffer":0,
			"byteLength":424,
			"byteOffset":4912,
			"target":34962
		},
		{
			"buffer":0,
			"byteLength":312,
			"byteOffset":5336,
			"target":34963
		},
		{
			"buffer":0,
			"byteLength":576,
			"byteOffset":5648,
			"target":34962
		},
		{
			"buffer":0,
			"byteLength":576,
			"byteOffset":6224,
			"target":34962
		},
		{
			"buffer":0,
			"byteLength":384,
			"byteOffset":6800,
			"target":34962
		},
		{
			"buffer":0,
			"byteLength":144,
			"byteOffset":7184,
			"target":34963
		},
		{
			"buffer":0,
			"byteLength":864,
			"byteOffset":7328,
			"target":34962
		},
		{
			"buffer":0,
			"byteLength":864,
			"byteOffset":8192,
			"target":34962
		},
		{
			"buffer":0,
			"byteLength":576,
			"byteOffset":9056,
			"target":34962
		},
		{
			"buffer":0,
			"byteLength":192,
			"byteOffset":9632,
			"target":34963
		}
	],
	"samplers":[
		{
			"magFilter":9729,
			"minFilter":9987
		}
	],
	"buffers":[
		{
			"byteLength":9824,
			"uri":"tile_4_0_7.bin"
		}
	]
}
