{
	"asset":{
		"generator":"Khronos glTF Blender I/O v4.0.44",
		"version":"2.0"
	},
	"extensionsUsed":[
		"KHR_materials_specular",
		"KHR_materials_ior"
	],
	"scene":0,
	"scenes":[
		{
			"name":"Scene",
			"nodes":[
				0,
				1
			]
		}
	],
	"nodes":[
		{
			"mesh":0,
			"name":"Plane",
			"scale":[
				7.873531341552734,
				0.9841914176940918,
				7.873531341552734
			]
		},
		{
			"mesh":1,
			"name":"Plane.001",
			"scale":[
				3.7706682682037354,
				3.7706682682037354,
				3.7706682682037354
			]
		}
	],
	"materials":[
		{
			"doubleSided":true,
			"extensions":{
				"KHR_materials_specular":{
					"specularColorFactor":[
						2.0,
						2.0,
						2.0
					]
				},
				"KHR_materials_ior":{
					"ior":1.4500000476837158
				}
			},
			"name":"building",
			"pbrMetallicRoughness":{
				"baseColorTexture":{
					"index":0
				},
				"metallicFactor":0
			}
		}
	],
	"meshes":[
		{
			"name":"Plane.053",
			"primitives":[
				{
					"attributes":{
						"POSITION":0,
						"NORMAL":1,
						"TEXCOORD_0":2
					},
					"indices":3,
					"material":0
				},
				{
					"attributes":{
						"POSITION":4,
						"NORMAL":5,
						"TEXCOORD_0":6
					},
					"indices":7,
					"material":0
				}
			]
		},
		{
			"name":"Plane.054",
			"primitives":[
				{
					"attributes":{
						"POSITION":8,
						"NORMAL":9,
						"TEXCOORD_0":10
					},
					"indices":11,
					"material":0
				}
			]
		}
	],
	"textures":[
		{
			"sampler":0,
			"source":0
		}
	],
	"images":[
		{
			"mimeType":"image/png",
			"name":"AvatarWearables_TX",
			"uri":"tex/AvatarWearables_TX.png"
		}
	],
	"accessors":[
		{
			"bufferView":0,
			"componentType":5126,
			"count":138,
			"max":[
				1.0160627365112305,
				-2.406147003173828,
				1.0160622596740723
			],
			"min":[
				-1.0160627365112305,
				-6.77199649810791,
				-0.9212799072265625
			],
			"type":"VEC3"
		},
		{
			"bufferView":1,
			"componentType":5126,
			"count":138,
			"type":"VEC3"
		},
		{
			"bufferView":2,
			"componentType":5126,
			"count":138,
			"type":"VEC2"
		},
		{
			"bufferView":3,
			"componentType":5123,
			"count":564,
			"type":"SCALAR"
		},
		{
			"bufferView":4,
			"componentType":5126,
			"count":29,
			"max":[
				1.0160627365112305,
				-2.406147003173828,
				1.0160622596740723
			],
			"min":[
				-1.0160627365112305,
				-8.128499984741211,
				-0.9212799072265625
			],
			"type":"VEC3"
		},
		{
			"bufferView":5,
			"componentType":5126,
			"count":29,
			"type":"VEC3"
		},
		{
			"bufferView":6,
			"componentType":5126,
			"count":29,
			"type":"VEC2"
		},
		{
			"bufferView":7,
			"componentType":5123,
			"count":51,
			"type":"SCALAR"
		},
		{
			"bufferView":8,
			"componentType":5126,
			"count":83,
			"max":[
				2.1216392517089844,
				-1.4030708074569702,
				2.121640205383301
			],
			"min":[
				0.18688011169433594,
				-2.1216397285461426,
				-0.9224748611450195
			],
			"type":"VEC3"
		},
		{
			"bufferView":9,
			"componentType":5126,
			"count":83,
			"type":"VEC3"
		},
		{
			"bufferView":10,
			"componentType":5126,
			"count":83,
			"type":"VEC2"
		},
		{
			"bufferView":11,
			"componentType":5123,
			"count":147,
			"type":"SCALAR"
		}
	],
	"bufferViews":[
		{
			"buffer":0,
			"byteLength":1656,
			"byteOffset":0,
			"target":34962
		},
		{
			"buffer":0,
			"byteLength":1656,
			"byteOffset":1656,
			"target":34962
		},
		{
			"buffer":0,
			"byteLength":1104,
			"byteOffset":3312,
			"target":34962
		},
		{
			"buffer":0,
			"byteLength":1128,
			"byteOffset":4416,
			"target":34963
		},
		{
			"buffer":0,
			"byteLength":348,
			"byteOffset":5544,
			"target":34962
		},
		{
			"buffer":0,
			"byteLength":348,
			"byteOffset":5892,
			"target":34962
		},
		{
			"buffer":0,
			"byteLength":232,
			"byteOffset":6240,
			"target":34962
		},
		{
			"buffer":0,
			"byteLength":102,
			"byteOffset":6472,
			"target":34963
		},
		{
			"buffer":0,
			"byteLength":996,
			"byteOffset":6576,
			"target":34962
		},
		{
			"buffer":0,
			"byteLength":996,
			"byteOffset":7572,
			"target":34962
		},
		{
			"buffer":0,
			"byteLength":664,
			"byteOffset":8568,
			"target":34962
		},
		{
			"buffer":0,
			"byteLength":294,
			"byteOffset":9232,
			"target":34963
		}
	],
	"samplers":[
		{
			"magFilter":9729,
			"minFilter":9987
		}
	],
	"buffers":[
		{
			"byteLength":9528,
			"uri":"tile_2_1_5.bin"
		}
	]
}
