{
	"asset":{
		"generator":"Khronos glTF Blender I/O v4.0.44",
		"version":"2.0"
	},
	"extensionsUsed":[
		"KHR_materials_specular",
		"KHR_materials_ior",
		"KHR_materials_emissive_strength"
	],
	"scene":0,
	"scenes":[
		{
			"name":"Scene",
			"nodes":[
				0,
				1,
				2,
				3
			]
		}
	],
	"nodes":[
		{
			"name":"Plane",
			"scale":[
				7.873531341552734,
				0.9841914176940918,
				7.873531341552734
			]
		},
		{
			"mesh":0,
			"name":"Cube.012",
			"rotation":[
				0,
				-0.4193370044231415,
				0,
				0.9078306555747986
			],
			"scale":[
				2.2909789085388184,
				3.6719183921813965,
				2.2909789085388184
			]
		},
		{
			"mesh":1,
			"name":"Cube.013",
			"rotation":[
				0,
				-0.7997965812683105,
				0,
				0.6002712249755859
			],
			"scale":[
				1.7614697217941284,
				1.7614694833755493,
				1.7614697217941284
			]
		},
		{
			"mesh":2,
			"name":"Cylinder.003",
			"scale":[
				1.741005539894104,
				11.939791679382324,
				1.741005539894104
			]
		}
	],
	"materials":[
		{
			"doubleSided":true,
			"extensions":{
				"KHR_materials_specular":{
					"specularColorFactor":[
						2.0,
						2.0,
						2.0
					]
				},
				"KHR_materials_ior":{
					"ior":1.4500000476837158
				}
			},
			"name":"building2",
			"pbrMetallicRoughness":{
				"baseColorTexture":{
					"index":0
				},
				"metallicFactor":0,
				"roughnessFactor":0.17924527823925018
			}
		},
		{
			"doubleSided":true,
			"emissiveFactor":[
				1,
				0.2655798013274177,
				0.04142626284219435
			],
			"extensions":{
				"KHR_materials_emissive_strength":{
					"emissiveStrength":1.5982129573822021
				}
			},
			"name":"Glow1",
			"pbrMetallicRoughness":{
				"baseColorFactor":[
					0.8008996248245239,
					0.21048900485038757,
					0.033567022532224655,
					1
				],
				"metallicFactor":0
			}
		},
		{
			"doubleSided":true,
			"emissiveFactor":[
				1,
				1,
				0
			],
			"name":"Glow6",
			"pbrMetallicRoughness":{
				"baseColorFactor":[
					0.8000000715255737,
					0.6898009181022644,
					0,
					1
				],
				"metallicFactor":0
			}
		},
		{
			"doubleSided":true,
			"extensions":{
				"KHR_materials_specular":{
					"specularColorFactor":[
						2.0,
						2.0,
						2.0
					]
				},
				"KHR_materials_ior":{
					"ior":1.4500000476837158
				}
			},
			"name":"building",
			"pbrMetallicRoughness":{
				"baseColorTexture":{
					"index":1
				},
				"metallicFactor":0
			}
		},
		{
			"doubleSided":true,
			"emissiveFactor":[
				0.0802171136311348,
				0.06480263589233753,
				1
			],
			"extensions":{
				"KHR_materials_emissive_strength":{
					"emissiveStrength":2.0000481605529785
				}
			},
			"name":"Glow5",
			"pbrMetallicRoughness":{
				"baseColorFactor":[
					0.08072357624769211,
					0.06527391821146011,
					1,
					1
				],
				"metallicFactor":0
			}
		},
		{
			"doubleSided":true,
			"emissiveFactor":[
				0.09784298909313212,
				1,
				0.08569416583338194
			],
			"extensions":{
				"KHR_materials_emissive_strength":{
					"emissiveStrength":1.5982129573822021
				}
			},
			"name":"Glow4",
			"pbrMetallicRoughness":{
				"baseColorFactor":[
					0.078976109623909,
					0.8012131452560425,
					0.06799241155385971,
					1
				],
				"metallicFactor":0
			}
		}
	],
	"meshes":[
		{
			"name":"Cube.022",
			"primitives":[
				{
					"attributes":{
						"POSITION":0,
						"NORMAL":1,
						"TEXCOORD_0":2
					},
					"indices":3,
					"material":0
				},
				{
					"attributes":{
						"POSITION":4,
						"NORMAL":5,
						"TEXCOORD_0":6
					},
					"indices":7,
					"material":1
				}
			]
		},
		{
			"name":"Cube.023",
			"primitives":[
				{
					"attributes":{
						"POSITION":8,
						"NORMAL":9,
						"TEXCOORD_0":10
					},
					"indices":11,
					"material":0
				},
				{
					"attributes":{
						"POSITION":12,
						"NORMAL":13,
						"TEXCOORD_0":14
					},
					"indices":15,
					"material":2
				}
			]
		},
		{
			"name":"Cylinder.024",
			"primitives":[
				{
					"attributes":{
						"POSITION":16,
						"NORMAL":17,
						"TEXCOORD_0":18
					},
					"indices":19,
					"material":3
				},
				{
					"attributes":{
						"POSITION":20,
						"NORMAL":21,
						"TEXCOORD_0":22
					},
					"indices":23,
					"material":4
				},
				{
					"attributes":{
						"POSITION":24,
						"NORMAL":25,
						"TEXCOORD_0":26
					},
					"indices":27,
					"material":5
				}
			]
		}
	],
	"textures":[
		{
			"sampler":0,
			"source":0
		},
		{
			"sampler":0,
			"source":0
		}
	],
	"images":[
		{
			"mimeType":"image/png",
			"name":"AvatarWearables_TX",
			"uri":"tex/AvatarWearables_TX.png"
		}
	],
	"accessors":[
		{
			"bufferView":0,
			"componentType":5126,
			"count":22,
			"max":[
				-4.453882217407227,
				-2.166065216064453,
				0.3956097364425659
			],
			"min":[
				-4.4647216796875,
				-2.1786980628967285,
				-0.15561509132385254
			],
			"type":"VEC3"
		},
		{
			"bufferView":1,
			"componentType":5126,
			"count":22,
			"type":"VEC3"
		},
		{
			"bufferView":2,
			"componentType":5126,
			"count":22,
			"type":"VEC2"
		},
		{
			"bufferView":3,
			"componentType":5123,
			"count":42,
			"type":"SCALAR"
		},
		{
			"bufferView":4,
			"componentType":5126,
			"count":12,
			"max":[
				-4.453882217407227,
				-2.166065216064453,
				0.3956097364425659
			],
			"min":[
				-4.4647216796875,
				-2.1786980628967285,
				-0.15561509132385254
			],
			"type":"VEC3"
		},
		{
			"bufferView":5,
			"componentType":5126,
			"count":12,
			"type":"VEC3"
		},
		{
			"bufferView":6,
			"componentType":5126,
			"count":12,
			"type":"VEC2"
		},
		{
			"bufferView":7,
			"componentType":5123,
			"count":18,
			"type":"SCALAR"
		},
		{
			"bufferView":8,
			"componentType":5126,
			"count":162,
			"max":[
				1.9944329261779785,
				-3.4267959594726562,
				-3.1469085216522217
			],
			"min":[
				0.6581057906150818,
				-4.541661262512207,
				-5.307938098907471
			],
			"type":"VEC3"
		},
		{
			"bufferView":9,
			"componentType":5126,
			"count":162,
			"type":"VEC3"
		},
		{
			"bufferView":10,
			"componentType":5126,
			"count":162,
			"type":"VEC2"
		},
		{
			"bufferView":11,
			"componentType":5123,
			"count":417,
			"type":"SCALAR"
		},
		{
			"bufferView":12,
			"componentType":5126,
			"count":36,
			"max":[
				1.95621657371521,
				-3.4267959594726562,
				-3.1469085216522217
			],
			"min":[
				0.6950597763061523,
				-3.648508071899414,
				-5.297915935516357
			],
			"type":"VEC3"
		},
		{
			"bufferView":13,
			"componentType":5126,
			"count":36,
			"type":"VEC3"
		},
		{
			"bufferView":14,
			"componentType":5126,
			"count":36,
			"type":"VEC2"
		},
		{
			"bufferView":15,
			"componentType":5123,
			"count":72,
			"type":"SCALAR"
		},
		{
			"bufferView":16,
			"componentType":5126,
			"count":573,
			"max":[
				-2.6331286430358887,
				0.03538703918457031,
				0.720075249671936
			],
			"min":[
				-4.595045566558838,
				-0.6700284481048584,
				-1.2799251079559326
			],
			"type":"VEC3"
		},
		{
			"bufferView":17,
			"componentType":5126,
			"count":573,
			"type":"VEC3"
		},
		{
			"bufferView":18,
			"componentType":5126,
			"count":573,
			"type":"VEC2"
		},
		{
			"bufferView":19,
			"componentType":5123,
			"count":2046,
			"type":"SCALAR"
		},
		{
			"bufferView":20,
			"componentType":5126,
			"count":118,
			"max":[
				-2.7220263481140137,
				-0.15506088733673096,
				0.6298551559448242
			],
			"min":[
				-4.533349514007568,
				-0.6700284481048584,
				-1.181469202041626
			],
			"type":"VEC3"
		},
		{
			"bufferView":21,
			"componentType":5126,
			"count":118,
			"type":"VEC3"
		},
		{
			"bufferView":22,
			"componentType":5126,
			"count":118,
			"type":"VEC2"
		},
		{
			"bufferView":23,
			"componentType":5123,
			"count":336,
			"type":"SCALAR"
		},
		{
			"bufferView":24,
			"componentType":5126,
			"count":129,
			"max":[
				-2.9198169708251953,
				-0.029645442962646484,
				-0.01869809627532959
			],
			"min":[
				-4.3355607986450195,
				-0.5826636552810669,
				-0.5328574180603027
			],
			"type":"VEC3"
		},
		{
			"bufferView":25,
			"componentType":5126,
			"count":129,
			"type":"VEC3"
		},
		{
			"bufferView":26,
			"componentType":5126,
			"count":129,
			"type":"VEC2"
		},
		{
			"bufferView":27,
			"componentType":5123,
			"count":288,
			"type":"SCALAR"
		}
	],
	"bufferViews":[
		{
			"buffer":0,
			"byteLength":264,
			"byteOffset":0,
			"target":34962
		},
		{
			"buffer":0,
			"byteLength":264,
			"byteOffset":264,
			"target":34962
		},
		{
			"buffer":0,
			"byteLength":176,
			"byteOffset":528,
			"target":34962
		},
		{
			"buffer":0,
			"byteLength":84,
			"byteOffset":704,
			"target":34963
		},
		{
			"buffer":0,
			"byteLength":144,
			"byteOffset":788,
			"target":34962
		},
		{
			"buffer":0,
			"byteLength":144,
			"byteOffset":932,
			"target":34962
		},
		{
			"buffer":0,
			"byteLength":96,
			"byteOffset":1076,
			"target":34962
		},
		{
			"buffer":0,
			"byteLength":36,
			"byteOffset":1172,
			"target":34963
		},
		{
			"buffer":0,
			"byteLength":1944,
			"byteOffset":1208,
			"target":34962
		},
		{
			"buffer":0,
			"byteLength":1944,
			"byteOffset":3152,
			"target":34962
		},
		{
			"buffer":0,
			"byteLength":1296,
			"byteOffset":5096,
			"target":34962
		},
		{
			"buffer":0,
			"byteLength":834,
			"byteOffset":6392,
			"target":34963
		},
		{
			"buffer":0,
			"byteLength":432,
			"byteOffset":7228,
			"target":34962
		},
		{
			"buffer":0,
			"byteLength":432,
			"byteOffset":7660,
			"target":34962
		},
		{
			"buffer":0,
			"byteLength":288,
			"byteOffset":8092,
			"target":34962
		},
		{
			"buffer":0,
			"byteLength":144,
			"byteOffset":8380,
			"target":34963
		},
		{
			"buffer":0,
			"byteLength":6876,
			"byteOffset":8524,
			"target":34962
		},
		{
			"buffer":0,
			"byteLength":6876,
			"byteOffset":15400,
			"target":34962
		},
		{
			"buffer":0,
			"byteLength":4584,
			"byteOffset":22276,
			"target":34962
		},
		{
			"buffer":0,
			"byteLength":4092,
			"byteOffset":26860,
			"target":34963
		},
		{
			"buffer":0,
			"byteLength":1416,
			"byteOffset":30952,
			"target":34962
		},
		{
			"buffer":0,
			"byteLength":1416,
			"byteOffset":32368,
			"target":34962
		},
		{
			"buffer":0,
			"byteLength":944,
			"byteOffset":33784,
			"target":34962
		},
		{
			"buffer":0,
			"byteLength":672,
			"byteOffset":34728,
			"target":34963
		},
		{
			"buffer":0,
			"byteLength":1548,
			"byteOffset":35400,
			"target":34962
		},
		{
			"buffer":0,
			"byteLength":1548,
			"byteOffset":36948,
			"target":34962
		},
		{
			"buffer":0,
			"byteLength":1032,
			"byteOffset":38496,
			"target":34962
		},
		{
			"buffer":0,
			"byteLength":576,
			"byteOffset":39528,
			"target":34963
		}
	],
	"samplers":[
		{
			"magFilter":9729,
			"minFilter":9987
		}
	],
	"buffers":[
		{
			"byteLength":40104,
			"uri":"tile_2_2_1.bin"
		}
	]
}
