{
	"asset":{
		"generator":"Khronos glTF Blender I/O v4.0.44",
		"version":"2.0"
	},
	"extensionsUsed":[
		"KHR_materials_specular",
		"KHR_materials_ior"
	],
	"scene":0,
	"scenes":[
		{
			"name":"Scene",
			"nodes":[
				0,
				1,
				2,
				3
			]
		}
	],
	"nodes":[
		{
			"mesh":0,
			"name":"Plane",
			"scale":[
				7.873531341552734,
				0.9841914176940918,
				7.873531341552734
			]
		},
		{
			"mesh":1,
			"name":"track.093",
			"scale":[
				3.7706682682037354,
				3.7706682682037354,
				3.7706682682037354
			]
		},
		{
			"mesh":2,
			"name":"Cylinder.109"
		},
		{
			"mesh":3,
			"name":"Cylinder.110"
		}
	],
	"materials":[
		{
			"doubleSided":true,
			"extensions":{
				"KHR_materials_specular":{
					"specularColorFactor":[
						2.0,
						2.0,
						2.0
					]
				},
				"KHR_materials_ior":{
					"ior":1.4500000476837158
				}
			},
			"name":"building",
			"pbrMetallicRoughness":{
				"baseColorTexture":{
					"index":0
				},
				"metallicFactor":0
			}
		}
	],
	"meshes":[
		{
			"name":"Plane.836",
			"primitives":[
				{
					"attributes":{
						"POSITION":0,
						"NORMAL":1,
						"TEXCOORD_0":2
					},
					"indices":3,
					"material":0
				}
			]
		},
		{
			"name":"Plane.837",
			"primitives":[
				{
					"attributes":{
						"POSITION":4,
						"NORMAL":5,
						"TEXCOORD_0":6
					},
					"indices":7,
					"material":0
				}
			]
		},
		{
			"name":"Cylinder.394",
			"primitives":[
				{
					"attributes":{
						"POSITION":8,
						"NORMAL":9,
						"TEXCOORD_0":10
					},
					"indices":11,
					"material":0
				}
			]
		},
		{
			"name":"Cylinder.395",
			"primitives":[
				{
					"attributes":{
						"POSITION":12,
						"NORMAL":13,
						"TEXCOORD_0":14
					},
					"indices":15,
					"material":0
				},
				{
					"attributes":{
						"POSITION":16,
						"NORMAL":17,
						"TEXCOORD_0":18
					},
					"indices":19,
					"material":0
				}
			]
		}
	],
	"textures":[
		{
			"sampler":0,
			"source":0
		}
	],
	"images":[
		{
			"mimeType":"image/png",
			"name":"AvatarWearables_TX",
			"uri":"tex/AvatarWearables_TX.png"
		}
	],
	"accessors":[
		{
			"bufferView":0,
			"componentType":5126,
			"count":92,
			"max":[
				0.5080313682556152,
				-9.26602554321289,
				0.5080304145812988
			],
			"min":[
				-0.5080313682556152,
				-16.256999969482422,
				-0.5080323219299316
			],
			"type":"VEC3"
		},
		{
			"bufferView":1,
			"componentType":5126,
			"count":92,
			"type":"VEC3"
		},
		{
			"bufferView":2,
			"componentType":5126,
			"count":92,
			"type":"VEC2"
		},
		{
			"bufferView":3,
			"componentType":5123,
			"count":285,
			"type":"SCALAR"
		},
		{
			"bufferView":4,
			"componentType":5126,
			"count":86,
			"max":[
				1.0608186721801758,
				-1.8996119499206543,
				1.0608177185058594
			],
			"min":[
				-1.0608205795288086,
				-4.243279933929443,
				-1.060821533203125
			],
			"type":"VEC3"
		},
		{
			"bufferView":5,
			"componentType":5126,
			"count":86,
			"type":"VEC3"
		},
		{
			"bufferView":6,
			"componentType":5126,
			"count":86,
			"type":"VEC2"
		},
		{
			"bufferView":7,
			"componentType":5123,
			"count":156,
			"type":"SCALAR"
		},
		{
			"bufferView":8,
			"componentType":5126,
			"count":34,
			"max":[
				4,
				-7.581015586853027,
				0.9743303656578064
			],
			"min":[
				3.805098056793213,
				-9.110883712768555,
				-0.30867069959640503
			],
			"type":"VEC3"
		},
		{
			"bufferView":9,
			"componentType":5126,
			"count":34,
			"type":"VEC3"
		},
		{
			"bufferView":10,
			"componentType":5126,
			"count":34,
			"type":"VEC2"
		},
		{
			"bufferView":11,
			"componentType":5123,
			"count":48,
			"type":"SCALAR"
		},
		{
			"bufferView":12,
			"componentType":5126,
			"count":47,
			"max":[
				4,
				-11.22911262512207,
				0.5920488834381104
			],
			"min":[
				3.490579605102539,
				-12.389497756958008,
				-0.4283730983734131
			],
			"type":"VEC3"
		},
		{
			"bufferView":13,
			"componentType":5126,
			"count":47,
			"type":"VEC3"
		},
		{
			"bufferView":14,
			"componentType":5126,
			"count":47,
			"type":"VEC2"
		},
		{
			"bufferView":15,
			"componentType":5123,
			"count":57,
			"type":"SCALAR"
		},
		{
			"bufferView":16,
			"componentType":5126,
			"count":11,
			"max":[
				4,
				-11.22911262512207,
				0.5920488834381104
			],
			"min":[
				4,
				-12.389497756958008,
				-0.4171491861343384
			],
			"type":"VEC3"
		},
		{
			"bufferView":17,
			"componentType":5126,
			"count":11,
			"type":"VEC3"
		},
		{
			"bufferView":18,
			"componentType":5126,
			"count":11,
			"type":"VEC2"
		},
		{
			"bufferView":19,
			"componentType":5123,
			"count":27,
			"type":"SCALAR"
		}
	],
	"bufferViews":[
		{
			"buffer":0,
			"byteLength":1104,
			"byteOffset":0,
			"target":34962
		},
		{
			"buffer":0,
			"byteLength":1104,
			"byteOffset":1104,
			"target":34962
		},
		{
			"buffer":0,
			"byteLength":736,
			"byteOffset":2208,
			"target":34962
		},
		{
			"buffer":0,
			"byteLength":570,
			"byteOffset":2944,
			"target":34963
		},
		{
			"buffer":0,
			"byteLength":1032,
			"byteOffset":3516,
			"target":34962
		},
		{
			"buffer":0,
			"byteLength":1032,
			"byteOffset":4548,
			"target":34962
		},
		{
			"buffer":0,
			"byteLength":688,
			"byteOffset":5580,
			"target":34962
		},
		{
			"buffer":0,
			"byteLength":312,
			"byteOffset":6268,
			"target":34963
		},
		{
			"buffer":0,
			"byteLength":408,
			"byteOffset":6580,
			"target":34962
		},
		{
			"buffer":0,
			"byteLength":408,
			"byteOffset":6988,
			"target":34962
		},
		{
			"buffer":0,
			"byteLength":272,
			"byteOffset":7396,
			"target":34962
		},
		{
			"buffer":0,
			"byteLength":96,
			"byteOffset":7668,
			"target":34963
		},
		{
			"buffer":0,
			"byteLength":564,
			"byteOffset":7764,
			"target":34962
		},
		{
			"buffer":0,
			"byteLength":564,
			"byteOffset":8328,
			"target":34962
		},
		{
			"buffer":0,
			"byteLength":376,
			"byteOffset":8892,
			"target":34962
		},
		{
			"buffer":0,
			"byteLength":114,
			"byteOffset":9268,
			"target":34963
		},
		{
			"buffer":0,
			"byteLength":132,
			"byteOffset":9384,
			"target":34962
		},
		{
			"buffer":0,
			"byteLength":132,
			"byteOffset":9516,
			"target":34962
		},
		{
			"buffer":0,
			"byteLength":88,
			"byteOffset":9648,
			"target":34962
		},
		{
			"buffer":0,
			"byteLength":54,
			"byteOffset":9736,
			"target":34963
		}
	],
	"samplers":[
		{
			"magFilter":9729,
			"minFilter":9987
		}
	],
	"buffers":[
		{
			"byteLength":9792,
			"uri":"tile_7_0_8.bin"
		}
	]
}
