{
	"asset":{
		"generator":"Khronos glTF Blender I/O v4.0.44",
		"version":"2.0"
	},
	"extensionsUsed":[
		"KHR_materials_specular",
		"KHR_materials_ior"
	],
	"scene":0,
	"scenes":[
		{
			"name":"Scene",
			"nodes":[
				0,
				1,
				2,
				3,
				4,
				5
			]
		}
	],
	"nodes":[
		{
			"mesh":0,
			"name":"Plane",
			"scale":[
				7.873531341552734,
				0.9841914176940918,
				7.873531341552734
			]
		},
		{
			"mesh":1,
			"name":"track.131",
			"scale":[
				3.7706682682037354,
				3.7706682682037354,
				3.7706682682037354
			]
		},
		{
			"mesh":2,
			"name":"Cylinder.018"
		},
		{
			"mesh":3,
			"name":"Cylinder.106"
		},
		{
			"mesh":4,
			"name":"Cylinder.107"
		},
		{
			"mesh":5,
			"name":"Cylinder.108"
		}
	],
	"materials":[
		{
			"doubleSided":true,
			"extensions":{
				"KHR_materials_specular":{
					"specularColorFactor":[
						2.0,
						2.0,
						2.0
					]
				},
				"KHR_materials_ior":{
					"ior":1.4500000476837158
				}
			},
			"name":"building",
			"pbrMetallicRoughness":{
				"baseColorTexture":{
					"index":0
				},
				"metallicFactor":0
			}
		}
	],
	"meshes":[
		{
			"name":"Plane.912",
			"primitives":[
				{
					"attributes":{
						"POSITION":0,
						"NORMAL":1,
						"TEXCOORD_0":2,
						"TANGENT":3
					},
					"indices":4,
					"material":0
				}
			]
		},
		{
			"name":"Plane.913",
			"primitives":[
				{
					"attributes":{
						"POSITION":5,
						"NORMAL":6,
						"TEXCOORD_0":7
					},
					"indices":8,
					"material":0
				}
			]
		},
		{
			"name":"Cylinder.404",
			"primitives":[
				{
					"attributes":{
						"POSITION":9,
						"NORMAL":10,
						"TEXCOORD_0":11
					},
					"indices":12,
					"material":0
				}
			]
		},
		{
			"name":"Cylinder.405",
			"primitives":[
				{
					"attributes":{
						"POSITION":13,
						"NORMAL":14,
						"TEXCOORD_0":15
					},
					"indices":16,
					"material":0
				},
				{
					"attributes":{
						"POSITION":17,
						"NORMAL":18,
						"TEXCOORD_0":19
					},
					"indices":20,
					"material":0
				}
			]
		},
		{
			"name":"Cylinder.406",
			"primitives":[
				{
					"attributes":{
						"POSITION":21,
						"NORMAL":22,
						"TEXCOORD_0":23
					},
					"indices":24,
					"material":0
				}
			]
		},
		{
			"name":"Cylinder.407",
			"primitives":[
				{
					"attributes":{
						"POSITION":25,
						"NORMAL":26,
						"TEXCOORD_0":27,
						"TANGENT":28
					},
					"indices":29,
					"material":0
				}
			]
		}
	],
	"textures":[
		{
			"sampler":0,
			"source":0
		}
	],
	"images":[
		{
			"mimeType":"image/png",
			"name":"AvatarWearables_TX",
			"uri":"tex/AvatarWearables_TX.png"
		}
	],
	"accessors":[
		{
			"bufferView":0,
			"componentType":5126,
			"count":36,
			"max":[
				0.5080312490463257,
				-14.900496482849121,
				0.5080313682556152
			],
			"min":[
				-0.5080313682556152,
				-14.900496482849121,
				-0.5080313682556152
			],
			"type":"VEC3"
		},
		{
			"bufferView":1,
			"componentType":5126,
			"count":36,
			"type":"VEC3"
		},
		{
			"bufferView":2,
			"componentType":5126,
			"count":36,
			"type":"VEC2"
		},
		{
			"bufferView":3,
			"componentType":5126,
			"count":36,
			"type":"VEC4"
		},
		{
			"bufferView":4,
			"componentType":5123,
			"count":150,
			"type":"SCALAR"
		},
		{
			"bufferView":5,
			"componentType":5126,
			"count":59,
			"max":[
				1.0608198642730713,
				-3.5451908111572266,
				1.0608196258544922
			],
			"min":[
				-1.0608196258544922,
				-4.243279933929443,
				-0.5460090637207031
			],
			"type":"VEC3"
		},
		{
			"bufferView":6,
			"componentType":5126,
			"count":59,
			"type":"VEC3"
		},
		{
			"bufferView":7,
			"componentType":5126,
			"count":59,
			"type":"VEC2"
		},
		{
			"bufferView":8,
			"componentType":5123,
			"count":99,
			"type":"SCALAR"
		},
		{
			"bufferView":9,
			"componentType":5126,
			"count":157,
			"max":[
				1.3975204229354858,
				-4.874594688415527,
				-2.824350118637085
			],
			"min":[
				-1.4938700199127197,
				-14.538495063781738,
				-4
			],
			"type":"VEC3"
		},
		{
			"bufferView":10,
			"componentType":5126,
			"count":157,
			"type":"VEC3"
		},
		{
			"bufferView":11,
			"componentType":5126,
			"count":157,
			"type":"VEC2"
		},
		{
			"bufferView":12,
			"componentType":5123,
			"count":570,
			"type":"SCALAR"
		},
		{
			"bufferView":13,
			"componentType":5126,
			"count":57,
			"max":[
				2.9093666076660156,
				-0.3823232650756836,
				-1.3238837718963623
			],
			"min":[
				-1.999450445175171,
				-5.945477485656738,
				-4
			],
			"type":"VEC3"
		},
		{
			"bufferView":14,
			"componentType":5126,
			"count":57,
			"type":"VEC3"
		},
		{
			"bufferView":15,
			"componentType":5126,
			"count":57,
			"type":"VEC2"
		},
		{
			"bufferView":16,
			"componentType":5123,
			"count":69,
			"type":"SCALAR"
		},
		{
			"bufferView":17,
			"componentType":5126,
			"count":11,
			"max":[
				2.8078930377960205,
				-0.5383024215698242,
				-4
			],
			"min":[
				-1.999450445175171,
				-5.802887916564941,
				-4
			],
			"type":"VEC3"
		},
		{
			"bufferView":18,
			"componentType":5126,
			"count":11,
			"type":"VEC3"
		},
		{
			"bufferView":19,
			"componentType":5126,
			"count":11,
			"type":"VEC2"
		},
		{
			"bufferView":20,
			"componentType":5123,
			"count":27,
			"type":"SCALAR"
		},
		{
			"bufferView":21,
			"componentType":5126,
			"count":58,
			"max":[
				-0.7062314748764038,
				-8.517529487609863,
				-3.1861443519592285
			],
			"min":[
				-2.5431716442108154,
				-10.482205390930176,
				-4
			],
			"type":"VEC3"
		},
		{
			"bufferView":22,
			"componentType":5126,
			"count":58,
			"type":"VEC3"
		},
		{
			"bufferView":23,
			"componentType":5126,
			"count":58,
			"type":"VEC2"
		},
		{
			"bufferView":24,
			"componentType":5123,
			"count":84,
			"type":"SCALAR"
		},
		{
			"bufferView":25,
			"componentType":5126,
			"count":60,
			"max":[
				1.219581127166748,
				-11.074958801269531,
				-2.2798266410827637
			],
			"min":[
				0.21342474222183228,
				-12.210556030273438,
				-3.2796504497528076
			],
			"type":"VEC3"
		},
		{
			"bufferView":26,
			"componentType":5126,
			"count":60,
			"type":"VEC3"
		},
		{
			"bufferView":27,
			"componentType":5126,
			"count":60,
			"type":"VEC2"
		},
		{
			"bufferView":28,
			"componentType":5126,
			"count":60,
			"type":"VEC4"
		},
		{
			"bufferView":29,
			"componentType":5123,
			"count":60,
			"type":"SCALAR"
		}
	],
	"bufferViews":[
		{
			"buffer":0,
			"byteLength":432,
			"byteOffset":0,
			"target":34962
		},
		{
			"buffer":0,
			"byteLength":432,
			"byteOffset":432,
			"target":34962
		},
		{
			"buffer":0,
			"byteLength":288,
			"byteOffset":864,
			"target":34962
		},
		{
			"buffer":0,
			"byteLength":576,
			"byteOffset":1152,
			"target":34962
		},
		{
			"buffer":0,
			"byteLength":300,
			"byteOffset":1728,
			"target":34963
		},
		{
			"buffer":0,
			"byteLength":708,
			"byteOffset":2028,
			"target":34962
		},
		{
			"buffer":0,
			"byteLength":708,
			"byteOffset":2736,
			"target":34962
		},
		{
			"buffer":0,
			"byteLength":472,
			"byteOffset":3444,
			"target":34962
		},
		{
			"buffer":0,
			"byteLength":198,
			"byteOffset":3916,
			"target":34963
		},
		{
			"buffer":0,
			"byteLength":1884,
			"byteOffset":4116,
			"target":34962
		},
		{
			"buffer":0,
			"byteLength":1884,
			"byteOffset":6000,
			"target":34962
		},
		{
			"buffer":0,
			"byteLength":1256,
			"byteOffset":7884,
			"target":34962
		},
		{
			"buffer":0,
			"byteLength":1140,
			"byteOffset":9140,
			"target":34963
		},
		{
			"buffer":0,
			"byteLength":684,
			"byteOffset":10280,
			"target":34962
		},
		{
			"buffer":0,
			"byteLength":684,
			"byteOffset":10964,
			"target":34962
		},
		{
			"buffer":0,
			"byteLength":456,
			"byteOffset":11648,
			"target":34962
		},
		{
			"buffer":0,
			"byteLength":138,
			"byteOffset":12104,
			"target":34963
		},
		{
			"buffer":0,
			"byteLength":132,
			"byteOffset":12244,
			"target":34962
		},
		{
			"buffer":0,
			"byteLength":132,
			"byteOffset":12376,
			"target":34962
		},
		{
			"buffer":0,
			"byteLength":88,
			"byteOffset":12508,
			"target":34962
		},
		{
			"buffer":0,
			"byteLength":54,
			"byteOffset":12596,
			"target":34963
		},
		{
			"buffer":0,
			"byteLength":696,
			"byteOffset":12652,
			"target":34962
		},
		{
			"buffer":0,
			"byteLength":696,
			"byteOffset":13348,
			"target":34962
		},
		{
			"buffer":0,
			"byteLength":464,
			"byteOffset":14044,
			"target":34962
		},
		{
			"buffer":0,
			"byteLength":168,
			"byteOffset":14508,
			"target":34963
		},
		{
			"buffer":0,
			"byteLength":720,
			"byteOffset":14676,
			"target":34962
		},
		{
			"buffer":0,
			"byteLength":720,
			"byteOffset":15396,
			"target":34962
		},
		{
			"buffer":0,
			"byteLength":480,
			"byteOffset":16116,
			"target":34962
		},
		{
			"buffer":0,
			"byteLength":960,
			"byteOffset":16596,
			"target":34962
		},
		{
			"buffer":0,
			"byteLength":120,
			"byteOffset":17556,
			"target":34963
		}
	],
	"samplers":[
		{
			"magFilter":9729,
			"minFilter":9987
		}
	],
	"buffers":[
		{
			"byteLength":17676,
			"uri":"tile_10_0_10.bin"
		}
	]
}
