{
	"asset":{
		"generator":"Khronos glTF Blender I/O v4.0.44",
		"version":"2.0"
	},
	"extensionsUsed":[
		"KHR_materials_specular",
		"KHR_materials_ior"
	],
	"scene":0,
	"scenes":[
		{
			"name":"Scene",
			"nodes":[
				0,
				1,
				2,
				3,
				4
			]
		}
	],
	"nodes":[
		{
			"mesh":0,
			"name":"Plane",
			"scale":[
				7.873531341552734,
				0.9841914176940918,
				7.873531341552734
			]
		},
		{
			"mesh":1,
			"name":"track.074",
			"scale":[
				3.7706682682037354,
				3.7706682682037354,
				3.7706682682037354
			]
		},
		{
			"mesh":2,
			"name":"Cylinder.007"
		},
		{
			"mesh":3,
			"name":"Cylinder.079"
		},
		{
			"mesh":4,
			"name":"Cylinder.081"
		}
	],
	"materials":[
		{
			"doubleSided":true,
			"extensions":{
				"KHR_materials_specular":{
					"specularColorFactor":[
						2.0,
						2.0,
						2.0
					]
				},
				"KHR_materials_ior":{
					"ior":1.4500000476837158
				}
			},
			"name":"building",
			"pbrMetallicRoughness":{
				"baseColorTexture":{
					"index":0
				},
				"metallicFactor":0
			}
		}
	],
	"meshes":[
		{
			"name":"Plane.798",
			"primitives":[
				{
					"attributes":{
						"POSITION":0,
						"NORMAL":1,
						"TEXCOORD_0":2,
						"TANGENT":3
					},
					"indices":4,
					"material":0
				}
			]
		},
		{
			"name":"Plane.799",
			"primitives":[
				{
					"attributes":{
						"POSITION":5,
						"NORMAL":6,
						"TEXCOORD_0":7
					},
					"indices":8,
					"material":0
				},
				{
					"attributes":{
						"POSITION":9,
						"NORMAL":10,
						"TEXCOORD_0":11
					},
					"indices":12,
					"material":0
				}
			]
		},
		{
			"name":"Cylinder.375",
			"primitives":[
				{
					"attributes":{
						"POSITION":13,
						"NORMAL":14,
						"TEXCOORD_0":15
					},
					"indices":16,
					"material":0
				}
			]
		},
		{
			"name":"Cylinder.376",
			"primitives":[
				{
					"attributes":{
						"POSITION":17,
						"NORMAL":18,
						"TEXCOORD_0":19
					},
					"indices":20,
					"material":0
				},
				{
					"attributes":{
						"POSITION":21,
						"NORMAL":22,
						"TEXCOORD_0":23
					},
					"indices":24,
					"material":0
				}
			]
		},
		{
			"name":"Cylinder.377",
			"primitives":[
				{
					"attributes":{
						"POSITION":25,
						"NORMAL":26,
						"TEXCOORD_0":27,
						"TANGENT":28
					},
					"indices":29,
					"material":0
				}
			]
		}
	],
	"textures":[
		{
			"sampler":0,
			"source":0
		}
	],
	"images":[
		{
			"mimeType":"image/png",
			"name":"AvatarWearables_TX",
			"uri":"tex/AvatarWearables_TX.png"
		}
	],
	"accessors":[
		{
			"bufferView":0,
			"componentType":5126,
			"count":36,
			"max":[
				0.5080313682556152,
				-14.900496482849121,
				0.5080307722091675
			],
			"min":[
				-0.5080313682556152,
				-14.900496482849121,
				-0.508031964302063
			],
			"type":"VEC3"
		},
		{
			"bufferView":1,
			"componentType":5126,
			"count":36,
			"type":"VEC3"
		},
		{
			"bufferView":2,
			"componentType":5126,
			"count":36,
			"type":"VEC2"
		},
		{
			"bufferView":3,
			"componentType":5126,
			"count":36,
			"type":"VEC4"
		},
		{
			"bufferView":4,
			"componentType":5123,
			"count":150,
			"type":"SCALAR"
		},
		{
			"bufferView":5,
			"componentType":5126,
			"count":40,
			"max":[
				1.0608177185058594,
				-3.5462379455566406,
				1.060819387435913
			],
			"min":[
				-1.060821533203125,
				-4.107330799102783,
				-0.5653707981109619
			],
			"type":"VEC3"
		},
		{
			"bufferView":6,
			"componentType":5126,
			"count":40,
			"type":"VEC3"
		},
		{
			"bufferView":7,
			"componentType":5126,
			"count":40,
			"type":"VEC2"
		},
		{
			"bufferView":8,
			"componentType":5123,
			"count":60,
			"type":"SCALAR"
		},
		{
			"bufferView":9,
			"componentType":5126,
			"count":19,
			"max":[
				1.0608177185058594,
				-3.5462379455566406,
				1.060819387435913
			],
			"min":[
				-1.060821533203125,
				-4.243279933929443,
				-0.5653707981109619
			],
			"type":"VEC3"
		},
		{
			"bufferView":10,
			"componentType":5126,
			"count":19,
			"type":"VEC3"
		},
		{
			"bufferView":11,
			"componentType":5126,
			"count":19,
			"type":"VEC2"
		},
		{
			"bufferView":12,
			"componentType":5123,
			"count":39,
			"type":"SCALAR"
		},
		{
			"bufferView":13,
			"componentType":5126,
			"count":149,
			"max":[
				1.8448033332824707,
				-6.62725830078125,
				-3.166144847869873
			],
			"min":[
				-0.40394771099090576,
				-14.561131477355957,
				-4
			],
			"type":"VEC3"
		},
		{
			"bufferView":14,
			"componentType":5126,
			"count":149,
			"type":"VEC3"
		},
		{
			"bufferView":15,
			"componentType":5126,
			"count":149,
			"type":"VEC2"
		},
		{
			"bufferView":16,
			"componentType":5123,
			"count":468,
			"type":"SCALAR"
		},
		{
			"bufferView":17,
			"componentType":5126,
			"count":57,
			"max":[
				3.097790479660034,
				-2.9391908645629883,
				-2.006334066390991
			],
			"min":[
				-0.9468307495117188,
				-7.506432056427002,
				-4
			],
			"type":"VEC3"
		},
		{
			"bufferView":18,
			"componentType":5126,
			"count":57,
			"type":"VEC3"
		},
		{
			"bufferView":19,
			"componentType":5126,
			"count":57,
			"type":"VEC2"
		},
		{
			"bufferView":20,
			"componentType":5123,
			"count":69,
			"type":"SCALAR"
		},
		{
			"bufferView":21,
			"componentType":5126,
			"count":11,
			"max":[
				3.097790479660034,
				-2.947977066040039,
				-4
			],
			"min":[
				-0.908972978591919,
				-7.498021125793457,
				-4
			],
			"type":"VEC3"
		},
		{
			"bufferView":22,
			"componentType":5126,
			"count":11,
			"type":"VEC3"
		},
		{
			"bufferView":23,
			"componentType":5126,
			"count":11,
			"type":"VEC2"
		},
		{
			"bufferView":24,
			"componentType":5123,
			"count":27,
			"type":"SCALAR"
		},
		{
			"bufferView":25,
			"componentType":5126,
			"count":60,
			"max":[
				1.3748178482055664,
				-11.717636108398438,
				-2.7476329803466797
			],
			"min":[
				0.5428276062011719,
				-12.649938583374023,
				-3.5561726093292236
			],
			"type":"VEC3"
		},
		{
			"bufferView":26,
			"componentType":5126,
			"count":60,
			"type":"VEC3"
		},
		{
			"bufferView":27,
			"componentType":5126,
			"count":60,
			"type":"VEC2"
		},
		{
			"bufferView":28,
			"componentType":5126,
			"count":60,
			"type":"VEC4"
		},
		{
			"bufferView":29,
			"componentType":5123,
			"count":60,
			"type":"SCALAR"
		}
	],
	"bufferViews":[
		{
			"buffer":0,
			"byteLength":432,
			"byteOffset":0,
			"target":34962
		},
		{
			"buffer":0,
			"byteLength":432,
			"byteOffset":432,
			"target":34962
		},
		{
			"buffer":0,
			"byteLength":288,
			"byteOffset":864,
			"target":34962
		},
		{
			"buffer":0,
			"byteLength":576,
			"byteOffset":1152,
			"target":34962
		},
		{
			"buffer":0,
			"byteLength":300,
			"byteOffset":1728,
			"target":34963
		},
		{
			"buffer":0,
			"byteLength":480,
			"byteOffset":2028,
			"target":34962
		},
		{
			"buffer":0,
			"byteLength":480,
			"byteOffset":2508,
			"target":34962
		},
		{
			"buffer":0,
			"byteLength":320,
			"byteOffset":2988,
			"target":34962
		},
		{
			"buffer":0,
			"byteLength":120,
			"byteOffset":3308,
			"target":34963
		},
		{
			"buffer":0,
			"byteLength":228,
			"byteOffset":3428,
			"target":34962
		},
		{
			"buffer":0,
			"byteLength":228,
			"byteOffset":3656,
			"target":34962
		},
		{
			"buffer":0,
			"byteLength":152,
			"byteOffset":3884,
			"target":34962
		},
		{
			"buffer":0,
			"byteLength":78,
			"byteOffset":4036,
			"target":34963
		},
		{
			"buffer":0,
			"byteLength":1788,
			"byteOffset":4116,
			"target":34962
		},
		{
			"buffer":0,
			"byteLength":1788,
			"byteOffset":5904,
			"target":34962
		},
		{
			"buffer":0,
			"byteLength":1192,
			"byteOffset":7692,
			"target":34962
		},
		{
			"buffer":0,
			"byteLength":936,
			"byteOffset":8884,
			"target":34963
		},
		{
			"buffer":0,
			"byteLength":684,
			"byteOffset":9820,
			"target":34962
		},
		{
			"buffer":0,
			"byteLength":684,
			"byteOffset":10504,
			"target":34962
		},
		{
			"buffer":0,
			"byteLength":456,
			"byteOffset":11188,
			"target":34962
		},
		{
			"buffer":0,
			"byteLength":138,
			"byteOffset":11644,
			"target":34963
		},
		{
			"buffer":0,
			"byteLength":132,
			"byteOffset":11784,
			"target":34962
		},
		{
			"buffer":0,
			"byteLength":132,
			"byteOffset":11916,
			"target":34962
		},
		{
			"buffer":0,
			"byteLength":88,
			"byteOffset":12048,
			"target":34962
		},
		{
			"buffer":0,
			"byteLength":54,
			"byteOffset":12136,
			"target":34963
		},
		{
			"buffer":0,
			"byteLength":720,
			"byteOffset":12192,
			"target":34962
		},
		{
			"buffer":0,
			"byteLength":720,
			"byteOffset":12912,
			"target":34962
		},
		{
			"buffer":0,
			"byteLength":480,
			"byteOffset":13632,
			"target":34962
		},
		{
			"buffer":0,
			"byteLength":960,
			"byteOffset":14112,
			"target":34962
		},
		{
			"buffer":0,
			"byteLength":120,
			"byteOffset":15072,
			"target":34963
		}
	],
	"samplers":[
		{
			"magFilter":9729,
			"minFilter":9987
		}
	],
	"buffers":[
		{
			"byteLength":15192,
			"uri":"tile_6_0_1.bin"
		}
	]
}
