{
	"asset":{
		"generator":"Khronos glTF Blender I/O v4.0.44",
		"version":"2.0"
	},
	"extensionsUsed":[
		"KHR_materials_specular",
		"KHR_materials_ior",
		"KHR_materials_emissive_strength"
	],
	"scene":0,
	"scenes":[
		{
			"name":"Scene",
			"nodes":[
				0,
				1,
				2
			]
		}
	],
	"nodes":[
		{
			"mesh":0,
			"name":"Plane",
			"scale":[
				7.873531341552734,
				0.9841914176940918,
				7.873531341552734
			]
		},
		{
			"mesh":1,
			"name":"Plane.001",
			"scale":[
				3.7706682682037354,
				3.7706682682037354,
				3.7706682682037354
			]
		},
		{
			"mesh":2,
			"name":"Torus.013",
			"rotation":[
				0.6081892251968384,
				0.3607020080089569,
				-0.3607020378112793,
				0.6081892251968384
			],
			"scale":[
				0.9492738246917725,
				0.9492738246917725,
				0.9492737650871277
			]
		}
	],
	"materials":[
		{
			"doubleSided":true,
			"extensions":{
				"KHR_materials_specular":{
					"specularColorFactor":[
						2.0,
						2.0,
						2.0
					]
				},
				"KHR_materials_ior":{
					"ior":1.4500000476837158
				}
			},
			"name":"building",
			"pbrMetallicRoughness":{
				"baseColorTexture":{
					"index":0
				},
				"metallicFactor":0
			}
		},
		{
			"doubleSided":true,
			"emissiveFactor":[
				1,
				0.003797386313042906,
				0
			],
			"extensions":{
				"KHR_materials_emissive_strength":{
					"emissiveStrength":7.991064786911011
				}
			},
			"name":"Glow9",
			"pbrMetallicRoughness":{
				"baseColorFactor":[
					0.8000000715255737,
					0.0031031807884573936,
					0,
					1
				],
				"metallicFactor":0
			}
		},
		{
			"doubleSided":true,
			"emissiveFactor":[
				1,
				1,
				1
			],
			"extensions":{
				"KHR_materials_emissive_strength":{
					"emissiveStrength":4
				}
			},
			"name":"Glow2",
			"pbrMetallicRoughness":{
				"baseColorFactor":[
					0.800000011920929,
					0.800000011920929,
					0.800000011920929,
					1
				],
				"metallicFactor":0,
				"roughnessFactor":0.5
			}
		}
	],
	"meshes":[
		{
			"name":"Plane.071",
			"primitives":[
				{
					"attributes":{
						"POSITION":0,
						"NORMAL":1,
						"TEXCOORD_0":2
					},
					"indices":3,
					"material":0
				}
			]
		},
		{
			"name":"Plane.072",
			"primitives":[
				{
					"attributes":{
						"POSITION":4,
						"NORMAL":5,
						"TEXCOORD_0":6
					},
					"indices":7,
					"material":0
				}
			]
		},
		{
			"name":"Torus.017",
			"primitives":[
				{
					"attributes":{
						"POSITION":8,
						"NORMAL":9,
						"TEXCOORD_0":10
					},
					"indices":11,
					"material":0
				},
				{
					"attributes":{
						"POSITION":12,
						"NORMAL":13,
						"TEXCOORD_0":14
					},
					"indices":15,
					"material":1
				},
				{
					"attributes":{
						"POSITION":16,
						"NORMAL":17,
						"TEXCOORD_0":18
					},
					"indices":19,
					"material":2
				}
			]
		}
	],
	"textures":[
		{
			"sampler":0,
			"source":0
		}
	],
	"images":[
		{
			"mimeType":"image/png",
			"name":"AvatarWearables_TX",
			"uri":"tex/AvatarWearables_TX.png"
		}
	],
	"accessors":[
		{
			"bufferView":0,
			"componentType":5126,
			"count":140,
			"max":[
				1.0160632133483887,
				-6.4392781257629395,
				1.0160622596740723
			],
			"min":[
				-1.0160622596740723,
				-6.77199649810791,
				-0.9212799072265625
			],
			"type":"VEC3"
		},
		{
			"bufferView":1,
			"componentType":5126,
			"count":140,
			"type":"VEC3"
		},
		{
			"bufferView":2,
			"componentType":5126,
			"count":140,
			"type":"VEC2"
		},
		{
			"bufferView":3,
			"componentType":5123,
			"count":555,
			"type":"SCALAR"
		},
		{
			"bufferView":4,
			"componentType":5126,
			"count":176,
			"max":[
				2.1216373443603516,
				-1.3924051523208618,
				2.121640205383301
			],
			"min":[
				-2.121641159057617,
				-2.1216399669647217,
				-1.4556646347045898
			],
			"type":"VEC3"
		},
		{
			"bufferView":5,
			"componentType":5126,
			"count":176,
			"type":"VEC3"
		},
		{
			"bufferView":6,
			"componentType":5126,
			"count":176,
			"type":"VEC2"
		},
		{
			"bufferView":7,
			"componentType":5123,
			"count":306,
			"type":"SCALAR"
		},
		{
			"bufferView":8,
			"componentType":5126,
			"count":339,
			"max":[
				-6.355828285217285,
				5.285021781921387,
				6.680922985076904
			],
			"min":[
				-8.68447208404541,
				1.6824607849121094,
				0.46361637115478516
			],
			"type":"VEC3"
		},
		{
			"bufferView":9,
			"componentType":5126,
			"count":339,
			"type":"VEC3"
		},
		{
			"bufferView":10,
			"componentType":5126,
			"count":339,
			"type":"VEC2"
		},
		{
			"bufferView":11,
			"componentType":5123,
			"count":1257,
			"type":"SCALAR"
		},
		{
			"bufferView":12,
			"componentType":5126,
			"count":17,
			"max":[
				-6.375809669494629,
				5.284818649291992,
				4.518896102905273
			],
			"min":[
				-8.046636581420898,
				2.708087921142578,
				0.46361637115478516
			],
			"type":"VEC3"
		},
		{
			"bufferView":13,
			"componentType":5126,
			"count":17,
			"type":"VEC3"
		},
		{
			"bufferView":14,
			"componentType":5126,
			"count":17,
			"type":"VEC2"
		},
		{
			"bufferView":15,
			"componentType":5123,
			"count":45,
			"type":"SCALAR"
		},
		{
			"bufferView":16,
			"componentType":5126,
			"count":18,
			"max":[
				-7.101502418518066,
				3.7520763874053955,
				6.680922985076904
			],
			"min":[
				-8.68447208404541,
				1.6824607849121094,
				3.2441320419311523
			],
			"type":"VEC3"
		},
		{
			"bufferView":17,
			"componentType":5126,
			"count":18,
			"type":"VEC3"
		},
		{
			"bufferView":18,
			"componentType":5126,
			"count":18,
			"type":"VEC2"
		},
		{
			"bufferView":19,
			"componentType":5123,
			"count":48,
			"type":"SCALAR"
		}
	],
	"bufferViews":[
		{
			"buffer":0,
			"byteLength":1680,
			"byteOffset":0,
			"target":34962
		},
		{
			"buffer":0,
			"byteLength":1680,
			"byteOffset":1680,
			"target":34962
		},
		{
			"buffer":0,
			"byteLength":1120,
			"byteOffset":3360,
			"target":34962
		},
		{
			"buffer":0,
			"byteLength":1110,
			"byteOffset":4480,
			"target":34963
		},
		{
			"buffer":0,
			"byteLength":2112,
			"byteOffset":5592,
			"target":34962
		},
		{
			"buffer":0,
			"byteLength":2112,
			"byteOffset":7704,
			"target":34962
		},
		{
			"buffer":0,
			"byteLength":1408,
			"byteOffset":9816,
			"target":34962
		},
		{
			"buffer":0,
			"byteLength":612,
			"byteOffset":11224,
			"target":34963
		},
		{
			"buffer":0,
			"byteLength":4068,
			"byteOffset":11836,
			"target":34962
		},
		{
			"buffer":0,
			"byteLength":4068,
			"byteOffset":15904,
			"target":34962
		},
		{
			"buffer":0,
			"byteLength":2712,
			"byteOffset":19972,
			"target":34962
		},
		{
			"buffer":0,
			"byteLength":2514,
			"byteOffset":22684,
			"target":34963
		},
		{
			"buffer":0,
			"byteLength":204,
			"byteOffset":25200,
			"target":34962
		},
		{
			"buffer":0,
			"byteLength":204,
			"byteOffset":25404,
			"target":34962
		},
		{
			"buffer":0,
			"byteLength":136,
			"byteOffset":25608,
			"target":34962
		},
		{
			"buffer":0,
			"byteLength":90,
			"byteOffset":25744,
			"target":34963
		},
		{
			"buffer":0,
			"byteLength":216,
			"byteOffset":25836,
			"target":34962
		},
		{
			"buffer":0,
			"byteLength":216,
			"byteOffset":26052,
			"target":34962
		},
		{
			"buffer":0,
			"byteLength":144,
			"byteOffset":26268,
			"target":34962
		},
		{
			"buffer":0,
			"byteLength":96,
			"byteOffset":26412,
			"target":34963
		}
	],
	"samplers":[
		{
			"magFilter":9729,
			"minFilter":9987
		}
	],
	"buffers":[
		{
			"byteLength":26508,
			"uri":"tile_3_1_5.bin"
		}
	]
}
