{
	"asset":{
		"generator":"Khronos glTF Blender I/O v4.0.44",
		"version":"2.0"
	},
	"extensionsUsed":[
		"KHR_materials_specular",
		"KHR_materials_ior",
		"KHR_materials_emissive_strength"
	],
	"scene":0,
	"scenes":[
		{
			"name":"Scene",
			"nodes":[
				0,
				1,
				2
			]
		}
	],
	"nodes":[
		{
			"mesh":0,
			"name":"Plane",
			"scale":[
				7.873531341552734,
				0.9841914176940918,
				7.873531341552734
			]
		},
		{
			"mesh":1,
			"name":"track.092",
			"scale":[
				3.7706682682037354,
				3.7706682682037354,
				3.7706682682037354
			]
		},
		{
			"mesh":2,
			"name":"Cylinder.008",
			"rotation":[
				-1,
				0,
				0,
				7.549790126404332e-08
			],
			"scale":[
				2.3381993770599365,
				2.3381993770599365,
				2.3381993770599365
			]
		}
	],
	"materials":[
		{
			"doubleSided":true,
			"extensions":{
				"KHR_materials_specular":{
					"specularColorFactor":[
						2.0,
						2.0,
						2.0
					]
				},
				"KHR_materials_ior":{
					"ior":1.4500000476837158
				}
			},
			"name":"building",
			"pbrMetallicRoughness":{
				"baseColorTexture":{
					"index":0
				},
				"metallicFactor":0
			}
		},
		{
			"doubleSided":true,
			"emissiveFactor":[
				0.2831465070731129,
				0.027320706840421944,
				1
			],
			"extensions":{
				"KHR_materials_emissive_strength":{
					"emissiveStrength":2.0000481605529785
				}
			},
			"name":"Glow8",
			"pbrMetallicRoughness":{
				"baseColorFactor":[
					0.2836092412471771,
					0.027631696313619614,
					1,
					1
				],
				"metallicFactor":0
			}
		}
	],
	"meshes":[
		{
			"name":"Plane.834",
			"primitives":[
				{
					"attributes":{
						"POSITION":0,
						"NORMAL":1,
						"TEXCOORD_0":2
					},
					"indices":3,
					"material":0
				}
			]
		},
		{
			"name":"Plane.835",
			"primitives":[
				{
					"attributes":{
						"POSITION":4,
						"NORMAL":5,
						"TEXCOORD_0":6
					},
					"indices":7,
					"material":0
				},
				{
					"attributes":{
						"POSITION":8,
						"NORMAL":9,
						"TEXCOORD_0":10
					},
					"indices":11,
					"material":0
				}
			]
		},
		{
			"name":"Cylinder.393",
			"primitives":[
				{
					"attributes":{
						"POSITION":12,
						"NORMAL":13,
						"TEXCOORD_0":14
					},
					"indices":15,
					"material":0
				},
				{
					"attributes":{
						"POSITION":16,
						"NORMAL":17,
						"TEXCOORD_0":18
					},
					"indices":19,
					"material":1
				},
				{
					"attributes":{
						"POSITION":20,
						"NORMAL":21,
						"TEXCOORD_0":22
					},
					"indices":23,
					"material":1
				}
			]
		}
	],
	"textures":[
		{
			"sampler":0,
			"source":0
		}
	],
	"images":[
		{
			"mimeType":"image/png",
			"name":"AvatarWearables_TX",
			"uri":"tex/AvatarWearables_TX.png"
		}
	],
	"accessors":[
		{
			"bufferView":0,
			"componentType":5126,
			"count":87,
			"max":[
				0.5080313682556152,
				-5.890952110290527,
				0.5080312490463257
			],
			"min":[
				-0.5080313682556152,
				-16.256999969482422,
				-0.5080313682556152
			],
			"type":"VEC3"
		},
		{
			"bufferView":1,
			"componentType":5126,
			"count":87,
			"type":"VEC3"
		},
		{
			"bufferView":2,
			"componentType":5126,
			"count":87,
			"type":"VEC2"
		},
		{
			"bufferView":3,
			"componentType":5123,
			"count":279,
			"type":"SCALAR"
		},
		{
			"bufferView":4,
			"componentType":5126,
			"count":68,
			"max":[
				1.0608186721801758,
				-1.3333885669708252,
				1.0608198642730713
			],
			"min":[
				-1.0608205795288086,
				-2.8057608604431152,
				-1.0608196258544922
			],
			"type":"VEC3"
		},
		{
			"bufferView":5,
			"componentType":5126,
			"count":68,
			"type":"VEC3"
		},
		{
			"bufferView":6,
			"componentType":5126,
			"count":68,
			"type":"VEC2"
		},
		{
			"bufferView":7,
			"componentType":5123,
			"count":120,
			"type":"SCALAR"
		},
		{
			"bufferView":8,
			"componentType":5126,
			"count":28,
			"max":[
				1.0608186721801758,
				-1.3333885669708252,
				1.0608198642730713
			],
			"min":[
				-1.0608205795288086,
				-4.243279933929443,
				-1.0608196258544922
			],
			"type":"VEC3"
		},
		{
			"bufferView":9,
			"componentType":5126,
			"count":28,
			"type":"VEC3"
		},
		{
			"bufferView":10,
			"componentType":5126,
			"count":28,
			"type":"VEC2"
		},
		{
			"bufferView":11,
			"componentType":5123,
			"count":63,
			"type":"SCALAR"
		},
		{
			"bufferView":12,
			"componentType":5126,
			"count":459,
			"max":[
				0.379622220993042,
				5.695939540863037,
				0.7134418487548828
			],
			"min":[
				-1.7107181549072266,
				-2.408755302429199,
				-1.7107200622558594
			],
			"type":"VEC3"
		},
		{
			"bufferView":13,
			"componentType":5126,
			"count":459,
			"type":"VEC3"
		},
		{
			"bufferView":14,
			"componentType":5126,
			"count":459,
			"type":"VEC2"
		},
		{
			"bufferView":15,
			"componentType":5123,
			"count":783,
			"type":"SCALAR"
		},
		{
			"bufferView":16,
			"componentType":5126,
			"count":103,
			"max":[
				0.004099130630493164,
				5.565956115722656,
				0.3290081024169922
			],
			"min":[
				-1.7107181549072266,
				-1.1786293983459473,
				-1.7107200622558594
			],
			"type":"VEC3"
		},
		{
			"bufferView":17,
			"componentType":5126,
			"count":103,
			"type":"VEC3"
		},
		{
			"bufferView":18,
			"componentType":5126,
			"count":103,
			"type":"VEC2"
		},
		{
			"bufferView":19,
			"componentType":5123,
			"count":180,
			"type":"SCALAR"
		},
		{
			"bufferView":20,
			"componentType":5126,
			"count":234,
			"max":[
				0.379622220993042,
				5.695939540863037,
				0.7134418487548828
			],
			"min":[
				-1.7107181549072266,
				-2.408755302429199,
				-1.7107200622558594
			],
			"type":"VEC3"
		},
		{
			"bufferView":21,
			"componentType":5126,
			"count":234,
			"type":"VEC3"
		},
		{
			"bufferView":22,
			"componentType":5126,
			"count":234,
			"type":"VEC2"
		},
		{
			"bufferView":23,
			"componentType":5123,
			"count":654,
			"type":"SCALAR"
		}
	],
	"bufferViews":[
		{
			"buffer":0,
			"byteLength":1044,
			"byteOffset":0,
			"target":34962
		},
		{
			"buffer":0,
			"byteLength":1044,
			"byteOffset":1044,
			"target":34962
		},
		{
			"buffer":0,
			"byteLength":696,
			"byteOffset":2088,
			"target":34962
		},
		{
			"buffer":0,
			"byteLength":558,
			"byteOffset":2784,
			"target":34963
		},
		{
			"buffer":0,
			"byteLength":816,
			"byteOffset":3344,
			"target":34962
		},
		{
			"buffer":0,
			"byteLength":816,
			"byteOffset":4160,
			"target":34962
		},
		{
			"buffer":0,
			"byteLength":544,
			"byteOffset":4976,
			"target":34962
		},
		{
			"buffer":0,
			"byteLength":240,
			"byteOffset":5520,
			"target":34963
		},
		{
			"buffer":0,
			"byteLength":336,
			"byteOffset":5760,
			"target":34962
		},
		{
			"buffer":0,
			"byteLength":336,
			"byteOffset":6096,
			"target":34962
		},
		{
			"buffer":0,
			"byteLength":224,
			"byteOffset":6432,
			"target":34962
		},
		{
			"buffer":0,
			"byteLength":126,
			"byteOffset":6656,
			"target":34963
		},
		{
			"buffer":0,
			"byteLength":5508,
			"byteOffset":6784,
			"target":34962
		},
		{
			"buffer":0,
			"byteLength":5508,
			"byteOffset":12292,
			"target":34962
		},
		{
			"buffer":0,
			"byteLength":3672,
			"byteOffset":17800,
			"target":34962
		},
		{
			"buffer":0,
			"byteLength":1566,
			"byteOffset":21472,
			"target":34963
		},
		{
			"buffer":0,
			"byteLength":1236,
			"byteOffset":23040,
			"target":34962
		},
		{
			"buffer":0,
			"byteLength":1236,
			"byteOffset":24276,
			"target":34962
		},
		{
			"buffer":0,
			"byteLength":824,
			"byteOffset":25512,
			"target":34962
		},
		{
			"buffer":0,
			"byteLength":360,
			"byteOffset":26336,
			"target":34963
		},
		{
			"buffer":0,
			"byteLength":2808,
			"byteOffset":26696,
			"target":34962
		},
		{
			"buffer":0,
			"byteLength":2808,
			"byteOffset":29504,
			"target":34962
		},
		{
			"buffer":0,
			"byteLength":1872,
			"byteOffset":32312,
			"target":34962
		},
		{
			"buffer":0,
			"byteLength":1308,
			"byteOffset":34184,
			"target":34963
		}
	],
	"samplers":[
		{
			"magFilter":9729,
			"minFilter":9987
		}
	],
	"buffers":[
		{
			"byteLength":35492,
			"uri":"tile_7_0_7.bin"
		}
	]
}
