{
	"asset":{
		"generator":"Khronos glTF Blender I/O v4.0.44",
		"version":"2.0"
	},
	"extensionsUsed":[
		"KHR_materials_specular",
		"KHR_materials_ior",
		"KHR_materials_emissive_strength"
	],
	"scene":0,
	"scenes":[
		{
			"name":"Scene",
			"nodes":[
				0,
				1,
				2,
				3
			]
		}
	],
	"nodes":[
		{
			"mesh":0,
			"name":"Plane",
			"scale":[
				7.873531341552734,
				0.9841914176940918,
				7.873531341552734
			]
		},
		{
			"mesh":1,
			"name":"Plane.001",
			"scale":[
				3.7706682682037354,
				3.7706682682037354,
				3.7706682682037354
			]
		},
		{
			"mesh":2,
			"name":"Torus.007",
			"rotation":[
				0.6081892251968384,
				0.3607020080089569,
				-0.3607020378112793,
				0.6081892251968384
			],
			"scale":[
				0.9492738246917725,
				0.9492738246917725,
				0.9492737650871277
			]
		},
		{
			"mesh":3,
			"name":"Cylinder.019",
			"rotation":[
				0,
				0.9276466965675354,
				0,
				0.3734590709209442
			],
			"scale":[
				0.4827125668525696,
				2.6737141609191895,
				0.4827125668525696
			]
		}
	],
	"materials":[
		{
			"doubleSided":true,
			"extensions":{
				"KHR_materials_specular":{
					"specularColorFactor":[
						2.0,
						2.0,
						2.0
					]
				},
				"KHR_materials_ior":{
					"ior":1.4500000476837158
				}
			},
			"name":"building",
			"pbrMetallicRoughness":{
				"baseColorTexture":{
					"index":0
				},
				"metallicFactor":0
			}
		},
		{
			"doubleSided":true,
			"emissiveFactor":[
				1,
				0.003797386313042906,
				0
			],
			"extensions":{
				"KHR_materials_emissive_strength":{
					"emissiveStrength":7.991064786911011
				}
			},
			"name":"Glow9",
			"pbrMetallicRoughness":{
				"baseColorFactor":[
					0.8000000715255737,
					0.0031031807884573936,
					0,
					1
				],
				"metallicFactor":0
			}
		},
		{
			"doubleSided":true,
			"emissiveFactor":[
				1,
				1,
				1
			],
			"extensions":{
				"KHR_materials_emissive_strength":{
					"emissiveStrength":4
				}
			},
			"name":"Glow2",
			"pbrMetallicRoughness":{
				"baseColorFactor":[
					0.800000011920929,
					0.800000011920929,
					0.800000011920929,
					1
				],
				"metallicFactor":0,
				"roughnessFactor":0.5
			}
		}
	],
	"meshes":[
		{
			"name":"Plane.086",
			"primitives":[
				{
					"attributes":{
						"POSITION":0,
						"NORMAL":1,
						"TEXCOORD_0":2
					},
					"indices":3,
					"material":0
				}
			]
		},
		{
			"name":"Plane.087",
			"primitives":[
				{
					"attributes":{
						"POSITION":4,
						"NORMAL":5,
						"TEXCOORD_0":6
					},
					"indices":7,
					"material":0
				}
			]
		},
		{
			"name":"Torus.018",
			"primitives":[
				{
					"attributes":{
						"POSITION":8,
						"NORMAL":9,
						"TEXCOORD_0":10,
						"TANGENT":11
					},
					"indices":12,
					"material":0
				},
				{
					"attributes":{
						"POSITION":13,
						"NORMAL":14,
						"TEXCOORD_0":15,
						"TANGENT":16
					},
					"indices":17,
					"material":1
				},
				{
					"attributes":{
						"POSITION":18,
						"NORMAL":19,
						"TEXCOORD_0":20,
						"TANGENT":21
					},
					"indices":22,
					"material":2
				}
			]
		},
		{
			"name":"Cylinder.041",
			"primitives":[
				{
					"attributes":{
						"POSITION":23,
						"NORMAL":24,
						"TEXCOORD_0":25
					},
					"indices":26,
					"material":0
				},
				{
					"attributes":{
						"POSITION":27,
						"NORMAL":28,
						"TEXCOORD_0":29
					},
					"indices":30,
					"material":0
				}
			]
		}
	],
	"textures":[
		{
			"sampler":0,
			"source":0
		}
	],
	"images":[
		{
			"mimeType":"image/png",
			"name":"AvatarWearables_TX",
			"uri":"tex/AvatarWearables_TX.png"
		}
	],
	"accessors":[
		{
			"bufferView":0,
			"componentType":5126,
			"count":122,
			"max":[
				1.0160634517669678,
				-4.098626136779785,
				1.016061544418335
			],
			"min":[
				-1.016061782836914,
				-8.128499984741211,
				-1.0160632133483887
			],
			"type":"VEC3"
		},
		{
			"bufferView":1,
			"componentType":5126,
			"count":122,
			"type":"VEC3"
		},
		{
			"bufferView":2,
			"componentType":5126,
			"count":122,
			"type":"VEC2"
		},
		{
			"bufferView":3,
			"componentType":5123,
			"count":540,
			"type":"SCALAR"
		},
		{
			"bufferView":4,
			"componentType":5126,
			"count":75,
			"max":[
				2.1216397285461426,
				-1.42173433303833,
				2.1216397285461426
			],
			"min":[
				-2.1216392517089844,
				-2.1216399669647217,
				-2.121640205383301
			],
			"type":"VEC3"
		},
		{
			"bufferView":5,
			"componentType":5126,
			"count":75,
			"type":"VEC3"
		},
		{
			"bufferView":6,
			"componentType":5126,
			"count":75,
			"type":"VEC2"
		},
		{
			"bufferView":7,
			"componentType":5123,
			"count":123,
			"type":"SCALAR"
		},
		{
			"bufferView":8,
			"componentType":5126,
			"count":991,
			"max":[
				4.406676292419434,
				4.070423126220703,
				7.0742692947387695
			],
			"min":[
				-0.37110233306884766,
				-0.7073535919189453,
				-1.3418912887573242
			],
			"type":"VEC3"
		},
		{
			"bufferView":9,
			"componentType":5126,
			"count":991,
			"type":"VEC3"
		},
		{
			"bufferView":10,
			"componentType":5126,
			"count":991,
			"type":"VEC2"
		},
		{
			"bufferView":11,
			"componentType":5126,
			"count":991,
			"type":"VEC4"
		},
		{
			"bufferView":12,
			"componentType":5123,
			"count":4692,
			"type":"SCALAR"
		},
		{
			"bufferView":13,
			"componentType":5126,
			"count":66,
			"max":[
				4.38669490814209,
				3.3325347900390625,
				7.033894062042236
			],
			"min":[
				-0.3674173355102539,
				0.1951388120651245,
				-0.3086109161376953
			],
			"type":"VEC3"
		},
		{
			"bufferView":14,
			"componentType":5126,
			"count":66,
			"type":"VEC3"
		},
		{
			"bufferView":15,
			"componentType":5126,
			"count":66,
			"type":"VEC2"
		},
		{
			"bufferView":16,
			"componentType":5126,
			"count":66,
			"type":"VEC4"
		},
		{
			"bufferView":17,
			"componentType":5123,
			"count":192,
			"type":"SCALAR"
		},
		{
			"bufferView":18,
			"componentType":5126,
			"count":100,
			"max":[
				3.6610021591186523,
				4.070423126220703,
				7.0742692947387695
			],
			"min":[
				0.43621742725372314,
				-0.7073535919189453,
				-1.1228551864624023
			],
			"type":"VEC3"
		},
		{
			"bufferView":19,
			"componentType":5126,
			"count":100,
			"type":"VEC3"
		},
		{
			"bufferView":20,
			"componentType":5126,
			"count":100,
			"type":"VEC2"
		},
		{
			"bufferView":21,
			"componentType":5126,
			"count":100,
			"type":"VEC4"
		},
		{
			"bufferView":22,
			"componentType":5123,
			"count":288,
			"type":"SCALAR"
		},
		{
			"bufferView":23,
			"componentType":5126,
			"count":117,
			"max":[
				6.807327747344971,
				-1.2047821283340454,
				-16.25264549255371
			],
			"min":[
				2.4627606868743896,
				-1.9848161935806274,
				-18.342456817626953
			],
			"type":"VEC3"
		},
		{
			"bufferView":24,
			"componentType":5126,
			"count":117,
			"type":"VEC3"
		},
		{
			"bufferView":25,
			"componentType":5126,
			"count":117,
			"type":"VEC2"
		},
		{
			"bufferView":26,
			"componentType":5123,
			"count":129,
			"type":"SCALAR"
		},
		{
			"bufferView":27,
			"componentType":5126,
			"count":11,
			"max":[
				6.807327747344971,
				-1.2077264785766602,
				-16.834957122802734
			],
			"min":[
				5.3587446212768555,
				-1.6417224407196045,
				-18.342456817626953
			],
			"type":"VEC3"
		},
		{
			"bufferView":28,
			"componentType":5126,
			"count":11,
			"type":"VEC3"
		},
		{
			"bufferView":29,
			"componentType":5126,
			"count":11,
			"type":"VEC2"
		},
		{
			"bufferView":30,
			"componentType":5123,
			"count":27,
			"type":"SCALAR"
		}
	],
	"bufferViews":[
		{
			"buffer":0,
			"byteLength":1464,
			"byteOffset":0,
			"target":34962
		},
		{
			"buffer":0,
			"byteLength":1464,
			"byteOffset":1464,
			"target":34962
		},
		{
			"buffer":0,
			"byteLength":976,
			"byteOffset":2928,
			"target":34962
		},
		{
			"buffer":0,
			"byteLength":1080,
			"byteOffset":3904,
			"target":34963
		},
		{
			"buffer":0,
			"byteLength":900,
			"byteOffset":4984,
			"target":34962
		},
		{
			"buffer":0,
			"byteLength":900,
			"byteOffset":5884,
			"target":34962
		},
		{
			"buffer":0,
			"byteLength":600,
			"byteOffset":6784,
			"target":34962
		},
		{
			"buffer":0,
			"byteLength":246,
			"byteOffset":7384,
			"target":34963
		},
		{
			"buffer":0,
			"byteLength":11892,
			"byteOffset":7632,
			"target":34962
		},
		{
			"buffer":0,
			"byteLength":11892,
			"byteOffset":19524,
			"target":34962
		},
		{
			"buffer":0,
			"byteLength":7928,
			"byteOffset":31416,
			"target":34962
		},
		{
			"buffer":0,
			"byteLength":15856,
			"byteOffset":39344,
			"target":34962
		},
		{
			"buffer":0,
			"byteLength":9384,
			"byteOffset":55200,
			"target":34963
		},
		{
			"buffer":0,
			"byteLength":792,
			"byteOffset":64584,
			"target":34962
		},
		{
			"buffer":0,
			"byteLength":792,
			"byteOffset":65376,
			"target":34962
		},
		{
			"buffer":0,
			"byteLength":528,
			"byteOffset":66168,
			"target":34962
		},
		{
			"buffer":0,
			"byteLength":1056,
			"byteOffset":66696,
			"target":34962
		},
		{
			"buffer":0,
			"byteLength":384,
			"byteOffset":67752,
			"target":34963
		},
		{
			"buffer":0,
			"byteLength":1200,
			"byteOffset":68136,
			"target":34962
		},
		{
			"buffer":0,
			"byteLength":1200,
			"byteOffset":69336,
			"target":34962
		},
		{
			"buffer":0,
			"byteLength":800,
			"byteOffset":70536,
			"target":34962
		},
		{
			"buffer":0,
			"byteLength":1600,
			"byteOffset":71336,
			"target":34962
		},
		{
			"buffer":0,
			"byteLength":576,
			"byteOffset":72936,
			"target":34963
		},
		{
			"buffer":0,
			"byteLength":1404,
			"byteOffset":73512,
			"target":34962
		},
		{
			"buffer":0,
			"byteLength":1404,
			"byteOffset":74916,
			"target":34962
		},
		{
			"buffer":0,
			"byteLength":936,
			"byteOffset":76320,
			"target":34962
		},
		{
			"buffer":0,
			"byteLength":258,
			"byteOffset":77256,
			"target":34963
		},
		{
			"buffer":0,
			"byteLength":132,
			"byteOffset":77516,
			"target":34962
		},
		{
			"buffer":0,
			"byteLength":132,
			"byteOffset":77648,
			"target":34962
		},
		{
			"buffer":0,
			"byteLength":88,
			"byteOffset":77780,
			"target":34962
		},
		{
			"buffer":0,
			"byteLength":54,
			"byteOffset":77868,
			"target":34963
		}
	],
	"samplers":[
		{
			"magFilter":9729,
			"minFilter":9987
		}
	],
	"buffers":[
		{
			"byteLength":77924,
			"uri":"tile_4_1_4.bin"
		}
	]
}
