{
	"asset":{
		"generator":"Khronos glTF Blender I/O v4.0.44",
		"version":"2.0"
	},
	"extensionsUsed":[
		"KHR_materials_specular",
		"KHR_materials_ior",
		"KHR_materials_emissive_strength"
	],
	"scene":0,
	"scenes":[
		{
			"name":"Scene",
			"nodes":[
				0,
				1,
				2
			]
		}
	],
	"nodes":[
		{
			"mesh":0,
			"name":"Plane",
			"scale":[
				7.873531341552734,
				0.9841914176940918,
				7.873531341552734
			]
		},
		{
			"mesh":1,
			"name":"Plane.001",
			"scale":[
				3.7706682682037354,
				3.7706682682037354,
				3.7706682682037354
			]
		},
		{
			"mesh":2,
			"name":"Cube.005",
			"rotation":[
				0,
				-0.060938477516174316,
				0,
				0.9981415271759033
			],
			"scale":[
				1.9919285774230957,
				1.9919284582138062,
				1.9919285774230957
			]
		}
	],
	"materials":[
		{
			"doubleSided":true,
			"extensions":{
				"KHR_materials_specular":{
					"specularColorFactor":[
						2.0,
						2.0,
						2.0
					]
				},
				"KHR_materials_ior":{
					"ior":1.4500000476837158
				}
			},
			"name":"building",
			"pbrMetallicRoughness":{
				"baseColorTexture":{
					"index":0
				},
				"metallicFactor":0
			}
		},
		{
			"doubleSided":true,
			"emissiveFactor":[
				1,
				1,
				1
			],
			"extensions":{
				"KHR_materials_emissive_strength":{
					"emissiveStrength":4
				}
			},
			"name":"Glow2",
			"pbrMetallicRoughness":{
				"baseColorFactor":[
					0.800000011920929,
					0.800000011920929,
					0.800000011920929,
					1
				],
				"metallicFactor":0,
				"roughnessFactor":0.5
			}
		}
	],
	"meshes":[
		{
			"name":"Plane.188",
			"primitives":[
				{
					"attributes":{
						"POSITION":0,
						"NORMAL":1,
						"TEXCOORD_0":2
					},
					"indices":3,
					"material":0
				}
			]
		},
		{
			"name":"Plane.189",
			"primitives":[
				{
					"attributes":{
						"POSITION":4,
						"NORMAL":5,
						"TEXCOORD_0":6
					},
					"indices":7,
					"material":0
				},
				{
					"attributes":{
						"POSITION":8,
						"NORMAL":9,
						"TEXCOORD_0":10
					},
					"indices":11,
					"material":0
				}
			]
		},
		{
			"name":"Cube.060",
			"primitives":[
				{
					"attributes":{
						"POSITION":12,
						"NORMAL":13,
						"TEXCOORD_0":14,
						"TANGENT":15
					},
					"indices":16,
					"material":0
				},
				{
					"attributes":{
						"POSITION":17,
						"NORMAL":18,
						"TEXCOORD_0":19,
						"TANGENT":20
					},
					"indices":21,
					"material":1
				}
			]
		}
	],
	"textures":[
		{
			"sampler":0,
			"source":0
		}
	],
	"images":[
		{
			"mimeType":"image/png",
			"name":"AvatarWearables_TX",
			"uri":"tex/AvatarWearables_TX.png"
		}
	],
	"accessors":[
		{
			"bufferView":0,
			"componentType":5126,
			"count":127,
			"max":[
				1.0160627365112305,
				-4.240665912628174,
				1.0160624980926514
			],
			"min":[
				-1.0160627365112305,
				-8.128499984741211,
				-1.0160624980926514
			],
			"type":"VEC3"
		},
		{
			"bufferView":1,
			"componentType":5126,
			"count":127,
			"type":"VEC3"
		},
		{
			"bufferView":2,
			"componentType":5126,
			"count":127,
			"type":"VEC2"
		},
		{
			"bufferView":3,
			"componentType":5123,
			"count":555,
			"type":"SCALAR"
		},
		{
			"bufferView":4,
			"componentType":5126,
			"count":32,
			"max":[
				2.1216392517089844,
				-1.4237679243087769,
				2.1216397285461426
			],
			"min":[
				1.9319190979003906,
				-1.6858465671539307,
				-2.1216397285461426
			],
			"type":"VEC3"
		},
		{
			"bufferView":5,
			"componentType":5126,
			"count":32,
			"type":"VEC3"
		},
		{
			"bufferView":6,
			"componentType":5126,
			"count":32,
			"type":"VEC2"
		},
		{
			"bufferView":7,
			"componentType":5123,
			"count":48,
			"type":"SCALAR"
		},
		{
			"bufferView":8,
			"componentType":5126,
			"count":18,
			"max":[
				2.1216392517089844,
				-1.4237679243087769,
				2.1216397285461426
			],
			"min":[
				1.9319190979003906,
				-1.6858465671539307,
				-2.1216397285461426
			],
			"type":"VEC3"
		},
		{
			"bufferView":9,
			"componentType":5126,
			"count":18,
			"type":"VEC3"
		},
		{
			"bufferView":10,
			"componentType":5126,
			"count":18,
			"type":"VEC2"
		},
		{
			"bufferView":11,
			"componentType":5123,
			"count":36,
			"type":"SCALAR"
		},
		{
			"bufferView":12,
			"componentType":5126,
			"count":1036,
			"max":[
				3.2277474403381348,
				1.293811321258545,
				1.5247704982757568
			],
			"min":[
				-1.3417348861694336,
				-3.3518176078796387,
				-3.0447115898132324
			],
			"type":"VEC3"
		},
		{
			"bufferView":13,
			"componentType":5126,
			"count":1036,
			"type":"VEC3"
		},
		{
			"bufferView":14,
			"componentType":5126,
			"count":1036,
			"type":"VEC2"
		},
		{
			"bufferView":15,
			"componentType":5126,
			"count":1036,
			"type":"VEC4"
		},
		{
			"bufferView":16,
			"componentType":5123,
			"count":1092,
			"type":"SCALAR"
		},
		{
			"bufferView":17,
			"componentType":5126,
			"count":277,
			"max":[
				3.227748155593872,
				1.2938117980957031,
				1.524770975112915
			],
			"min":[
				-1.3417348861694336,
				-3.3518176078796387,
				-3.0447118282318115
			],
			"type":"VEC3"
		},
		{
			"bufferView":18,
			"componentType":5126,
			"count":277,
			"type":"VEC3"
		},
		{
			"bufferView":19,
			"componentType":5126,
			"count":277,
			"type":"VEC2"
		},
		{
			"bufferView":20,
			"componentType":5126,
			"count":277,
			"type":"VEC4"
		},
		{
			"bufferView":21,
			"componentType":5123,
			"count":408,
			"type":"SCALAR"
		}
	],
	"bufferViews":[
		{
			"buffer":0,
			"byteLength":1524,
			"byteOffset":0,
			"target":34962
		},
		{
			"buffer":0,
			"byteLength":1524,
			"byteOffset":1524,
			"target":34962
		},
		{
			"buffer":0,
			"byteLength":1016,
			"byteOffset":3048,
			"target":34962
		},
		{
			"buffer":0,
			"byteLength":1110,
			"byteOffset":4064,
			"target":34963
		},
		{
			"buffer":0,
			"byteLength":384,
			"byteOffset":5176,
			"target":34962
		},
		{
			"buffer":0,
			"byteLength":384,
			"byteOffset":5560,
			"target":34962
		},
		{
			"buffer":0,
			"byteLength":256,
			"byteOffset":5944,
			"target":34962
		},
		{
			"buffer":0,
			"byteLength":96,
			"byteOffset":6200,
			"target":34963
		},
		{
			"buffer":0,
			"byteLength":216,
			"byteOffset":6296,
			"target":34962
		},
		{
			"buffer":0,
			"byteLength":216,
			"byteOffset":6512,
			"target":34962
		},
		{
			"buffer":0,
			"byteLength":144,
			"byteOffset":6728,
			"target":34962
		},
		{
			"buffer":0,
			"byteLength":72,
			"byteOffset":6872,
			"target":34963
		},
		{
			"buffer":0,
			"byteLength":12432,
			"byteOffset":6944,
			"target":34962
		},
		{
			"buffer":0,
			"byteLength":12432,
			"byteOffset":19376,
			"target":34962
		},
		{
			"buffer":0,
			"byteLength":8288,
			"byteOffset":31808,
			"target":34962
		},
		{
			"buffer":0,
			"byteLength":16576,
			"byteOffset":40096,
			"target":34962
		},
		{
			"buffer":0,
			"byteLength":2184,
			"byteOffset":56672,
			"target":34963
		},
		{
			"buffer":0,
			"byteLength":3324,
			"byteOffset":58856,
			"target":34962
		},
		{
			"buffer":0,
			"byteLength":3324,
			"byteOffset":62180,
			"target":34962
		},
		{
			"buffer":0,
			"byteLength":2216,
			"byteOffset":65504,
			"target":34962
		},
		{
			"buffer":0,
			"byteLength":4432,
			"byteOffset":67720,
			"target":34962
		},
		{
			"buffer":0,
			"byteLength":816,
			"byteOffset":72152,
			"target":34963
		}
	],
	"samplers":[
		{
			"magFilter":9729,
			"minFilter":9987
		}
	],
	"buffers":[
		{
			"byteLength":72968,
			"uri":"tile_10_1_2.bin"
		}
	]
}
