{
	"asset":{
		"generator":"Khronos glTF Blender I/O v4.0.44",
		"version":"2.0"
	},
	"extensionsUsed":[
		"KHR_materials_specular",
		"KHR_materials_ior",
		"KHR_materials_emissive_strength"
	],
	"scene":0,
	"scenes":[
		{
			"name":"Scene",
			"nodes":[
				0,
				1
			]
		}
	],
	"nodes":[
		{
			"name":"Plane",
			"scale":[
				7.873531341552734,
				0.9841914176940918,
				7.873531341552734
			]
		},
		{
			"mesh":0,
			"name":"Cylinder.002",
			"scale":[
				1.741005539894104,
				11.939791679382324,
				1.741005539894104
			]
		}
	],
	"materials":[
		{
			"doubleSided":true,
			"extensions":{
				"KHR_materials_specular":{
					"specularColorFactor":[
						2.0,
						2.0,
						2.0
					]
				},
				"KHR_materials_ior":{
					"ior":1.4500000476837158
				}
			},
			"name":"building2",
			"pbrMetallicRoughness":{
				"baseColorTexture":{
					"index":0
				},
				"metallicFactor":0,
				"roughnessFactor":0.17924527823925018
			}
		},
		{
			"doubleSided":true,
			"emissiveFactor":[
				1,
				0.10824445978162396,
				1
			],
			"extensions":{
				"KHR_materials_emissive_strength":{
					"emissiveStrength":1.5982129573822021
				}
			},
			"name":"Glow7",
			"pbrMetallicRoughness":{
				"baseColorFactor":[
					0.7954351902008057,
					0.08631403744220734,
					0.8003629446029663,
					1
				],
				"metallicFactor":0
			}
		},
		{
			"doubleSided":true,
			"emissiveFactor":[
				1,
				0.2655798013274177,
				0.04142626284219435
			],
			"extensions":{
				"KHR_materials_emissive_strength":{
					"emissiveStrength":1.5982129573822021
				}
			},
			"name":"Glow1",
			"pbrMetallicRoughness":{
				"baseColorFactor":[
					0.8008996248245239,
					0.21048900485038757,
					0.033567022532224655,
					1
				],
				"metallicFactor":0
			}
		}
	],
	"meshes":[
		{
			"name":"Cylinder.061",
			"primitives":[
				{
					"attributes":{
						"POSITION":0,
						"NORMAL":1,
						"TEXCOORD_0":2
					},
					"indices":3,
					"material":0
				},
				{
					"attributes":{
						"POSITION":4,
						"NORMAL":5,
						"TEXCOORD_0":6
					},
					"indices":7,
					"material":1
				},
				{
					"attributes":{
						"POSITION":8,
						"NORMAL":9,
						"TEXCOORD_0":10
					},
					"indices":11,
					"material":2
				},
				{
					"attributes":{
						"POSITION":12,
						"NORMAL":13,
						"TEXCOORD_0":14
					},
					"indices":15,
					"material":2
				}
			]
		}
	],
	"textures":[
		{
			"sampler":0,
			"source":0
		}
	],
	"images":[
		{
			"mimeType":"image/png",
			"name":"AvatarWearables_TX",
			"uri":"tex/AvatarWearables_TX.png"
		}
	],
	"accessors":[
		{
			"bufferView":0,
			"componentType":5126,
			"count":488,
			"max":[
				-2.890664577484131,
				0.03538703918457031,
				2.705202579498291
			],
			"min":[
				-4.595045566558838,
				-0.6500221490859985,
				0.7052024006843567
			],
			"type":"VEC3"
		},
		{
			"bufferView":1,
			"componentType":5126,
			"count":488,
			"type":"VEC3"
		},
		{
			"bufferView":2,
			"componentType":5126,
			"count":488,
			"type":"VEC2"
		},
		{
			"bufferView":3,
			"componentType":5123,
			"count":1671,
			"type":"SCALAR"
		},
		{
			"bufferView":4,
			"componentType":5126,
			"count":113,
			"max":[
				-2.979562282562256,
				-0.15506088733673096,
				2.6149826049804688
			],
			"min":[
				-4.595045566558838,
				-0.6700284481048584,
				0.8036583065986633
			],
			"type":"VEC3"
		},
		{
			"bufferView":5,
			"componentType":5126,
			"count":113,
			"type":"VEC3"
		},
		{
			"bufferView":6,
			"componentType":5126,
			"count":113,
			"type":"VEC2"
		},
		{
			"bufferView":7,
			"componentType":5123,
			"count":303,
			"type":"SCALAR"
		},
		{
			"bufferView":8,
			"componentType":5126,
			"count":129,
			"max":[
				-3.1773529052734375,
				-0.029645442962646484,
				1.966429352760315
			],
			"min":[
				-4.593096733093262,
				-0.5826636552810669,
				1.4522700309753418
			],
			"type":"VEC3"
		},
		{
			"bufferView":9,
			"componentType":5126,
			"count":129,
			"type":"VEC3"
		},
		{
			"bufferView":10,
			"componentType":5126,
			"count":129,
			"type":"VEC2"
		},
		{
			"bufferView":11,
			"componentType":5123,
			"count":288,
			"type":"SCALAR"
		},
		{
			"bufferView":12,
			"componentType":5126,
			"count":173,
			"max":[
				-2.9863386154174805,
				0.03538703918457031,
				2.608205795288086
			],
			"min":[
				-4.595045566558838,
				-0.6700284481048584,
				0.8104360103607178
			],
			"type":"VEC3"
		},
		{
			"bufferView":13,
			"componentType":5126,
			"count":173,
			"type":"VEC3"
		},
		{
			"bufferView":14,
			"componentType":5126,
			"count":173,
			"type":"VEC2"
		},
		{
			"bufferView":15,
			"componentType":5123,
			"count":489,
			"type":"SCALAR"
		}
	],
	"bufferViews":[
		{
			"buffer":0,
			"byteLength":5856,
			"byteOffset":0,
			"target":34962
		},
		{
			"buffer":0,
			"byteLength":5856,
			"byteOffset":5856,
			"target":34962
		},
		{
			"buffer":0,
			"byteLength":3904,
			"byteOffset":11712,
			"target":34962
		},
		{
			"buffer":0,
			"byteLength":3342,
			"byteOffset":15616,
			"target":34963
		},
		{
			"buffer":0,
			"byteLength":1356,
			"byteOffset":18960,
			"target":34962
		},
		{
			"buffer":0,
			"byteLength":1356,
			"byteOffset":20316,
			"target":34962
		},
		{
			"buffer":0,
			"byteLength":904,
			"byteOffset":21672,
			"target":34962
		},
		{
			"buffer":0,
			"byteLength":606,
			"byteOffset":22576,
			"target":34963
		},
		{
			"buffer":0,
			"byteLength":1548,
			"byteOffset":23184,
			"target":34962
		},
		{
			"buffer":0,
			"byteLength":1548,
			"byteOffset":24732,
			"target":34962
		},
		{
			"buffer":0,
			"byteLength":1032,
			"byteOffset":26280,
			"target":34962
		},
		{
			"buffer":0,
			"byteLength":576,
			"byteOffset":27312,
			"target":34963
		},
		{
			"buffer":0,
			"byteLength":2076,
			"byteOffset":27888,
			"target":34962
		},
		{
			"buffer":0,
			"byteLength":2076,
			"byteOffset":29964,
			"target":34962
		},
		{
			"buffer":0,
			"byteLength":1384,
			"byteOffset":32040,
			"target":34962
		},
		{
			"buffer":0,
			"byteLength":978,
			"byteOffset":33424,
			"target":34963
		}
	],
	"samplers":[
		{
			"magFilter":9729,
			"minFilter":9987
		}
	],
	"buffers":[
		{
			"byteLength":34404,
			"uri":"tile_10_2_1.bin"
		}
	]
}
