{
	"asset":{
		"generator":"Khronos glTF Blender I/O v4.0.44",
		"version":"2.0"
	},
	"extensionsUsed":[
		"KHR_materials_specular",
		"KHR_materials_ior",
		"KHR_materials_emissive_strength"
	],
	"scene":0,
	"scenes":[
		{
			"name":"Scene",
			"nodes":[
				0,
				1,
				2
			]
		}
	],
	"nodes":[
		{
			"mesh":0,
			"name":"Plane",
			"scale":[
				7.873531341552734,
				0.9841914176940918,
				7.873531341552734
			]
		},
		{
			"name":"track.125",
			"scale":[
				3.7706682682037354,
				3.7706682682037354,
				3.7706682682037354
			]
		},
		{
			"mesh":1,
			"name":"Icosphere.001",
			"rotation":[
				0,
				-0.8161246180534363,
				0,
				0.5778759717941284
			],
			"scale":[
				8.599296569824219,
				5.349599838256836,
				8.599296569824219
			]
		}
	],
	"materials":[
		{
			"doubleSided":true,
			"extensions":{
				"KHR_materials_specular":{
					"specularColorFactor":[
						2.0,
						2.0,
						2.0
					]
				},
				"KHR_materials_ior":{
					"ior":1.4500000476837158
				}
			},
			"name":"building",
			"pbrMetallicRoughness":{
				"baseColorTexture":{
					"index":0
				},
				"metallicFactor":0
			}
		},
		{
			"doubleSided":true,
			"extensions":{
				"KHR_materials_specular":{
					"specularColorFactor":[
						2.0,
						2.0,
						2.0
					]
				},
				"KHR_materials_ior":{
					"ior":1.4500000476837158
				}
			},
			"name":"building2",
			"pbrMetallicRoughness":{
				"baseColorTexture":{
					"index":1
				},
				"metallicFactor":0,
				"roughnessFactor":0.17924527823925018
			}
		},
		{
			"doubleSided":true,
			"emissiveFactor":[
				1,
				1,
				1
			],
			"extensions":{
				"KHR_materials_emissive_strength":{
					"emissiveStrength":4
				}
			},
			"name":"Glow2",
			"pbrMetallicRoughness":{
				"baseColorFactor":[
					0.800000011920929,
					0.800000011920929,
					0.800000011920929,
					1
				],
				"metallicFactor":0,
				"roughnessFactor":0.5
			}
		}
	],
	"meshes":[
		{
			"name":"Plane.900",
			"primitives":[
				{
					"attributes":{
						"POSITION":0,
						"NORMAL":1,
						"TEXCOORD_0":2
					},
					"indices":3,
					"material":0
				}
			]
		},
		{
			"name":"Icosphere.041",
			"primitives":[
				{
					"attributes":{
						"POSITION":4,
						"NORMAL":5,
						"TEXCOORD_0":6
					},
					"indices":7,
					"material":1
				},
				{
					"attributes":{
						"POSITION":8,
						"NORMAL":9,
						"TEXCOORD_0":10
					},
					"indices":11,
					"material":2
				},
				{
					"attributes":{
						"POSITION":12,
						"NORMAL":13,
						"TEXCOORD_0":14
					},
					"indices":15,
					"material":2
				}
			]
		}
	],
	"textures":[
		{
			"sampler":0,
			"source":0
		},
		{
			"sampler":0,
			"source":0
		}
	],
	"images":[
		{
			"mimeType":"image/png",
			"name":"AvatarWearables_TX",
			"uri":"tex/AvatarWearables_TX.png"
		}
	],
	"accessors":[
		{
			"bufferView":0,
			"componentType":5126,
			"count":52,
			"max":[
				0.5080312490463257,
				-14.710397720336914,
				0.5080304145812988
			],
			"min":[
				-0.5080313682556152,
				-14.900496482849121,
				-0.5080322027206421
			],
			"type":"VEC3"
		},
		{
			"bufferView":1,
			"componentType":5126,
			"count":52,
			"type":"VEC3"
		},
		{
			"bufferView":2,
			"componentType":5126,
			"count":52,
			"type":"VEC2"
		},
		{
			"bufferView":3,
			"componentType":5123,
			"count":192,
			"type":"SCALAR"
		},
		{
			"bufferView":4,
			"componentType":5126,
			"count":199,
			"max":[
				-0.041394829750061035,
				-0.5702848434448242,
				0.5932374596595764
			],
			"min":[
				-0.5932374596595764,
				-2.6594796180725098,
				-0.3849518299102783
			],
			"type":"VEC3"
		},
		{
			"bufferView":5,
			"componentType":5126,
			"count":199,
			"type":"VEC3"
		},
		{
			"bufferView":6,
			"componentType":5126,
			"count":199,
			"type":"VEC2"
		},
		{
			"bufferView":7,
			"componentType":5123,
			"count":432,
			"type":"SCALAR"
		},
		{
			"bufferView":8,
			"componentType":5126,
			"count":44,
			"max":[
				-0.041394829750061035,
				-0.6879076957702637,
				0.5681127309799194
			],
			"min":[
				-0.5932374596595764,
				-2.6594796180725098,
				-0.3849518299102783
			],
			"type":"VEC3"
		},
		{
			"bufferView":9,
			"componentType":5126,
			"count":44,
			"type":"VEC3"
		},
		{
			"bufferView":10,
			"componentType":5126,
			"count":44,
			"type":"VEC2"
		},
		{
			"bufferView":11,
			"componentType":5123,
			"count":57,
			"type":"SCALAR"
		},
		{
			"bufferView":12,
			"componentType":5126,
			"count":85,
			"max":[
				-0.041394829750061035,
				-0.5702848434448242,
				0.5932374596595764
			],
			"min":[
				-0.5932374596595764,
				-2.6594796180725098,
				-0.3849518299102783
			],
			"type":"VEC3"
		},
		{
			"bufferView":13,
			"componentType":5126,
			"count":85,
			"type":"VEC3"
		},
		{
			"bufferView":14,
			"componentType":5126,
			"count":85,
			"type":"VEC2"
		},
		{
			"bufferView":15,
			"componentType":5123,
			"count":237,
			"type":"SCALAR"
		}
	],
	"bufferViews":[
		{
			"buffer":0,
			"byteLength":624,
			"byteOffset":0,
			"target":34962
		},
		{
			"buffer":0,
			"byteLength":624,
			"byteOffset":624,
			"target":34962
		},
		{
			"buffer":0,
			"byteLength":416,
			"byteOffset":1248,
			"target":34962
		},
		{
			"buffer":0,
			"byteLength":384,
			"byteOffset":1664,
			"target":34963
		},
		{
			"buffer":0,
			"byteLength":2388,
			"byteOffset":2048,
			"target":34962
		},
		{
			"buffer":0,
			"byteLength":2388,
			"byteOffset":4436,
			"target":34962
		},
		{
			"buffer":0,
			"byteLength":1592,
			"byteOffset":6824,
			"target":34962
		},
		{
			"buffer":0,
			"byteLength":864,
			"byteOffset":8416,
			"target":34963
		},
		{
			"buffer":0,
			"byteLength":528,
			"byteOffset":9280,
			"target":34962
		},
		{
			"buffer":0,
			"byteLength":528,
			"byteOffset":9808,
			"target":34962
		},
		{
			"buffer":0,
			"byteLength":352,
			"byteOffset":10336,
			"target":34962
		},
		{
			"buffer":0,
			"byteLength":114,
			"byteOffset":10688,
			"target":34963
		},
		{
			"buffer":0,
			"byteLength":1020,
			"byteOffset":10804,
			"target":34962
		},
		{
			"buffer":0,
			"byteLength":1020,
			"byteOffset":11824,
			"target":34962
		},
		{
			"buffer":0,
			"byteLength":680,
			"byteOffset":12844,
			"target":34962
		},
		{
			"buffer":0,
			"byteLength":474,
			"byteOffset":13524,
			"target":34963
		}
	],
	"samplers":[
		{
			"magFilter":9729,
			"minFilter":9987
		}
	],
	"buffers":[
		{
			"byteLength":14000,
			"uri":"tile_10_0_4.bin"
		}
	]
}
