{
	"asset":{
		"generator":"Khronos glTF Blender I/O v4.0.44",
		"version":"2.0"
	},
	"extensionsUsed":[
		"KHR_materials_specular",
		"KHR_materials_ior"
	],
	"scene":0,
	"scenes":[
		{
			"name":"Scene",
			"nodes":[
				0,
				1,
				2,
				3,
				4,
				5
			]
		}
	],
	"nodes":[
		{
			"mesh":0,
			"name":"Plane",
			"scale":[
				7.873531341552734,
				0.9841914176940918,
				7.873531341552734
			]
		},
		{
			"mesh":1,
			"name":"track.206",
			"scale":[
				3.7706682682037354,
				3.7706682682037354,
				3.7706682682037354
			]
		},
		{
			"mesh":2,
			"name":"Cylinder.012"
		},
		{
			"mesh":3,
			"name":"Cylinder.073"
		},
		{
			"mesh":4,
			"name":"Cylinder.074"
		},
		{
			"mesh":5,
			"name":"Cylinder.075"
		}
	],
	"materials":[
		{
			"doubleSided":true,
			"extensions":{
				"KHR_materials_specular":{
					"specularColorFactor":[
						2.0,
						2.0,
						2.0
					]
				},
				"KHR_materials_ior":{
					"ior":1.4500000476837158
				}
			},
			"name":"building",
			"pbrMetallicRoughness":{
				"baseColorTexture":{
					"index":0
				},
				"metallicFactor":0
			}
		}
	],
	"meshes":[
		{
			"name":"Plane.1062",
			"primitives":[
				{
					"attributes":{
						"POSITION":0,
						"NORMAL":1,
						"TEXCOORD_0":2
					},
					"indices":3,
					"material":0
				}
			]
		},
		{
			"name":"Plane.1063",
			"primitives":[
				{
					"attributes":{
						"POSITION":4,
						"NORMAL":5,
						"TEXCOORD_0":6
					},
					"indices":7,
					"material":0
				}
			]
		},
		{
			"name":"Cylinder.443",
			"primitives":[
				{
					"attributes":{
						"POSITION":8,
						"NORMAL":9,
						"TEXCOORD_0":10
					},
					"indices":11,
					"material":0
				}
			]
		},
		{
			"name":"Cylinder.444",
			"primitives":[
				{
					"attributes":{
						"POSITION":12,
						"NORMAL":13,
						"TEXCOORD_0":14
					},
					"indices":15,
					"material":0
				}
			]
		},
		{
			"name":"Cylinder.445",
			"primitives":[
				{
					"attributes":{
						"POSITION":16,
						"NORMAL":17,
						"TEXCOORD_0":18,
						"TANGENT":19
					},
					"indices":20,
					"material":0
				}
			]
		},
		{
			"name":"Cylinder.446",
			"primitives":[
				{
					"attributes":{
						"POSITION":21,
						"NORMAL":22,
						"TEXCOORD_0":23,
						"TANGENT":24
					},
					"indices":20,
					"material":0
				}
			]
		}
	],
	"textures":[
		{
			"sampler":0,
			"source":0
		}
	],
	"images":[
		{
			"mimeType":"image/png",
			"name":"AvatarWearables_TX",
			"uri":"tex/AvatarWearables_TX.png"
		}
	],
	"accessors":[
		{
			"bufferView":0,
			"componentType":5126,
			"count":67,
			"max":[
				0.508033275604248,
				-12.813883781433105,
				0.5080307722091675
			],
			"min":[
				-0.5080294609069824,
				-16.256999969482422,
				-0.508031964302063
			],
			"type":"VEC3"
		},
		{
			"bufferView":1,
			"componentType":5126,
			"count":67,
			"type":"VEC3"
		},
		{
			"bufferView":2,
			"componentType":5126,
			"count":67,
			"type":"VEC2"
		},
		{
			"bufferView":3,
			"componentType":5123,
			"count":222,
			"type":"SCALAR"
		},
		{
			"bufferView":4,
			"componentType":5126,
			"count":62,
			"max":[
				1.0608196258544922,
				-2.7073798179626465,
				0.5671288967132568
			],
			"min":[
				-0.5378093719482422,
				-4.243279933929443,
				-1.0608198642730713
			],
			"type":"VEC3"
		},
		{
			"bufferView":5,
			"componentType":5126,
			"count":62,
			"type":"VEC3"
		},
		{
			"bufferView":6,
			"componentType":5126,
			"count":62,
			"type":"VEC2"
		},
		{
			"bufferView":7,
			"componentType":5123,
			"count":114,
			"type":"SCALAR"
		},
		{
			"bufferView":8,
			"componentType":5126,
			"count":151,
			"max":[
				2.312042713165283,
				-5.136338233947754,
				4
			],
			"min":[
				0.6516909599304199,
				-14.541875839233398,
				1.2395977973937988
			],
			"type":"VEC3"
		},
		{
			"bufferView":9,
			"componentType":5126,
			"count":151,
			"type":"VEC3"
		},
		{
			"bufferView":10,
			"componentType":5126,
			"count":151,
			"type":"VEC2"
		},
		{
			"bufferView":11,
			"componentType":5123,
			"count":582,
			"type":"SCALAR"
		},
		{
			"bufferView":12,
			"componentType":5126,
			"count":70,
			"max":[
				3.9953927993774414,
				-0.7641677856445312,
				4
			],
			"min":[
				-0.8199284076690674,
				-6.178591728210449,
				0.7739596366882324
			],
			"type":"VEC3"
		},
		{
			"bufferView":13,
			"componentType":5126,
			"count":70,
			"type":"VEC3"
		},
		{
			"bufferView":14,
			"componentType":5126,
			"count":70,
			"type":"VEC2"
		},
		{
			"bufferView":15,
			"componentType":5123,
			"count":96,
			"type":"SCALAR"
		},
		{
			"bufferView":16,
			"componentType":5126,
			"count":60,
			"max":[
				2.988557815551758,
				-8.607853889465332,
				2.04075288772583
			],
			"min":[
				1.1501328945159912,
				-10.675008773803711,
				0.2315967082977295
			],
			"type":"VEC3"
		},
		{
			"bufferView":17,
			"componentType":5126,
			"count":60,
			"type":"VEC3"
		},
		{
			"bufferView":18,
			"componentType":5126,
			"count":60,
			"type":"VEC2"
		},
		{
			"bufferView":19,
			"componentType":5126,
			"count":60,
			"type":"VEC4"
		},
		{
			"bufferView":20,
			"componentType":5123,
			"count":60,
			"type":"SCALAR"
		},
		{
			"bufferView":21,
			"componentType":5126,
			"count":60,
			"max":[
				1.0963692665100098,
				-11.170937538146973,
				3.8225393295288086
			],
			"min":[
				0.11342620849609375,
				-12.27617359161377,
				2.8552451133728027
			],
			"type":"VEC3"
		},
		{
			"bufferView":22,
			"componentType":5126,
			"count":60,
			"type":"VEC3"
		},
		{
			"bufferView":23,
			"componentType":5126,
			"count":60,
			"type":"VEC2"
		},
		{
			"bufferView":24,
			"componentType":5126,
			"count":60,
			"type":"VEC4"
		}
	],
	"bufferViews":[
		{
			"buffer":0,
			"byteLength":804,
			"byteOffset":0,
			"target":34962
		},
		{
			"buffer":0,
			"byteLength":804,
			"byteOffset":804,
			"target":34962
		},
		{
			"buffer":0,
			"byteLength":536,
			"byteOffset":1608,
			"target":34962
		},
		{
			"buffer":0,
			"byteLength":444,
			"byteOffset":2144,
			"target":34963
		},
		{
			"buffer":0,
			"byteLength":744,
			"byteOffset":2588,
			"target":34962
		},
		{
			"buffer":0,
			"byteLength":744,
			"byteOffset":3332,
			"target":34962
		},
		{
			"buffer":0,
			"byteLength":496,
			"byteOffset":4076,
			"target":34962
		},
		{
			"buffer":0,
			"byteLength":228,
			"byteOffset":4572,
			"target":34963
		},
		{
			"buffer":0,
			"byteLength":1812,
			"byteOffset":4800,
			"target":34962
		},
		{
			"buffer":0,
			"byteLength":1812,
			"byteOffset":6612,
			"target":34962
		},
		{
			"buffer":0,
			"byteLength":1208,
			"byteOffset":8424,
			"target":34962
		},
		{
			"buffer":0,
			"byteLength":1164,
			"byteOffset":9632,
			"target":34963
		},
		{
			"buffer":0,
			"byteLength":840,
			"byteOffset":10796,
			"target":34962
		},
		{
			"buffer":0,
			"byteLength":840,
			"byteOffset":11636,
			"target":34962
		},
		{
			"buffer":0,
			"byteLength":560,
			"byteOffset":12476,
			"target":34962
		},
		{
			"buffer":0,
			"byteLength":192,
			"byteOffset":13036,
			"target":34963
		},
		{
			"buffer":0,
			"byteLength":720,
			"byteOffset":13228,
			"target":34962
		},
		{
			"buffer":0,
			"byteLength":720,
			"byteOffset":13948,
			"target":34962
		},
		{
			"buffer":0,
			"byteLength":480,
			"byteOffset":14668,
			"target":34962
		},
		{
			"buffer":0,
			"byteLength":960,
			"byteOffset":15148,
			"target":34962
		},
		{
			"buffer":0,
			"byteLength":120,
			"byteOffset":16108,
			"target":34963
		},
		{
			"buffer":0,
			"byteLength":720,
			"byteOffset":16228,
			"target":34962
		},
		{
			"buffer":0,
			"byteLength":720,
			"byteOffset":16948,
			"target":34962
		},
		{
			"buffer":0,
			"byteLength":480,
			"byteOffset":17668,
			"target":34962
		},
		{
			"buffer":0,
			"byteLength":960,
			"byteOffset":18148,
			"target":34962
		}
	],
	"samplers":[
		{
			"magFilter":9729,
			"minFilter":9987
		}
	],
	"buffers":[
		{
			"byteLength":19108,
			"uri":"tile_17_0_1.bin"
		}
	]
}
