{
	"asset":{
		"generator":"Khronos glTF Blender I/O v4.0.44",
		"version":"2.0"
	},
	"extensionsUsed":[
		"KHR_materials_specular",
		"KHR_materials_ior"
	],
	"scene":0,
	"scenes":[
		{
			"name":"Scene",
			"nodes":[
				0,
				1,
				2,
				3,
				4,
				5,
				6,
				7,
				8,
				9
			]
		}
	],
	"nodes":[
		{
			"mesh":0,
			"name":"Plane",
			"scale":[
				7.873531341552734,
				0.9841914176940918,
				7.873531341552734
			]
		},
		{
			"mesh":1,
			"name":"track.081",
			"scale":[
				3.7706682682037354,
				3.7706682682037354,
				3.7706682682037354
			]
		},
		{
			"name":"Cube.009"
		},
		{
			"name":"Cube.091"
		},
		{
			"name":"Cube.092"
		},
		{
			"name":"Cube.093"
		},
		{
			"name":"Cube.094"
		},
		{
			"name":"Cube.095"
		},
		{
			"name":"Cube.096"
		},
		{
			"name":"Cube.097"
		}
	],
	"materials":[
		{
			"doubleSided":true,
			"extensions":{
				"KHR_materials_specular":{
					"specularColorFactor":[
						2.0,
						2.0,
						2.0
					]
				},
				"KHR_materials_ior":{
					"ior":1.4500000476837158
				}
			},
			"name":"building",
			"pbrMetallicRoughness":{
				"baseColorTexture":{
					"index":0
				},
				"metallicFactor":0
			}
		}
	],
	"meshes":[
		{
			"name":"Plane.812",
			"primitives":[
				{
					"attributes":{
						"POSITION":0,
						"NORMAL":1,
						"TEXCOORD_0":2
					},
					"indices":3,
					"material":0
				}
			]
		},
		{
			"name":"Plane.813",
			"primitives":[
				{
					"attributes":{
						"POSITION":4,
						"NORMAL":5,
						"TEXCOORD_0":6
					},
					"indices":7,
					"material":0
				}
			]
		}
	],
	"textures":[
		{
			"sampler":0,
			"source":0
		}
	],
	"images":[
		{
			"mimeType":"image/png",
			"name":"AvatarWearables_TX",
			"uri":"tex/AvatarWearables_TX.png"
		}
	],
	"accessors":[
		{
			"bufferView":0,
			"componentType":5126,
			"count":81,
			"max":[
				0.5080313682556152,
				-12.890308380126953,
				0.5080304145812988
			],
			"min":[
				-0.5080313682556152,
				-16.256999969482422,
				-0.5080323219299316
			],
			"type":"VEC3"
		},
		{
			"bufferView":1,
			"componentType":5126,
			"count":81,
			"type":"VEC3"
		},
		{
			"bufferView":2,
			"componentType":5126,
			"count":81,
			"type":"VEC2"
		},
		{
			"bufferView":3,
			"componentType":5123,
			"count":258,
			"type":"SCALAR"
		},
		{
			"bufferView":4,
			"componentType":5126,
			"count":118,
			"max":[
				1.0608177185058594,
				-2.677164077758789,
				1.0608177185058594
			],
			"min":[
				-1.060821533203125,
				-4.243279933929443,
				-1.060821533203125
			],
			"type":"VEC3"
		},
		{
			"bufferView":5,
			"componentType":5126,
			"count":118,
			"type":"VEC3"
		},
		{
			"bufferView":6,
			"componentType":5126,
			"count":118,
			"type":"VEC2"
		},
		{
			"bufferView":7,
			"componentType":5123,
			"count":231,
			"type":"SCALAR"
		}
	],
	"bufferViews":[
		{
			"buffer":0,
			"byteLength":972,
			"byteOffset":0,
			"target":34962
		},
		{
			"buffer":0,
			"byteLength":972,
			"byteOffset":972,
			"target":34962
		},
		{
			"buffer":0,
			"byteLength":648,
			"byteOffset":1944,
			"target":34962
		},
		{
			"buffer":0,
			"byteLength":516,
			"byteOffset":2592,
			"target":34963
		},
		{
			"buffer":0,
			"byteLength":1416,
			"byteOffset":3108,
			"target":34962
		},
		{
			"buffer":0,
			"byteLength":1416,
			"byteOffset":4524,
			"target":34962
		},
		{
			"buffer":0,
			"byteLength":944,
			"byteOffset":5940,
			"target":34962
		},
		{
			"buffer":0,
			"byteLength":462,
			"byteOffset":6884,
			"target":34963
		}
	],
	"samplers":[
		{
			"magFilter":9729,
			"minFilter":9987
		}
	],
	"buffers":[
		{
			"byteLength":7348,
			"uri":"tile_6_0_8.bin"
		}
	]
}
