{
	"asset":{
		"generator":"Khronos glTF Blender I/O v4.0.44",
		"version":"2.0"
	},
	"extensionsUsed":[
		"KHR_materials_specular",
		"KHR_materials_ior"
	],
	"scene":0,
	"scenes":[
		{
			"name":"Scene",
			"nodes":[
				0,
				1,
				2,
				3,
				4
			]
		}
	],
	"nodes":[
		{
			"mesh":0,
			"name":"Plane",
			"scale":[
				7.873531341552734,
				0.9841914176940918,
				7.873531341552734
			]
		},
		{
			"mesh":1,
			"name":"track.077",
			"scale":[
				3.7706682682037354,
				3.7706682682037354,
				3.7706682682037354
			]
		},
		{
			"mesh":2,
			"name":"Cylinder.020"
		},
		{
			"mesh":3,
			"name":"Cylinder.112"
		},
		{
			"mesh":4,
			"name":"Cylinder.113"
		}
	],
	"materials":[
		{
			"doubleSided":true,
			"extensions":{
				"KHR_materials_specular":{
					"specularColorFactor":[
						2.0,
						2.0,
						2.0
					]
				},
				"KHR_materials_ior":{
					"ior":1.4500000476837158
				}
			},
			"name":"building",
			"pbrMetallicRoughness":{
				"baseColorTexture":{
					"index":0
				},
				"metallicFactor":0
			}
		}
	],
	"meshes":[
		{
			"name":"Plane.804",
			"primitives":[
				{
					"attributes":{
						"POSITION":0,
						"NORMAL":1,
						"TEXCOORD_0":2
					},
					"indices":3,
					"material":0
				}
			]
		},
		{
			"name":"Plane.805",
			"primitives":[
				{
					"attributes":{
						"POSITION":4,
						"NORMAL":5,
						"TEXCOORD_0":6
					},
					"indices":7,
					"material":0
				}
			]
		},
		{
			"name":"Cylinder.381",
			"primitives":[
				{
					"attributes":{
						"POSITION":8,
						"NORMAL":9,
						"TEXCOORD_0":10
					},
					"indices":11,
					"material":0
				}
			]
		},
		{
			"name":"Cylinder.382",
			"primitives":[
				{
					"attributes":{
						"POSITION":12,
						"NORMAL":13,
						"TEXCOORD_0":14
					},
					"indices":15,
					"material":0
				}
			]
		},
		{
			"name":"Cylinder.383",
			"primitives":[
				{
					"attributes":{
						"POSITION":16,
						"NORMAL":17,
						"TEXCOORD_0":18
					},
					"indices":19,
					"material":0
				},
				{
					"attributes":{
						"POSITION":20,
						"NORMAL":21,
						"TEXCOORD_0":22
					},
					"indices":23,
					"material":0
				}
			]
		}
	],
	"textures":[
		{
			"sampler":0,
			"source":0
		}
	],
	"images":[
		{
			"mimeType":"image/png",
			"name":"AvatarWearables_TX",
			"uri":"tex/AvatarWearables_TX.png"
		}
	],
	"accessors":[
		{
			"bufferView":0,
			"componentType":5126,
			"count":94,
			"max":[
				0.5080313682556152,
				-9.756027221679688,
				0.5080304145812988
			],
			"min":[
				-0.5080313682556152,
				-16.256999969482422,
				-0.5080322027206421
			],
			"type":"VEC3"
		},
		{
			"bufferView":1,
			"componentType":5126,
			"count":94,
			"type":"VEC3"
		},
		{
			"bufferView":2,
			"componentType":5126,
			"count":94,
			"type":"VEC2"
		},
		{
			"bufferView":3,
			"componentType":5123,
			"count":297,
			"type":"SCALAR"
		},
		{
			"bufferView":4,
			"componentType":5126,
			"count":69,
			"max":[
				1.0608177185058594,
				-1.6557116508483887,
				-0.2362370491027832
			],
			"min":[
				-1.060821533203125,
				-3.0718183517456055,
				-1.0608189105987549
			],
			"type":"VEC3"
		},
		{
			"bufferView":5,
			"componentType":5126,
			"count":69,
			"type":"VEC3"
		},
		{
			"bufferView":6,
			"componentType":5126,
			"count":69,
			"type":"VEC2"
		},
		{
			"bufferView":7,
			"componentType":5123,
			"count":135,
			"type":"SCALAR"
		},
		{
			"bufferView":8,
			"componentType":5126,
			"count":24,
			"max":[
				4,
				-12.963342666625977,
				1.2672717571258545
			],
			"min":[
				3.957847833633423,
				-14.568249702453613,
				0.7351679801940918
			],
			"type":"VEC3"
		},
		{
			"bufferView":9,
			"componentType":5126,
			"count":24,
			"type":"VEC3"
		},
		{
			"bufferView":10,
			"componentType":5126,
			"count":24,
			"type":"VEC2"
		},
		{
			"bufferView":11,
			"componentType":5123,
			"count":60,
			"type":"SCALAR"
		},
		{
			"bufferView":12,
			"componentType":5126,
			"count":50,
			"max":[
				4,
				-4.11110782623291,
				2.8280208110809326
			],
			"min":[
				2.6400375366210938,
				-7.669968605041504,
				-0.6975386142730713
			],
			"type":"VEC3"
		},
		{
			"bufferView":13,
			"componentType":5126,
			"count":50,
			"type":"VEC3"
		},
		{
			"bufferView":14,
			"componentType":5126,
			"count":50,
			"type":"VEC2"
		},
		{
			"bufferView":15,
			"componentType":5123,
			"count":72,
			"type":"SCALAR"
		},
		{
			"bufferView":16,
			"componentType":5126,
			"count":40,
			"max":[
				4,
				-10.042176246643066,
				3.3238561153411865
			],
			"min":[
				3.474766492843628,
				-11.408875465393066,
				1.9737945795059204
			],
			"type":"VEC3"
		},
		{
			"bufferView":17,
			"componentType":5126,
			"count":40,
			"type":"VEC3"
		},
		{
			"bufferView":18,
			"componentType":5126,
			"count":40,
			"type":"VEC2"
		},
		{
			"bufferView":19,
			"componentType":5123,
			"count":48,
			"type":"SCALAR"
		},
		{
			"bufferView":20,
			"componentType":5126,
			"count":10,
			"max":[
				4,
				-10.042176246643066,
				3.3238561153411865
			],
			"min":[
				4,
				-11.408875465393066,
				1.9737945795059204
			],
			"type":"VEC3"
		},
		{
			"bufferView":21,
			"componentType":5126,
			"count":10,
			"type":"VEC3"
		},
		{
			"bufferView":22,
			"componentType":5126,
			"count":10,
			"type":"VEC2"
		},
		{
			"bufferView":23,
			"componentType":5123,
			"count":24,
			"type":"SCALAR"
		}
	],
	"bufferViews":[
		{
			"buffer":0,
			"byteLength":1128,
			"byteOffset":0,
			"target":34962
		},
		{
			"buffer":0,
			"byteLength":1128,
			"byteOffset":1128,
			"target":34962
		},
		{
			"buffer":0,
			"byteLength":752,
			"byteOffset":2256,
			"target":34962
		},
		{
			"buffer":0,
			"byteLength":594,
			"byteOffset":3008,
			"target":34963
		},
		{
			"buffer":0,
			"byteLength":828,
			"byteOffset":3604,
			"target":34962
		},
		{
			"buffer":0,
			"byteLength":828,
			"byteOffset":4432,
			"target":34962
		},
		{
			"buffer":0,
			"byteLength":552,
			"byteOffset":5260,
			"target":34962
		},
		{
			"buffer":0,
			"byteLength":270,
			"byteOffset":5812,
			"target":34963
		},
		{
			"buffer":0,
			"byteLength":288,
			"byteOffset":6084,
			"target":34962
		},
		{
			"buffer":0,
			"byteLength":288,
			"byteOffset":6372,
			"target":34962
		},
		{
			"buffer":0,
			"byteLength":192,
			"byteOffset":6660,
			"target":34962
		},
		{
			"buffer":0,
			"byteLength":120,
			"byteOffset":6852,
			"target":34963
		},
		{
			"buffer":0,
			"byteLength":600,
			"byteOffset":6972,
			"target":34962
		},
		{
			"buffer":0,
			"byteLength":600,
			"byteOffset":7572,
			"target":34962
		},
		{
			"buffer":0,
			"byteLength":400,
			"byteOffset":8172,
			"target":34962
		},
		{
			"buffer":0,
			"byteLength":144,
			"byteOffset":8572,
			"target":34963
		},
		{
			"buffer":0,
			"byteLength":480,
			"byteOffset":8716,
			"target":34962
		},
		{
			"buffer":0,
			"byteLength":480,
			"byteOffset":9196,
			"target":34962
		},
		{
			"buffer":0,
			"byteLength":320,
			"byteOffset":9676,
			"target":34962
		},
		{
			"buffer":0,
			"byteLength":96,
			"byteOffset":9996,
			"target":34963
		},
		{
			"buffer":0,
			"byteLength":120,
			"byteOffset":10092,
			"target":34962
		},
		{
			"buffer":0,
			"byteLength":120,
			"byteOffset":10212,
			"target":34962
		},
		{
			"buffer":0,
			"byteLength":80,
			"byteOffset":10332,
			"target":34962
		},
		{
			"buffer":0,
			"byteLength":48,
			"byteOffset":10412,
			"target":34963
		}
	],
	"samplers":[
		{
			"magFilter":9729,
			"minFilter":9987
		}
	],
	"buffers":[
		{
			"byteLength":10460,
			"uri":"tile_6_0_4.bin"
		}
	]
}
