{
	"asset":{
		"generator":"Khronos glTF Blender I/O v4.0.44",
		"version":"2.0"
	},
	"extensionsUsed":[
		"KHR_materials_specular",
		"KHR_materials_ior"
	],
	"scene":0,
	"scenes":[
		{
			"name":"Scene",
			"nodes":[
				0,
				1,
				2
			]
		}
	],
	"nodes":[
		{
			"mesh":0,
			"name":"Plane",
			"scale":[
				7.873531341552734,
				0.9841914176940918,
				7.873531341552734
			]
		},
		{
			"name":"track.148",
			"scale":[
				3.7706682682037354,
				3.7706682682037354,
				3.7706682682037354
			]
		},
		{
			"mesh":1,
			"name":"Cube.001",
			"scale":[
				3.3134217262268066,
				3.3134217262268066,
				3.3134217262268066
			]
		}
	],
	"materials":[
		{
			"doubleSided":true,
			"extensions":{
				"KHR_materials_specular":{
					"specularColorFactor":[
						2.0,
						2.0,
						2.0
					]
				},
				"KHR_materials_ior":{
					"ior":1.4500000476837158
				}
			},
			"name":"building",
			"pbrMetallicRoughness":{
				"baseColorTexture":{
					"index":0
				},
				"metallicFactor":0
			}
		},
		{
			"doubleSided":true,
			"extensions":{
				"KHR_materials_specular":{
					"specularColorFactor":[
						2.0,
						2.0,
						2.0
					]
				},
				"KHR_materials_ior":{
					"ior":1.4500000476837158
				}
			},
			"name":"building2",
			"pbrMetallicRoughness":{
				"baseColorTexture":{
					"index":1
				},
				"metallicFactor":0,
				"roughnessFactor":0.17924527823925018
			}
		},
		{
			"doubleSided":true,
			"emissiveFactor":[
				1,
				1,
				0
			],
			"name":"Glow6",
			"pbrMetallicRoughness":{
				"baseColorFactor":[
					0.8000000715255737,
					0.6898009181022644,
					0,
					1
				],
				"metallicFactor":0
			}
		}
	],
	"meshes":[
		{
			"name":"Plane.946",
			"primitives":[
				{
					"attributes":{
						"POSITION":0,
						"NORMAL":1,
						"TEXCOORD_0":2
					},
					"indices":3,
					"material":0
				}
			]
		},
		{
			"name":"Cube.636",
			"primitives":[
				{
					"attributes":{
						"POSITION":4,
						"NORMAL":5,
						"TEXCOORD_0":6
					},
					"indices":7,
					"material":1
				},
				{
					"attributes":{
						"POSITION":8,
						"NORMAL":9,
						"TEXCOORD_0":10
					},
					"indices":11,
					"material":2
				}
			]
		}
	],
	"textures":[
		{
			"sampler":0,
			"source":0
		},
		{
			"sampler":0,
			"source":0
		}
	],
	"images":[
		{
			"mimeType":"image/png",
			"name":"AvatarWearables_TX",
			"uri":"tex/AvatarWearables_TX.png"
		}
	],
	"accessors":[
		{
			"bufferView":0,
			"componentType":5126,
			"count":102,
			"max":[
				0.5080312490463257,
				-10.702946662902832,
				0.508030891418457
			],
			"min":[
				-0.5080312490463257,
				-16.256999969482422,
				-0.5080318450927734
			],
			"type":"VEC3"
		},
		{
			"bufferView":1,
			"componentType":5126,
			"count":102,
			"type":"VEC3"
		},
		{
			"bufferView":2,
			"componentType":5126,
			"count":102,
			"type":"VEC2"
		},
		{
			"bufferView":3,
			"componentType":5123,
			"count":333,
			"type":"SCALAR"
		},
		{
			"bufferView":4,
			"componentType":5126,
			"count":162,
			"max":[
				1.2072112560272217,
				2.269782304763794,
				-1.1285514831542969
			],
			"min":[
				0.13317382335662842,
				-0.9158601760864258,
				-1.2072112560272217
			],
			"type":"VEC3"
		},
		{
			"bufferView":5,
			"componentType":5126,
			"count":162,
			"type":"VEC3"
		},
		{
			"bufferView":6,
			"componentType":5126,
			"count":162,
			"type":"VEC2"
		},
		{
			"bufferView":7,
			"componentType":5123,
			"count":276,
			"type":"SCALAR"
		},
		{
			"bufferView":8,
			"componentType":5126,
			"count":56,
			"max":[
				1.2072112560272217,
				2.269782304763794,
				-1.1285514831542969
			],
			"min":[
				0.13317382335662842,
				-0.9158601760864258,
				-1.2072112560272217
			],
			"type":"VEC3"
		},
		{
			"bufferView":9,
			"componentType":5126,
			"count":56,
			"type":"VEC3"
		},
		{
			"bufferView":10,
			"componentType":5126,
			"count":56,
			"type":"VEC2"
		},
		{
			"bufferView":11,
			"componentType":5123,
			"count":126,
			"type":"SCALAR"
		}
	],
	"bufferViews":[
		{
			"buffer":0,
			"byteLength":1224,
			"byteOffset":0,
			"target":34962
		},
		{
			"buffer":0,
			"byteLength":1224,
			"byteOffset":1224,
			"target":34962
		},
		{
			"buffer":0,
			"byteLength":816,
			"byteOffset":2448,
			"target":34962
		},
		{
			"buffer":0,
			"byteLength":666,
			"byteOffset":3264,
			"target":34963
		},
		{
			"buffer":0,
			"byteLength":1944,
			"byteOffset":3932,
			"target":34962
		},
		{
			"buffer":0,
			"byteLength":1944,
			"byteOffset":5876,
			"target":34962
		},
		{
			"buffer":0,
			"byteLength":1296,
			"byteOffset":7820,
			"target":34962
		},
		{
			"buffer":0,
			"byteLength":552,
			"byteOffset":9116,
			"target":34963
		},
		{
			"buffer":0,
			"byteLength":672,
			"byteOffset":9668,
			"target":34962
		},
		{
			"buffer":0,
			"byteLength":672,
			"byteOffset":10340,
			"target":34962
		},
		{
			"buffer":0,
			"byteLength":448,
			"byteOffset":11012,
			"target":34962
		},
		{
			"buffer":0,
			"byteLength":252,
			"byteOffset":11460,
			"target":34963
		}
	],
	"samplers":[
		{
			"magFilter":9729,
			"minFilter":9987
		}
	],
	"buffers":[
		{
			"byteLength":11712,
			"uri":"tile_12_0_3.bin"
		}
	]
}
