{
	"asset":{
		"generator":"Khronos glTF Blender I/O v4.0.44",
		"version":"2.0"
	},
	"extensionsUsed":[
		"KHR_materials_specular",
		"KHR_materials_ior",
		"KHR_materials_emissive_strength"
	],
	"scene":0,
	"scenes":[
		{
			"name":"Scene",
			"nodes":[
				0,
				1,
				2
			]
		}
	],
	"nodes":[
		{
			"mesh":0,
			"name":"Plane",
			"scale":[
				7.873531341552734,
				0.9841914176940918,
				7.873531341552734
			]
		},
		{
			"mesh":1,
			"name":"track.082",
			"scale":[
				3.7706682682037354,
				3.7706682682037354,
				3.7706682682037354
			]
		},
		{
			"mesh":2,
			"name":"Torus.011",
			"rotation":[
				0.6081892251968384,
				0.3607020080089569,
				-0.3607020378112793,
				0.6081892251968384
			],
			"scale":[
				0.9492738246917725,
				0.9492738246917725,
				0.9492737650871277
			]
		}
	],
	"materials":[
		{
			"doubleSided":true,
			"extensions":{
				"KHR_materials_specular":{
					"specularColorFactor":[
						2.0,
						2.0,
						2.0
					]
				},
				"KHR_materials_ior":{
					"ior":1.4500000476837158
				}
			},
			"name":"building",
			"pbrMetallicRoughness":{
				"baseColorTexture":{
					"index":0
				},
				"metallicFactor":0
			}
		},
		{
			"doubleSided":true,
			"emissiveFactor":[
				1,
				0.003797386313042906,
				0
			],
			"extensions":{
				"KHR_materials_emissive_strength":{
					"emissiveStrength":7.991064786911011
				}
			},
			"name":"Glow9",
			"pbrMetallicRoughness":{
				"baseColorFactor":[
					0.8000000715255737,
					0.0031031807884573936,
					0,
					1
				],
				"metallicFactor":0
			}
		},
		{
			"doubleSided":true,
			"emissiveFactor":[
				1,
				1,
				1
			],
			"extensions":{
				"KHR_materials_emissive_strength":{
					"emissiveStrength":4
				}
			},
			"name":"Glow2",
			"pbrMetallicRoughness":{
				"baseColorFactor":[
					0.800000011920929,
					0.800000011920929,
					0.800000011920929,
					1
				],
				"metallicFactor":0,
				"roughnessFactor":0.5
			}
		}
	],
	"meshes":[
		{
			"name":"Plane.814",
			"primitives":[
				{
					"attributes":{
						"POSITION":0,
						"NORMAL":1,
						"TEXCOORD_0":2
					},
					"indices":3,
					"material":0
				}
			]
		},
		{
			"name":"Plane.815",
			"primitives":[
				{
					"attributes":{
						"POSITION":4,
						"NORMAL":5,
						"TEXCOORD_0":6
					},
					"indices":7,
					"material":0
				}
			]
		},
		{
			"name":"Torus.067",
			"primitives":[
				{
					"attributes":{
						"POSITION":8,
						"NORMAL":9,
						"TEXCOORD_0":10
					},
					"indices":11,
					"material":0
				},
				{
					"attributes":{
						"POSITION":12,
						"NORMAL":13,
						"TEXCOORD_0":14
					},
					"indices":15,
					"material":1
				},
				{
					"attributes":{
						"POSITION":16,
						"NORMAL":17,
						"TEXCOORD_0":18
					},
					"indices":19,
					"material":2
				}
			]
		}
	],
	"textures":[
		{
			"sampler":0,
			"source":0
		}
	],
	"images":[
		{
			"mimeType":"image/png",
			"name":"AvatarWearables_TX",
			"uri":"tex/AvatarWearables_TX.png"
		}
	],
	"accessors":[
		{
			"bufferView":0,
			"componentType":5126,
			"count":41,
			"max":[
				0.5080313682556152,
				-14.775006294250488,
				0.5080313682556152
			],
			"min":[
				-0.5080313682556152,
				-14.900496482849121,
				-0.5080313682556152
			],
			"type":"VEC3"
		},
		{
			"bufferView":1,
			"componentType":5126,
			"count":41,
			"type":"VEC3"
		},
		{
			"bufferView":2,
			"componentType":5126,
			"count":41,
			"type":"VEC2"
		},
		{
			"bufferView":3,
			"componentType":5123,
			"count":165,
			"type":"SCALAR"
		},
		{
			"bufferView":4,
			"componentType":5126,
			"count":73,
			"max":[
				1.0608186721801758,
				-3.1753413677215576,
				1.0608196258544922
			],
			"min":[
				-1.0608205795288086,
				-4.243279933929443,
				-1.0608196258544922
			],
			"type":"VEC3"
		},
		{
			"bufferView":5,
			"componentType":5126,
			"count":73,
			"type":"VEC3"
		},
		{
			"bufferView":6,
			"componentType":5126,
			"count":73,
			"type":"VEC2"
		},
		{
			"bufferView":7,
			"componentType":5123,
			"count":135,
			"type":"SCALAR"
		},
		{
			"bufferView":8,
			"componentType":5126,
			"count":1034,
			"max":[
				5.615820407867432,
				3.2596592903137207,
				15.501763343811035
			],
			"min":[
				1.979903221130371,
				-0.6824138164520264,
				7.085602760314941
			],
			"type":"VEC3"
		},
		{
			"bufferView":9,
			"componentType":5126,
			"count":1034,
			"type":"VEC3"
		},
		{
			"bufferView":10,
			"componentType":5126,
			"count":1034,
			"type":"VEC2"
		},
		{
			"bufferView":11,
			"componentType":5123,
			"count":4038,
			"type":"SCALAR"
		},
		{
			"bufferView":12,
			"componentType":5126,
			"count":49,
			"max":[
				5.1110358238220215,
				3.1602020263671875,
				15.461387634277344
			],
			"min":[
				1.9835882186889648,
				0.22007739543914795,
				8.11888313293457
			],
			"type":"VEC3"
		},
		{
			"bufferView":13,
			"componentType":5126,
			"count":49,
			"type":"VEC3"
		},
		{
			"bufferView":14,
			"componentType":5126,
			"count":49,
			"type":"VEC2"
		},
		{
			"bufferView":15,
			"componentType":5123,
			"count":129,
			"type":"SCALAR"
		},
		{
			"bufferView":16,
			"componentType":5126,
			"count":83,
			"max":[
				5.560132026672363,
				3.2384605407714844,
				15.501763343811035
			],
			"min":[
				2.7872228622436523,
				-0.6824138164520264,
				7.304638862609863
			],
			"type":"VEC3"
		},
		{
			"bufferView":17,
			"componentType":5126,
			"count":83,
			"type":"VEC3"
		},
		{
			"bufferView":18,
			"componentType":5126,
			"count":83,
			"type":"VEC2"
		},
		{
			"bufferView":19,
			"componentType":5123,
			"count":231,
			"type":"SCALAR"
		}
	],
	"bufferViews":[
		{
			"buffer":0,
			"byteLength":492,
			"byteOffset":0,
			"target":34962
		},
		{
			"buffer":0,
			"byteLength":492,
			"byteOffset":492,
			"target":34962
		},
		{
			"buffer":0,
			"byteLength":328,
			"byteOffset":984,
			"target":34962
		},
		{
			"buffer":0,
			"byteLength":330,
			"byteOffset":1312,
			"target":34963
		},
		{
			"buffer":0,
			"byteLength":876,
			"byteOffset":1644,
			"target":34962
		},
		{
			"buffer":0,
			"byteLength":876,
			"byteOffset":2520,
			"target":34962
		},
		{
			"buffer":0,
			"byteLength":584,
			"byteOffset":3396,
			"target":34962
		},
		{
			"buffer":0,
			"byteLength":270,
			"byteOffset":3980,
			"target":34963
		},
		{
			"buffer":0,
			"byteLength":12408,
			"byteOffset":4252,
			"target":34962
		},
		{
			"buffer":0,
			"byteLength":12408,
			"byteOffset":16660,
			"target":34962
		},
		{
			"buffer":0,
			"byteLength":8272,
			"byteOffset":29068,
			"target":34962
		},
		{
			"buffer":0,
			"byteLength":8076,
			"byteOffset":37340,
			"target":34963
		},
		{
			"buffer":0,
			"byteLength":588,
			"byteOffset":45416,
			"target":34962
		},
		{
			"buffer":0,
			"byteLength":588,
			"byteOffset":46004,
			"target":34962
		},
		{
			"buffer":0,
			"byteLength":392,
			"byteOffset":46592,
			"target":34962
		},
		{
			"buffer":0,
			"byteLength":258,
			"byteOffset":46984,
			"target":34963
		},
		{
			"buffer":0,
			"byteLength":996,
			"byteOffset":47244,
			"target":34962
		},
		{
			"buffer":0,
			"byteLength":996,
			"byteOffset":48240,
			"target":34962
		},
		{
			"buffer":0,
			"byteLength":664,
			"byteOffset":49236,
			"target":34962
		},
		{
			"buffer":0,
			"byteLength":462,
			"byteOffset":49900,
			"target":34963
		}
	],
	"samplers":[
		{
			"magFilter":9729,
			"minFilter":9987
		}
	],
	"buffers":[
		{
			"byteLength":50364,
			"uri":"tile_6_0_9.bin"
		}
	]
}
