{
	"asset":{
		"generator":"Khronos glTF Blender I/O v4.0.44",
		"version":"2.0"
	},
	"extensionsUsed":[
		"KHR_materials_specular",
		"KHR_materials_ior"
	],
	"scene":0,
	"scenes":[
		{
			"name":"Scene",
			"nodes":[
				0,
				1,
				2,
				3,
				4,
				5,
				6,
				7,
				8,
				9
			]
		}
	],
	"nodes":[
		{
			"mesh":0,
			"name":"Plane",
			"scale":[
				7.873531341552734,
				0.9841914176940918,
				7.873531341552734
			]
		},
		{
			"name":"track.214",
			"scale":[
				3.7706682682037354,
				3.7706682682037354,
				3.7706682682037354
			]
		},
		{
			"mesh":1,
			"name":"Cube.007"
		},
		{
			"mesh":2,
			"name":"Cube.077"
		},
		{
			"mesh":3,
			"name":"Cube.078"
		},
		{
			"mesh":4,
			"name":"Cube.079"
		},
		{
			"mesh":5,
			"name":"Cube.080"
		},
		{
			"mesh":6,
			"name":"Cube.081"
		},
		{
			"mesh":7,
			"name":"Cube.082"
		},
		{
			"mesh":8,
			"name":"Cube.083"
		}
	],
	"materials":[
		{
			"doubleSided":true,
			"extensions":{
				"KHR_materials_specular":{
					"specularColorFactor":[
						2.0,
						2.0,
						2.0
					]
				},
				"KHR_materials_ior":{
					"ior":1.4500000476837158
				}
			},
			"name":"building",
			"pbrMetallicRoughness":{
				"baseColorTexture":{
					"index":0
				},
				"metallicFactor":0
			}
		}
	],
	"meshes":[
		{
			"name":"Plane.1078",
			"primitives":[
				{
					"attributes":{
						"POSITION":0,
						"NORMAL":1,
						"TEXCOORD_0":2,
						"TANGENT":3
					},
					"indices":4,
					"material":0
				}
			]
		},
		{
			"name":"Cube.662",
			"primitives":[
				{
					"attributes":{
						"POSITION":5,
						"NORMAL":6,
						"TEXCOORD_0":7
					},
					"indices":8,
					"material":0
				}
			]
		},
		{
			"name":"Cube.663",
			"primitives":[
				{
					"attributes":{
						"POSITION":9,
						"NORMAL":10,
						"TEXCOORD_0":11,
						"TANGENT":12
					},
					"indices":13,
					"material":0
				},
				{
					"attributes":{
						"POSITION":14,
						"NORMAL":15,
						"TEXCOORD_0":16,
						"TANGENT":17
					},
					"indices":18,
					"material":0
				}
			]
		},
		{
			"name":"Cube.664",
			"primitives":[
				{
					"attributes":{
						"POSITION":19,
						"NORMAL":20,
						"TEXCOORD_0":21,
						"TANGENT":22
					},
					"indices":23,
					"material":0
				}
			]
		},
		{
			"name":"Cube.665",
			"primitives":[
				{
					"attributes":{
						"POSITION":24,
						"NORMAL":25,
						"TEXCOORD_0":26,
						"TANGENT":27
					},
					"indices":23,
					"material":0
				}
			]
		},
		{
			"name":"Cube.666",
			"primitives":[
				{
					"attributes":{
						"POSITION":28,
						"NORMAL":29,
						"TEXCOORD_0":30,
						"TANGENT":31
					},
					"indices":32,
					"material":0
				},
				{
					"attributes":{
						"POSITION":33,
						"NORMAL":34,
						"TEXCOORD_0":35,
						"TANGENT":36
					},
					"indices":37,
					"material":0
				}
			]
		},
		{
			"name":"Cube.667",
			"primitives":[
				{
					"attributes":{
						"POSITION":38,
						"NORMAL":39,
						"TEXCOORD_0":40,
						"TANGENT":41
					},
					"indices":23,
					"material":0
				}
			]
		},
		{
			"name":"Cube.668",
			"primitives":[
				{
					"attributes":{
						"POSITION":42,
						"NORMAL":43,
						"TEXCOORD_0":44,
						"TANGENT":45
					},
					"indices":23,
					"material":0
				}
			]
		},
		{
			"name":"Cube.669",
			"primitives":[
				{
					"attributes":{
						"POSITION":46,
						"NORMAL":47,
						"TEXCOORD_0":48,
						"TANGENT":49
					},
					"indices":23,
					"material":0
				}
			]
		}
	],
	"textures":[
		{
			"sampler":0,
			"source":0
		}
	],
	"images":[
		{
			"mimeType":"image/png",
			"name":"AvatarWearables_TX",
			"uri":"tex/AvatarWearables_TX.png"
		}
	],
	"accessors":[
		{
			"bufferView":0,
			"componentType":5126,
			"count":36,
			"max":[
				0.508033275604248,
				-14.900496482849121,
				0.5080313682556152
			],
			"min":[
				-0.5080294609069824,
				-14.900496482849121,
				-0.5080313682556152
			],
			"type":"VEC3"
		},
		{
			"bufferView":1,
			"componentType":5126,
			"count":36,
			"type":"VEC3"
		},
		{
			"bufferView":2,
			"componentType":5126,
			"count":36,
			"type":"VEC2"
		},
		{
			"bufferView":3,
			"componentType":5126,
			"count":36,
			"type":"VEC4"
		},
		{
			"bufferView":4,
			"componentType":5123,
			"count":150,
			"type":"SCALAR"
		},
		{
			"bufferView":5,
			"componentType":5126,
			"count":80,
			"max":[
				2.720898151397705,
				-11.940752983093262,
				-1.5214064121246338
			],
			"min":[
				-4,
				-14.759161949157715,
				-4
			],
			"type":"VEC3"
		},
		{
			"bufferView":6,
			"componentType":5126,
			"count":80,
			"type":"VEC3"
		},
		{
			"bufferView":7,
			"componentType":5126,
			"count":80,
			"type":"VEC2"
		},
		{
			"bufferView":8,
			"componentType":5123,
			"count":180,
			"type":"SCALAR"
		},
		{
			"bufferView":9,
			"componentType":5126,
			"count":16,
			"max":[
				2.6664228439331055,
				-14.049240112304688,
				-3.917593002319336
			],
			"min":[
				-4,
				-14.107187271118164,
				-4
			],
			"type":"VEC3"
		},
		{
			"bufferView":10,
			"componentType":5126,
			"count":16,
			"type":"VEC3"
		},
		{
			"bufferView":11,
			"componentType":5126,
			"count":16,
			"type":"VEC2"
		},
		{
			"bufferView":12,
			"componentType":5126,
			"count":16,
			"type":"VEC4"
		},
		{
			"bufferView":13,
			"componentType":5123,
			"count":24,
			"type":"SCALAR"
		},
		{
			"bufferView":14,
			"componentType":5126,
			"count":8,
			"max":[
				2.6664228439331055,
				-14.049240112304688,
				-3.917593002319336
			],
			"min":[
				-4,
				-14.107187271118164,
				-4
			],
			"type":"VEC3"
		},
		{
			"bufferView":15,
			"componentType":5126,
			"count":8,
			"type":"VEC3"
		},
		{
			"bufferView":16,
			"componentType":5126,
			"count":8,
			"type":"VEC2"
		},
		{
			"bufferView":17,
			"componentType":5126,
			"count":8,
			"type":"VEC4"
		},
		{
			"bufferView":18,
			"componentType":5123,
			"count":12,
			"type":"SCALAR"
		},
		{
			"bufferView":19,
			"componentType":5126,
			"count":24,
			"max":[
				2.6664228439331055,
				-13.759504318237305,
				-3.5458858013153076
			],
			"min":[
				-4,
				-13.817451477050781,
				-3.7317399978637695
			],
			"type":"VEC3"
		},
		{
			"bufferView":20,
			"componentType":5126,
			"count":24,
			"type":"VEC3"
		},
		{
			"bufferView":21,
			"componentType":5126,
			"count":24,
			"type":"VEC2"
		},
		{
			"bufferView":22,
			"componentType":5126,
			"count":24,
			"type":"VEC4"
		},
		{
			"bufferView":23,
			"componentType":5123,
			"count":36,
			"type":"SCALAR"
		},
		{
			"bufferView":24,
			"componentType":5126,
			"count":24,
			"max":[
				2.6664228439331055,
				-13.469769477844238,
				-3.1741786003112793
			],
			"min":[
				-4,
				-13.527716636657715,
				-3.360032796859741
			],
			"type":"VEC3"
		},
		{
			"bufferView":25,
			"componentType":5126,
			"count":24,
			"type":"VEC3"
		},
		{
			"bufferView":26,
			"componentType":5126,
			"count":24,
			"type":"VEC2"
		},
		{
			"bufferView":27,
			"componentType":5126,
			"count":24,
			"type":"VEC4"
		},
		{
			"bufferView":28,
			"componentType":5126,
			"count":20,
			"max":[
				2.6664228439331055,
				-13.180034637451172,
				-2.802471160888672
			],
			"min":[
				-4,
				-13.237981796264648,
				-2.988325357437134
			],
			"type":"VEC3"
		},
		{
			"bufferView":29,
			"componentType":5126,
			"count":20,
			"type":"VEC3"
		},
		{
			"bufferView":30,
			"componentType":5126,
			"count":20,
			"type":"VEC2"
		},
		{
			"bufferView":31,
			"componentType":5126,
			"count":20,
			"type":"VEC4"
		},
		{
			"bufferView":32,
			"componentType":5123,
			"count":30,
			"type":"SCALAR"
		},
		{
			"bufferView":33,
			"componentType":5126,
			"count":4,
			"max":[
				-4,
				-13.180034637451172,
				-2.802471160888672
			],
			"min":[
				-4,
				-13.237981796264648,
				-2.9883248805999756
			],
			"type":"VEC3"
		},
		{
			"bufferView":34,
			"componentType":5126,
			"count":4,
			"type":"VEC3"
		},
		{
			"bufferView":35,
			"componentType":5126,
			"count":4,
			"type":"VEC2"
		},
		{
			"bufferView":36,
			"componentType":5126,
			"count":4,
			"type":"VEC4"
		},
		{
			"bufferView":37,
			"componentType":5123,
			"count":6,
			"type":"SCALAR"
		},
		{
			"bufferView":38,
			"componentType":5126,
			"count":24,
			"max":[
				2.6664228439331055,
				-12.890298843383789,
				-2.4307639598846436
			],
			"min":[
				-4,
				-12.948246002197266,
				-2.6166181564331055
			],
			"type":"VEC3"
		},
		{
			"bufferView":39,
			"componentType":5126,
			"count":24,
			"type":"VEC3"
		},
		{
			"bufferView":40,
			"componentType":5126,
			"count":24,
			"type":"VEC2"
		},
		{
			"bufferView":41,
			"componentType":5126,
			"count":24,
			"type":"VEC4"
		},
		{
			"bufferView":42,
			"componentType":5126,
			"count":24,
			"max":[
				2.6664228439331055,
				-12.600564002990723,
				-2.0590567588806152
			],
			"min":[
				-4,
				-12.6585111618042,
				-2.244910717010498
			],
			"type":"VEC3"
		},
		{
			"bufferView":43,
			"componentType":5126,
			"count":24,
			"type":"VEC3"
		},
		{
			"bufferView":44,
			"componentType":5126,
			"count":24,
			"type":"VEC2"
		},
		{
			"bufferView":45,
			"componentType":5126,
			"count":24,
			"type":"VEC4"
		},
		{
			"bufferView":46,
			"componentType":5126,
			"count":24,
			"max":[
				2.6664228439331055,
				-12.31082820892334,
				-1.6873492002487183
			],
			"min":[
				-4,
				-12.368775367736816,
				-1.8732035160064697
			],
			"type":"VEC3"
		},
		{
			"bufferView":47,
			"componentType":5126,
			"count":24,
			"type":"VEC3"
		},
		{
			"bufferView":48,
			"componentType":5126,
			"count":24,
			"type":"VEC2"
		},
		{
			"bufferView":49,
			"componentType":5126,
			"count":24,
			"type":"VEC4"
		}
	],
	"bufferViews":[
		{
			"buffer":0,
			"byteLength":432,
			"byteOffset":0,
			"target":34962
		},
		{
			"buffer":0,
			"byteLength":432,
			"byteOffset":432,
			"target":34962
		},
		{
			"buffer":0,
			"byteLength":288,
			"byteOffset":864,
			"target":34962
		},
		{
			"buffer":0,
			"byteLength":576,
			"byteOffset":1152,
			"target":34962
		},
		{
			"buffer":0,
			"byteLength":300,
			"byteOffset":1728,
			"target":34963
		},
		{
			"buffer":0,
			"byteLength":960,
			"byteOffset":2028,
			"target":34962
		},
		{
			"buffer":0,
			"byteLength":960,
			"byteOffset":2988,
			"target":34962
		},
		{
			"buffer":0,
			"byteLength":640,
			"byteOffset":3948,
			"target":34962
		},
		{
			"buffer":0,
			"byteLength":360,
			"byteOffset":4588,
			"target":34963
		},
		{
			"buffer":0,
			"byteLength":192,
			"byteOffset":4948,
			"target":34962
		},
		{
			"buffer":0,
			"byteLength":192,
			"byteOffset":5140,
			"target":34962
		},
		{
			"buffer":0,
			"byteLength":128,
			"byteOffset":5332,
			"target":34962
		},
		{
			"buffer":0,
			"byteLength":256,
			"byteOffset":5460,
			"target":34962
		},
		{
			"buffer":0,
			"byteLength":48,
			"byteOffset":5716,
			"target":34963
		},
		{
			"buffer":0,
			"byteLength":96,
			"byteOffset":5764,
			"target":34962
		},
		{
			"buffer":0,
			"byteLength":96,
			"byteOffset":5860,
			"target":34962
		},
		{
			"buffer":0,
			"byteLength":64,
			"byteOffset":5956,
			"target":34962
		},
		{
			"buffer":0,
			"byteLength":128,
			"byteOffset":6020,
			"target":34962
		},
		{
			"buffer":0,
			"byteLength":24,
			"byteOffset":6148,
			"target":34963
		},
		{
			"buffer":0,
			"byteLength":288,
			"byteOffset":6172,
			"target":34962
		},
		{
			"buffer":0,
			"byteLength":288,
			"byteOffset":6460,
			"target":34962
		},
		{
			"buffer":0,
			"byteLength":192,
			"byteOffset":6748,
			"target":34962
		},
		{
			"buffer":0,
			"byteLength":384,
			"byteOffset":6940,
			"target":34962
		},
		{
			"buffer":0,
			"byteLength":72,
			"byteOffset":7324,
			"target":34963
		},
		{
			"buffer":0,
			"byteLength":288,
			"byteOffset":7396,
			"target":34962
		},
		{
			"buffer":0,
			"byteLength":288,
			"byteOffset":7684,
			"target":34962
		},
		{
			"buffer":0,
			"byteLength":192,
			"byteOffset":7972,
			"target":34962
		},
		{
			"buffer":0,
			"byteLength":384,
			"byteOffset":8164,
			"target":34962
		},
		{
			"buffer":0,
			"byteLength":240,
			"byteOffset":8548,
			"target":34962
		},
		{
			"buffer":0,
			"byteLength":240,
			"byteOffset":8788,
			"target":34962
		},
		{
			"buffer":0,
			"byteLength":160,
			"byteOffset":9028,
			"target":34962
		},
		{
			"buffer":0,
			"byteLength":320,
			"byteOffset":9188,
			"target":34962
		},
		{
			"buffer":0,
			"byteLength":60,
			"byteOffset":9508,
			"target":34963
		},
		{
			"buffer":0,
			"byteLength":48,
			"byteOffset":9568,
			"target":34962
		},
		{
			"buffer":0,
			"byteLength":48,
			"byteOffset":9616,
			"target":34962
		},
		{
			"buffer":0,
			"byteLength":32,
			"byteOffset":9664,
			"target":34962
		},
		{
			"buffer":0,
			"byteLength":64,
			"byteOffset":9696,
			"target":34962
		},
		{
			"buffer":0,
			"byteLength":12,
			"byteOffset":9760,
			"target":34963
		},
		{
			"buffer":0,
			"byteLength":288,
			"byteOffset":9772,
			"target":34962
		},
		{
			"buffer":0,
			"byteLength":288,
			"byteOffset":10060,
			"target":34962
		},
		{
			"buffer":0,
			"byteLength":192,
			"byteOffset":10348,
			"target":34962
		},
		{
			"buffer":0,
			"byteLength":384,
			"byteOffset":10540,
			"target":34962
		},
		{
			"buffer":0,
			"byteLength":288,
			"byteOffset":10924,
			"target":34962
		},
		{
			"buffer":0,
			"byteLength":288,
			"byteOffset":11212,
			"target":34962
		},
		{
			"buffer":0,
			"byteLength":192,
			"byteOffset":11500,
			"target":34962
		},
		{
			"buffer":0,
			"byteLength":384,
			"byteOffset":11692,
			"target":34962
		},
		{
			"buffer":0,
			"byteLength":288,
			"byteOffset":12076,
			"target":34962
		},
		{
			"buffer":0,
			"byteLength":288,
			"byteOffset":12364,
			"target":34962
		},
		{
			"buffer":0,
			"byteLength":192,
			"byteOffset":12652,
			"target":34962
		},
		{
			"buffer":0,
			"byteLength":384,
			"byteOffset":12844,
			"target":34962
		}
	],
	"samplers":[
		{
			"magFilter":9729,
			"minFilter":9987
		}
	],
	"buffers":[
		{
			"byteLength":13228,
			"uri":"tile_17_0_9.bin"
		}
	]
}
