{
	"asset":{
		"generator":"Khronos glTF Blender I/O v4.0.44",
		"version":"2.0"
	},
	"extensionsUsed":[
		"KHR_materials_specular",
		"KHR_materials_ior",
		"KHR_materials_emissive_strength"
	],
	"scene":0,
	"scenes":[
		{
			"name":"Scene",
			"nodes":[
				0,
				1,
				2,
				3,
				4
			]
		}
	],
	"nodes":[
		{
			"mesh":0,
			"name":"Plane",
			"scale":[
				7.873531341552734,
				0.9841914176940918,
				7.873531341552734
			]
		},
		{
			"name":"track.231",
			"scale":[
				3.7706682682037354,
				3.7706682682037354,
				3.7706682682037354
			]
		},
		{
			"mesh":1,
			"name":"Torus.024",
			"rotation":[
				0,
				-0.6667748093605042,
				0,
				0.7452592253684998
			],
			"scale":[
				4.712549209594727,
				18.45949363708496,
				4.712549209594727
			]
		},
		{
			"mesh":2,
			"name":"Cube.003",
			"rotation":[
				0,
				-0.9460921287536621,
				0,
				0.3238976299762726
			],
			"scale":[
				2.266324758529663,
				2.2663252353668213,
				2.266324758529663
			]
		},
		{
			"mesh":3,
			"name":"Cylinder.002",
			"scale":[
				1.741005539894104,
				11.939791679382324,
				1.741005539894104
			]
		}
	],
	"materials":[
		{
			"doubleSided":true,
			"extensions":{
				"KHR_materials_specular":{
					"specularColorFactor":[
						2.0,
						2.0,
						2.0
					]
				},
				"KHR_materials_ior":{
					"ior":1.4500000476837158
				}
			},
			"name":"building",
			"pbrMetallicRoughness":{
				"baseColorTexture":{
					"index":0
				},
				"metallicFactor":0
			}
		},
		{
			"doubleSided":true,
			"extensions":{
				"KHR_materials_specular":{
					"specularColorFactor":[
						2.0,
						2.0,
						2.0
					]
				},
				"KHR_materials_ior":{
					"ior":1.4500000476837158
				}
			},
			"name":"building2",
			"pbrMetallicRoughness":{
				"baseColorTexture":{
					"index":1
				},
				"metallicFactor":0,
				"roughnessFactor":0.17924527823925018
			}
		},
		{
			"doubleSided":true,
			"emissiveFactor":[
				0.0802171136311348,
				0.06480263589233753,
				1
			],
			"extensions":{
				"KHR_materials_emissive_strength":{
					"emissiveStrength":2.0000481605529785
				}
			},
			"name":"Glow5",
			"pbrMetallicRoughness":{
				"baseColorFactor":[
					0.08072357624769211,
					0.06527391821146011,
					1,
					1
				],
				"metallicFactor":0
			}
		},
		{
			"doubleSided":true,
			"emissiveFactor":[
				0.09784298909313212,
				1,
				0.08569416583338194
			],
			"extensions":{
				"KHR_materials_emissive_strength":{
					"emissiveStrength":1.5982129573822021
				}
			},
			"name":"Glow4",
			"pbrMetallicRoughness":{
				"baseColorFactor":[
					0.078976109623909,
					0.8012131452560425,
					0.06799241155385971,
					1
				],
				"metallicFactor":0
			}
		},
		{
			"doubleSided":true,
			"emissiveFactor":[
				1,
				0.10824445978162396,
				1
			],
			"extensions":{
				"KHR_materials_emissive_strength":{
					"emissiveStrength":1.5982129573822021
				}
			},
			"name":"Glow7",
			"pbrMetallicRoughness":{
				"baseColorFactor":[
					0.7954351902008057,
					0.08631403744220734,
					0.8003629446029663,
					1
				],
				"metallicFactor":0
			}
		},
		{
			"doubleSided":true,
			"emissiveFactor":[
				1,
				0.2655798013274177,
				0.04142626284219435
			],
			"extensions":{
				"KHR_materials_emissive_strength":{
					"emissiveStrength":1.5982129573822021
				}
			},
			"name":"Glow1",
			"pbrMetallicRoughness":{
				"baseColorFactor":[
					0.8008996248245239,
					0.21048900485038757,
					0.033567022532224655,
					1
				],
				"metallicFactor":0
			}
		}
	],
	"meshes":[
		{
			"name":"Plane.1112",
			"primitives":[
				{
					"attributes":{
						"POSITION":0,
						"NORMAL":1,
						"TEXCOORD_0":2,
						"TANGENT":3
					},
					"indices":4,
					"material":0
				}
			]
		},
		{
			"name":"Torus.080",
			"primitives":[
				{
					"attributes":{
						"POSITION":5,
						"NORMAL":6,
						"TEXCOORD_0":7
					},
					"indices":8,
					"material":1
				},
				{
					"attributes":{
						"POSITION":9,
						"NORMAL":10,
						"TEXCOORD_0":11
					},
					"indices":12,
					"material":2
				}
			]
		},
		{
			"name":"Cube.683",
			"primitives":[
				{
					"attributes":{
						"POSITION":13,
						"NORMAL":14,
						"TEXCOORD_0":15
					},
					"indices":16,
					"material":1
				},
				{
					"attributes":{
						"POSITION":17,
						"NORMAL":18,
						"TEXCOORD_0":19
					},
					"indices":20,
					"material":3
				}
			]
		},
		{
			"name":"Cylinder.454",
			"primitives":[
				{
					"attributes":{
						"POSITION":21,
						"NORMAL":22,
						"TEXCOORD_0":23
					},
					"indices":24,
					"material":1
				},
				{
					"attributes":{
						"POSITION":25,
						"NORMAL":26,
						"TEXCOORD_0":27
					},
					"indices":28,
					"material":4
				},
				{
					"attributes":{
						"POSITION":29,
						"NORMAL":30,
						"TEXCOORD_0":31
					},
					"indices":32,
					"material":5
				}
			]
		}
	],
	"textures":[
		{
			"sampler":0,
			"source":0
		},
		{
			"sampler":0,
			"source":0
		}
	],
	"images":[
		{
			"mimeType":"image/png",
			"name":"AvatarWearables_TX",
			"uri":"tex/AvatarWearables_TX.png"
		}
	],
	"accessors":[
		{
			"bufferView":0,
			"componentType":5126,
			"count":36,
			"max":[
				0.508030891418457,
				-14.900496482849121,
				0.5080311298370361
			],
			"min":[
				-0.5080313682556152,
				-14.900496482849121,
				-0.5080316066741943
			],
			"type":"VEC3"
		},
		{
			"bufferView":1,
			"componentType":5126,
			"count":36,
			"type":"VEC3"
		},
		{
			"bufferView":2,
			"componentType":5126,
			"count":36,
			"type":"VEC2"
		},
		{
			"bufferView":3,
			"componentType":5126,
			"count":36,
			"type":"VEC4"
		},
		{
			"bufferView":4,
			"componentType":5123,
			"count":150,
			"type":"SCALAR"
		},
		{
			"bufferView":5,
			"componentType":5126,
			"count":986,
			"max":[
				0.18619924783706665,
				-0.316320538520813,
				0.07166445255279541
			],
			"min":[
				-0.8369162678718567,
				-0.8135814666748047,
				-0.8494175672531128
			],
			"type":"VEC3"
		},
		{
			"bufferView":6,
			"componentType":5126,
			"count":986,
			"type":"VEC3"
		},
		{
			"bufferView":7,
			"componentType":5126,
			"count":986,
			"type":"VEC2"
		},
		{
			"bufferView":8,
			"componentType":5123,
			"count":1608,
			"type":"SCALAR"
		},
		{
			"bufferView":9,
			"componentType":5126,
			"count":138,
			"max":[
				0.11212179064750671,
				-0.338870108127594,
				0.026917695999145508
			],
			"min":[
				-0.8158541321754456,
				-0.7705910801887512,
				-0.8066508173942566
			],
			"type":"VEC3"
		},
		{
			"bufferView":10,
			"componentType":5126,
			"count":138,
			"type":"VEC3"
		},
		{
			"bufferView":11,
			"componentType":5126,
			"count":138,
			"type":"VEC2"
		},
		{
			"bufferView":12,
			"componentType":5123,
			"count":240,
			"type":"SCALAR"
		},
		{
			"bufferView":13,
			"componentType":5126,
			"count":133,
			"max":[
				0.45460158586502075,
				-3.20859694480896,
				2.476356029510498
			],
			"min":[
				0.07746930420398712,
				-6.45576286315918,
				2.293717861175537
			],
			"type":"VEC3"
		},
		{
			"bufferView":14,
			"componentType":5126,
			"count":133,
			"type":"VEC3"
		},
		{
			"bufferView":15,
			"componentType":5126,
			"count":133,
			"type":"VEC2"
		},
		{
			"bufferView":16,
			"componentType":5123,
			"count":273,
			"type":"SCALAR"
		},
		{
			"bufferView":17,
			"componentType":5126,
			"count":19,
			"max":[
				0.4092835783958435,
				-3.20859694480896,
				2.476356029510498
			],
			"min":[
				0.15280158817768097,
				-5.529881954193115,
				2.352146625518799
			],
			"type":"VEC3"
		},
		{
			"bufferView":18,
			"componentType":5126,
			"count":19,
			"type":"VEC3"
		},
		{
			"bufferView":19,
			"componentType":5126,
			"count":19,
			"type":"VEC2"
		},
		{
			"bufferView":20,
			"componentType":5123,
			"count":33,
			"type":"SCALAR"
		},
		{
			"bufferView":21,
			"componentType":5126,
			"count":571,
			"max":[
				2.297522783279419,
				0.7054154872894287,
				0.11660486459732056
			],
			"min":[
				2.0019078254699707,
				-1.2320843935012817,
				-1.3012475967407227
			],
			"type":"VEC3"
		},
		{
			"bufferView":22,
			"componentType":5126,
			"count":571,
			"type":"VEC3"
		},
		{
			"bufferView":23,
			"componentType":5126,
			"count":571,
			"type":"VEC2"
		},
		{
			"bufferView":24,
			"componentType":5123,
			"count":2037,
			"type":"SCALAR"
		},
		{
			"bufferView":25,
			"componentType":5126,
			"count":85,
			"max":[
				2.297522783279419,
				0.5149675607681274,
				-0.029993712902069092
			],
			"min":[
				2.089386463165283,
				-1.0414433479309082,
				-1.1464111804962158
			],
			"type":"VEC3"
		},
		{
			"bufferView":26,
			"componentType":5126,
			"count":85,
			"type":"VEC3"
		},
		{
			"bufferView":27,
			"componentType":5126,
			"count":85,
			"type":"VEC2"
		},
		{
			"bufferView":28,
			"componentType":5123,
			"count":213,
			"type":"SCALAR"
		},
		{
			"bufferView":29,
			"componentType":5126,
			"count":439,
			"max":[
				2.297522783279419,
				0.7054154872894287,
				0.11660486459732056
			],
			"min":[
				2.297522783279419,
				-1.2320843935012817,
				-1.3012475967407227
			],
			"type":"VEC3"
		},
		{
			"bufferView":30,
			"componentType":5126,
			"count":439,
			"type":"VEC3"
		},
		{
			"bufferView":31,
			"componentType":5126,
			"count":439,
			"type":"VEC2"
		},
		{
			"bufferView":32,
			"componentType":5123,
			"count":1203,
			"type":"SCALAR"
		}
	],
	"bufferViews":[
		{
			"buffer":0,
			"byteLength":432,
			"byteOffset":0,
			"target":34962
		},
		{
			"buffer":0,
			"byteLength":432,
			"byteOffset":432,
			"target":34962
		},
		{
			"buffer":0,
			"byteLength":288,
			"byteOffset":864,
			"target":34962
		},
		{
			"buffer":0,
			"byteLength":576,
			"byteOffset":1152,
			"target":34962
		},
		{
			"buffer":0,
			"byteLength":300,
			"byteOffset":1728,
			"target":34963
		},
		{
			"buffer":0,
			"byteLength":11832,
			"byteOffset":2028,
			"target":34962
		},
		{
			"buffer":0,
			"byteLength":11832,
			"byteOffset":13860,
			"target":34962
		},
		{
			"buffer":0,
			"byteLength":7888,
			"byteOffset":25692,
			"target":34962
		},
		{
			"buffer":0,
			"byteLength":3216,
			"byteOffset":33580,
			"target":34963
		},
		{
			"buffer":0,
			"byteLength":1656,
			"byteOffset":36796,
			"target":34962
		},
		{
			"buffer":0,
			"byteLength":1656,
			"byteOffset":38452,
			"target":34962
		},
		{
			"buffer":0,
			"byteLength":1104,
			"byteOffset":40108,
			"target":34962
		},
		{
			"buffer":0,
			"byteLength":480,
			"byteOffset":41212,
			"target":34963
		},
		{
			"buffer":0,
			"byteLength":1596,
			"byteOffset":41692,
			"target":34962
		},
		{
			"buffer":0,
			"byteLength":1596,
			"byteOffset":43288,
			"target":34962
		},
		{
			"buffer":0,
			"byteLength":1064,
			"byteOffset":44884,
			"target":34962
		},
		{
			"buffer":0,
			"byteLength":546,
			"byteOffset":45948,
			"target":34963
		},
		{
			"buffer":0,
			"byteLength":228,
			"byteOffset":46496,
			"target":34962
		},
		{
			"buffer":0,
			"byteLength":228,
			"byteOffset":46724,
			"target":34962
		},
		{
			"buffer":0,
			"byteLength":152,
			"byteOffset":46952,
			"target":34962
		},
		{
			"buffer":0,
			"byteLength":66,
			"byteOffset":47104,
			"target":34963
		},
		{
			"buffer":0,
			"byteLength":6852,
			"byteOffset":47172,
			"target":34962
		},
		{
			"buffer":0,
			"byteLength":6852,
			"byteOffset":54024,
			"target":34962
		},
		{
			"buffer":0,
			"byteLength":4568,
			"byteOffset":60876,
			"target":34962
		},
		{
			"buffer":0,
			"byteLength":4074,
			"byteOffset":65444,
			"target":34963
		},
		{
			"buffer":0,
			"byteLength":1020,
			"byteOffset":69520,
			"target":34962
		},
		{
			"buffer":0,
			"byteLength":1020,
			"byteOffset":70540,
			"target":34962
		},
		{
			"buffer":0,
			"byteLength":680,
			"byteOffset":71560,
			"target":34962
		},
		{
			"buffer":0,
			"byteLength":426,
			"byteOffset":72240,
			"target":34963
		},
		{
			"buffer":0,
			"byteLength":5268,
			"byteOffset":72668,
			"target":34962
		},
		{
			"buffer":0,
			"byteLength":5268,
			"byteOffset":77936,
			"target":34962
		},
		{
			"buffer":0,
			"byteLength":3512,
			"byteOffset":83204,
			"target":34962
		},
		{
			"buffer":0,
			"byteLength":2406,
			"byteOffset":86716,
			"target":34963
		}
	],
	"samplers":[
		{
			"magFilter":9729,
			"minFilter":9987
		}
	],
	"buffers":[
		{
			"byteLength":89124,
			"uri":"tile_19_0_2.bin"
		}
	]
}
