{
	"asset":{
		"generator":"Khronos glTF Blender I/O v4.0.44",
		"version":"2.0"
	},
	"extensionsUsed":[
		"KHR_materials_specular",
		"KHR_materials_ior",
		"KHR_materials_emissive_strength"
	],
	"scene":0,
	"scenes":[
		{
			"name":"Scene",
			"nodes":[
				0,
				1,
				2,
				3,
				4,
				5,
				6,
				7,
				8,
				9,
				10
			]
		}
	],
	"nodes":[
		{
			"mesh":0,
			"name":"Plane",
			"scale":[
				7.873531341552734,
				0.9841914176940918,
				7.873531341552734
			]
		},
		{
			"mesh":1,
			"name":"track.098",
			"scale":[
				3.7706682682037354,
				3.7706682682037354,
				3.7706682682037354
			]
		},
		{
			"mesh":2,
			"name":"Cube.014"
		},
		{
			"mesh":3,
			"name":"Cube.011",
			"rotation":[
				0,
				-0.06093847379088402,
				0,
				0.9981415271759033
			],
			"scale":[
				1.608573317527771,
				1.6085731983184814,
				1.608573317527771
			]
		},
		{
			"mesh":4,
			"name":"Cube.063"
		},
		{
			"mesh":5,
			"name":"Cube.064"
		},
		{
			"mesh":6,
			"name":"Cube.065"
		},
		{
			"mesh":7,
			"name":"Cube.066"
		},
		{
			"mesh":8,
			"name":"Cube.067"
		},
		{
			"mesh":9,
			"name":"Cube.068"
		},
		{
			"mesh":10,
			"name":"Cube.069"
		}
	],
	"materials":[
		{
			"doubleSided":true,
			"extensions":{
				"KHR_materials_specular":{
					"specularColorFactor":[
						2.0,
						2.0,
						2.0
					]
				},
				"KHR_materials_ior":{
					"ior":1.4500000476837158
				}
			},
			"name":"building",
			"pbrMetallicRoughness":{
				"baseColorTexture":{
					"index":0
				},
				"metallicFactor":0
			}
		},
		{
			"doubleSided":true,
			"extensions":{
				"KHR_materials_specular":{
					"specularColorFactor":[
						2.0,
						2.0,
						2.0
					]
				},
				"KHR_materials_ior":{
					"ior":1.4500000476837158
				}
			},
			"name":"building2",
			"pbrMetallicRoughness":{
				"baseColorTexture":{
					"index":1
				},
				"metallicFactor":0,
				"roughnessFactor":0.17924527823925018
			}
		},
		{
			"doubleSided":true,
			"emissiveFactor":[
				1,
				0.10824445978162396,
				1
			],
			"extensions":{
				"KHR_materials_emissive_strength":{
					"emissiveStrength":1.5982129573822021
				}
			},
			"name":"Glow7",
			"pbrMetallicRoughness":{
				"baseColorFactor":[
					0.7954351902008057,
					0.08631403744220734,
					0.8003629446029663,
					1
				],
				"metallicFactor":0
			}
		}
	],
	"meshes":[
		{
			"name":"Plane.846",
			"primitives":[
				{
					"attributes":{
						"POSITION":0,
						"NORMAL":1,
						"TEXCOORD_0":2
					},
					"indices":3,
					"material":0
				},
				{
					"attributes":{
						"POSITION":4,
						"NORMAL":5,
						"TEXCOORD_0":6
					},
					"indices":7,
					"material":0
				}
			]
		},
		{
			"name":"Plane.847",
			"primitives":[
				{
					"attributes":{
						"POSITION":8,
						"NORMAL":9,
						"TEXCOORD_0":10
					},
					"indices":11,
					"material":0
				}
			]
		},
		{
			"name":"Cube.601",
			"primitives":[
				{
					"attributes":{
						"POSITION":12,
						"NORMAL":13,
						"TEXCOORD_0":14
					},
					"indices":15,
					"material":0
				}
			]
		},
		{
			"name":"Cube.602",
			"primitives":[
				{
					"attributes":{
						"POSITION":16,
						"NORMAL":17,
						"TEXCOORD_0":18
					},
					"indices":19,
					"material":1
				},
				{
					"attributes":{
						"POSITION":20,
						"NORMAL":21,
						"TEXCOORD_0":22
					},
					"indices":23,
					"material":2
				}
			]
		},
		{
			"name":"Cube.603",
			"primitives":[
				{
					"attributes":{
						"POSITION":24,
						"NORMAL":25,
						"TEXCOORD_0":26,
						"TANGENT":27
					},
					"indices":28,
					"material":0
				}
			]
		},
		{
			"name":"Cube.604",
			"primitives":[
				{
					"attributes":{
						"POSITION":29,
						"NORMAL":30,
						"TEXCOORD_0":31,
						"TANGENT":32
					},
					"indices":28,
					"material":0
				}
			]
		},
		{
			"name":"Cube.605",
			"primitives":[
				{
					"attributes":{
						"POSITION":33,
						"NORMAL":34,
						"TEXCOORD_0":35,
						"TANGENT":36
					},
					"indices":28,
					"material":0
				}
			]
		},
		{
			"name":"Cube.606",
			"primitives":[
				{
					"attributes":{
						"POSITION":37,
						"NORMAL":38,
						"TEXCOORD_0":39,
						"TANGENT":40
					},
					"indices":28,
					"material":0
				}
			]
		},
		{
			"name":"Cube.607",
			"primitives":[
				{
					"attributes":{
						"POSITION":41,
						"NORMAL":42,
						"TEXCOORD_0":43,
						"TANGENT":44
					},
					"indices":28,
					"material":0
				}
			]
		},
		{
			"name":"Cube.608",
			"primitives":[
				{
					"attributes":{
						"POSITION":45,
						"NORMAL":46,
						"TEXCOORD_0":47,
						"TANGENT":48
					},
					"indices":49,
					"material":0
				},
				{
					"attributes":{
						"POSITION":50,
						"NORMAL":51,
						"TEXCOORD_0":52,
						"TANGENT":53
					},
					"indices":54,
					"material":0
				}
			]
		},
		{
			"name":"Cube.609",
			"primitives":[
				{
					"attributes":{
						"POSITION":55,
						"NORMAL":56,
						"TEXCOORD_0":57,
						"TANGENT":58
					},
					"indices":28,
					"material":0
				}
			]
		}
	],
	"textures":[
		{
			"sampler":0,
			"source":0
		},
		{
			"sampler":0,
			"source":0
		}
	],
	"images":[
		{
			"mimeType":"image/png",
			"name":"AvatarWearables_TX",
			"uri":"tex/AvatarWearables_TX.png"
		}
	],
	"accessors":[
		{
			"bufferView":0,
			"componentType":5126,
			"count":38,
			"max":[
				0.5080323219299316,
				-14.698541641235352,
				0.5080307722091675
			],
			"min":[
				-0.5080304145812988,
				-14.900496482849121,
				-0.508031964302063
			],
			"type":"VEC3"
		},
		{
			"bufferView":1,
			"componentType":5126,
			"count":38,
			"type":"VEC3"
		},
		{
			"bufferView":2,
			"componentType":5126,
			"count":38,
			"type":"VEC2"
		},
		{
			"bufferView":3,
			"componentType":5123,
			"count":156,
			"type":"SCALAR"
		},
		{
			"bufferView":4,
			"componentType":5126,
			"count":3,
			"max":[
				0.5080323219299316,
				-14.698541641235352,
				-0.508031964302063
			],
			"min":[
				0.3184652328491211,
				-14.884283065795898,
				-0.508031964302063
			],
			"type":"VEC3"
		},
		{
			"bufferView":5,
			"componentType":5126,
			"count":3,
			"type":"VEC3"
		},
		{
			"bufferView":6,
			"componentType":5126,
			"count":3,
			"type":"VEC2"
		},
		{
			"bufferView":7,
			"componentType":5123,
			"count":3,
			"type":"SCALAR"
		},
		{
			"bufferView":8,
			"componentType":5126,
			"count":60,
			"max":[
				1.0608196258544922,
				-3.5459675788879395,
				1.060819387435913
			],
			"min":[
				-1.0608196258544922,
				-4.243279933929443,
				0.16776347160339355
			],
			"type":"VEC3"
		},
		{
			"bufferView":9,
			"componentType":5126,
			"count":60,
			"type":"VEC3"
		},
		{
			"bufferView":10,
			"componentType":5126,
			"count":60,
			"type":"VEC2"
		},
		{
			"bufferView":11,
			"componentType":5123,
			"count":102,
			"type":"SCALAR"
		},
		{
			"bufferView":12,
			"componentType":5126,
			"count":82,
			"max":[
				4,
				-11.940752983093262,
				-0.5382508039474487
			],
			"min":[
				0.8862061500549316,
				-14.759161949157715,
				-3.457134246826172
			],
			"type":"VEC3"
		},
		{
			"bufferView":13,
			"componentType":5126,
			"count":82,
			"type":"VEC3"
		},
		{
			"bufferView":14,
			"componentType":5126,
			"count":82,
			"type":"VEC2"
		},
		{
			"bufferView":15,
			"componentType":5123,
			"count":180,
			"type":"SCALAR"
		},
		{
			"bufferView":16,
			"componentType":5126,
			"count":298,
			"max":[
				-1.2053468227386475,
				-4.370905876159668,
				0.38965463638305664
			],
			"min":[
				-2.770712375640869,
				-9.016534805297852,
				-2.3281211853027344
			],
			"type":"VEC3"
		},
		{
			"bufferView":17,
			"componentType":5126,
			"count":298,
			"type":"VEC3"
		},
		{
			"bufferView":18,
			"componentType":5126,
			"count":298,
			"type":"VEC2"
		},
		{
			"bufferView":19,
			"componentType":5123,
			"count":642,
			"type":"SCALAR"
		},
		{
			"bufferView":20,
			"componentType":5126,
			"count":64,
			"max":[
				-1.2053461074829102,
				-4.370905876159668,
				0.38965511322021484
			],
			"min":[
				-2.6443333625793457,
				-9.016534805297852,
				-2.2832884788513184
			],
			"type":"VEC3"
		},
		{
			"bufferView":21,
			"componentType":5126,
			"count":64,
			"type":"VEC3"
		},
		{
			"bufferView":22,
			"componentType":5126,
			"count":64,
			"type":"VEC2"
		},
		{
			"bufferView":23,
			"componentType":5123,
			"count":135,
			"type":"SCALAR"
		},
		{
			"bufferView":24,
			"componentType":5126,
			"count":24,
			"max":[
				4,
				-14.049240112304688,
				-0.7762755155563354
			],
			"min":[
				1.019092082977295,
				-14.107187271118164,
				-1.0596625804901123
			],
			"type":"VEC3"
		},
		{
			"bufferView":25,
			"componentType":5126,
			"count":24,
			"type":"VEC3"
		},
		{
			"bufferView":26,
			"componentType":5126,
			"count":24,
			"type":"VEC2"
		},
		{
			"bufferView":27,
			"componentType":5126,
			"count":24,
			"type":"VEC4"
		},
		{
			"bufferView":28,
			"componentType":5123,
			"count":36,
			"type":"SCALAR"
		},
		{
			"bufferView":29,
			"componentType":5126,
			"count":24,
			"max":[
				4,
				-13.759504318237305,
				-1.147783637046814
			],
			"min":[
				1.0069241523742676,
				-13.817451477050781,
				-1.4315690994262695
			],
			"type":"VEC3"
		},
		{
			"bufferView":30,
			"componentType":5126,
			"count":24,
			"type":"VEC3"
		},
		{
			"bufferView":31,
			"componentType":5126,
			"count":24,
			"type":"VEC2"
		},
		{
			"bufferView":32,
			"componentType":5126,
			"count":24,
			"type":"VEC4"
		},
		{
			"bufferView":33,
			"componentType":5126,
			"count":24,
			"max":[
				4,
				-13.469769477844238,
				-1.5192917585372925
			],
			"min":[
				0.9947562217712402,
				-13.527716636657715,
				-1.8034759759902954
			],
			"type":"VEC3"
		},
		{
			"bufferView":34,
			"componentType":5126,
			"count":24,
			"type":"VEC3"
		},
		{
			"bufferView":35,
			"componentType":5126,
			"count":24,
			"type":"VEC2"
		},
		{
			"bufferView":36,
			"componentType":5126,
			"count":24,
			"type":"VEC4"
		},
		{
			"bufferView":37,
			"componentType":5126,
			"count":24,
			"max":[
				4,
				-13.180034637451172,
				-1.8907999992370605
			],
			"min":[
				0.9825882911682129,
				-13.237981796264648,
				-2.175382375717163
			],
			"type":"VEC3"
		},
		{
			"bufferView":38,
			"componentType":5126,
			"count":24,
			"type":"VEC3"
		},
		{
			"bufferView":39,
			"componentType":5126,
			"count":24,
			"type":"VEC2"
		},
		{
			"bufferView":40,
			"componentType":5126,
			"count":24,
			"type":"VEC4"
		},
		{
			"bufferView":41,
			"componentType":5126,
			"count":24,
			"max":[
				4,
				-12.890298843383789,
				-2.262307643890381
			],
			"min":[
				0.9704203605651855,
				-12.948246002197266,
				-2.5472891330718994
			],
			"type":"VEC3"
		},
		{
			"bufferView":42,
			"componentType":5126,
			"count":24,
			"type":"VEC3"
		},
		{
			"bufferView":43,
			"componentType":5126,
			"count":24,
			"type":"VEC2"
		},
		{
			"bufferView":44,
			"componentType":5126,
			"count":24,
			"type":"VEC4"
		},
		{
			"bufferView":45,
			"componentType":5126,
			"count":20,
			"max":[
				4,
				-12.600564002990723,
				-2.6338157653808594
			],
			"min":[
				0.9582524299621582,
				-12.6585111618042,
				-2.9191956520080566
			],
			"type":"VEC3"
		},
		{
			"bufferView":46,
			"componentType":5126,
			"count":20,
			"type":"VEC3"
		},
		{
			"bufferView":47,
			"componentType":5126,
			"count":20,
			"type":"VEC2"
		},
		{
			"bufferView":48,
			"componentType":5126,
			"count":20,
			"type":"VEC4"
		},
		{
			"bufferView":49,
			"componentType":5123,
			"count":30,
			"type":"SCALAR"
		},
		{
			"bufferView":50,
			"componentType":5126,
			"count":4,
			"max":[
				4,
				-12.600564002990723,
				-2.7332425117492676
			],
			"min":[
				4,
				-12.6585111618042,
				-2.9191956520080566
			],
			"type":"VEC3"
		},
		{
			"bufferView":51,
			"componentType":5126,
			"count":4,
			"type":"VEC3"
		},
		{
			"bufferView":52,
			"componentType":5126,
			"count":4,
			"type":"VEC2"
		},
		{
			"bufferView":53,
			"componentType":5126,
			"count":4,
			"type":"VEC4"
		},
		{
			"bufferView":54,
			"componentType":5123,
			"count":6,
			"type":"SCALAR"
		},
		{
			"bufferView":55,
			"componentType":5126,
			"count":24,
			"max":[
				4,
				-12.31082820892334,
				-3.005323886871338
			],
			"min":[
				0.9460844993591309,
				-12.368775367736816,
				-3.291102409362793
			],
			"type":"VEC3"
		},
		{
			"bufferView":56,
			"componentType":5126,
			"count":24,
			"type":"VEC3"
		},
		{
			"bufferView":57,
			"componentType":5126,
			"count":24,
			"type":"VEC2"
		},
		{
			"bufferView":58,
			"componentType":5126,
			"count":24,
			"type":"VEC4"
		}
	],
	"bufferViews":[
		{
			"buffer":0,
			"byteLength":456,
			"byteOffset":0,
			"target":34962
		},
		{
			"buffer":0,
			"byteLength":456,
			"byteOffset":456,
			"target":34962
		},
		{
			"buffer":0,
			"byteLength":304,
			"byteOffset":912,
			"target":34962
		},
		{
			"buffer":0,
			"byteLength":312,
			"byteOffset":1216,
			"target":34963
		},
		{
			"buffer":0,
			"byteLength":36,
			"byteOffset":1528,
			"target":34962
		},
		{
			"buffer":0,
			"byteLength":36,
			"byteOffset":1564,
			"target":34962
		},
		{
			"buffer":0,
			"byteLength":24,
			"byteOffset":1600,
			"target":34962
		},
		{
			"buffer":0,
			"byteLength":6,
			"byteOffset":1624,
			"target":34963
		},
		{
			"buffer":0,
			"byteLength":720,
			"byteOffset":1632,
			"target":34962
		},
		{
			"buffer":0,
			"byteLength":720,
			"byteOffset":2352,
			"target":34962
		},
		{
			"buffer":0,
			"byteLength":480,
			"byteOffset":3072,
			"target":34962
		},
		{
			"buffer":0,
			"byteLength":204,
			"byteOffset":3552,
			"target":34963
		},
		{
			"buffer":0,
			"byteLength":984,
			"byteOffset":3756,
			"target":34962
		},
		{
			"buffer":0,
			"byteLength":984,
			"byteOffset":4740,
			"target":34962
		},
		{
			"buffer":0,
			"byteLength":656,
			"byteOffset":5724,
			"target":34962
		},
		{
			"buffer":0,
			"byteLength":360,
			"byteOffset":6380,
			"target":34963
		},
		{
			"buffer":0,
			"byteLength":3576,
			"byteOffset":6740,
			"target":34962
		},
		{
			"buffer":0,
			"byteLength":3576,
			"byteOffset":10316,
			"target":34962
		},
		{
			"buffer":0,
			"byteLength":2384,
			"byteOffset":13892,
			"target":34962
		},
		{
			"buffer":0,
			"byteLength":1284,
			"byteOffset":16276,
			"target":34963
		},
		{
			"buffer":0,
			"byteLength":768,
			"byteOffset":17560,
			"target":34962
		},
		{
			"buffer":0,
			"byteLength":768,
			"byteOffset":18328,
			"target":34962
		},
		{
			"buffer":0,
			"byteLength":512,
			"byteOffset":19096,
			"target":34962
		},
		{
			"buffer":0,
			"byteLength":270,
			"byteOffset":19608,
			"target":34963
		},
		{
			"buffer":0,
			"byteLength":288,
			"byteOffset":19880,
			"target":34962
		},
		{
			"buffer":0,
			"byteLength":288,
			"byteOffset":20168,
			"target":34962
		},
		{
			"buffer":0,
			"byteLength":192,
			"byteOffset":20456,
			"target":34962
		},
		{
			"buffer":0,
			"byteLength":384,
			"byteOffset":20648,
			"target":34962
		},
		{
			"buffer":0,
			"byteLength":72,
			"byteOffset":21032,
			"target":34963
		},
		{
			"buffer":0,
			"byteLength":288,
			"byteOffset":21104,
			"target":34962
		},
		{
			"buffer":0,
			"byteLength":288,
			"byteOffset":21392,
			"target":34962
		},
		{
			"buffer":0,
			"byteLength":192,
			"byteOffset":21680,
			"target":34962
		},
		{
			"buffer":0,
			"byteLength":384,
			"byteOffset":21872,
			"target":34962
		},
		{
			"buffer":0,
			"byteLength":288,
			"byteOffset":22256,
			"target":34962
		},
		{
			"buffer":0,
			"byteLength":288,
			"byteOffset":22544,
			"target":34962
		},
		{
			"buffer":0,
			"byteLength":192,
			"byteOffset":22832,
			"target":34962
		},
		{
			"buffer":0,
			"byteLength":384,
			"byteOffset":23024,
			"target":34962
		},
		{
			"buffer":0,
			"byteLength":288,
			"byteOffset":23408,
			"target":34962
		},
		{
			"buffer":0,
			"byteLength":288,
			"byteOffset":23696,
			"target":34962
		},
		{
			"buffer":0,
			"byteLength":192,
			"byteOffset":23984,
			"target":34962
		},
		{
			"buffer":0,
			"byteLength":384,
			"byteOffset":24176,
			"target":34962
		},
		{
			"buffer":0,
			"byteLength":288,
			"byteOffset":24560,
			"target":34962
		},
		{
			"buffer":0,
			"byteLength":288,
			"byteOffset":24848,
			"target":34962
		},
		{
			"buffer":0,
			"byteLength":192,
			"byteOffset":25136,
			"target":34962
		},
		{
			"buffer":0,
			"byteLength":384,
			"byteOffset":25328,
			"target":34962
		},
		{
			"buffer":0,
			"byteLength":240,
			"byteOffset":25712,
			"target":34962
		},
		{
			"buffer":0,
			"byteLength":240,
			"byteOffset":25952,
			"target":34962
		},
		{
			"buffer":0,
			"byteLength":160,
			"byteOffset":26192,
			"target":34962
		},
		{
			"buffer":0,
			"byteLength":320,
			"byteOffset":26352,
			"target":34962
		},
		{
			"buffer":0,
			"byteLength":60,
			"byteOffset":26672,
			"target":34963
		},
		{
			"buffer":0,
			"byteLength":48,
			"byteOffset":26732,
			"target":34962
		},
		{
			"buffer":0,
			"byteLength":48,
			"byteOffset":26780,
			"target":34962
		},
		{
			"buffer":0,
			"byteLength":32,
			"byteOffset":26828,
			"target":34962
		},
		{
			"buffer":0,
			"byteLength":64,
			"byteOffset":26860,
			"target":34962
		},
		{
			"buffer":0,
			"byteLength":12,
			"byteOffset":26924,
			"target":34963
		},
		{
			"buffer":0,
			"byteLength":288,
			"byteOffset":26936,
			"target":34962
		},
		{
			"buffer":0,
			"byteLength":288,
			"byteOffset":27224,
			"target":34962
		},
		{
			"buffer":0,
			"byteLength":192,
			"byteOffset":27512,
			"target":34962
		},
		{
			"buffer":0,
			"byteLength":384,
			"byteOffset":27704,
			"target":34962
		}
	],
	"samplers":[
		{
			"magFilter":9729,
			"minFilter":9987
		}
	],
	"buffers":[
		{
			"byteLength":28088,
			"uri":"tile_8_0_1.bin"
		}
	]
}
