{
	"asset":{
		"generator":"Khronos glTF Blender I/O v4.0.44",
		"version":"2.0"
	},
	"extensionsUsed":[
		"KHR_materials_specular",
		"KHR_materials_ior",
		"KHR_materials_emissive_strength"
	],
	"scene":0,
	"scenes":[
		{
			"name":"Scene",
			"nodes":[
				0,
				1
			]
		}
	],
	"nodes":[
		{
			"name":"Plane",
			"scale":[
				7.873531341552734,
				0.9841914176940918,
				7.873531341552734
			]
		},
		{
			"mesh":0,
			"name":"Icosphere",
			"scale":[
				1.2608476877212524,
				1.2608476877212524,
				1.2608476877212524
			]
		}
	],
	"materials":[
		{
			"doubleSided":true,
			"extensions":{
				"KHR_materials_specular":{
					"specularColorFactor":[
						2.0,
						2.0,
						2.0
					]
				},
				"KHR_materials_ior":{
					"ior":1.4500000476837158
				}
			},
			"name":"building2",
			"pbrMetallicRoughness":{
				"baseColorTexture":{
					"index":0
				},
				"metallicFactor":0,
				"roughnessFactor":0.17924527823925018
			}
		},
		{
			"doubleSided":true,
			"emissiveFactor":[
				1,
				1,
				1
			],
			"extensions":{
				"KHR_materials_emissive_strength":{
					"emissiveStrength":4
				}
			},
			"name":"Glow2",
			"pbrMetallicRoughness":{
				"baseColorFactor":[
					0.800000011920929,
					0.800000011920929,
					0.800000011920929,
					1
				],
				"metallicFactor":0,
				"roughnessFactor":0.5
			}
		}
	],
	"meshes":[
		{
			"name":"Icosphere.023",
			"primitives":[
				{
					"attributes":{
						"POSITION":0,
						"NORMAL":1,
						"TEXCOORD_0":2
					},
					"indices":3,
					"material":0
				},
				{
					"attributes":{
						"POSITION":4,
						"NORMAL":5,
						"TEXCOORD_0":6
					},
					"indices":7,
					"material":1
				}
			]
		}
	],
	"textures":[
		{
			"sampler":0,
			"source":0
		}
	],
	"images":[
		{
			"mimeType":"image/png",
			"name":"AvatarWearables_TX",
			"uri":"tex/AvatarWearables_TX.png"
		}
	],
	"accessors":[
		{
			"bufferView":0,
			"componentType":5126,
			"count":263,
			"max":[
				3.2312893867492676,
				-3.366109848022461,
				-0.8662700653076172
			],
			"min":[
				-6.344937324523926,
				-6.344937324523926,
				-6.344937324523926
			],
			"type":"VEC3"
		},
		{
			"bufferView":1,
			"componentType":5126,
			"count":263,
			"type":"VEC3"
		},
		{
			"bufferView":2,
			"componentType":5126,
			"count":263,
			"type":"VEC2"
		},
		{
			"bufferView":3,
			"componentType":5123,
			"count":885,
			"type":"SCALAR"
		},
		{
			"bufferView":4,
			"componentType":5126,
			"count":39,
			"max":[
				1.725327968597412,
				-4.133845329284668,
				-1.6429765224456787
			],
			"min":[
				-6.344937324523926,
				-6.190447807312012,
				-6.344937324523926
			],
			"type":"VEC3"
		},
		{
			"bufferView":5,
			"componentType":5126,
			"count":39,
			"type":"VEC3"
		},
		{
			"bufferView":6,
			"componentType":5126,
			"count":39,
			"type":"VEC2"
		},
		{
			"bufferView":7,
			"componentType":5123,
			"count":45,
			"type":"SCALAR"
		}
	],
	"bufferViews":[
		{
			"buffer":0,
			"byteLength":3156,
			"byteOffset":0,
			"target":34962
		},
		{
			"buffer":0,
			"byteLength":3156,
			"byteOffset":3156,
			"target":34962
		},
		{
			"buffer":0,
			"byteLength":2104,
			"byteOffset":6312,
			"target":34962
		},
		{
			"buffer":0,
			"byteLength":1770,
			"byteOffset":8416,
			"target":34963
		},
		{
			"buffer":0,
			"byteLength":468,
			"byteOffset":10188,
			"target":34962
		},
		{
			"buffer":0,
			"byteLength":468,
			"byteOffset":10656,
			"target":34962
		},
		{
			"buffer":0,
			"byteLength":312,
			"byteOffset":11124,
			"target":34962
		},
		{
			"buffer":0,
			"byteLength":90,
			"byteOffset":11436,
			"target":34963
		}
	],
	"samplers":[
		{
			"magFilter":9729,
			"minFilter":9987
		}
	],
	"buffers":[
		{
			"byteLength":11528,
			"uri":"tile_8_1_3.bin"
		}
	]
}
