{
	"asset":{
		"generator":"Khronos glTF Blender I/O v4.0.44",
		"version":"2.0"
	},
	"extensionsUsed":[
		"KHR_materials_specular",
		"KHR_materials_ior"
	],
	"scene":0,
	"scenes":[
		{
			"name":"Scene",
			"nodes":[
				0,
				1,
				2,
				3,
				4,
				5
			]
		}
	],
	"nodes":[
		{
			"mesh":0,
			"name":"Plane",
			"scale":[
				7.873531341552734,
				0.9841914176940918,
				7.873531341552734
			]
		},
		{
			"name":"track.075",
			"scale":[
				3.7706682682037354,
				3.7706682682037354,
				3.7706682682037354
			]
		},
		{
			"mesh":1,
			"name":"Cylinder.007"
		},
		{
			"mesh":2,
			"name":"Cube.013",
			"rotation":[
				0,
				-0.7997965812683105,
				0,
				0.6002712249755859
			],
			"scale":[
				1.7614697217941284,
				1.7614694833755493,
				1.7614697217941284
			]
		},
		{
			"mesh":3,
			"name":"Cylinder.079"
		},
		{
			"mesh":4,
			"name":"Cylinder.080"
		}
	],
	"materials":[
		{
			"doubleSided":true,
			"extensions":{
				"KHR_materials_specular":{
					"specularColorFactor":[
						2.0,
						2.0,
						2.0
					]
				},
				"KHR_materials_ior":{
					"ior":1.4500000476837158
				}
			},
			"name":"building",
			"pbrMetallicRoughness":{
				"baseColorTexture":{
					"index":0
				},
				"metallicFactor":0
			}
		},
		{
			"doubleSided":true,
			"extensions":{
				"KHR_materials_specular":{
					"specularColorFactor":[
						2.0,
						2.0,
						2.0
					]
				},
				"KHR_materials_ior":{
					"ior":1.4500000476837158
				}
			},
			"name":"building2",
			"pbrMetallicRoughness":{
				"baseColorTexture":{
					"index":1
				},
				"metallicFactor":0,
				"roughnessFactor":0.17924527823925018
			}
		},
		{
			"doubleSided":true,
			"emissiveFactor":[
				1,
				1,
				0
			],
			"name":"Glow6",
			"pbrMetallicRoughness":{
				"baseColorFactor":[
					0.8000000715255737,
					0.6898009181022644,
					0,
					1
				],
				"metallicFactor":0
			}
		}
	],
	"meshes":[
		{
			"name":"Plane.800",
			"primitives":[
				{
					"attributes":{
						"POSITION":0,
						"NORMAL":1,
						"TEXCOORD_0":2,
						"TANGENT":3
					},
					"indices":4,
					"material":0
				}
			]
		},
		{
			"name":"Cylinder.378",
			"primitives":[
				{
					"attributes":{
						"POSITION":5,
						"NORMAL":6,
						"TEXCOORD_0":7
					},
					"indices":8,
					"material":0
				}
			]
		},
		{
			"name":"Cube.567",
			"primitives":[
				{
					"attributes":{
						"POSITION":9,
						"NORMAL":10,
						"TEXCOORD_0":11
					},
					"indices":12,
					"material":1
				},
				{
					"attributes":{
						"POSITION":13,
						"NORMAL":14,
						"TEXCOORD_0":15
					},
					"indices":16,
					"material":2
				}
			]
		},
		{
			"name":"Cylinder.379",
			"primitives":[
				{
					"attributes":{
						"POSITION":17,
						"NORMAL":18,
						"TEXCOORD_0":19
					},
					"indices":20,
					"material":0
				},
				{
					"attributes":{
						"POSITION":21,
						"NORMAL":22,
						"TEXCOORD_0":23
					},
					"indices":24,
					"material":0
				}
			]
		},
		{
			"name":"Cylinder.380",
			"primitives":[
				{
					"attributes":{
						"POSITION":25,
						"NORMAL":26,
						"TEXCOORD_0":27,
						"TANGENT":28
					},
					"indices":29,
					"material":0
				}
			]
		}
	],
	"textures":[
		{
			"sampler":0,
			"source":0
		},
		{
			"sampler":0,
			"source":0
		}
	],
	"images":[
		{
			"mimeType":"image/png",
			"name":"AvatarWearables_TX",
			"uri":"tex/AvatarWearables_TX.png"
		}
	],
	"accessors":[
		{
			"bufferView":0,
			"componentType":5126,
			"count":36,
			"max":[
				0.5080313682556152,
				-14.900496482849121,
				0.5080311298370361
			],
			"min":[
				-0.5080313682556152,
				-14.900496482849121,
				-0.5080316066741943
			],
			"type":"VEC3"
		},
		{
			"bufferView":1,
			"componentType":5126,
			"count":36,
			"type":"VEC3"
		},
		{
			"bufferView":2,
			"componentType":5126,
			"count":36,
			"type":"VEC2"
		},
		{
			"bufferView":3,
			"componentType":5126,
			"count":36,
			"type":"VEC4"
		},
		{
			"bufferView":4,
			"componentType":5123,
			"count":150,
			"type":"SCALAR"
		},
		{
			"bufferView":5,
			"componentType":5126,
			"count":124,
			"max":[
				1.8176203966140747,
				-6.62725830078125,
				4
			],
			"min":[
				-0.4913210868835449,
				-14.561131477355957,
				3.2296173572540283
			],
			"type":"VEC3"
		},
		{
			"bufferView":6,
			"componentType":5126,
			"count":124,
			"type":"VEC3"
		},
		{
			"bufferView":7,
			"componentType":5126,
			"count":124,
			"type":"VEC2"
		},
		{
			"bufferView":8,
			"componentType":5123,
			"count":432,
			"type":"SCALAR"
		},
		{
			"bufferView":9,
			"componentType":5126,
			"count":2065,
			"max":[
				2.544327974319458,
				1.1148662567138672,
				2.4952564239501953
			],
			"min":[
				-0.44777750968933105,
				-8.31036376953125,
				0.9555239677429199
			],
			"type":"VEC3"
		},
		{
			"bufferView":10,
			"componentType":5126,
			"count":2065,
			"type":"VEC3"
		},
		{
			"bufferView":11,
			"componentType":5126,
			"count":2065,
			"type":"VEC2"
		},
		{
			"bufferView":12,
			"componentType":5123,
			"count":4485,
			"type":"SCALAR"
		},
		{
			"bufferView":13,
			"componentType":5126,
			"count":356,
			"max":[
				2.4247663021087646,
				1.1148662567138672,
				2.45816707611084
			],
			"min":[
				-0.3282206058502197,
				-7.4632887840271,
				1.0078836679458618
			],
			"type":"VEC3"
		},
		{
			"bufferView":14,
			"componentType":5126,
			"count":356,
			"type":"VEC3"
		},
		{
			"bufferView":15,
			"componentType":5126,
			"count":356,
			"type":"VEC2"
		},
		{
			"bufferView":16,
			"componentType":5123,
			"count":663,
			"type":"SCALAR"
		},
		{
			"bufferView":17,
			"componentType":5126,
			"count":47,
			"max":[
				3.128990888595581,
				-2.947977066040039,
				4
			],
			"min":[
				-0.908972978591919,
				-7.498021125793457,
				2.0327258110046387
			],
			"type":"VEC3"
		},
		{
			"bufferView":18,
			"componentType":5126,
			"count":47,
			"type":"VEC3"
		},
		{
			"bufferView":19,
			"componentType":5126,
			"count":47,
			"type":"VEC2"
		},
		{
			"bufferView":20,
			"componentType":5123,
			"count":57,
			"type":"SCALAR"
		},
		{
			"bufferView":21,
			"componentType":5126,
			"count":11,
			"max":[
				3.097790479660034,
				-2.947977066040039,
				4
			],
			"min":[
				-0.908972978591919,
				-7.498021125793457,
				4
			],
			"type":"VEC3"
		},
		{
			"bufferView":22,
			"componentType":5126,
			"count":11,
			"type":"VEC3"
		},
		{
			"bufferView":23,
			"componentType":5126,
			"count":11,
			"type":"VEC2"
		},
		{
			"bufferView":24,
			"componentType":5123,
			"count":27,
			"type":"SCALAR"
		},
		{
			"bufferView":25,
			"componentType":5126,
			"count":60,
			"max":[
				0.4214446544647217,
				-9.555593490600586,
				3.8019814491271973
			],
			"min":[
				-1.1346492767333984,
				-11.299304008483887,
				2.289747714996338
			],
			"type":"VEC3"
		},
		{
			"bufferView":26,
			"componentType":5126,
			"count":60,
			"type":"VEC3"
		},
		{
			"bufferView":27,
			"componentType":5126,
			"count":60,
			"type":"VEC2"
		},
		{
			"bufferView":28,
			"componentType":5126,
			"count":60,
			"type":"VEC4"
		},
		{
			"bufferView":29,
			"componentType":5123,
			"count":60,
			"type":"SCALAR"
		}
	],
	"bufferViews":[
		{
			"buffer":0,
			"byteLength":432,
			"byteOffset":0,
			"target":34962
		},
		{
			"buffer":0,
			"byteLength":432,
			"byteOffset":432,
			"target":34962
		},
		{
			"buffer":0,
			"byteLength":288,
			"byteOffset":864,
			"target":34962
		},
		{
			"buffer":0,
			"byteLength":576,
			"byteOffset":1152,
			"target":34962
		},
		{
			"buffer":0,
			"byteLength":300,
			"byteOffset":1728,
			"target":34963
		},
		{
			"buffer":0,
			"byteLength":1488,
			"byteOffset":2028,
			"target":34962
		},
		{
			"buffer":0,
			"byteLength":1488,
			"byteOffset":3516,
			"target":34962
		},
		{
			"buffer":0,
			"byteLength":992,
			"byteOffset":5004,
			"target":34962
		},
		{
			"buffer":0,
			"byteLength":864,
			"byteOffset":5996,
			"target":34963
		},
		{
			"buffer":0,
			"byteLength":24780,
			"byteOffset":6860,
			"target":34962
		},
		{
			"buffer":0,
			"byteLength":24780,
			"byteOffset":31640,
			"target":34962
		},
		{
			"buffer":0,
			"byteLength":16520,
			"byteOffset":56420,
			"target":34962
		},
		{
			"buffer":0,
			"byteLength":8970,
			"byteOffset":72940,
			"target":34963
		},
		{
			"buffer":0,
			"byteLength":4272,
			"byteOffset":81912,
			"target":34962
		},
		{
			"buffer":0,
			"byteLength":4272,
			"byteOffset":86184,
			"target":34962
		},
		{
			"buffer":0,
			"byteLength":2848,
			"byteOffset":90456,
			"target":34962
		},
		{
			"buffer":0,
			"byteLength":1326,
			"byteOffset":93304,
			"target":34963
		},
		{
			"buffer":0,
			"byteLength":564,
			"byteOffset":94632,
			"target":34962
		},
		{
			"buffer":0,
			"byteLength":564,
			"byteOffset":95196,
			"target":34962
		},
		{
			"buffer":0,
			"byteLength":376,
			"byteOffset":95760,
			"target":34962
		},
		{
			"buffer":0,
			"byteLength":114,
			"byteOffset":96136,
			"target":34963
		},
		{
			"buffer":0,
			"byteLength":132,
			"byteOffset":96252,
			"target":34962
		},
		{
			"buffer":0,
			"byteLength":132,
			"byteOffset":96384,
			"target":34962
		},
		{
			"buffer":0,
			"byteLength":88,
			"byteOffset":96516,
			"target":34962
		},
		{
			"buffer":0,
			"byteLength":54,
			"byteOffset":96604,
			"target":34963
		},
		{
			"buffer":0,
			"byteLength":720,
			"byteOffset":96660,
			"target":34962
		},
		{
			"buffer":0,
			"byteLength":720,
			"byteOffset":97380,
			"target":34962
		},
		{
			"buffer":0,
			"byteLength":480,
			"byteOffset":98100,
			"target":34962
		},
		{
			"buffer":0,
			"byteLength":960,
			"byteOffset":98580,
			"target":34962
		},
		{
			"buffer":0,
			"byteLength":120,
			"byteOffset":99540,
			"target":34963
		}
	],
	"samplers":[
		{
			"magFilter":9729,
			"minFilter":9987
		}
	],
	"buffers":[
		{
			"byteLength":99660,
			"uri":"tile_6_0_2.bin"
		}
	]
}
