{
	"asset":{
		"generator":"Khronos glTF Blender I/O v4.0.44",
		"version":"2.0"
	},
	"extensionsUsed":[
		"KHR_materials_specular",
		"KHR_materials_ior",
		"KHR_materials_emissive_strength"
	],
	"scene":0,
	"scenes":[
		{
			"name":"Scene",
			"nodes":[
				0,
				1,
				2
			]
		}
	],
	"nodes":[
		{
			"mesh":0,
			"name":"Plane",
			"scale":[
				7.873531341552734,
				0.9841914176940918,
				7.873531341552734
			]
		},
		{
			"mesh":1,
			"name":"track.114",
			"scale":[
				3.7706682682037354,
				3.7706682682037354,
				3.7706682682037354
			]
		},
		{
			"mesh":2,
			"name":"Icosphere.001",
			"rotation":[
				0,
				-0.8161246180534363,
				0,
				0.5778759717941284
			],
			"scale":[
				8.599296569824219,
				5.349599838256836,
				8.599296569824219
			]
		}
	],
	"materials":[
		{
			"doubleSided":true,
			"extensions":{
				"KHR_materials_specular":{
					"specularColorFactor":[
						2.0,
						2.0,
						2.0
					]
				},
				"KHR_materials_ior":{
					"ior":1.4500000476837158
				}
			},
			"name":"building",
			"pbrMetallicRoughness":{
				"baseColorTexture":{
					"index":0
				},
				"metallicFactor":0
			}
		},
		{
			"doubleSided":true,
			"extensions":{
				"KHR_materials_specular":{
					"specularColorFactor":[
						2.0,
						2.0,
						2.0
					]
				},
				"KHR_materials_ior":{
					"ior":1.4500000476837158
				}
			},
			"name":"building2",
			"pbrMetallicRoughness":{
				"baseColorTexture":{
					"index":1
				},
				"metallicFactor":0,
				"roughnessFactor":0.17924527823925018
			}
		},
		{
			"doubleSided":true,
			"emissiveFactor":[
				1,
				1,
				1
			],
			"extensions":{
				"KHR_materials_emissive_strength":{
					"emissiveStrength":4
				}
			},
			"name":"Glow2",
			"pbrMetallicRoughness":{
				"baseColorFactor":[
					0.800000011920929,
					0.800000011920929,
					0.800000011920929,
					1
				],
				"metallicFactor":0,
				"roughnessFactor":0.5
			}
		}
	],
	"meshes":[
		{
			"name":"Plane.878",
			"primitives":[
				{
					"attributes":{
						"POSITION":0,
						"NORMAL":1,
						"TEXCOORD_0":2
					},
					"indices":3,
					"material":0
				}
			]
		},
		{
			"name":"Plane.879",
			"primitives":[
				{
					"attributes":{
						"POSITION":4,
						"NORMAL":5,
						"TEXCOORD_0":6,
						"TANGENT":7
					},
					"indices":8,
					"material":0
				},
				{
					"attributes":{
						"POSITION":9,
						"NORMAL":10,
						"TEXCOORD_0":11,
						"TANGENT":12
					},
					"indices":13,
					"material":0
				}
			]
		},
		{
			"name":"Icosphere.039",
			"primitives":[
				{
					"attributes":{
						"POSITION":14,
						"NORMAL":15,
						"TEXCOORD_0":16
					},
					"indices":17,
					"material":1
				},
				{
					"attributes":{
						"POSITION":18,
						"NORMAL":19,
						"TEXCOORD_0":20
					},
					"indices":21,
					"material":2
				},
				{
					"attributes":{
						"POSITION":22,
						"NORMAL":23,
						"TEXCOORD_0":24
					},
					"indices":25,
					"material":2
				}
			]
		}
	],
	"textures":[
		{
			"sampler":0,
			"source":0
		},
		{
			"sampler":0,
			"source":0
		}
	],
	"images":[
		{
			"mimeType":"image/png",
			"name":"AvatarWearables_TX",
			"uri":"tex/AvatarWearables_TX.png"
		}
	],
	"accessors":[
		{
			"bufferView":0,
			"componentType":5126,
			"count":89,
			"max":[
				0.5080313682556152,
				-8.14637565612793,
				0.5080312490463257
			],
			"min":[
				-0.5080313682556152,
				-16.256999969482422,
				-0.5080312490463257
			],
			"type":"VEC3"
		},
		{
			"bufferView":1,
			"componentType":5126,
			"count":89,
			"type":"VEC3"
		},
		{
			"bufferView":2,
			"componentType":5126,
			"count":89,
			"type":"VEC2"
		},
		{
			"bufferView":3,
			"componentType":5123,
			"count":279,
			"type":"SCALAR"
		},
		{
			"bufferView":4,
			"componentType":5126,
			"count":6,
			"max":[
				-1.0564899444580078,
				-1.0456762313842773,
				-1.053174376487732
			],
			"min":[
				-1.0608196258544922,
				-1.054107666015625,
				-1.0608198642730713
			],
			"type":"VEC3"
		},
		{
			"bufferView":5,
			"componentType":5126,
			"count":6,
			"type":"VEC3"
		},
		{
			"bufferView":6,
			"componentType":5126,
			"count":6,
			"type":"VEC2"
		},
		{
			"bufferView":7,
			"componentType":5126,
			"count":6,
			"type":"VEC4"
		},
		{
			"bufferView":8,
			"componentType":5123,
			"count":6,
			"type":"SCALAR"
		},
		{
			"bufferView":9,
			"componentType":5126,
			"count":6,
			"max":[
				-1.0564899444580078,
				-1.0456762313842773,
				-1.053174376487732
			],
			"min":[
				-1.0608196258544922,
				-1.054107666015625,
				-1.0608198642730713
			],
			"type":"VEC3"
		},
		{
			"bufferView":10,
			"componentType":5126,
			"count":6,
			"type":"VEC3"
		},
		{
			"bufferView":11,
			"componentType":5126,
			"count":6,
			"type":"VEC2"
		},
		{
			"bufferView":12,
			"componentType":5126,
			"count":6,
			"type":"VEC4"
		},
		{
			"bufferView":13,
			"componentType":5123,
			"count":6,
			"type":"SCALAR"
		},
		{
			"bufferView":14,
			"componentType":5126,
			"count":232,
			"max":[
				0.36492007970809937,
				-0.47032904624938965,
				0.10354667901992798
			],
			"min":[
				-0.5932374596595764,
				-2.6594796180725098,
				-0.5932374596595764
			],
			"type":"VEC3"
		},
		{
			"bufferView":15,
			"componentType":5126,
			"count":232,
			"type":"VEC3"
		},
		{
			"bufferView":16,
			"componentType":5126,
			"count":232,
			"type":"VEC2"
		},
		{
			"bufferView":17,
			"componentType":5123,
			"count":453,
			"type":"SCALAR"
		},
		{
			"bufferView":18,
			"componentType":5126,
			"count":42,
			"max":[
				0.36492007970809937,
				-0.6879041194915771,
				0.10354667901992798
			],
			"min":[
				-0.5265260934829712,
				-2.6544103622436523,
				-0.5440073013305664
			],
			"type":"VEC3"
		},
		{
			"bufferView":19,
			"componentType":5126,
			"count":42,
			"type":"VEC3"
		},
		{
			"bufferView":20,
			"componentType":5126,
			"count":42,
			"type":"VEC2"
		},
		{
			"bufferView":21,
			"componentType":5123,
			"count":54,
			"type":"SCALAR"
		},
		{
			"bufferView":22,
			"componentType":5126,
			"count":75,
			"max":[
				0.36492007970809937,
				-0.47032904624938965,
				0.0915258526802063
			],
			"min":[
				-0.5932374596595764,
				-2.6594796180725098,
				-0.5932374596595764
			],
			"type":"VEC3"
		},
		{
			"bufferView":23,
			"componentType":5126,
			"count":75,
			"type":"VEC3"
		},
		{
			"bufferView":24,
			"componentType":5126,
			"count":75,
			"type":"VEC2"
		},
		{
			"bufferView":25,
			"componentType":5123,
			"count":207,
			"type":"SCALAR"
		}
	],
	"bufferViews":[
		{
			"buffer":0,
			"byteLength":1068,
			"byteOffset":0,
			"target":34962
		},
		{
			"buffer":0,
			"byteLength":1068,
			"byteOffset":1068,
			"target":34962
		},
		{
			"buffer":0,
			"byteLength":712,
			"byteOffset":2136,
			"target":34962
		},
		{
			"buffer":0,
			"byteLength":558,
			"byteOffset":2848,
			"target":34963
		},
		{
			"buffer":0,
			"byteLength":72,
			"byteOffset":3408,
			"target":34962
		},
		{
			"buffer":0,
			"byteLength":72,
			"byteOffset":3480,
			"target":34962
		},
		{
			"buffer":0,
			"byteLength":48,
			"byteOffset":3552,
			"target":34962
		},
		{
			"buffer":0,
			"byteLength":96,
			"byteOffset":3600,
			"target":34962
		},
		{
			"buffer":0,
			"byteLength":12,
			"byteOffset":3696,
			"target":34963
		},
		{
			"buffer":0,
			"byteLength":72,
			"byteOffset":3708,
			"target":34962
		},
		{
			"buffer":0,
			"byteLength":72,
			"byteOffset":3780,
			"target":34962
		},
		{
			"buffer":0,
			"byteLength":48,
			"byteOffset":3852,
			"target":34962
		},
		{
			"buffer":0,
			"byteLength":96,
			"byteOffset":3900,
			"target":34962
		},
		{
			"buffer":0,
			"byteLength":12,
			"byteOffset":3996,
			"target":34963
		},
		{
			"buffer":0,
			"byteLength":2784,
			"byteOffset":4008,
			"target":34962
		},
		{
			"buffer":0,
			"byteLength":2784,
			"byteOffset":6792,
			"target":34962
		},
		{
			"buffer":0,
			"byteLength":1856,
			"byteOffset":9576,
			"target":34962
		},
		{
			"buffer":0,
			"byteLength":906,
			"byteOffset":11432,
			"target":34963
		},
		{
			"buffer":0,
			"byteLength":504,
			"byteOffset":12340,
			"target":34962
		},
		{
			"buffer":0,
			"byteLength":504,
			"byteOffset":12844,
			"target":34962
		},
		{
			"buffer":0,
			"byteLength":336,
			"byteOffset":13348,
			"target":34962
		},
		{
			"buffer":0,
			"byteLength":108,
			"byteOffset":13684,
			"target":34963
		},
		{
			"buffer":0,
			"byteLength":900,
			"byteOffset":13792,
			"target":34962
		},
		{
			"buffer":0,
			"byteLength":900,
			"byteOffset":14692,
			"target":34962
		},
		{
			"buffer":0,
			"byteLength":600,
			"byteOffset":15592,
			"target":34962
		},
		{
			"buffer":0,
			"byteLength":414,
			"byteOffset":16192,
			"target":34963
		}
	],
	"samplers":[
		{
			"magFilter":9729,
			"minFilter":9987
		}
	],
	"buffers":[
		{
			"byteLength":16608,
			"uri":"tile_9_0_5.bin"
		}
	]
}
