{
	"asset":{
		"generator":"Khronos glTF Blender I/O v4.0.44",
		"version":"2.0"
	},
	"extensionsUsed":[
		"KHR_materials_specular",
		"KHR_materials_ior"
	],
	"scene":0,
	"scenes":[
		{
			"name":"Scene",
			"nodes":[
				0,
				1,
				2
			]
		}
	],
	"nodes":[
		{
			"mesh":0,
			"name":"Plane",
			"scale":[
				7.873531341552734,
				0.9841914176940918,
				7.873531341552734
			]
		},
		{
			"name":"Plane.001",
			"scale":[
				3.7706682682037354,
				3.7706682682037354,
				3.7706682682037354
			]
		},
		{
			"mesh":1,
			"name":"Cube.010",
			"rotation":[
				0,
				-0.8695921897888184,
				0,
				0.49377062916755676
			],
			"scale":[
				1.409204125404358,
				1.409204125404358,
				1.409204125404358
			]
		}
	],
	"materials":[
		{
			"doubleSided":true,
			"extensions":{
				"KHR_materials_specular":{
					"specularColorFactor":[
						2.0,
						2.0,
						2.0
					]
				},
				"KHR_materials_ior":{
					"ior":1.4500000476837158
				}
			},
			"name":"building",
			"pbrMetallicRoughness":{
				"baseColorTexture":{
					"index":0
				},
				"metallicFactor":0
			}
		}
	],
	"meshes":[
		{
			"name":"Plane.128",
			"primitives":[
				{
					"attributes":{
						"POSITION":0,
						"NORMAL":1,
						"TEXCOORD_0":2
					},
					"indices":3,
					"material":0
				},
				{
					"attributes":{
						"POSITION":4,
						"NORMAL":5,
						"TEXCOORD_0":6
					},
					"indices":7,
					"material":0
				}
			]
		},
		{
			"name":"Cube.051",
			"primitives":[
				{
					"attributes":{
						"POSITION":8,
						"NORMAL":9,
						"TEXCOORD_0":10
					},
					"indices":11,
					"material":0
				},
				{
					"attributes":{
						"POSITION":12,
						"NORMAL":13,
						"TEXCOORD_0":14
					},
					"indices":15,
					"material":0
				}
			]
		}
	],
	"textures":[
		{
			"sampler":0,
			"source":0
		}
	],
	"images":[
		{
			"mimeType":"image/png",
			"name":"AvatarWearables_TX",
			"uri":"tex/AvatarWearables_TX.png"
		}
	],
	"accessors":[
		{
			"bufferView":0,
			"componentType":5126,
			"count":142,
			"max":[
				1.0160627365112305,
				-0.44900989532470703,
				0.9180951118469238
			],
			"min":[
				-1.0160624980926514,
				-6.77199649810791,
				-1.0160627365112305
			],
			"type":"VEC3"
		},
		{
			"bufferView":1,
			"componentType":5126,
			"count":142,
			"type":"VEC3"
		},
		{
			"bufferView":2,
			"componentType":5126,
			"count":142,
			"type":"VEC2"
		},
		{
			"bufferView":3,
			"componentType":5123,
			"count":576,
			"type":"SCALAR"
		},
		{
			"bufferView":4,
			"componentType":5126,
			"count":32,
			"max":[
				1.0160627365112305,
				-0.5735559463500977,
				0.9180951118469238
			],
			"min":[
				-1.0160624980926514,
				-8.128499984741211,
				-1.0160627365112305
			],
			"type":"VEC3"
		},
		{
			"bufferView":5,
			"componentType":5126,
			"count":32,
			"type":"VEC3"
		},
		{
			"bufferView":6,
			"componentType":5126,
			"count":32,
			"type":"VEC2"
		},
		{
			"bufferView":7,
			"componentType":5123,
			"count":69,
			"type":"SCALAR"
		},
		{
			"bufferView":8,
			"componentType":5126,
			"count":140,
			"max":[
				1.2534016370773315,
				-2.7964391708374023,
				7.783907890319824
			],
			"min":[
				-3.11259388923645,
				-4.796439170837402,
				5.862819671630859
			],
			"type":"VEC3"
		},
		{
			"bufferView":9,
			"componentType":5126,
			"count":140,
			"type":"VEC3"
		},
		{
			"bufferView":10,
			"componentType":5126,
			"count":140,
			"type":"VEC2"
		},
		{
			"bufferView":11,
			"componentType":5123,
			"count":222,
			"type":"SCALAR"
		},
		{
			"bufferView":12,
			"componentType":5126,
			"count":70,
			"max":[
				1.2534016370773315,
				-2.7964391708374023,
				7.783907890319824
			],
			"min":[
				-3.11259388923645,
				-4.796439170837402,
				5.862819671630859
			],
			"type":"VEC3"
		},
		{
			"bufferView":13,
			"componentType":5126,
			"count":70,
			"type":"VEC3"
		},
		{
			"bufferView":14,
			"componentType":5126,
			"count":70,
			"type":"VEC2"
		},
		{
			"bufferView":15,
			"componentType":5123,
			"count":114,
			"type":"SCALAR"
		}
	],
	"bufferViews":[
		{
			"buffer":0,
			"byteLength":1704,
			"byteOffset":0,
			"target":34962
		},
		{
			"buffer":0,
			"byteLength":1704,
			"byteOffset":1704,
			"target":34962
		},
		{
			"buffer":0,
			"byteLength":1136,
			"byteOffset":3408,
			"target":34962
		},
		{
			"buffer":0,
			"byteLength":1152,
			"byteOffset":4544,
			"target":34963
		},
		{
			"buffer":0,
			"byteLength":384,
			"byteOffset":5696,
			"target":34962
		},
		{
			"buffer":0,
			"byteLength":384,
			"byteOffset":6080,
			"target":34962
		},
		{
			"buffer":0,
			"byteLength":256,
			"byteOffset":6464,
			"target":34962
		},
		{
			"buffer":0,
			"byteLength":138,
			"byteOffset":6720,
			"target":34963
		},
		{
			"buffer":0,
			"byteLength":1680,
			"byteOffset":6860,
			"target":34962
		},
		{
			"buffer":0,
			"byteLength":1680,
			"byteOffset":8540,
			"target":34962
		},
		{
			"buffer":0,
			"byteLength":1120,
			"byteOffset":10220,
			"target":34962
		},
		{
			"buffer":0,
			"byteLength":444,
			"byteOffset":11340,
			"target":34963
		},
		{
			"buffer":0,
			"byteLength":840,
			"byteOffset":11784,
			"target":34962
		},
		{
			"buffer":0,
			"byteLength":840,
			"byteOffset":12624,
			"target":34962
		},
		{
			"buffer":0,
			"byteLength":560,
			"byteOffset":13464,
			"target":34962
		},
		{
			"buffer":0,
			"byteLength":228,
			"byteOffset":14024,
			"target":34963
		}
	],
	"samplers":[
		{
			"magFilter":9729,
			"minFilter":9987
		}
	],
	"buffers":[
		{
			"byteLength":14252,
			"uri":"tile_7_1_0.bin"
		}
	]
}
