{
	"asset":{
		"generator":"Khronos glTF Blender I/O v4.0.44",
		"version":"2.0"
	},
	"extensionsUsed":[
		"KHR_materials_specular",
		"KHR_materials_ior"
	],
	"scene":0,
	"scenes":[
		{
			"name":"Scene",
			"nodes":[
				0,
				1,
				2,
				3,
				4
			]
		}
	],
	"nodes":[
		{
			"mesh":0,
			"name":"Plane",
			"scale":[
				7.873531341552734,
				0.9841914176940918,
				7.873531341552734
			]
		},
		{
			"name":"track.225",
			"scale":[
				3.7706682682037354,
				3.7706682682037354,
				3.7706682682037354
			]
		},
		{
			"mesh":1,
			"name":"Cylinder.015"
		},
		{
			"mesh":2,
			"name":"Cylinder.097"
		},
		{
			"mesh":3,
			"name":"Cylinder.098"
		}
	],
	"materials":[
		{
			"doubleSided":true,
			"extensions":{
				"KHR_materials_specular":{
					"specularColorFactor":[
						2.0,
						2.0,
						2.0
					]
				},
				"KHR_materials_ior":{
					"ior":1.4500000476837158
				}
			},
			"name":"building",
			"pbrMetallicRoughness":{
				"baseColorTexture":{
					"index":0
				},
				"metallicFactor":0
			}
		}
	],
	"meshes":[
		{
			"name":"Plane.1100",
			"primitives":[
				{
					"attributes":{
						"POSITION":0,
						"NORMAL":1,
						"TEXCOORD_0":2,
						"TANGENT":3
					},
					"indices":4,
					"material":0
				}
			]
		},
		{
			"name":"Cylinder.447",
			"primitives":[
				{
					"attributes":{
						"POSITION":5,
						"NORMAL":6,
						"TEXCOORD_0":7
					},
					"indices":8,
					"material":0
				},
				{
					"attributes":{
						"POSITION":9,
						"NORMAL":10,
						"TEXCOORD_0":11
					},
					"indices":12,
					"material":0
				}
			]
		},
		{
			"name":"Cylinder.448",
			"primitives":[
				{
					"attributes":{
						"POSITION":13,
						"NORMAL":14,
						"TEXCOORD_0":15
					},
					"indices":16,
					"material":0
				},
				{
					"attributes":{
						"POSITION":17,
						"NORMAL":18,
						"TEXCOORD_0":19
					},
					"indices":20,
					"material":0
				}
			]
		},
		{
			"name":"Cylinder.449",
			"primitives":[
				{
					"attributes":{
						"POSITION":21,
						"NORMAL":22,
						"TEXCOORD_0":23
					},
					"indices":24,
					"material":0
				},
				{
					"attributes":{
						"POSITION":25,
						"NORMAL":26,
						"TEXCOORD_0":27
					},
					"indices":28,
					"material":0
				}
			]
		}
	],
	"textures":[
		{
			"sampler":0,
			"source":0
		}
	],
	"images":[
		{
			"mimeType":"image/png",
			"name":"AvatarWearables_TX",
			"uri":"tex/AvatarWearables_TX.png"
		}
	],
	"accessors":[
		{
			"bufferView":0,
			"componentType":5126,
			"count":36,
			"max":[
				0.5080313682556152,
				-14.900496482849121,
				0.5080304145812988
			],
			"min":[
				-0.5080313682556152,
				-14.900496482849121,
				-0.5080323219299316
			],
			"type":"VEC3"
		},
		{
			"bufferView":1,
			"componentType":5126,
			"count":36,
			"type":"VEC3"
		},
		{
			"bufferView":2,
			"componentType":5126,
			"count":36,
			"type":"VEC2"
		},
		{
			"bufferView":3,
			"componentType":5126,
			"count":36,
			"type":"VEC4"
		},
		{
			"bufferView":4,
			"componentType":5123,
			"count":150,
			"type":"SCALAR"
		},
		{
			"bufferView":5,
			"componentType":5126,
			"count":10,
			"max":[
				4,
				-6.442105293273926,
				-3.9858877658843994
			],
			"min":[
				3.928201198577881,
				-6.639494895935059,
				-4
			],
			"type":"VEC3"
		},
		{
			"bufferView":6,
			"componentType":5126,
			"count":10,
			"type":"VEC3"
		},
		{
			"bufferView":7,
			"componentType":5126,
			"count":10,
			"type":"VEC2"
		},
		{
			"bufferView":8,
			"componentType":5123,
			"count":24,
			"type":"SCALAR"
		},
		{
			"bufferView":9,
			"componentType":5126,
			"count":12,
			"max":[
				4,
				-6.442105293273926,
				-3.9858877658843994
			],
			"min":[
				3.928201198577881,
				-6.639494895935059,
				-4
			],
			"type":"VEC3"
		},
		{
			"bufferView":10,
			"componentType":5126,
			"count":12,
			"type":"VEC3"
		},
		{
			"bufferView":11,
			"componentType":5126,
			"count":12,
			"type":"VEC2"
		},
		{
			"bufferView":12,
			"componentType":5123,
			"count":24,
			"type":"SCALAR"
		},
		{
			"bufferView":13,
			"componentType":5126,
			"count":32,
			"max":[
				4,
				4.092940330505371,
				-2.400724172592163
			],
			"min":[
				-0.3805243968963623,
				-1.1514778137207031,
				-4
			],
			"type":"VEC3"
		},
		{
			"bufferView":14,
			"componentType":5126,
			"count":32,
			"type":"VEC3"
		},
		{
			"bufferView":15,
			"componentType":5126,
			"count":32,
			"type":"VEC2"
		},
		{
			"bufferView":16,
			"componentType":5123,
			"count":42,
			"type":"SCALAR"
		},
		{
			"bufferView":17,
			"componentType":5126,
			"count":14,
			"max":[
				4,
				4.092940330505371,
				-2.9639768600463867
			],
			"min":[
				-0.3805243968963623,
				-1.1514778137207031,
				-4
			],
			"type":"VEC3"
		},
		{
			"bufferView":18,
			"componentType":5126,
			"count":14,
			"type":"VEC3"
		},
		{
			"bufferView":19,
			"componentType":5126,
			"count":14,
			"type":"VEC2"
		},
		{
			"bufferView":20,
			"componentType":5123,
			"count":30,
			"type":"SCALAR"
		},
		{
			"bufferView":21,
			"componentType":5126,
			"count":39,
			"max":[
				4,
				-6.118748664855957,
				-2.2908668518066406
			],
			"min":[
				2.91054630279541,
				-8.82591438293457,
				-4
			],
			"type":"VEC3"
		},
		{
			"bufferView":22,
			"componentType":5126,
			"count":39,
			"type":"VEC3"
		},
		{
			"bufferView":23,
			"componentType":5126,
			"count":39,
			"type":"VEC2"
		},
		{
			"bufferView":24,
			"componentType":5123,
			"count":51,
			"type":"SCALAR"
		},
		{
			"bufferView":25,
			"componentType":5126,
			"count":15,
			"max":[
				4,
				-6.118748664855957,
				-2.2908668518066406
			],
			"min":[
				2.99625301361084,
				-8.82591438293457,
				-4
			],
			"type":"VEC3"
		},
		{
			"bufferView":26,
			"componentType":5126,
			"count":15,
			"type":"VEC3"
		},
		{
			"bufferView":27,
			"componentType":5126,
			"count":15,
			"type":"VEC2"
		},
		{
			"bufferView":28,
			"componentType":5123,
			"count":33,
			"type":"SCALAR"
		}
	],
	"bufferViews":[
		{
			"buffer":0,
			"byteLength":432,
			"byteOffset":0,
			"target":34962
		},
		{
			"buffer":0,
			"byteLength":432,
			"byteOffset":432,
			"target":34962
		},
		{
			"buffer":0,
			"byteLength":288,
			"byteOffset":864,
			"target":34962
		},
		{
			"buffer":0,
			"byteLength":576,
			"byteOffset":1152,
			"target":34962
		},
		{
			"buffer":0,
			"byteLength":300,
			"byteOffset":1728,
			"target":34963
		},
		{
			"buffer":0,
			"byteLength":120,
			"byteOffset":2028,
			"target":34962
		},
		{
			"buffer":0,
			"byteLength":120,
			"byteOffset":2148,
			"target":34962
		},
		{
			"buffer":0,
			"byteLength":80,
			"byteOffset":2268,
			"target":34962
		},
		{
			"buffer":0,
			"byteLength":48,
			"byteOffset":2348,
			"target":34963
		},
		{
			"buffer":0,
			"byteLength":144,
			"byteOffset":2396,
			"target":34962
		},
		{
			"buffer":0,
			"byteLength":144,
			"byteOffset":2540,
			"target":34962
		},
		{
			"buffer":0,
			"byteLength":96,
			"byteOffset":2684,
			"target":34962
		},
		{
			"buffer":0,
			"byteLength":48,
			"byteOffset":2780,
			"target":34963
		},
		{
			"buffer":0,
			"byteLength":384,
			"byteOffset":2828,
			"target":34962
		},
		{
			"buffer":0,
			"byteLength":384,
			"byteOffset":3212,
			"target":34962
		},
		{
			"buffer":0,
			"byteLength":256,
			"byteOffset":3596,
			"target":34962
		},
		{
			"buffer":0,
			"byteLength":84,
			"byteOffset":3852,
			"target":34963
		},
		{
			"buffer":0,
			"byteLength":168,
			"byteOffset":3936,
			"target":34962
		},
		{
			"buffer":0,
			"byteLength":168,
			"byteOffset":4104,
			"target":34962
		},
		{
			"buffer":0,
			"byteLength":112,
			"byteOffset":4272,
			"target":34962
		},
		{
			"buffer":0,
			"byteLength":60,
			"byteOffset":4384,
			"target":34963
		},
		{
			"buffer":0,
			"byteLength":468,
			"byteOffset":4444,
			"target":34962
		},
		{
			"buffer":0,
			"byteLength":468,
			"byteOffset":4912,
			"target":34962
		},
		{
			"buffer":0,
			"byteLength":312,
			"byteOffset":5380,
			"target":34962
		},
		{
			"buffer":0,
			"byteLength":102,
			"byteOffset":5692,
			"target":34963
		},
		{
			"buffer":0,
			"byteLength":180,
			"byteOffset":5796,
			"target":34962
		},
		{
			"buffer":0,
			"byteLength":180,
			"byteOffset":5976,
			"target":34962
		},
		{
			"buffer":0,
			"byteLength":120,
			"byteOffset":6156,
			"target":34962
		},
		{
			"buffer":0,
			"byteLength":66,
			"byteOffset":6276,
			"target":34963
		}
	],
	"samplers":[
		{
			"magFilter":9729,
			"minFilter":9987
		}
	],
	"buffers":[
		{
			"byteLength":6344,
			"uri":"tile_18_0_8.bin"
		}
	]
}
