{
	"asset":{
		"generator":"Khronos glTF Blender I/O v4.0.44",
		"version":"2.0"
	},
	"extensionsUsed":[
		"KHR_materials_specular",
		"KHR_materials_ior",
		"KHR_materials_emissive_strength"
	],
	"scene":0,
	"scenes":[
		{
			"name":"Scene",
			"nodes":[
				0,
				1,
				2,
				3,
				4,
				5,
				6,
				7,
				8,
				9
			]
		}
	],
	"nodes":[
		{
			"mesh":0,
			"name":"Plane",
			"scale":[
				7.873531341552734,
				0.9841914176940918,
				7.873531341552734
			]
		},
		{
			"mesh":1,
			"name":"track.095",
			"scale":[
				3.7706682682037354,
				3.7706682682037354,
				3.7706682682037354
			]
		},
		{
			"mesh":2,
			"name":"Torus.017",
			"rotation":[
				0.6081892251968384,
				0.3607020080089569,
				-0.3607020378112793,
				0.6081892251968384
			],
			"scale":[
				0.9492738246917725,
				0.9492738246917725,
				0.9492737650871277
			]
		},
		{
			"mesh":3,
			"name":"Cube.008"
		},
		{
			"mesh":4,
			"name":"Cube.084"
		},
		{
			"mesh":5,
			"name":"Cube.085"
		},
		{
			"mesh":6,
			"name":"Cube.086"
		},
		{
			"mesh":7,
			"name":"Cube.087"
		},
		{
			"mesh":8,
			"name":"Cube.088"
		},
		{
			"mesh":9,
			"name":"Cube.089"
		}
	],
	"materials":[
		{
			"doubleSided":true,
			"extensions":{
				"KHR_materials_specular":{
					"specularColorFactor":[
						2.0,
						2.0,
						2.0
					]
				},
				"KHR_materials_ior":{
					"ior":1.4500000476837158
				}
			},
			"name":"building",
			"pbrMetallicRoughness":{
				"baseColorTexture":{
					"index":0
				},
				"metallicFactor":0
			}
		},
		{
			"doubleSided":true,
			"emissiveFactor":[
				1,
				0.003797386313042906,
				0
			],
			"extensions":{
				"KHR_materials_emissive_strength":{
					"emissiveStrength":7.991064786911011
				}
			},
			"name":"Glow9",
			"pbrMetallicRoughness":{
				"baseColorFactor":[
					0.8000000715255737,
					0.0031031807884573936,
					0,
					1
				],
				"metallicFactor":0
			}
		},
		{
			"doubleSided":true,
			"emissiveFactor":[
				1,
				1,
				1
			],
			"extensions":{
				"KHR_materials_emissive_strength":{
					"emissiveStrength":4
				}
			},
			"name":"Glow2",
			"pbrMetallicRoughness":{
				"baseColorFactor":[
					0.800000011920929,
					0.800000011920929,
					0.800000011920929,
					1
				],
				"metallicFactor":0,
				"roughnessFactor":0.5
			}
		}
	],
	"meshes":[
		{
			"name":"Plane.840",
			"primitives":[
				{
					"attributes":{
						"POSITION":0,
						"NORMAL":1,
						"TEXCOORD_0":2,
						"TANGENT":3
					},
					"indices":4,
					"material":0
				}
			]
		},
		{
			"name":"Plane.841",
			"primitives":[
				{
					"attributes":{
						"POSITION":5,
						"NORMAL":6,
						"TEXCOORD_0":7
					},
					"indices":8,
					"material":0
				}
			]
		},
		{
			"name":"Torus.070",
			"primitives":[
				{
					"attributes":{
						"POSITION":9,
						"NORMAL":10,
						"TEXCOORD_0":11
					},
					"indices":12,
					"material":0
				},
				{
					"attributes":{
						"POSITION":13,
						"NORMAL":14,
						"TEXCOORD_0":15
					},
					"indices":16,
					"material":1
				},
				{
					"attributes":{
						"POSITION":17,
						"NORMAL":18,
						"TEXCOORD_0":19
					},
					"indices":20,
					"material":2
				}
			]
		},
		{
			"name":"Cube.594",
			"primitives":[
				{
					"attributes":{
						"POSITION":21,
						"NORMAL":22,
						"TEXCOORD_0":23
					},
					"indices":24,
					"material":0
				}
			]
		},
		{
			"name":"Cube.595",
			"primitives":[
				{
					"attributes":{
						"POSITION":25,
						"NORMAL":26,
						"TEXCOORD_0":27,
						"TANGENT":28
					},
					"indices":29,
					"material":0
				}
			]
		},
		{
			"name":"Cube.596",
			"primitives":[
				{
					"attributes":{
						"POSITION":30,
						"NORMAL":31,
						"TEXCOORD_0":32,
						"TANGENT":33
					},
					"indices":34,
					"material":0
				}
			]
		},
		{
			"name":"Cube.597",
			"primitives":[
				{
					"attributes":{
						"POSITION":35,
						"NORMAL":36,
						"TEXCOORD_0":37,
						"TANGENT":38
					},
					"indices":34,
					"material":0
				}
			]
		},
		{
			"name":"Cube.598",
			"primitives":[
				{
					"attributes":{
						"POSITION":39,
						"NORMAL":40,
						"TEXCOORD_0":41,
						"TANGENT":42
					},
					"indices":43,
					"material":0
				},
				{
					"attributes":{
						"POSITION":44,
						"NORMAL":45,
						"TEXCOORD_0":46,
						"TANGENT":47
					},
					"indices":48,
					"material":0
				}
			]
		},
		{
			"name":"Cube.599",
			"primitives":[
				{
					"attributes":{
						"POSITION":49,
						"NORMAL":50,
						"TEXCOORD_0":51,
						"TANGENT":52
					},
					"indices":34,
					"material":0
				}
			]
		},
		{
			"name":"Cube.600",
			"primitives":[
				{
					"attributes":{
						"POSITION":53,
						"NORMAL":54,
						"TEXCOORD_0":55,
						"TANGENT":56
					},
					"indices":57,
					"material":0
				}
			]
		}
	],
	"textures":[
		{
			"sampler":0,
			"source":0
		}
	],
	"images":[
		{
			"mimeType":"image/png",
			"name":"AvatarWearables_TX",
			"uri":"tex/AvatarWearables_TX.png"
		}
	],
	"accessors":[
		{
			"bufferView":0,
			"componentType":5126,
			"count":36,
			"max":[
				0.5080313682556152,
				-14.900496482849121,
				0.5080313682556152
			],
			"min":[
				-0.5080313682556152,
				-14.900496482849121,
				-0.5080313682556152
			],
			"type":"VEC3"
		},
		{
			"bufferView":1,
			"componentType":5126,
			"count":36,
			"type":"VEC3"
		},
		{
			"bufferView":2,
			"componentType":5126,
			"count":36,
			"type":"VEC2"
		},
		{
			"bufferView":3,
			"componentType":5126,
			"count":36,
			"type":"VEC4"
		},
		{
			"bufferView":4,
			"componentType":5123,
			"count":150,
			"type":"SCALAR"
		},
		{
			"bufferView":5,
			"componentType":5126,
			"count":63,
			"max":[
				1.0608186721801758,
				-3.5419483184814453,
				0.5898303985595703
			],
			"min":[
				-1.0608205795288086,
				-4.243279933929443,
				-1.0608196258544922
			],
			"type":"VEC3"
		},
		{
			"bufferView":6,
			"componentType":5126,
			"count":63,
			"type":"VEC3"
		},
		{
			"bufferView":7,
			"componentType":5126,
			"count":63,
			"type":"VEC2"
		},
		{
			"bufferView":8,
			"componentType":5123,
			"count":111,
			"type":"SCALAR"
		},
		{
			"bufferView":9,
			"componentType":5126,
			"count":78,
			"max":[
				-4.679085731506348,
				-0.4333571195602417,
				13.217583656311035
			],
			"min":[
				-5.307421684265137,
				-2.179746389389038,
				11.045992851257324
			],
			"type":"VEC3"
		},
		{
			"bufferView":10,
			"componentType":5126,
			"count":78,
			"type":"VEC3"
		},
		{
			"bufferView":11,
			"componentType":5126,
			"count":78,
			"type":"VEC2"
		},
		{
			"bufferView":12,
			"componentType":5123,
			"count":282,
			"type":"SCALAR"
		},
		{
			"bufferView":13,
			"componentType":5126,
			"count":11,
			"max":[
				-4.699067115783691,
				-0.4335601329803467,
				12.946392059326172
			],
			"min":[
				-5.082852363586426,
				-2.1503777503967285,
				11.045992851257324
			],
			"type":"VEC3"
		},
		{
			"bufferView":14,
			"componentType":5126,
			"count":11,
			"type":"VEC3"
		},
		{
			"bufferView":15,
			"componentType":5126,
			"count":11,
			"type":"VEC2"
		},
		{
			"bufferView":16,
			"componentType":5123,
			"count":27,
			"type":"SCALAR"
		},
		{
			"bufferView":17,
			"componentType":5126,
			"count":51,
			"max":[
				-4.798036575317383,
				-0.4333571195602417,
				13.217583656311035
			],
			"min":[
				-5.307421684265137,
				-2.179746389389038,
				11.045992851257324
			],
			"type":"VEC3"
		},
		{
			"bufferView":18,
			"componentType":5126,
			"count":51,
			"type":"VEC3"
		},
		{
			"bufferView":19,
			"componentType":5126,
			"count":51,
			"type":"VEC2"
		},
		{
			"bufferView":20,
			"componentType":5123,
			"count":141,
			"type":"SCALAR"
		},
		{
			"bufferView":21,
			"componentType":5126,
			"count":122,
			"max":[
				4,
				-12.36855411529541,
				4
			],
			"min":[
				-0.4745817184448242,
				-14.761817932128906,
				1.9248933792114258
			],
			"type":"VEC3"
		},
		{
			"bufferView":22,
			"componentType":5126,
			"count":122,
			"type":"VEC3"
		},
		{
			"bufferView":23,
			"componentType":5126,
			"count":122,
			"type":"VEC2"
		},
		{
			"bufferView":24,
			"componentType":5123,
			"count":204,
			"type":"SCALAR"
		},
		{
			"bufferView":25,
			"componentType":5126,
			"count":24,
			"max":[
				4,
				-14.049240112304688,
				3.9579548835754395
			],
			"min":[
				0.32117629051208496,
				-14.107187271118164,
				2.1631200313568115
			],
			"type":"VEC3"
		},
		{
			"bufferView":26,
			"componentType":5126,
			"count":24,
			"type":"VEC3"
		},
		{
			"bufferView":27,
			"componentType":5126,
			"count":24,
			"type":"VEC2"
		},
		{
			"bufferView":28,
			"componentType":5126,
			"count":24,
			"type":"VEC4"
		},
		{
			"bufferView":29,
			"componentType":5123,
			"count":36,
			"type":"SCALAR"
		},
		{
			"bufferView":30,
			"componentType":5126,
			"count":24,
			"max":[
				3.635181427001953,
				-13.759504318237305,
				4
			],
			"min":[
				0.17100000381469727,
				-13.817451477050781,
				2.5031399726867676
			],
			"type":"VEC3"
		},
		{
			"bufferView":31,
			"componentType":5126,
			"count":24,
			"type":"VEC3"
		},
		{
			"bufferView":32,
			"componentType":5126,
			"count":24,
			"type":"VEC2"
		},
		{
			"bufferView":33,
			"componentType":5126,
			"count":24,
			"type":"VEC4"
		},
		{
			"bufferView":34,
			"componentType":5123,
			"count":36,
			"type":"SCALAR"
		},
		{
			"bufferView":35,
			"componentType":5126,
			"count":24,
			"max":[
				2.715155601501465,
				-13.469769477844238,
				4
			],
			"min":[
				0.02082347869873047,
				-13.527716636657715,
				2.8431591987609863
			],
			"type":"VEC3"
		},
		{
			"bufferView":36,
			"componentType":5126,
			"count":24,
			"type":"VEC3"
		},
		{
			"bufferView":37,
			"componentType":5126,
			"count":24,
			"type":"VEC2"
		},
		{
			"bufferView":38,
			"componentType":5126,
			"count":24,
			"type":"VEC4"
		},
		{
			"bufferView":39,
			"componentType":5126,
			"count":20,
			"max":[
				1.7951281070709229,
				-13.180034637451172,
				4
			],
			"min":[
				-0.12935256958007812,
				-13.237981796264648,
				3.1831791400909424
			],
			"type":"VEC3"
		},
		{
			"bufferView":40,
			"componentType":5126,
			"count":20,
			"type":"VEC3"
		},
		{
			"bufferView":41,
			"componentType":5126,
			"count":20,
			"type":"VEC2"
		},
		{
			"bufferView":42,
			"componentType":5126,
			"count":20,
			"type":"VEC4"
		},
		{
			"bufferView":43,
			"componentType":5123,
			"count":30,
			"type":"SCALAR"
		},
		{
			"bufferView":44,
			"componentType":5126,
			"count":4,
			"max":[
				1.7951281070709229,
				-13.180034637451172,
				4
			],
			"min":[
				1.3351149559020996,
				-13.237981796264648,
				4
			],
			"type":"VEC3"
		},
		{
			"bufferView":45,
			"componentType":5126,
			"count":4,
			"type":"VEC3"
		},
		{
			"bufferView":46,
			"componentType":5126,
			"count":4,
			"type":"VEC2"
		},
		{
			"bufferView":47,
			"componentType":5126,
			"count":4,
			"type":"VEC4"
		},
		{
			"bufferView":48,
			"componentType":5123,
			"count":6,
			"type":"SCALAR"
		},
		{
			"bufferView":49,
			"componentType":5126,
			"count":24,
			"max":[
				0.8751013278961182,
				-12.890298843383789,
				4
			],
			"min":[
				-0.2795290946960449,
				-12.948246002197266,
				3.5231986045837402
			],
			"type":"VEC3"
		},
		{
			"bufferView":50,
			"componentType":5126,
			"count":24,
			"type":"VEC3"
		},
		{
			"bufferView":51,
			"componentType":5126,
			"count":24,
			"type":"VEC2"
		},
		{
			"bufferView":52,
			"componentType":5126,
			"count":24,
			"type":"VEC4"
		},
		{
			"bufferView":53,
			"componentType":5126,
			"count":18,
			"max":[
				-0.044925689697265625,
				-12.600564002990723,
				4
			],
			"min":[
				-0.41502952575683594,
				-12.6585111618042,
				3.8632185459136963
			],
			"type":"VEC3"
		},
		{
			"bufferView":54,
			"componentType":5126,
			"count":18,
			"type":"VEC3"
		},
		{
			"bufferView":55,
			"componentType":5126,
			"count":18,
			"type":"VEC2"
		},
		{
			"bufferView":56,
			"componentType":5126,
			"count":18,
			"type":"VEC4"
		},
		{
			"bufferView":57,
			"componentType":5123,
			"count":24,
			"type":"SCALAR"
		}
	],
	"bufferViews":[
		{
			"buffer":0,
			"byteLength":432,
			"byteOffset":0,
			"target":34962
		},
		{
			"buffer":0,
			"byteLength":432,
			"byteOffset":432,
			"target":34962
		},
		{
			"buffer":0,
			"byteLength":288,
			"byteOffset":864,
			"target":34962
		},
		{
			"buffer":0,
			"byteLength":576,
			"byteOffset":1152,
			"target":34962
		},
		{
			"buffer":0,
			"byteLength":300,
			"byteOffset":1728,
			"target":34963
		},
		{
			"buffer":0,
			"byteLength":756,
			"byteOffset":2028,
			"target":34962
		},
		{
			"buffer":0,
			"byteLength":756,
			"byteOffset":2784,
			"target":34962
		},
		{
			"buffer":0,
			"byteLength":504,
			"byteOffset":3540,
			"target":34962
		},
		{
			"buffer":0,
			"byteLength":222,
			"byteOffset":4044,
			"target":34963
		},
		{
			"buffer":0,
			"byteLength":936,
			"byteOffset":4268,
			"target":34962
		},
		{
			"buffer":0,
			"byteLength":936,
			"byteOffset":5204,
			"target":34962
		},
		{
			"buffer":0,
			"byteLength":624,
			"byteOffset":6140,
			"target":34962
		},
		{
			"buffer":0,
			"byteLength":564,
			"byteOffset":6764,
			"target":34963
		},
		{
			"buffer":0,
			"byteLength":132,
			"byteOffset":7328,
			"target":34962
		},
		{
			"buffer":0,
			"byteLength":132,
			"byteOffset":7460,
			"target":34962
		},
		{
			"buffer":0,
			"byteLength":88,
			"byteOffset":7592,
			"target":34962
		},
		{
			"buffer":0,
			"byteLength":54,
			"byteOffset":7680,
			"target":34963
		},
		{
			"buffer":0,
			"byteLength":612,
			"byteOffset":7736,
			"target":34962
		},
		{
			"buffer":0,
			"byteLength":612,
			"byteOffset":8348,
			"target":34962
		},
		{
			"buffer":0,
			"byteLength":408,
			"byteOffset":8960,
			"target":34962
		},
		{
			"buffer":0,
			"byteLength":282,
			"byteOffset":9368,
			"target":34963
		},
		{
			"buffer":0,
			"byteLength":1464,
			"byteOffset":9652,
			"target":34962
		},
		{
			"buffer":0,
			"byteLength":1464,
			"byteOffset":11116,
			"target":34962
		},
		{
			"buffer":0,
			"byteLength":976,
			"byteOffset":12580,
			"target":34962
		},
		{
			"buffer":0,
			"byteLength":408,
			"byteOffset":13556,
			"target":34963
		},
		{
			"buffer":0,
			"byteLength":288,
			"byteOffset":13964,
			"target":34962
		},
		{
			"buffer":0,
			"byteLength":288,
			"byteOffset":14252,
			"target":34962
		},
		{
			"buffer":0,
			"byteLength":192,
			"byteOffset":14540,
			"target":34962
		},
		{
			"buffer":0,
			"byteLength":384,
			"byteOffset":14732,
			"target":34962
		},
		{
			"buffer":0,
			"byteLength":72,
			"byteOffset":15116,
			"target":34963
		},
		{
			"buffer":0,
			"byteLength":288,
			"byteOffset":15188,
			"target":34962
		},
		{
			"buffer":0,
			"byteLength":288,
			"byteOffset":15476,
			"target":34962
		},
		{
			"buffer":0,
			"byteLength":192,
			"byteOffset":15764,
			"target":34962
		},
		{
			"buffer":0,
			"byteLength":384,
			"byteOffset":15956,
			"target":34962
		},
		{
			"buffer":0,
			"byteLength":72,
			"byteOffset":16340,
			"target":34963
		},
		{
			"buffer":0,
			"byteLength":288,
			"byteOffset":16412,
			"target":34962
		},
		{
			"buffer":0,
			"byteLength":288,
			"byteOffset":16700,
			"target":34962
		},
		{
			"buffer":0,
			"byteLength":192,
			"byteOffset":16988,
			"target":34962
		},
		{
			"buffer":0,
			"byteLength":384,
			"byteOffset":17180,
			"target":34962
		},
		{
			"buffer":0,
			"byteLength":240,
			"byteOffset":17564,
			"target":34962
		},
		{
			"buffer":0,
			"byteLength":240,
			"byteOffset":17804,
			"target":34962
		},
		{
			"buffer":0,
			"byteLength":160,
			"byteOffset":18044,
			"target":34962
		},
		{
			"buffer":0,
			"byteLength":320,
			"byteOffset":18204,
			"target":34962
		},
		{
			"buffer":0,
			"byteLength":60,
			"byteOffset":18524,
			"target":34963
		},
		{
			"buffer":0,
			"byteLength":48,
			"byteOffset":18584,
			"target":34962
		},
		{
			"buffer":0,
			"byteLength":48,
			"byteOffset":18632,
			"target":34962
		},
		{
			"buffer":0,
			"byteLength":32,
			"byteOffset":18680,
			"target":34962
		},
		{
			"buffer":0,
			"byteLength":64,
			"byteOffset":18712,
			"target":34962
		},
		{
			"buffer":0,
			"byteLength":12,
			"byteOffset":18776,
			"target":34963
		},
		{
			"buffer":0,
			"byteLength":288,
			"byteOffset":18788,
			"target":34962
		},
		{
			"buffer":0,
			"byteLength":288,
			"byteOffset":19076,
			"target":34962
		},
		{
			"buffer":0,
			"byteLength":192,
			"byteOffset":19364,
			"target":34962
		},
		{
			"buffer":0,
			"byteLength":384,
			"byteOffset":19556,
			"target":34962
		},
		{
			"buffer":0,
			"byteLength":216,
			"byteOffset":19940,
			"target":34962
		},
		{
			"buffer":0,
			"byteLength":216,
			"byteOffset":20156,
			"target":34962
		},
		{
			"buffer":0,
			"byteLength":144,
			"byteOffset":20372,
			"target":34962
		},
		{
			"buffer":0,
			"byteLength":288,
			"byteOffset":20516,
			"target":34962
		},
		{
			"buffer":0,
			"byteLength":48,
			"byteOffset":20804,
			"target":34963
		}
	],
	"samplers":[
		{
			"magFilter":9729,
			"minFilter":9987
		}
	],
	"buffers":[
		{
			"byteLength":20852,
			"uri":"tile_7_0_10.bin"
		}
	]
}
