{
	"asset":{
		"generator":"Khronos glTF Blender I/O v4.0.44",
		"version":"2.0"
	},
	"extensionsUsed":[
		"KHR_materials_specular",
		"KHR_materials_ior"
	],
	"scene":0,
	"scenes":[
		{
			"name":"Scene",
			"nodes":[
				0,
				1,
				2,
				3,
				4,
				5,
				6,
				7,
				8,
				9
			]
		}
	],
	"nodes":[
		{
			"mesh":0,
			"name":"Plane",
			"scale":[
				7.873531341552734,
				0.9841914176940918,
				7.873531341552734
			]
		},
		{
			"name":"track.013",
			"scale":[
				3.7706682682037354,
				3.7706682682037354,
				3.7706682682037354
			]
		},
		{
			"mesh":1,
			"name":"Cube.010"
		},
		{
			"mesh":2,
			"name":"Cube.098"
		},
		{
			"mesh":3,
			"name":"Cube.099"
		},
		{
			"mesh":4,
			"name":"Cube.100"
		},
		{
			"mesh":5,
			"name":"Cube.101"
		},
		{
			"mesh":6,
			"name":"Cube.102"
		},
		{
			"mesh":7,
			"name":"Cube.103"
		},
		{
			"mesh":8,
			"name":"Cube.104"
		}
	],
	"materials":[
		{
			"doubleSided":true,
			"extensions":{
				"KHR_materials_specular":{
					"specularColorFactor":[
						2.0,
						2.0,
						2.0
					]
				},
				"KHR_materials_ior":{
					"ior":1.4500000476837158
				}
			},
			"name":"building",
			"pbrMetallicRoughness":{
				"baseColorTexture":{
					"index":0
				},
				"metallicFactor":0
			}
		}
	],
	"meshes":[
		{
			"name":"Plane.678",
			"primitives":[
				{
					"attributes":{
						"POSITION":0,
						"NORMAL":1,
						"TEXCOORD_0":2,
						"TANGENT":3
					},
					"indices":4,
					"material":0
				}
			]
		},
		{
			"name":"Cube.508",
			"primitives":[
				{
					"attributes":{
						"POSITION":5,
						"NORMAL":6,
						"TEXCOORD_0":7
					},
					"indices":8,
					"material":0
				},
				{
					"attributes":{
						"POSITION":9,
						"NORMAL":10,
						"TEXCOORD_0":11
					},
					"indices":12,
					"material":0
				}
			]
		},
		{
			"name":"Cube.509",
			"primitives":[
				{
					"attributes":{
						"POSITION":13,
						"NORMAL":14,
						"TEXCOORD_0":15,
						"TANGENT":16
					},
					"indices":17,
					"material":0
				}
			]
		},
		{
			"name":"Cube.510",
			"primitives":[
				{
					"attributes":{
						"POSITION":18,
						"NORMAL":19,
						"TEXCOORD_0":20,
						"TANGENT":21
					},
					"indices":22,
					"material":0
				},
				{
					"attributes":{
						"POSITION":23,
						"NORMAL":24,
						"TEXCOORD_0":25,
						"TANGENT":26
					},
					"indices":27,
					"material":0
				}
			]
		},
		{
			"name":"Cube.511",
			"primitives":[
				{
					"attributes":{
						"POSITION":28,
						"NORMAL":29,
						"TEXCOORD_0":30,
						"TANGENT":31
					},
					"indices":32,
					"material":0
				}
			]
		},
		{
			"name":"Cube.512",
			"primitives":[
				{
					"attributes":{
						"POSITION":33,
						"NORMAL":34,
						"TEXCOORD_0":35,
						"TANGENT":36
					},
					"indices":37,
					"material":0
				}
			]
		},
		{
			"name":"Cube.513",
			"primitives":[
				{
					"attributes":{
						"POSITION":38,
						"NORMAL":39,
						"TEXCOORD_0":40,
						"TANGENT":41
					},
					"indices":37,
					"material":0
				}
			]
		},
		{
			"name":"Cube.514",
			"primitives":[
				{
					"attributes":{
						"POSITION":42,
						"NORMAL":43,
						"TEXCOORD_0":44,
						"TANGENT":45
					},
					"indices":46,
					"material":0
				},
				{
					"attributes":{
						"POSITION":47,
						"NORMAL":48,
						"TEXCOORD_0":49,
						"TANGENT":50
					},
					"indices":51,
					"material":0
				}
			]
		},
		{
			"name":"Cube.515",
			"primitives":[
				{
					"attributes":{
						"POSITION":52,
						"NORMAL":53,
						"TEXCOORD_0":54,
						"TANGENT":55
					},
					"indices":37,
					"material":0
				}
			]
		}
	],
	"textures":[
		{
			"sampler":0,
			"source":0
		}
	],
	"images":[
		{
			"mimeType":"image/png",
			"name":"AvatarWearables_TX",
			"uri":"tex/AvatarWearables_TX.png"
		}
	],
	"accessors":[
		{
			"bufferView":0,
			"componentType":5126,
			"count":36,
			"max":[
				0.5080310106277466,
				-14.900496482849121,
				0.5080307722091675
			],
			"min":[
				-0.5080307722091675,
				-14.900496482849121,
				-0.508031964302063
			],
			"type":"VEC3"
		},
		{
			"bufferView":1,
			"componentType":5126,
			"count":36,
			"type":"VEC3"
		},
		{
			"bufferView":2,
			"componentType":5126,
			"count":36,
			"type":"VEC2"
		},
		{
			"bufferView":3,
			"componentType":5126,
			"count":36,
			"type":"VEC4"
		},
		{
			"bufferView":4,
			"componentType":5123,
			"count":150,
			"type":"SCALAR"
		},
		{
			"bufferView":5,
			"componentType":5126,
			"count":46,
			"max":[
				4,
				-11.940752983093262,
				0.01258230209350586
			],
			"min":[
				-1.5199356079101562,
				-14.759161949157715,
				-4
			],
			"type":"VEC3"
		},
		{
			"bufferView":6,
			"componentType":5126,
			"count":46,
			"type":"VEC3"
		},
		{
			"bufferView":7,
			"componentType":5126,
			"count":46,
			"type":"VEC2"
		},
		{
			"bufferView":8,
			"componentType":5123,
			"count":90,
			"type":"SCALAR"
		},
		{
			"bufferView":9,
			"componentType":5126,
			"count":18,
			"max":[
				4,
				-11.940752983093262,
				0.01258230209350586
			],
			"min":[
				-1.5199356079101562,
				-14.759161949157715,
				-4
			],
			"type":"VEC3"
		},
		{
			"bufferView":10,
			"componentType":5126,
			"count":18,
			"type":"VEC3"
		},
		{
			"bufferView":11,
			"componentType":5126,
			"count":18,
			"type":"VEC2"
		},
		{
			"bufferView":12,
			"componentType":5123,
			"count":42,
			"type":"SCALAR"
		},
		{
			"bufferView":13,
			"componentType":5126,
			"count":24,
			"max":[
				4,
				-14.049240112304688,
				-2.9498064517974854
			],
			"min":[
				2.5552942752838135,
				-14.107187271118164,
				-4
			],
			"type":"VEC3"
		},
		{
			"bufferView":14,
			"componentType":5126,
			"count":24,
			"type":"VEC3"
		},
		{
			"bufferView":15,
			"componentType":5126,
			"count":24,
			"type":"VEC2"
		},
		{
			"bufferView":16,
			"componentType":5126,
			"count":24,
			"type":"VEC4"
		},
		{
			"bufferView":17,
			"componentType":5123,
			"count":36,
			"type":"SCALAR"
		},
		{
			"bufferView":18,
			"componentType":5126,
			"count":16,
			"max":[
				4,
				-13.759504318237305,
				-2.490267753601074
			],
			"min":[
				1.9231266975402832,
				-13.817451477050781,
				-4
			],
			"type":"VEC3"
		},
		{
			"bufferView":19,
			"componentType":5126,
			"count":16,
			"type":"VEC3"
		},
		{
			"bufferView":20,
			"componentType":5126,
			"count":16,
			"type":"VEC2"
		},
		{
			"bufferView":21,
			"componentType":5126,
			"count":16,
			"type":"VEC4"
		},
		{
			"bufferView":22,
			"componentType":5123,
			"count":24,
			"type":"SCALAR"
		},
		{
			"bufferView":23,
			"componentType":5126,
			"count":8,
			"max":[
				4,
				-13.759504318237305,
				-2.490267753601074
			],
			"min":[
				1.9231266975402832,
				-13.817451477050781,
				-4
			],
			"type":"VEC3"
		},
		{
			"bufferView":24,
			"componentType":5126,
			"count":8,
			"type":"VEC3"
		},
		{
			"bufferView":25,
			"componentType":5126,
			"count":8,
			"type":"VEC2"
		},
		{
			"bufferView":26,
			"componentType":5126,
			"count":8,
			"type":"VEC4"
		},
		{
			"bufferView":27,
			"componentType":5123,
			"count":12,
			"type":"SCALAR"
		},
		{
			"bufferView":28,
			"componentType":5126,
			"count":24,
			"max":[
				4,
				-13.469769477844238,
				-2.030728340148926
			],
			"min":[
				1.290958046913147,
				-13.527716636657715,
				-4
			],
			"type":"VEC3"
		},
		{
			"bufferView":29,
			"componentType":5126,
			"count":24,
			"type":"VEC3"
		},
		{
			"bufferView":30,
			"componentType":5126,
			"count":24,
			"type":"VEC2"
		},
		{
			"bufferView":31,
			"componentType":5126,
			"count":24,
			"type":"VEC4"
		},
		{
			"bufferView":32,
			"componentType":5123,
			"count":36,
			"type":"SCALAR"
		},
		{
			"bufferView":33,
			"componentType":5126,
			"count":24,
			"max":[
				4,
				-13.180034637451172,
				-1.571189284324646
			],
			"min":[
				0.6587903499603271,
				-13.237981796264648,
				-4
			],
			"type":"VEC3"
		},
		{
			"bufferView":34,
			"componentType":5126,
			"count":24,
			"type":"VEC3"
		},
		{
			"bufferView":35,
			"componentType":5126,
			"count":24,
			"type":"VEC2"
		},
		{
			"bufferView":36,
			"componentType":5126,
			"count":24,
			"type":"VEC4"
		},
		{
			"bufferView":37,
			"componentType":5123,
			"count":36,
			"type":"SCALAR"
		},
		{
			"bufferView":38,
			"componentType":5126,
			"count":24,
			"max":[
				4,
				-12.890298843383789,
				-1.111649990081787
			],
			"min":[
				0.02662181854248047,
				-12.948246002197266,
				-4
			],
			"type":"VEC3"
		},
		{
			"bufferView":39,
			"componentType":5126,
			"count":24,
			"type":"VEC3"
		},
		{
			"bufferView":40,
			"componentType":5126,
			"count":24,
			"type":"VEC2"
		},
		{
			"bufferView":41,
			"componentType":5126,
			"count":24,
			"type":"VEC4"
		},
		{
			"bufferView":42,
			"componentType":5126,
			"count":16,
			"max":[
				4,
				-12.600564002990723,
				-0.6521108150482178
			],
			"min":[
				-0.6055459976196289,
				-12.6585111618042,
				-4
			],
			"type":"VEC3"
		},
		{
			"bufferView":43,
			"componentType":5126,
			"count":16,
			"type":"VEC3"
		},
		{
			"bufferView":44,
			"componentType":5126,
			"count":16,
			"type":"VEC2"
		},
		{
			"bufferView":45,
			"componentType":5126,
			"count":16,
			"type":"VEC4"
		},
		{
			"bufferView":46,
			"componentType":5123,
			"count":24,
			"type":"SCALAR"
		},
		{
			"bufferView":47,
			"componentType":5126,
			"count":8,
			"max":[
				4,
				-12.600564002990723,
				-0.6521108150482178
			],
			"min":[
				-0.6055459976196289,
				-12.6585111618042,
				-4
			],
			"type":"VEC3"
		},
		{
			"bufferView":48,
			"componentType":5126,
			"count":8,
			"type":"VEC3"
		},
		{
			"bufferView":49,
			"componentType":5126,
			"count":8,
			"type":"VEC2"
		},
		{
			"bufferView":50,
			"componentType":5126,
			"count":8,
			"type":"VEC4"
		},
		{
			"bufferView":51,
			"componentType":5123,
			"count":12,
			"type":"SCALAR"
		},
		{
			"bufferView":52,
			"componentType":5126,
			"count":24,
			"max":[
				4,
				-12.31082820892334,
				-0.19257164001464844
			],
			"min":[
				-1.2377140522003174,
				-12.368775367736816,
				-4
			],
			"type":"VEC3"
		},
		{
			"bufferView":53,
			"componentType":5126,
			"count":24,
			"type":"VEC3"
		},
		{
			"bufferView":54,
			"componentType":5126,
			"count":24,
			"type":"VEC2"
		},
		{
			"bufferView":55,
			"componentType":5126,
			"count":24,
			"type":"VEC4"
		}
	],
	"bufferViews":[
		{
			"buffer":0,
			"byteLength":432,
			"byteOffset":0,
			"target":34962
		},
		{
			"buffer":0,
			"byteLength":432,
			"byteOffset":432,
			"target":34962
		},
		{
			"buffer":0,
			"byteLength":288,
			"byteOffset":864,
			"target":34962
		},
		{
			"buffer":0,
			"byteLength":576,
			"byteOffset":1152,
			"target":34962
		},
		{
			"buffer":0,
			"byteLength":300,
			"byteOffset":1728,
			"target":34963
		},
		{
			"buffer":0,
			"byteLength":552,
			"byteOffset":2028,
			"target":34962
		},
		{
			"buffer":0,
			"byteLength":552,
			"byteOffset":2580,
			"target":34962
		},
		{
			"buffer":0,
			"byteLength":368,
			"byteOffset":3132,
			"target":34962
		},
		{
			"buffer":0,
			"byteLength":180,
			"byteOffset":3500,
			"target":34963
		},
		{
			"buffer":0,
			"byteLength":216,
			"byteOffset":3680,
			"target":34962
		},
		{
			"buffer":0,
			"byteLength":216,
			"byteOffset":3896,
			"target":34962
		},
		{
			"buffer":0,
			"byteLength":144,
			"byteOffset":4112,
			"target":34962
		},
		{
			"buffer":0,
			"byteLength":84,
			"byteOffset":4256,
			"target":34963
		},
		{
			"buffer":0,
			"byteLength":288,
			"byteOffset":4340,
			"target":34962
		},
		{
			"buffer":0,
			"byteLength":288,
			"byteOffset":4628,
			"target":34962
		},
		{
			"buffer":0,
			"byteLength":192,
			"byteOffset":4916,
			"target":34962
		},
		{
			"buffer":0,
			"byteLength":384,
			"byteOffset":5108,
			"target":34962
		},
		{
			"buffer":0,
			"byteLength":72,
			"byteOffset":5492,
			"target":34963
		},
		{
			"buffer":0,
			"byteLength":192,
			"byteOffset":5564,
			"target":34962
		},
		{
			"buffer":0,
			"byteLength":192,
			"byteOffset":5756,
			"target":34962
		},
		{
			"buffer":0,
			"byteLength":128,
			"byteOffset":5948,
			"target":34962
		},
		{
			"buffer":0,
			"byteLength":256,
			"byteOffset":6076,
			"target":34962
		},
		{
			"buffer":0,
			"byteLength":48,
			"byteOffset":6332,
			"target":34963
		},
		{
			"buffer":0,
			"byteLength":96,
			"byteOffset":6380,
			"target":34962
		},
		{
			"buffer":0,
			"byteLength":96,
			"byteOffset":6476,
			"target":34962
		},
		{
			"buffer":0,
			"byteLength":64,
			"byteOffset":6572,
			"target":34962
		},
		{
			"buffer":0,
			"byteLength":128,
			"byteOffset":6636,
			"target":34962
		},
		{
			"buffer":0,
			"byteLength":24,
			"byteOffset":6764,
			"target":34963
		},
		{
			"buffer":0,
			"byteLength":288,
			"byteOffset":6788,
			"target":34962
		},
		{
			"buffer":0,
			"byteLength":288,
			"byteOffset":7076,
			"target":34962
		},
		{
			"buffer":0,
			"byteLength":192,
			"byteOffset":7364,
			"target":34962
		},
		{
			"buffer":0,
			"byteLength":384,
			"byteOffset":7556,
			"target":34962
		},
		{
			"buffer":0,
			"byteLength":72,
			"byteOffset":7940,
			"target":34963
		},
		{
			"buffer":0,
			"byteLength":288,
			"byteOffset":8012,
			"target":34962
		},
		{
			"buffer":0,
			"byteLength":288,
			"byteOffset":8300,
			"target":34962
		},
		{
			"buffer":0,
			"byteLength":192,
			"byteOffset":8588,
			"target":34962
		},
		{
			"buffer":0,
			"byteLength":384,
			"byteOffset":8780,
			"target":34962
		},
		{
			"buffer":0,
			"byteLength":72,
			"byteOffset":9164,
			"target":34963
		},
		{
			"buffer":0,
			"byteLength":288,
			"byteOffset":9236,
			"target":34962
		},
		{
			"buffer":0,
			"byteLength":288,
			"byteOffset":9524,
			"target":34962
		},
		{
			"buffer":0,
			"byteLength":192,
			"byteOffset":9812,
			"target":34962
		},
		{
			"buffer":0,
			"byteLength":384,
			"byteOffset":10004,
			"target":34962
		},
		{
			"buffer":0,
			"byteLength":192,
			"byteOffset":10388,
			"target":34962
		},
		{
			"buffer":0,
			"byteLength":192,
			"byteOffset":10580,
			"target":34962
		},
		{
			"buffer":0,
			"byteLength":128,
			"byteOffset":10772,
			"target":34962
		},
		{
			"buffer":0,
			"byteLength":256,
			"byteOffset":10900,
			"target":34962
		},
		{
			"buffer":0,
			"byteLength":48,
			"byteOffset":11156,
			"target":34963
		},
		{
			"buffer":0,
			"byteLength":96,
			"byteOffset":11204,
			"target":34962
		},
		{
			"buffer":0,
			"byteLength":96,
			"byteOffset":11300,
			"target":34962
		},
		{
			"buffer":0,
			"byteLength":64,
			"byteOffset":11396,
			"target":34962
		},
		{
			"buffer":0,
			"byteLength":128,
			"byteOffset":11460,
			"target":34962
		},
		{
			"buffer":0,
			"byteLength":24,
			"byteOffset":11588,
			"target":34963
		},
		{
			"buffer":0,
			"byteLength":288,
			"byteOffset":11612,
			"target":34962
		},
		{
			"buffer":0,
			"byteLength":288,
			"byteOffset":11900,
			"target":34962
		},
		{
			"buffer":0,
			"byteLength":192,
			"byteOffset":12188,
			"target":34962
		},
		{
			"buffer":0,
			"byteLength":384,
			"byteOffset":12380,
			"target":34962
		}
	],
	"samplers":[
		{
			"magFilter":9729,
			"minFilter":9987
		}
	],
	"buffers":[
		{
			"byteLength":12764,
			"uri":"tile_1_0_1.bin"
		}
	]
}
