{
	"asset":{
		"generator":"Khronos glTF Blender I/O v4.0.44",
		"version":"2.0"
	},
	"extensionsUsed":[
		"KHR_materials_specular",
		"KHR_materials_ior"
	],
	"scene":0,
	"scenes":[
		{
			"name":"Scene",
			"nodes":[
				0,
				1,
				2,
				3
			]
		}
	],
	"nodes":[
		{
			"mesh":0,
			"name":"Plane",
			"scale":[
				7.873531341552734,
				0.9841914176940918,
				7.873531341552734
			]
		},
		{
			"mesh":1,
			"name":"track.062",
			"scale":[
				3.7706682682037354,
				3.7706682682037354,
				3.7706682682037354
			]
		},
		{
			"mesh":2,
			"name":"Cube.013",
			"rotation":[
				0,
				-0.7997965812683105,
				0,
				0.6002712249755859
			],
			"scale":[
				1.7614697217941284,
				1.7614694833755493,
				1.7614697217941284
			]
		},
		{
			"name":"Torus.004",
			"rotation":[
				0.7071069478988647,
				0,
				0,
				0.7071066498756409
			],
			"scale":[
				0.9492737650871277,
				0.949273943901062,
				0.949273943901062
			]
		}
	],
	"materials":[
		{
			"doubleSided":true,
			"extensions":{
				"KHR_materials_specular":{
					"specularColorFactor":[
						2.0,
						2.0,
						2.0
					]
				},
				"KHR_materials_ior":{
					"ior":1.4500000476837158
				}
			},
			"name":"building",
			"pbrMetallicRoughness":{
				"baseColorTexture":{
					"index":0
				},
				"metallicFactor":0
			}
		},
		{
			"doubleSided":true,
			"extensions":{
				"KHR_materials_specular":{
					"specularColorFactor":[
						2.0,
						2.0,
						2.0
					]
				},
				"KHR_materials_ior":{
					"ior":1.4500000476837158
				}
			},
			"name":"building2",
			"pbrMetallicRoughness":{
				"baseColorTexture":{
					"index":1
				},
				"metallicFactor":0,
				"roughnessFactor":0.17924527823925018
			}
		},
		{
			"doubleSided":true,
			"emissiveFactor":[
				1,
				1,
				0
			],
			"name":"Glow6",
			"pbrMetallicRoughness":{
				"baseColorFactor":[
					0.8000000715255737,
					0.6898009181022644,
					0,
					1
				],
				"metallicFactor":0
			}
		}
	],
	"meshes":[
		{
			"name":"Plane.776",
			"primitives":[
				{
					"attributes":{
						"POSITION":0,
						"NORMAL":1,
						"TEXCOORD_0":2,
						"TANGENT":3
					},
					"indices":4,
					"material":0
				}
			]
		},
		{
			"name":"Plane.777",
			"primitives":[
				{
					"attributes":{
						"POSITION":5,
						"NORMAL":6,
						"TEXCOORD_0":7,
						"TANGENT":8
					},
					"indices":9,
					"material":0
				}
			]
		},
		{
			"name":"Cube.550",
			"primitives":[
				{
					"attributes":{
						"POSITION":10,
						"NORMAL":11,
						"TEXCOORD_0":12
					},
					"indices":13,
					"material":1
				},
				{
					"attributes":{
						"POSITION":14,
						"NORMAL":15,
						"TEXCOORD_0":16
					},
					"indices":17,
					"material":2
				},
				{
					"attributes":{
						"POSITION":18,
						"NORMAL":19,
						"TEXCOORD_0":20
					},
					"indices":21,
					"material":2
				}
			]
		}
	],
	"textures":[
		{
			"sampler":0,
			"source":0
		},
		{
			"sampler":0,
			"source":0
		}
	],
	"images":[
		{
			"mimeType":"image/png",
			"name":"AvatarWearables_TX",
			"uri":"tex/AvatarWearables_TX.png"
		}
	],
	"accessors":[
		{
			"bufferView":0,
			"componentType":5126,
			"count":36,
			"max":[
				0.5080313682556152,
				-14.900496482849121,
				0.5080311298370361
			],
			"min":[
				-0.5080313682556152,
				-14.900496482849121,
				-0.5080316066741943
			],
			"type":"VEC3"
		},
		{
			"bufferView":1,
			"componentType":5126,
			"count":36,
			"type":"VEC3"
		},
		{
			"bufferView":2,
			"componentType":5126,
			"count":36,
			"type":"VEC2"
		},
		{
			"bufferView":3,
			"componentType":5126,
			"count":36,
			"type":"VEC4"
		},
		{
			"bufferView":4,
			"componentType":5123,
			"count":150,
			"type":"SCALAR"
		},
		{
			"bufferView":5,
			"componentType":5126,
			"count":12,
			"max":[
				-0.812067985534668,
				-3.5490622520446777,
				1.0608196258544922
			],
			"min":[
				-1.0608205795288086,
				-3.68866229057312,
				0.9881448745727539
			],
			"type":"VEC3"
		},
		{
			"bufferView":6,
			"componentType":5126,
			"count":12,
			"type":"VEC3"
		},
		{
			"bufferView":7,
			"componentType":5126,
			"count":12,
			"type":"VEC2"
		},
		{
			"bufferView":8,
			"componentType":5126,
			"count":12,
			"type":"VEC4"
		},
		{
			"bufferView":9,
			"componentType":5123,
			"count":12,
			"type":"SCALAR"
		},
		{
			"bufferView":10,
			"componentType":5126,
			"count":2567,
			"max":[
				1.2756187915802002,
				1.1148662567138672,
				0.15311217308044434
			],
			"min":[
				-1.7164866924285889,
				-8.31036376953125,
				-2.736100196838379
			],
			"type":"VEC3"
		},
		{
			"bufferView":11,
			"componentType":5126,
			"count":2567,
			"type":"VEC3"
		},
		{
			"bufferView":12,
			"componentType":5126,
			"count":2567,
			"type":"VEC2"
		},
		{
			"bufferView":13,
			"componentType":5123,
			"count":5400,
			"type":"SCALAR"
		},
		{
			"bufferView":14,
			"componentType":5126,
			"count":568,
			"max":[
				1.1560571193695068,
				1.1148662567138672,
				0.10075151920318604
			],
			"min":[
				-1.5969297885894775,
				-7.4632887840271,
				-2.6995644569396973
			],
			"type":"VEC3"
		},
		{
			"bufferView":15,
			"componentType":5126,
			"count":568,
			"type":"VEC3"
		},
		{
			"bufferView":16,
			"componentType":5126,
			"count":568,
			"type":"VEC2"
		},
		{
			"bufferView":17,
			"componentType":5123,
			"count":1005,
			"type":"SCALAR"
		},
		{
			"bufferView":18,
			"componentType":5126,
			"count":397,
			"max":[
				1.2756187915802002,
				1.1148662567138672,
				-1.865604043006897
			],
			"min":[
				-1.7164866924285889,
				-8.31036376953125,
				-2.736100196838379
			],
			"type":"VEC3"
		},
		{
			"bufferView":19,
			"componentType":5126,
			"count":397,
			"type":"VEC3"
		},
		{
			"bufferView":20,
			"componentType":5126,
			"count":397,
			"type":"VEC2"
		},
		{
			"bufferView":21,
			"componentType":5123,
			"count":1023,
			"type":"SCALAR"
		}
	],
	"bufferViews":[
		{
			"buffer":0,
			"byteLength":432,
			"byteOffset":0,
			"target":34962
		},
		{
			"buffer":0,
			"byteLength":432,
			"byteOffset":432,
			"target":34962
		},
		{
			"buffer":0,
			"byteLength":288,
			"byteOffset":864,
			"target":34962
		},
		{
			"buffer":0,
			"byteLength":576,
			"byteOffset":1152,
			"target":34962
		},
		{
			"buffer":0,
			"byteLength":300,
			"byteOffset":1728,
			"target":34963
		},
		{
			"buffer":0,
			"byteLength":144,
			"byteOffset":2028,
			"target":34962
		},
		{
			"buffer":0,
			"byteLength":144,
			"byteOffset":2172,
			"target":34962
		},
		{
			"buffer":0,
			"byteLength":96,
			"byteOffset":2316,
			"target":34962
		},
		{
			"buffer":0,
			"byteLength":192,
			"byteOffset":2412,
			"target":34962
		},
		{
			"buffer":0,
			"byteLength":24,
			"byteOffset":2604,
			"target":34963
		},
		{
			"buffer":0,
			"byteLength":30804,
			"byteOffset":2628,
			"target":34962
		},
		{
			"buffer":0,
			"byteLength":30804,
			"byteOffset":33432,
			"target":34962
		},
		{
			"buffer":0,
			"byteLength":20536,
			"byteOffset":64236,
			"target":34962
		},
		{
			"buffer":0,
			"byteLength":10800,
			"byteOffset":84772,
			"target":34963
		},
		{
			"buffer":0,
			"byteLength":6816,
			"byteOffset":95572,
			"target":34962
		},
		{
			"buffer":0,
			"byteLength":6816,
			"byteOffset":102388,
			"target":34962
		},
		{
			"buffer":0,
			"byteLength":4544,
			"byteOffset":109204,
			"target":34962
		},
		{
			"buffer":0,
			"byteLength":2010,
			"byteOffset":113748,
			"target":34963
		},
		{
			"buffer":0,
			"byteLength":4764,
			"byteOffset":115760,
			"target":34962
		},
		{
			"buffer":0,
			"byteLength":4764,
			"byteOffset":120524,
			"target":34962
		},
		{
			"buffer":0,
			"byteLength":3176,
			"byteOffset":125288,
			"target":34962
		},
		{
			"buffer":0,
			"byteLength":2046,
			"byteOffset":128464,
			"target":34963
		}
	],
	"samplers":[
		{
			"magFilter":9729,
			"minFilter":9987
		}
	],
	"buffers":[
		{
			"byteLength":130512,
			"uri":"tile_5_0_2.bin"
		}
	]
}
