{
	"asset":{
		"generator":"Khronos glTF Blender I/O v4.0.44",
		"version":"2.0"
	},
	"extensionsUsed":[
		"KHR_materials_specular",
		"KHR_materials_ior",
		"KHR_materials_emissive_strength"
	],
	"scene":0,
	"scenes":[
		{
			"name":"Scene",
			"nodes":[
				0,
				1,
				2,
				3
			]
		}
	],
	"nodes":[
		{
			"mesh":0,
			"name":"Plane",
			"scale":[
				7.873531341552734,
				0.9841914176940918,
				7.873531341552734
			]
		},
		{
			"mesh":1,
			"name":"Plane.001",
			"scale":[
				3.7706682682037354,
				3.7706682682037354,
				3.7706682682037354
			]
		},
		{
			"name":"Cylinder.007",
			"rotation":[
				0,
				0.8282679915428162,
				0,
				0.560332179069519
			],
			"scale":[
				0.7161911129951477,
				3.966937303543091,
				0.7161911129951477
			]
		},
		{
			"mesh":2,
			"name":"Cube.011",
			"rotation":[
				0,
				-0.06093847379088402,
				0,
				0.9981415271759033
			],
			"scale":[
				1.608573317527771,
				1.6085731983184814,
				1.608573317527771
			]
		}
	],
	"materials":[
		{
			"doubleSided":true,
			"extensions":{
				"KHR_materials_specular":{
					"specularColorFactor":[
						2.0,
						2.0,
						2.0
					]
				},
				"KHR_materials_ior":{
					"ior":1.4500000476837158
				}
			},
			"name":"building",
			"pbrMetallicRoughness":{
				"baseColorTexture":{
					"index":0
				},
				"metallicFactor":0
			}
		},
		{
			"doubleSided":true,
			"extensions":{
				"KHR_materials_specular":{
					"specularColorFactor":[
						2.0,
						2.0,
						2.0
					]
				},
				"KHR_materials_ior":{
					"ior":1.4500000476837158
				}
			},
			"name":"building2",
			"pbrMetallicRoughness":{
				"baseColorTexture":{
					"index":1
				},
				"metallicFactor":0,
				"roughnessFactor":0.17924527823925018
			}
		},
		{
			"doubleSided":true,
			"emissiveFactor":[
				1,
				0.10824445978162396,
				1
			],
			"extensions":{
				"KHR_materials_emissive_strength":{
					"emissiveStrength":1.5982129573822021
				}
			},
			"name":"Glow7",
			"pbrMetallicRoughness":{
				"baseColorFactor":[
					0.7954351902008057,
					0.08631403744220734,
					0.8003629446029663,
					1
				],
				"metallicFactor":0
			}
		}
	],
	"meshes":[
		{
			"name":"Plane.056",
			"primitives":[
				{
					"attributes":{
						"POSITION":0,
						"NORMAL":1,
						"TEXCOORD_0":2
					},
					"indices":3,
					"material":0
				},
				{
					"attributes":{
						"POSITION":4,
						"NORMAL":5,
						"TEXCOORD_0":6
					},
					"indices":7,
					"material":0
				}
			]
		},
		{
			"name":"Plane.057",
			"primitives":[
				{
					"attributes":{
						"POSITION":8,
						"NORMAL":9,
						"TEXCOORD_0":10
					},
					"indices":11,
					"material":0
				}
			]
		},
		{
			"name":"Cube.029",
			"primitives":[
				{
					"attributes":{
						"POSITION":12,
						"NORMAL":13,
						"TEXCOORD_0":14
					},
					"indices":15,
					"material":1
				},
				{
					"attributes":{
						"POSITION":16,
						"NORMAL":17,
						"TEXCOORD_0":18
					},
					"indices":19,
					"material":2
				}
			]
		}
	],
	"textures":[
		{
			"sampler":0,
			"source":0
		},
		{
			"sampler":0,
			"source":0
		}
	],
	"images":[
		{
			"mimeType":"image/png",
			"name":"AvatarWearables_TX",
			"uri":"tex/AvatarWearables_TX.png"
		}
	],
	"accessors":[
		{
			"bufferView":0,
			"componentType":5126,
			"count":131,
			"max":[
				1.0160632133483887,
				-6.4392781257629395,
				0.9180951118469238
			],
			"min":[
				-1.0160622596740723,
				-6.77199649810791,
				-1.0160627365112305
			],
			"type":"VEC3"
		},
		{
			"bufferView":1,
			"componentType":5126,
			"count":131,
			"type":"VEC3"
		},
		{
			"bufferView":2,
			"componentType":5126,
			"count":131,
			"type":"VEC2"
		},
		{
			"bufferView":3,
			"componentType":5123,
			"count":543,
			"type":"SCALAR"
		},
		{
			"bufferView":4,
			"componentType":5126,
			"count":9,
			"max":[
				1.0160632133483887,
				-6.4392781257629395,
				0.9180951118469238
			],
			"min":[
				-1.0160622596740723,
				-6.77199649810791,
				0.6680951118469238
			],
			"type":"VEC3"
		},
		{
			"bufferView":5,
			"componentType":5126,
			"count":9,
			"type":"VEC3"
		},
		{
			"bufferView":6,
			"componentType":5126,
			"count":9,
			"type":"VEC2"
		},
		{
			"bufferView":7,
			"componentType":5123,
			"count":12,
			"type":"SCALAR"
		},
		{
			"bufferView":8,
			"componentType":5126,
			"count":129,
			"max":[
				2.121638298034668,
				-1.4244029521942139,
				2.1216392517089844
			],
			"min":[
				-2.121640205383301,
				-2.1216399669647217,
				-1.6261882781982422
			],
			"type":"VEC3"
		},
		{
			"bufferView":9,
			"componentType":5126,
			"count":129,
			"type":"VEC3"
		},
		{
			"bufferView":10,
			"componentType":5126,
			"count":129,
			"type":"VEC2"
		},
		{
			"bufferView":11,
			"componentType":5123,
			"count":213,
			"type":"SCALAR"
		},
		{
			"bufferView":12,
			"componentType":5126,
			"count":322,
			"max":[
				4.61492395401001,
				0.6024453639984131,
				-2.9860663414001465
			],
			"min":[
				1.327286958694458,
				-4.043183326721191,
				-5.541424751281738
			],
			"type":"VEC3"
		},
		{
			"bufferView":13,
			"componentType":5126,
			"count":322,
			"type":"VEC3"
		},
		{
			"bufferView":14,
			"componentType":5126,
			"count":322,
			"type":"VEC2"
		},
		{
			"bufferView":15,
			"componentType":5123,
			"count":738,
			"type":"SCALAR"
		},
		{
			"bufferView":16,
			"componentType":5126,
			"count":93,
			"max":[
				4.606101989746094,
				0.6024458408355713,
				-2.9860658645629883
			],
			"min":[
				1.327286958694458,
				-4.043183326721191,
				-5.34274435043335
			],
			"type":"VEC3"
		},
		{
			"bufferView":17,
			"componentType":5126,
			"count":93,
			"type":"VEC3"
		},
		{
			"bufferView":18,
			"componentType":5126,
			"count":93,
			"type":"VEC2"
		},
		{
			"bufferView":19,
			"componentType":5123,
			"count":183,
			"type":"SCALAR"
		}
	],
	"bufferViews":[
		{
			"buffer":0,
			"byteLength":1572,
			"byteOffset":0,
			"target":34962
		},
		{
			"buffer":0,
			"byteLength":1572,
			"byteOffset":1572,
			"target":34962
		},
		{
			"buffer":0,
			"byteLength":1048,
			"byteOffset":3144,
			"target":34962
		},
		{
			"buffer":0,
			"byteLength":1086,
			"byteOffset":4192,
			"target":34963
		},
		{
			"buffer":0,
			"byteLength":108,
			"byteOffset":5280,
			"target":34962
		},
		{
			"buffer":0,
			"byteLength":108,
			"byteOffset":5388,
			"target":34962
		},
		{
			"buffer":0,
			"byteLength":72,
			"byteOffset":5496,
			"target":34962
		},
		{
			"buffer":0,
			"byteLength":24,
			"byteOffset":5568,
			"target":34963
		},
		{
			"buffer":0,
			"byteLength":1548,
			"byteOffset":5592,
			"target":34962
		},
		{
			"buffer":0,
			"byteLength":1548,
			"byteOffset":7140,
			"target":34962
		},
		{
			"buffer":0,
			"byteLength":1032,
			"byteOffset":8688,
			"target":34962
		},
		{
			"buffer":0,
			"byteLength":426,
			"byteOffset":9720,
			"target":34963
		},
		{
			"buffer":0,
			"byteLength":3864,
			"byteOffset":10148,
			"target":34962
		},
		{
			"buffer":0,
			"byteLength":3864,
			"byteOffset":14012,
			"target":34962
		},
		{
			"buffer":0,
			"byteLength":2576,
			"byteOffset":17876,
			"target":34962
		},
		{
			"buffer":0,
			"byteLength":1476,
			"byteOffset":20452,
			"target":34963
		},
		{
			"buffer":0,
			"byteLength":1116,
			"byteOffset":21928,
			"target":34962
		},
		{
			"buffer":0,
			"byteLength":1116,
			"byteOffset":23044,
			"target":34962
		},
		{
			"buffer":0,
			"byteLength":744,
			"byteOffset":24160,
			"target":34962
		},
		{
			"buffer":0,
			"byteLength":366,
			"byteOffset":24904,
			"target":34963
		}
	],
	"samplers":[
		{
			"magFilter":9729,
			"minFilter":9987
		}
	],
	"buffers":[
		{
			"byteLength":25272,
			"uri":"tile_3_1_0.bin"
		}
	]
}
