{
	"asset":{
		"generator":"Khronos glTF Blender I/O v4.0.44",
		"version":"2.0"
	},
	"extensionsUsed":[
		"KHR_materials_specular",
		"KHR_materials_ior",
		"KHR_materials_emissive_strength"
	],
	"scene":0,
	"scenes":[
		{
			"name":"Scene",
			"nodes":[
				0,
				1,
				2
			]
		}
	],
	"nodes":[
		{
			"mesh":0,
			"name":"Plane",
			"scale":[
				7.873531341552734,
				0.9841914176940918,
				7.873531341552734
			]
		},
		{
			"mesh":1,
			"name":"track.260",
			"scale":[
				3.7706682682037354,
				3.7706682682037354,
				3.7706682682037354
			]
		},
		{
			"mesh":2,
			"name":"Torus.038",
			"rotation":[
				0.7071069478988647,
				0,
				0,
				0.7071066498756409
			],
			"scale":[
				0.9492737650871277,
				0.949273943901062,
				0.949273943901062
			]
		}
	],
	"materials":[
		{
			"doubleSided":true,
			"extensions":{
				"KHR_materials_specular":{
					"specularColorFactor":[
						2.0,
						2.0,
						2.0
					]
				},
				"KHR_materials_ior":{
					"ior":1.4500000476837158
				}
			},
			"name":"building",
			"pbrMetallicRoughness":{
				"baseColorTexture":{
					"index":0
				},
				"metallicFactor":0
			}
		},
		{
			"doubleSided":true,
			"emissiveFactor":[
				1,
				0.003797386313042906,
				0
			],
			"extensions":{
				"KHR_materials_emissive_strength":{
					"emissiveStrength":7.991064786911011
				}
			},
			"name":"Glow9",
			"pbrMetallicRoughness":{
				"baseColorFactor":[
					0.8000000715255737,
					0.0031031807884573936,
					0,
					1
				],
				"metallicFactor":0
			}
		},
		{
			"doubleSided":true,
			"emissiveFactor":[
				1,
				1,
				1
			],
			"extensions":{
				"KHR_materials_emissive_strength":{
					"emissiveStrength":4
				}
			},
			"name":"Glow2",
			"pbrMetallicRoughness":{
				"baseColorFactor":[
					0.800000011920929,
					0.800000011920929,
					0.800000011920929,
					1
				],
				"metallicFactor":0,
				"roughnessFactor":0.5
			}
		}
	],
	"meshes":[
		{
			"name":"Plane.1170",
			"primitives":[
				{
					"attributes":{
						"POSITION":0,
						"NORMAL":1,
						"TEXCOORD_0":2,
						"TANGENT":3
					},
					"indices":4,
					"material":0
				}
			]
		},
		{
			"name":"Plane.1171",
			"primitives":[
				{
					"attributes":{
						"POSITION":5,
						"NORMAL":6,
						"TEXCOORD_0":7
					},
					"indices":8,
					"material":0
				}
			]
		},
		{
			"name":"Torus.086",
			"primitives":[
				{
					"attributes":{
						"POSITION":9,
						"NORMAL":10,
						"TEXCOORD_0":11
					},
					"indices":12,
					"material":0
				},
				{
					"attributes":{
						"POSITION":13,
						"NORMAL":14,
						"TEXCOORD_0":15
					},
					"indices":16,
					"material":1
				},
				{
					"attributes":{
						"POSITION":17,
						"NORMAL":18,
						"TEXCOORD_0":19
					},
					"indices":20,
					"material":2
				}
			]
		}
	],
	"textures":[
		{
			"sampler":0,
			"source":0
		}
	],
	"images":[
		{
			"mimeType":"image/png",
			"name":"AvatarWearables_TX",
			"uri":"tex/AvatarWearables_TX.png"
		}
	],
	"accessors":[
		{
			"bufferView":0,
			"componentType":5126,
			"count":36,
			"max":[
				0.508030891418457,
				-14.900496482849121,
				0.5080312490463257
			],
			"min":[
				-0.508030891418457,
				-14.900496482849121,
				-0.5080313682556152
			],
			"type":"VEC3"
		},
		{
			"bufferView":1,
			"componentType":5126,
			"count":36,
			"type":"VEC3"
		},
		{
			"bufferView":2,
			"componentType":5126,
			"count":36,
			"type":"VEC2"
		},
		{
			"bufferView":3,
			"componentType":5126,
			"count":36,
			"type":"VEC4"
		},
		{
			"bufferView":4,
			"componentType":5123,
			"count":150,
			"type":"SCALAR"
		},
		{
			"bufferView":5,
			"componentType":5126,
			"count":71,
			"max":[
				1.0608158111572266,
				-3.545849084854126,
				1.0608198642730713
			],
			"min":[
				0.0948486328125,
				-4.243279933929443,
				-1.0608196258544922
			],
			"type":"VEC3"
		},
		{
			"bufferView":6,
			"componentType":5126,
			"count":71,
			"type":"VEC3"
		},
		{
			"bufferView":7,
			"componentType":5126,
			"count":71,
			"type":"VEC2"
		},
		{
			"bufferView":8,
			"componentType":5123,
			"count":123,
			"type":"SCALAR"
		},
		{
			"bufferView":9,
			"componentType":5126,
			"count":425,
			"max":[
				0.9080413579940796,
				4.213750839233398,
				15.048320770263672
			],
			"min":[
				-2.8882904052734375,
				3.0349652767181396,
				8.706875801086426
			],
			"type":"VEC3"
		},
		{
			"bufferView":10,
			"componentType":5126,
			"count":425,
			"type":"VEC3"
		},
		{
			"bufferView":11,
			"componentType":5126,
			"count":425,
			"type":"VEC2"
		},
		{
			"bufferView":12,
			"componentType":5123,
			"count":1506,
			"type":"SCALAR"
		},
		{
			"bufferView":13,
			"componentType":5126,
			"count":21,
			"max":[
				0.7761640548706055,
				4.213750839233398,
				14.955230712890625
			],
			"min":[
				-2.776989698410034,
				3.937457799911499,
				8.853193283081055
			],
			"type":"VEC3"
		},
		{
			"bufferView":14,
			"componentType":5126,
			"count":21,
			"type":"VEC3"
		},
		{
			"bufferView":15,
			"componentType":5126,
			"count":21,
			"type":"VEC2"
		},
		{
			"bufferView":16,
			"componentType":5123,
			"count":51,
			"type":"SCALAR"
		},
		{
			"bufferView":17,
			"componentType":5126,
			"count":19,
			"max":[
				0.7768324613571167,
				4.213750839233398,
				14.245770454406738
			],
			"min":[
				-2.262226104736328,
				3.0349652767181396,
				9.55912971496582
			],
			"type":"VEC3"
		},
		{
			"bufferView":18,
			"componentType":5126,
			"count":19,
			"type":"VEC3"
		},
		{
			"bufferView":19,
			"componentType":5126,
			"count":19,
			"type":"VEC2"
		},
		{
			"bufferView":20,
			"componentType":5123,
			"count":51,
			"type":"SCALAR"
		}
	],
	"bufferViews":[
		{
			"buffer":0,
			"byteLength":432,
			"byteOffset":0,
			"target":34962
		},
		{
			"buffer":0,
			"byteLength":432,
			"byteOffset":432,
			"target":34962
		},
		{
			"buffer":0,
			"byteLength":288,
			"byteOffset":864,
			"target":34962
		},
		{
			"buffer":0,
			"byteLength":576,
			"byteOffset":1152,
			"target":34962
		},
		{
			"buffer":0,
			"byteLength":300,
			"byteOffset":1728,
			"target":34963
		},
		{
			"buffer":0,
			"byteLength":852,
			"byteOffset":2028,
			"target":34962
		},
		{
			"buffer":0,
			"byteLength":852,
			"byteOffset":2880,
			"target":34962
		},
		{
			"buffer":0,
			"byteLength":568,
			"byteOffset":3732,
			"target":34962
		},
		{
			"buffer":0,
			"byteLength":246,
			"byteOffset":4300,
			"target":34963
		},
		{
			"buffer":0,
			"byteLength":5100,
			"byteOffset":4548,
			"target":34962
		},
		{
			"buffer":0,
			"byteLength":5100,
			"byteOffset":9648,
			"target":34962
		},
		{
			"buffer":0,
			"byteLength":3400,
			"byteOffset":14748,
			"target":34962
		},
		{
			"buffer":0,
			"byteLength":3012,
			"byteOffset":18148,
			"target":34963
		},
		{
			"buffer":0,
			"byteLength":252,
			"byteOffset":21160,
			"target":34962
		},
		{
			"buffer":0,
			"byteLength":252,
			"byteOffset":21412,
			"target":34962
		},
		{
			"buffer":0,
			"byteLength":168,
			"byteOffset":21664,
			"target":34962
		},
		{
			"buffer":0,
			"byteLength":102,
			"byteOffset":21832,
			"target":34963
		},
		{
			"buffer":0,
			"byteLength":228,
			"byteOffset":21936,
			"target":34962
		},
		{
			"buffer":0,
			"byteLength":228,
			"byteOffset":22164,
			"target":34962
		},
		{
			"buffer":0,
			"byteLength":152,
			"byteOffset":22392,
			"target":34962
		},
		{
			"buffer":0,
			"byteLength":102,
			"byteOffset":22544,
			"target":34963
		}
	],
	"samplers":[
		{
			"magFilter":9729,
			"minFilter":9987
		}
	],
	"buffers":[
		{
			"byteLength":22648,
			"uri":"tile_21_0_7.bin"
		}
	]
}
