{
	"asset":{
		"generator":"Khronos glTF Blender I/O v4.0.44",
		"version":"2.0"
	},
	"extensionsUsed":[
		"KHR_materials_specular",
		"KHR_materials_ior",
		"KHR_materials_emissive_strength"
	],
	"scene":0,
	"scenes":[
		{
			"name":"Scene",
			"nodes":[
				0,
				1,
				2
			]
		}
	],
	"nodes":[
		{
			"mesh":0,
			"name":"Plane",
			"scale":[
				7.873531341552734,
				0.9841914176940918,
				7.873531341552734
			]
		},
		{
			"mesh":1,
			"name":"Plane.001",
			"scale":[
				3.7706682682037354,
				3.7706682682037354,
				3.7706682682037354
			]
		},
		{
			"mesh":2,
			"name":"Cube.011",
			"rotation":[
				0,
				-0.06093847379088402,
				0,
				0.9981415271759033
			],
			"scale":[
				1.608573317527771,
				1.6085731983184814,
				1.608573317527771
			]
		}
	],
	"materials":[
		{
			"doubleSided":true,
			"extensions":{
				"KHR_materials_specular":{
					"specularColorFactor":[
						2.0,
						2.0,
						2.0
					]
				},
				"KHR_materials_ior":{
					"ior":1.4500000476837158
				}
			},
			"name":"building",
			"pbrMetallicRoughness":{
				"baseColorTexture":{
					"index":0
				},
				"metallicFactor":0
			}
		},
		{
			"doubleSided":true,
			"extensions":{
				"KHR_materials_specular":{
					"specularColorFactor":[
						2.0,
						2.0,
						2.0
					]
				},
				"KHR_materials_ior":{
					"ior":1.4500000476837158
				}
			},
			"name":"building2",
			"pbrMetallicRoughness":{
				"baseColorTexture":{
					"index":1
				},
				"metallicFactor":0,
				"roughnessFactor":0.17924527823925018
			}
		},
		{
			"doubleSided":true,
			"emissiveFactor":[
				1,
				0.10824445978162396,
				1
			],
			"extensions":{
				"KHR_materials_emissive_strength":{
					"emissiveStrength":1.5982129573822021
				}
			},
			"name":"Glow7",
			"pbrMetallicRoughness":{
				"baseColorFactor":[
					0.7954351902008057,
					0.08631403744220734,
					0.8003629446029663,
					1
				],
				"metallicFactor":0
			}
		}
	],
	"meshes":[
		{
			"name":"Plane.074",
			"primitives":[
				{
					"attributes":{
						"POSITION":0,
						"NORMAL":1,
						"TEXCOORD_0":2
					},
					"indices":3,
					"material":0
				},
				{
					"attributes":{
						"POSITION":4,
						"NORMAL":5,
						"TEXCOORD_0":6
					},
					"indices":7,
					"material":0
				}
			]
		},
		{
			"name":"Plane.075",
			"primitives":[
				{
					"attributes":{
						"POSITION":8,
						"NORMAL":9,
						"TEXCOORD_0":10
					},
					"indices":11,
					"material":0
				}
			]
		},
		{
			"name":"Cube.039",
			"primitives":[
				{
					"attributes":{
						"POSITION":12,
						"NORMAL":13,
						"TEXCOORD_0":14
					},
					"indices":15,
					"material":1
				},
				{
					"attributes":{
						"POSITION":16,
						"NORMAL":17,
						"TEXCOORD_0":18
					},
					"indices":19,
					"material":2
				}
			]
		}
	],
	"textures":[
		{
			"sampler":0,
			"source":0
		},
		{
			"sampler":0,
			"source":0
		}
	],
	"images":[
		{
			"mimeType":"image/png",
			"name":"AvatarWearables_TX",
			"uri":"tex/AvatarWearables_TX.png"
		}
	],
	"accessors":[
		{
			"bufferView":0,
			"componentType":5126,
			"count":138,
			"max":[
				1.0160624980926514,
				-6.228944301605225,
				0.9180951118469238
			],
			"min":[
				-1.0160627365112305,
				-6.77199649810791,
				-1.0160627365112305
			],
			"type":"VEC3"
		},
		{
			"bufferView":1,
			"componentType":5126,
			"count":138,
			"type":"VEC3"
		},
		{
			"bufferView":2,
			"componentType":5126,
			"count":138,
			"type":"VEC2"
		},
		{
			"bufferView":3,
			"componentType":5123,
			"count":564,
			"type":"SCALAR"
		},
		{
			"bufferView":4,
			"componentType":5126,
			"count":19,
			"max":[
				1.0160624980926514,
				-6.228944301605225,
				0.9180951118469238
			],
			"min":[
				-1.0160627365112305,
				-6.77199649810791,
				-1.0160627365112305
			],
			"type":"VEC3"
		},
		{
			"bufferView":5,
			"componentType":5126,
			"count":19,
			"type":"VEC3"
		},
		{
			"bufferView":6,
			"componentType":5126,
			"count":19,
			"type":"VEC2"
		},
		{
			"bufferView":7,
			"componentType":5123,
			"count":33,
			"type":"SCALAR"
		},
		{
			"bufferView":8,
			"componentType":5126,
			"count":130,
			"max":[
				2.1216378211975098,
				-1.4241341352462769,
				2.1216392517089844
			],
			"min":[
				-2.121641159057617,
				-2.1216399669647217,
				-0.8930530548095703
			],
			"type":"VEC3"
		},
		{
			"bufferView":9,
			"componentType":5126,
			"count":130,
			"type":"VEC3"
		},
		{
			"bufferView":10,
			"componentType":5126,
			"count":130,
			"type":"VEC2"
		},
		{
			"bufferView":11,
			"componentType":5123,
			"count":216,
			"type":"SCALAR"
		},
		{
			"bufferView":12,
			"componentType":5126,
			"count":292,
			"max":[
				-3.9760568141937256,
				0.6024453639984131,
				-1.776045322418213
			],
			"min":[
				-5.541424751281738,
				-4.043183326721191,
				-4.49382209777832
			],
			"type":"VEC3"
		},
		{
			"bufferView":13,
			"componentType":5126,
			"count":292,
			"type":"VEC3"
		},
		{
			"bufferView":14,
			"componentType":5126,
			"count":292,
			"type":"VEC2"
		},
		{
			"bufferView":15,
			"componentType":5123,
			"count":636,
			"type":"SCALAR"
		},
		{
			"bufferView":16,
			"componentType":5126,
			"count":66,
			"max":[
				-3.9760560989379883,
				0.6024453639984131,
				-1.7760448455810547
			],
			"min":[
				-5.415045738220215,
				-4.043183326721191,
				-4.448989391326904
			],
			"type":"VEC3"
		},
		{
			"bufferView":17,
			"componentType":5126,
			"count":66,
			"type":"VEC3"
		},
		{
			"bufferView":18,
			"componentType":5126,
			"count":66,
			"type":"VEC2"
		},
		{
			"bufferView":19,
			"componentType":5123,
			"count":135,
			"type":"SCALAR"
		}
	],
	"bufferViews":[
		{
			"buffer":0,
			"byteLength":1656,
			"byteOffset":0,
			"target":34962
		},
		{
			"buffer":0,
			"byteLength":1656,
			"byteOffset":1656,
			"target":34962
		},
		{
			"buffer":0,
			"byteLength":1104,
			"byteOffset":3312,
			"target":34962
		},
		{
			"buffer":0,
			"byteLength":1128,
			"byteOffset":4416,
			"target":34963
		},
		{
			"buffer":0,
			"byteLength":228,
			"byteOffset":5544,
			"target":34962
		},
		{
			"buffer":0,
			"byteLength":228,
			"byteOffset":5772,
			"target":34962
		},
		{
			"buffer":0,
			"byteLength":152,
			"byteOffset":6000,
			"target":34962
		},
		{
			"buffer":0,
			"byteLength":66,
			"byteOffset":6152,
			"target":34963
		},
		{
			"buffer":0,
			"byteLength":1560,
			"byteOffset":6220,
			"target":34962
		},
		{
			"buffer":0,
			"byteLength":1560,
			"byteOffset":7780,
			"target":34962
		},
		{
			"buffer":0,
			"byteLength":1040,
			"byteOffset":9340,
			"target":34962
		},
		{
			"buffer":0,
			"byteLength":432,
			"byteOffset":10380,
			"target":34963
		},
		{
			"buffer":0,
			"byteLength":3504,
			"byteOffset":10812,
			"target":34962
		},
		{
			"buffer":0,
			"byteLength":3504,
			"byteOffset":14316,
			"target":34962
		},
		{
			"buffer":0,
			"byteLength":2336,
			"byteOffset":17820,
			"target":34962
		},
		{
			"buffer":0,
			"byteLength":1272,
			"byteOffset":20156,
			"target":34963
		},
		{
			"buffer":0,
			"byteLength":792,
			"byteOffset":21428,
			"target":34962
		},
		{
			"buffer":0,
			"byteLength":792,
			"byteOffset":22220,
			"target":34962
		},
		{
			"buffer":0,
			"byteLength":528,
			"byteOffset":23012,
			"target":34962
		},
		{
			"buffer":0,
			"byteLength":270,
			"byteOffset":23540,
			"target":34963
		}
	],
	"samplers":[
		{
			"magFilter":9729,
			"minFilter":9987
		}
	],
	"buffers":[
		{
			"byteLength":23812,
			"uri":"tile_4_1_0.bin"
		}
	]
}
