{
	"asset":{
		"generator":"Khronos glTF Blender I/O v4.0.44",
		"version":"2.0"
	},
	"extensionsUsed":[
		"KHR_materials_specular",
		"KHR_materials_ior",
		"KHR_materials_emissive_strength"
	],
	"scene":0,
	"scenes":[
		{
			"name":"Scene",
			"nodes":[
				0,
				1,
				2
			]
		}
	],
	"nodes":[
		{
			"mesh":0,
			"name":"Plane",
			"scale":[
				7.873531341552734,
				0.9841914176940918,
				7.873531341552734
			]
		},
		{
			"name":"track.220",
			"scale":[
				3.7706682682037354,
				3.7706682682037354,
				3.7706682682037354
			]
		},
		{
			"mesh":1,
			"name":"Cube.003",
			"rotation":[
				0,
				-0.9460921287536621,
				0,
				0.3238976299762726
			],
			"scale":[
				2.266324758529663,
				2.2663252353668213,
				2.266324758529663
			]
		}
	],
	"materials":[
		{
			"doubleSided":true,
			"extensions":{
				"KHR_materials_specular":{
					"specularColorFactor":[
						2.0,
						2.0,
						2.0
					]
				},
				"KHR_materials_ior":{
					"ior":1.4500000476837158
				}
			},
			"name":"building",
			"pbrMetallicRoughness":{
				"baseColorTexture":{
					"index":0
				},
				"metallicFactor":0
			}
		},
		{
			"doubleSided":true,
			"extensions":{
				"KHR_materials_specular":{
					"specularColorFactor":[
						2.0,
						2.0,
						2.0
					]
				},
				"KHR_materials_ior":{
					"ior":1.4500000476837158
				}
			},
			"name":"building2",
			"pbrMetallicRoughness":{
				"baseColorTexture":{
					"index":1
				},
				"metallicFactor":0,
				"roughnessFactor":0.17924527823925018
			}
		},
		{
			"doubleSided":true,
			"emissiveFactor":[
				0.09784298909313212,
				1,
				0.08569416583338194
			],
			"extensions":{
				"KHR_materials_emissive_strength":{
					"emissiveStrength":1.5982129573822021
				}
			},
			"name":"Glow4",
			"pbrMetallicRoughness":{
				"baseColorFactor":[
					0.078976109623909,
					0.8012131452560425,
					0.06799241155385971,
					1
				],
				"metallicFactor":0
			}
		}
	],
	"meshes":[
		{
			"name":"Plane.1090",
			"primitives":[
				{
					"attributes":{
						"POSITION":0,
						"NORMAL":1,
						"TEXCOORD_0":2
					},
					"indices":3,
					"material":0
				}
			]
		},
		{
			"name":"Cube.681",
			"primitives":[
				{
					"attributes":{
						"POSITION":4,
						"NORMAL":5,
						"TEXCOORD_0":6
					},
					"indices":7,
					"material":1
				},
				{
					"attributes":{
						"POSITION":8,
						"NORMAL":9,
						"TEXCOORD_0":10
					},
					"indices":11,
					"material":2
				},
				{
					"attributes":{
						"POSITION":12,
						"NORMAL":13,
						"TEXCOORD_0":14
					},
					"indices":15,
					"material":2
				}
			]
		}
	],
	"textures":[
		{
			"sampler":0,
			"source":0
		},
		{
			"sampler":0,
			"source":0
		}
	],
	"images":[
		{
			"mimeType":"image/png",
			"name":"AvatarWearables_TX",
			"uri":"tex/AvatarWearables_TX.png"
		}
	],
	"accessors":[
		{
			"bufferView":0,
			"componentType":5126,
			"count":66,
			"max":[
				0.5080313682556152,
				-13.863065719604492,
				0.508030891418457
			],
			"min":[
				-0.5080313682556152,
				-16.256999969482422,
				-0.5080318450927734
			],
			"type":"VEC3"
		},
		{
			"bufferView":1,
			"componentType":5126,
			"count":66,
			"type":"VEC3"
		},
		{
			"bufferView":2,
			"componentType":5126,
			"count":66,
			"type":"VEC2"
		},
		{
			"bufferView":3,
			"componentType":5123,
			"count":219,
			"type":"SCALAR"
		},
		{
			"bufferView":4,
			"componentType":5126,
			"count":3091,
			"max":[
				1.1444121599197388,
				2.969466209411621,
				0.8994556665420532
			],
			"min":[
				-1.8476930856704712,
				-6.45576286315918,
				-2.4763522148132324
			],
			"type":"VEC3"
		},
		{
			"bufferView":5,
			"componentType":5126,
			"count":3091,
			"type":"VEC3"
		},
		{
			"bufferView":6,
			"componentType":5126,
			"count":3091,
			"type":"VEC2"
		},
		{
			"bufferView":7,
			"componentType":5123,
			"count":6471,
			"type":"SCALAR"
		},
		{
			"bufferView":8,
			"componentType":5126,
			"count":675,
			"max":[
				1.0248504877090454,
				2.969466209411621,
				0.8470950126647949
			],
			"min":[
				-1.7281361818313599,
				-5.608687877655029,
				-2.4763522148132324
			],
			"type":"VEC3"
		},
		{
			"bufferView":9,
			"componentType":5126,
			"count":675,
			"type":"VEC3"
		},
		{
			"bufferView":10,
			"componentType":5126,
			"count":675,
			"type":"VEC2"
		},
		{
			"bufferView":11,
			"componentType":5123,
			"count":1200,
			"type":"SCALAR"
		},
		{
			"bufferView":12,
			"componentType":5126,
			"count":628,
			"max":[
				1.1444121599197388,
				2.969466209411621,
				0.8994556665420532
			],
			"min":[
				-1.8476930856704712,
				-6.45576286315918,
				-2.4763522148132324
			],
			"type":"VEC3"
		},
		{
			"bufferView":13,
			"componentType":5126,
			"count":628,
			"type":"VEC3"
		},
		{
			"bufferView":14,
			"componentType":5126,
			"count":628,
			"type":"VEC2"
		},
		{
			"bufferView":15,
			"componentType":5123,
			"count":1809,
			"type":"SCALAR"
		}
	],
	"bufferViews":[
		{
			"buffer":0,
			"byteLength":792,
			"byteOffset":0,
			"target":34962
		},
		{
			"buffer":0,
			"byteLength":792,
			"byteOffset":792,
			"target":34962
		},
		{
			"buffer":0,
			"byteLength":528,
			"byteOffset":1584,
			"target":34962
		},
		{
			"buffer":0,
			"byteLength":438,
			"byteOffset":2112,
			"target":34963
		},
		{
			"buffer":0,
			"byteLength":37092,
			"byteOffset":2552,
			"target":34962
		},
		{
			"buffer":0,
			"byteLength":37092,
			"byteOffset":39644,
			"target":34962
		},
		{
			"buffer":0,
			"byteLength":24728,
			"byteOffset":76736,
			"target":34962
		},
		{
			"buffer":0,
			"byteLength":12942,
			"byteOffset":101464,
			"target":34963
		},
		{
			"buffer":0,
			"byteLength":8100,
			"byteOffset":114408,
			"target":34962
		},
		{
			"buffer":0,
			"byteLength":8100,
			"byteOffset":122508,
			"target":34962
		},
		{
			"buffer":0,
			"byteLength":5400,
			"byteOffset":130608,
			"target":34962
		},
		{
			"buffer":0,
			"byteLength":2400,
			"byteOffset":136008,
			"target":34963
		},
		{
			"buffer":0,
			"byteLength":7536,
			"byteOffset":138408,
			"target":34962
		},
		{
			"buffer":0,
			"byteLength":7536,
			"byteOffset":145944,
			"target":34962
		},
		{
			"buffer":0,
			"byteLength":5024,
			"byteOffset":153480,
			"target":34962
		},
		{
			"buffer":0,
			"byteLength":3618,
			"byteOffset":158504,
			"target":34963
		}
	],
	"samplers":[
		{
			"magFilter":9729,
			"minFilter":9987
		}
	],
	"buffers":[
		{
			"byteLength":162124,
			"uri":"tile_18_0_3.bin"
		}
	]
}
