{
	"asset":{
		"generator":"Khronos glTF Blender I/O v4.0.44",
		"version":"2.0"
	},
	"extensionsUsed":[
		"KHR_materials_specular",
		"KHR_materials_ior",
		"KHR_materials_emissive_strength"
	],
	"scene":0,
	"scenes":[
		{
			"name":"Scene",
			"nodes":[
				0,
				1,
				2
			]
		}
	],
	"nodes":[
		{
			"mesh":0,
			"name":"Plane",
			"scale":[
				7.873531341552734,
				0.9841914176940918,
				7.873531341552734
			]
		},
		{
			"name":"track.127",
			"scale":[
				3.7706682682037354,
				3.7706682682037354,
				3.7706682682037354
			]
		},
		{
			"mesh":1,
			"name":"Icosphere.001",
			"rotation":[
				0,
				-0.8161246180534363,
				0,
				0.5778759717941284
			],
			"scale":[
				8.599296569824219,
				5.349599838256836,
				8.599296569824219
			]
		}
	],
	"materials":[
		{
			"doubleSided":true,
			"extensions":{
				"KHR_materials_specular":{
					"specularColorFactor":[
						2.0,
						2.0,
						2.0
					]
				},
				"KHR_materials_ior":{
					"ior":1.4500000476837158
				}
			},
			"name":"building",
			"pbrMetallicRoughness":{
				"baseColorTexture":{
					"index":0
				},
				"metallicFactor":0
			}
		},
		{
			"doubleSided":true,
			"extensions":{
				"KHR_materials_specular":{
					"specularColorFactor":[
						2.0,
						2.0,
						2.0
					]
				},
				"KHR_materials_ior":{
					"ior":1.4500000476837158
				}
			},
			"name":"building2",
			"pbrMetallicRoughness":{
				"baseColorTexture":{
					"index":1
				},
				"metallicFactor":0,
				"roughnessFactor":0.17924527823925018
			}
		},
		{
			"doubleSided":true,
			"emissiveFactor":[
				1,
				1,
				1
			],
			"extensions":{
				"KHR_materials_emissive_strength":{
					"emissiveStrength":4
				}
			},
			"name":"Glow2",
			"pbrMetallicRoughness":{
				"baseColorFactor":[
					0.800000011920929,
					0.800000011920929,
					0.800000011920929,
					1
				],
				"metallicFactor":0,
				"roughnessFactor":0.5
			}
		}
	],
	"meshes":[
		{
			"name":"Plane.904",
			"primitives":[
				{
					"attributes":{
						"POSITION":0,
						"NORMAL":1,
						"TEXCOORD_0":2
					},
					"indices":3,
					"material":0
				},
				{
					"attributes":{
						"POSITION":4,
						"NORMAL":5,
						"TEXCOORD_0":6
					},
					"indices":7,
					"material":0
				}
			]
		},
		{
			"name":"Icosphere.043",
			"primitives":[
				{
					"attributes":{
						"POSITION":8,
						"NORMAL":9,
						"TEXCOORD_0":10
					},
					"indices":11,
					"material":1
				},
				{
					"attributes":{
						"POSITION":12,
						"NORMAL":13,
						"TEXCOORD_0":14
					},
					"indices":15,
					"material":2
				}
			]
		}
	],
	"textures":[
		{
			"sampler":0,
			"source":0
		},
		{
			"sampler":0,
			"source":0
		}
	],
	"images":[
		{
			"mimeType":"image/png",
			"name":"AvatarWearables_TX",
			"uri":"tex/AvatarWearables_TX.png"
		}
	],
	"accessors":[
		{
			"bufferView":0,
			"componentType":5126,
			"count":55,
			"max":[
				0.5080312490463257,
				-11.708995819091797,
				0.5080312490463257
			],
			"min":[
				-0.5080313682556152,
				-14.900496482849121,
				-0.5080312490463257
			],
			"type":"VEC3"
		},
		{
			"bufferView":1,
			"componentType":5126,
			"count":55,
			"type":"VEC3"
		},
		{
			"bufferView":2,
			"componentType":5126,
			"count":55,
			"type":"VEC2"
		},
		{
			"bufferView":3,
			"componentType":5123,
			"count":219,
			"type":"SCALAR"
		},
		{
			"bufferView":4,
			"componentType":5126,
			"count":38,
			"max":[
				0.5080312490463257,
				-11.708995819091797,
				0.5080312490463257
			],
			"min":[
				-0.5080313682556152,
				-16.256999969482422,
				-0.5080312490463257
			],
			"type":"VEC3"
		},
		{
			"bufferView":5,
			"componentType":5126,
			"count":38,
			"type":"VEC3"
		},
		{
			"bufferView":6,
			"componentType":5126,
			"count":38,
			"type":"VEC2"
		},
		{
			"bufferView":7,
			"componentType":5123,
			"count":78,
			"type":"SCALAR"
		},
		{
			"bufferView":8,
			"componentType":5126,
			"count":303,
			"max":[
				0.5932374596595764,
				-0.42983484268188477,
				0.4416903853416443
			],
			"min":[
				-0.1885066032409668,
				-2.6594796180725098,
				-0.5932374596595764
			],
			"type":"VEC3"
		},
		{
			"bufferView":9,
			"componentType":5126,
			"count":303,
			"type":"VEC3"
		},
		{
			"bufferView":10,
			"componentType":5126,
			"count":303,
			"type":"VEC2"
		},
		{
			"bufferView":11,
			"componentType":5123,
			"count":684,
			"type":"SCALAR"
		},
		{
			"bufferView":12,
			"componentType":5126,
			"count":48,
			"max":[
				0.5879683494567871,
				-0.5913822650909424,
				0.4416903853416443
			],
			"min":[
				-0.1885066032409668,
				-2.6594796180725098,
				-0.48202943801879883
			],
			"type":"VEC3"
		},
		{
			"bufferView":13,
			"componentType":5126,
			"count":48,
			"type":"VEC3"
		},
		{
			"bufferView":14,
			"componentType":5126,
			"count":48,
			"type":"VEC2"
		},
		{
			"bufferView":15,
			"componentType":5123,
			"count":66,
			"type":"SCALAR"
		}
	],
	"bufferViews":[
		{
			"buffer":0,
			"byteLength":660,
			"byteOffset":0,
			"target":34962
		},
		{
			"buffer":0,
			"byteLength":660,
			"byteOffset":660,
			"target":34962
		},
		{
			"buffer":0,
			"byteLength":440,
			"byteOffset":1320,
			"target":34962
		},
		{
			"buffer":0,
			"byteLength":438,
			"byteOffset":1760,
			"target":34963
		},
		{
			"buffer":0,
			"byteLength":456,
			"byteOffset":2200,
			"target":34962
		},
		{
			"buffer":0,
			"byteLength":456,
			"byteOffset":2656,
			"target":34962
		},
		{
			"buffer":0,
			"byteLength":304,
			"byteOffset":3112,
			"target":34962
		},
		{
			"buffer":0,
			"byteLength":156,
			"byteOffset":3416,
			"target":34963
		},
		{
			"buffer":0,
			"byteLength":3636,
			"byteOffset":3572,
			"target":34962
		},
		{
			"buffer":0,
			"byteLength":3636,
			"byteOffset":7208,
			"target":34962
		},
		{
			"buffer":0,
			"byteLength":2424,
			"byteOffset":10844,
			"target":34962
		},
		{
			"buffer":0,
			"byteLength":1368,
			"byteOffset":13268,
			"target":34963
		},
		{
			"buffer":0,
			"byteLength":576,
			"byteOffset":14636,
			"target":34962
		},
		{
			"buffer":0,
			"byteLength":576,
			"byteOffset":15212,
			"target":34962
		},
		{
			"buffer":0,
			"byteLength":384,
			"byteOffset":15788,
			"target":34962
		},
		{
			"buffer":0,
			"byteLength":132,
			"byteOffset":16172,
			"target":34963
		}
	],
	"samplers":[
		{
			"magFilter":9729,
			"minFilter":9987
		}
	],
	"buffers":[
		{
			"byteLength":16304,
			"uri":"tile_10_0_6.bin"
		}
	]
}
