{
	"asset":{
		"generator":"Khronos glTF Blender I/O v4.0.44",
		"version":"2.0"
	},
	"extensionsUsed":[
		"KHR_materials_specular",
		"KHR_materials_ior"
	],
	"scene":0,
	"scenes":[
		{
			"name":"Scene",
			"nodes":[
				0,
				1
			]
		}
	],
	"nodes":[
		{
			"mesh":0,
			"name":"Plane",
			"scale":[
				7.873531341552734,
				0.9841914176940918,
				7.873531341552734
			]
		},
		{
			"mesh":1,
			"name":"track.071",
			"scale":[
				3.7706682682037354,
				3.7706682682037354,
				3.7706682682037354
			]
		}
	],
	"materials":[
		{
			"doubleSided":true,
			"extensions":{
				"KHR_materials_specular":{
					"specularColorFactor":[
						2.0,
						2.0,
						2.0
					]
				},
				"KHR_materials_ior":{
					"ior":1.4500000476837158
				}
			},
			"name":"building",
			"pbrMetallicRoughness":{
				"baseColorTexture":{
					"index":0
				},
				"metallicFactor":0
			}
		}
	],
	"meshes":[
		{
			"name":"Plane.794",
			"primitives":[
				{
					"attributes":{
						"POSITION":0,
						"NORMAL":1,
						"TEXCOORD_0":2,
						"TANGENT":3
					},
					"indices":4,
					"material":0
				},
				{
					"attributes":{
						"POSITION":5,
						"NORMAL":6,
						"TEXCOORD_0":7,
						"TANGENT":8
					},
					"indices":9,
					"material":0
				}
			]
		},
		{
			"name":"Plane.795",
			"primitives":[
				{
					"attributes":{
						"POSITION":10,
						"NORMAL":11,
						"TEXCOORD_0":12
					},
					"indices":13,
					"material":0
				},
				{
					"attributes":{
						"POSITION":14,
						"NORMAL":15,
						"TEXCOORD_0":16
					},
					"indices":17,
					"material":0
				}
			]
		}
	],
	"textures":[
		{
			"sampler":0,
			"source":0
		}
	],
	"images":[
		{
			"mimeType":"image/png",
			"name":"AvatarWearables_TX",
			"uri":"tex/AvatarWearables_TX.png"
		}
	],
	"accessors":[
		{
			"bufferView":0,
			"componentType":5126,
			"count":54,
			"max":[
				0.5080313682556152,
				-14.567778587341309,
				0.5080313682556152
			],
			"min":[
				-0.5080313682556152,
				-14.900496482849121,
				-0.41324806213378906
			],
			"type":"VEC3"
		},
		{
			"bufferView":1,
			"componentType":5126,
			"count":54,
			"type":"VEC3"
		},
		{
			"bufferView":2,
			"componentType":5126,
			"count":54,
			"type":"VEC2"
		},
		{
			"bufferView":3,
			"componentType":5126,
			"count":54,
			"type":"VEC4"
		},
		{
			"bufferView":4,
			"componentType":5123,
			"count":180,
			"type":"SCALAR"
		},
		{
			"bufferView":5,
			"componentType":5126,
			"count":8,
			"max":[
				0.5080313682556152,
				-14.567778587341309,
				-0.16324806213378906
			],
			"min":[
				-0.5080313682556152,
				-14.900496482849121,
				-0.41324806213378906
			],
			"type":"VEC3"
		},
		{
			"bufferView":6,
			"componentType":5126,
			"count":8,
			"type":"VEC3"
		},
		{
			"bufferView":7,
			"componentType":5126,
			"count":8,
			"type":"VEC2"
		},
		{
			"bufferView":8,
			"componentType":5126,
			"count":8,
			"type":"VEC4"
		},
		{
			"bufferView":9,
			"componentType":5123,
			"count":12,
			"type":"SCALAR"
		},
		{
			"bufferView":10,
			"componentType":5126,
			"count":43,
			"max":[
				1.0608196258544922,
				-3.524709939956665,
				1.0608196258544922
			],
			"min":[
				0.01918792724609375,
				-4.107334136962891,
				0.13834667205810547
			],
			"type":"VEC3"
		},
		{
			"bufferView":11,
			"componentType":5126,
			"count":43,
			"type":"VEC3"
		},
		{
			"bufferView":12,
			"componentType":5126,
			"count":43,
			"type":"VEC2"
		},
		{
			"bufferView":13,
			"componentType":5123,
			"count":69,
			"type":"SCALAR"
		},
		{
			"bufferView":14,
			"componentType":5126,
			"count":19,
			"max":[
				1.0608196258544922,
				-3.527221918106079,
				1.0608196258544922
			],
			"min":[
				0.01918792724609375,
				-4.243279457092285,
				0.13834667205810547
			],
			"type":"VEC3"
		},
		{
			"bufferView":15,
			"componentType":5126,
			"count":19,
			"type":"VEC3"
		},
		{
			"bufferView":16,
			"componentType":5126,
			"count":19,
			"type":"VEC2"
		},
		{
			"bufferView":17,
			"componentType":5123,
			"count":45,
			"type":"SCALAR"
		}
	],
	"bufferViews":[
		{
			"buffer":0,
			"byteLength":648,
			"byteOffset":0,
			"target":34962
		},
		{
			"buffer":0,
			"byteLength":648,
			"byteOffset":648,
			"target":34962
		},
		{
			"buffer":0,
			"byteLength":432,
			"byteOffset":1296,
			"target":34962
		},
		{
			"buffer":0,
			"byteLength":864,
			"byteOffset":1728,
			"target":34962
		},
		{
			"buffer":0,
			"byteLength":360,
			"byteOffset":2592,
			"target":34963
		},
		{
			"buffer":0,
			"byteLength":96,
			"byteOffset":2952,
			"target":34962
		},
		{
			"buffer":0,
			"byteLength":96,
			"byteOffset":3048,
			"target":34962
		},
		{
			"buffer":0,
			"byteLength":64,
			"byteOffset":3144,
			"target":34962
		},
		{
			"buffer":0,
			"byteLength":128,
			"byteOffset":3208,
			"target":34962
		},
		{
			"buffer":0,
			"byteLength":24,
			"byteOffset":3336,
			"target":34963
		},
		{
			"buffer":0,
			"byteLength":516,
			"byteOffset":3360,
			"target":34962
		},
		{
			"buffer":0,
			"byteLength":516,
			"byteOffset":3876,
			"target":34962
		},
		{
			"buffer":0,
			"byteLength":344,
			"byteOffset":4392,
			"target":34962
		},
		{
			"buffer":0,
			"byteLength":138,
			"byteOffset":4736,
			"target":34963
		},
		{
			"buffer":0,
			"byteLength":228,
			"byteOffset":4876,
			"target":34962
		},
		{
			"buffer":0,
			"byteLength":228,
			"byteOffset":5104,
			"target":34962
		},
		{
			"buffer":0,
			"byteLength":152,
			"byteOffset":5332,
			"target":34962
		},
		{
			"buffer":0,
			"byteLength":90,
			"byteOffset":5484,
			"target":34963
		}
	],
	"samplers":[
		{
			"magFilter":9729,
			"minFilter":9987
		}
	],
	"buffers":[
		{
			"byteLength":5576,
			"uri":"tile_5_0_11.bin"
		}
	]
}
