{
	"asset":{
		"generator":"Khronos glTF Blender I/O v4.0.44",
		"version":"2.0"
	},
	"extensionsUsed":[
		"KHR_materials_specular",
		"KHR_materials_ior"
	],
	"scene":0,
	"scenes":[
		{
			"name":"Scene",
			"nodes":[
				0,
				1
			]
		}
	],
	"nodes":[
		{
			"mesh":0,
			"name":"Plane",
			"scale":[
				7.873531341552734,
				0.9841914176940918,
				7.873531341552734
			]
		},
		{
			"mesh":1,
			"name":"track.271",
			"scale":[
				3.7706682682037354,
				3.7706682682037354,
				3.7706682682037354
			]
		}
	],
	"materials":[
		{
			"doubleSided":true,
			"extensions":{
				"KHR_materials_specular":{
					"specularColorFactor":[
						2.0,
						2.0,
						2.0
					]
				},
				"KHR_materials_ior":{
					"ior":1.4500000476837158
				}
			},
			"name":"building",
			"pbrMetallicRoughness":{
				"baseColorTexture":{
					"index":0
				},
				"metallicFactor":0
			}
		}
	],
	"meshes":[
		{
			"name":"Plane.1192",
			"primitives":[
				{
					"attributes":{
						"POSITION":0,
						"NORMAL":1,
						"TEXCOORD_0":2,
						"TANGENT":3
					},
					"indices":4,
					"material":0
				}
			]
		},
		{
			"name":"Plane.1193",
			"primitives":[
				{
					"attributes":{
						"POSITION":5,
						"NORMAL":6,
						"TEXCOORD_0":7
					},
					"indices":8,
					"material":0
				}
			]
		}
	],
	"textures":[
		{
			"sampler":0,
			"source":0
		}
	],
	"images":[
		{
			"mimeType":"image/png",
			"name":"AvatarWearables_TX",
			"uri":"tex/AvatarWearables_TX.png"
		}
	],
	"accessors":[
		{
			"bufferView":0,
			"componentType":5126,
			"count":42,
			"max":[
				0.5080289840698242,
				-14.900496482849121,
				0.5080312490463257
			],
			"min":[
				-0.5080327987670898,
				-14.900496482849121,
				-0.5080312490463257
			],
			"type":"VEC3"
		},
		{
			"bufferView":1,
			"componentType":5126,
			"count":42,
			"type":"VEC3"
		},
		{
			"bufferView":2,
			"componentType":5126,
			"count":42,
			"type":"VEC2"
		},
		{
			"bufferView":3,
			"componentType":5126,
			"count":42,
			"type":"VEC4"
		},
		{
			"bufferView":4,
			"componentType":5123,
			"count":180,
			"type":"SCALAR"
		},
		{
			"bufferView":5,
			"componentType":5126,
			"count":95,
			"max":[
				1.0608196258544922,
				-3.545931577682495,
				1.0608198642730713
			],
			"min":[
				-1.0608196258544922,
				-4.243279457092285,
				-1.0608198642730713
			],
			"type":"VEC3"
		},
		{
			"bufferView":6,
			"componentType":5126,
			"count":95,
			"type":"VEC3"
		},
		{
			"bufferView":7,
			"componentType":5126,
			"count":95,
			"type":"VEC2"
		},
		{
			"bufferView":8,
			"componentType":5123,
			"count":171,
			"type":"SCALAR"
		}
	],
	"bufferViews":[
		{
			"buffer":0,
			"byteLength":504,
			"byteOffset":0,
			"target":34962
		},
		{
			"buffer":0,
			"byteLength":504,
			"byteOffset":504,
			"target":34962
		},
		{
			"buffer":0,
			"byteLength":336,
			"byteOffset":1008,
			"target":34962
		},
		{
			"buffer":0,
			"byteLength":672,
			"byteOffset":1344,
			"target":34962
		},
		{
			"buffer":0,
			"byteLength":360,
			"byteOffset":2016,
			"target":34963
		},
		{
			"buffer":0,
			"byteLength":1140,
			"byteOffset":2376,
			"target":34962
		},
		{
			"buffer":0,
			"byteLength":1140,
			"byteOffset":3516,
			"target":34962
		},
		{
			"buffer":0,
			"byteLength":760,
			"byteOffset":4656,
			"target":34962
		},
		{
			"buffer":0,
			"byteLength":342,
			"byteOffset":5416,
			"target":34963
		}
	],
	"samplers":[
		{
			"magFilter":9729,
			"minFilter":9987
		}
	],
	"buffers":[
		{
			"byteLength":5760,
			"uri":"tile_22_0_6.bin"
		}
	]
}
