{
	"asset":{
		"generator":"Khronos glTF Blender I/O v4.0.44",
		"version":"2.0"
	},
	"extensionsUsed":[
		"KHR_materials_specular",
		"KHR_materials_ior",
		"KHR_materials_emissive_strength"
	],
	"scene":0,
	"scenes":[
		{
			"name":"Scene",
			"nodes":[
				0,
				1,
				2,
				3
			]
		}
	],
	"nodes":[
		{
			"mesh":0,
			"name":"Plane",
			"scale":[
				7.873531341552734,
				0.9841914176940918,
				7.873531341552734
			]
		},
		{
			"mesh":1,
			"name":"track.228",
			"scale":[
				3.7706682682037354,
				3.7706682682037354,
				3.7706682682037354
			]
		},
		{
			"mesh":2,
			"name":"Torus.022",
			"rotation":[
				0.7071069478988647,
				0,
				0,
				0.7071066498756409
			],
			"scale":[
				0.9492737650871277,
				0.949273943901062,
				0.949273943901062
			]
		},
		{
			"mesh":3,
			"name":"Text.001",
			"rotation":[
				0.5,
				0.5,
				-0.5,
				0.5
			],
			"scale":[
				2.029393434524536,
				2.029393434524536,
				2.029393434524536
			]
		}
	],
	"materials":[
		{
			"doubleSided":true,
			"extensions":{
				"KHR_materials_specular":{
					"specularColorFactor":[
						2.0,
						2.0,
						2.0
					]
				},
				"KHR_materials_ior":{
					"ior":1.4500000476837158
				}
			},
			"name":"building",
			"pbrMetallicRoughness":{
				"baseColorTexture":{
					"index":0
				},
				"metallicFactor":0
			}
		},
		{
			"doubleSided":true,
			"emissiveFactor":[
				1,
				0.003797386313042906,
				0
			],
			"extensions":{
				"KHR_materials_emissive_strength":{
					"emissiveStrength":7.991064786911011
				}
			},
			"name":"Glow9",
			"pbrMetallicRoughness":{
				"baseColorFactor":[
					0.8000000715255737,
					0.0031031807884573936,
					0,
					1
				],
				"metallicFactor":0
			}
		},
		{
			"doubleSided":true,
			"emissiveFactor":[
				1,
				1,
				1
			],
			"extensions":{
				"KHR_materials_emissive_strength":{
					"emissiveStrength":4
				}
			},
			"name":"Glow2",
			"pbrMetallicRoughness":{
				"baseColorFactor":[
					0.800000011920929,
					0.800000011920929,
					0.800000011920929,
					1
				],
				"metallicFactor":0,
				"roughnessFactor":0.5
			}
		}
	],
	"meshes":[
		{
			"name":"Plane.1106",
			"primitives":[
				{
					"attributes":{
						"POSITION":0,
						"NORMAL":1,
						"TEXCOORD_0":2,
						"TANGENT":3
					},
					"indices":4,
					"material":0
				}
			]
		},
		{
			"name":"Plane.1107",
			"primitives":[
				{
					"attributes":{
						"POSITION":5,
						"NORMAL":6,
						"TEXCOORD_0":7
					},
					"indices":8,
					"material":0
				},
				{
					"attributes":{
						"POSITION":9,
						"NORMAL":10,
						"TEXCOORD_0":11
					},
					"indices":12,
					"material":0
				}
			]
		},
		{
			"name":"Torus.079",
			"primitives":[
				{
					"attributes":{
						"POSITION":13,
						"NORMAL":14,
						"TEXCOORD_0":15,
						"TANGENT":16
					},
					"indices":17,
					"material":0
				},
				{
					"attributes":{
						"POSITION":18,
						"NORMAL":19,
						"TEXCOORD_0":20,
						"TANGENT":21
					},
					"indices":22,
					"material":1
				},
				{
					"attributes":{
						"POSITION":23,
						"NORMAL":24,
						"TEXCOORD_0":25,
						"TANGENT":26
					},
					"indices":27,
					"material":2
				}
			]
		},
		{
			"name":"Text.006",
			"primitives":[
				{
					"attributes":{
						"POSITION":28,
						"NORMAL":29,
						"TEXCOORD_0":30
					},
					"indices":31,
					"material":2
				},
				{
					"attributes":{
						"POSITION":32,
						"NORMAL":33,
						"TEXCOORD_0":34
					},
					"indices":35,
					"material":2
				}
			]
		}
	],
	"textures":[
		{
			"sampler":0,
			"source":0
		}
	],
	"images":[
		{
			"mimeType":"image/png",
			"name":"AvatarWearables_TX",
			"uri":"tex/AvatarWearables_TX.png"
		}
	],
	"accessors":[
		{
			"bufferView":0,
			"componentType":5126,
			"count":62,
			"max":[
				0.5080313682556152,
				-14.567778587341309,
				0.5080313682556152
			],
			"min":[
				-0.5080313682556152,
				-14.900496482849121,
				-0.41324806213378906
			],
			"type":"VEC3"
		},
		{
			"bufferView":1,
			"componentType":5126,
			"count":62,
			"type":"VEC3"
		},
		{
			"bufferView":2,
			"componentType":5126,
			"count":62,
			"type":"VEC2"
		},
		{
			"bufferView":3,
			"componentType":5126,
			"count":62,
			"type":"VEC4"
		},
		{
			"bufferView":4,
			"componentType":5123,
			"count":192,
			"type":"SCALAR"
		},
		{
			"bufferView":5,
			"componentType":5126,
			"count":40,
			"max":[
				1.0608158111572266,
				-3.546082019805908,
				1.0608196258544922
			],
			"min":[
				-1.0608234405517578,
				-4.10733699798584,
				0.34474945068359375
			],
			"type":"VEC3"
		},
		{
			"bufferView":6,
			"componentType":5126,
			"count":40,
			"type":"VEC3"
		},
		{
			"bufferView":7,
			"componentType":5126,
			"count":40,
			"type":"VEC2"
		},
		{
			"bufferView":8,
			"componentType":5123,
			"count":60,
			"type":"SCALAR"
		},
		{
			"bufferView":9,
			"componentType":5126,
			"count":19,
			"max":[
				1.0608158111572266,
				-3.546082019805908,
				1.0608196258544922
			],
			"min":[
				-1.0608234405517578,
				-4.243279933929443,
				0.34474945068359375
			],
			"type":"VEC3"
		},
		{
			"bufferView":10,
			"componentType":5126,
			"count":19,
			"type":"VEC3"
		},
		{
			"bufferView":11,
			"componentType":5126,
			"count":19,
			"type":"VEC2"
		},
		{
			"bufferView":12,
			"componentType":5123,
			"count":39,
			"type":"SCALAR"
		},
		{
			"bufferView":13,
			"componentType":5126,
			"count":991,
			"max":[
				0.7094488143920898,
				1.6931097507476807,
				15.501760482788086
			],
			"min":[
				-4.068329811096191,
				-3.084667444229126,
				7.085598945617676
			],
			"type":"VEC3"
		},
		{
			"bufferView":14,
			"componentType":5126,
			"count":991,
			"type":"VEC3"
		},
		{
			"bufferView":15,
			"componentType":5126,
			"count":991,
			"type":"VEC2"
		},
		{
			"bufferView":16,
			"componentType":5126,
			"count":991,
			"type":"VEC4"
		},
		{
			"bufferView":17,
			"componentType":5123,
			"count":4692,
			"type":"SCALAR"
		},
		{
			"bufferView":18,
			"componentType":5126,
			"count":66,
			"max":[
				0.6894674301147461,
				0.9552212953567505,
				15.461384773254395
			],
			"min":[
				-4.064644813537598,
				-2.1821749210357666,
				8.118879318237305
			],
			"type":"VEC3"
		},
		{
			"bufferView":19,
			"componentType":5126,
			"count":66,
			"type":"VEC3"
		},
		{
			"bufferView":20,
			"componentType":5126,
			"count":66,
			"type":"VEC2"
		},
		{
			"bufferView":21,
			"componentType":5126,
			"count":66,
			"type":"VEC4"
		},
		{
			"bufferView":22,
			"componentType":5123,
			"count":192,
			"type":"SCALAR"
		},
		{
			"bufferView":23,
			"componentType":5126,
			"count":100,
			"max":[
				-0.036225199699401855,
				1.6931097507476807,
				15.501760482788086
			],
			"min":[
				-3.26101016998291,
				-3.084667444229126,
				7.304635047912598
			],
			"type":"VEC3"
		},
		{
			"bufferView":24,
			"componentType":5126,
			"count":100,
			"type":"VEC3"
		},
		{
			"bufferView":25,
			"componentType":5126,
			"count":100,
			"type":"VEC2"
		},
		{
			"bufferView":26,
			"componentType":5126,
			"count":100,
			"type":"VEC4"
		},
		{
			"bufferView":27,
			"componentType":5123,
			"count":288,
			"type":"SCALAR"
		},
		{
			"bufferView":28,
			"componentType":5126,
			"count":510,
			"max":[
				-0.2422335147857666,
				-0.7085537314414978,
				3.602360963821411
			],
			"min":[
				-1.9710323810577393,
				-0.7485537528991699,
				3.114556312561035
			],
			"type":"VEC3"
		},
		{
			"bufferView":29,
			"componentType":5126,
			"count":510,
			"type":"VEC3"
		},
		{
			"bufferView":30,
			"componentType":5126,
			"count":510,
			"type":"VEC2"
		},
		{
			"bufferView":31,
			"componentType":5123,
			"count":1002,
			"type":"SCALAR"
		},
		{
			"bufferView":32,
			"componentType":5126,
			"count":8,
			"max":[
				-1.9710323810577393,
				-0.7085537314414978,
				3.5163071155548096
			],
			"min":[
				-1.9710323810577393,
				-0.7485537528991699,
				3.2466325759887695
			],
			"type":"VEC3"
		},
		{
			"bufferView":33,
			"componentType":5126,
			"count":8,
			"type":"VEC3"
		},
		{
			"bufferView":34,
			"componentType":5126,
			"count":8,
			"type":"VEC2"
		},
		{
			"bufferView":35,
			"componentType":5123,
			"count":18,
			"type":"SCALAR"
		}
	],
	"bufferViews":[
		{
			"buffer":0,
			"byteLength":744,
			"byteOffset":0,
			"target":34962
		},
		{
			"buffer":0,
			"byteLength":744,
			"byteOffset":744,
			"target":34962
		},
		{
			"buffer":0,
			"byteLength":496,
			"byteOffset":1488,
			"target":34962
		},
		{
			"buffer":0,
			"byteLength":992,
			"byteOffset":1984,
			"target":34962
		},
		{
			"buffer":0,
			"byteLength":384,
			"byteOffset":2976,
			"target":34963
		},
		{
			"buffer":0,
			"byteLength":480,
			"byteOffset":3360,
			"target":34962
		},
		{
			"buffer":0,
			"byteLength":480,
			"byteOffset":3840,
			"target":34962
		},
		{
			"buffer":0,
			"byteLength":320,
			"byteOffset":4320,
			"target":34962
		},
		{
			"buffer":0,
			"byteLength":120,
			"byteOffset":4640,
			"target":34963
		},
		{
			"buffer":0,
			"byteLength":228,
			"byteOffset":4760,
			"target":34962
		},
		{
			"buffer":0,
			"byteLength":228,
			"byteOffset":4988,
			"target":34962
		},
		{
			"buffer":0,
			"byteLength":152,
			"byteOffset":5216,
			"target":34962
		},
		{
			"buffer":0,
			"byteLength":78,
			"byteOffset":5368,
			"target":34963
		},
		{
			"buffer":0,
			"byteLength":11892,
			"byteOffset":5448,
			"target":34962
		},
		{
			"buffer":0,
			"byteLength":11892,
			"byteOffset":17340,
			"target":34962
		},
		{
			"buffer":0,
			"byteLength":7928,
			"byteOffset":29232,
			"target":34962
		},
		{
			"buffer":0,
			"byteLength":15856,
			"byteOffset":37160,
			"target":34962
		},
		{
			"buffer":0,
			"byteLength":9384,
			"byteOffset":53016,
			"target":34963
		},
		{
			"buffer":0,
			"byteLength":792,
			"byteOffset":62400,
			"target":34962
		},
		{
			"buffer":0,
			"byteLength":792,
			"byteOffset":63192,
			"target":34962
		},
		{
			"buffer":0,
			"byteLength":528,
			"byteOffset":63984,
			"target":34962
		},
		{
			"buffer":0,
			"byteLength":1056,
			"byteOffset":64512,
			"target":34962
		},
		{
			"buffer":0,
			"byteLength":384,
			"byteOffset":65568,
			"target":34963
		},
		{
			"buffer":0,
			"byteLength":1200,
			"byteOffset":65952,
			"target":34962
		},
		{
			"buffer":0,
			"byteLength":1200,
			"byteOffset":67152,
			"target":34962
		},
		{
			"buffer":0,
			"byteLength":800,
			"byteOffset":68352,
			"target":34962
		},
		{
			"buffer":0,
			"byteLength":1600,
			"byteOffset":69152,
			"target":34962
		},
		{
			"buffer":0,
			"byteLength":576,
			"byteOffset":70752,
			"target":34963
		},
		{
			"buffer":0,
			"byteLength":6120,
			"byteOffset":71328,
			"target":34962
		},
		{
			"buffer":0,
			"byteLength":6120,
			"byteOffset":77448,
			"target":34962
		},
		{
			"buffer":0,
			"byteLength":4080,
			"byteOffset":83568,
			"target":34962
		},
		{
			"buffer":0,
			"byteLength":2004,
			"byteOffset":87648,
			"target":34963
		},
		{
			"buffer":0,
			"byteLength":96,
			"byteOffset":89652,
			"target":34962
		},
		{
			"buffer":0,
			"byteLength":96,
			"byteOffset":89748,
			"target":34962
		},
		{
			"buffer":0,
			"byteLength":64,
			"byteOffset":89844,
			"target":34962
		},
		{
			"buffer":0,
			"byteLength":36,
			"byteOffset":89908,
			"target":34963
		}
	],
	"samplers":[
		{
			"magFilter":9729,
			"minFilter":9987
		}
	],
	"buffers":[
		{
			"byteLength":89944,
			"uri":"tile_18_0_11.bin"
		}
	]
}
