{
	"asset":{
		"generator":"Khronos glTF Blender I/O v4.0.44",
		"version":"2.0"
	},
	"extensionsUsed":[
		"KHR_materials_specular",
		"KHR_materials_ior"
	],
	"scene":0,
	"scenes":[
		{
			"name":"Scene",
			"nodes":[
				0,
				1,
				2,
				3
			]
		}
	],
	"nodes":[
		{
			"mesh":0,
			"name":"Plane",
			"scale":[
				7.873531341552734,
				0.9841914176940918,
				7.873531341552734
			]
		},
		{
			"mesh":1,
			"name":"track.203",
			"scale":[
				3.7706682682037354,
				3.7706682682037354,
				3.7706682682037354
			]
		},
		{
			"mesh":2,
			"name":"Cube.007"
		},
		{
			"mesh":3,
			"name":"Cube.077"
		}
	],
	"materials":[
		{
			"doubleSided":true,
			"extensions":{
				"KHR_materials_specular":{
					"specularColorFactor":[
						2.0,
						2.0,
						2.0
					]
				},
				"KHR_materials_ior":{
					"ior":1.4500000476837158
				}
			},
			"name":"building",
			"pbrMetallicRoughness":{
				"baseColorTexture":{
					"index":0
				},
				"metallicFactor":0
			}
		}
	],
	"meshes":[
		{
			"name":"Plane.1056",
			"primitives":[
				{
					"attributes":{
						"POSITION":0,
						"NORMAL":1,
						"TEXCOORD_0":2,
						"TANGENT":3
					},
					"indices":4,
					"material":0
				}
			]
		},
		{
			"name":"Plane.1057",
			"primitives":[
				{
					"attributes":{
						"POSITION":5,
						"NORMAL":6,
						"TEXCOORD_0":7
					},
					"indices":8,
					"material":0
				},
				{
					"attributes":{
						"POSITION":9,
						"NORMAL":10,
						"TEXCOORD_0":11
					},
					"indices":12,
					"material":0
				}
			]
		},
		{
			"name":"Cube.652",
			"primitives":[
				{
					"attributes":{
						"POSITION":13,
						"NORMAL":14,
						"TEXCOORD_0":15
					},
					"indices":16,
					"material":0
				}
			]
		},
		{
			"name":"Cube.653",
			"primitives":[
				{
					"attributes":{
						"POSITION":17,
						"NORMAL":18,
						"TEXCOORD_0":19,
						"TANGENT":20
					},
					"indices":21,
					"material":0
				}
			]
		}
	],
	"textures":[
		{
			"sampler":0,
			"source":0
		}
	],
	"images":[
		{
			"mimeType":"image/png",
			"name":"AvatarWearables_TX",
			"uri":"tex/AvatarWearables_TX.png"
		}
	],
	"accessors":[
		{
			"bufferView":0,
			"componentType":5126,
			"count":36,
			"max":[
				0.5080313682556152,
				-14.900496482849121,
				0.5080313682556152
			],
			"min":[
				-0.5080313682556152,
				-14.900496482849121,
				-0.5080313682556152
			],
			"type":"VEC3"
		},
		{
			"bufferView":1,
			"componentType":5126,
			"count":36,
			"type":"VEC3"
		},
		{
			"bufferView":2,
			"componentType":5126,
			"count":36,
			"type":"VEC2"
		},
		{
			"bufferView":3,
			"componentType":5126,
			"count":36,
			"type":"VEC4"
		},
		{
			"bufferView":4,
			"componentType":5123,
			"count":150,
			"type":"SCALAR"
		},
		{
			"bufferView":5,
			"componentType":5126,
			"count":44,
			"max":[
				1.0608196258544922,
				-3.501140594482422,
				1.019984245300293
			],
			"min":[
				-1.0608196258544922,
				-4.100203514099121,
				-1.0608196258544922
			],
			"type":"VEC3"
		},
		{
			"bufferView":6,
			"componentType":5126,
			"count":44,
			"type":"VEC3"
		},
		{
			"bufferView":7,
			"componentType":5126,
			"count":44,
			"type":"VEC2"
		},
		{
			"bufferView":8,
			"componentType":5123,
			"count":66,
			"type":"SCALAR"
		},
		{
			"bufferView":9,
			"componentType":5126,
			"count":21,
			"max":[
				1.0608196258544922,
				-3.501140594482422,
				1.019984245300293
			],
			"min":[
				-1.0608196258544922,
				-4.243279933929443,
				-1.0608196258544922
			],
			"type":"VEC3"
		},
		{
			"bufferView":10,
			"componentType":5126,
			"count":21,
			"type":"VEC3"
		},
		{
			"bufferView":11,
			"componentType":5126,
			"count":21,
			"type":"VEC2"
		},
		{
			"bufferView":12,
			"componentType":5123,
			"count":45,
			"type":"SCALAR"
		},
		{
			"bufferView":13,
			"componentType":5126,
			"count":122,
			"max":[
				4,
				-13.868947982788086,
				4
			],
			"min":[
				1.216784954071045,
				-14.761817932128906,
				3.561171531677246
			],
			"type":"VEC3"
		},
		{
			"bufferView":14,
			"componentType":5126,
			"count":122,
			"type":"VEC3"
		},
		{
			"bufferView":15,
			"componentType":5126,
			"count":122,
			"type":"VEC2"
		},
		{
			"bufferView":16,
			"componentType":5123,
			"count":204,
			"type":"SCALAR"
		},
		{
			"bufferView":17,
			"componentType":5126,
			"count":24,
			"max":[
				4,
				-14.049240112304688,
				4
			],
			"min":[
				1.2712602615356445,
				-14.107187271118164,
				3.8965530395507812
			],
			"type":"VEC3"
		},
		{
			"bufferView":18,
			"componentType":5126,
			"count":24,
			"type":"VEC3"
		},
		{
			"bufferView":19,
			"componentType":5126,
			"count":24,
			"type":"VEC2"
		},
		{
			"bufferView":20,
			"componentType":5126,
			"count":24,
			"type":"VEC4"
		},
		{
			"bufferView":21,
			"componentType":5123,
			"count":36,
			"type":"SCALAR"
		}
	],
	"bufferViews":[
		{
			"buffer":0,
			"byteLength":432,
			"byteOffset":0,
			"target":34962
		},
		{
			"buffer":0,
			"byteLength":432,
			"byteOffset":432,
			"target":34962
		},
		{
			"buffer":0,
			"byteLength":288,
			"byteOffset":864,
			"target":34962
		},
		{
			"buffer":0,
			"byteLength":576,
			"byteOffset":1152,
			"target":34962
		},
		{
			"buffer":0,
			"byteLength":300,
			"byteOffset":1728,
			"target":34963
		},
		{
			"buffer":0,
			"byteLength":528,
			"byteOffset":2028,
			"target":34962
		},
		{
			"buffer":0,
			"byteLength":528,
			"byteOffset":2556,
			"target":34962
		},
		{
			"buffer":0,
			"byteLength":352,
			"byteOffset":3084,
			"target":34962
		},
		{
			"buffer":0,
			"byteLength":132,
			"byteOffset":3436,
			"target":34963
		},
		{
			"buffer":0,
			"byteLength":252,
			"byteOffset":3568,
			"target":34962
		},
		{
			"buffer":0,
			"byteLength":252,
			"byteOffset":3820,
			"target":34962
		},
		{
			"buffer":0,
			"byteLength":168,
			"byteOffset":4072,
			"target":34962
		},
		{
			"buffer":0,
			"byteLength":90,
			"byteOffset":4240,
			"target":34963
		},
		{
			"buffer":0,
			"byteLength":1464,
			"byteOffset":4332,
			"target":34962
		},
		{
			"buffer":0,
			"byteLength":1464,
			"byteOffset":5796,
			"target":34962
		},
		{
			"buffer":0,
			"byteLength":976,
			"byteOffset":7260,
			"target":34962
		},
		{
			"buffer":0,
			"byteLength":408,
			"byteOffset":8236,
			"target":34963
		},
		{
			"buffer":0,
			"byteLength":288,
			"byteOffset":8644,
			"target":34962
		},
		{
			"buffer":0,
			"byteLength":288,
			"byteOffset":8932,
			"target":34962
		},
		{
			"buffer":0,
			"byteLength":192,
			"byteOffset":9220,
			"target":34962
		},
		{
			"buffer":0,
			"byteLength":384,
			"byteOffset":9412,
			"target":34962
		},
		{
			"buffer":0,
			"byteLength":72,
			"byteOffset":9796,
			"target":34963
		}
	],
	"samplers":[
		{
			"magFilter":9729,
			"minFilter":9987
		}
	],
	"buffers":[
		{
			"byteLength":9868,
			"uri":"tile_16_0_10.bin"
		}
	]
}
