{
	"asset":{
		"generator":"Khronos glTF Blender I/O v4.0.44",
		"version":"2.0"
	},
	"extensionsUsed":[
		"KHR_materials_specular",
		"KHR_materials_ior"
	],
	"scene":0,
	"scenes":[
		{
			"name":"Scene",
			"nodes":[
				0,
				1,
				2,
				3,
				4,
				5
			]
		}
	],
	"nodes":[
		{
			"mesh":0,
			"name":"Plane",
			"scale":[
				7.873531341552734,
				0.9841914176940918,
				7.873531341552734
			]
		},
		{
			"mesh":1,
			"name":"track.171",
			"scale":[
				3.7706682682037354,
				3.7706682682037354,
				3.7706682682037354
			]
		},
		{
			"mesh":2,
			"name":"Cylinder.010"
		},
		{
			"mesh":3,
			"name":"Cylinder.085"
		},
		{
			"mesh":4,
			"name":"Cylinder.086"
		},
		{
			"mesh":5,
			"name":"Cylinder.087"
		}
	],
	"materials":[
		{
			"doubleSided":true,
			"extensions":{
				"KHR_materials_specular":{
					"specularColorFactor":[
						2.0,
						2.0,
						2.0
					]
				},
				"KHR_materials_ior":{
					"ior":1.4500000476837158
				}
			},
			"name":"building",
			"pbrMetallicRoughness":{
				"baseColorTexture":{
					"index":0
				},
				"metallicFactor":0
			}
		}
	],
	"meshes":[
		{
			"name":"Plane.992",
			"primitives":[
				{
					"attributes":{
						"POSITION":0,
						"NORMAL":1,
						"TEXCOORD_0":2
					},
					"indices":3,
					"material":0
				},
				{
					"attributes":{
						"POSITION":4,
						"NORMAL":5,
						"TEXCOORD_0":6
					},
					"indices":7,
					"material":0
				}
			]
		},
		{
			"name":"Plane.993",
			"primitives":[
				{
					"attributes":{
						"POSITION":8,
						"NORMAL":9,
						"TEXCOORD_0":10
					},
					"indices":11,
					"material":0
				},
				{
					"attributes":{
						"POSITION":12,
						"NORMAL":13,
						"TEXCOORD_0":14
					},
					"indices":15,
					"material":0
				}
			]
		},
		{
			"name":"Cylinder.426",
			"primitives":[
				{
					"attributes":{
						"POSITION":16,
						"NORMAL":17,
						"TEXCOORD_0":18
					},
					"indices":19,
					"material":0
				}
			]
		},
		{
			"name":"Cylinder.427",
			"primitives":[
				{
					"attributes":{
						"POSITION":20,
						"NORMAL":21,
						"TEXCOORD_0":22,
						"TANGENT":23
					},
					"indices":24,
					"material":0
				}
			]
		},
		{
			"name":"Cylinder.428",
			"primitives":[
				{
					"attributes":{
						"POSITION":25,
						"NORMAL":26,
						"TEXCOORD_0":27,
						"TANGENT":28
					},
					"indices":24,
					"material":0
				}
			]
		},
		{
			"name":"Cylinder.429",
			"primitives":[
				{
					"attributes":{
						"POSITION":29,
						"NORMAL":30,
						"TEXCOORD_0":31,
						"TANGENT":32
					},
					"indices":24,
					"material":0
				}
			]
		}
	],
	"textures":[
		{
			"sampler":0,
			"source":0
		}
	],
	"images":[
		{
			"mimeType":"image/png",
			"name":"AvatarWearables_TX",
			"uri":"tex/AvatarWearables_TX.png"
		}
	],
	"accessors":[
		{
			"bufferView":0,
			"componentType":5126,
			"count":51,
			"max":[
				0.5080313682556152,
				-7.20552396774292,
				0.5080311298370361
			],
			"min":[
				-0.5080313682556152,
				-12.237577438354492,
				-0.5080316066741943
			],
			"type":"VEC3"
		},
		{
			"bufferView":1,
			"componentType":5126,
			"count":51,
			"type":"VEC3"
		},
		{
			"bufferView":2,
			"componentType":5126,
			"count":51,
			"type":"VEC2"
		},
		{
			"bufferView":3,
			"componentType":5123,
			"count":195,
			"type":"SCALAR"
		},
		{
			"bufferView":4,
			"componentType":5126,
			"count":47,
			"max":[
				0.5080313682556152,
				-7.20552396774292,
				0.5080311298370361
			],
			"min":[
				-0.5080313682556152,
				-16.256999969482422,
				-0.5080316066741943
			],
			"type":"VEC3"
		},
		{
			"bufferView":5,
			"componentType":5126,
			"count":47,
			"type":"VEC3"
		},
		{
			"bufferView":6,
			"componentType":5126,
			"count":47,
			"type":"VEC2"
		},
		{
			"bufferView":7,
			"componentType":5123,
			"count":117,
			"type":"SCALAR"
		},
		{
			"bufferView":8,
			"componentType":5126,
			"count":43,
			"max":[
				-0.4066162109375,
				-1.3743371963500977,
				0.4291982650756836
			],
			"min":[
				-1.060821533203125,
				-2.487893581390381,
				-1.0608196258544922
			],
			"type":"VEC3"
		},
		{
			"bufferView":9,
			"componentType":5126,
			"count":43,
			"type":"VEC3"
		},
		{
			"bufferView":10,
			"componentType":5126,
			"count":43,
			"type":"VEC2"
		},
		{
			"bufferView":11,
			"componentType":5123,
			"count":69,
			"type":"SCALAR"
		},
		{
			"bufferView":12,
			"componentType":5126,
			"count":19,
			"max":[
				-0.4066162109375,
				-1.3743371963500977,
				0.4291982650756836
			],
			"min":[
				-1.060821533203125,
				-4.243279933929443,
				-1.0608196258544922
			],
			"type":"VEC3"
		},
		{
			"bufferView":13,
			"componentType":5126,
			"count":19,
			"type":"VEC3"
		},
		{
			"bufferView":14,
			"componentType":5126,
			"count":19,
			"type":"VEC2"
		},
		{
			"bufferView":15,
			"componentType":5123,
			"count":48,
			"type":"SCALAR"
		},
		{
			"bufferView":16,
			"componentType":5126,
			"count":141,
			"max":[
				2.757087469100952,
				-4.127079486846924,
				-1.2320983409881592
			],
			"min":[
				1.3265975713729858,
				-9.090768814086914,
				-2.3184046745300293
			],
			"type":"VEC3"
		},
		{
			"bufferView":17,
			"componentType":5126,
			"count":141,
			"type":"VEC3"
		},
		{
			"bufferView":18,
			"componentType":5126,
			"count":141,
			"type":"VEC2"
		},
		{
			"bufferView":19,
			"componentType":5123,
			"count":564,
			"type":"SCALAR"
		},
		{
			"bufferView":20,
			"componentType":5126,
			"count":60,
			"max":[
				3.086451768875122,
				-1.819704532623291,
				-0.3746366500854492
			],
			"min":[
				0.5949443578720093,
				-4.677119255065918,
				-2.920114278793335
			],
			"type":"VEC3"
		},
		{
			"bufferView":21,
			"componentType":5126,
			"count":60,
			"type":"VEC3"
		},
		{
			"bufferView":22,
			"componentType":5126,
			"count":60,
			"type":"VEC2"
		},
		{
			"bufferView":23,
			"componentType":5126,
			"count":60,
			"type":"VEC4"
		},
		{
			"bufferView":24,
			"componentType":5123,
			"count":60,
			"type":"SCALAR"
		},
		{
			"bufferView":25,
			"componentType":5126,
			"count":60,
			"max":[
				3.3845813274383545,
				-5.959141254425049,
				-1.3744888305664062
			],
			"min":[
				2.4333572387695312,
				-7.0500640869140625,
				-2.346317768096924
			],
			"type":"VEC3"
		},
		{
			"bufferView":26,
			"componentType":5126,
			"count":60,
			"type":"VEC3"
		},
		{
			"bufferView":27,
			"componentType":5126,
			"count":60,
			"type":"VEC2"
		},
		{
			"bufferView":28,
			"componentType":5126,
			"count":60,
			"type":"VEC4"
		},
		{
			"bufferView":29,
			"componentType":5126,
			"count":60,
			"max":[
				1.783939003944397,
				-7.31178617477417,
				-1.8152810335159302
			],
			"min":[
				1.2753520011901855,
				-7.8950653076171875,
				-2.3348848819732666
			],
			"type":"VEC3"
		},
		{
			"bufferView":30,
			"componentType":5126,
			"count":60,
			"type":"VEC3"
		},
		{
			"bufferView":31,
			"componentType":5126,
			"count":60,
			"type":"VEC2"
		},
		{
			"bufferView":32,
			"componentType":5126,
			"count":60,
			"type":"VEC4"
		}
	],
	"bufferViews":[
		{
			"buffer":0,
			"byteLength":612,
			"byteOffset":0,
			"target":34962
		},
		{
			"buffer":0,
			"byteLength":612,
			"byteOffset":612,
			"target":34962
		},
		{
			"buffer":0,
			"byteLength":408,
			"byteOffset":1224,
			"target":34962
		},
		{
			"buffer":0,
			"byteLength":390,
			"byteOffset":1632,
			"target":34963
		},
		{
			"buffer":0,
			"byteLength":564,
			"byteOffset":2024,
			"target":34962
		},
		{
			"buffer":0,
			"byteLength":564,
			"byteOffset":2588,
			"target":34962
		},
		{
			"buffer":0,
			"byteLength":376,
			"byteOffset":3152,
			"target":34962
		},
		{
			"buffer":0,
			"byteLength":234,
			"byteOffset":3528,
			"target":34963
		},
		{
			"buffer":0,
			"byteLength":516,
			"byteOffset":3764,
			"target":34962
		},
		{
			"buffer":0,
			"byteLength":516,
			"byteOffset":4280,
			"target":34962
		},
		{
			"buffer":0,
			"byteLength":344,
			"byteOffset":4796,
			"target":34962
		},
		{
			"buffer":0,
			"byteLength":138,
			"byteOffset":5140,
			"target":34963
		},
		{
			"buffer":0,
			"byteLength":228,
			"byteOffset":5280,
			"target":34962
		},
		{
			"buffer":0,
			"byteLength":228,
			"byteOffset":5508,
			"target":34962
		},
		{
			"buffer":0,
			"byteLength":152,
			"byteOffset":5736,
			"target":34962
		},
		{
			"buffer":0,
			"byteLength":96,
			"byteOffset":5888,
			"target":34963
		},
		{
			"buffer":0,
			"byteLength":1692,
			"byteOffset":5984,
			"target":34962
		},
		{
			"buffer":0,
			"byteLength":1692,
			"byteOffset":7676,
			"target":34962
		},
		{
			"buffer":0,
			"byteLength":1128,
			"byteOffset":9368,
			"target":34962
		},
		{
			"buffer":0,
			"byteLength":1128,
			"byteOffset":10496,
			"target":34963
		},
		{
			"buffer":0,
			"byteLength":720,
			"byteOffset":11624,
			"target":34962
		},
		{
			"buffer":0,
			"byteLength":720,
			"byteOffset":12344,
			"target":34962
		},
		{
			"buffer":0,
			"byteLength":480,
			"byteOffset":13064,
			"target":34962
		},
		{
			"buffer":0,
			"byteLength":960,
			"byteOffset":13544,
			"target":34962
		},
		{
			"buffer":0,
			"byteLength":120,
			"byteOffset":14504,
			"target":34963
		},
		{
			"buffer":0,
			"byteLength":720,
			"byteOffset":14624,
			"target":34962
		},
		{
			"buffer":0,
			"byteLength":720,
			"byteOffset":15344,
			"target":34962
		},
		{
			"buffer":0,
			"byteLength":480,
			"byteOffset":16064,
			"target":34962
		},
		{
			"buffer":0,
			"byteLength":960,
			"byteOffset":16544,
			"target":34962
		},
		{
			"buffer":0,
			"byteLength":720,
			"byteOffset":17504,
			"target":34962
		},
		{
			"buffer":0,
			"byteLength":720,
			"byteOffset":18224,
			"target":34962
		},
		{
			"buffer":0,
			"byteLength":480,
			"byteOffset":18944,
			"target":34962
		},
		{
			"buffer":0,
			"byteLength":960,
			"byteOffset":19424,
			"target":34962
		}
	],
	"samplers":[
		{
			"magFilter":9729,
			"minFilter":9987
		}
	],
	"buffers":[
		{
			"byteLength":20384,
			"uri":"tile_14_0_2.bin"
		}
	]
}
