{
	"asset":{
		"generator":"Khronos glTF Blender I/O v4.0.44",
		"version":"2.0"
	},
	"extensionsUsed":[
		"KHR_materials_specular",
		"KHR_materials_ior"
	],
	"scene":0,
	"scenes":[
		{
			"name":"Scene",
			"nodes":[
				0,
				1,
				2,
				3,
				4,
				5
			]
		}
	],
	"nodes":[
		{
			"mesh":0,
			"name":"Plane",
			"scale":[
				7.873531341552734,
				0.9841914176940918,
				7.873531341552734
			]
		},
		{
			"name":"track.056",
			"scale":[
				3.7706682682037354,
				3.7706682682037354,
				3.7706682682037354
			]
		},
		{
			"mesh":1,
			"name":"Cylinder.021"
		},
		{
			"mesh":2,
			"name":"Cylinder.115"
		},
		{
			"mesh":3,
			"name":"Cylinder.116"
		},
		{
			"mesh":4,
			"name":"Cylinder.117"
		}
	],
	"materials":[
		{
			"doubleSided":true,
			"extensions":{
				"KHR_materials_specular":{
					"specularColorFactor":[
						2.0,
						2.0,
						2.0
					]
				},
				"KHR_materials_ior":{
					"ior":1.4500000476837158
				}
			},
			"name":"building",
			"pbrMetallicRoughness":{
				"baseColorTexture":{
					"index":0
				},
				"metallicFactor":0
			}
		}
	],
	"meshes":[
		{
			"name":"Plane.764",
			"primitives":[
				{
					"attributes":{
						"POSITION":0,
						"NORMAL":1,
						"TEXCOORD_0":2
					},
					"indices":3,
					"material":0
				}
			]
		},
		{
			"name":"Cylinder.366",
			"primitives":[
				{
					"attributes":{
						"POSITION":4,
						"NORMAL":5,
						"TEXCOORD_0":6
					},
					"indices":7,
					"material":0
				}
			]
		},
		{
			"name":"Cylinder.367",
			"primitives":[
				{
					"attributes":{
						"POSITION":8,
						"NORMAL":9,
						"TEXCOORD_0":10
					},
					"indices":11,
					"material":0
				}
			]
		},
		{
			"name":"Cylinder.368",
			"primitives":[
				{
					"attributes":{
						"POSITION":12,
						"NORMAL":13,
						"TEXCOORD_0":14
					},
					"indices":15,
					"material":0
				}
			]
		},
		{
			"name":"Cylinder.369",
			"primitives":[
				{
					"attributes":{
						"POSITION":16,
						"NORMAL":17,
						"TEXCOORD_0":18,
						"TANGENT":19
					},
					"indices":20,
					"material":0
				}
			]
		}
	],
	"textures":[
		{
			"sampler":0,
			"source":0
		}
	],
	"images":[
		{
			"mimeType":"image/png",
			"name":"AvatarWearables_TX",
			"uri":"tex/AvatarWearables_TX.png"
		}
	],
	"accessors":[
		{
			"bufferView":0,
			"componentType":5126,
			"count":94,
			"max":[
				0.5080318450927734,
				-3.5191659927368164,
				0.5080304145812988
			],
			"min":[
				-0.508030891418457,
				-16.256999969482422,
				-0.5080323219299316
			],
			"type":"VEC3"
		},
		{
			"bufferView":1,
			"componentType":5126,
			"count":94,
			"type":"VEC3"
		},
		{
			"bufferView":2,
			"componentType":5126,
			"count":94,
			"type":"VEC2"
		},
		{
			"bufferView":3,
			"componentType":5123,
			"count":300,
			"type":"SCALAR"
		},
		{
			"bufferView":4,
			"componentType":5126,
			"count":180,
			"max":[
				2.2837345600128174,
				-0.6173534393310547,
				4
			],
			"min":[
				-1.3601977825164795,
				-8.98128604888916,
				1.9048397541046143
			],
			"type":"VEC3"
		},
		{
			"bufferView":5,
			"componentType":5126,
			"count":180,
			"type":"VEC3"
		},
		{
			"bufferView":6,
			"componentType":5126,
			"count":180,
			"type":"VEC2"
		},
		{
			"bufferView":7,
			"componentType":5123,
			"count":660,
			"type":"SCALAR"
		},
		{
			"bufferView":8,
			"componentType":5126,
			"count":86,
			"max":[
				4,
				3.1002302169799805,
				4
			],
			"min":[
				0.11565780639648438,
				-1.5399413108825684,
				0.5811910629272461
			],
			"type":"VEC3"
		},
		{
			"bufferView":9,
			"componentType":5126,
			"count":86,
			"type":"VEC3"
		},
		{
			"bufferView":10,
			"componentType":5126,
			"count":86,
			"type":"VEC2"
		},
		{
			"bufferView":11,
			"componentType":5123,
			"count":132,
			"type":"SCALAR"
		},
		{
			"bufferView":12,
			"componentType":5126,
			"count":42,
			"max":[
				0.8501156568527222,
				-3.866283416748047,
				4
			],
			"min":[
				-0.22761642932891846,
				-4.979946136474609,
				3.748741388320923
			],
			"type":"VEC3"
		},
		{
			"bufferView":13,
			"componentType":5126,
			"count":42,
			"type":"VEC3"
		},
		{
			"bufferView":14,
			"componentType":5126,
			"count":42,
			"type":"VEC2"
		},
		{
			"bufferView":15,
			"componentType":5123,
			"count":60,
			"type":"SCALAR"
		},
		{
			"bufferView":16,
			"componentType":5126,
			"count":60,
			"max":[
				1.4203193187713623,
				-6.106904029846191,
				2.978520631790161
			],
			"min":[
				0.4350079298019409,
				-7.054093837738037,
				2.0964605808258057
			],
			"type":"VEC3"
		},
		{
			"bufferView":17,
			"componentType":5126,
			"count":60,
			"type":"VEC3"
		},
		{
			"bufferView":18,
			"componentType":5126,
			"count":60,
			"type":"VEC2"
		},
		{
			"bufferView":19,
			"componentType":5126,
			"count":60,
			"type":"VEC4"
		},
		{
			"bufferView":20,
			"componentType":5123,
			"count":60,
			"type":"SCALAR"
		}
	],
	"bufferViews":[
		{
			"buffer":0,
			"byteLength":1128,
			"byteOffset":0,
			"target":34962
		},
		{
			"buffer":0,
			"byteLength":1128,
			"byteOffset":1128,
			"target":34962
		},
		{
			"buffer":0,
			"byteLength":752,
			"byteOffset":2256,
			"target":34962
		},
		{
			"buffer":0,
			"byteLength":600,
			"byteOffset":3008,
			"target":34963
		},
		{
			"buffer":0,
			"byteLength":2160,
			"byteOffset":3608,
			"target":34962
		},
		{
			"buffer":0,
			"byteLength":2160,
			"byteOffset":5768,
			"target":34962
		},
		{
			"buffer":0,
			"byteLength":1440,
			"byteOffset":7928,
			"target":34962
		},
		{
			"buffer":0,
			"byteLength":1320,
			"byteOffset":9368,
			"target":34963
		},
		{
			"buffer":0,
			"byteLength":1032,
			"byteOffset":10688,
			"target":34962
		},
		{
			"buffer":0,
			"byteLength":1032,
			"byteOffset":11720,
			"target":34962
		},
		{
			"buffer":0,
			"byteLength":688,
			"byteOffset":12752,
			"target":34962
		},
		{
			"buffer":0,
			"byteLength":264,
			"byteOffset":13440,
			"target":34963
		},
		{
			"buffer":0,
			"byteLength":504,
			"byteOffset":13704,
			"target":34962
		},
		{
			"buffer":0,
			"byteLength":504,
			"byteOffset":14208,
			"target":34962
		},
		{
			"buffer":0,
			"byteLength":336,
			"byteOffset":14712,
			"target":34962
		},
		{
			"buffer":0,
			"byteLength":120,
			"byteOffset":15048,
			"target":34963
		},
		{
			"buffer":0,
			"byteLength":720,
			"byteOffset":15168,
			"target":34962
		},
		{
			"buffer":0,
			"byteLength":720,
			"byteOffset":15888,
			"target":34962
		},
		{
			"buffer":0,
			"byteLength":480,
			"byteOffset":16608,
			"target":34962
		},
		{
			"buffer":0,
			"byteLength":960,
			"byteOffset":17088,
			"target":34962
		},
		{
			"buffer":0,
			"byteLength":120,
			"byteOffset":18048,
			"target":34963
		}
	],
	"samplers":[
		{
			"magFilter":9729,
			"minFilter":9987
		}
	],
	"buffers":[
		{
			"byteLength":18168,
			"uri":"tile_4_0_8.bin"
		}
	]
}
