{
	"asset":{
		"generator":"Khronos glTF Blender I/O v4.0.44",
		"version":"2.0"
	},
	"extensionsUsed":[
		"KHR_materials_specular",
		"KHR_materials_ior"
	],
	"scene":0,
	"scenes":[
		{
			"name":"Scene",
			"nodes":[
				0,
				1,
				2
			]
		}
	],
	"nodes":[
		{
			"mesh":0,
			"name":"Plane",
			"scale":[
				7.873531341552734,
				0.9841914176940918,
				7.873531341552734
			]
		},
		{
			"mesh":1,
			"name":"Plane.001",
			"scale":[
				3.7706682682037354,
				3.7706682682037354,
				3.7706682682037354
			]
		},
		{
			"mesh":2,
			"name":"Cylinder",
			"rotation":[
				0,
				0.9999998807907104,
				0,
				0.0006638010963797569
			],
			"scale":[
				0.5462844967842102,
				3.0258355140686035,
				0.5462844967842102
			]
		}
	],
	"materials":[
		{
			"doubleSided":true,
			"extensions":{
				"KHR_materials_specular":{
					"specularColorFactor":[
						2.0,
						2.0,
						2.0
					]
				},
				"KHR_materials_ior":{
					"ior":1.4500000476837158
				}
			},
			"name":"building",
			"pbrMetallicRoughness":{
				"baseColorTexture":{
					"index":0
				},
				"metallicFactor":0
			}
		}
	],
	"meshes":[
		{
			"name":"Plane.020",
			"primitives":[
				{
					"attributes":{
						"POSITION":0,
						"NORMAL":1,
						"TEXCOORD_0":2
					},
					"indices":3,
					"material":0
				},
				{
					"attributes":{
						"POSITION":4,
						"NORMAL":5,
						"TEXCOORD_0":6
					},
					"indices":7,
					"material":0
				}
			]
		},
		{
			"name":"Plane.021",
			"primitives":[
				{
					"attributes":{
						"POSITION":8,
						"NORMAL":9,
						"TEXCOORD_0":10
					},
					"indices":11,
					"material":0
				}
			]
		},
		{
			"name":"Cylinder.003",
			"primitives":[
				{
					"attributes":{
						"POSITION":12,
						"NORMAL":13,
						"TEXCOORD_0":14,
						"TANGENT":15
					},
					"indices":16,
					"material":0
				}
			]
		}
	],
	"textures":[
		{
			"sampler":0,
			"source":0
		}
	],
	"images":[
		{
			"mimeType":"image/png",
			"name":"AvatarWearables_TX",
			"uri":"tex/AvatarWearables_TX.png"
		}
	],
	"accessors":[
		{
			"bufferView":0,
			"componentType":5126,
			"count":131,
			"max":[
				1.0160629749298096,
				-6.4392781257629395,
				0.9180951118469238
			],
			"min":[
				-1.0160624980926514,
				-6.77199649810791,
				-1.0160627365112305
			],
			"type":"VEC3"
		},
		{
			"bufferView":1,
			"componentType":5126,
			"count":131,
			"type":"VEC3"
		},
		{
			"bufferView":2,
			"componentType":5126,
			"count":131,
			"type":"VEC2"
		},
		{
			"bufferView":3,
			"componentType":5123,
			"count":543,
			"type":"SCALAR"
		},
		{
			"bufferView":4,
			"componentType":5126,
			"count":9,
			"max":[
				1.0160629749298096,
				-6.4392781257629395,
				0.9180951118469238
			],
			"min":[
				-1.0160624980926514,
				-6.77199649810791,
				0.6680951118469238
			],
			"type":"VEC3"
		},
		{
			"bufferView":5,
			"componentType":5126,
			"count":9,
			"type":"VEC3"
		},
		{
			"bufferView":6,
			"componentType":5126,
			"count":9,
			"type":"VEC2"
		},
		{
			"bufferView":7,
			"componentType":5123,
			"count":12,
			"type":"SCALAR"
		},
		{
			"bufferView":8,
			"componentType":5126,
			"count":75,
			"max":[
				2.1216397285461426,
				-1.4235234260559082,
				-0.32198143005371094
			],
			"min":[
				-1.376716136932373,
				-2.1216399669647217,
				-2.1216392517089844
			],
			"type":"VEC3"
		},
		{
			"bufferView":9,
			"componentType":5126,
			"count":75,
			"type":"VEC3"
		},
		{
			"bufferView":10,
			"componentType":5126,
			"count":75,
			"type":"VEC2"
		},
		{
			"bufferView":11,
			"componentType":5123,
			"count":123,
			"type":"SCALAR"
		},
		{
			"bufferView":12,
			"componentType":5126,
			"count":120,
			"max":[
				-0.04521965980529785,
				-0.9146949052810669,
				4.706545352935791
			],
			"min":[
				-4.735321044921875,
				-1.694728970527649,
				2.3487632274627686
			],
			"type":"VEC3"
		},
		{
			"bufferView":13,
			"componentType":5126,
			"count":120,
			"type":"VEC3"
		},
		{
			"bufferView":14,
			"componentType":5126,
			"count":120,
			"type":"VEC2"
		},
		{
			"bufferView":15,
			"componentType":5126,
			"count":120,
			"type":"VEC4"
		},
		{
			"bufferView":16,
			"componentType":5123,
			"count":120,
			"type":"SCALAR"
		}
	],
	"bufferViews":[
		{
			"buffer":0,
			"byteLength":1572,
			"byteOffset":0,
			"target":34962
		},
		{
			"buffer":0,
			"byteLength":1572,
			"byteOffset":1572,
			"target":34962
		},
		{
			"buffer":0,
			"byteLength":1048,
			"byteOffset":3144,
			"target":34962
		},
		{
			"buffer":0,
			"byteLength":1086,
			"byteOffset":4192,
			"target":34963
		},
		{
			"buffer":0,
			"byteLength":108,
			"byteOffset":5280,
			"target":34962
		},
		{
			"buffer":0,
			"byteLength":108,
			"byteOffset":5388,
			"target":34962
		},
		{
			"buffer":0,
			"byteLength":72,
			"byteOffset":5496,
			"target":34962
		},
		{
			"buffer":0,
			"byteLength":24,
			"byteOffset":5568,
			"target":34963
		},
		{
			"buffer":0,
			"byteLength":900,
			"byteOffset":5592,
			"target":34962
		},
		{
			"buffer":0,
			"byteLength":900,
			"byteOffset":6492,
			"target":34962
		},
		{
			"buffer":0,
			"byteLength":600,
			"byteOffset":7392,
			"target":34962
		},
		{
			"buffer":0,
			"byteLength":246,
			"byteOffset":7992,
			"target":34963
		},
		{
			"buffer":0,
			"byteLength":1440,
			"byteOffset":8240,
			"target":34962
		},
		{
			"buffer":0,
			"byteLength":1440,
			"byteOffset":9680,
			"target":34962
		},
		{
			"buffer":0,
			"byteLength":960,
			"byteOffset":11120,
			"target":34962
		},
		{
			"buffer":0,
			"byteLength":1920,
			"byteOffset":12080,
			"target":34962
		},
		{
			"buffer":0,
			"byteLength":240,
			"byteOffset":14000,
			"target":34963
		}
	],
	"samplers":[
		{
			"magFilter":9729,
			"minFilter":9987
		}
	],
	"buffers":[
		{
			"byteLength":14240,
			"uri":"tile_1_1_0.bin"
		}
	]
}
