{
	"asset":{
		"generator":"Khronos glTF Blender I/O v4.0.44",
		"version":"2.0"
	},
	"extensionsUsed":[
		"KHR_materials_specular",
		"KHR_materials_ior"
	],
	"scene":0,
	"scenes":[
		{
			"name":"Scene",
			"nodes":[
				0,
				1,
				2
			]
		}
	],
	"nodes":[
		{
			"mesh":0,
			"name":"Plane",
			"scale":[
				7.873531341552734,
				0.9841914176940918,
				7.873531341552734
			]
		},
		{
			"mesh":1,
			"name":"Plane.001",
			"scale":[
				3.7706682682037354,
				3.7706682682037354,
				3.7706682682037354
			]
		},
		{
			"mesh":2,
			"name":"Cube.010",
			"rotation":[
				0,
				-0.8695921897888184,
				0,
				0.49377062916755676
			],
			"scale":[
				1.409204125404358,
				1.409204125404358,
				1.409204125404358
			]
		}
	],
	"materials":[
		{
			"doubleSided":true,
			"extensions":{
				"KHR_materials_specular":{
					"specularColorFactor":[
						2.0,
						2.0,
						2.0
					]
				},
				"KHR_materials_ior":{
					"ior":1.4500000476837158
				}
			},
			"name":"building",
			"pbrMetallicRoughness":{
				"baseColorTexture":{
					"index":0
				},
				"metallicFactor":0
			}
		}
	],
	"meshes":[
		{
			"name":"Plane.110",
			"primitives":[
				{
					"attributes":{
						"POSITION":0,
						"NORMAL":1,
						"TEXCOORD_0":2
					},
					"indices":3,
					"material":0
				},
				{
					"attributes":{
						"POSITION":4,
						"NORMAL":5,
						"TEXCOORD_0":6
					},
					"indices":7,
					"material":0
				}
			]
		},
		{
			"name":"Plane.111",
			"primitives":[
				{
					"attributes":{
						"POSITION":8,
						"NORMAL":9,
						"TEXCOORD_0":10
					},
					"indices":11,
					"material":0
				},
				{
					"attributes":{
						"POSITION":12,
						"NORMAL":13,
						"TEXCOORD_0":14
					},
					"indices":15,
					"material":0
				}
			]
		},
		{
			"name":"Cube.043",
			"primitives":[
				{
					"attributes":{
						"POSITION":16,
						"NORMAL":17,
						"TEXCOORD_0":18
					},
					"indices":19,
					"material":0
				}
			]
		}
	],
	"textures":[
		{
			"sampler":0,
			"source":0
		}
	],
	"images":[
		{
			"mimeType":"image/png",
			"name":"AvatarWearables_TX",
			"uri":"tex/AvatarWearables_TX.png"
		}
	],
	"accessors":[
		{
			"bufferView":0,
			"componentType":5126,
			"count":144,
			"max":[
				1.0160624980926514,
				-6.4392781257629395,
				0.9180951118469238
			],
			"min":[
				-1.0160624980926514,
				-6.77199649810791,
				-1.0160627365112305
			],
			"type":"VEC3"
		},
		{
			"bufferView":1,
			"componentType":5126,
			"count":144,
			"type":"VEC3"
		},
		{
			"bufferView":2,
			"componentType":5126,
			"count":144,
			"type":"VEC2"
		},
		{
			"bufferView":3,
			"componentType":5123,
			"count":603,
			"type":"SCALAR"
		},
		{
			"bufferView":4,
			"componentType":5126,
			"count":9,
			"max":[
				1.0160624980926514,
				-6.4392781257629395,
				0.9180951118469238
			],
			"min":[
				-1.0160624980926514,
				-6.77199649810791,
				0.6680951118469238
			],
			"type":"VEC3"
		},
		{
			"bufferView":5,
			"componentType":5126,
			"count":9,
			"type":"VEC3"
		},
		{
			"bufferView":6,
			"componentType":5126,
			"count":9,
			"type":"VEC2"
		},
		{
			"bufferView":7,
			"componentType":5123,
			"count":12,
			"type":"SCALAR"
		},
		{
			"bufferView":8,
			"componentType":5126,
			"count":103,
			"max":[
				1.85243558883667,
				-1.419204592704773,
				1.291402816772461
			],
			"min":[
				-2.1216416358947754,
				-1.9856903553009033,
				-2.1216392517089844
			],
			"type":"VEC3"
		},
		{
			"bufferView":9,
			"componentType":5126,
			"count":103,
			"type":"VEC3"
		},
		{
			"bufferView":10,
			"componentType":5126,
			"count":103,
			"type":"VEC2"
		},
		{
			"bufferView":11,
			"componentType":5123,
			"count":159,
			"type":"SCALAR"
		},
		{
			"bufferView":12,
			"componentType":5126,
			"count":26,
			"max":[
				1.85243558883667,
				-1.4203436374664307,
				1.291402816772461
			],
			"min":[
				-2.1216416358947754,
				-1.9856903553009033,
				-2.1216392517089844
			],
			"type":"VEC3"
		},
		{
			"bufferView":13,
			"componentType":5126,
			"count":26,
			"type":"VEC3"
		},
		{
			"bufferView":14,
			"componentType":5126,
			"count":26,
			"type":"VEC2"
		},
		{
			"bufferView":15,
			"componentType":5123,
			"count":66,
			"type":"SCALAR"
		},
		{
			"bufferView":16,
			"componentType":5126,
			"count":322,
			"max":[
				-3.134690999984741,
				-2.7964391708374023,
				-1.8171964883804321
			],
			"min":[
				-7.783907890319824,
				-4.798324108123779,
				-3.8874588012695312
			],
			"type":"VEC3"
		},
		{
			"bufferView":17,
			"componentType":5126,
			"count":322,
			"type":"VEC3"
		},
		{
			"bufferView":18,
			"componentType":5126,
			"count":322,
			"type":"VEC2"
		},
		{
			"bufferView":19,
			"componentType":5123,
			"count":540,
			"type":"SCALAR"
		}
	],
	"bufferViews":[
		{
			"buffer":0,
			"byteLength":1728,
			"byteOffset":0,
			"target":34962
		},
		{
			"buffer":0,
			"byteLength":1728,
			"byteOffset":1728,
			"target":34962
		},
		{
			"buffer":0,
			"byteLength":1152,
			"byteOffset":3456,
			"target":34962
		},
		{
			"buffer":0,
			"byteLength":1206,
			"byteOffset":4608,
			"target":34963
		},
		{
			"buffer":0,
			"byteLength":108,
			"byteOffset":5816,
			"target":34962
		},
		{
			"buffer":0,
			"byteLength":108,
			"byteOffset":5924,
			"target":34962
		},
		{
			"buffer":0,
			"byteLength":72,
			"byteOffset":6032,
			"target":34962
		},
		{
			"buffer":0,
			"byteLength":24,
			"byteOffset":6104,
			"target":34963
		},
		{
			"buffer":0,
			"byteLength":1236,
			"byteOffset":6128,
			"target":34962
		},
		{
			"buffer":0,
			"byteLength":1236,
			"byteOffset":7364,
			"target":34962
		},
		{
			"buffer":0,
			"byteLength":824,
			"byteOffset":8600,
			"target":34962
		},
		{
			"buffer":0,
			"byteLength":318,
			"byteOffset":9424,
			"target":34963
		},
		{
			"buffer":0,
			"byteLength":312,
			"byteOffset":9744,
			"target":34962
		},
		{
			"buffer":0,
			"byteLength":312,
			"byteOffset":10056,
			"target":34962
		},
		{
			"buffer":0,
			"byteLength":208,
			"byteOffset":10368,
			"target":34962
		},
		{
			"buffer":0,
			"byteLength":132,
			"byteOffset":10576,
			"target":34963
		},
		{
			"buffer":0,
			"byteLength":3864,
			"byteOffset":10708,
			"target":34962
		},
		{
			"buffer":0,
			"byteLength":3864,
			"byteOffset":14572,
			"target":34962
		},
		{
			"buffer":0,
			"byteLength":2576,
			"byteOffset":18436,
			"target":34962
		},
		{
			"buffer":0,
			"byteLength":1080,
			"byteOffset":21012,
			"target":34963
		}
	],
	"samplers":[
		{
			"magFilter":9729,
			"minFilter":9987
		}
	],
	"buffers":[
		{
			"byteLength":22092,
			"uri":"tile_6_1_0.bin"
		}
	]
}
