{
	"asset":{
		"generator":"Khronos glTF Blender I/O v4.0.44",
		"version":"2.0"
	},
	"extensionsUsed":[
		"KHR_materials_specular",
		"KHR_materials_ior",
		"KHR_materials_emissive_strength"
	],
	"scene":0,
	"scenes":[
		{
			"name":"Scene",
			"nodes":[
				0,
				1,
				2
			]
		}
	],
	"nodes":[
		{
			"mesh":0,
			"name":"Plane",
			"scale":[
				7.873531341552734,
				0.9841914176940918,
				7.873531341552734
			]
		},
		{
			"mesh":1,
			"name":"track.219",
			"scale":[
				3.7706682682037354,
				3.7706682682037354,
				3.7706682682037354
			]
		},
		{
			"mesh":2,
			"name":"Cube.003",
			"rotation":[
				0,
				-0.9460921287536621,
				0,
				0.3238976299762726
			],
			"scale":[
				2.266324758529663,
				2.2663252353668213,
				2.266324758529663
			]
		}
	],
	"materials":[
		{
			"doubleSided":true,
			"extensions":{
				"KHR_materials_specular":{
					"specularColorFactor":[
						2.0,
						2.0,
						2.0
					]
				},
				"KHR_materials_ior":{
					"ior":1.4500000476837158
				}
			},
			"name":"building",
			"pbrMetallicRoughness":{
				"baseColorTexture":{
					"index":0
				},
				"metallicFactor":0
			}
		},
		{
			"doubleSided":true,
			"extensions":{
				"KHR_materials_specular":{
					"specularColorFactor":[
						2.0,
						2.0,
						2.0
					]
				},
				"KHR_materials_ior":{
					"ior":1.4500000476837158
				}
			},
			"name":"building2",
			"pbrMetallicRoughness":{
				"baseColorTexture":{
					"index":1
				},
				"metallicFactor":0,
				"roughnessFactor":0.17924527823925018
			}
		},
		{
			"doubleSided":true,
			"emissiveFactor":[
				0.09784298909313212,
				1,
				0.08569416583338194
			],
			"extensions":{
				"KHR_materials_emissive_strength":{
					"emissiveStrength":1.5982129573822021
				}
			},
			"name":"Glow4",
			"pbrMetallicRoughness":{
				"baseColorFactor":[
					0.078976109623909,
					0.8012131452560425,
					0.06799241155385971,
					1
				],
				"metallicFactor":0
			}
		}
	],
	"meshes":[
		{
			"name":"Plane.1088",
			"primitives":[
				{
					"attributes":{
						"POSITION":0,
						"NORMAL":1,
						"TEXCOORD_0":2
					},
					"indices":3,
					"material":0
				}
			]
		},
		{
			"name":"Plane.1089",
			"primitives":[
				{
					"attributes":{
						"POSITION":4,
						"NORMAL":5,
						"TEXCOORD_0":6
					},
					"indices":7,
					"material":0
				}
			]
		},
		{
			"name":"Cube.680",
			"primitives":[
				{
					"attributes":{
						"POSITION":8,
						"NORMAL":9,
						"TEXCOORD_0":10
					},
					"indices":11,
					"material":1
				},
				{
					"attributes":{
						"POSITION":12,
						"NORMAL":13,
						"TEXCOORD_0":14
					},
					"indices":15,
					"material":2
				},
				{
					"attributes":{
						"POSITION":16,
						"NORMAL":17,
						"TEXCOORD_0":18
					},
					"indices":19,
					"material":2
				}
			]
		}
	],
	"textures":[
		{
			"sampler":0,
			"source":0
		},
		{
			"sampler":0,
			"source":0
		}
	],
	"images":[
		{
			"mimeType":"image/png",
			"name":"AvatarWearables_TX",
			"uri":"tex/AvatarWearables_TX.png"
		}
	],
	"accessors":[
		{
			"bufferView":0,
			"componentType":5126,
			"count":59,
			"max":[
				0.5080313682556152,
				-14.175863265991211,
				0.5080311298370361
			],
			"min":[
				-0.5080313682556152,
				-16.256999969482422,
				-0.5080316066741943
			],
			"type":"VEC3"
		},
		{
			"bufferView":1,
			"componentType":5126,
			"count":59,
			"type":"VEC3"
		},
		{
			"bufferView":2,
			"componentType":5126,
			"count":59,
			"type":"VEC2"
		},
		{
			"bufferView":3,
			"componentType":5123,
			"count":198,
			"type":"SCALAR"
		},
		{
			"bufferView":4,
			"componentType":5126,
			"count":72,
			"max":[
				0.8936557769775391,
				-2.7574329376220703,
				1.0608196258544922
			],
			"min":[
				-1.0608234405517578,
				-4.243279933929443,
				-0.9108057022094727
			],
			"type":"VEC3"
		},
		{
			"bufferView":5,
			"componentType":5126,
			"count":72,
			"type":"VEC3"
		},
		{
			"bufferView":6,
			"componentType":5126,
			"count":72,
			"type":"VEC2"
		},
		{
			"bufferView":7,
			"componentType":5123,
			"count":129,
			"type":"SCALAR"
		},
		{
			"bufferView":8,
			"componentType":5126,
			"count":767,
			"max":[
				-1.0189980268478394,
				2.969466209411621,
				1.4432833194732666
			],
			"min":[
				-2.4763522148132324,
				-6.45576286315918,
				0.1303039789199829
			],
			"type":"VEC3"
		},
		{
			"bufferView":9,
			"componentType":5126,
			"count":767,
			"type":"VEC3"
		},
		{
			"bufferView":10,
			"componentType":5126,
			"count":767,
			"type":"VEC2"
		},
		{
			"bufferView":11,
			"componentType":5123,
			"count":1605,
			"type":"SCALAR"
		},
		{
			"bufferView":12,
			"componentType":5126,
			"count":169,
			"max":[
				-1.1385596990585327,
				2.969466209411621,
				1.344401240348816
			],
			"min":[
				-2.4763522148132324,
				-5.608687877655029,
				0.1826636791229248
			],
			"type":"VEC3"
		},
		{
			"bufferView":13,
			"componentType":5126,
			"count":169,
			"type":"VEC3"
		},
		{
			"bufferView":14,
			"componentType":5126,
			"count":169,
			"type":"VEC2"
		},
		{
			"bufferView":15,
			"componentType":5123,
			"count":324,
			"type":"SCALAR"
		},
		{
			"bufferView":16,
			"componentType":5126,
			"count":386,
			"max":[
				-1.0189980268478394,
				2.969466209411621,
				1.4432833194732666
			],
			"min":[
				-2.4763522148132324,
				-6.45576286315918,
				0.1303039789199829
			],
			"type":"VEC3"
		},
		{
			"bufferView":17,
			"componentType":5126,
			"count":386,
			"type":"VEC3"
		},
		{
			"bufferView":18,
			"componentType":5126,
			"count":386,
			"type":"VEC2"
		},
		{
			"bufferView":19,
			"componentType":5123,
			"count":1026,
			"type":"SCALAR"
		}
	],
	"bufferViews":[
		{
			"buffer":0,
			"byteLength":708,
			"byteOffset":0,
			"target":34962
		},
		{
			"buffer":0,
			"byteLength":708,
			"byteOffset":708,
			"target":34962
		},
		{
			"buffer":0,
			"byteLength":472,
			"byteOffset":1416,
			"target":34962
		},
		{
			"buffer":0,
			"byteLength":396,
			"byteOffset":1888,
			"target":34963
		},
		{
			"buffer":0,
			"byteLength":864,
			"byteOffset":2284,
			"target":34962
		},
		{
			"buffer":0,
			"byteLength":864,
			"byteOffset":3148,
			"target":34962
		},
		{
			"buffer":0,
			"byteLength":576,
			"byteOffset":4012,
			"target":34962
		},
		{
			"buffer":0,
			"byteLength":258,
			"byteOffset":4588,
			"target":34963
		},
		{
			"buffer":0,
			"byteLength":9204,
			"byteOffset":4848,
			"target":34962
		},
		{
			"buffer":0,
			"byteLength":9204,
			"byteOffset":14052,
			"target":34962
		},
		{
			"buffer":0,
			"byteLength":6136,
			"byteOffset":23256,
			"target":34962
		},
		{
			"buffer":0,
			"byteLength":3210,
			"byteOffset":29392,
			"target":34963
		},
		{
			"buffer":0,
			"byteLength":2028,
			"byteOffset":32604,
			"target":34962
		},
		{
			"buffer":0,
			"byteLength":2028,
			"byteOffset":34632,
			"target":34962
		},
		{
			"buffer":0,
			"byteLength":1352,
			"byteOffset":36660,
			"target":34962
		},
		{
			"buffer":0,
			"byteLength":648,
			"byteOffset":38012,
			"target":34963
		},
		{
			"buffer":0,
			"byteLength":4632,
			"byteOffset":38660,
			"target":34962
		},
		{
			"buffer":0,
			"byteLength":4632,
			"byteOffset":43292,
			"target":34962
		},
		{
			"buffer":0,
			"byteLength":3088,
			"byteOffset":47924,
			"target":34962
		},
		{
			"buffer":0,
			"byteLength":2052,
			"byteOffset":51012,
			"target":34963
		}
	],
	"samplers":[
		{
			"magFilter":9729,
			"minFilter":9987
		}
	],
	"buffers":[
		{
			"byteLength":53064,
			"uri":"tile_18_0_2.bin"
		}
	]
}
