{
	"asset":{
		"generator":"Khronos glTF Blender I/O v4.0.44",
		"version":"2.0"
	},
	"extensionsUsed":[
		"KHR_materials_specular",
		"KHR_materials_ior",
		"KHR_materials_emissive_strength"
	],
	"scene":0,
	"scenes":[
		{
			"name":"Scene",
			"nodes":[
				0,
				1,
				2
			]
		}
	],
	"nodes":[
		{
			"mesh":0,
			"name":"Plane",
			"scale":[
				7.873531341552734,
				0.9841914176940918,
				7.873531341552734
			]
		},
		{
			"name":"track.221",
			"scale":[
				3.7706682682037354,
				3.7706682682037354,
				3.7706682682037354
			]
		},
		{
			"mesh":1,
			"name":"Cube.003",
			"rotation":[
				0,
				-0.9460921287536621,
				0,
				0.3238976299762726
			],
			"scale":[
				2.266324758529663,
				2.2663252353668213,
				2.266324758529663
			]
		}
	],
	"materials":[
		{
			"doubleSided":true,
			"extensions":{
				"KHR_materials_specular":{
					"specularColorFactor":[
						2.0,
						2.0,
						2.0
					]
				},
				"KHR_materials_ior":{
					"ior":1.4500000476837158
				}
			},
			"name":"building",
			"pbrMetallicRoughness":{
				"baseColorTexture":{
					"index":0
				},
				"metallicFactor":0
			}
		},
		{
			"doubleSided":true,
			"extensions":{
				"KHR_materials_specular":{
					"specularColorFactor":[
						2.0,
						2.0,
						2.0
					]
				},
				"KHR_materials_ior":{
					"ior":1.4500000476837158
				}
			},
			"name":"building2",
			"pbrMetallicRoughness":{
				"baseColorTexture":{
					"index":1
				},
				"metallicFactor":0,
				"roughnessFactor":0.17924527823925018
			}
		},
		{
			"doubleSided":true,
			"emissiveFactor":[
				0.09784298909313212,
				1,
				0.08569416583338194
			],
			"extensions":{
				"KHR_materials_emissive_strength":{
					"emissiveStrength":1.5982129573822021
				}
			},
			"name":"Glow4",
			"pbrMetallicRoughness":{
				"baseColorFactor":[
					0.078976109623909,
					0.8012131452560425,
					0.06799241155385971,
					1
				],
				"metallicFactor":0
			}
		}
	],
	"meshes":[
		{
			"name":"Plane.1092",
			"primitives":[
				{
					"attributes":{
						"POSITION":0,
						"NORMAL":1,
						"TEXCOORD_0":2
					},
					"indices":3,
					"material":0
				}
			]
		},
		{
			"name":"Cube.682",
			"primitives":[
				{
					"attributes":{
						"POSITION":4,
						"NORMAL":5,
						"TEXCOORD_0":6
					},
					"indices":7,
					"material":1
				},
				{
					"attributes":{
						"POSITION":8,
						"NORMAL":9,
						"TEXCOORD_0":10
					},
					"indices":11,
					"material":2
				}
			]
		}
	],
	"textures":[
		{
			"sampler":0,
			"source":0
		},
		{
			"sampler":0,
			"source":0
		}
	],
	"images":[
		{
			"mimeType":"image/png",
			"name":"AvatarWearables_TX",
			"uri":"tex/AvatarWearables_TX.png"
		}
	],
	"accessors":[
		{
			"bufferView":0,
			"componentType":5126,
			"count":90,
			"max":[
				0.5080313682556152,
				-10.765287399291992,
				0.5080304145812988
			],
			"min":[
				-0.5080313682556152,
				-16.256999969482422,
				-0.5080322027206421
			],
			"type":"VEC3"
		},
		{
			"bufferView":1,
			"componentType":5126,
			"count":90,
			"type":"VEC3"
		},
		{
			"bufferView":2,
			"componentType":5126,
			"count":90,
			"type":"VEC2"
		},
		{
			"bufferView":3,
			"componentType":5123,
			"count":279,
			"type":"SCALAR"
		},
		{
			"bufferView":4,
			"componentType":5126,
			"count":18,
			"max":[
				0.4432539939880371,
				-6.408031463623047,
				-1.889837622642517
			],
			"min":[
				0.31571710109710693,
				-6.45576286315918,
				-1.988756775856018
			],
			"type":"VEC3"
		},
		{
			"bufferView":5,
			"componentType":5126,
			"count":18,
			"type":"VEC3"
		},
		{
			"bufferView":6,
			"componentType":5126,
			"count":18,
			"type":"VEC2"
		},
		{
			"bufferView":7,
			"componentType":5123,
			"count":33,
			"type":"SCALAR"
		},
		{
			"bufferView":8,
			"componentType":5126,
			"count":9,
			"max":[
				0.4432539939880371,
				-6.408031463623047,
				-1.889837622642517
			],
			"min":[
				0.31571710109710693,
				-6.45576286315918,
				-1.988756775856018
			],
			"type":"VEC3"
		},
		{
			"bufferView":9,
			"componentType":5126,
			"count":9,
			"type":"VEC3"
		},
		{
			"bufferView":10,
			"componentType":5126,
			"count":9,
			"type":"VEC2"
		},
		{
			"bufferView":11,
			"componentType":5123,
			"count":21,
			"type":"SCALAR"
		}
	],
	"bufferViews":[
		{
			"buffer":0,
			"byteLength":1080,
			"byteOffset":0,
			"target":34962
		},
		{
			"buffer":0,
			"byteLength":1080,
			"byteOffset":1080,
			"target":34962
		},
		{
			"buffer":0,
			"byteLength":720,
			"byteOffset":2160,
			"target":34962
		},
		{
			"buffer":0,
			"byteLength":558,
			"byteOffset":2880,
			"target":34963
		},
		{
			"buffer":0,
			"byteLength":216,
			"byteOffset":3440,
			"target":34962
		},
		{
			"buffer":0,
			"byteLength":216,
			"byteOffset":3656,
			"target":34962
		},
		{
			"buffer":0,
			"byteLength":144,
			"byteOffset":3872,
			"target":34962
		},
		{
			"buffer":0,
			"byteLength":66,
			"byteOffset":4016,
			"target":34963
		},
		{
			"buffer":0,
			"byteLength":108,
			"byteOffset":4084,
			"target":34962
		},
		{
			"buffer":0,
			"byteLength":108,
			"byteOffset":4192,
			"target":34962
		},
		{
			"buffer":0,
			"byteLength":72,
			"byteOffset":4300,
			"target":34962
		},
		{
			"buffer":0,
			"byteLength":42,
			"byteOffset":4372,
			"target":34963
		}
	],
	"samplers":[
		{
			"magFilter":9729,
			"minFilter":9987
		}
	],
	"buffers":[
		{
			"byteLength":4416,
			"uri":"tile_18_0_4.bin"
		}
	]
}
