{
	"asset":{
		"generator":"Khronos glTF Blender I/O v4.0.44",
		"version":"2.0"
	},
	"extensionsUsed":[
		"KHR_materials_specular",
		"KHR_materials_ior",
		"KHR_materials_emissive_strength"
	],
	"scene":0,
	"scenes":[
		{
			"name":"Scene",
			"nodes":[
				0,
				1,
				2,
				3
			]
		}
	],
	"nodes":[
		{
			"mesh":0,
			"name":"Plane",
			"scale":[
				7.873531341552734,
				0.9841914176940918,
				7.873531341552734
			]
		},
		{
			"mesh":1,
			"name":"track.027",
			"scale":[
				3.7706682682037354,
				3.7706682682037354,
				3.7706682682037354
			]
		},
		{
			"mesh":2,
			"name":"Cube",
			"rotation":[
				0,
				0.3507235050201416,
				0,
				0.9364790320396423
			],
			"scale":[
				2.5203466415405273,
				2.5203466415405273,
				2.5203466415405273
			]
		},
		{
			"mesh":3,
			"name":"Cube.012",
			"rotation":[
				0,
				-0.4193370044231415,
				0,
				0.9078306555747986
			],
			"scale":[
				2.2909789085388184,
				3.6719183921813965,
				2.2909789085388184
			]
		}
	],
	"materials":[
		{
			"doubleSided":true,
			"extensions":{
				"KHR_materials_specular":{
					"specularColorFactor":[
						2.0,
						2.0,
						2.0
					]
				},
				"KHR_materials_ior":{
					"ior":1.4500000476837158
				}
			},
			"name":"building",
			"pbrMetallicRoughness":{
				"baseColorTexture":{
					"index":0
				},
				"metallicFactor":0
			}
		},
		{
			"doubleSided":true,
			"extensions":{
				"KHR_materials_specular":{
					"specularColorFactor":[
						2.0,
						2.0,
						2.0
					]
				},
				"KHR_materials_ior":{
					"ior":1.4500000476837158
				}
			},
			"name":"building2",
			"pbrMetallicRoughness":{
				"baseColorTexture":{
					"index":1
				},
				"metallicFactor":0,
				"roughnessFactor":0.17924527823925018
			}
		},
		{
			"doubleSided":true,
			"emissiveFactor":[
				1,
				0.2655798013274177,
				0.04142626284219435
			],
			"extensions":{
				"KHR_materials_emissive_strength":{
					"emissiveStrength":1.5982129573822021
				}
			},
			"name":"Glow1",
			"pbrMetallicRoughness":{
				"baseColorFactor":[
					0.8008996248245239,
					0.21048900485038757,
					0.033567022532224655,
					1
				],
				"metallicFactor":0
			}
		}
	],
	"meshes":[
		{
			"name":"Plane.706",
			"primitives":[
				{
					"attributes":{
						"POSITION":0,
						"NORMAL":1,
						"TEXCOORD_0":2,
						"TANGENT":3
					},
					"indices":4,
					"material":0
				}
			]
		},
		{
			"name":"Plane.707",
			"primitives":[
				{
					"attributes":{
						"POSITION":5,
						"NORMAL":6,
						"TEXCOORD_0":7
					},
					"indices":8,
					"material":0
				},
				{
					"attributes":{
						"POSITION":9,
						"NORMAL":10,
						"TEXCOORD_0":11
					},
					"indices":12,
					"material":0
				}
			]
		},
		{
			"name":"Cube.540",
			"primitives":[
				{
					"attributes":{
						"POSITION":13,
						"NORMAL":14,
						"TEXCOORD_0":15
					},
					"indices":16,
					"material":1
				}
			]
		},
		{
			"name":"Cube.541",
			"primitives":[
				{
					"attributes":{
						"POSITION":17,
						"NORMAL":18,
						"TEXCOORD_0":19
					},
					"indices":20,
					"material":1
				},
				{
					"attributes":{
						"POSITION":21,
						"NORMAL":22,
						"TEXCOORD_0":23
					},
					"indices":24,
					"material":2
				}
			]
		}
	],
	"textures":[
		{
			"sampler":0,
			"source":0
		},
		{
			"sampler":0,
			"source":0
		}
	],
	"images":[
		{
			"mimeType":"image/png",
			"name":"AvatarWearables_TX",
			"uri":"tex/AvatarWearables_TX.png"
		}
	],
	"accessors":[
		{
			"bufferView":0,
			"componentType":5126,
			"count":36,
			"max":[
				0.508030891418457,
				-14.900496482849121,
				0.508030891418457
			],
			"min":[
				-0.508030891418457,
				-14.900496482849121,
				-0.5080318450927734
			],
			"type":"VEC3"
		},
		{
			"bufferView":1,
			"componentType":5126,
			"count":36,
			"type":"VEC3"
		},
		{
			"bufferView":2,
			"componentType":5126,
			"count":36,
			"type":"VEC2"
		},
		{
			"bufferView":3,
			"componentType":5126,
			"count":36,
			"type":"VEC4"
		},
		{
			"bufferView":4,
			"componentType":5123,
			"count":150,
			"type":"SCALAR"
		},
		{
			"bufferView":5,
			"componentType":5126,
			"count":58,
			"max":[
				0.9682393074035645,
				-3.5360381603240967,
				1.0608196258544922
			],
			"min":[
				-1.0608210563659668,
				-4.107331275939941,
				-1.0608196258544922
			],
			"type":"VEC3"
		},
		{
			"bufferView":6,
			"componentType":5126,
			"count":58,
			"type":"VEC3"
		},
		{
			"bufferView":7,
			"componentType":5126,
			"count":58,
			"type":"VEC2"
		},
		{
			"bufferView":8,
			"componentType":5123,
			"count":90,
			"type":"SCALAR"
		},
		{
			"bufferView":9,
			"componentType":5126,
			"count":21,
			"max":[
				0.9682393074035645,
				-3.5361156463623047,
				1.0608196258544922
			],
			"min":[
				-1.0608210563659668,
				-4.243279933929443,
				-1.0608196258544922
			],
			"type":"VEC3"
		},
		{
			"bufferView":10,
			"componentType":5126,
			"count":21,
			"type":"VEC3"
		},
		{
			"bufferView":11,
			"componentType":5126,
			"count":21,
			"type":"VEC2"
		},
		{
			"bufferView":12,
			"componentType":5123,
			"count":45,
			"type":"SCALAR"
		},
		{
			"bufferView":13,
			"componentType":5126,
			"count":102,
			"max":[
				1.616943120956421,
				-0.2456836700439453,
				-0.6962057948112488
			],
			"min":[
				1.3157519102096558,
				-3.123410701751709,
				-0.9586107134819031
			],
			"type":"VEC3"
		},
		{
			"bufferView":14,
			"componentType":5126,
			"count":102,
			"type":"VEC3"
		},
		{
			"bufferView":15,
			"componentType":5126,
			"count":102,
			"type":"VEC2"
		},
		{
			"bufferView":16,
			"componentType":5123,
			"count":180,
			"type":"SCALAR"
		},
		{
			"bufferView":17,
			"componentType":5126,
			"count":1320,
			"max":[
				1.1887266635894775,
				0.012632131576538086,
				-1.2809886932373047
			],
			"min":[
				0.35359692573547363,
				-3.978750228881836,
				-1.9921045303344727
			],
			"type":"VEC3"
		},
		{
			"bufferView":18,
			"componentType":5126,
			"count":1320,
			"type":"VEC3"
		},
		{
			"bufferView":19,
			"componentType":5126,
			"count":1320,
			"type":"VEC2"
		},
		{
			"bufferView":20,
			"componentType":5123,
			"count":2505,
			"type":"SCALAR"
		},
		{
			"bufferView":21,
			"componentType":5126,
			"count":180,
			"max":[
				1.1887266635894775,
				0.012632131576538086,
				-1.2809886932373047
			],
			"min":[
				0.35359883308410645,
				-3.690941333770752,
				-1.992102861404419
			],
			"type":"VEC3"
		},
		{
			"bufferView":22,
			"componentType":5126,
			"count":180,
			"type":"VEC3"
		},
		{
			"bufferView":23,
			"componentType":5126,
			"count":180,
			"type":"VEC2"
		},
		{
			"bufferView":24,
			"componentType":5123,
			"count":339,
			"type":"SCALAR"
		}
	],
	"bufferViews":[
		{
			"buffer":0,
			"byteLength":432,
			"byteOffset":0,
			"target":34962
		},
		{
			"buffer":0,
			"byteLength":432,
			"byteOffset":432,
			"target":34962
		},
		{
			"buffer":0,
			"byteLength":288,
			"byteOffset":864,
			"target":34962
		},
		{
			"buffer":0,
			"byteLength":576,
			"byteOffset":1152,
			"target":34962
		},
		{
			"buffer":0,
			"byteLength":300,
			"byteOffset":1728,
			"target":34963
		},
		{
			"buffer":0,
			"byteLength":696,
			"byteOffset":2028,
			"target":34962
		},
		{
			"buffer":0,
			"byteLength":696,
			"byteOffset":2724,
			"target":34962
		},
		{
			"buffer":0,
			"byteLength":464,
			"byteOffset":3420,
			"target":34962
		},
		{
			"buffer":0,
			"byteLength":180,
			"byteOffset":3884,
			"target":34963
		},
		{
			"buffer":0,
			"byteLength":252,
			"byteOffset":4064,
			"target":34962
		},
		{
			"buffer":0,
			"byteLength":252,
			"byteOffset":4316,
			"target":34962
		},
		{
			"buffer":0,
			"byteLength":168,
			"byteOffset":4568,
			"target":34962
		},
		{
			"buffer":0,
			"byteLength":90,
			"byteOffset":4736,
			"target":34963
		},
		{
			"buffer":0,
			"byteLength":1224,
			"byteOffset":4828,
			"target":34962
		},
		{
			"buffer":0,
			"byteLength":1224,
			"byteOffset":6052,
			"target":34962
		},
		{
			"buffer":0,
			"byteLength":816,
			"byteOffset":7276,
			"target":34962
		},
		{
			"buffer":0,
			"byteLength":360,
			"byteOffset":8092,
			"target":34963
		},
		{
			"buffer":0,
			"byteLength":15840,
			"byteOffset":8452,
			"target":34962
		},
		{
			"buffer":0,
			"byteLength":15840,
			"byteOffset":24292,
			"target":34962
		},
		{
			"buffer":0,
			"byteLength":10560,
			"byteOffset":40132,
			"target":34962
		},
		{
			"buffer":0,
			"byteLength":5010,
			"byteOffset":50692,
			"target":34963
		},
		{
			"buffer":0,
			"byteLength":2160,
			"byteOffset":55704,
			"target":34962
		},
		{
			"buffer":0,
			"byteLength":2160,
			"byteOffset":57864,
			"target":34962
		},
		{
			"buffer":0,
			"byteLength":1440,
			"byteOffset":60024,
			"target":34962
		},
		{
			"buffer":0,
			"byteLength":678,
			"byteOffset":61464,
			"target":34963
		}
	],
	"samplers":[
		{
			"magFilter":9729,
			"minFilter":9987
		}
	],
	"buffers":[
		{
			"byteLength":62144,
			"uri":"tile_2_0_3.bin"
		}
	]
}
