{
	"asset":{
		"generator":"Khronos glTF Blender I/O v4.0.44",
		"version":"2.0"
	},
	"extensionsUsed":[
		"KHR_materials_specular",
		"KHR_materials_ior",
		"KHR_materials_emissive_strength"
	],
	"scene":0,
	"scenes":[
		{
			"name":"Scene",
			"nodes":[
				0,
				1,
				2
			]
		}
	],
	"nodes":[
		{
			"mesh":0,
			"name":"Plane",
			"scale":[
				7.873531341552734,
				0.9841914176940918,
				7.873531341552734
			]
		},
		{
			"mesh":1,
			"name":"track.250",
			"scale":[
				3.7706682682037354,
				3.7706682682037354,
				3.7706682682037354
			]
		},
		{
			"mesh":2,
			"name":"Cylinder.001",
			"rotation":[
				-1,
				0,
				0,
				7.549790836947068e-08
			],
			"scale":[
				1.9539721012115479,
				1.9539721012115479,
				1.9539721012115479
			]
		}
	],
	"materials":[
		{
			"doubleSided":true,
			"extensions":{
				"KHR_materials_specular":{
					"specularColorFactor":[
						2.0,
						2.0,
						2.0
					]
				},
				"KHR_materials_ior":{
					"ior":1.4500000476837158
				}
			},
			"name":"building",
			"pbrMetallicRoughness":{
				"baseColorTexture":{
					"index":0
				},
				"metallicFactor":0
			}
		},
		{
			"doubleSided":true,
			"emissiveFactor":[
				1,
				0.2655798013274177,
				0.04142626284219435
			],
			"extensions":{
				"KHR_materials_emissive_strength":{
					"emissiveStrength":1.5982129573822021
				}
			},
			"name":"Glow1",
			"pbrMetallicRoughness":{
				"baseColorFactor":[
					0.8008996248245239,
					0.21048900485038757,
					0.033567022532224655,
					1
				],
				"metallicFactor":0
			}
		},
		{
			"doubleSided":true,
			"extensions":{
				"KHR_materials_specular":{
					"specularColorFactor":[
						2.0,
						2.0,
						2.0
					]
				},
				"KHR_materials_ior":{
					"ior":1.4500000476837158
				}
			},
			"name":"building2",
			"pbrMetallicRoughness":{
				"baseColorTexture":{
					"index":1
				},
				"metallicFactor":0,
				"roughnessFactor":0.17924527823925018
			}
		}
	],
	"meshes":[
		{
			"name":"Plane.1150",
			"primitives":[
				{
					"attributes":{
						"POSITION":0,
						"NORMAL":1,
						"TEXCOORD_0":2,
						"TANGENT":3
					},
					"indices":4,
					"material":0
				}
			]
		},
		{
			"name":"Plane.1151",
			"primitives":[
				{
					"attributes":{
						"POSITION":5,
						"NORMAL":6,
						"TEXCOORD_0":7
					},
					"indices":8,
					"material":0
				}
			]
		},
		{
			"name":"Cylinder.465",
			"primitives":[
				{
					"attributes":{
						"POSITION":9,
						"NORMAL":10,
						"TEXCOORD_0":11
					},
					"indices":12,
					"material":1
				},
				{
					"attributes":{
						"POSITION":13,
						"NORMAL":14,
						"TEXCOORD_0":15
					},
					"indices":16,
					"material":2
				},
				{
					"attributes":{
						"POSITION":17,
						"NORMAL":18,
						"TEXCOORD_0":19
					},
					"indices":20,
					"material":2
				}
			]
		}
	],
	"textures":[
		{
			"sampler":0,
			"source":0
		},
		{
			"sampler":0,
			"source":0
		}
	],
	"images":[
		{
			"mimeType":"image/png",
			"name":"AvatarWearables_TX",
			"uri":"tex/AvatarWearables_TX.png"
		}
	],
	"accessors":[
		{
			"bufferView":0,
			"componentType":5126,
			"count":36,
			"max":[
				0.5080327987670898,
				-14.900496482849121,
				0.5080313682556152
			],
			"min":[
				-0.5080289840698242,
				-14.900496482849121,
				-0.5080313682556152
			],
			"type":"VEC3"
		},
		{
			"bufferView":1,
			"componentType":5126,
			"count":36,
			"type":"VEC3"
		},
		{
			"bufferView":2,
			"componentType":5126,
			"count":36,
			"type":"VEC2"
		},
		{
			"bufferView":3,
			"componentType":5126,
			"count":36,
			"type":"VEC4"
		},
		{
			"bufferView":4,
			"componentType":5123,
			"count":150,
			"type":"SCALAR"
		},
		{
			"bufferView":5,
			"componentType":5126,
			"count":56,
			"max":[
				1.060811996459961,
				-3.540501356124878,
				-0.09239912033081055
			],
			"min":[
				-0.0188140869140625,
				-4.243279933929443,
				-1.0608196258544922
			],
			"type":"VEC3"
		},
		{
			"bufferView":6,
			"componentType":5126,
			"count":56,
			"type":"VEC3"
		},
		{
			"bufferView":7,
			"componentType":5126,
			"count":56,
			"type":"VEC2"
		},
		{
			"bufferView":8,
			"componentType":5123,
			"count":102,
			"type":"SCALAR"
		},
		{
			"bufferView":9,
			"componentType":5126,
			"count":228,
			"max":[
				1.9894766807556152,
				7.2828688621521,
				1.4501547813415527
			],
			"min":[
				-2.047112226486206,
				0.5382828712463379,
				-2.047112226486206
			],
			"type":"VEC3"
		},
		{
			"bufferView":10,
			"componentType":5126,
			"count":228,
			"type":"VEC3"
		},
		{
			"bufferView":11,
			"componentType":5126,
			"count":228,
			"type":"VEC2"
		},
		{
			"bufferView":12,
			"componentType":5123,
			"count":363,
			"type":"SCALAR"
		},
		{
			"bufferView":13,
			"componentType":5126,
			"count":967,
			"max":[
				2.047112226486206,
				7.4128522872924805,
				1.8256783485412598
			],
			"min":[
				-2.047112226486206,
				-0.6918425559997559,
				-2.047112226486206
			],
			"type":"VEC3"
		},
		{
			"bufferView":14,
			"componentType":5126,
			"count":967,
			"type":"VEC3"
		},
		{
			"bufferView":15,
			"componentType":5126,
			"count":967,
			"type":"VEC2"
		},
		{
			"bufferView":16,
			"componentType":5123,
			"count":1638,
			"type":"SCALAR"
		},
		{
			"bufferView":17,
			"componentType":5126,
			"count":237,
			"max":[
				2.047112226486206,
				7.4128522872924805,
				1.630920648574829
			],
			"min":[
				-2.047112226486206,
				-0.6918425559997559,
				-2.047112226486206
			],
			"type":"VEC3"
		},
		{
			"bufferView":18,
			"componentType":5126,
			"count":237,
			"type":"VEC3"
		},
		{
			"bufferView":19,
			"componentType":5126,
			"count":237,
			"type":"VEC2"
		},
		{
			"bufferView":20,
			"componentType":5123,
			"count":636,
			"type":"SCALAR"
		}
	],
	"bufferViews":[
		{
			"buffer":0,
			"byteLength":432,
			"byteOffset":0,
			"target":34962
		},
		{
			"buffer":0,
			"byteLength":432,
			"byteOffset":432,
			"target":34962
		},
		{
			"buffer":0,
			"byteLength":288,
			"byteOffset":864,
			"target":34962
		},
		{
			"buffer":0,
			"byteLength":576,
			"byteOffset":1152,
			"target":34962
		},
		{
			"buffer":0,
			"byteLength":300,
			"byteOffset":1728,
			"target":34963
		},
		{
			"buffer":0,
			"byteLength":672,
			"byteOffset":2028,
			"target":34962
		},
		{
			"buffer":0,
			"byteLength":672,
			"byteOffset":2700,
			"target":34962
		},
		{
			"buffer":0,
			"byteLength":448,
			"byteOffset":3372,
			"target":34962
		},
		{
			"buffer":0,
			"byteLength":204,
			"byteOffset":3820,
			"target":34963
		},
		{
			"buffer":0,
			"byteLength":2736,
			"byteOffset":4024,
			"target":34962
		},
		{
			"buffer":0,
			"byteLength":2736,
			"byteOffset":6760,
			"target":34962
		},
		{
			"buffer":0,
			"byteLength":1824,
			"byteOffset":9496,
			"target":34962
		},
		{
			"buffer":0,
			"byteLength":726,
			"byteOffset":11320,
			"target":34963
		},
		{
			"buffer":0,
			"byteLength":11604,
			"byteOffset":12048,
			"target":34962
		},
		{
			"buffer":0,
			"byteLength":11604,
			"byteOffset":23652,
			"target":34962
		},
		{
			"buffer":0,
			"byteLength":7736,
			"byteOffset":35256,
			"target":34962
		},
		{
			"buffer":0,
			"byteLength":3276,
			"byteOffset":42992,
			"target":34963
		},
		{
			"buffer":0,
			"byteLength":2844,
			"byteOffset":46268,
			"target":34962
		},
		{
			"buffer":0,
			"byteLength":2844,
			"byteOffset":49112,
			"target":34962
		},
		{
			"buffer":0,
			"byteLength":1896,
			"byteOffset":51956,
			"target":34962
		},
		{
			"buffer":0,
			"byteLength":1272,
			"byteOffset":53852,
			"target":34963
		}
	],
	"samplers":[
		{
			"magFilter":9729,
			"minFilter":9987
		}
	],
	"buffers":[
		{
			"byteLength":55124,
			"uri":"tile_20_0_9.bin"
		}
	]
}
