{
	"asset":{
		"generator":"Khronos glTF Blender I/O v4.0.44",
		"version":"2.0"
	},
	"extensionsUsed":[
		"KHR_materials_specular",
		"KHR_materials_ior"
	],
	"scene":0,
	"scenes":[
		{
			"name":"Scene",
			"nodes":[
				0,
				1,
				2,
				3
			]
		}
	],
	"nodes":[
		{
			"mesh":0,
			"name":"Plane",
			"scale":[
				7.873531341552734,
				0.9841914176940918,
				7.873531341552734
			]
		},
		{
			"mesh":1,
			"name":"Plane.001",
			"scale":[
				3.7706682682037354,
				3.7706682682037354,
				3.7706682682037354
			]
		},
		{
			"mesh":2,
			"name":"Cube.006",
			"scale":[
				1.409204125404358,
				1.409204125404358,
				1.409204125404358
			]
		},
		{
			"name":"Cube.007",
			"rotation":[
				0,
				-1,
				0,
				4.371139183945161e-08
			],
			"scale":[
				1.409204125404358,
				1.409204125404358,
				1.409204125404358
			]
		}
	],
	"materials":[
		{
			"doubleSided":true,
			"extensions":{
				"KHR_materials_specular":{
					"specularColorFactor":[
						2.0,
						2.0,
						2.0
					]
				},
				"KHR_materials_ior":{
					"ior":1.4500000476837158
				}
			},
			"name":"building",
			"pbrMetallicRoughness":{
				"baseColorTexture":{
					"index":0
				},
				"metallicFactor":0
			}
		}
	],
	"meshes":[
		{
			"name":"Plane.161",
			"primitives":[
				{
					"attributes":{
						"POSITION":0,
						"NORMAL":1,
						"TEXCOORD_0":2
					},
					"indices":3,
					"material":0
				}
			]
		},
		{
			"name":"Plane.162",
			"primitives":[
				{
					"attributes":{
						"POSITION":4,
						"NORMAL":5,
						"TEXCOORD_0":6
					},
					"indices":7,
					"material":0
				}
			]
		},
		{
			"name":"Cube.054",
			"primitives":[
				{
					"attributes":{
						"POSITION":8,
						"NORMAL":9,
						"TEXCOORD_0":10,
						"TANGENT":11
					},
					"indices":12,
					"material":0
				}
			]
		}
	],
	"textures":[
		{
			"sampler":0,
			"source":0
		}
	],
	"images":[
		{
			"mimeType":"image/png",
			"name":"AvatarWearables_TX",
			"uri":"tex/AvatarWearables_TX.png"
		}
	],
	"accessors":[
		{
			"bufferView":0,
			"componentType":5126,
			"count":140,
			"max":[
				1.0160646438598633,
				-6.4392781257629395,
				1.0160622596740723
			],
			"min":[
				-1.0160608291625977,
				-6.77199649810791,
				-0.9212799072265625
			],
			"type":"VEC3"
		},
		{
			"bufferView":1,
			"componentType":5126,
			"count":140,
			"type":"VEC3"
		},
		{
			"bufferView":2,
			"componentType":5126,
			"count":140,
			"type":"VEC2"
		},
		{
			"bufferView":3,
			"componentType":5123,
			"count":555,
			"type":"SCALAR"
		},
		{
			"bufferView":4,
			"componentType":5126,
			"count":151,
			"max":[
				2.1216392517089844,
				-1.4241834878921509,
				2.121640205383301
			],
			"min":[
				-2.1216392517089844,
				-2.1216399669647217,
				-0.7180967330932617
			],
			"type":"VEC3"
		},
		{
			"bufferView":5,
			"componentType":5126,
			"count":151,
			"type":"VEC3"
		},
		{
			"bufferView":6,
			"componentType":5126,
			"count":151,
			"type":"VEC2"
		},
		{
			"bufferView":7,
			"componentType":5123,
			"count":249,
			"type":"SCALAR"
		},
		{
			"bufferView":8,
			"componentType":5126,
			"count":186,
			"max":[
				4.769296646118164,
				-2.7964391708374023,
				-2.344486713409424
			],
			"min":[
				-1.9750158786773682,
				-4.798324108123779,
				-4.4147491455078125
			],
			"type":"VEC3"
		},
		{
			"bufferView":9,
			"componentType":5126,
			"count":186,
			"type":"VEC3"
		},
		{
			"bufferView":10,
			"componentType":5126,
			"count":186,
			"type":"VEC2"
		},
		{
			"bufferView":11,
			"componentType":5126,
			"count":186,
			"type":"VEC4"
		},
		{
			"bufferView":12,
			"componentType":5123,
			"count":384,
			"type":"SCALAR"
		}
	],
	"bufferViews":[
		{
			"buffer":0,
			"byteLength":1680,
			"byteOffset":0,
			"target":34962
		},
		{
			"buffer":0,
			"byteLength":1680,
			"byteOffset":1680,
			"target":34962
		},
		{
			"buffer":0,
			"byteLength":1120,
			"byteOffset":3360,
			"target":34962
		},
		{
			"buffer":0,
			"byteLength":1110,
			"byteOffset":4480,
			"target":34963
		},
		{
			"buffer":0,
			"byteLength":1812,
			"byteOffset":5592,
			"target":34962
		},
		{
			"buffer":0,
			"byteLength":1812,
			"byteOffset":7404,
			"target":34962
		},
		{
			"buffer":0,
			"byteLength":1208,
			"byteOffset":9216,
			"target":34962
		},
		{
			"buffer":0,
			"byteLength":498,
			"byteOffset":10424,
			"target":34963
		},
		{
			"buffer":0,
			"byteLength":2232,
			"byteOffset":10924,
			"target":34962
		},
		{
			"buffer":0,
			"byteLength":2232,
			"byteOffset":13156,
			"target":34962
		},
		{
			"buffer":0,
			"byteLength":1488,
			"byteOffset":15388,
			"target":34962
		},
		{
			"buffer":0,
			"byteLength":2976,
			"byteOffset":16876,
			"target":34962
		},
		{
			"buffer":0,
			"byteLength":768,
			"byteOffset":19852,
			"target":34963
		}
	],
	"samplers":[
		{
			"magFilter":9729,
			"minFilter":9987
		}
	],
	"buffers":[
		{
			"byteLength":20620,
			"uri":"tile_8_1_5.bin"
		}
	]
}
