{
	"asset":{
		"generator":"Khronos glTF Blender I/O v4.0.44",
		"version":"2.0"
	},
	"extensionsUsed":[
		"KHR_materials_specular",
		"KHR_materials_ior",
		"KHR_materials_emissive_strength"
	],
	"scene":0,
	"scenes":[
		{
			"name":"Scene",
			"nodes":[
				0,
				1,
				2
			]
		}
	],
	"nodes":[
		{
			"mesh":0,
			"name":"Plane",
			"scale":[
				7.873531341552734,
				0.9841914176940918,
				7.873531341552734
			]
		},
		{
			"mesh":1,
			"name":"track.259",
			"scale":[
				3.7706682682037354,
				3.7706682682037354,
				3.7706682682037354
			]
		},
		{
			"mesh":2,
			"name":"Torus.026",
			"rotation":[
				0.7071069478988647,
				0,
				0,
				0.7071066498756409
			],
			"scale":[
				0.9492737650871277,
				0.949273943901062,
				0.949273943901062
			]
		}
	],
	"materials":[
		{
			"doubleSided":true,
			"extensions":{
				"KHR_materials_specular":{
					"specularColorFactor":[
						2.0,
						2.0,
						2.0
					]
				},
				"KHR_materials_ior":{
					"ior":1.4500000476837158
				}
			},
			"name":"building",
			"pbrMetallicRoughness":{
				"baseColorTexture":{
					"index":0
				},
				"metallicFactor":0
			}
		},
		{
			"doubleSided":true,
			"emissiveFactor":[
				1,
				0.003797386313042906,
				0
			],
			"extensions":{
				"KHR_materials_emissive_strength":{
					"emissiveStrength":7.991064786911011
				}
			},
			"name":"Glow9",
			"pbrMetallicRoughness":{
				"baseColorFactor":[
					0.8000000715255737,
					0.0031031807884573936,
					0,
					1
				],
				"metallicFactor":0
			}
		},
		{
			"doubleSided":true,
			"emissiveFactor":[
				1,
				1,
				1
			],
			"extensions":{
				"KHR_materials_emissive_strength":{
					"emissiveStrength":4
				}
			},
			"name":"Glow2",
			"pbrMetallicRoughness":{
				"baseColorFactor":[
					0.800000011920929,
					0.800000011920929,
					0.800000011920929,
					1
				],
				"metallicFactor":0,
				"roughnessFactor":0.5
			}
		}
	],
	"meshes":[
		{
			"name":"Plane.1168",
			"primitives":[
				{
					"attributes":{
						"POSITION":0,
						"NORMAL":1,
						"TEXCOORD_0":2,
						"TANGENT":3
					},
					"indices":4,
					"material":0
				}
			]
		},
		{
			"name":"Plane.1169",
			"primitives":[
				{
					"attributes":{
						"POSITION":5,
						"NORMAL":6,
						"TEXCOORD_0":7
					},
					"indices":8,
					"material":0
				}
			]
		},
		{
			"name":"Torus.085",
			"primitives":[
				{
					"attributes":{
						"POSITION":9,
						"NORMAL":10,
						"TEXCOORD_0":11
					},
					"indices":12,
					"material":0
				},
				{
					"attributes":{
						"POSITION":13,
						"NORMAL":14,
						"TEXCOORD_0":15
					},
					"indices":16,
					"material":1
				},
				{
					"attributes":{
						"POSITION":17,
						"NORMAL":18,
						"TEXCOORD_0":19
					},
					"indices":20,
					"material":2
				}
			]
		}
	],
	"textures":[
		{
			"sampler":0,
			"source":0
		}
	],
	"images":[
		{
			"mimeType":"image/png",
			"name":"AvatarWearables_TX",
			"uri":"tex/AvatarWearables_TX.png"
		}
	],
	"accessors":[
		{
			"bufferView":0,
			"componentType":5126,
			"count":42,
			"max":[
				0.508030891418457,
				-14.900496482849121,
				0.5080312490463257
			],
			"min":[
				-0.508030891418457,
				-14.900496482849121,
				-0.5080312490463257
			],
			"type":"VEC3"
		},
		{
			"bufferView":1,
			"componentType":5126,
			"count":42,
			"type":"VEC3"
		},
		{
			"bufferView":2,
			"componentType":5126,
			"count":42,
			"type":"VEC2"
		},
		{
			"bufferView":3,
			"componentType":5126,
			"count":42,
			"type":"VEC4"
		},
		{
			"bufferView":4,
			"componentType":5123,
			"count":180,
			"type":"SCALAR"
		},
		{
			"bufferView":5,
			"componentType":5126,
			"count":54,
			"max":[
				1.0608158111572266,
				-3.545905590057373,
				1.0608208179473877
			],
			"min":[
				0.5854396820068359,
				-4.243279933929443,
				-1.0608189105987549
			],
			"type":"VEC3"
		},
		{
			"bufferView":6,
			"componentType":5126,
			"count":54,
			"type":"VEC3"
		},
		{
			"bufferView":7,
			"componentType":5126,
			"count":54,
			"type":"VEC2"
		},
		{
			"bufferView":8,
			"componentType":5123,
			"count":96,
			"type":"SCALAR"
		},
		{
			"bufferView":9,
			"componentType":5126,
			"count":1144,
			"max":[
				1.5341558456420898,
				-0.614755392074585,
				15.501761436462402
			],
			"min":[
				-3.2436227798461914,
				-4.213743209838867,
				7.085599899291992
			],
			"type":"VEC3"
		},
		{
			"bufferView":10,
			"componentType":5126,
			"count":1144,
			"type":"VEC3"
		},
		{
			"bufferView":11,
			"componentType":5126,
			"count":1144,
			"type":"VEC2"
		},
		{
			"bufferView":12,
			"componentType":5123,
			"count":4806,
			"type":"SCALAR"
		},
		{
			"bufferView":13,
			"componentType":5126,
			"count":69,
			"max":[
				1.514174461364746,
				-1.3526438474655151,
				15.461385726928711
			],
			"min":[
				-3.2399377822875977,
				-4.213743209838867,
				8.118880271911621
			],
			"type":"VEC3"
		},
		{
			"bufferView":14,
			"componentType":5126,
			"count":69,
			"type":"VEC3"
		},
		{
			"bufferView":15,
			"componentType":5126,
			"count":69,
			"type":"VEC2"
		},
		{
			"bufferView":16,
			"componentType":5123,
			"count":189,
			"type":"SCALAR"
		},
		{
			"bufferView":17,
			"componentType":5126,
			"count":93,
			"max":[
				0.7884818315505981,
				-0.614755392074585,
				15.501761436462402
			],
			"min":[
				-2.43630313873291,
				-4.213743209838867,
				7.304636001586914
			],
			"type":"VEC3"
		},
		{
			"bufferView":18,
			"componentType":5126,
			"count":93,
			"type":"VEC3"
		},
		{
			"bufferView":19,
			"componentType":5126,
			"count":93,
			"type":"VEC2"
		},
		{
			"bufferView":20,
			"componentType":5123,
			"count":261,
			"type":"SCALAR"
		}
	],
	"bufferViews":[
		{
			"buffer":0,
			"byteLength":504,
			"byteOffset":0,
			"target":34962
		},
		{
			"buffer":0,
			"byteLength":504,
			"byteOffset":504,
			"target":34962
		},
		{
			"buffer":0,
			"byteLength":336,
			"byteOffset":1008,
			"target":34962
		},
		{
			"buffer":0,
			"byteLength":672,
			"byteOffset":1344,
			"target":34962
		},
		{
			"buffer":0,
			"byteLength":360,
			"byteOffset":2016,
			"target":34963
		},
		{
			"buffer":0,
			"byteLength":648,
			"byteOffset":2376,
			"target":34962
		},
		{
			"buffer":0,
			"byteLength":648,
			"byteOffset":3024,
			"target":34962
		},
		{
			"buffer":0,
			"byteLength":432,
			"byteOffset":3672,
			"target":34962
		},
		{
			"buffer":0,
			"byteLength":192,
			"byteOffset":4104,
			"target":34963
		},
		{
			"buffer":0,
			"byteLength":13728,
			"byteOffset":4296,
			"target":34962
		},
		{
			"buffer":0,
			"byteLength":13728,
			"byteOffset":18024,
			"target":34962
		},
		{
			"buffer":0,
			"byteLength":9152,
			"byteOffset":31752,
			"target":34962
		},
		{
			"buffer":0,
			"byteLength":9612,
			"byteOffset":40904,
			"target":34963
		},
		{
			"buffer":0,
			"byteLength":828,
			"byteOffset":50516,
			"target":34962
		},
		{
			"buffer":0,
			"byteLength":828,
			"byteOffset":51344,
			"target":34962
		},
		{
			"buffer":0,
			"byteLength":552,
			"byteOffset":52172,
			"target":34962
		},
		{
			"buffer":0,
			"byteLength":378,
			"byteOffset":52724,
			"target":34963
		},
		{
			"buffer":0,
			"byteLength":1116,
			"byteOffset":53104,
			"target":34962
		},
		{
			"buffer":0,
			"byteLength":1116,
			"byteOffset":54220,
			"target":34962
		},
		{
			"buffer":0,
			"byteLength":744,
			"byteOffset":55336,
			"target":34962
		},
		{
			"buffer":0,
			"byteLength":522,
			"byteOffset":56080,
			"target":34963
		}
	],
	"samplers":[
		{
			"magFilter":9729,
			"minFilter":9987
		}
	],
	"buffers":[
		{
			"byteLength":56604,
			"uri":"tile_21_0_6.bin"
		}
	]
}
