{
	"asset":{
		"generator":"Khronos glTF Blender I/O v4.0.44",
		"version":"2.0"
	},
	"extensionsUsed":[
		"KHR_materials_specular",
		"KHR_materials_ior",
		"KHR_materials_emissive_strength"
	],
	"scene":0,
	"scenes":[
		{
			"name":"Scene",
			"nodes":[
				0,
				1,
				2,
				3
			]
		}
	],
	"nodes":[
		{
			"mesh":0,
			"name":"Plane",
			"scale":[
				7.873531341552734,
				0.9841914176940918,
				7.873531341552734
			]
		},
		{
			"name":"Plane.001",
			"scale":[
				3.7706682682037354,
				3.7706682682037354,
				3.7706682682037354
			]
		},
		{
			"mesh":1,
			"name":"Cube.011",
			"rotation":[
				0,
				-0.06093847379088402,
				0,
				0.9981415271759033
			],
			"scale":[
				1.608573317527771,
				1.6085731983184814,
				1.608573317527771
			]
		},
		{
			"mesh":2,
			"name":"Icosphere.001",
			"rotation":[
				0,
				-0.3118622899055481,
				0,
				0.9501273036003113
			],
			"scale":[
				8.599295616149902,
				5.349599838256836,
				8.599295616149902
			]
		}
	],
	"materials":[
		{
			"doubleSided":true,
			"extensions":{
				"KHR_materials_specular":{
					"specularColorFactor":[
						2.0,
						2.0,
						2.0
					]
				},
				"KHR_materials_ior":{
					"ior":1.4500000476837158
				}
			},
			"name":"building",
			"pbrMetallicRoughness":{
				"baseColorTexture":{
					"index":0
				},
				"metallicFactor":0
			}
		},
		{
			"doubleSided":true,
			"extensions":{
				"KHR_materials_specular":{
					"specularColorFactor":[
						2.0,
						2.0,
						2.0
					]
				},
				"KHR_materials_ior":{
					"ior":1.4500000476837158
				}
			},
			"name":"building2",
			"pbrMetallicRoughness":{
				"baseColorTexture":{
					"index":1
				},
				"metallicFactor":0,
				"roughnessFactor":0.17924527823925018
			}
		},
		{
			"doubleSided":true,
			"emissiveFactor":[
				1,
				0.10824445978162396,
				1
			],
			"extensions":{
				"KHR_materials_emissive_strength":{
					"emissiveStrength":1.5982129573822021
				}
			},
			"name":"Glow7",
			"pbrMetallicRoughness":{
				"baseColorFactor":[
					0.7954351902008057,
					0.08631403744220734,
					0.8003629446029663,
					1
				],
				"metallicFactor":0
			}
		},
		{
			"doubleSided":true,
			"emissiveFactor":[
				1,
				1,
				1
			],
			"extensions":{
				"KHR_materials_emissive_strength":{
					"emissiveStrength":4
				}
			},
			"name":"Glow2",
			"pbrMetallicRoughness":{
				"baseColorFactor":[
					0.800000011920929,
					0.800000011920929,
					0.800000011920929,
					1
				],
				"metallicFactor":0,
				"roughnessFactor":0.5
			}
		}
	],
	"meshes":[
		{
			"name":"Plane.077",
			"primitives":[
				{
					"attributes":{
						"POSITION":0,
						"NORMAL":1,
						"TEXCOORD_0":2
					},
					"indices":3,
					"material":0
				},
				{
					"attributes":{
						"POSITION":4,
						"NORMAL":5,
						"TEXCOORD_0":6
					},
					"indices":7,
					"material":0
				}
			]
		},
		{
			"name":"Cube.041",
			"primitives":[
				{
					"attributes":{
						"POSITION":8,
						"NORMAL":9,
						"TEXCOORD_0":10
					},
					"indices":11,
					"material":1
				},
				{
					"attributes":{
						"POSITION":12,
						"NORMAL":13,
						"TEXCOORD_0":14
					},
					"indices":15,
					"material":2
				}
			]
		},
		{
			"name":"Icosphere.002",
			"primitives":[
				{
					"attributes":{
						"POSITION":16,
						"NORMAL":17,
						"TEXCOORD_0":18
					},
					"indices":19,
					"material":1
				},
				{
					"attributes":{
						"POSITION":20,
						"NORMAL":21,
						"TEXCOORD_0":22
					},
					"indices":23,
					"material":3
				},
				{
					"attributes":{
						"POSITION":24,
						"NORMAL":25,
						"TEXCOORD_0":26
					},
					"indices":27,
					"material":3
				}
			]
		}
	],
	"textures":[
		{
			"sampler":0,
			"source":0
		},
		{
			"sampler":0,
			"source":0
		}
	],
	"images":[
		{
			"mimeType":"image/png",
			"name":"AvatarWearables_TX",
			"uri":"tex/AvatarWearables_TX.png"
		}
	],
	"accessors":[
		{
			"bufferView":0,
			"componentType":5126,
			"count":120,
			"max":[
				1.0160634517669678,
				-4.001072883605957,
				1.016061782836914
			],
			"min":[
				-1.016061782836914,
				-6.77199649810791,
				-1.0160632133483887
			],
			"type":"VEC3"
		},
		{
			"bufferView":1,
			"componentType":5126,
			"count":120,
			"type":"VEC3"
		},
		{
			"bufferView":2,
			"componentType":5126,
			"count":120,
			"type":"VEC2"
		},
		{
			"bufferView":3,
			"componentType":5123,
			"count":546,
			"type":"SCALAR"
		},
		{
			"bufferView":4,
			"componentType":5126,
			"count":34,
			"max":[
				1.0160634517669678,
				-5.021800994873047,
				1.016061782836914
			],
			"min":[
				-0.18956661224365234,
				-6.7719950675964355,
				-1.0160632133483887
			],
			"type":"VEC3"
		},
		{
			"bufferView":5,
			"componentType":5126,
			"count":34,
			"type":"VEC3"
		},
		{
			"bufferView":6,
			"componentType":5126,
			"count":34,
			"type":"VEC2"
		},
		{
			"bufferView":7,
			"componentType":5123,
			"count":72,
			"type":"SCALAR"
		},
		{
			"bufferView":8,
			"componentType":5126,
			"count":219,
			"max":[
				-2.76603102684021,
				0.6024448871612549,
				5.5414228439331055
			],
			"min":[
				-4.548650741577148,
				-4.043183326721191,
				3.52729868888855
			],
			"type":"VEC3"
		},
		{
			"bufferView":9,
			"componentType":5126,
			"count":219,
			"type":"VEC3"
		},
		{
			"bufferView":10,
			"componentType":5126,
			"count":219,
			"type":"VEC2"
		},
		{
			"bufferView":11,
			"componentType":5123,
			"count":489,
			"type":"SCALAR"
		},
		{
			"bufferView":12,
			"componentType":5126,
			"count":53,
			"max":[
				-2.7660303115844727,
				0.6024458408355713,
				5.5255022048950195
			],
			"min":[
				-4.44533634185791,
				-4.043183326721191,
				3.5272984504699707
			],
			"type":"VEC3"
		},
		{
			"bufferView":13,
			"componentType":5126,
			"count":53,
			"type":"VEC3"
		},
		{
			"bufferView":14,
			"componentType":5126,
			"count":53,
			"type":"VEC2"
		},
		{
			"bufferView":15,
			"componentType":5123,
			"count":96,
			"type":"SCALAR"
		},
		{
			"bufferView":16,
			"componentType":5126,
			"count":121,
			"max":[
				0.42946696281433105,
				0.748744010925293,
				-0.9154543280601501
			],
			"min":[
				-0.16086125373840332,
				-1.202365756034851,
				-1.300666093826294
			],
			"type":"VEC3"
		},
		{
			"bufferView":17,
			"componentType":5126,
			"count":121,
			"type":"VEC3"
		},
		{
			"bufferView":18,
			"componentType":5126,
			"count":121,
			"type":"VEC2"
		},
		{
			"bufferView":19,
			"componentType":5123,
			"count":234,
			"type":"SCALAR"
		},
		{
			"bufferView":20,
			"componentType":5126,
			"count":24,
			"max":[
				0.42946696281433105,
				0.6693916320800781,
				-0.9154543280601501
			],
			"min":[
				-0.16086125373840332,
				-0.41581255197525024,
				-1.241192102432251
			],
			"type":"VEC3"
		},
		{
			"bufferView":21,
			"componentType":5126,
			"count":24,
			"type":"VEC3"
		},
		{
			"bufferView":22,
			"componentType":5126,
			"count":24,
			"type":"VEC2"
		},
		{
			"bufferView":23,
			"componentType":5123,
			"count":30,
			"type":"SCALAR"
		},
		{
			"bufferView":24,
			"componentType":5126,
			"count":56,
			"max":[
				0.42946696281433105,
				0.748744010925293,
				-0.9860994815826416
			],
			"min":[
				-0.16086125373840332,
				-1.202365756034851,
				-1.300666093826294
			],
			"type":"VEC3"
		},
		{
			"bufferView":25,
			"componentType":5126,
			"count":56,
			"type":"VEC3"
		},
		{
			"bufferView":26,
			"componentType":5126,
			"count":56,
			"type":"VEC2"
		},
		{
			"bufferView":27,
			"componentType":5123,
			"count":156,
			"type":"SCALAR"
		}
	],
	"bufferViews":[
		{
			"buffer":0,
			"byteLength":1440,
			"byteOffset":0,
			"target":34962
		},
		{
			"buffer":0,
			"byteLength":1440,
			"byteOffset":1440,
			"target":34962
		},
		{
			"buffer":0,
			"byteLength":960,
			"byteOffset":2880,
			"target":34962
		},
		{
			"buffer":0,
			"byteLength":1092,
			"byteOffset":3840,
			"target":34963
		},
		{
			"buffer":0,
			"byteLength":408,
			"byteOffset":4932,
			"target":34962
		},
		{
			"buffer":0,
			"byteLength":408,
			"byteOffset":5340,
			"target":34962
		},
		{
			"buffer":0,
			"byteLength":272,
			"byteOffset":5748,
			"target":34962
		},
		{
			"buffer":0,
			"byteLength":144,
			"byteOffset":6020,
			"target":34963
		},
		{
			"buffer":0,
			"byteLength":2628,
			"byteOffset":6164,
			"target":34962
		},
		{
			"buffer":0,
			"byteLength":2628,
			"byteOffset":8792,
			"target":34962
		},
		{
			"buffer":0,
			"byteLength":1752,
			"byteOffset":11420,
			"target":34962
		},
		{
			"buffer":0,
			"byteLength":978,
			"byteOffset":13172,
			"target":34963
		},
		{
			"buffer":0,
			"byteLength":636,
			"byteOffset":14152,
			"target":34962
		},
		{
			"buffer":0,
			"byteLength":636,
			"byteOffset":14788,
			"target":34962
		},
		{
			"buffer":0,
			"byteLength":424,
			"byteOffset":15424,
			"target":34962
		},
		{
			"buffer":0,
			"byteLength":192,
			"byteOffset":15848,
			"target":34963
		},
		{
			"buffer":0,
			"byteLength":1452,
			"byteOffset":16040,
			"target":34962
		},
		{
			"buffer":0,
			"byteLength":1452,
			"byteOffset":17492,
			"target":34962
		},
		{
			"buffer":0,
			"byteLength":968,
			"byteOffset":18944,
			"target":34962
		},
		{
			"buffer":0,
			"byteLength":468,
			"byteOffset":19912,
			"target":34963
		},
		{
			"buffer":0,
			"byteLength":288,
			"byteOffset":20380,
			"target":34962
		},
		{
			"buffer":0,
			"byteLength":288,
			"byteOffset":20668,
			"target":34962
		},
		{
			"buffer":0,
			"byteLength":192,
			"byteOffset":20956,
			"target":34962
		},
		{
			"buffer":0,
			"byteLength":60,
			"byteOffset":21148,
			"target":34963
		},
		{
			"buffer":0,
			"byteLength":672,
			"byteOffset":21208,
			"target":34962
		},
		{
			"buffer":0,
			"byteLength":672,
			"byteOffset":21880,
			"target":34962
		},
		{
			"buffer":0,
			"byteLength":448,
			"byteOffset":22552,
			"target":34962
		},
		{
			"buffer":0,
			"byteLength":312,
			"byteOffset":23000,
			"target":34963
		}
	],
	"samplers":[
		{
			"magFilter":9729,
			"minFilter":9987
		}
	],
	"buffers":[
		{
			"byteLength":23312,
			"uri":"tile_4_1_1.bin"
		}
	]
}
