{
	"asset":{
		"generator":"Khronos glTF Blender I/O v4.0.44",
		"version":"2.0"
	},
	"extensionsUsed":[
		"KHR_materials_specular",
		"KHR_materials_ior",
		"KHR_materials_emissive_strength"
	],
	"scene":0,
	"scenes":[
		{
			"name":"Scene",
			"nodes":[
				0,
				1,
				2,
				3
			]
		}
	],
	"nodes":[
		{
			"mesh":0,
			"name":"Plane",
			"scale":[
				7.873531341552734,
				0.9841914176940918,
				7.873531341552734
			]
		},
		{
			"mesh":1,
			"name":"Plane.001",
			"scale":[
				3.7706682682037354,
				3.7706682682037354,
				3.7706682682037354
			]
		},
		{
			"mesh":2,
			"name":"Cube.004",
			"rotation":[
				0,
				0.7251519560813904,
				0,
				0.6885889172554016
			],
			"scale":[
				1.9629734754562378,
				3.1461997032165527,
				1.9629734754562378
			]
		},
		{
			"mesh":3,
			"name":"Cylinder.016",
			"rotation":[
				0,
				0.35715433955192566,
				0,
				0.9340453743934631
			],
			"scale":[
				0.7843490242958069,
				4.344459533691406,
				0.7843490242958069
			]
		}
	],
	"materials":[
		{
			"doubleSided":true,
			"extensions":{
				"KHR_materials_specular":{
					"specularColorFactor":[
						2.0,
						2.0,
						2.0
					]
				},
				"KHR_materials_ior":{
					"ior":1.4500000476837158
				}
			},
			"name":"building",
			"pbrMetallicRoughness":{
				"baseColorTexture":{
					"index":0
				},
				"metallicFactor":0
			}
		},
		{
			"doubleSided":true,
			"emissiveFactor":[
				0.09784298909313212,
				1,
				0.08569416583338194
			],
			"extensions":{
				"KHR_materials_emissive_strength":{
					"emissiveStrength":1.5982129573822021
				}
			},
			"name":"Glow4",
			"pbrMetallicRoughness":{
				"baseColorFactor":[
					0.078976109623909,
					0.8012131452560425,
					0.06799241155385971,
					1
				],
				"metallicFactor":0
			}
		}
	],
	"meshes":[
		{
			"name":"Plane.122",
			"primitives":[
				{
					"attributes":{
						"POSITION":0,
						"NORMAL":1,
						"TEXCOORD_0":2
					},
					"indices":3,
					"material":0
				},
				{
					"attributes":{
						"POSITION":4,
						"NORMAL":5,
						"TEXCOORD_0":6
					},
					"indices":7,
					"material":0
				}
			]
		},
		{
			"name":"Plane.123",
			"primitives":[
				{
					"attributes":{
						"POSITION":8,
						"NORMAL":9,
						"TEXCOORD_0":10
					},
					"indices":11,
					"material":0
				}
			]
		},
		{
			"name":"Cube.050",
			"primitives":[
				{
					"attributes":{
						"POSITION":12,
						"NORMAL":13,
						"TEXCOORD_0":14
					},
					"indices":15,
					"material":0
				},
				{
					"attributes":{
						"POSITION":16,
						"NORMAL":17,
						"TEXCOORD_0":18
					},
					"indices":19,
					"material":1
				},
				{
					"attributes":{
						"POSITION":20,
						"NORMAL":21,
						"TEXCOORD_0":22
					},
					"indices":23,
					"material":1
				}
			]
		},
		{
			"name":"Cylinder.046",
			"primitives":[
				{
					"attributes":{
						"POSITION":24,
						"NORMAL":25,
						"TEXCOORD_0":26
					},
					"indices":27,
					"material":0
				},
				{
					"attributes":{
						"POSITION":28,
						"NORMAL":29,
						"TEXCOORD_0":30
					},
					"indices":31,
					"material":0
				}
			]
		}
	],
	"textures":[
		{
			"sampler":0,
			"source":0
		}
	],
	"images":[
		{
			"mimeType":"image/png",
			"name":"AvatarWearables_TX",
			"uri":"tex/AvatarWearables_TX.png"
		}
	],
	"accessors":[
		{
			"bufferView":0,
			"componentType":5126,
			"count":119,
			"max":[
				1.0160624980926514,
				-5.661598205566406,
				1.016061544418335
			],
			"min":[
				-1.0160624980926514,
				-6.77199649810791,
				-1.0160632133483887
			],
			"type":"VEC3"
		},
		{
			"bufferView":1,
			"componentType":5126,
			"count":119,
			"type":"VEC3"
		},
		{
			"bufferView":2,
			"componentType":5126,
			"count":119,
			"type":"VEC2"
		},
		{
			"bufferView":3,
			"componentType":5123,
			"count":567,
			"type":"SCALAR"
		},
		{
			"bufferView":4,
			"componentType":5126,
			"count":23,
			"max":[
				0.4961824417114258,
				-5.661598205566406,
				1.016061544418335
			],
			"min":[
				-1.0160624980926514,
				-8.128499984741211,
				0.29659461975097656
			],
			"type":"VEC3"
		},
		{
			"bufferView":5,
			"componentType":5126,
			"count":23,
			"type":"VEC3"
		},
		{
			"bufferView":6,
			"componentType":5126,
			"count":23,
			"type":"VEC2"
		},
		{
			"bufferView":7,
			"componentType":5123,
			"count":33,
			"type":"SCALAR"
		},
		{
			"bufferView":8,
			"componentType":5126,
			"count":80,
			"max":[
				2.1216378211975098,
				-1.4237070083618164,
				-0.4238605499267578
			],
			"min":[
				-2.1216416358947754,
				-2.1216399669647217,
				-2.121640205383301
			],
			"type":"VEC3"
		},
		{
			"bufferView":9,
			"componentType":5126,
			"count":80,
			"type":"VEC3"
		},
		{
			"bufferView":10,
			"componentType":5126,
			"count":80,
			"type":"VEC2"
		},
		{
			"bufferView":11,
			"componentType":5123,
			"count":132,
			"type":"SCALAR"
		},
		{
			"bufferView":12,
			"componentType":5126,
			"count":6293,
			"max":[
				0.011307239532470703,
				1.8880319595336914,
				0.9527435302734375
			],
			"min":[
				-2.170258045196533,
				-2.103351354598999,
				-4.193237781524658
			],
			"type":"VEC3"
		},
		{
			"bufferView":13,
			"componentType":5126,
			"count":6293,
			"type":"VEC3"
		},
		{
			"bufferView":14,
			"componentType":5126,
			"count":6293,
			"type":"VEC2"
		},
		{
			"bufferView":15,
			"componentType":5123,
			"count":12813,
			"type":"SCALAR"
		},
		{
			"bufferView":16,
			"componentType":5126,
			"count":1152,
			"max":[
				0.011309146881103516,
				1.8880319595336914,
				0.9527435302734375
			],
			"min":[
				-2.1702561378479004,
				-1.8206816911697388,
				-4.193237781524658
			],
			"type":"VEC3"
		},
		{
			"bufferView":17,
			"componentType":5126,
			"count":1152,
			"type":"VEC3"
		},
		{
			"bufferView":18,
			"componentType":5126,
			"count":1152,
			"type":"VEC2"
		},
		{
			"bufferView":19,
			"componentType":5123,
			"count":1944,
			"type":"SCALAR"
		},
		{
			"bufferView":20,
			"componentType":5126,
			"count":416,
			"max":[
				0.011308550834655762,
				1.8880319595336914,
				-4.080320358276367
			],
			"min":[
				-2.170257568359375,
				-2.10335111618042,
				-4.193237781524658
			],
			"type":"VEC3"
		},
		{
			"bufferView":21,
			"componentType":5126,
			"count":416,
			"type":"VEC3"
		},
		{
			"bufferView":22,
			"componentType":5126,
			"count":416,
			"type":"VEC2"
		},
		{
			"bufferView":23,
			"componentType":5123,
			"count":1269,
			"type":"SCALAR"
		},
		{
			"bufferView":24,
			"componentType":5126,
			"count":186,
			"max":[
				9.203438758850098,
				1.4217453002929688,
				7.578286170959473
			],
			"min":[
				3.2569215297698975,
				-1.0261753797531128,
				2.1536474227905273
			],
			"type":"VEC3"
		},
		{
			"bufferView":25,
			"componentType":5126,
			"count":186,
			"type":"VEC3"
		},
		{
			"bufferView":26,
			"componentType":5126,
			"count":186,
			"type":"VEC2"
		},
		{
			"bufferView":27,
			"componentType":5123,
			"count":198,
			"type":"SCALAR"
		},
		{
			"bufferView":28,
			"componentType":5126,
			"count":8,
			"max":[
				8.748115539550781,
				1.1117184162139893,
				7.578286170959473
			],
			"min":[
				6.904902458190918,
				0.5399091243743896,
				5.520459175109863
			],
			"type":"VEC3"
		},
		{
			"bufferView":29,
			"componentType":5126,
			"count":8,
			"type":"VEC3"
		},
		{
			"bufferView":30,
			"componentType":5126,
			"count":8,
			"type":"VEC2"
		},
		{
			"bufferView":31,
			"componentType":5123,
			"count":18,
			"type":"SCALAR"
		}
	],
	"bufferViews":[
		{
			"buffer":0,
			"byteLength":1428,
			"byteOffset":0,
			"target":34962
		},
		{
			"buffer":0,
			"byteLength":1428,
			"byteOffset":1428,
			"target":34962
		},
		{
			"buffer":0,
			"byteLength":952,
			"byteOffset":2856,
			"target":34962
		},
		{
			"buffer":0,
			"byteLength":1134,
			"byteOffset":3808,
			"target":34963
		},
		{
			"buffer":0,
			"byteLength":276,
			"byteOffset":4944,
			"target":34962
		},
		{
			"buffer":0,
			"byteLength":276,
			"byteOffset":5220,
			"target":34962
		},
		{
			"buffer":0,
			"byteLength":184,
			"byteOffset":5496,
			"target":34962
		},
		{
			"buffer":0,
			"byteLength":66,
			"byteOffset":5680,
			"target":34963
		},
		{
			"buffer":0,
			"byteLength":960,
			"byteOffset":5748,
			"target":34962
		},
		{
			"buffer":0,
			"byteLength":960,
			"byteOffset":6708,
			"target":34962
		},
		{
			"buffer":0,
			"byteLength":640,
			"byteOffset":7668,
			"target":34962
		},
		{
			"buffer":0,
			"byteLength":264,
			"byteOffset":8308,
			"target":34963
		},
		{
			"buffer":0,
			"byteLength":75516,
			"byteOffset":8572,
			"target":34962
		},
		{
			"buffer":0,
			"byteLength":75516,
			"byteOffset":84088,
			"target":34962
		},
		{
			"buffer":0,
			"byteLength":50344,
			"byteOffset":159604,
			"target":34962
		},
		{
			"buffer":0,
			"byteLength":25626,
			"byteOffset":209948,
			"target":34963
		},
		{
			"buffer":0,
			"byteLength":13824,
			"byteOffset":235576,
			"target":34962
		},
		{
			"buffer":0,
			"byteLength":13824,
			"byteOffset":249400,
			"target":34962
		},
		{
			"buffer":0,
			"byteLength":9216,
			"byteOffset":263224,
			"target":34962
		},
		{
			"buffer":0,
			"byteLength":3888,
			"byteOffset":272440,
			"target":34963
		},
		{
			"buffer":0,
			"byteLength":4992,
			"byteOffset":276328,
			"target":34962
		},
		{
			"buffer":0,
			"byteLength":4992,
			"byteOffset":281320,
			"target":34962
		},
		{
			"buffer":0,
			"byteLength":3328,
			"byteOffset":286312,
			"target":34962
		},
		{
			"buffer":0,
			"byteLength":2538,
			"byteOffset":289640,
			"target":34963
		},
		{
			"buffer":0,
			"byteLength":2232,
			"byteOffset":292180,
			"target":34962
		},
		{
			"buffer":0,
			"byteLength":2232,
			"byteOffset":294412,
			"target":34962
		},
		{
			"buffer":0,
			"byteLength":1488,
			"byteOffset":296644,
			"target":34962
		},
		{
			"buffer":0,
			"byteLength":396,
			"byteOffset":298132,
			"target":34963
		},
		{
			"buffer":0,
			"byteLength":96,
			"byteOffset":298528,
			"target":34962
		},
		{
			"buffer":0,
			"byteLength":96,
			"byteOffset":298624,
			"target":34962
		},
		{
			"buffer":0,
			"byteLength":64,
			"byteOffset":298720,
			"target":34962
		},
		{
			"buffer":0,
			"byteLength":36,
			"byteOffset":298784,
			"target":34963
		}
	],
	"samplers":[
		{
			"magFilter":9729,
			"minFilter":9987
		}
	],
	"buffers":[
		{
			"byteLength":298820,
			"uri":"tile_6_1_4.bin"
		}
	]
}
