{
	"asset":{
		"generator":"Khronos glTF Blender I/O v4.0.44",
		"version":"2.0"
	},
	"extensionsUsed":[
		"KHR_materials_specular",
		"KHR_materials_ior"
	],
	"scene":0,
	"scenes":[
		{
			"name":"Scene",
			"nodes":[
				0,
				1,
				2,
				3,
				4
			]
		}
	],
	"nodes":[
		{
			"mesh":0,
			"name":"Plane",
			"scale":[
				7.873531341552734,
				0.9841914176940918,
				7.873531341552734
			]
		},
		{
			"mesh":1,
			"name":"track.122",
			"scale":[
				3.7706682682037354,
				3.7706682682037354,
				3.7706682682037354
			]
		},
		{
			"mesh":2,
			"name":"Cylinder.009"
		},
		{
			"mesh":3,
			"name":"Cylinder.082"
		},
		{
			"mesh":4,
			"name":"Cylinder.084"
		}
	],
	"materials":[
		{
			"doubleSided":true,
			"extensions":{
				"KHR_materials_specular":{
					"specularColorFactor":[
						2.0,
						2.0,
						2.0
					]
				},
				"KHR_materials_ior":{
					"ior":1.4500000476837158
				}
			},
			"name":"building",
			"pbrMetallicRoughness":{
				"baseColorTexture":{
					"index":0
				},
				"metallicFactor":0
			}
		}
	],
	"meshes":[
		{
			"name":"Plane.894",
			"primitives":[
				{
					"attributes":{
						"POSITION":0,
						"NORMAL":1,
						"TEXCOORD_0":2
					},
					"indices":3,
					"material":0
				}
			]
		},
		{
			"name":"Plane.895",
			"primitives":[
				{
					"attributes":{
						"POSITION":4,
						"NORMAL":5,
						"TEXCOORD_0":6
					},
					"indices":7,
					"material":0
				}
			]
		},
		{
			"name":"Cylinder.401",
			"primitives":[
				{
					"attributes":{
						"POSITION":8,
						"NORMAL":9,
						"TEXCOORD_0":10
					},
					"indices":11,
					"material":0
				}
			]
		},
		{
			"name":"Cylinder.402",
			"primitives":[
				{
					"attributes":{
						"POSITION":12,
						"NORMAL":13,
						"TEXCOORD_0":14
					},
					"indices":15,
					"material":0
				}
			]
		},
		{
			"name":"Cylinder.403",
			"primitives":[
				{
					"attributes":{
						"POSITION":16,
						"NORMAL":17,
						"TEXCOORD_0":18,
						"TANGENT":19
					},
					"indices":20,
					"material":0
				}
			]
		}
	],
	"textures":[
		{
			"sampler":0,
			"source":0
		}
	],
	"images":[
		{
			"mimeType":"image/png",
			"name":"AvatarWearables_TX",
			"uri":"tex/AvatarWearables_TX.png"
		}
	],
	"accessors":[
		{
			"bufferView":0,
			"componentType":5126,
			"count":53,
			"max":[
				0.5080312490463257,
				-14.665653228759766,
				0.5080307722091675
			],
			"min":[
				-0.5080313682556152,
				-14.900496482849121,
				-0.508031964302063
			],
			"type":"VEC3"
		},
		{
			"bufferView":1,
			"componentType":5126,
			"count":53,
			"type":"VEC3"
		},
		{
			"bufferView":2,
			"componentType":5126,
			"count":53,
			"type":"VEC2"
		},
		{
			"bufferView":3,
			"componentType":5123,
			"count":189,
			"type":"SCALAR"
		},
		{
			"bufferView":4,
			"componentType":5126,
			"count":69,
			"max":[
				1.0608198642730713,
				-3.4847283363342285,
				1.060819387435913
			],
			"min":[
				-1.0608196258544922,
				-4.243279933929443,
				0.19298624992370605
			],
			"type":"VEC3"
		},
		{
			"bufferView":5,
			"componentType":5126,
			"count":69,
			"type":"VEC3"
		},
		{
			"bufferView":6,
			"componentType":5126,
			"count":69,
			"type":"VEC2"
		},
		{
			"bufferView":7,
			"componentType":5123,
			"count":129,
			"type":"SCALAR"
		},
		{
			"bufferView":8,
			"componentType":5126,
			"count":93,
			"max":[
				4,
				-9.675756454467773,
				0.8296321630477905
			],
			"min":[
				1.5058925151824951,
				-15.60422134399414,
				-1.7326395511627197
			],
			"type":"VEC3"
		},
		{
			"bufferView":9,
			"componentType":5126,
			"count":93,
			"type":"VEC3"
		},
		{
			"bufferView":10,
			"componentType":5126,
			"count":93,
			"type":"VEC2"
		},
		{
			"bufferView":11,
			"componentType":5123,
			"count":312,
			"type":"SCALAR"
		},
		{
			"bufferView":12,
			"componentType":5126,
			"count":40,
			"max":[
				4,
				-2.2394752502441406,
				4
			],
			"min":[
				2.577738046646118,
				-6.473293304443359,
				1.6449224948883057
			],
			"type":"VEC3"
		},
		{
			"bufferView":13,
			"componentType":5126,
			"count":40,
			"type":"VEC3"
		},
		{
			"bufferView":14,
			"componentType":5126,
			"count":40,
			"type":"VEC2"
		},
		{
			"bufferView":15,
			"componentType":5123,
			"count":60,
			"type":"SCALAR"
		},
		{
			"bufferView":16,
			"componentType":5126,
			"count":60,
			"max":[
				2.9450104236602783,
				-11.529816627502441,
				0.5060557126998901
			],
			"min":[
				1.76939058303833,
				-12.593720436096191,
				-0.5906829833984375
			],
			"type":"VEC3"
		},
		{
			"bufferView":17,
			"componentType":5126,
			"count":60,
			"type":"VEC3"
		},
		{
			"bufferView":18,
			"componentType":5126,
			"count":60,
			"type":"VEC2"
		},
		{
			"bufferView":19,
			"componentType":5126,
			"count":60,
			"type":"VEC4"
		},
		{
			"bufferView":20,
			"componentType":5123,
			"count":60,
			"type":"SCALAR"
		}
	],
	"bufferViews":[
		{
			"buffer":0,
			"byteLength":636,
			"byteOffset":0,
			"target":34962
		},
		{
			"buffer":0,
			"byteLength":636,
			"byteOffset":636,
			"target":34962
		},
		{
			"buffer":0,
			"byteLength":424,
			"byteOffset":1272,
			"target":34962
		},
		{
			"buffer":0,
			"byteLength":378,
			"byteOffset":1696,
			"target":34963
		},
		{
			"buffer":0,
			"byteLength":828,
			"byteOffset":2076,
			"target":34962
		},
		{
			"buffer":0,
			"byteLength":828,
			"byteOffset":2904,
			"target":34962
		},
		{
			"buffer":0,
			"byteLength":552,
			"byteOffset":3732,
			"target":34962
		},
		{
			"buffer":0,
			"byteLength":258,
			"byteOffset":4284,
			"target":34963
		},
		{
			"buffer":0,
			"byteLength":1116,
			"byteOffset":4544,
			"target":34962
		},
		{
			"buffer":0,
			"byteLength":1116,
			"byteOffset":5660,
			"target":34962
		},
		{
			"buffer":0,
			"byteLength":744,
			"byteOffset":6776,
			"target":34962
		},
		{
			"buffer":0,
			"byteLength":624,
			"byteOffset":7520,
			"target":34963
		},
		{
			"buffer":0,
			"byteLength":480,
			"byteOffset":8144,
			"target":34962
		},
		{
			"buffer":0,
			"byteLength":480,
			"byteOffset":8624,
			"target":34962
		},
		{
			"buffer":0,
			"byteLength":320,
			"byteOffset":9104,
			"target":34962
		},
		{
			"buffer":0,
			"byteLength":120,
			"byteOffset":9424,
			"target":34963
		},
		{
			"buffer":0,
			"byteLength":720,
			"byteOffset":9544,
			"target":34962
		},
		{
			"buffer":0,
			"byteLength":720,
			"byteOffset":10264,
			"target":34962
		},
		{
			"buffer":0,
			"byteLength":480,
			"byteOffset":10984,
			"target":34962
		},
		{
			"buffer":0,
			"byteLength":960,
			"byteOffset":11464,
			"target":34962
		},
		{
			"buffer":0,
			"byteLength":120,
			"byteOffset":12424,
			"target":34963
		}
	],
	"samplers":[
		{
			"magFilter":9729,
			"minFilter":9987
		}
	],
	"buffers":[
		{
			"byteLength":12544,
			"uri":"tile_10_0_1.bin"
		}
	]
}
