{
	"asset":{
		"generator":"Khronos glTF Blender I/O v4.0.44",
		"version":"2.0"
	},
	"extensionsUsed":[
		"KHR_materials_specular",
		"KHR_materials_ior",
		"KHR_materials_emissive_strength"
	],
	"scene":0,
	"scenes":[
		{
			"name":"Scene",
			"nodes":[
				0,
				1,
				2,
				3
			]
		}
	],
	"nodes":[
		{
			"mesh":0,
			"name":"Plane",
			"scale":[
				7.873531341552734,
				0.9841914176940918,
				7.873531341552734
			]
		},
		{
			"name":"track.040",
			"scale":[
				3.7706682682037354,
				3.7706682682037354,
				3.7706682682037354
			]
		},
		{
			"mesh":1,
			"name":"Cube",
			"rotation":[
				0,
				0.3507235050201416,
				0,
				0.9364790320396423
			],
			"scale":[
				2.5203466415405273,
				2.5203466415405273,
				2.5203466415405273
			]
		},
		{
			"mesh":2,
			"name":"Cube.012",
			"rotation":[
				0,
				-0.4193370044231415,
				0,
				0.9078306555747986
			],
			"scale":[
				2.2909789085388184,
				3.6719183921813965,
				2.2909789085388184
			]
		}
	],
	"materials":[
		{
			"doubleSided":true,
			"extensions":{
				"KHR_materials_specular":{
					"specularColorFactor":[
						2.0,
						2.0,
						2.0
					]
				},
				"KHR_materials_ior":{
					"ior":1.4500000476837158
				}
			},
			"name":"building",
			"pbrMetallicRoughness":{
				"baseColorTexture":{
					"index":0
				},
				"metallicFactor":0
			}
		},
		{
			"doubleSided":true,
			"extensions":{
				"KHR_materials_specular":{
					"specularColorFactor":[
						2.0,
						2.0,
						2.0
					]
				},
				"KHR_materials_ior":{
					"ior":1.4500000476837158
				}
			},
			"name":"building2",
			"pbrMetallicRoughness":{
				"baseColorTexture":{
					"index":1
				},
				"metallicFactor":0,
				"roughnessFactor":0.17924527823925018
			}
		},
		{
			"doubleSided":true,
			"emissiveFactor":[
				0.7991064786911011,
				0.15292732417583466,
				0.6038312911987305
			],
			"name":"Glow3",
			"pbrMetallicRoughness":{
				"baseColorFactor":[
					0.8004003763198853,
					0.1514851152896881,
					0.604170024394989,
					1
				],
				"metallicFactor":0,
				"roughnessFactor":0.5
			}
		},
		{
			"doubleSided":true,
			"emissiveFactor":[
				1,
				0.2655798013274177,
				0.04142626284219435
			],
			"extensions":{
				"KHR_materials_emissive_strength":{
					"emissiveStrength":1.5982129573822021
				}
			},
			"name":"Glow1",
			"pbrMetallicRoughness":{
				"baseColorFactor":[
					0.8008996248245239,
					0.21048900485038757,
					0.033567022532224655,
					1
				],
				"metallicFactor":0
			}
		}
	],
	"meshes":[
		{
			"name":"Plane.732",
			"primitives":[
				{
					"attributes":{
						"POSITION":0,
						"NORMAL":1,
						"TEXCOORD_0":2
					},
					"indices":3,
					"material":0
				}
			]
		},
		{
			"name":"Cube.546",
			"primitives":[
				{
					"attributes":{
						"POSITION":4,
						"NORMAL":5,
						"TEXCOORD_0":6
					},
					"indices":7,
					"material":1
				},
				{
					"attributes":{
						"POSITION":8,
						"NORMAL":9,
						"TEXCOORD_0":10
					},
					"indices":11,
					"material":2
				}
			]
		},
		{
			"name":"Cube.547",
			"primitives":[
				{
					"attributes":{
						"POSITION":12,
						"NORMAL":13,
						"TEXCOORD_0":14
					},
					"indices":15,
					"material":1
				},
				{
					"attributes":{
						"POSITION":16,
						"NORMAL":17,
						"TEXCOORD_0":18
					},
					"indices":19,
					"material":3
				}
			]
		}
	],
	"textures":[
		{
			"sampler":0,
			"source":0
		},
		{
			"sampler":0,
			"source":0
		}
	],
	"images":[
		{
			"mimeType":"image/png",
			"name":"AvatarWearables_TX",
			"uri":"tex/AvatarWearables_TX.png"
		}
	],
	"accessors":[
		{
			"bufferView":0,
			"componentType":5126,
			"count":52,
			"max":[
				0.5080301761627197,
				-14.900496482849121,
				0.508030891418457
			],
			"min":[
				-0.5080316066741943,
				-15.016510009765625,
				-0.5080317258834839
			],
			"type":"VEC3"
		},
		{
			"bufferView":1,
			"componentType":5126,
			"count":52,
			"type":"VEC3"
		},
		{
			"bufferView":2,
			"componentType":5126,
			"count":52,
			"type":"VEC2"
		},
		{
			"bufferView":3,
			"componentType":5123,
			"count":180,
			"type":"SCALAR"
		},
		{
			"bufferView":4,
			"componentType":5126,
			"count":303,
			"max":[
				-1.1993988752365112,
				-0.2456836700439453,
				-0.3880078196525574
			],
			"min":[
				-1.766883134841919,
				-5.889745712280273,
				-1.0393725633621216
			],
			"type":"VEC3"
		},
		{
			"bufferView":5,
			"componentType":5126,
			"count":303,
			"type":"VEC3"
		},
		{
			"bufferView":6,
			"componentType":5126,
			"count":303,
			"type":"VEC2"
		},
		{
			"bufferView":7,
			"componentType":5123,
			"count":489,
			"type":"SCALAR"
		},
		{
			"bufferView":8,
			"componentType":5126,
			"count":81,
			"max":[
				-1.1993988752365112,
				-0.2456836700439453,
				-0.3880078196525574
			],
			"min":[
				-1.766883134841919,
				-5.889745712280273,
				-1.0393725633621216
			],
			"type":"VEC3"
		},
		{
			"bufferView":9,
			"componentType":5126,
			"count":81,
			"type":"VEC3"
		},
		{
			"bufferView":10,
			"componentType":5126,
			"count":81,
			"type":"VEC2"
		},
		{
			"bufferView":11,
			"componentType":5123,
			"count":231,
			"type":"SCALAR"
		},
		{
			"bufferView":12,
			"componentType":5126,
			"count":2415,
			"max":[
				2.461282968521118,
				0.012632608413696289,
				1.814190149307251
			],
			"min":[
				0.7484010457992554,
				-3.978749990463257,
				-1.6559269428253174
			],
			"type":"VEC3"
		},
		{
			"bufferView":13,
			"componentType":5126,
			"count":2415,
			"type":"VEC3"
		},
		{
			"bufferView":14,
			"componentType":5126,
			"count":2415,
			"type":"VEC2"
		},
		{
			"bufferView":15,
			"componentType":5123,
			"count":4998,
			"type":"SCALAR"
		},
		{
			"bufferView":16,
			"componentType":5126,
			"count":288,
			"max":[
				0.8831846117973328,
				0.012632608413696289,
				1.8141878843307495
			],
			"min":[
				0.7484029531478882,
				-3.690941333770752,
				-1.6559252738952637
			],
			"type":"VEC3"
		},
		{
			"bufferView":17,
			"componentType":5126,
			"count":288,
			"type":"VEC3"
		},
		{
			"bufferView":18,
			"componentType":5126,
			"count":288,
			"type":"VEC2"
		},
		{
			"bufferView":19,
			"componentType":5123,
			"count":504,
			"type":"SCALAR"
		}
	],
	"bufferViews":[
		{
			"buffer":0,
			"byteLength":624,
			"byteOffset":0,
			"target":34962
		},
		{
			"buffer":0,
			"byteLength":624,
			"byteOffset":624,
			"target":34962
		},
		{
			"buffer":0,
			"byteLength":416,
			"byteOffset":1248,
			"target":34962
		},
		{
			"buffer":0,
			"byteLength":360,
			"byteOffset":1664,
			"target":34963
		},
		{
			"buffer":0,
			"byteLength":3636,
			"byteOffset":2024,
			"target":34962
		},
		{
			"buffer":0,
			"byteLength":3636,
			"byteOffset":5660,
			"target":34962
		},
		{
			"buffer":0,
			"byteLength":2424,
			"byteOffset":9296,
			"target":34962
		},
		{
			"buffer":0,
			"byteLength":978,
			"byteOffset":11720,
			"target":34963
		},
		{
			"buffer":0,
			"byteLength":972,
			"byteOffset":12700,
			"target":34962
		},
		{
			"buffer":0,
			"byteLength":972,
			"byteOffset":13672,
			"target":34962
		},
		{
			"buffer":0,
			"byteLength":648,
			"byteOffset":14644,
			"target":34962
		},
		{
			"buffer":0,
			"byteLength":462,
			"byteOffset":15292,
			"target":34963
		},
		{
			"buffer":0,
			"byteLength":28980,
			"byteOffset":15756,
			"target":34962
		},
		{
			"buffer":0,
			"byteLength":28980,
			"byteOffset":44736,
			"target":34962
		},
		{
			"buffer":0,
			"byteLength":19320,
			"byteOffset":73716,
			"target":34962
		},
		{
			"buffer":0,
			"byteLength":9996,
			"byteOffset":93036,
			"target":34963
		},
		{
			"buffer":0,
			"byteLength":3456,
			"byteOffset":103032,
			"target":34962
		},
		{
			"buffer":0,
			"byteLength":3456,
			"byteOffset":106488,
			"target":34962
		},
		{
			"buffer":0,
			"byteLength":2304,
			"byteOffset":109944,
			"target":34962
		},
		{
			"buffer":0,
			"byteLength":1008,
			"byteOffset":112248,
			"target":34963
		}
	],
	"samplers":[
		{
			"magFilter":9729,
			"minFilter":9987
		}
	],
	"buffers":[
		{
			"byteLength":113256,
			"uri":"tile_3_0_4.bin"
		}
	]
}
