{
	"asset":{
		"generator":"Khronos glTF Blender I/O v4.0.44",
		"version":"2.0"
	},
	"extensionsUsed":[
		"KHR_materials_specular",
		"KHR_materials_ior",
		"KHR_materials_emissive_strength"
	],
	"scene":0,
	"scenes":[
		{
			"name":"Scene",
			"nodes":[
				0,
				1,
				2,
				3,
				4
			]
		}
	],
	"nodes":[
		{
			"mesh":0,
			"name":"Plane",
			"scale":[
				7.873531341552734,
				0.9841914176940918,
				7.873531341552734
			]
		},
		{
			"mesh":1,
			"name":"Plane.001",
			"scale":[
				3.7706682682037354,
				3.7706682682037354,
				3.7706682682037354
			]
		},
		{
			"mesh":2,
			"name":"Torus.011",
			"rotation":[
				0.7071069478988647,
				0,
				0,
				0.7071066498756409
			],
			"scale":[
				0.9492737650871277,
				0.949273943901062,
				0.949273943901062
			]
		},
		{
			"mesh":3,
			"name":"Torus.019",
			"rotation":[
				0.7071069478988647,
				0,
				0,
				0.7071066498756409
			],
			"scale":[
				0.9492737650871277,
				0.949273943901062,
				0.949273943901062
			]
		},
		{
			"mesh":4,
			"name":"Text.001",
			"rotation":[
				0.5,
				0.5,
				-0.5,
				0.5
			],
			"scale":[
				2.029393434524536,
				2.029393434524536,
				2.029393434524536
			]
		}
	],
	"materials":[
		{
			"doubleSided":true,
			"extensions":{
				"KHR_materials_specular":{
					"specularColorFactor":[
						2.0,
						2.0,
						2.0
					]
				},
				"KHR_materials_ior":{
					"ior":1.4500000476837158
				}
			},
			"name":"building",
			"pbrMetallicRoughness":{
				"baseColorTexture":{
					"index":0
				},
				"metallicFactor":0
			}
		},
		{
			"doubleSided":true,
			"emissiveFactor":[
				1,
				0.003797386313042906,
				0
			],
			"extensions":{
				"KHR_materials_emissive_strength":{
					"emissiveStrength":7.991064786911011
				}
			},
			"name":"Glow9",
			"pbrMetallicRoughness":{
				"baseColorFactor":[
					0.8000000715255737,
					0.0031031807884573936,
					0,
					1
				],
				"metallicFactor":0
			}
		},
		{
			"doubleSided":true,
			"emissiveFactor":[
				1,
				1,
				1
			],
			"extensions":{
				"KHR_materials_emissive_strength":{
					"emissiveStrength":4
				}
			},
			"name":"Glow2",
			"pbrMetallicRoughness":{
				"baseColorFactor":[
					0.800000011920929,
					0.800000011920929,
					0.800000011920929,
					1
				],
				"metallicFactor":0,
				"roughnessFactor":0.5
			}
		}
	],
	"meshes":[
		{
			"name":"Plane.179",
			"primitives":[
				{
					"attributes":{
						"POSITION":0,
						"NORMAL":1,
						"TEXCOORD_0":2
					},
					"indices":3,
					"material":0
				},
				{
					"attributes":{
						"POSITION":4,
						"NORMAL":5,
						"TEXCOORD_0":6
					},
					"indices":7,
					"material":0
				}
			]
		},
		{
			"name":"Plane.180",
			"primitives":[
				{
					"attributes":{
						"POSITION":8,
						"NORMAL":9,
						"TEXCOORD_0":10
					},
					"indices":11,
					"material":0
				},
				{
					"attributes":{
						"POSITION":12,
						"NORMAL":13,
						"TEXCOORD_0":14
					},
					"indices":15,
					"material":0
				}
			]
		},
		{
			"name":"Torus.022",
			"primitives":[
				{
					"attributes":{
						"POSITION":16,
						"NORMAL":17,
						"TEXCOORD_0":18,
						"TANGENT":19
					},
					"indices":20,
					"material":0
				},
				{
					"attributes":{
						"POSITION":21,
						"NORMAL":22,
						"TEXCOORD_0":23,
						"TANGENT":24
					},
					"indices":25,
					"material":1
				},
				{
					"attributes":{
						"POSITION":26,
						"NORMAL":27,
						"TEXCOORD_0":28,
						"TANGENT":29
					},
					"indices":30,
					"material":2
				}
			]
		},
		{
			"name":"Torus.023",
			"primitives":[
				{
					"attributes":{
						"POSITION":31,
						"NORMAL":32,
						"TEXCOORD_0":33
					},
					"indices":34,
					"material":0
				},
				{
					"attributes":{
						"POSITION":35,
						"NORMAL":36,
						"TEXCOORD_0":37
					},
					"indices":38,
					"material":1
				},
				{
					"attributes":{
						"POSITION":39,
						"NORMAL":40,
						"TEXCOORD_0":41
					},
					"indices":42,
					"material":2
				},
				{
					"attributes":{
						"POSITION":43,
						"NORMAL":44,
						"TEXCOORD_0":45
					},
					"indices":46,
					"material":2
				}
			]
		},
		{
			"name":"Text.001",
			"primitives":[
				{
					"attributes":{
						"POSITION":47,
						"NORMAL":48,
						"TEXCOORD_0":49,
						"TANGENT":50
					},
					"indices":51,
					"material":2
				}
			]
		}
	],
	"textures":[
		{
			"sampler":0,
			"source":0
		}
	],
	"images":[
		{
			"mimeType":"image/png",
			"name":"AvatarWearables_TX",
			"uri":"tex/AvatarWearables_TX.png"
		}
	],
	"accessors":[
		{
			"bufferView":0,
			"componentType":5126,
			"count":131,
			"max":[
				1.0160627365112305,
				-6.4392781257629395,
				1.0160622596740723
			],
			"min":[
				-1.0160627365112305,
				-6.77199649810791,
				-0.9212799072265625
			],
			"type":"VEC3"
		},
		{
			"bufferView":1,
			"componentType":5126,
			"count":131,
			"type":"VEC3"
		},
		{
			"bufferView":2,
			"componentType":5126,
			"count":131,
			"type":"VEC2"
		},
		{
			"bufferView":3,
			"componentType":5123,
			"count":543,
			"type":"SCALAR"
		},
		{
			"bufferView":4,
			"componentType":5126,
			"count":9,
			"max":[
				1.0160627365112305,
				-6.4392781257629395,
				-0.6712799072265625
			],
			"min":[
				-1.0160627365112305,
				-6.77199649810791,
				-0.9212799072265625
			],
			"type":"VEC3"
		},
		{
			"bufferView":5,
			"componentType":5126,
			"count":9,
			"type":"VEC3"
		},
		{
			"bufferView":6,
			"componentType":5126,
			"count":9,
			"type":"VEC2"
		},
		{
			"bufferView":7,
			"componentType":5123,
			"count":12,
			"type":"SCALAR"
		},
		{
			"bufferView":8,
			"componentType":5126,
			"count":112,
			"max":[
				2.1216392517089844,
				-1.4225044250488281,
				1.9037256240844727
			],
			"min":[
				-2.1216392517089844,
				-1.985697865486145,
				-0.7160720825195312
			],
			"type":"VEC3"
		},
		{
			"bufferView":9,
			"componentType":5126,
			"count":112,
			"type":"VEC3"
		},
		{
			"bufferView":10,
			"componentType":5126,
			"count":112,
			"type":"VEC2"
		},
		{
			"bufferView":11,
			"componentType":5123,
			"count":174,
			"type":"SCALAR"
		},
		{
			"bufferView":12,
			"componentType":5126,
			"count":25,
			"max":[
				2.1216392517089844,
				-1.4225044250488281,
				2.121640205383301
			],
			"min":[
				-2.1216392517089844,
				-2.1216399669647217,
				-0.7160720825195312
			],
			"type":"VEC3"
		},
		{
			"bufferView":13,
			"componentType":5126,
			"count":25,
			"type":"VEC3"
		},
		{
			"bufferView":14,
			"componentType":5126,
			"count":25,
			"type":"VEC2"
		},
		{
			"bufferView":15,
			"componentType":5123,
			"count":63,
			"type":"SCALAR"
		},
		{
			"bufferView":16,
			"componentType":5126,
			"count":991,
			"max":[
				-3.50429630279541,
				-2.5206429958343506,
				7.074267864227295
			],
			"min":[
				-8.282074928283691,
				-7.298419952392578,
				-1.3418936729431152
			],
			"type":"VEC3"
		},
		{
			"bufferView":17,
			"componentType":5126,
			"count":991,
			"type":"VEC3"
		},
		{
			"bufferView":18,
			"componentType":5126,
			"count":991,
			"type":"VEC2"
		},
		{
			"bufferView":19,
			"componentType":5126,
			"count":991,
			"type":"VEC4"
		},
		{
			"bufferView":20,
			"componentType":5123,
			"count":4692,
			"type":"SCALAR"
		},
		{
			"bufferView":21,
			"componentType":5126,
			"count":66,
			"max":[
				-3.524277687072754,
				-3.2585315704345703,
				7.033892631530762
			],
			"min":[
				-8.278389930725098,
				-6.395927429199219,
				-0.30861330032348633
			],
			"type":"VEC3"
		},
		{
			"bufferView":22,
			"componentType":5126,
			"count":66,
			"type":"VEC3"
		},
		{
			"bufferView":23,
			"componentType":5126,
			"count":66,
			"type":"VEC2"
		},
		{
			"bufferView":24,
			"componentType":5126,
			"count":66,
			"type":"VEC4"
		},
		{
			"bufferView":25,
			"componentType":5123,
			"count":192,
			"type":"SCALAR"
		},
		{
			"bufferView":26,
			"componentType":5126,
			"count":100,
			"max":[
				-4.249970436096191,
				-2.5206429958343506,
				7.074267864227295
			],
			"min":[
				-7.47475528717041,
				-7.298419952392578,
				-1.1228575706481934
			],
			"type":"VEC3"
		},
		{
			"bufferView":27,
			"componentType":5126,
			"count":100,
			"type":"VEC3"
		},
		{
			"bufferView":28,
			"componentType":5126,
			"count":100,
			"type":"VEC2"
		},
		{
			"bufferView":29,
			"componentType":5126,
			"count":100,
			"type":"VEC4"
		},
		{
			"bufferView":30,
			"componentType":5123,
			"count":288,
			"type":"SCALAR"
		},
		{
			"bufferView":31,
			"componentType":5126,
			"count":364,
			"max":[
				-3.811155319213867,
				8.427486419677734,
				6.855188369750977
			],
			"min":[
				-8.121234893798828,
				6.936878204345703,
				-0.07952070236206055
			],
			"type":"VEC3"
		},
		{
			"bufferView":32,
			"componentType":5126,
			"count":364,
			"type":"VEC3"
		},
		{
			"bufferView":33,
			"componentType":5126,
			"count":364,
			"type":"VEC2"
		},
		{
			"bufferView":34,
			"componentType":5123,
			"count":1503,
			"type":"SCALAR"
		},
		{
			"bufferView":35,
			"componentType":5126,
			"count":27,
			"max":[
				-3.8766653537750244,
				8.427486419677734,
				6.780704975128174
			],
			"min":[
				-8.086917877197266,
				7.8393707275390625,
				0.0050334930419921875
			],
			"type":"VEC3"
		},
		{
			"bufferView":36,
			"componentType":5126,
			"count":27,
			"type":"VEC3"
		},
		{
			"bufferView":37,
			"componentType":5126,
			"count":27,
			"type":"VEC2"
		},
		{
			"bufferView":38,
			"componentType":5123,
			"count":69,
			"type":"SCALAR"
		},
		{
			"bufferView":39,
			"componentType":5126,
			"count":22,
			"max":[
				-4.249955177307129,
				8.427486419677734,
				6.171957492828369
			],
			"min":[
				-7.340371131896973,
				6.936878204345703,
				0.7335634231567383
			],
			"type":"VEC3"
		},
		{
			"bufferView":40,
			"componentType":5126,
			"count":22,
			"type":"VEC3"
		},
		{
			"bufferView":41,
			"componentType":5126,
			"count":22,
			"type":"VEC2"
		},
		{
			"bufferView":42,
			"componentType":5123,
			"count":60,
			"type":"SCALAR"
		},
		{
			"bufferView":43,
			"componentType":5126,
			"count":154,
			"max":[
				-3.811155319213867,
				8.427486419677734,
				6.855188369750977
			],
			"min":[
				-8.121234893798828,
				8.427486419677734,
				-0.07952070236206055
			],
			"type":"VEC3"
		},
		{
			"bufferView":44,
			"componentType":5126,
			"count":154,
			"type":"VEC3"
		},
		{
			"bufferView":45,
			"componentType":5126,
			"count":154,
			"type":"VEC2"
		},
		{
			"bufferView":46,
			"componentType":5123,
			"count":426,
			"type":"SCALAR"
		},
		{
			"bufferView":47,
			"componentType":5126,
			"count":2568,
			"max":[
				1.7287976741790771,
				-2.6795849800109863,
				-0.3397037088871002
			],
			"min":[
				-3.6948957443237305,
				-2.7195849418640137,
				-0.8275085687637329
			],
			"type":"VEC3"
		},
		{
			"bufferView":48,
			"componentType":5126,
			"count":2568,
			"type":"VEC3"
		},
		{
			"bufferView":49,
			"componentType":5126,
			"count":2568,
			"type":"VEC2"
		},
		{
			"bufferView":50,
			"componentType":5126,
			"count":2568,
			"type":"VEC4"
		},
		{
			"bufferView":51,
			"componentType":5123,
			"count":5055,
			"type":"SCALAR"
		}
	],
	"bufferViews":[
		{
			"buffer":0,
			"byteLength":1572,
			"byteOffset":0,
			"target":34962
		},
		{
			"buffer":0,
			"byteLength":1572,
			"byteOffset":1572,
			"target":34962
		},
		{
			"buffer":0,
			"byteLength":1048,
			"byteOffset":3144,
			"target":34962
		},
		{
			"buffer":0,
			"byteLength":1086,
			"byteOffset":4192,
			"target":34963
		},
		{
			"buffer":0,
			"byteLength":108,
			"byteOffset":5280,
			"target":34962
		},
		{
			"buffer":0,
			"byteLength":108,
			"byteOffset":5388,
			"target":34962
		},
		{
			"buffer":0,
			"byteLength":72,
			"byteOffset":5496,
			"target":34962
		},
		{
			"buffer":0,
			"byteLength":24,
			"byteOffset":5568,
			"target":34963
		},
		{
			"buffer":0,
			"byteLength":1344,
			"byteOffset":5592,
			"target":34962
		},
		{
			"buffer":0,
			"byteLength":1344,
			"byteOffset":6936,
			"target":34962
		},
		{
			"buffer":0,
			"byteLength":896,
			"byteOffset":8280,
			"target":34962
		},
		{
			"buffer":0,
			"byteLength":348,
			"byteOffset":9176,
			"target":34963
		},
		{
			"buffer":0,
			"byteLength":300,
			"byteOffset":9524,
			"target":34962
		},
		{
			"buffer":0,
			"byteLength":300,
			"byteOffset":9824,
			"target":34962
		},
		{
			"buffer":0,
			"byteLength":200,
			"byteOffset":10124,
			"target":34962
		},
		{
			"buffer":0,
			"byteLength":126,
			"byteOffset":10324,
			"target":34963
		},
		{
			"buffer":0,
			"byteLength":11892,
			"byteOffset":10452,
			"target":34962
		},
		{
			"buffer":0,
			"byteLength":11892,
			"byteOffset":22344,
			"target":34962
		},
		{
			"buffer":0,
			"byteLength":7928,
			"byteOffset":34236,
			"target":34962
		},
		{
			"buffer":0,
			"byteLength":15856,
			"byteOffset":42164,
			"target":34962
		},
		{
			"buffer":0,
			"byteLength":9384,
			"byteOffset":58020,
			"target":34963
		},
		{
			"buffer":0,
			"byteLength":792,
			"byteOffset":67404,
			"target":34962
		},
		{
			"buffer":0,
			"byteLength":792,
			"byteOffset":68196,
			"target":34962
		},
		{
			"buffer":0,
			"byteLength":528,
			"byteOffset":68988,
			"target":34962
		},
		{
			"buffer":0,
			"byteLength":1056,
			"byteOffset":69516,
			"target":34962
		},
		{
			"buffer":0,
			"byteLength":384,
			"byteOffset":70572,
			"target":34963
		},
		{
			"buffer":0,
			"byteLength":1200,
			"byteOffset":70956,
			"target":34962
		},
		{
			"buffer":0,
			"byteLength":1200,
			"byteOffset":72156,
			"target":34962
		},
		{
			"buffer":0,
			"byteLength":800,
			"byteOffset":73356,
			"target":34962
		},
		{
			"buffer":0,
			"byteLength":1600,
			"byteOffset":74156,
			"target":34962
		},
		{
			"buffer":0,
			"byteLength":576,
			"byteOffset":75756,
			"target":34963
		},
		{
			"buffer":0,
			"byteLength":4368,
			"byteOffset":76332,
			"target":34962
		},
		{
			"buffer":0,
			"byteLength":4368,
			"byteOffset":80700,
			"target":34962
		},
		{
			"buffer":0,
			"byteLength":2912,
			"byteOffset":85068,
			"target":34962
		},
		{
			"buffer":0,
			"byteLength":3006,
			"byteOffset":87980,
			"target":34963
		},
		{
			"buffer":0,
			"byteLength":324,
			"byteOffset":90988,
			"target":34962
		},
		{
			"buffer":0,
			"byteLength":324,
			"byteOffset":91312,
			"target":34962
		},
		{
			"buffer":0,
			"byteLength":216,
			"byteOffset":91636,
			"target":34962
		},
		{
			"buffer":0,
			"byteLength":138,
			"byteOffset":91852,
			"target":34963
		},
		{
			"buffer":0,
			"byteLength":264,
			"byteOffset":91992,
			"target":34962
		},
		{
			"buffer":0,
			"byteLength":264,
			"byteOffset":92256,
			"target":34962
		},
		{
			"buffer":0,
			"byteLength":176,
			"byteOffset":92520,
			"target":34962
		},
		{
			"buffer":0,
			"byteLength":120,
			"byteOffset":92696,
			"target":34963
		},
		{
			"buffer":0,
			"byteLength":1848,
			"byteOffset":92816,
			"target":34962
		},
		{
			"buffer":0,
			"byteLength":1848,
			"byteOffset":94664,
			"target":34962
		},
		{
			"buffer":0,
			"byteLength":1232,
			"byteOffset":96512,
			"target":34962
		},
		{
			"buffer":0,
			"byteLength":852,
			"byteOffset":97744,
			"target":34963
		},
		{
			"buffer":0,
			"byteLength":30816,
			"byteOffset":98596,
			"target":34962
		},
		{
			"buffer":0,
			"byteLength":30816,
			"byteOffset":129412,
			"target":34962
		},
		{
			"buffer":0,
			"byteLength":20544,
			"byteOffset":160228,
			"target":34962
		},
		{
			"buffer":0,
			"byteLength":41088,
			"byteOffset":180772,
			"target":34962
		},
		{
			"buffer":0,
			"byteLength":10110,
			"byteOffset":221860,
			"target":34963
		}
	],
	"samplers":[
		{
			"magFilter":9729,
			"minFilter":9987
		}
	],
	"buffers":[
		{
			"byteLength":231972,
			"uri":"tile_9_1_5.bin"
		}
	]
}
