{
	"asset":{
		"generator":"Khronos glTF Blender I/O v4.0.44",
		"version":"2.0"
	},
	"extensionsUsed":[
		"KHR_materials_specular",
		"KHR_materials_ior",
		"KHR_materials_emissive_strength"
	],
	"scene":0,
	"scenes":[
		{
			"name":"Scene",
			"nodes":[
				0,
				1,
				2
			]
		}
	],
	"nodes":[
		{
			"mesh":0,
			"name":"Plane",
			"scale":[
				7.873531341552734,
				0.9841914176940918,
				7.873531341552734
			]
		},
		{
			"mesh":1,
			"name":"track.143",
			"scale":[
				3.7706682682037354,
				3.7706682682037354,
				3.7706682682037354
			]
		},
		{
			"mesh":2,
			"name":"Cylinder.004",
			"scale":[
				1.0180153846740723,
				6.981534957885742,
				1.0180153846740723
			]
		}
	],
	"materials":[
		{
			"doubleSided":true,
			"extensions":{
				"KHR_materials_specular":{
					"specularColorFactor":[
						2.0,
						2.0,
						2.0
					]
				},
				"KHR_materials_ior":{
					"ior":1.4500000476837158
				}
			},
			"name":"building",
			"pbrMetallicRoughness":{
				"baseColorTexture":{
					"index":0
				},
				"metallicFactor":0
			}
		},
		{
			"doubleSided":true,
			"extensions":{
				"KHR_materials_specular":{
					"specularColorFactor":[
						2.0,
						2.0,
						2.0
					]
				},
				"KHR_materials_ior":{
					"ior":1.4500000476837158
				}
			},
			"name":"building2",
			"pbrMetallicRoughness":{
				"baseColorTexture":{
					"index":1
				},
				"metallicFactor":0,
				"roughnessFactor":0.17924527823925018
			}
		},
		{
			"doubleSided":true,
			"emissiveFactor":[
				0.7991064786911011,
				0.15292732417583466,
				0.6038312911987305
			],
			"name":"Glow3",
			"pbrMetallicRoughness":{
				"baseColorFactor":[
					0.8004003763198853,
					0.1514851152896881,
					0.604170024394989,
					1
				],
				"metallicFactor":0,
				"roughnessFactor":0.5
			}
		},
		{
			"doubleSided":true,
			"emissiveFactor":[
				1,
				0.2655798013274177,
				0.04142626284219435
			],
			"extensions":{
				"KHR_materials_emissive_strength":{
					"emissiveStrength":1.5982129573822021
				}
			},
			"name":"Glow1",
			"pbrMetallicRoughness":{
				"baseColorFactor":[
					0.8008996248245239,
					0.21048900485038757,
					0.033567022532224655,
					1
				],
				"metallicFactor":0
			}
		}
	],
	"meshes":[
		{
			"name":"Plane.936",
			"primitives":[
				{
					"attributes":{
						"POSITION":0,
						"NORMAL":1,
						"TEXCOORD_0":2,
						"TANGENT":3
					},
					"indices":4,
					"material":0
				}
			]
		},
		{
			"name":"Plane.937",
			"primitives":[
				{
					"attributes":{
						"POSITION":5,
						"NORMAL":6,
						"TEXCOORD_0":7
					},
					"indices":8,
					"material":0
				},
				{
					"attributes":{
						"POSITION":9,
						"NORMAL":10,
						"TEXCOORD_0":11
					},
					"indices":12,
					"material":0
				}
			]
		},
		{
			"name":"Cylinder.415",
			"primitives":[
				{
					"attributes":{
						"POSITION":13,
						"NORMAL":14,
						"TEXCOORD_0":15
					},
					"indices":16,
					"material":1
				},
				{
					"attributes":{
						"POSITION":17,
						"NORMAL":18,
						"TEXCOORD_0":19
					},
					"indices":20,
					"material":2
				},
				{
					"attributes":{
						"POSITION":21,
						"NORMAL":22,
						"TEXCOORD_0":23
					},
					"indices":24,
					"material":3
				}
			]
		}
	],
	"textures":[
		{
			"sampler":0,
			"source":0
		},
		{
			"sampler":0,
			"source":0
		}
	],
	"images":[
		{
			"mimeType":"image/png",
			"name":"AvatarWearables_TX",
			"uri":"tex/AvatarWearables_TX.png"
		}
	],
	"accessors":[
		{
			"bufferView":0,
			"componentType":5126,
			"count":36,
			"max":[
				0.5080312490463257,
				-14.900496482849121,
				0.5080313682556152
			],
			"min":[
				-0.5080312490463257,
				-14.900496482849121,
				-0.5080313682556152
			],
			"type":"VEC3"
		},
		{
			"bufferView":1,
			"componentType":5126,
			"count":36,
			"type":"VEC3"
		},
		{
			"bufferView":2,
			"componentType":5126,
			"count":36,
			"type":"VEC2"
		},
		{
			"bufferView":3,
			"componentType":5126,
			"count":36,
			"type":"VEC4"
		},
		{
			"bufferView":4,
			"componentType":5123,
			"count":150,
			"type":"SCALAR"
		},
		{
			"bufferView":5,
			"componentType":5126,
			"count":41,
			"max":[
				1.0608179569244385,
				-3.5446274280548096,
				1.0608196258544922
			],
			"min":[
				-1.060821771621704,
				-4.107335567474365,
				0.05648612976074219
			],
			"type":"VEC3"
		},
		{
			"bufferView":6,
			"componentType":5126,
			"count":41,
			"type":"VEC3"
		},
		{
			"bufferView":7,
			"componentType":5126,
			"count":41,
			"type":"VEC2"
		},
		{
			"bufferView":8,
			"componentType":5123,
			"count":63,
			"type":"SCALAR"
		},
		{
			"bufferView":9,
			"componentType":5126,
			"count":19,
			"max":[
				1.0608179569244385,
				-3.545163631439209,
				1.0608196258544922
			],
			"min":[
				-1.060821771621704,
				-4.243279933929443,
				0.05648612976074219
			],
			"type":"VEC3"
		},
		{
			"bufferView":10,
			"componentType":5126,
			"count":19,
			"type":"VEC3"
		},
		{
			"bufferView":11,
			"componentType":5126,
			"count":19,
			"type":"VEC2"
		},
		{
			"bufferView":12,
			"componentType":5123,
			"count":39,
			"type":"SCALAR"
		},
		{
			"bufferView":13,
			"componentType":5126,
			"count":1465,
			"max":[
				2.6380176544189453,
				-0.16687601804733276,
				-2.067692995071411
			],
			"min":[
				0.6380190849304199,
				-2.1043758392333984,
				-3.929213523864746
			],
			"type":"VEC3"
		},
		{
			"bufferView":14,
			"componentType":5126,
			"count":1465,
			"type":"VEC3"
		},
		{
			"bufferView":15,
			"componentType":5126,
			"count":1465,
			"type":"VEC2"
		},
		{
			"bufferView":16,
			"componentType":5123,
			"count":5130,
			"type":"SCALAR"
		},
		{
			"bufferView":17,
			"componentType":5126,
			"count":266,
			"max":[
				2.561420440673828,
				-0.35732394456863403,
				-2.145613431930542
			],
			"min":[
				0.7254977226257324,
				-1.9137349128723145,
				-3.929213523864746
			],
			"type":"VEC3"
		},
		{
			"bufferView":18,
			"componentType":5126,
			"count":266,
			"type":"VEC3"
		},
		{
			"bufferView":19,
			"componentType":5126,
			"count":266,
			"type":"VEC2"
		},
		{
			"bufferView":20,
			"componentType":5123,
			"count":714,
			"type":"SCALAR"
		},
		{
			"bufferView":21,
			"componentType":5126,
			"count":346,
			"max":[
				2.3519997596740723,
				-0.23190850019454956,
				-2.806223154067993
			],
			"min":[
				0.9349169731140137,
				-2.0384883880615234,
				-3.320868968963623
			],
			"type":"VEC3"
		},
		{
			"bufferView":22,
			"componentType":5126,
			"count":346,
			"type":"VEC3"
		},
		{
			"bufferView":23,
			"componentType":5126,
			"count":346,
			"type":"VEC2"
		},
		{
			"bufferView":24,
			"componentType":5123,
			"count":768,
			"type":"SCALAR"
		}
	],
	"bufferViews":[
		{
			"buffer":0,
			"byteLength":432,
			"byteOffset":0,
			"target":34962
		},
		{
			"buffer":0,
			"byteLength":432,
			"byteOffset":432,
			"target":34962
		},
		{
			"buffer":0,
			"byteLength":288,
			"byteOffset":864,
			"target":34962
		},
		{
			"buffer":0,
			"byteLength":576,
			"byteOffset":1152,
			"target":34962
		},
		{
			"buffer":0,
			"byteLength":300,
			"byteOffset":1728,
			"target":34963
		},
		{
			"buffer":0,
			"byteLength":492,
			"byteOffset":2028,
			"target":34962
		},
		{
			"buffer":0,
			"byteLength":492,
			"byteOffset":2520,
			"target":34962
		},
		{
			"buffer":0,
			"byteLength":328,
			"byteOffset":3012,
			"target":34962
		},
		{
			"buffer":0,
			"byteLength":126,
			"byteOffset":3340,
			"target":34963
		},
		{
			"buffer":0,
			"byteLength":228,
			"byteOffset":3468,
			"target":34962
		},
		{
			"buffer":0,
			"byteLength":228,
			"byteOffset":3696,
			"target":34962
		},
		{
			"buffer":0,
			"byteLength":152,
			"byteOffset":3924,
			"target":34962
		},
		{
			"buffer":0,
			"byteLength":78,
			"byteOffset":4076,
			"target":34963
		},
		{
			"buffer":0,
			"byteLength":17580,
			"byteOffset":4156,
			"target":34962
		},
		{
			"buffer":0,
			"byteLength":17580,
			"byteOffset":21736,
			"target":34962
		},
		{
			"buffer":0,
			"byteLength":11720,
			"byteOffset":39316,
			"target":34962
		},
		{
			"buffer":0,
			"byteLength":10260,
			"byteOffset":51036,
			"target":34963
		},
		{
			"buffer":0,
			"byteLength":3192,
			"byteOffset":61296,
			"target":34962
		},
		{
			"buffer":0,
			"byteLength":3192,
			"byteOffset":64488,
			"target":34962
		},
		{
			"buffer":0,
			"byteLength":2128,
			"byteOffset":67680,
			"target":34962
		},
		{
			"buffer":0,
			"byteLength":1428,
			"byteOffset":69808,
			"target":34963
		},
		{
			"buffer":0,
			"byteLength":4152,
			"byteOffset":71236,
			"target":34962
		},
		{
			"buffer":0,
			"byteLength":4152,
			"byteOffset":75388,
			"target":34962
		},
		{
			"buffer":0,
			"byteLength":2768,
			"byteOffset":79540,
			"target":34962
		},
		{
			"buffer":0,
			"byteLength":1536,
			"byteOffset":82308,
			"target":34963
		}
	],
	"samplers":[
		{
			"magFilter":9729,
			"minFilter":9987
		}
	],
	"buffers":[
		{
			"byteLength":83844,
			"uri":"tile_11_0_10.bin"
		}
	]
}
