{
	"asset":{
		"generator":"Khronos glTF Blender I/O v4.0.44",
		"version":"2.0"
	},
	"extensionsUsed":[
		"KHR_materials_specular",
		"KHR_materials_ior",
		"KHR_materials_emissive_strength"
	],
	"scene":0,
	"scenes":[
		{
			"name":"Scene",
			"nodes":[
				0,
				1,
				2
			]
		}
	],
	"nodes":[
		{
			"mesh":0,
			"name":"Plane",
			"scale":[
				7.873531341552734,
				0.9841914176940918,
				7.873531341552734
			]
		},
		{
			"name":"track.153",
			"scale":[
				3.7706682682037354,
				3.7706682682037354,
				3.7706682682037354
			]
		},
		{
			"mesh":1,
			"name":"Cube.004",
			"rotation":[
				0,
				0.7251519560813904,
				0,
				0.6885889172554016
			],
			"scale":[
				1.9629734754562378,
				3.1461997032165527,
				1.9629734754562378
			]
		}
	],
	"materials":[
		{
			"doubleSided":true,
			"extensions":{
				"KHR_materials_specular":{
					"specularColorFactor":[
						2.0,
						2.0,
						2.0
					]
				},
				"KHR_materials_ior":{
					"ior":1.4500000476837158
				}
			},
			"name":"building",
			"pbrMetallicRoughness":{
				"baseColorTexture":{
					"index":0
				},
				"metallicFactor":0
			}
		},
		{
			"doubleSided":true,
			"emissiveFactor":[
				0.09784298909313212,
				1,
				0.08569416583338194
			],
			"extensions":{
				"KHR_materials_emissive_strength":{
					"emissiveStrength":1.5982129573822021
				}
			},
			"name":"Glow4",
			"pbrMetallicRoughness":{
				"baseColorFactor":[
					0.078976109623909,
					0.8012131452560425,
					0.06799241155385971,
					1
				],
				"metallicFactor":0
			}
		}
	],
	"meshes":[
		{
			"name":"Plane.956",
			"primitives":[
				{
					"attributes":{
						"POSITION":0,
						"NORMAL":1,
						"TEXCOORD_0":2
					},
					"indices":3,
					"material":0
				}
			]
		},
		{
			"name":"Cube.638",
			"primitives":[
				{
					"attributes":{
						"POSITION":4,
						"NORMAL":5,
						"TEXCOORD_0":6
					},
					"indices":7,
					"material":0
				},
				{
					"attributes":{
						"POSITION":8,
						"NORMAL":9,
						"TEXCOORD_0":10
					},
					"indices":11,
					"material":1
				}
			]
		}
	],
	"textures":[
		{
			"sampler":0,
			"source":0
		}
	],
	"images":[
		{
			"mimeType":"image/png",
			"name":"AvatarWearables_TX",
			"uri":"tex/AvatarWearables_TX.png"
		}
	],
	"accessors":[
		{
			"bufferView":0,
			"componentType":5126,
			"count":69,
			"max":[
				0.5080312490463257,
				-13.790093421936035,
				0.5080304145812988
			],
			"min":[
				-0.5080312490463257,
				-16.256999969482422,
				-0.5080323219299316
			],
			"type":"VEC3"
		},
		{
			"bufferView":1,
			"componentType":5126,
			"count":69,
			"type":"VEC3"
		},
		{
			"bufferView":2,
			"componentType":5126,
			"count":69,
			"type":"VEC2"
		},
		{
			"bufferView":3,
			"componentType":5123,
			"count":231,
			"type":"SCALAR"
		},
		{
			"bufferView":4,
			"componentType":5126,
			"count":5252,
			"max":[
				1.9409788846969604,
				-0.6547183990478516,
				2.1403322219848633
			],
			"min":[
				-0.24058771133422852,
				-4.646101951599121,
				-2.052905559539795
			],
			"type":"VEC3"
		},
		{
			"bufferView":5,
			"componentType":5126,
			"count":5252,
			"type":"VEC3"
		},
		{
			"bufferView":6,
			"componentType":5126,
			"count":5252,
			"type":"VEC2"
		},
		{
			"bufferView":7,
			"componentType":5123,
			"count":11739,
			"type":"SCALAR"
		},
		{
			"bufferView":8,
			"componentType":5126,
			"count":854,
			"max":[
				1.94097900390625,
				-0.6547183990478516,
				2.1403322219848633
			],
			"min":[
				-0.2405858039855957,
				-4.363431930541992,
				-2.052905321121216
			],
			"type":"VEC3"
		},
		{
			"bufferView":9,
			"componentType":5126,
			"count":854,
			"type":"VEC3"
		},
		{
			"bufferView":10,
			"componentType":5126,
			"count":854,
			"type":"VEC2"
		},
		{
			"bufferView":11,
			"componentType":5123,
			"count":1488,
			"type":"SCALAR"
		}
	],
	"bufferViews":[
		{
			"buffer":0,
			"byteLength":828,
			"byteOffset":0,
			"target":34962
		},
		{
			"buffer":0,
			"byteLength":828,
			"byteOffset":828,
			"target":34962
		},
		{
			"buffer":0,
			"byteLength":552,
			"byteOffset":1656,
			"target":34962
		},
		{
			"buffer":0,
			"byteLength":462,
			"byteOffset":2208,
			"target":34963
		},
		{
			"buffer":0,
			"byteLength":63024,
			"byteOffset":2672,
			"target":34962
		},
		{
			"buffer":0,
			"byteLength":63024,
			"byteOffset":65696,
			"target":34962
		},
		{
			"buffer":0,
			"byteLength":42016,
			"byteOffset":128720,
			"target":34962
		},
		{
			"buffer":0,
			"byteLength":23478,
			"byteOffset":170736,
			"target":34963
		},
		{
			"buffer":0,
			"byteLength":10248,
			"byteOffset":194216,
			"target":34962
		},
		{
			"buffer":0,
			"byteLength":10248,
			"byteOffset":204464,
			"target":34962
		},
		{
			"buffer":0,
			"byteLength":6832,
			"byteOffset":214712,
			"target":34962
		},
		{
			"buffer":0,
			"byteLength":2976,
			"byteOffset":221544,
			"target":34963
		}
	],
	"samplers":[
		{
			"magFilter":9729,
			"minFilter":9987
		}
	],
	"buffers":[
		{
			"byteLength":224520,
			"uri":"tile_12_0_8.bin"
		}
	]
}
