{
	"asset":{
		"generator":"Khronos glTF Blender I/O v4.0.44",
		"version":"2.0"
	},
	"extensionsUsed":[
		"KHR_materials_specular",
		"KHR_materials_ior",
		"KHR_materials_emissive_strength"
	],
	"scene":0,
	"scenes":[
		{
			"name":"Scene",
			"nodes":[
				0,
				1,
				2,
				3,
				4,
				5,
				6,
				7,
				8,
				9,
				10
			]
		}
	],
	"nodes":[
		{
			"mesh":0,
			"name":"Plane",
			"scale":[
				7.873531341552734,
				0.9841914176940918,
				7.873531341552734
			]
		},
		{
			"mesh":1,
			"name":"track.080",
			"scale":[
				3.7706682682037354,
				3.7706682682037354,
				3.7706682682037354
			]
		},
		{
			"mesh":2,
			"name":"Cube.009"
		},
		{
			"mesh":3,
			"name":"Cylinder.008",
			"rotation":[
				-1,
				0,
				0,
				7.549790126404332e-08
			],
			"scale":[
				2.3381993770599365,
				2.3381993770599365,
				2.3381993770599365
			]
		},
		{
			"mesh":4,
			"name":"Cube.091"
		},
		{
			"mesh":5,
			"name":"Cube.092"
		},
		{
			"mesh":6,
			"name":"Cube.093"
		},
		{
			"mesh":7,
			"name":"Cube.094"
		},
		{
			"mesh":8,
			"name":"Cube.095"
		},
		{
			"mesh":9,
			"name":"Cube.096"
		},
		{
			"mesh":10,
			"name":"Cube.097"
		}
	],
	"materials":[
		{
			"doubleSided":true,
			"extensions":{
				"KHR_materials_specular":{
					"specularColorFactor":[
						2.0,
						2.0,
						2.0
					]
				},
				"KHR_materials_ior":{
					"ior":1.4500000476837158
				}
			},
			"name":"building",
			"pbrMetallicRoughness":{
				"baseColorTexture":{
					"index":0
				},
				"metallicFactor":0
			}
		},
		{
			"doubleSided":true,
			"emissiveFactor":[
				0.2831465070731129,
				0.027320706840421944,
				1
			],
			"extensions":{
				"KHR_materials_emissive_strength":{
					"emissiveStrength":2.0000481605529785
				}
			},
			"name":"Glow8",
			"pbrMetallicRoughness":{
				"baseColorFactor":[
					0.2836092412471771,
					0.027631696313619614,
					1,
					1
				],
				"metallicFactor":0
			}
		}
	],
	"meshes":[
		{
			"name":"Plane.810",
			"primitives":[
				{
					"attributes":{
						"POSITION":0,
						"NORMAL":1,
						"TEXCOORD_0":2
					},
					"indices":3,
					"material":0
				}
			]
		},
		{
			"name":"Plane.811",
			"primitives":[
				{
					"attributes":{
						"POSITION":4,
						"NORMAL":5,
						"TEXCOORD_0":6
					},
					"indices":7,
					"material":0
				}
			]
		},
		{
			"name":"Cube.568",
			"primitives":[
				{
					"attributes":{
						"POSITION":8,
						"NORMAL":9,
						"TEXCOORD_0":10
					},
					"indices":11,
					"material":0
				}
			]
		},
		{
			"name":"Cylinder.386",
			"primitives":[
				{
					"attributes":{
						"POSITION":12,
						"NORMAL":13,
						"TEXCOORD_0":14
					},
					"indices":15,
					"material":0
				},
				{
					"attributes":{
						"POSITION":16,
						"NORMAL":17,
						"TEXCOORD_0":18
					},
					"indices":19,
					"material":1
				}
			]
		},
		{
			"name":"Cube.569",
			"primitives":[
				{
					"attributes":{
						"POSITION":20,
						"NORMAL":21,
						"TEXCOORD_0":22,
						"TANGENT":23
					},
					"indices":24,
					"material":0
				}
			]
		},
		{
			"name":"Cube.570",
			"primitives":[
				{
					"attributes":{
						"POSITION":25,
						"NORMAL":26,
						"TEXCOORD_0":27,
						"TANGENT":28
					},
					"indices":29,
					"material":0
				},
				{
					"attributes":{
						"POSITION":30,
						"NORMAL":31,
						"TEXCOORD_0":32,
						"TANGENT":33
					},
					"indices":34,
					"material":0
				}
			]
		},
		{
			"name":"Cube.571",
			"primitives":[
				{
					"attributes":{
						"POSITION":35,
						"NORMAL":36,
						"TEXCOORD_0":37,
						"TANGENT":38
					},
					"indices":24,
					"material":0
				}
			]
		},
		{
			"name":"Cube.572",
			"primitives":[
				{
					"attributes":{
						"POSITION":39,
						"NORMAL":40,
						"TEXCOORD_0":41,
						"TANGENT":42
					},
					"indices":24,
					"material":0
				}
			]
		},
		{
			"name":"Cube.573",
			"primitives":[
				{
					"attributes":{
						"POSITION":43,
						"NORMAL":44,
						"TEXCOORD_0":45,
						"TANGENT":46
					},
					"indices":24,
					"material":0
				}
			]
		},
		{
			"name":"Cube.574",
			"primitives":[
				{
					"attributes":{
						"POSITION":47,
						"NORMAL":48,
						"TEXCOORD_0":49,
						"TANGENT":50
					},
					"indices":29,
					"material":0
				},
				{
					"attributes":{
						"POSITION":51,
						"NORMAL":52,
						"TEXCOORD_0":53,
						"TANGENT":54
					},
					"indices":34,
					"material":0
				}
			]
		},
		{
			"name":"Cube.575",
			"primitives":[
				{
					"attributes":{
						"POSITION":55,
						"NORMAL":56,
						"TEXCOORD_0":57,
						"TANGENT":58
					},
					"indices":24,
					"material":0
				}
			]
		}
	],
	"textures":[
		{
			"sampler":0,
			"source":0
		}
	],
	"images":[
		{
			"mimeType":"image/png",
			"name":"AvatarWearables_TX",
			"uri":"tex/AvatarWearables_TX.png"
		}
	],
	"accessors":[
		{
			"bufferView":0,
			"componentType":5126,
			"count":85,
			"max":[
				0.5080313682556152,
				-12.332504272460938,
				0.5080312490463257
			],
			"min":[
				-0.5080313682556152,
				-16.256999969482422,
				-0.5080313682556152
			],
			"type":"VEC3"
		},
		{
			"bufferView":1,
			"componentType":5126,
			"count":85,
			"type":"VEC3"
		},
		{
			"bufferView":2,
			"componentType":5126,
			"count":85,
			"type":"VEC2"
		},
		{
			"bufferView":3,
			"componentType":5123,
			"count":261,
			"type":"SCALAR"
		},
		{
			"bufferView":4,
			"componentType":5126,
			"count":50,
			"max":[
				1.0608177185058594,
				-2.1462926864624023,
				-0.14194631576538086
			],
			"min":[
				-0.2036914825439453,
				-4.243279933929443,
				-1.0608196258544922
			],
			"type":"VEC3"
		},
		{
			"bufferView":5,
			"componentType":5126,
			"count":50,
			"type":"VEC3"
		},
		{
			"bufferView":6,
			"componentType":5126,
			"count":50,
			"type":"VEC2"
		},
		{
			"bufferView":7,
			"componentType":5123,
			"count":105,
			"type":"SCALAR"
		},
		{
			"bufferView":8,
			"componentType":5126,
			"count":78,
			"max":[
				-1.893059253692627,
				-9.996740341186523,
				0.05056047439575195
			],
			"min":[
				-4,
				-12.815149307250977,
				-3.8537557125091553
			],
			"type":"VEC3"
		},
		{
			"bufferView":9,
			"componentType":5126,
			"count":78,
			"type":"VEC3"
		},
		{
			"bufferView":10,
			"componentType":5126,
			"count":78,
			"type":"VEC2"
		},
		{
			"bufferView":11,
			"componentType":5123,
			"count":168,
			"type":"SCALAR"
		},
		{
			"bufferView":12,
			"componentType":5126,
			"count":1067,
			"max":[
				1.7107162475585938,
				5.695939064025879,
				0.9499554634094238
			],
			"min":[
				-1.7107200622558594,
				-2.4087557792663574,
				-1.7107200622558594
			],
			"type":"VEC3"
		},
		{
			"bufferView":13,
			"componentType":5126,
			"count":1067,
			"type":"VEC3"
		},
		{
			"bufferView":14,
			"componentType":5126,
			"count":1067,
			"type":"VEC2"
		},
		{
			"bufferView":15,
			"componentType":5123,
			"count":2100,
			"type":"SCALAR"
		},
		{
			"bufferView":16,
			"componentType":5126,
			"count":185,
			"max":[
				1.7107162475585938,
				5.565955638885498,
				0.5744318962097168
			],
			"min":[
				-1.7107200622558594,
				-1.1786298751831055,
				-1.7107200622558594
			],
			"type":"VEC3"
		},
		{
			"bufferView":17,
			"componentType":5126,
			"count":185,
			"type":"VEC3"
		},
		{
			"bufferView":18,
			"componentType":5126,
			"count":185,
			"type":"VEC2"
		},
		{
			"bufferView":19,
			"componentType":5123,
			"count":303,
			"type":"SCALAR"
		},
		{
			"bufferView":20,
			"componentType":5126,
			"count":24,
			"max":[
				-2.084822654724121,
				-12.10522747039795,
				-1.8392243385314941
			],
			"min":[
				-4,
				-12.163174629211426,
				-3.5484800338745117
			],
			"type":"VEC3"
		},
		{
			"bufferView":21,
			"componentType":5126,
			"count":24,
			"type":"VEC3"
		},
		{
			"bufferView":22,
			"componentType":5126,
			"count":24,
			"type":"VEC2"
		},
		{
			"bufferView":23,
			"componentType":5126,
			"count":24,
			"type":"VEC4"
		},
		{
			"bufferView":24,
			"componentType":5123,
			"count":36,
			"type":"SCALAR"
		},
		{
			"bufferView":25,
			"componentType":5126,
			"count":20,
			"max":[
				-2.320056915283203,
				-11.815491676330566,
				-1.5514202117919922
			],
			"min":[
				-4,
				-11.873438835144043,
				-3.0684092044830322
			],
			"type":"VEC3"
		},
		{
			"bufferView":26,
			"componentType":5126,
			"count":20,
			"type":"VEC3"
		},
		{
			"bufferView":27,
			"componentType":5126,
			"count":20,
			"type":"VEC2"
		},
		{
			"bufferView":28,
			"componentType":5126,
			"count":20,
			"type":"VEC4"
		},
		{
			"bufferView":29,
			"componentType":5123,
			"count":30,
			"type":"SCALAR"
		},
		{
			"bufferView":30,
			"componentType":5126,
			"count":4,
			"max":[
				-4,
				-11.815491676330566,
				-2.828373908996582
			],
			"min":[
				-4,
				-11.873438835144043,
				-3.0684092044830322
			],
			"type":"VEC3"
		},
		{
			"bufferView":31,
			"componentType":5126,
			"count":4,
			"type":"VEC3"
		},
		{
			"bufferView":32,
			"componentType":5126,
			"count":4,
			"type":"VEC2"
		},
		{
			"bufferView":33,
			"componentType":5126,
			"count":4,
			"type":"VEC4"
		},
		{
			"bufferView":34,
			"componentType":5123,
			"count":6,
			"type":"SCALAR"
		},
		{
			"bufferView":35,
			"componentType":5126,
			"count":24,
			"max":[
				-2.555291175842285,
				-11.5257568359375,
				-1.2636160850524902
			],
			"min":[
				-4,
				-11.583703994750977,
				-2.5883383750915527
			],
			"type":"VEC3"
		},
		{
			"bufferView":36,
			"componentType":5126,
			"count":24,
			"type":"VEC3"
		},
		{
			"bufferView":37,
			"componentType":5126,
			"count":24,
			"type":"VEC2"
		},
		{
			"bufferView":38,
			"componentType":5126,
			"count":24,
			"type":"VEC4"
		},
		{
			"bufferView":39,
			"componentType":5126,
			"count":24,
			"max":[
				-2.790525197982788,
				-11.236021995544434,
				-0.9758119583129883
			],
			"min":[
				-4,
				-11.29396915435791,
				-2.1082677841186523
			],
			"type":"VEC3"
		},
		{
			"bufferView":40,
			"componentType":5126,
			"count":24,
			"type":"VEC3"
		},
		{
			"bufferView":41,
			"componentType":5126,
			"count":24,
			"type":"VEC2"
		},
		{
			"bufferView":42,
			"componentType":5126,
			"count":24,
			"type":"VEC4"
		},
		{
			"bufferView":43,
			"componentType":5126,
			"count":24,
			"max":[
				-3.02575945854187,
				-10.94628620147705,
				-0.6880078315734863
			],
			"min":[
				-4,
				-11.004233360290527,
				-1.6281969547271729
			],
			"type":"VEC3"
		},
		{
			"bufferView":44,
			"componentType":5126,
			"count":24,
			"type":"VEC3"
		},
		{
			"bufferView":45,
			"componentType":5126,
			"count":24,
			"type":"VEC2"
		},
		{
			"bufferView":46,
			"componentType":5126,
			"count":24,
			"type":"VEC4"
		},
		{
			"bufferView":47,
			"componentType":5126,
			"count":20,
			"max":[
				-3.260993719100952,
				-10.656551361083984,
				-0.4002037048339844
			],
			"min":[
				-4,
				-10.714498519897461,
				-1.1481263637542725
			],
			"type":"VEC3"
		},
		{
			"bufferView":48,
			"componentType":5126,
			"count":20,
			"type":"VEC3"
		},
		{
			"bufferView":49,
			"componentType":5126,
			"count":20,
			"type":"VEC2"
		},
		{
			"bufferView":50,
			"componentType":5126,
			"count":20,
			"type":"VEC4"
		},
		{
			"bufferView":51,
			"componentType":5126,
			"count":4,
			"max":[
				-4,
				-10.656551361083984,
				-0.9080908298492432
			],
			"min":[
				-4,
				-10.714498519897461,
				-1.1481263637542725
			],
			"type":"VEC3"
		},
		{
			"bufferView":52,
			"componentType":5126,
			"count":4,
			"type":"VEC3"
		},
		{
			"bufferView":53,
			"componentType":5126,
			"count":4,
			"type":"VEC2"
		},
		{
			"bufferView":54,
			"componentType":5126,
			"count":4,
			"type":"VEC4"
		},
		{
			"bufferView":55,
			"componentType":5126,
			"count":24,
			"max":[
				-3.496227979660034,
				-10.366815567016602,
				-0.11239957809448242
			],
			"min":[
				-4,
				-10.424762725830078,
				-0.668055534362793
			],
			"type":"VEC3"
		},
		{
			"bufferView":56,
			"componentType":5126,
			"count":24,
			"type":"VEC3"
		},
		{
			"bufferView":57,
			"componentType":5126,
			"count":24,
			"type":"VEC2"
		},
		{
			"bufferView":58,
			"componentType":5126,
			"count":24,
			"type":"VEC4"
		}
	],
	"bufferViews":[
		{
			"buffer":0,
			"byteLength":1020,
			"byteOffset":0,
			"target":34962
		},
		{
			"buffer":0,
			"byteLength":1020,
			"byteOffset":1020,
			"target":34962
		},
		{
			"buffer":0,
			"byteLength":680,
			"byteOffset":2040,
			"target":34962
		},
		{
			"buffer":0,
			"byteLength":522,
			"byteOffset":2720,
			"target":34963
		},
		{
			"buffer":0,
			"byteLength":600,
			"byteOffset":3244,
			"target":34962
		},
		{
			"buffer":0,
			"byteLength":600,
			"byteOffset":3844,
			"target":34962
		},
		{
			"buffer":0,
			"byteLength":400,
			"byteOffset":4444,
			"target":34962
		},
		{
			"buffer":0,
			"byteLength":210,
			"byteOffset":4844,
			"target":34963
		},
		{
			"buffer":0,
			"byteLength":936,
			"byteOffset":5056,
			"target":34962
		},
		{
			"buffer":0,
			"byteLength":936,
			"byteOffset":5992,
			"target":34962
		},
		{
			"buffer":0,
			"byteLength":624,
			"byteOffset":6928,
			"target":34962
		},
		{
			"buffer":0,
			"byteLength":336,
			"byteOffset":7552,
			"target":34963
		},
		{
			"buffer":0,
			"byteLength":12804,
			"byteOffset":7888,
			"target":34962
		},
		{
			"buffer":0,
			"byteLength":12804,
			"byteOffset":20692,
			"target":34962
		},
		{
			"buffer":0,
			"byteLength":8536,
			"byteOffset":33496,
			"target":34962
		},
		{
			"buffer":0,
			"byteLength":4200,
			"byteOffset":42032,
			"target":34963
		},
		{
			"buffer":0,
			"byteLength":2220,
			"byteOffset":46232,
			"target":34962
		},
		{
			"buffer":0,
			"byteLength":2220,
			"byteOffset":48452,
			"target":34962
		},
		{
			"buffer":0,
			"byteLength":1480,
			"byteOffset":50672,
			"target":34962
		},
		{
			"buffer":0,
			"byteLength":606,
			"byteOffset":52152,
			"target":34963
		},
		{
			"buffer":0,
			"byteLength":288,
			"byteOffset":52760,
			"target":34962
		},
		{
			"buffer":0,
			"byteLength":288,
			"byteOffset":53048,
			"target":34962
		},
		{
			"buffer":0,
			"byteLength":192,
			"byteOffset":53336,
			"target":34962
		},
		{
			"buffer":0,
			"byteLength":384,
			"byteOffset":53528,
			"target":34962
		},
		{
			"buffer":0,
			"byteLength":72,
			"byteOffset":53912,
			"target":34963
		},
		{
			"buffer":0,
			"byteLength":240,
			"byteOffset":53984,
			"target":34962
		},
		{
			"buffer":0,
			"byteLength":240,
			"byteOffset":54224,
			"target":34962
		},
		{
			"buffer":0,
			"byteLength":160,
			"byteOffset":54464,
			"target":34962
		},
		{
			"buffer":0,
			"byteLength":320,
			"byteOffset":54624,
			"target":34962
		},
		{
			"buffer":0,
			"byteLength":60,
			"byteOffset":54944,
			"target":34963
		},
		{
			"buffer":0,
			"byteLength":48,
			"byteOffset":55004,
			"target":34962
		},
		{
			"buffer":0,
			"byteLength":48,
			"byteOffset":55052,
			"target":34962
		},
		{
			"buffer":0,
			"byteLength":32,
			"byteOffset":55100,
			"target":34962
		},
		{
			"buffer":0,
			"byteLength":64,
			"byteOffset":55132,
			"target":34962
		},
		{
			"buffer":0,
			"byteLength":12,
			"byteOffset":55196,
			"target":34963
		},
		{
			"buffer":0,
			"byteLength":288,
			"byteOffset":55208,
			"target":34962
		},
		{
			"buffer":0,
			"byteLength":288,
			"byteOffset":55496,
			"target":34962
		},
		{
			"buffer":0,
			"byteLength":192,
			"byteOffset":55784,
			"target":34962
		},
		{
			"buffer":0,
			"byteLength":384,
			"byteOffset":55976,
			"target":34962
		},
		{
			"buffer":0,
			"byteLength":288,
			"byteOffset":56360,
			"target":34962
		},
		{
			"buffer":0,
			"byteLength":288,
			"byteOffset":56648,
			"target":34962
		},
		{
			"buffer":0,
			"byteLength":192,
			"byteOffset":56936,
			"target":34962
		},
		{
			"buffer":0,
			"byteLength":384,
			"byteOffset":57128,
			"target":34962
		},
		{
			"buffer":0,
			"byteLength":288,
			"byteOffset":57512,
			"target":34962
		},
		{
			"buffer":0,
			"byteLength":288,
			"byteOffset":57800,
			"target":34962
		},
		{
			"buffer":0,
			"byteLength":192,
			"byteOffset":58088,
			"target":34962
		},
		{
			"buffer":0,
			"byteLength":384,
			"byteOffset":58280,
			"target":34962
		},
		{
			"buffer":0,
			"byteLength":240,
			"byteOffset":58664,
			"target":34962
		},
		{
			"buffer":0,
			"byteLength":240,
			"byteOffset":58904,
			"target":34962
		},
		{
			"buffer":0,
			"byteLength":160,
			"byteOffset":59144,
			"target":34962
		},
		{
			"buffer":0,
			"byteLength":320,
			"byteOffset":59304,
			"target":34962
		},
		{
			"buffer":0,
			"byteLength":48,
			"byteOffset":59624,
			"target":34962
		},
		{
			"buffer":0,
			"byteLength":48,
			"byteOffset":59672,
			"target":34962
		},
		{
			"buffer":0,
			"byteLength":32,
			"byteOffset":59720,
			"target":34962
		},
		{
			"buffer":0,
			"byteLength":64,
			"byteOffset":59752,
			"target":34962
		},
		{
			"buffer":0,
			"byteLength":288,
			"byteOffset":59816,
			"target":34962
		},
		{
			"buffer":0,
			"byteLength":288,
			"byteOffset":60104,
			"target":34962
		},
		{
			"buffer":0,
			"byteLength":192,
			"byteOffset":60392,
			"target":34962
		},
		{
			"buffer":0,
			"byteLength":384,
			"byteOffset":60584,
			"target":34962
		}
	],
	"samplers":[
		{
			"magFilter":9729,
			"minFilter":9987
		}
	],
	"buffers":[
		{
			"byteLength":60968,
			"uri":"tile_6_0_7.bin"
		}
	]
}
