{
	"asset":{
		"generator":"Khronos glTF Blender I/O v4.0.44",
		"version":"2.0"
	},
	"extensionsUsed":[
		"KHR_materials_specular",
		"KHR_materials_ior"
	],
	"scene":0,
	"scenes":[
		{
			"name":"Scene",
			"nodes":[
				0,
				1,
				2,
				3,
				4,
				5
			]
		}
	],
	"nodes":[
		{
			"mesh":0,
			"name":"Plane",
			"scale":[
				7.873531341552734,
				0.9841914176940918,
				7.873531341552734
			]
		},
		{
			"mesh":1,
			"name":"track.089",
			"scale":[
				3.7706682682037354,
				3.7706682682037354,
				3.7706682682037354
			]
		},
		{
			"mesh":2,
			"name":"Cylinder.020"
		},
		{
			"mesh":3,
			"name":"Cylinder.112"
		},
		{
			"mesh":4,
			"name":"Cylinder.113"
		},
		{
			"mesh":5,
			"name":"Cylinder.114"
		}
	],
	"materials":[
		{
			"doubleSided":true,
			"extensions":{
				"KHR_materials_specular":{
					"specularColorFactor":[
						2.0,
						2.0,
						2.0
					]
				},
				"KHR_materials_ior":{
					"ior":1.4500000476837158
				}
			},
			"name":"building",
			"pbrMetallicRoughness":{
				"baseColorTexture":{
					"index":0
				},
				"metallicFactor":0
			}
		}
	],
	"meshes":[
		{
			"name":"Plane.828",
			"primitives":[
				{
					"attributes":{
						"POSITION":0,
						"NORMAL":1,
						"TEXCOORD_0":2
					},
					"indices":3,
					"material":0
				}
			]
		},
		{
			"name":"Plane.829",
			"primitives":[
				{
					"attributes":{
						"POSITION":4,
						"NORMAL":5,
						"TEXCOORD_0":6
					},
					"indices":7,
					"material":0
				}
			]
		},
		{
			"name":"Cylinder.387",
			"primitives":[
				{
					"attributes":{
						"POSITION":8,
						"NORMAL":9,
						"TEXCOORD_0":10
					},
					"indices":11,
					"material":0
				},
				{
					"attributes":{
						"POSITION":12,
						"NORMAL":13,
						"TEXCOORD_0":14
					},
					"indices":15,
					"material":0
				}
			]
		},
		{
			"name":"Cylinder.388",
			"primitives":[
				{
					"attributes":{
						"POSITION":16,
						"NORMAL":17,
						"TEXCOORD_0":18
					},
					"indices":19,
					"material":0
				}
			]
		},
		{
			"name":"Cylinder.389",
			"primitives":[
				{
					"attributes":{
						"POSITION":20,
						"NORMAL":21,
						"TEXCOORD_0":22
					},
					"indices":23,
					"material":0
				}
			]
		},
		{
			"name":"Cylinder.390",
			"primitives":[
				{
					"attributes":{
						"POSITION":24,
						"NORMAL":25,
						"TEXCOORD_0":26,
						"TANGENT":27
					},
					"indices":28,
					"material":0
				}
			]
		}
	],
	"textures":[
		{
			"sampler":0,
			"source":0
		}
	],
	"images":[
		{
			"mimeType":"image/png",
			"name":"AvatarWearables_TX",
			"uri":"tex/AvatarWearables_TX.png"
		}
	],
	"accessors":[
		{
			"bufferView":0,
			"componentType":5126,
			"count":88,
			"max":[
				0.5080313682556152,
				-9.80621337890625,
				0.508030891418457
			],
			"min":[
				-0.5080313682556152,
				-16.256999969482422,
				-0.5080317258834839
			],
			"type":"VEC3"
		},
		{
			"bufferView":1,
			"componentType":5126,
			"count":88,
			"type":"VEC3"
		},
		{
			"bufferView":2,
			"componentType":5126,
			"count":88,
			"type":"VEC2"
		},
		{
			"bufferView":3,
			"componentType":5123,
			"count":273,
			"type":"SCALAR"
		},
		{
			"bufferView":4,
			"componentType":5126,
			"count":67,
			"max":[
				0.6402969360351562,
				-1.3088483810424805,
				-0.5671811103820801
			],
			"min":[
				-1.0608205795288086,
				-2.1726293563842773,
				-1.0608198642730713
			],
			"type":"VEC3"
		},
		{
			"bufferView":5,
			"componentType":5126,
			"count":67,
			"type":"VEC3"
		},
		{
			"bufferView":6,
			"componentType":5126,
			"count":67,
			"type":"VEC2"
		},
		{
			"bufferView":7,
			"componentType":5123,
			"count":135,
			"type":"SCALAR"
		},
		{
			"bufferView":8,
			"componentType":5126,
			"count":145,
			"max":[
				-2.7467145919799805,
				-7.178431510925293,
				2.5454487800598145
			],
			"min":[
				-4,
				-14.568249702453613,
				0.3312591314315796
			],
			"type":"VEC3"
		},
		{
			"bufferView":9,
			"componentType":5126,
			"count":145,
			"type":"VEC3"
		},
		{
			"bufferView":10,
			"componentType":5126,
			"count":145,
			"type":"VEC2"
		},
		{
			"bufferView":11,
			"componentType":5123,
			"count":570,
			"type":"SCALAR"
		},
		{
			"bufferView":12,
			"componentType":5126,
			"count":8,
			"max":[
				-4,
				-12.963342666625977,
				1.2672717571258545
			],
			"min":[
				-4,
				-14.568249702453613,
				0.7351679801940918
			],
			"type":"VEC3"
		},
		{
			"bufferView":13,
			"componentType":5126,
			"count":8,
			"type":"VEC3"
		},
		{
			"bufferView":14,
			"componentType":5126,
			"count":8,
			"type":"VEC2"
		},
		{
			"bufferView":15,
			"componentType":5123,
			"count":18,
			"type":"SCALAR"
		},
		{
			"bufferView":16,
			"componentType":5126,
			"count":70,
			"max":[
				-1.5906237363815308,
				-3.7432689666748047,
				2.9292171001434326
			],
			"min":[
				-4,
				-7.997317314147949,
				-0.8159737586975098
			],
			"type":"VEC3"
		},
		{
			"bufferView":17,
			"componentType":5126,
			"count":70,
			"type":"VEC3"
		},
		{
			"bufferView":18,
			"componentType":5126,
			"count":70,
			"type":"VEC2"
		},
		{
			"bufferView":19,
			"componentType":5123,
			"count":96,
			"type":"SCALAR"
		},
		{
			"bufferView":20,
			"componentType":5126,
			"count":70,
			"max":[
				-3.0861504077911377,
				-9.905960083007812,
				3.359269857406616
			],
			"min":[
				-4,
				-11.530097961425781,
				1.9294060468673706
			],
			"type":"VEC3"
		},
		{
			"bufferView":21,
			"componentType":5126,
			"count":70,
			"type":"VEC3"
		},
		{
			"bufferView":22,
			"componentType":5126,
			"count":70,
			"type":"VEC2"
		},
		{
			"bufferView":23,
			"componentType":5123,
			"count":96,
			"type":"SCALAR"
		},
		{
			"bufferView":24,
			"componentType":5126,
			"count":60,
			"max":[
				-2.3233933448791504,
				-11.919743537902832,
				1.2618401050567627
			],
			"min":[
				-3.0928218364715576,
				-12.788115501403809,
				0.4973409175872803
			],
			"type":"VEC3"
		},
		{
			"bufferView":25,
			"componentType":5126,
			"count":60,
			"type":"VEC3"
		},
		{
			"bufferView":26,
			"componentType":5126,
			"count":60,
			"type":"VEC2"
		},
		{
			"bufferView":27,
			"componentType":5126,
			"count":60,
			"type":"VEC4"
		},
		{
			"bufferView":28,
			"componentType":5123,
			"count":60,
			"type":"SCALAR"
		}
	],
	"bufferViews":[
		{
			"buffer":0,
			"byteLength":1056,
			"byteOffset":0,
			"target":34962
		},
		{
			"buffer":0,
			"byteLength":1056,
			"byteOffset":1056,
			"target":34962
		},
		{
			"buffer":0,
			"byteLength":704,
			"byteOffset":2112,
			"target":34962
		},
		{
			"buffer":0,
			"byteLength":546,
			"byteOffset":2816,
			"target":34963
		},
		{
			"buffer":0,
			"byteLength":804,
			"byteOffset":3364,
			"target":34962
		},
		{
			"buffer":0,
			"byteLength":804,
			"byteOffset":4168,
			"target":34962
		},
		{
			"buffer":0,
			"byteLength":536,
			"byteOffset":4972,
			"target":34962
		},
		{
			"buffer":0,
			"byteLength":270,
			"byteOffset":5508,
			"target":34963
		},
		{
			"buffer":0,
			"byteLength":1740,
			"byteOffset":5780,
			"target":34962
		},
		{
			"buffer":0,
			"byteLength":1740,
			"byteOffset":7520,
			"target":34962
		},
		{
			"buffer":0,
			"byteLength":1160,
			"byteOffset":9260,
			"target":34962
		},
		{
			"buffer":0,
			"byteLength":1140,
			"byteOffset":10420,
			"target":34963
		},
		{
			"buffer":0,
			"byteLength":96,
			"byteOffset":11560,
			"target":34962
		},
		{
			"buffer":0,
			"byteLength":96,
			"byteOffset":11656,
			"target":34962
		},
		{
			"buffer":0,
			"byteLength":64,
			"byteOffset":11752,
			"target":34962
		},
		{
			"buffer":0,
			"byteLength":36,
			"byteOffset":11816,
			"target":34963
		},
		{
			"buffer":0,
			"byteLength":840,
			"byteOffset":11852,
			"target":34962
		},
		{
			"buffer":0,
			"byteLength":840,
			"byteOffset":12692,
			"target":34962
		},
		{
			"buffer":0,
			"byteLength":560,
			"byteOffset":13532,
			"target":34962
		},
		{
			"buffer":0,
			"byteLength":192,
			"byteOffset":14092,
			"target":34963
		},
		{
			"buffer":0,
			"byteLength":840,
			"byteOffset":14284,
			"target":34962
		},
		{
			"buffer":0,
			"byteLength":840,
			"byteOffset":15124,
			"target":34962
		},
		{
			"buffer":0,
			"byteLength":560,
			"byteOffset":15964,
			"target":34962
		},
		{
			"buffer":0,
			"byteLength":192,
			"byteOffset":16524,
			"target":34963
		},
		{
			"buffer":0,
			"byteLength":720,
			"byteOffset":16716,
			"target":34962
		},
		{
			"buffer":0,
			"byteLength":720,
			"byteOffset":17436,
			"target":34962
		},
		{
			"buffer":0,
			"byteLength":480,
			"byteOffset":18156,
			"target":34962
		},
		{
			"buffer":0,
			"byteLength":960,
			"byteOffset":18636,
			"target":34962
		},
		{
			"buffer":0,
			"byteLength":120,
			"byteOffset":19596,
			"target":34963
		}
	],
	"samplers":[
		{
			"magFilter":9729,
			"minFilter":9987
		}
	],
	"buffers":[
		{
			"byteLength":19716,
			"uri":"tile_7_0_4.bin"
		}
	]
}
