{
	"asset":{
		"generator":"Khronos glTF Blender I/O v4.0.44",
		"version":"2.0"
	},
	"extensionsUsed":[
		"KHR_materials_specular",
		"KHR_materials_ior",
		"KHR_materials_emissive_strength"
	],
	"scene":0,
	"scenes":[
		{
			"name":"Scene",
			"nodes":[
				0,
				1,
				2
			]
		}
	],
	"nodes":[
		{
			"mesh":0,
			"name":"Plane",
			"scale":[
				7.873531341552734,
				0.9841914176940918,
				7.873531341552734
			]
		},
		{
			"name":"track.126",
			"scale":[
				3.7706682682037354,
				3.7706682682037354,
				3.7706682682037354
			]
		},
		{
			"mesh":1,
			"name":"Icosphere.001",
			"rotation":[
				0,
				-0.8161246180534363,
				0,
				0.5778759717941284
			],
			"scale":[
				8.599296569824219,
				5.349599838256836,
				8.599296569824219
			]
		}
	],
	"materials":[
		{
			"doubleSided":true,
			"extensions":{
				"KHR_materials_specular":{
					"specularColorFactor":[
						2.0,
						2.0,
						2.0
					]
				},
				"KHR_materials_ior":{
					"ior":1.4500000476837158
				}
			},
			"name":"building",
			"pbrMetallicRoughness":{
				"baseColorTexture":{
					"index":0
				},
				"metallicFactor":0
			}
		},
		{
			"doubleSided":true,
			"extensions":{
				"KHR_materials_specular":{
					"specularColorFactor":[
						2.0,
						2.0,
						2.0
					]
				},
				"KHR_materials_ior":{
					"ior":1.4500000476837158
				}
			},
			"name":"building2",
			"pbrMetallicRoughness":{
				"baseColorTexture":{
					"index":1
				},
				"metallicFactor":0,
				"roughnessFactor":0.17924527823925018
			}
		},
		{
			"doubleSided":true,
			"emissiveFactor":[
				1,
				1,
				1
			],
			"extensions":{
				"KHR_materials_emissive_strength":{
					"emissiveStrength":4
				}
			},
			"name":"Glow2",
			"pbrMetallicRoughness":{
				"baseColorFactor":[
					0.800000011920929,
					0.800000011920929,
					0.800000011920929,
					1
				],
				"metallicFactor":0,
				"roughnessFactor":0.5
			}
		}
	],
	"meshes":[
		{
			"name":"Plane.902",
			"primitives":[
				{
					"attributes":{
						"POSITION":0,
						"NORMAL":1,
						"TEXCOORD_0":2
					},
					"indices":3,
					"material":0
				}
			]
		},
		{
			"name":"Icosphere.042",
			"primitives":[
				{
					"attributes":{
						"POSITION":4,
						"NORMAL":5,
						"TEXCOORD_0":6
					},
					"indices":7,
					"material":1
				},
				{
					"attributes":{
						"POSITION":8,
						"NORMAL":9,
						"TEXCOORD_0":10
					},
					"indices":11,
					"material":2
				},
				{
					"attributes":{
						"POSITION":12,
						"NORMAL":13,
						"TEXCOORD_0":14
					},
					"indices":15,
					"material":2
				}
			]
		}
	],
	"textures":[
		{
			"sampler":0,
			"source":0
		},
		{
			"sampler":0,
			"source":0
		}
	],
	"images":[
		{
			"mimeType":"image/png",
			"name":"AvatarWearables_TX",
			"uri":"tex/AvatarWearables_TX.png"
		}
	],
	"accessors":[
		{
			"bufferView":0,
			"componentType":5126,
			"count":71,
			"max":[
				0.5080312490463257,
				-14.00232982635498,
				0.5080312490463257
			],
			"min":[
				-0.5080313682556152,
				-16.256999969482422,
				-0.5080312490463257
			],
			"type":"VEC3"
		},
		{
			"bufferView":1,
			"componentType":5126,
			"count":71,
			"type":"VEC3"
		},
		{
			"bufferView":2,
			"componentType":5126,
			"count":71,
			"type":"VEC2"
		},
		{
			"bufferView":3,
			"componentType":5123,
			"count":222,
			"type":"SCALAR"
		},
		{
			"bufferView":4,
			"componentType":5126,
			"count":272,
			"max":[
				0.5932374596595764,
				-0.3222227096557617,
				0.5932374596595764
			],
			"min":[
				-0.5932374596595764,
				-2.6594796180725098,
				-0.5932374596595764
			],
			"type":"VEC3"
		},
		{
			"bufferView":5,
			"componentType":5126,
			"count":272,
			"type":"VEC3"
		},
		{
			"bufferView":6,
			"componentType":5126,
			"count":272,
			"type":"VEC2"
		},
		{
			"bufferView":7,
			"componentType":5123,
			"count":543,
			"type":"SCALAR"
		},
		{
			"bufferView":8,
			"componentType":5126,
			"count":46,
			"max":[
				0.5695158839225769,
				-0.40535831451416016,
				0.57827228307724
			],
			"min":[
				-0.4228041172027588,
				-2.6594796180725098,
				-0.5932374596595764
			],
			"type":"VEC3"
		},
		{
			"bufferView":9,
			"componentType":5126,
			"count":46,
			"type":"VEC3"
		},
		{
			"bufferView":10,
			"componentType":5126,
			"count":46,
			"type":"VEC2"
		},
		{
			"bufferView":11,
			"componentType":5123,
			"count":66,
			"type":"SCALAR"
		},
		{
			"bufferView":12,
			"componentType":5126,
			"count":130,
			"max":[
				0.5932374596595764,
				-0.42983460426330566,
				0.5932374596595764
			],
			"min":[
				-0.5932374596595764,
				-2.6594796180725098,
				-0.5932374596595764
			],
			"type":"VEC3"
		},
		{
			"bufferView":13,
			"componentType":5126,
			"count":130,
			"type":"VEC3"
		},
		{
			"bufferView":14,
			"componentType":5126,
			"count":130,
			"type":"VEC2"
		},
		{
			"bufferView":15,
			"componentType":5123,
			"count":372,
			"type":"SCALAR"
		}
	],
	"bufferViews":[
		{
			"buffer":0,
			"byteLength":852,
			"byteOffset":0,
			"target":34962
		},
		{
			"buffer":0,
			"byteLength":852,
			"byteOffset":852,
			"target":34962
		},
		{
			"buffer":0,
			"byteLength":568,
			"byteOffset":1704,
			"target":34962
		},
		{
			"buffer":0,
			"byteLength":444,
			"byteOffset":2272,
			"target":34963
		},
		{
			"buffer":0,
			"byteLength":3264,
			"byteOffset":2716,
			"target":34962
		},
		{
			"buffer":0,
			"byteLength":3264,
			"byteOffset":5980,
			"target":34962
		},
		{
			"buffer":0,
			"byteLength":2176,
			"byteOffset":9244,
			"target":34962
		},
		{
			"buffer":0,
			"byteLength":1086,
			"byteOffset":11420,
			"target":34963
		},
		{
			"buffer":0,
			"byteLength":552,
			"byteOffset":12508,
			"target":34962
		},
		{
			"buffer":0,
			"byteLength":552,
			"byteOffset":13060,
			"target":34962
		},
		{
			"buffer":0,
			"byteLength":368,
			"byteOffset":13612,
			"target":34962
		},
		{
			"buffer":0,
			"byteLength":132,
			"byteOffset":13980,
			"target":34963
		},
		{
			"buffer":0,
			"byteLength":1560,
			"byteOffset":14112,
			"target":34962
		},
		{
			"buffer":0,
			"byteLength":1560,
			"byteOffset":15672,
			"target":34962
		},
		{
			"buffer":0,
			"byteLength":1040,
			"byteOffset":17232,
			"target":34962
		},
		{
			"buffer":0,
			"byteLength":744,
			"byteOffset":18272,
			"target":34963
		}
	],
	"samplers":[
		{
			"magFilter":9729,
			"minFilter":9987
		}
	],
	"buffers":[
		{
			"byteLength":19016,
			"uri":"tile_10_0_5.bin"
		}
	]
}
