{
	"asset":{
		"generator":"Khronos glTF Blender I/O v4.0.44",
		"version":"2.0"
	},
	"extensionsUsed":[
		"KHR_materials_specular",
		"KHR_materials_ior",
		"KHR_materials_emissive_strength"
	],
	"scene":0,
	"scenes":[
		{
			"name":"Scene",
			"nodes":[
				0,
				1,
				2
			]
		}
	],
	"nodes":[
		{
			"mesh":0,
			"name":"Plane",
			"scale":[
				7.873531341552734,
				0.9841914176940918,
				7.873531341552734
			]
		},
		{
			"mesh":1,
			"name":"track.083",
			"scale":[
				3.7706682682037354,
				3.7706682682037354,
				3.7706682682037354
			]
		},
		{
			"mesh":2,
			"name":"Torus.015",
			"rotation":[
				0.6081892251968384,
				0.3607020080089569,
				-0.3607020378112793,
				0.6081892251968384
			],
			"scale":[
				0.9492738246917725,
				0.9492738246917725,
				0.9492737650871277
			]
		}
	],
	"materials":[
		{
			"doubleSided":true,
			"extensions":{
				"KHR_materials_specular":{
					"specularColorFactor":[
						2.0,
						2.0,
						2.0
					]
				},
				"KHR_materials_ior":{
					"ior":1.4500000476837158
				}
			},
			"name":"building",
			"pbrMetallicRoughness":{
				"baseColorTexture":{
					"index":0
				},
				"metallicFactor":0
			}
		},
		{
			"doubleSided":true,
			"emissiveFactor":[
				1,
				0.003797386313042906,
				0
			],
			"extensions":{
				"KHR_materials_emissive_strength":{
					"emissiveStrength":7.991064786911011
				}
			},
			"name":"Glow9",
			"pbrMetallicRoughness":{
				"baseColorFactor":[
					0.8000000715255737,
					0.0031031807884573936,
					0,
					1
				],
				"metallicFactor":0
			}
		},
		{
			"doubleSided":true,
			"emissiveFactor":[
				1,
				1,
				1
			],
			"extensions":{
				"KHR_materials_emissive_strength":{
					"emissiveStrength":4
				}
			},
			"name":"Glow2",
			"pbrMetallicRoughness":{
				"baseColorFactor":[
					0.800000011920929,
					0.800000011920929,
					0.800000011920929,
					1
				],
				"metallicFactor":0,
				"roughnessFactor":0.5
			}
		}
	],
	"meshes":[
		{
			"name":"Plane.816",
			"primitives":[
				{
					"attributes":{
						"POSITION":0,
						"NORMAL":1,
						"TEXCOORD_0":2,
						"TANGENT":3
					},
					"indices":4,
					"material":0
				}
			]
		},
		{
			"name":"Plane.817",
			"primitives":[
				{
					"attributes":{
						"POSITION":5,
						"NORMAL":6,
						"TEXCOORD_0":7
					},
					"indices":8,
					"material":0
				},
				{
					"attributes":{
						"POSITION":9,
						"NORMAL":10,
						"TEXCOORD_0":11
					},
					"indices":12,
					"material":0
				}
			]
		},
		{
			"name":"Torus.068",
			"primitives":[
				{
					"attributes":{
						"POSITION":13,
						"NORMAL":14,
						"TEXCOORD_0":15
					},
					"indices":16,
					"material":0
				},
				{
					"attributes":{
						"POSITION":17,
						"NORMAL":18,
						"TEXCOORD_0":19
					},
					"indices":20,
					"material":1
				},
				{
					"attributes":{
						"POSITION":21,
						"NORMAL":22,
						"TEXCOORD_0":23
					},
					"indices":24,
					"material":2
				},
				{
					"attributes":{
						"POSITION":25,
						"NORMAL":26,
						"TEXCOORD_0":27
					},
					"indices":28,
					"material":2
				}
			]
		}
	],
	"textures":[
		{
			"sampler":0,
			"source":0
		}
	],
	"images":[
		{
			"mimeType":"image/png",
			"name":"AvatarWearables_TX",
			"uri":"tex/AvatarWearables_TX.png"
		}
	],
	"accessors":[
		{
			"bufferView":0,
			"componentType":5126,
			"count":36,
			"max":[
				0.5080313682556152,
				-14.900496482849121,
				0.5080313682556152
			],
			"min":[
				-0.5080313682556152,
				-14.900496482849121,
				-0.5080313682556152
			],
			"type":"VEC3"
		},
		{
			"bufferView":1,
			"componentType":5126,
			"count":36,
			"type":"VEC3"
		},
		{
			"bufferView":2,
			"componentType":5126,
			"count":36,
			"type":"VEC2"
		},
		{
			"bufferView":3,
			"componentType":5126,
			"count":36,
			"type":"VEC4"
		},
		{
			"bufferView":4,
			"componentType":5123,
			"count":150,
			"type":"SCALAR"
		},
		{
			"bufferView":5,
			"componentType":5126,
			"count":85,
			"max":[
				1.0608186721801758,
				-3.5140445232391357,
				1.0608196258544922
			],
			"min":[
				-1.0608205795288086,
				-4.107334613800049,
				-1.0608196258544922
			],
			"type":"VEC3"
		},
		{
			"bufferView":6,
			"componentType":5126,
			"count":85,
			"type":"VEC3"
		},
		{
			"bufferView":7,
			"componentType":5126,
			"count":85,
			"type":"VEC2"
		},
		{
			"bufferView":8,
			"componentType":5123,
			"count":135,
			"type":"SCALAR"
		},
		{
			"bufferView":9,
			"componentType":5126,
			"count":29,
			"max":[
				1.0608186721801758,
				-3.5343375205993652,
				1.0608196258544922
			],
			"min":[
				-1.0608205795288086,
				-4.243279933929443,
				-1.0608196258544922
			],
			"type":"VEC3"
		},
		{
			"bufferView":10,
			"componentType":5126,
			"count":29,
			"type":"VEC3"
		},
		{
			"bufferView":11,
			"componentType":5126,
			"count":29,
			"type":"VEC2"
		},
		{
			"bufferView":12,
			"componentType":5123,
			"count":63,
			"type":"SCALAR"
		},
		{
			"bufferView":13,
			"componentType":5126,
			"count":211,
			"max":[
				-0.7564036846160889,
				5.530721664428711,
				15.108416557312012
			],
			"min":[
				-2.966092824935913,
				3.3592143058776855,
				8.891115188598633
			],
			"type":"VEC3"
		},
		{
			"bufferView":14,
			"componentType":5126,
			"count":211,
			"type":"VEC3"
		},
		{
			"bufferView":15,
			"componentType":5126,
			"count":211,
			"type":"VEC2"
		},
		{
			"bufferView":16,
			"componentType":5123,
			"count":837,
			"type":"SCALAR"
		},
		{
			"bufferView":17,
			"componentType":5126,
			"count":12,
			"max":[
				-0.8101406097412109,
				5.286578178405762,
				11.089517593383789
			],
			"min":[
				-2.3282573223114014,
				4.384841442108154,
				8.891115188598633
			],
			"type":"VEC3"
		},
		{
			"bufferView":18,
			"componentType":5126,
			"count":12,
			"type":"VEC3"
		},
		{
			"bufferView":19,
			"componentType":5126,
			"count":12,
			"type":"VEC2"
		},
		{
			"bufferView":20,
			"componentType":5123,
			"count":30,
			"type":"SCALAR"
		},
		{
			"bufferView":21,
			"componentType":5126,
			"count":18,
			"max":[
				-1.383126139640808,
				5.428828239440918,
				15.108416557312012
			],
			"min":[
				-2.966092824935913,
				3.3592143058776855,
				11.671630859375
			],
			"type":"VEC3"
		},
		{
			"bufferView":22,
			"componentType":5126,
			"count":18,
			"type":"VEC3"
		},
		{
			"bufferView":23,
			"componentType":5126,
			"count":18,
			"type":"VEC2"
		},
		{
			"bufferView":24,
			"componentType":5123,
			"count":48,
			"type":"SCALAR"
		},
		{
			"bufferView":25,
			"componentType":5126,
			"count":103,
			"max":[
				-0.7564036846160889,
				5.530721664428711,
				15.108416557312012
			],
			"min":[
				-2.966092824935913,
				3.359215497970581,
				8.891115188598633
			],
			"type":"VEC3"
		},
		{
			"bufferView":26,
			"componentType":5126,
			"count":103,
			"type":"VEC3"
		},
		{
			"bufferView":27,
			"componentType":5126,
			"count":103,
			"type":"VEC2"
		},
		{
			"bufferView":28,
			"componentType":5123,
			"count":285,
			"type":"SCALAR"
		}
	],
	"bufferViews":[
		{
			"buffer":0,
			"byteLength":432,
			"byteOffset":0,
			"target":34962
		},
		{
			"buffer":0,
			"byteLength":432,
			"byteOffset":432,
			"target":34962
		},
		{
			"buffer":0,
			"byteLength":288,
			"byteOffset":864,
			"target":34962
		},
		{
			"buffer":0,
			"byteLength":576,
			"byteOffset":1152,
			"target":34962
		},
		{
			"buffer":0,
			"byteLength":300,
			"byteOffset":1728,
			"target":34963
		},
		{
			"buffer":0,
			"byteLength":1020,
			"byteOffset":2028,
			"target":34962
		},
		{
			"buffer":0,
			"byteLength":1020,
			"byteOffset":3048,
			"target":34962
		},
		{
			"buffer":0,
			"byteLength":680,
			"byteOffset":4068,
			"target":34962
		},
		{
			"buffer":0,
			"byteLength":270,
			"byteOffset":4748,
			"target":34963
		},
		{
			"buffer":0,
			"byteLength":348,
			"byteOffset":5020,
			"target":34962
		},
		{
			"buffer":0,
			"byteLength":348,
			"byteOffset":5368,
			"target":34962
		},
		{
			"buffer":0,
			"byteLength":232,
			"byteOffset":5716,
			"target":34962
		},
		{
			"buffer":0,
			"byteLength":126,
			"byteOffset":5948,
			"target":34963
		},
		{
			"buffer":0,
			"byteLength":2532,
			"byteOffset":6076,
			"target":34962
		},
		{
			"buffer":0,
			"byteLength":2532,
			"byteOffset":8608,
			"target":34962
		},
		{
			"buffer":0,
			"byteLength":1688,
			"byteOffset":11140,
			"target":34962
		},
		{
			"buffer":0,
			"byteLength":1674,
			"byteOffset":12828,
			"target":34963
		},
		{
			"buffer":0,
			"byteLength":144,
			"byteOffset":14504,
			"target":34962
		},
		{
			"buffer":0,
			"byteLength":144,
			"byteOffset":14648,
			"target":34962
		},
		{
			"buffer":0,
			"byteLength":96,
			"byteOffset":14792,
			"target":34962
		},
		{
			"buffer":0,
			"byteLength":60,
			"byteOffset":14888,
			"target":34963
		},
		{
			"buffer":0,
			"byteLength":216,
			"byteOffset":14948,
			"target":34962
		},
		{
			"buffer":0,
			"byteLength":216,
			"byteOffset":15164,
			"target":34962
		},
		{
			"buffer":0,
			"byteLength":144,
			"byteOffset":15380,
			"target":34962
		},
		{
			"buffer":0,
			"byteLength":96,
			"byteOffset":15524,
			"target":34963
		},
		{
			"buffer":0,
			"byteLength":1236,
			"byteOffset":15620,
			"target":34962
		},
		{
			"buffer":0,
			"byteLength":1236,
			"byteOffset":16856,
			"target":34962
		},
		{
			"buffer":0,
			"byteLength":824,
			"byteOffset":18092,
			"target":34962
		},
		{
			"buffer":0,
			"byteLength":570,
			"byteOffset":18916,
			"target":34963
		}
	],
	"samplers":[
		{
			"magFilter":9729,
			"minFilter":9987
		}
	],
	"buffers":[
		{
			"byteLength":19488,
			"uri":"tile_6_0_10.bin"
		}
	]
}
