{
	"asset":{
		"generator":"Khronos glTF Blender I/O v4.0.44",
		"version":"2.0"
	},
	"extensionsUsed":[
		"KHR_materials_specular",
		"KHR_materials_ior"
	],
	"scene":0,
	"scenes":[
		{
			"name":"Scene",
			"nodes":[
				0,
				1,
				2
			]
		}
	],
	"nodes":[
		{
			"mesh":0,
			"name":"Plane",
			"scale":[
				7.873531341552734,
				0.9841914176940918,
				7.873531341552734
			]
		},
		{
			"mesh":1,
			"name":"Plane.001",
			"scale":[
				3.7706682682037354,
				3.7706682682037354,
				3.7706682682037354
			]
		},
		{
			"mesh":2,
			"name":"Cylinder.012",
			"rotation":[
				0,
				0.35918113589286804,
				0,
				0.9332678914070129
			],
			"scale":[
				0.8490382432937622,
				4.7027692794799805,
				0.8490382432937622
			]
		}
	],
	"materials":[
		{
			"doubleSided":true,
			"extensions":{
				"KHR_materials_specular":{
					"specularColorFactor":[
						2.0,
						2.0,
						2.0
					]
				},
				"KHR_materials_ior":{
					"ior":1.4500000476837158
				}
			},
			"name":"building",
			"pbrMetallicRoughness":{
				"baseColorTexture":{
					"index":0
				},
				"metallicFactor":0
			}
		}
	],
	"meshes":[
		{
			"name":"Plane.146",
			"primitives":[
				{
					"attributes":{
						"POSITION":0,
						"NORMAL":1,
						"TEXCOORD_0":2
					},
					"indices":3,
					"material":0
				},
				{
					"attributes":{
						"POSITION":4,
						"NORMAL":5,
						"TEXCOORD_0":6
					},
					"indices":7,
					"material":0
				}
			]
		},
		{
			"name":"Plane.147",
			"primitives":[
				{
					"attributes":{
						"POSITION":8,
						"NORMAL":9,
						"TEXCOORD_0":10
					},
					"indices":11,
					"material":0
				},
				{
					"attributes":{
						"POSITION":12,
						"NORMAL":13,
						"TEXCOORD_0":14
					},
					"indices":15,
					"material":0
				}
			]
		},
		{
			"name":"Cylinder.052",
			"primitives":[
				{
					"attributes":{
						"POSITION":16,
						"NORMAL":17,
						"TEXCOORD_0":18,
						"TANGENT":19
					},
					"indices":20,
					"material":0
				}
			]
		}
	],
	"textures":[
		{
			"sampler":0,
			"source":0
		}
	],
	"images":[
		{
			"mimeType":"image/png",
			"name":"AvatarWearables_TX",
			"uri":"tex/AvatarWearables_TX.png"
		}
	],
	"accessors":[
		{
			"bufferView":0,
			"componentType":5126,
			"count":141,
			"max":[
				1.0160646438598633,
				-0.5735535621643066,
				0.9180951118469238
			],
			"min":[
				-1.0160608291625977,
				-6.77199649810791,
				-1.0160627365112305
			],
			"type":"VEC3"
		},
		{
			"bufferView":1,
			"componentType":5126,
			"count":141,
			"type":"VEC3"
		},
		{
			"bufferView":2,
			"componentType":5126,
			"count":141,
			"type":"VEC2"
		},
		{
			"bufferView":3,
			"componentType":5123,
			"count":573,
			"type":"SCALAR"
		},
		{
			"bufferView":4,
			"componentType":5126,
			"count":29,
			"max":[
				1.0160646438598633,
				-0.5735535621643066,
				0.9180951118469238
			],
			"min":[
				-1.0160608291625977,
				-8.128499984741211,
				-1.0160627365112305
			],
			"type":"VEC3"
		},
		{
			"bufferView":5,
			"componentType":5126,
			"count":29,
			"type":"VEC3"
		},
		{
			"bufferView":6,
			"componentType":5126,
			"count":29,
			"type":"VEC2"
		},
		{
			"bufferView":7,
			"componentType":5123,
			"count":60,
			"type":"SCALAR"
		},
		{
			"bufferView":8,
			"componentType":5126,
			"count":39,
			"max":[
				2.1216392517089844,
				-1.4209768772125244,
				-0.49369144439697266
			],
			"min":[
				0.523015022277832,
				-1.9857006072998047,
				-2.1216392517089844
			],
			"type":"VEC3"
		},
		{
			"bufferView":9,
			"componentType":5126,
			"count":39,
			"type":"VEC3"
		},
		{
			"bufferView":10,
			"componentType":5126,
			"count":39,
			"type":"VEC2"
		},
		{
			"bufferView":11,
			"componentType":5123,
			"count":57,
			"type":"SCALAR"
		},
		{
			"bufferView":12,
			"componentType":5126,
			"count":15,
			"max":[
				2.1216392517089844,
				-1.4209768772125244,
				-0.49369144439697266
			],
			"min":[
				0.523015022277832,
				-2.1216399669647217,
				-2.1216392517089844
			],
			"type":"VEC3"
		},
		{
			"bufferView":13,
			"componentType":5126,
			"count":15,
			"type":"VEC3"
		},
		{
			"bufferView":14,
			"componentType":5126,
			"count":15,
			"type":"VEC2"
		},
		{
			"bufferView":15,
			"componentType":5123,
			"count":33,
			"type":"SCALAR"
		},
		{
			"bufferView":16,
			"componentType":5126,
			"count":120,
			"max":[
				8.654212951660156,
				-0.12925446033477783,
				3.6120693683624268
			],
			"min":[
				3.964111089706421,
				-0.9092885255813599,
				1.2542872428894043
			],
			"type":"VEC3"
		},
		{
			"bufferView":17,
			"componentType":5126,
			"count":120,
			"type":"VEC3"
		},
		{
			"bufferView":18,
			"componentType":5126,
			"count":120,
			"type":"VEC2"
		},
		{
			"bufferView":19,
			"componentType":5126,
			"count":120,
			"type":"VEC4"
		},
		{
			"bufferView":20,
			"componentType":5123,
			"count":120,
			"type":"SCALAR"
		}
	],
	"bufferViews":[
		{
			"buffer":0,
			"byteLength":1692,
			"byteOffset":0,
			"target":34962
		},
		{
			"buffer":0,
			"byteLength":1692,
			"byteOffset":1692,
			"target":34962
		},
		{
			"buffer":0,
			"byteLength":1128,
			"byteOffset":3384,
			"target":34962
		},
		{
			"buffer":0,
			"byteLength":1146,
			"byteOffset":4512,
			"target":34963
		},
		{
			"buffer":0,
			"byteLength":348,
			"byteOffset":5660,
			"target":34962
		},
		{
			"buffer":0,
			"byteLength":348,
			"byteOffset":6008,
			"target":34962
		},
		{
			"buffer":0,
			"byteLength":232,
			"byteOffset":6356,
			"target":34962
		},
		{
			"buffer":0,
			"byteLength":120,
			"byteOffset":6588,
			"target":34963
		},
		{
			"buffer":0,
			"byteLength":468,
			"byteOffset":6708,
			"target":34962
		},
		{
			"buffer":0,
			"byteLength":468,
			"byteOffset":7176,
			"target":34962
		},
		{
			"buffer":0,
			"byteLength":312,
			"byteOffset":7644,
			"target":34962
		},
		{
			"buffer":0,
			"byteLength":114,
			"byteOffset":7956,
			"target":34963
		},
		{
			"buffer":0,
			"byteLength":180,
			"byteOffset":8072,
			"target":34962
		},
		{
			"buffer":0,
			"byteLength":180,
			"byteOffset":8252,
			"target":34962
		},
		{
			"buffer":0,
			"byteLength":120,
			"byteOffset":8432,
			"target":34962
		},
		{
			"buffer":0,
			"byteLength":66,
			"byteOffset":8552,
			"target":34963
		},
		{
			"buffer":0,
			"byteLength":1440,
			"byteOffset":8620,
			"target":34962
		},
		{
			"buffer":0,
			"byteLength":1440,
			"byteOffset":10060,
			"target":34962
		},
		{
			"buffer":0,
			"byteLength":960,
			"byteOffset":11500,
			"target":34962
		},
		{
			"buffer":0,
			"byteLength":1920,
			"byteOffset":12460,
			"target":34962
		},
		{
			"buffer":0,
			"byteLength":240,
			"byteOffset":14380,
			"target":34963
		}
	],
	"samplers":[
		{
			"magFilter":9729,
			"minFilter":9987
		}
	],
	"buffers":[
		{
			"byteLength":14620,
			"uri":"tile_8_1_0.bin"
		}
	]
}
