{
	"asset":{
		"generator":"Khronos glTF Blender I/O v4.0.44",
		"version":"2.0"
	},
	"extensionsUsed":[
		"KHR_materials_specular",
		"KHR_materials_ior",
		"KHR_materials_emissive_strength"
	],
	"scene":0,
	"scenes":[
		{
			"name":"Scene",
			"nodes":[
				0,
				1,
				2
			]
		}
	],
	"nodes":[
		{
			"mesh":0,
			"name":"Plane",
			"scale":[
				7.873531341552734,
				0.9841914176940918,
				7.873531341552734
			]
		},
		{
			"mesh":1,
			"name":"Plane.001",
			"scale":[
				3.7706682682037354,
				3.7706682682037354,
				3.7706682682037354
			]
		},
		{
			"mesh":2,
			"name":"Torus.021",
			"rotation":[
				0.7071069478988647,
				0,
				0,
				0.7071066498756409
			],
			"scale":[
				0.9492737650871277,
				0.949273943901062,
				0.949273943901062
			]
		}
	],
	"materials":[
		{
			"doubleSided":true,
			"extensions":{
				"KHR_materials_specular":{
					"specularColorFactor":[
						2.0,
						2.0,
						2.0
					]
				},
				"KHR_materials_ior":{
					"ior":1.4500000476837158
				}
			},
			"name":"building",
			"pbrMetallicRoughness":{
				"baseColorTexture":{
					"index":0
				},
				"metallicFactor":0
			}
		},
		{
			"doubleSided":true,
			"emissiveFactor":[
				1,
				0.003797386313042906,
				0
			],
			"extensions":{
				"KHR_materials_emissive_strength":{
					"emissiveStrength":7.991064786911011
				}
			},
			"name":"Glow9",
			"pbrMetallicRoughness":{
				"baseColorFactor":[
					0.8000000715255737,
					0.0031031807884573936,
					0,
					1
				],
				"metallicFactor":0
			}
		},
		{
			"doubleSided":true,
			"emissiveFactor":[
				1,
				1,
				1
			],
			"extensions":{
				"KHR_materials_emissive_strength":{
					"emissiveStrength":4
				}
			},
			"name":"Glow2",
			"pbrMetallicRoughness":{
				"baseColorFactor":[
					0.800000011920929,
					0.800000011920929,
					0.800000011920929,
					1
				],
				"metallicFactor":0,
				"roughnessFactor":0.5
			}
		}
	],
	"meshes":[
		{
			"name":"Plane.191",
			"primitives":[
				{
					"attributes":{
						"POSITION":0,
						"NORMAL":1,
						"TEXCOORD_0":2
					},
					"indices":3,
					"material":0
				}
			]
		},
		{
			"name":"Plane.192",
			"primitives":[
				{
					"attributes":{
						"POSITION":4,
						"NORMAL":5,
						"TEXCOORD_0":6
					},
					"indices":7,
					"material":0
				}
			]
		},
		{
			"name":"Torus.026",
			"primitives":[
				{
					"attributes":{
						"POSITION":8,
						"NORMAL":9,
						"TEXCOORD_0":10,
						"TANGENT":11
					},
					"indices":12,
					"material":0
				},
				{
					"attributes":{
						"POSITION":13,
						"NORMAL":14,
						"TEXCOORD_0":15,
						"TANGENT":16
					},
					"indices":17,
					"material":1
				},
				{
					"attributes":{
						"POSITION":18,
						"NORMAL":19,
						"TEXCOORD_0":20,
						"TANGENT":21
					},
					"indices":22,
					"material":2
				}
			]
		}
	],
	"textures":[
		{
			"sampler":0,
			"source":0
		}
	],
	"images":[
		{
			"mimeType":"image/png",
			"name":"AvatarWearables_TX",
			"uri":"tex/AvatarWearables_TX.png"
		}
	],
	"accessors":[
		{
			"bufferView":0,
			"componentType":5126,
			"count":137,
			"max":[
				1.0160627365112305,
				-4.367069244384766,
				1.0160620212554932
			],
			"min":[
				-1.0160627365112305,
				-8.128499984741211,
				-1.0160629749298096
			],
			"type":"VEC3"
		},
		{
			"bufferView":1,
			"componentType":5126,
			"count":137,
			"type":"VEC3"
		},
		{
			"bufferView":2,
			"componentType":5126,
			"count":137,
			"type":"VEC2"
		},
		{
			"bufferView":3,
			"componentType":5123,
			"count":600,
			"type":"SCALAR"
		},
		{
			"bufferView":4,
			"componentType":5126,
			"count":85,
			"max":[
				2.1216392517089844,
				-1.4242095947265625,
				2.121640682220459
			],
			"min":[
				1.1556739807128906,
				-2.1216399669647217,
				-2.121638774871826
			],
			"type":"VEC3"
		},
		{
			"bufferView":5,
			"componentType":5126,
			"count":85,
			"type":"VEC3"
		},
		{
			"bufferView":6,
			"componentType":5126,
			"count":85,
			"type":"VEC2"
		},
		{
			"bufferView":7,
			"componentType":5123,
			"count":147,
			"type":"SCALAR"
		},
		{
			"bufferView":8,
			"componentType":5126,
			"count":991,
			"max":[
				5.74790096282959,
				3.598989725112915,
				7.074267387390137
			],
			"min":[
				0.9701223373413086,
				-1.1787874698638916,
				-1.3418941497802734
			],
			"type":"VEC3"
		},
		{
			"bufferView":9,
			"componentType":5126,
			"count":991,
			"type":"VEC3"
		},
		{
			"bufferView":10,
			"componentType":5126,
			"count":991,
			"type":"VEC2"
		},
		{
			"bufferView":11,
			"componentType":5126,
			"count":991,
			"type":"VEC4"
		},
		{
			"bufferView":12,
			"componentType":5123,
			"count":4692,
			"type":"SCALAR"
		},
		{
			"bufferView":13,
			"componentType":5126,
			"count":66,
			"max":[
				5.727919578552246,
				2.8611011505126953,
				7.0338921546936035
			],
			"min":[
				0.9738073348999023,
				-0.2762949466705322,
				-0.30861377716064453
			],
			"type":"VEC3"
		},
		{
			"bufferView":14,
			"componentType":5126,
			"count":66,
			"type":"VEC3"
		},
		{
			"bufferView":15,
			"componentType":5126,
			"count":66,
			"type":"VEC2"
		},
		{
			"bufferView":16,
			"componentType":5126,
			"count":66,
			"type":"VEC4"
		},
		{
			"bufferView":17,
			"componentType":5123,
			"count":192,
			"type":"SCALAR"
		},
		{
			"bufferView":18,
			"componentType":5126,
			"count":100,
			"max":[
				5.002226829528809,
				3.598989725112915,
				7.074267387390137
			],
			"min":[
				1.7774420976638794,
				-1.1787874698638916,
				-1.1228580474853516
			],
			"type":"VEC3"
		},
		{
			"bufferView":19,
			"componentType":5126,
			"count":100,
			"type":"VEC3"
		},
		{
			"bufferView":20,
			"componentType":5126,
			"count":100,
			"type":"VEC2"
		},
		{
			"bufferView":21,
			"componentType":5126,
			"count":100,
			"type":"VEC4"
		},
		{
			"bufferView":22,
			"componentType":5123,
			"count":288,
			"type":"SCALAR"
		}
	],
	"bufferViews":[
		{
			"buffer":0,
			"byteLength":1644,
			"byteOffset":0,
			"target":34962
		},
		{
			"buffer":0,
			"byteLength":1644,
			"byteOffset":1644,
			"target":34962
		},
		{
			"buffer":0,
			"byteLength":1096,
			"byteOffset":3288,
			"target":34962
		},
		{
			"buffer":0,
			"byteLength":1200,
			"byteOffset":4384,
			"target":34963
		},
		{
			"buffer":0,
			"byteLength":1020,
			"byteOffset":5584,
			"target":34962
		},
		{
			"buffer":0,
			"byteLength":1020,
			"byteOffset":6604,
			"target":34962
		},
		{
			"buffer":0,
			"byteLength":680,
			"byteOffset":7624,
			"target":34962
		},
		{
			"buffer":0,
			"byteLength":294,
			"byteOffset":8304,
			"target":34963
		},
		{
			"buffer":0,
			"byteLength":11892,
			"byteOffset":8600,
			"target":34962
		},
		{
			"buffer":0,
			"byteLength":11892,
			"byteOffset":20492,
			"target":34962
		},
		{
			"buffer":0,
			"byteLength":7928,
			"byteOffset":32384,
			"target":34962
		},
		{
			"buffer":0,
			"byteLength":15856,
			"byteOffset":40312,
			"target":34962
		},
		{
			"buffer":0,
			"byteLength":9384,
			"byteOffset":56168,
			"target":34963
		},
		{
			"buffer":0,
			"byteLength":792,
			"byteOffset":65552,
			"target":34962
		},
		{
			"buffer":0,
			"byteLength":792,
			"byteOffset":66344,
			"target":34962
		},
		{
			"buffer":0,
			"byteLength":528,
			"byteOffset":67136,
			"target":34962
		},
		{
			"buffer":0,
			"byteLength":1056,
			"byteOffset":67664,
			"target":34962
		},
		{
			"buffer":0,
			"byteLength":384,
			"byteOffset":68720,
			"target":34963
		},
		{
			"buffer":0,
			"byteLength":1200,
			"byteOffset":69104,
			"target":34962
		},
		{
			"buffer":0,
			"byteLength":1200,
			"byteOffset":70304,
			"target":34962
		},
		{
			"buffer":0,
			"byteLength":800,
			"byteOffset":71504,
			"target":34962
		},
		{
			"buffer":0,
			"byteLength":1600,
			"byteOffset":72304,
			"target":34962
		},
		{
			"buffer":0,
			"byteLength":576,
			"byteOffset":73904,
			"target":34963
		}
	],
	"samplers":[
		{
			"magFilter":9729,
			"minFilter":9987
		}
	],
	"buffers":[
		{
			"byteLength":74480,
			"uri":"tile_10_1_3.bin"
		}
	]
}
