{
	"asset":{
		"generator":"Khronos glTF Blender I/O v4.0.44",
		"version":"2.0"
	},
	"extensionsUsed":[
		"KHR_materials_specular",
		"KHR_materials_ior",
		"KHR_materials_emissive_strength"
	],
	"scene":0,
	"scenes":[
		{
			"name":"Scene",
			"nodes":[
				0,
				1,
				2
			]
		}
	],
	"nodes":[
		{
			"mesh":0,
			"name":"Plane",
			"scale":[
				7.873531341552734,
				0.9841914176940918,
				7.873531341552734
			]
		},
		{
			"mesh":1,
			"name":"Plane.001",
			"scale":[
				3.7706682682037354,
				3.7706682682037354,
				3.7706682682037354
			]
		},
		{
			"mesh":2,
			"name":"Cylinder.004",
			"scale":[
				1.0180153846740723,
				6.981534957885742,
				1.0180153846740723
			]
		}
	],
	"materials":[
		{
			"doubleSided":true,
			"extensions":{
				"KHR_materials_specular":{
					"specularColorFactor":[
						2.0,
						2.0,
						2.0
					]
				},
				"KHR_materials_ior":{
					"ior":1.4500000476837158
				}
			},
			"name":"building",
			"pbrMetallicRoughness":{
				"baseColorTexture":{
					"index":0
				},
				"metallicFactor":0
			}
		},
		{
			"doubleSided":true,
			"extensions":{
				"KHR_materials_specular":{
					"specularColorFactor":[
						2.0,
						2.0,
						2.0
					]
				},
				"KHR_materials_ior":{
					"ior":1.4500000476837158
				}
			},
			"name":"building2",
			"pbrMetallicRoughness":{
				"baseColorTexture":{
					"index":1
				},
				"metallicFactor":0,
				"roughnessFactor":0.17924527823925018
			}
		},
		{
			"doubleSided":true,
			"emissiveFactor":[
				0.7991064786911011,
				0.15292732417583466,
				0.6038312911987305
			],
			"name":"Glow3",
			"pbrMetallicRoughness":{
				"baseColorFactor":[
					0.8004003763198853,
					0.1514851152896881,
					0.604170024394989,
					1
				],
				"metallicFactor":0,
				"roughnessFactor":0.5
			}
		},
		{
			"doubleSided":true,
			"emissiveFactor":[
				1,
				0.2655798013274177,
				0.04142626284219435
			],
			"extensions":{
				"KHR_materials_emissive_strength":{
					"emissiveStrength":1.5982129573822021
				}
			},
			"name":"Glow1",
			"pbrMetallicRoughness":{
				"baseColorFactor":[
					0.8008996248245239,
					0.21048900485038757,
					0.033567022532224655,
					1
				],
				"metallicFactor":0
			}
		}
	],
	"meshes":[
		{
			"name":"Plane.125",
			"primitives":[
				{
					"attributes":{
						"POSITION":0,
						"NORMAL":1,
						"TEXCOORD_0":2
					},
					"indices":3,
					"material":0
				}
			]
		},
		{
			"name":"Plane.126",
			"primitives":[
				{
					"attributes":{
						"POSITION":4,
						"NORMAL":5,
						"TEXCOORD_0":6
					},
					"indices":7,
					"material":0
				},
				{
					"attributes":{
						"POSITION":8,
						"NORMAL":9,
						"TEXCOORD_0":10
					},
					"indices":11,
					"material":0
				}
			]
		},
		{
			"name":"Cylinder.047",
			"primitives":[
				{
					"attributes":{
						"POSITION":12,
						"NORMAL":13,
						"TEXCOORD_0":14,
						"TANGENT":15
					},
					"indices":16,
					"material":1
				},
				{
					"attributes":{
						"POSITION":17,
						"NORMAL":18,
						"TEXCOORD_0":19,
						"TANGENT":20
					},
					"indices":21,
					"material":2
				},
				{
					"attributes":{
						"POSITION":22,
						"NORMAL":23,
						"TEXCOORD_0":24,
						"TANGENT":25
					},
					"indices":26,
					"material":3
				}
			]
		}
	],
	"textures":[
		{
			"sampler":0,
			"source":0
		},
		{
			"sampler":0,
			"source":0
		}
	],
	"images":[
		{
			"mimeType":"image/png",
			"name":"AvatarWearables_TX",
			"uri":"tex/AvatarWearables_TX.png"
		}
	],
	"accessors":[
		{
			"bufferView":0,
			"componentType":5126,
			"count":153,
			"max":[
				1.0160624980926514,
				-6.4392781257629395,
				1.0160622596740723
			],
			"min":[
				-1.0160624980926514,
				-6.77199649810791,
				-0.9212799072265625
			],
			"type":"VEC3"
		},
		{
			"bufferView":1,
			"componentType":5126,
			"count":153,
			"type":"VEC3"
		},
		{
			"bufferView":2,
			"componentType":5126,
			"count":153,
			"type":"VEC2"
		},
		{
			"bufferView":3,
			"componentType":5123,
			"count":615,
			"type":"SCALAR"
		},
		{
			"bufferView":4,
			"componentType":5126,
			"count":61,
			"max":[
				2.1216378211975098,
				-1.4235241413116455,
				2.121640205383301
			],
			"min":[
				-2.1216416358947754,
				-1.985696792602539,
				0.6535558700561523
			],
			"type":"VEC3"
		},
		{
			"bufferView":5,
			"componentType":5126,
			"count":61,
			"type":"VEC3"
		},
		{
			"bufferView":6,
			"componentType":5126,
			"count":61,
			"type":"VEC2"
		},
		{
			"bufferView":7,
			"componentType":5123,
			"count":93,
			"type":"SCALAR"
		},
		{
			"bufferView":8,
			"componentType":5126,
			"count":20,
			"max":[
				2.1216378211975098,
				-1.4235241413116455,
				2.121640205383301
			],
			"min":[
				-2.1216416358947754,
				-2.1216399669647217,
				0.6535558700561523
			],
			"type":"VEC3"
		},
		{
			"bufferView":9,
			"componentType":5126,
			"count":20,
			"type":"VEC3"
		},
		{
			"bufferView":10,
			"componentType":5126,
			"count":20,
			"type":"VEC2"
		},
		{
			"bufferView":11,
			"componentType":5123,
			"count":42,
			"type":"SCALAR"
		},
		{
			"bufferView":12,
			"componentType":5126,
			"count":2438,
			"max":[
				-1.127668857574463,
				0.9790038466453552,
				1.8615214824676514
			],
			"min":[
				-7.133281707763672,
				-0.9584959745407104,
				-0.1384795904159546
			],
			"type":"VEC3"
		},
		{
			"bufferView":13,
			"componentType":5126,
			"count":2438,
			"type":"VEC3"
		},
		{
			"bufferView":14,
			"componentType":5126,
			"count":2438,
			"type":"VEC2"
		},
		{
			"bufferView":15,
			"componentType":5126,
			"count":2438,
			"type":"VEC4"
		},
		{
			"bufferView":16,
			"componentType":5123,
			"count":9000,
			"type":"SCALAR"
		},
		{
			"bufferView":17,
			"componentType":5126,
			"count":476,
			"max":[
				-1.20426607131958,
				0.788555920124054,
				1.7836010456085205
			],
			"min":[
				-7.045803070068359,
				-0.7678550481796265,
				-0.05232018232345581
			],
			"type":"VEC3"
		},
		{
			"bufferView":18,
			"componentType":5126,
			"count":476,
			"type":"VEC3"
		},
		{
			"bufferView":19,
			"componentType":5126,
			"count":476,
			"type":"VEC2"
		},
		{
			"bufferView":20,
			"componentType":5126,
			"count":476,
			"type":"VEC4"
		},
		{
			"bufferView":21,
			"componentType":5123,
			"count":1344,
			"type":"SCALAR"
		},
		{
			"bufferView":22,
			"componentType":5126,
			"count":782,
			"max":[
				-1.4136872291564941,
				0.9139713644981384,
				1.1229913234710693
			],
			"min":[
				-6.836384296417236,
				-0.8926084041595459,
				0.6083455085754395
			],
			"type":"VEC3"
		},
		{
			"bufferView":23,
			"componentType":5126,
			"count":782,
			"type":"VEC3"
		},
		{
			"bufferView":24,
			"componentType":5126,
			"count":782,
			"type":"VEC2"
		},
		{
			"bufferView":25,
			"componentType":5126,
			"count":782,
			"type":"VEC4"
		},
		{
			"bufferView":26,
			"componentType":5123,
			"count":1536,
			"type":"SCALAR"
		}
	],
	"bufferViews":[
		{
			"buffer":0,
			"byteLength":1836,
			"byteOffset":0,
			"target":34962
		},
		{
			"buffer":0,
			"byteLength":1836,
			"byteOffset":1836,
			"target":34962
		},
		{
			"buffer":0,
			"byteLength":1224,
			"byteOffset":3672,
			"target":34962
		},
		{
			"buffer":0,
			"byteLength":1230,
			"byteOffset":4896,
			"target":34963
		},
		{
			"buffer":0,
			"byteLength":732,
			"byteOffset":6128,
			"target":34962
		},
		{
			"buffer":0,
			"byteLength":732,
			"byteOffset":6860,
			"target":34962
		},
		{
			"buffer":0,
			"byteLength":488,
			"byteOffset":7592,
			"target":34962
		},
		{
			"buffer":0,
			"byteLength":186,
			"byteOffset":8080,
			"target":34963
		},
		{
			"buffer":0,
			"byteLength":240,
			"byteOffset":8268,
			"target":34962
		},
		{
			"buffer":0,
			"byteLength":240,
			"byteOffset":8508,
			"target":34962
		},
		{
			"buffer":0,
			"byteLength":160,
			"byteOffset":8748,
			"target":34962
		},
		{
			"buffer":0,
			"byteLength":84,
			"byteOffset":8908,
			"target":34963
		},
		{
			"buffer":0,
			"byteLength":29256,
			"byteOffset":8992,
			"target":34962
		},
		{
			"buffer":0,
			"byteLength":29256,
			"byteOffset":38248,
			"target":34962
		},
		{
			"buffer":0,
			"byteLength":19504,
			"byteOffset":67504,
			"target":34962
		},
		{
			"buffer":0,
			"byteLength":39008,
			"byteOffset":87008,
			"target":34962
		},
		{
			"buffer":0,
			"byteLength":18000,
			"byteOffset":126016,
			"target":34963
		},
		{
			"buffer":0,
			"byteLength":5712,
			"byteOffset":144016,
			"target":34962
		},
		{
			"buffer":0,
			"byteLength":5712,
			"byteOffset":149728,
			"target":34962
		},
		{
			"buffer":0,
			"byteLength":3808,
			"byteOffset":155440,
			"target":34962
		},
		{
			"buffer":0,
			"byteLength":7616,
			"byteOffset":159248,
			"target":34962
		},
		{
			"buffer":0,
			"byteLength":2688,
			"byteOffset":166864,
			"target":34963
		},
		{
			"buffer":0,
			"byteLength":9384,
			"byteOffset":169552,
			"target":34962
		},
		{
			"buffer":0,
			"byteLength":9384,
			"byteOffset":178936,
			"target":34962
		},
		{
			"buffer":0,
			"byteLength":6256,
			"byteOffset":188320,
			"target":34962
		},
		{
			"buffer":0,
			"byteLength":12512,
			"byteOffset":194576,
			"target":34962
		},
		{
			"buffer":0,
			"byteLength":3072,
			"byteOffset":207088,
			"target":34963
		}
	],
	"samplers":[
		{
			"magFilter":9729,
			"minFilter":9987
		}
	],
	"buffers":[
		{
			"byteLength":210160,
			"uri":"tile_6_1_5.bin"
		}
	]
}
