{
	"asset":{
		"generator":"Khronos glTF Blender I/O v4.0.44",
		"version":"2.0"
	},
	"extensionsUsed":[
		"KHR_materials_specular",
		"KHR_materials_ior",
		"KHR_materials_emissive_strength"
	],
	"scene":0,
	"scenes":[
		{
			"name":"Scene",
			"nodes":[
				0,
				1,
				2,
				3
			]
		}
	],
	"nodes":[
		{
			"mesh":0,
			"name":"Plane",
			"scale":[
				7.873531341552734,
				0.9841914176940918,
				7.873531341552734
			]
		},
		{
			"mesh":1,
			"name":"Plane.001",
			"scale":[
				3.7706682682037354,
				3.7706682682037354,
				3.7706682682037354
			]
		},
		{
			"mesh":2,
			"name":"Cylinder.004",
			"scale":[
				1.0180153846740723,
				6.981534957885742,
				1.0180153846740723
			]
		},
		{
			"mesh":3,
			"name":"Cylinder.018",
			"rotation":[
				0,
				0.9276466965675354,
				0,
				0.3734590411186218
			],
			"scale":[
				0.8723607659339905,
				4.831951141357422,
				0.8723607659339905
			]
		}
	],
	"materials":[
		{
			"doubleSided":true,
			"extensions":{
				"KHR_materials_specular":{
					"specularColorFactor":[
						2.0,
						2.0,
						2.0
					]
				},
				"KHR_materials_ior":{
					"ior":1.4500000476837158
				}
			},
			"name":"building",
			"pbrMetallicRoughness":{
				"baseColorTexture":{
					"index":0
				},
				"metallicFactor":0
			}
		},
		{
			"doubleSided":true,
			"extensions":{
				"KHR_materials_specular":{
					"specularColorFactor":[
						2.0,
						2.0,
						2.0
					]
				},
				"KHR_materials_ior":{
					"ior":1.4500000476837158
				}
			},
			"name":"building2",
			"pbrMetallicRoughness":{
				"baseColorTexture":{
					"index":1
				},
				"metallicFactor":0,
				"roughnessFactor":0.17924527823925018
			}
		},
		{
			"doubleSided":true,
			"emissiveFactor":[
				0.7991064786911011,
				0.15292732417583466,
				0.6038312911987305
			],
			"name":"Glow3",
			"pbrMetallicRoughness":{
				"baseColorFactor":[
					0.8004003763198853,
					0.1514851152896881,
					0.604170024394989,
					1
				],
				"metallicFactor":0,
				"roughnessFactor":0.5
			}
		},
		{
			"doubleSided":true,
			"emissiveFactor":[
				1,
				0.2655798013274177,
				0.04142626284219435
			],
			"extensions":{
				"KHR_materials_emissive_strength":{
					"emissiveStrength":1.5982129573822021
				}
			},
			"name":"Glow1",
			"pbrMetallicRoughness":{
				"baseColorFactor":[
					0.8008996248245239,
					0.21048900485038757,
					0.033567022532224655,
					1
				],
				"metallicFactor":0
			}
		}
	],
	"meshes":[
		{
			"name":"Plane.107",
			"primitives":[
				{
					"attributes":{
						"POSITION":0,
						"NORMAL":1,
						"TEXCOORD_0":2
					},
					"indices":3,
					"material":0
				}
			]
		},
		{
			"name":"Plane.108",
			"primitives":[
				{
					"attributes":{
						"POSITION":4,
						"NORMAL":5,
						"TEXCOORD_0":6
					},
					"indices":7,
					"material":0
				}
			]
		},
		{
			"name":"Cylinder.044",
			"primitives":[
				{
					"attributes":{
						"POSITION":8,
						"NORMAL":9,
						"TEXCOORD_0":10,
						"TANGENT":11
					},
					"indices":12,
					"material":1
				},
				{
					"attributes":{
						"POSITION":13,
						"NORMAL":14,
						"TEXCOORD_0":15,
						"TANGENT":16
					},
					"indices":17,
					"material":2
				},
				{
					"attributes":{
						"POSITION":18,
						"NORMAL":19,
						"TEXCOORD_0":20,
						"TANGENT":21
					},
					"indices":22,
					"material":3
				}
			]
		},
		{
			"name":"Cylinder.045",
			"primitives":[
				{
					"attributes":{
						"POSITION":23,
						"NORMAL":24,
						"TEXCOORD_0":25,
						"TANGENT":26
					},
					"indices":27,
					"material":0
				}
			]
		}
	],
	"textures":[
		{
			"sampler":0,
			"source":0
		},
		{
			"sampler":0,
			"source":0
		}
	],
	"images":[
		{
			"mimeType":"image/png",
			"name":"AvatarWearables_TX",
			"uri":"tex/AvatarWearables_TX.png"
		}
	],
	"accessors":[
		{
			"bufferView":0,
			"componentType":5126,
			"count":140,
			"max":[
				1.0160624980926514,
				-6.4392781257629395,
				1.0160622596740723
			],
			"min":[
				-1.0160624980926514,
				-6.77199649810791,
				-0.9212799072265625
			],
			"type":"VEC3"
		},
		{
			"bufferView":1,
			"componentType":5126,
			"count":140,
			"type":"VEC3"
		},
		{
			"bufferView":2,
			"componentType":5126,
			"count":140,
			"type":"VEC2"
		},
		{
			"bufferView":3,
			"componentType":5123,
			"count":555,
			"type":"SCALAR"
		},
		{
			"bufferView":4,
			"componentType":5126,
			"count":81,
			"max":[
				2.1216378211975098,
				-1.4229880571365356,
				2.121640205383301
			],
			"min":[
				-2.1216416358947754,
				-2.1216399669647217,
				0.5148077011108398
			],
			"type":"VEC3"
		},
		{
			"bufferView":5,
			"componentType":5126,
			"count":81,
			"type":"VEC3"
		},
		{
			"bufferView":6,
			"componentType":5126,
			"count":81,
			"type":"VEC2"
		},
		{
			"bufferView":7,
			"componentType":5123,
			"count":135,
			"type":"SCALAR"
		},
		{
			"bufferView":8,
			"componentType":5126,
			"count":1217,
			"max":[
				6.567224502563477,
				0.9790037274360657,
				1.8615291118621826
			],
			"min":[
				4.567225933074951,
				-0.95849609375,
				-0.13847196102142334
			],
			"type":"VEC3"
		},
		{
			"bufferView":9,
			"componentType":5126,
			"count":1217,
			"type":"VEC3"
		},
		{
			"bufferView":10,
			"componentType":5126,
			"count":1217,
			"type":"VEC2"
		},
		{
			"bufferView":11,
			"componentType":5126,
			"count":1217,
			"type":"VEC4"
		},
		{
			"bufferView":12,
			"componentType":5123,
			"count":4500,
			"type":"SCALAR"
		},
		{
			"bufferView":13,
			"componentType":5126,
			"count":238,
			"max":[
				6.490627288818359,
				0.7885558009147644,
				1.7836086750030518
			],
			"min":[
				4.654704570770264,
				-0.767855167388916,
				-0.05231255292892456
			],
			"type":"VEC3"
		},
		{
			"bufferView":14,
			"componentType":5126,
			"count":238,
			"type":"VEC3"
		},
		{
			"bufferView":15,
			"componentType":5126,
			"count":238,
			"type":"VEC2"
		},
		{
			"bufferView":16,
			"componentType":5126,
			"count":238,
			"type":"VEC4"
		},
		{
			"bufferView":17,
			"componentType":5123,
			"count":672,
			"type":"SCALAR"
		},
		{
			"bufferView":18,
			"componentType":5126,
			"count":396,
			"max":[
				6.2812066078186035,
				0.9139712452888489,
				1.1229989528656006
			],
			"min":[
				4.864123821258545,
				-0.8926085233688354,
				0.6083531379699707
			],
			"type":"VEC3"
		},
		{
			"bufferView":19,
			"componentType":5126,
			"count":396,
			"type":"VEC3"
		},
		{
			"bufferView":20,
			"componentType":5126,
			"count":396,
			"type":"VEC2"
		},
		{
			"bufferView":21,
			"componentType":5126,
			"count":396,
			"type":"VEC4"
		},
		{
			"bufferView":22,
			"componentType":5123,
			"count":768,
			"type":"SCALAR"
		},
		{
			"bufferView":23,
			"componentType":5126,
			"count":120,
			"max":[
				5.852752685546875,
				-0.09136474132537842,
				-3.0628879070281982
			],
			"min":[
				1.1626510620117188,
				-0.8713987469673157,
				-5.4206695556640625
			],
			"type":"VEC3"
		},
		{
			"bufferView":24,
			"componentType":5126,
			"count":120,
			"type":"VEC3"
		},
		{
			"bufferView":25,
			"componentType":5126,
			"count":120,
			"type":"VEC2"
		},
		{
			"bufferView":26,
			"componentType":5126,
			"count":120,
			"type":"VEC4"
		},
		{
			"bufferView":27,
			"componentType":5123,
			"count":120,
			"type":"SCALAR"
		}
	],
	"bufferViews":[
		{
			"buffer":0,
			"byteLength":1680,
			"byteOffset":0,
			"target":34962
		},
		{
			"buffer":0,
			"byteLength":1680,
			"byteOffset":1680,
			"target":34962
		},
		{
			"buffer":0,
			"byteLength":1120,
			"byteOffset":3360,
			"target":34962
		},
		{
			"buffer":0,
			"byteLength":1110,
			"byteOffset":4480,
			"target":34963
		},
		{
			"buffer":0,
			"byteLength":972,
			"byteOffset":5592,
			"target":34962
		},
		{
			"buffer":0,
			"byteLength":972,
			"byteOffset":6564,
			"target":34962
		},
		{
			"buffer":0,
			"byteLength":648,
			"byteOffset":7536,
			"target":34962
		},
		{
			"buffer":0,
			"byteLength":270,
			"byteOffset":8184,
			"target":34963
		},
		{
			"buffer":0,
			"byteLength":14604,
			"byteOffset":8456,
			"target":34962
		},
		{
			"buffer":0,
			"byteLength":14604,
			"byteOffset":23060,
			"target":34962
		},
		{
			"buffer":0,
			"byteLength":9736,
			"byteOffset":37664,
			"target":34962
		},
		{
			"buffer":0,
			"byteLength":19472,
			"byteOffset":47400,
			"target":34962
		},
		{
			"buffer":0,
			"byteLength":9000,
			"byteOffset":66872,
			"target":34963
		},
		{
			"buffer":0,
			"byteLength":2856,
			"byteOffset":75872,
			"target":34962
		},
		{
			"buffer":0,
			"byteLength":2856,
			"byteOffset":78728,
			"target":34962
		},
		{
			"buffer":0,
			"byteLength":1904,
			"byteOffset":81584,
			"target":34962
		},
		{
			"buffer":0,
			"byteLength":3808,
			"byteOffset":83488,
			"target":34962
		},
		{
			"buffer":0,
			"byteLength":1344,
			"byteOffset":87296,
			"target":34963
		},
		{
			"buffer":0,
			"byteLength":4752,
			"byteOffset":88640,
			"target":34962
		},
		{
			"buffer":0,
			"byteLength":4752,
			"byteOffset":93392,
			"target":34962
		},
		{
			"buffer":0,
			"byteLength":3168,
			"byteOffset":98144,
			"target":34962
		},
		{
			"buffer":0,
			"byteLength":6336,
			"byteOffset":101312,
			"target":34962
		},
		{
			"buffer":0,
			"byteLength":1536,
			"byteOffset":107648,
			"target":34963
		},
		{
			"buffer":0,
			"byteLength":1440,
			"byteOffset":109184,
			"target":34962
		},
		{
			"buffer":0,
			"byteLength":1440,
			"byteOffset":110624,
			"target":34962
		},
		{
			"buffer":0,
			"byteLength":960,
			"byteOffset":112064,
			"target":34962
		},
		{
			"buffer":0,
			"byteLength":1920,
			"byteOffset":113024,
			"target":34962
		},
		{
			"buffer":0,
			"byteLength":240,
			"byteOffset":114944,
			"target":34963
		}
	],
	"samplers":[
		{
			"magFilter":9729,
			"minFilter":9987
		}
	],
	"buffers":[
		{
			"byteLength":115184,
			"uri":"tile_5_1_5.bin"
		}
	]
}
