{
	"asset":{
		"generator":"Khronos glTF Blender I/O v4.0.44",
		"version":"2.0"
	},
	"extensionsUsed":[
		"KHR_materials_specular",
		"KHR_materials_ior",
		"KHR_materials_emissive_strength"
	],
	"scene":0,
	"scenes":[
		{
			"name":"Scene",
			"nodes":[
				0,
				1,
				2,
				3
			]
		}
	],
	"nodes":[
		{
			"mesh":0,
			"name":"Plane",
			"scale":[
				7.873531341552734,
				0.9841914176940918,
				7.873531341552734
			]
		},
		{
			"mesh":1,
			"name":"track.066",
			"scale":[
				3.7706682682037354,
				3.7706682682037354,
				3.7706682682037354
			]
		},
		{
			"mesh":2,
			"name":"Torus.009",
			"rotation":[
				0.7071069478988647,
				0,
				0,
				0.7071066498756409
			],
			"scale":[
				0.9492737650871277,
				0.949273943901062,
				0.949273943901062
			]
		},
		{
			"mesh":3,
			"name":"Cylinder.008",
			"rotation":[
				-1,
				0,
				0,
				7.549790126404332e-08
			],
			"scale":[
				2.3381993770599365,
				2.3381993770599365,
				2.3381993770599365
			]
		}
	],
	"materials":[
		{
			"doubleSided":true,
			"extensions":{
				"KHR_materials_specular":{
					"specularColorFactor":[
						2.0,
						2.0,
						2.0
					]
				},
				"KHR_materials_ior":{
					"ior":1.4500000476837158
				}
			},
			"name":"building",
			"pbrMetallicRoughness":{
				"baseColorTexture":{
					"index":0
				},
				"metallicFactor":0
			}
		},
		{
			"doubleSided":true,
			"emissiveFactor":[
				1,
				0.003797386313042906,
				0
			],
			"extensions":{
				"KHR_materials_emissive_strength":{
					"emissiveStrength":7.991064786911011
				}
			},
			"name":"Glow9",
			"pbrMetallicRoughness":{
				"baseColorFactor":[
					0.8000000715255737,
					0.0031031807884573936,
					0,
					1
				],
				"metallicFactor":0
			}
		},
		{
			"doubleSided":true,
			"emissiveFactor":[
				1,
				1,
				1
			],
			"extensions":{
				"KHR_materials_emissive_strength":{
					"emissiveStrength":4
				}
			},
			"name":"Glow2",
			"pbrMetallicRoughness":{
				"baseColorFactor":[
					0.800000011920929,
					0.800000011920929,
					0.800000011920929,
					1
				],
				"metallicFactor":0,
				"roughnessFactor":0.5
			}
		},
		{
			"doubleSided":true,
			"emissiveFactor":[
				0.2831465070731129,
				0.027320706840421944,
				1
			],
			"extensions":{
				"KHR_materials_emissive_strength":{
					"emissiveStrength":2.0000481605529785
				}
			},
			"name":"Glow8",
			"pbrMetallicRoughness":{
				"baseColorFactor":[
					0.2836092412471771,
					0.027631696313619614,
					1,
					1
				],
				"metallicFactor":0
			}
		}
	],
	"meshes":[
		{
			"name":"Plane.784",
			"primitives":[
				{
					"attributes":{
						"POSITION":0,
						"NORMAL":1,
						"TEXCOORD_0":2
					},
					"indices":3,
					"material":0
				},
				{
					"attributes":{
						"POSITION":4,
						"NORMAL":5,
						"TEXCOORD_0":6
					},
					"indices":7,
					"material":0
				}
			]
		},
		{
			"name":"Plane.785",
			"primitives":[
				{
					"attributes":{
						"POSITION":8,
						"NORMAL":9,
						"TEXCOORD_0":10
					},
					"indices":11,
					"material":0
				}
			]
		},
		{
			"name":"Torus.066",
			"primitives":[
				{
					"attributes":{
						"POSITION":12,
						"NORMAL":13,
						"TEXCOORD_0":14
					},
					"indices":15,
					"material":0
				},
				{
					"attributes":{
						"POSITION":16,
						"NORMAL":17,
						"TEXCOORD_0":18
					},
					"indices":19,
					"material":1
				},
				{
					"attributes":{
						"POSITION":20,
						"NORMAL":21,
						"TEXCOORD_0":22
					},
					"indices":23,
					"material":2
				}
			]
		},
		{
			"name":"Cylinder.371",
			"primitives":[
				{
					"attributes":{
						"POSITION":24,
						"NORMAL":25,
						"TEXCOORD_0":26
					},
					"indices":27,
					"material":0
				},
				{
					"attributes":{
						"POSITION":28,
						"NORMAL":29,
						"TEXCOORD_0":30
					},
					"indices":31,
					"material":3
				},
				{
					"attributes":{
						"POSITION":32,
						"NORMAL":33,
						"TEXCOORD_0":34
					},
					"indices":35,
					"material":3
				}
			]
		}
	],
	"textures":[
		{
			"sampler":0,
			"source":0
		}
	],
	"images":[
		{
			"mimeType":"image/png",
			"name":"AvatarWearables_TX",
			"uri":"tex/AvatarWearables_TX.png"
		}
	],
	"accessors":[
		{
			"bufferView":0,
			"componentType":5126,
			"count":59,
			"max":[
				0.5080313682556152,
				-11.762274742126465,
				0.5080312490463257
			],
			"min":[
				-0.5080313682556152,
				-15.167204856872559,
				-0.5080312490463257
			],
			"type":"VEC3"
		},
		{
			"bufferView":1,
			"componentType":5126,
			"count":59,
			"type":"VEC3"
		},
		{
			"bufferView":2,
			"componentType":5126,
			"count":59,
			"type":"VEC2"
		},
		{
			"bufferView":3,
			"componentType":5123,
			"count":231,
			"type":"SCALAR"
		},
		{
			"bufferView":4,
			"componentType":5126,
			"count":29,
			"max":[
				0.5080313682556152,
				-11.762274742126465,
				0.5080312490463257
			],
			"min":[
				-0.5080313682556152,
				-16.256999969482422,
				-0.5080312490463257
			],
			"type":"VEC3"
		},
		{
			"bufferView":5,
			"componentType":5126,
			"count":29,
			"type":"VEC3"
		},
		{
			"bufferView":6,
			"componentType":5126,
			"count":29,
			"type":"VEC2"
		},
		{
			"bufferView":7,
			"componentType":5123,
			"count":54,
			"type":"SCALAR"
		},
		{
			"bufferView":8,
			"componentType":5126,
			"count":42,
			"max":[
				-0.2712554931640625,
				-3.237761974334717,
				1.0608208179473877
			],
			"min":[
				-1.0608205795288086,
				-4.243279933929443,
				0.734117329120636
			],
			"type":"VEC3"
		},
		{
			"bufferView":9,
			"componentType":5126,
			"count":42,
			"type":"VEC3"
		},
		{
			"bufferView":10,
			"componentType":5126,
			"count":42,
			"type":"VEC2"
		},
		{
			"bufferView":11,
			"componentType":5123,
			"count":90,
			"type":"SCALAR"
		},
		{
			"bufferView":12,
			"componentType":5126,
			"count":1114,
			"max":[
				-0.7660226821899414,
				1.0152380466461182,
				15.501760482788086
			],
			"min":[
				-4.213743686676025,
				-3.7625391483306885,
				7.085598945617676
			],
			"type":"VEC3"
		},
		{
			"bufferView":13,
			"componentType":5126,
			"count":1114,
			"type":"VEC3"
		},
		{
			"bufferView":14,
			"componentType":5126,
			"count":1114,
			"type":"VEC2"
		},
		{
			"bufferView":15,
			"componentType":5123,
			"count":4659,
			"type":"SCALAR"
		},
		{
			"bufferView":16,
			"componentType":5126,
			"count":56,
			"max":[
				-0.7860040664672852,
				0.277349591255188,
				15.461384773254395
			],
			"min":[
				-4.213743686676025,
				-2.8149876594543457,
				8.118879318237305
			],
			"type":"VEC3"
		},
		{
			"bufferView":17,
			"componentType":5126,
			"count":56,
			"type":"VEC3"
		},
		{
			"bufferView":18,
			"componentType":5126,
			"count":56,
			"type":"VEC2"
		},
		{
			"bufferView":19,
			"componentType":5123,
			"count":162,
			"type":"SCALAR"
		},
		{
			"bufferView":20,
			"componentType":5126,
			"count":97,
			"max":[
				-1.511696696281433,
				1.0152380466461182,
				15.501760482788086
			],
			"min":[
				-4.213743686676025,
				-3.7625391483306885,
				7.304635047912598
			],
			"type":"VEC3"
		},
		{
			"bufferView":21,
			"componentType":5126,
			"count":97,
			"type":"VEC3"
		},
		{
			"bufferView":22,
			"componentType":5126,
			"count":97,
			"type":"VEC2"
		},
		{
			"bufferView":23,
			"componentType":5123,
			"count":267,
			"type":"SCALAR"
		},
		{
			"bufferView":24,
			"componentType":5126,
			"count":366,
			"max":[
				1.7107181549072266,
				5.695940017700195,
				1.7107162475585938
			],
			"min":[
				0.5101220607757568,
				-2.111687660217285,
				-1.6194617748260498
			],
			"type":"VEC3"
		},
		{
			"bufferView":25,
			"componentType":5126,
			"count":366,
			"type":"VEC3"
		},
		{
			"bufferView":26,
			"componentType":5126,
			"count":366,
			"type":"VEC2"
		},
		{
			"bufferView":27,
			"componentType":5123,
			"count":618,
			"type":"SCALAR"
		},
		{
			"bufferView":28,
			"componentType":5126,
			"count":65,
			"max":[
				1.7107181549072266,
				5.5659565925598145,
				1.7107162475585938
			],
			"min":[
				0.8856465816497803,
				-1.1786293983459473,
				-1.1181440353393555
			],
			"type":"VEC3"
		},
		{
			"bufferView":29,
			"componentType":5126,
			"count":65,
			"type":"VEC3"
		},
		{
			"bufferView":30,
			"componentType":5126,
			"count":65,
			"type":"VEC2"
		},
		{
			"bufferView":31,
			"componentType":5123,
			"count":111,
			"type":"SCALAR"
		},
		{
			"bufferView":32,
			"componentType":5126,
			"count":153,
			"max":[
				1.7107181549072266,
				5.695940017700195,
				1.7107162475585938
			],
			"min":[
				0.6637465953826904,
				-2.111687660217285,
				-1.6194617748260498
			],
			"type":"VEC3"
		},
		{
			"bufferView":33,
			"componentType":5126,
			"count":153,
			"type":"VEC3"
		},
		{
			"bufferView":34,
			"componentType":5126,
			"count":153,
			"type":"VEC2"
		},
		{
			"bufferView":35,
			"componentType":5123,
			"count":441,
			"type":"SCALAR"
		}
	],
	"bufferViews":[
		{
			"buffer":0,
			"byteLength":708,
			"byteOffset":0,
			"target":34962
		},
		{
			"buffer":0,
			"byteLength":708,
			"byteOffset":708,
			"target":34962
		},
		{
			"buffer":0,
			"byteLength":472,
			"byteOffset":1416,
			"target":34962
		},
		{
			"buffer":0,
			"byteLength":462,
			"byteOffset":1888,
			"target":34963
		},
		{
			"buffer":0,
			"byteLength":348,
			"byteOffset":2352,
			"target":34962
		},
		{
			"buffer":0,
			"byteLength":348,
			"byteOffset":2700,
			"target":34962
		},
		{
			"buffer":0,
			"byteLength":232,
			"byteOffset":3048,
			"target":34962
		},
		{
			"buffer":0,
			"byteLength":108,
			"byteOffset":3280,
			"target":34963
		},
		{
			"buffer":0,
			"byteLength":504,
			"byteOffset":3388,
			"target":34962
		},
		{
			"buffer":0,
			"byteLength":504,
			"byteOffset":3892,
			"target":34962
		},
		{
			"buffer":0,
			"byteLength":336,
			"byteOffset":4396,
			"target":34962
		},
		{
			"buffer":0,
			"byteLength":180,
			"byteOffset":4732,
			"target":34963
		},
		{
			"buffer":0,
			"byteLength":13368,
			"byteOffset":4912,
			"target":34962
		},
		{
			"buffer":0,
			"byteLength":13368,
			"byteOffset":18280,
			"target":34962
		},
		{
			"buffer":0,
			"byteLength":8912,
			"byteOffset":31648,
			"target":34962
		},
		{
			"buffer":0,
			"byteLength":9318,
			"byteOffset":40560,
			"target":34963
		},
		{
			"buffer":0,
			"byteLength":672,
			"byteOffset":49880,
			"target":34962
		},
		{
			"buffer":0,
			"byteLength":672,
			"byteOffset":50552,
			"target":34962
		},
		{
			"buffer":0,
			"byteLength":448,
			"byteOffset":51224,
			"target":34962
		},
		{
			"buffer":0,
			"byteLength":324,
			"byteOffset":51672,
			"target":34963
		},
		{
			"buffer":0,
			"byteLength":1164,
			"byteOffset":51996,
			"target":34962
		},
		{
			"buffer":0,
			"byteLength":1164,
			"byteOffset":53160,
			"target":34962
		},
		{
			"buffer":0,
			"byteLength":776,
			"byteOffset":54324,
			"target":34962
		},
		{
			"buffer":0,
			"byteLength":534,
			"byteOffset":55100,
			"target":34963
		},
		{
			"buffer":0,
			"byteLength":4392,
			"byteOffset":55636,
			"target":34962
		},
		{
			"buffer":0,
			"byteLength":4392,
			"byteOffset":60028,
			"target":34962
		},
		{
			"buffer":0,
			"byteLength":2928,
			"byteOffset":64420,
			"target":34962
		},
		{
			"buffer":0,
			"byteLength":1236,
			"byteOffset":67348,
			"target":34963
		},
		{
			"buffer":0,
			"byteLength":780,
			"byteOffset":68584,
			"target":34962
		},
		{
			"buffer":0,
			"byteLength":780,
			"byteOffset":69364,
			"target":34962
		},
		{
			"buffer":0,
			"byteLength":520,
			"byteOffset":70144,
			"target":34962
		},
		{
			"buffer":0,
			"byteLength":222,
			"byteOffset":70664,
			"target":34963
		},
		{
			"buffer":0,
			"byteLength":1836,
			"byteOffset":70888,
			"target":34962
		},
		{
			"buffer":0,
			"byteLength":1836,
			"byteOffset":72724,
			"target":34962
		},
		{
			"buffer":0,
			"byteLength":1224,
			"byteOffset":74560,
			"target":34962
		},
		{
			"buffer":0,
			"byteLength":882,
			"byteOffset":75784,
			"target":34963
		}
	],
	"samplers":[
		{
			"magFilter":9729,
			"minFilter":9987
		}
	],
	"buffers":[
		{
			"byteLength":76668,
			"uri":"tile_5_0_6.bin"
		}
	]
}
