{
	"asset":{
		"generator":"Khronos glTF Blender I/O v4.0.44",
		"version":"2.0"
	},
	"extensionsUsed":[
		"KHR_materials_specular",
		"KHR_materials_ior"
	],
	"scene":0,
	"scenes":[
		{
			"name":"Scene",
			"nodes":[
				0,
				1,
				2,
				3
			]
		}
	],
	"nodes":[
		{
			"mesh":0,
			"name":"Plane",
			"scale":[
				7.873531341552734,
				0.9841914176940918,
				7.873531341552734
			]
		},
		{
			"mesh":1,
			"name":"track.028",
			"scale":[
				3.7706682682037354,
				3.7706682682037354,
				3.7706682682037354
			]
		},
		{
			"mesh":2,
			"name":"Cube",
			"rotation":[
				0,
				0.3507235050201416,
				0,
				0.9364790320396423
			],
			"scale":[
				2.5203466415405273,
				2.5203466415405273,
				2.5203466415405273
			]
		},
		{
			"name":"Cube.012",
			"rotation":[
				0,
				-0.4193370044231415,
				0,
				0.9078306555747986
			],
			"scale":[
				2.2909789085388184,
				3.6719183921813965,
				2.2909789085388184
			]
		}
	],
	"materials":[
		{
			"doubleSided":true,
			"extensions":{
				"KHR_materials_specular":{
					"specularColorFactor":[
						2.0,
						2.0,
						2.0
					]
				},
				"KHR_materials_ior":{
					"ior":1.4500000476837158
				}
			},
			"name":"building",
			"pbrMetallicRoughness":{
				"baseColorTexture":{
					"index":0
				},
				"metallicFactor":0
			}
		},
		{
			"doubleSided":true,
			"extensions":{
				"KHR_materials_specular":{
					"specularColorFactor":[
						2.0,
						2.0,
						2.0
					]
				},
				"KHR_materials_ior":{
					"ior":1.4500000476837158
				}
			},
			"name":"building2",
			"pbrMetallicRoughness":{
				"baseColorTexture":{
					"index":1
				},
				"metallicFactor":0,
				"roughnessFactor":0.17924527823925018
			}
		},
		{
			"doubleSided":true,
			"emissiveFactor":[
				0.7991064786911011,
				0.15292732417583466,
				0.6038312911987305
			],
			"name":"Glow3",
			"pbrMetallicRoughness":{
				"baseColorFactor":[
					0.8004003763198853,
					0.1514851152896881,
					0.604170024394989,
					1
				],
				"metallicFactor":0,
				"roughnessFactor":0.5
			}
		}
	],
	"meshes":[
		{
			"name":"Plane.708",
			"primitives":[
				{
					"attributes":{
						"POSITION":0,
						"NORMAL":1,
						"TEXCOORD_0":2,
						"TANGENT":3
					},
					"indices":4,
					"material":0
				}
			]
		},
		{
			"name":"Plane.709",
			"primitives":[
				{
					"attributes":{
						"POSITION":5,
						"NORMAL":6,
						"TEXCOORD_0":7
					},
					"indices":8,
					"material":0
				}
			]
		},
		{
			"name":"Cube.542",
			"primitives":[
				{
					"attributes":{
						"POSITION":9,
						"NORMAL":10,
						"TEXCOORD_0":11
					},
					"indices":12,
					"material":1
				},
				{
					"attributes":{
						"POSITION":13,
						"NORMAL":14,
						"TEXCOORD_0":15
					},
					"indices":16,
					"material":2
				}
			]
		}
	],
	"textures":[
		{
			"sampler":0,
			"source":0
		},
		{
			"sampler":0,
			"source":0
		}
	],
	"images":[
		{
			"mimeType":"image/png",
			"name":"AvatarWearables_TX",
			"uri":"tex/AvatarWearables_TX.png"
		}
	],
	"accessors":[
		{
			"bufferView":0,
			"componentType":5126,
			"count":36,
			"max":[
				0.508030891418457,
				-14.900496482849121,
				0.508030891418457
			],
			"min":[
				-0.508030891418457,
				-14.900496482849121,
				-0.5080317258834839
			],
			"type":"VEC3"
		},
		{
			"bufferView":1,
			"componentType":5126,
			"count":36,
			"type":"VEC3"
		},
		{
			"bufferView":2,
			"componentType":5126,
			"count":36,
			"type":"VEC2"
		},
		{
			"bufferView":3,
			"componentType":5126,
			"count":36,
			"type":"VEC4"
		},
		{
			"bufferView":4,
			"componentType":5123,
			"count":150,
			"type":"SCALAR"
		},
		{
			"bufferView":5,
			"componentType":5126,
			"count":53,
			"max":[
				-0.2520880699157715,
				-3.5361156463623047,
				1.0608196258544922
			],
			"min":[
				-1.0608210563659668,
				-4.243279933929443,
				-1.0608198642730713
			],
			"type":"VEC3"
		},
		{
			"bufferView":6,
			"componentType":5126,
			"count":53,
			"type":"VEC3"
		},
		{
			"bufferView":7,
			"componentType":5126,
			"count":53,
			"type":"VEC2"
		},
		{
			"bufferView":8,
			"componentType":5123,
			"count":93,
			"type":"SCALAR"
		},
		{
			"bufferView":9,
			"componentType":5126,
			"count":2994,
			"max":[
				1.1938782930374146,
				0.40120792388916016,
				1.6970725059509277
			],
			"min":[
				-0.7693272829055786,
				-5.889745712280273,
				-0.2661329507827759
			],
			"type":"VEC3"
		},
		{
			"bufferView":10,
			"componentType":5126,
			"count":2994,
			"type":"VEC3"
		},
		{
			"bufferView":11,
			"componentType":5126,
			"count":2994,
			"type":"VEC2"
		},
		{
			"bufferView":12,
			"componentType":5123,
			"count":5436,
			"type":"SCALAR"
		},
		{
			"bufferView":13,
			"componentType":5126,
			"count":144,
			"max":[
				0.9920941591262817,
				-0.2874312400817871,
				1.495288372039795
			],
			"min":[
				-0.5675432085990906,
				-4.994805812835693,
				-0.06434905529022217
			],
			"type":"VEC3"
		},
		{
			"bufferView":14,
			"componentType":5126,
			"count":144,
			"type":"VEC3"
		},
		{
			"bufferView":15,
			"componentType":5126,
			"count":144,
			"type":"VEC2"
		},
		{
			"bufferView":16,
			"componentType":5123,
			"count":216,
			"type":"SCALAR"
		}
	],
	"bufferViews":[
		{
			"buffer":0,
			"byteLength":432,
			"byteOffset":0,
			"target":34962
		},
		{
			"buffer":0,
			"byteLength":432,
			"byteOffset":432,
			"target":34962
		},
		{
			"buffer":0,
			"byteLength":288,
			"byteOffset":864,
			"target":34962
		},
		{
			"buffer":0,
			"byteLength":576,
			"byteOffset":1152,
			"target":34962
		},
		{
			"buffer":0,
			"byteLength":300,
			"byteOffset":1728,
			"target":34963
		},
		{
			"buffer":0,
			"byteLength":636,
			"byteOffset":2028,
			"target":34962
		},
		{
			"buffer":0,
			"byteLength":636,
			"byteOffset":2664,
			"target":34962
		},
		{
			"buffer":0,
			"byteLength":424,
			"byteOffset":3300,
			"target":34962
		},
		{
			"buffer":0,
			"byteLength":186,
			"byteOffset":3724,
			"target":34963
		},
		{
			"buffer":0,
			"byteLength":35928,
			"byteOffset":3912,
			"target":34962
		},
		{
			"buffer":0,
			"byteLength":35928,
			"byteOffset":39840,
			"target":34962
		},
		{
			"buffer":0,
			"byteLength":23952,
			"byteOffset":75768,
			"target":34962
		},
		{
			"buffer":0,
			"byteLength":10872,
			"byteOffset":99720,
			"target":34963
		},
		{
			"buffer":0,
			"byteLength":1728,
			"byteOffset":110592,
			"target":34962
		},
		{
			"buffer":0,
			"byteLength":1728,
			"byteOffset":112320,
			"target":34962
		},
		{
			"buffer":0,
			"byteLength":1152,
			"byteOffset":114048,
			"target":34962
		},
		{
			"buffer":0,
			"byteLength":432,
			"byteOffset":115200,
			"target":34963
		}
	],
	"samplers":[
		{
			"magFilter":9729,
			"minFilter":9987
		}
	],
	"buffers":[
		{
			"byteLength":115632,
			"uri":"tile_2_0_4.bin"
		}
	]
}
