{
	"asset":{
		"generator":"Khronos glTF Blender I/O v4.0.44",
		"version":"2.0"
	},
	"extensionsUsed":[
		"KHR_materials_specular",
		"KHR_materials_ior",
		"KHR_materials_emissive_strength"
	],
	"scene":0,
	"scenes":[
		{
			"name":"Scene",
			"nodes":[
				0,
				1,
				2
			]
		}
	],
	"nodes":[
		{
			"mesh":0,
			"name":"Plane",
			"scale":[
				7.873531341552734,
				0.9841914176940918,
				7.873531341552734
			]
		},
		{
			"mesh":1,
			"name":"track.091",
			"scale":[
				3.7706682682037354,
				3.7706682682037354,
				3.7706682682037354
			]
		},
		{
			"mesh":2,
			"name":"Cylinder.008",
			"rotation":[
				-1,
				0,
				0,
				7.549790126404332e-08
			],
			"scale":[
				2.3381993770599365,
				2.3381993770599365,
				2.3381993770599365
			]
		}
	],
	"materials":[
		{
			"doubleSided":true,
			"extensions":{
				"KHR_materials_specular":{
					"specularColorFactor":[
						2.0,
						2.0,
						2.0
					]
				},
				"KHR_materials_ior":{
					"ior":1.4500000476837158
				}
			},
			"name":"building",
			"pbrMetallicRoughness":{
				"baseColorTexture":{
					"index":0
				},
				"metallicFactor":0
			}
		},
		{
			"doubleSided":true,
			"emissiveFactor":[
				0.2831465070731129,
				0.027320706840421944,
				1
			],
			"extensions":{
				"KHR_materials_emissive_strength":{
					"emissiveStrength":2.0000481605529785
				}
			},
			"name":"Glow8",
			"pbrMetallicRoughness":{
				"baseColorFactor":[
					0.2836092412471771,
					0.027631696313619614,
					1,
					1
				],
				"metallicFactor":0
			}
		}
	],
	"meshes":[
		{
			"name":"Plane.832",
			"primitives":[
				{
					"attributes":{
						"POSITION":0,
						"NORMAL":1,
						"TEXCOORD_0":2
					},
					"indices":3,
					"material":0
				}
			]
		},
		{
			"name":"Plane.833",
			"primitives":[
				{
					"attributes":{
						"POSITION":4,
						"NORMAL":5,
						"TEXCOORD_0":6
					},
					"indices":7,
					"material":0
				}
			]
		},
		{
			"name":"Cylinder.392",
			"primitives":[
				{
					"attributes":{
						"POSITION":8,
						"NORMAL":9,
						"TEXCOORD_0":10
					},
					"indices":11,
					"material":0
				},
				{
					"attributes":{
						"POSITION":12,
						"NORMAL":13,
						"TEXCOORD_0":14
					},
					"indices":15,
					"material":1
				}
			]
		}
	],
	"textures":[
		{
			"sampler":0,
			"source":0
		}
	],
	"images":[
		{
			"mimeType":"image/png",
			"name":"AvatarWearables_TX",
			"uri":"tex/AvatarWearables_TX.png"
		}
	],
	"accessors":[
		{
			"bufferView":0,
			"componentType":5126,
			"count":100,
			"max":[
				0.5080313682556152,
				-5.870390892028809,
				0.5080312490463257
			],
			"min":[
				-0.5080313682556152,
				-16.256999969482422,
				-0.5080312490463257
			],
			"type":"VEC3"
		},
		{
			"bufferView":1,
			"componentType":5126,
			"count":100,
			"type":"VEC3"
		},
		{
			"bufferView":2,
			"componentType":5126,
			"count":100,
			"type":"VEC2"
		},
		{
			"bufferView":3,
			"componentType":5123,
			"count":330,
			"type":"SCALAR"
		},
		{
			"bufferView":4,
			"componentType":5126,
			"count":131,
			"max":[
				1.0608186721801758,
				-1.2670366764068604,
				1.0608208179473877
			],
			"min":[
				-1.0608205795288086,
				-1.8615821599960327,
				-1.0608189105987549
			],
			"type":"VEC3"
		},
		{
			"bufferView":5,
			"componentType":5126,
			"count":131,
			"type":"VEC3"
		},
		{
			"bufferView":6,
			"componentType":5126,
			"count":131,
			"type":"VEC2"
		},
		{
			"bufferView":7,
			"componentType":5123,
			"count":243,
			"type":"SCALAR"
		},
		{
			"bufferView":8,
			"componentType":5126,
			"count":846,
			"max":[
				0.5332469940185547,
				5.695940017700195,
				1.7107162475585938
			],
			"min":[
				-1.7107181549072266,
				-2.408754825592041,
				-1.7107200622558594
			],
			"type":"VEC3"
		},
		{
			"bufferView":9,
			"componentType":5126,
			"count":846,
			"type":"VEC3"
		},
		{
			"bufferView":10,
			"componentType":5126,
			"count":846,
			"type":"VEC2"
		},
		{
			"bufferView":11,
			"componentType":5123,
			"count":1680,
			"type":"SCALAR"
		},
		{
			"bufferView":12,
			"componentType":5126,
			"count":154,
			"max":[
				0.15772390365600586,
				5.5659565925598145,
				1.7107162475585938
			],
			"min":[
				-1.7107181549072266,
				-1.1786293983459473,
				-1.7107200622558594
			],
			"type":"VEC3"
		},
		{
			"bufferView":13,
			"componentType":5126,
			"count":154,
			"type":"VEC3"
		},
		{
			"bufferView":14,
			"componentType":5126,
			"count":154,
			"type":"VEC2"
		},
		{
			"bufferView":15,
			"componentType":5123,
			"count":258,
			"type":"SCALAR"
		}
	],
	"bufferViews":[
		{
			"buffer":0,
			"byteLength":1200,
			"byteOffset":0,
			"target":34962
		},
		{
			"buffer":0,
			"byteLength":1200,
			"byteOffset":1200,
			"target":34962
		},
		{
			"buffer":0,
			"byteLength":800,
			"byteOffset":2400,
			"target":34962
		},
		{
			"buffer":0,
			"byteLength":660,
			"byteOffset":3200,
			"target":34963
		},
		{
			"buffer":0,
			"byteLength":1572,
			"byteOffset":3860,
			"target":34962
		},
		{
			"buffer":0,
			"byteLength":1572,
			"byteOffset":5432,
			"target":34962
		},
		{
			"buffer":0,
			"byteLength":1048,
			"byteOffset":7004,
			"target":34962
		},
		{
			"buffer":0,
			"byteLength":486,
			"byteOffset":8052,
			"target":34963
		},
		{
			"buffer":0,
			"byteLength":10152,
			"byteOffset":8540,
			"target":34962
		},
		{
			"buffer":0,
			"byteLength":10152,
			"byteOffset":18692,
			"target":34962
		},
		{
			"buffer":0,
			"byteLength":6768,
			"byteOffset":28844,
			"target":34962
		},
		{
			"buffer":0,
			"byteLength":3360,
			"byteOffset":35612,
			"target":34963
		},
		{
			"buffer":0,
			"byteLength":1848,
			"byteOffset":38972,
			"target":34962
		},
		{
			"buffer":0,
			"byteLength":1848,
			"byteOffset":40820,
			"target":34962
		},
		{
			"buffer":0,
			"byteLength":1232,
			"byteOffset":42668,
			"target":34962
		},
		{
			"buffer":0,
			"byteLength":516,
			"byteOffset":43900,
			"target":34963
		}
	],
	"samplers":[
		{
			"magFilter":9729,
			"minFilter":9987
		}
	],
	"buffers":[
		{
			"byteLength":44416,
			"uri":"tile_7_0_6.bin"
		}
	]
}
