{
	"asset":{
		"generator":"Khronos glTF Blender I/O v4.0.44",
		"version":"2.0"
	},
	"extensionsUsed":[
		"KHR_materials_specular",
		"KHR_materials_ior",
		"KHR_materials_emissive_strength"
	],
	"scene":0,
	"scenes":[
		{
			"name":"Scene",
			"nodes":[
				0,
				1,
				2
			]
		}
	],
	"nodes":[
		{
			"mesh":0,
			"name":"Plane",
			"scale":[
				7.873531341552734,
				0.9841914176940918,
				7.873531341552734
			]
		},
		{
			"mesh":1,
			"name":"track.263",
			"scale":[
				3.7706682682037354,
				3.7706682682037354,
				3.7706682682037354
			]
		},
		{
			"mesh":2,
			"name":"Cube.002",
			"rotation":[
				0,
				-0.30317404866218567,
				0,
				0.9529352188110352
			],
			"scale":[
				3.3134214878082275,
				3.3134217262268066,
				3.3134214878082275
			]
		}
	],
	"materials":[
		{
			"doubleSided":true,
			"extensions":{
				"KHR_materials_specular":{
					"specularColorFactor":[
						2.0,
						2.0,
						2.0
					]
				},
				"KHR_materials_ior":{
					"ior":1.4500000476837158
				}
			},
			"name":"building",
			"pbrMetallicRoughness":{
				"baseColorTexture":{
					"index":0
				},
				"metallicFactor":0
			}
		},
		{
			"doubleSided":true,
			"emissiveFactor":[
				0.0802171136311348,
				0.06480263589233753,
				1
			],
			"extensions":{
				"KHR_materials_emissive_strength":{
					"emissiveStrength":2.0000481605529785
				}
			},
			"name":"Glow5",
			"pbrMetallicRoughness":{
				"baseColorFactor":[
					0.08072357624769211,
					0.06527391821146011,
					1,
					1
				],
				"metallicFactor":0
			}
		}
	],
	"meshes":[
		{
			"name":"Plane.1176",
			"primitives":[
				{
					"attributes":{
						"POSITION":0,
						"NORMAL":1,
						"TEXCOORD_0":2,
						"TANGENT":3
					},
					"indices":4,
					"material":0
				}
			]
		},
		{
			"name":"Plane.1177",
			"primitives":[
				{
					"attributes":{
						"POSITION":5,
						"NORMAL":6,
						"TEXCOORD_0":7
					},
					"indices":8,
					"material":0
				}
			]
		},
		{
			"name":"Cube.690",
			"primitives":[
				{
					"attributes":{
						"POSITION":9,
						"NORMAL":10,
						"TEXCOORD_0":11
					},
					"indices":12,
					"material":0
				},
				{
					"attributes":{
						"POSITION":13,
						"NORMAL":14,
						"TEXCOORD_0":15
					},
					"indices":16,
					"material":1
				}
			]
		}
	],
	"textures":[
		{
			"sampler":0,
			"source":0
		}
	],
	"images":[
		{
			"mimeType":"image/png",
			"name":"AvatarWearables_TX",
			"uri":"tex/AvatarWearables_TX.png"
		}
	],
	"accessors":[
		{
			"bufferView":0,
			"componentType":5126,
			"count":36,
			"max":[
				0.508030891418457,
				-14.900496482849121,
				0.5080313682556152
			],
			"min":[
				-0.508030891418457,
				-14.900496482849121,
				-0.5080313682556152
			],
			"type":"VEC3"
		},
		{
			"bufferView":1,
			"componentType":5126,
			"count":36,
			"type":"VEC3"
		},
		{
			"bufferView":2,
			"componentType":5126,
			"count":36,
			"type":"VEC2"
		},
		{
			"bufferView":3,
			"componentType":5126,
			"count":36,
			"type":"VEC4"
		},
		{
			"bufferView":4,
			"componentType":5123,
			"count":150,
			"type":"SCALAR"
		},
		{
			"bufferView":5,
			"componentType":5126,
			"count":69,
			"max":[
				1.0608158111572266,
				-3.5411102771759033,
				1.0608196258544922
			],
			"min":[
				-1.0608234405517578,
				-4.243279933929443,
				-1.0608196258544922
			],
			"type":"VEC3"
		},
		{
			"bufferView":6,
			"componentType":5126,
			"count":69,
			"type":"VEC3"
		},
		{
			"bufferView":7,
			"componentType":5126,
			"count":69,
			"type":"VEC2"
		},
		{
			"bufferView":8,
			"componentType":5123,
			"count":123,
			"type":"SCALAR"
		},
		{
			"bufferView":9,
			"componentType":5126,
			"count":1363,
			"max":[
				1.1980315446853638,
				1.8075087070465088,
				-0.36490148305892944
			],
			"min":[
				-0.7651740312576294,
				-4.483445167541504,
				-1.6828302145004272
			],
			"type":"VEC3"
		},
		{
			"bufferView":10,
			"componentType":5126,
			"count":1363,
			"type":"VEC3"
		},
		{
			"bufferView":11,
			"componentType":5126,
			"count":1363,
			"type":"VEC2"
		},
		{
			"bufferView":12,
			"componentType":5123,
			"count":2493,
			"type":"SCALAR"
		},
		{
			"bufferView":13,
			"componentType":5126,
			"count":65,
			"max":[
				0.6951593160629272,
				1.1188695430755615,
				-0.5666856169700623
			],
			"min":[
				-0.5633898973464966,
				-3.588505744934082,
				-1.6828302145004272
			],
			"type":"VEC3"
		},
		{
			"bufferView":14,
			"componentType":5126,
			"count":65,
			"type":"VEC3"
		},
		{
			"bufferView":15,
			"componentType":5126,
			"count":65,
			"type":"VEC2"
		},
		{
			"bufferView":16,
			"componentType":5123,
			"count":99,
			"type":"SCALAR"
		}
	],
	"bufferViews":[
		{
			"buffer":0,
			"byteLength":432,
			"byteOffset":0,
			"target":34962
		},
		{
			"buffer":0,
			"byteLength":432,
			"byteOffset":432,
			"target":34962
		},
		{
			"buffer":0,
			"byteLength":288,
			"byteOffset":864,
			"target":34962
		},
		{
			"buffer":0,
			"byteLength":576,
			"byteOffset":1152,
			"target":34962
		},
		{
			"buffer":0,
			"byteLength":300,
			"byteOffset":1728,
			"target":34963
		},
		{
			"buffer":0,
			"byteLength":828,
			"byteOffset":2028,
			"target":34962
		},
		{
			"buffer":0,
			"byteLength":828,
			"byteOffset":2856,
			"target":34962
		},
		{
			"buffer":0,
			"byteLength":552,
			"byteOffset":3684,
			"target":34962
		},
		{
			"buffer":0,
			"byteLength":246,
			"byteOffset":4236,
			"target":34963
		},
		{
			"buffer":0,
			"byteLength":16356,
			"byteOffset":4484,
			"target":34962
		},
		{
			"buffer":0,
			"byteLength":16356,
			"byteOffset":20840,
			"target":34962
		},
		{
			"buffer":0,
			"byteLength":10904,
			"byteOffset":37196,
			"target":34962
		},
		{
			"buffer":0,
			"byteLength":4986,
			"byteOffset":48100,
			"target":34963
		},
		{
			"buffer":0,
			"byteLength":780,
			"byteOffset":53088,
			"target":34962
		},
		{
			"buffer":0,
			"byteLength":780,
			"byteOffset":53868,
			"target":34962
		},
		{
			"buffer":0,
			"byteLength":520,
			"byteOffset":54648,
			"target":34962
		},
		{
			"buffer":0,
			"byteLength":198,
			"byteOffset":55168,
			"target":34963
		}
	],
	"samplers":[
		{
			"magFilter":9729,
			"minFilter":9987
		}
	],
	"buffers":[
		{
			"byteLength":55368,
			"uri":"tile_21_0_10.bin"
		}
	]
}
