{
	"asset":{
		"generator":"Khronos glTF Blender I/O v4.0.44",
		"version":"2.0"
	},
	"extensionsUsed":[
		"KHR_materials_specular",
		"KHR_materials_ior",
		"KHR_materials_emissive_strength"
	],
	"scene":0,
	"scenes":[
		{
			"name":"Scene",
			"nodes":[
				0,
				1,
				2,
				3,
				4,
				5,
				6,
				7,
				8,
				9,
				10,
				11
			]
		}
	],
	"nodes":[
		{
			"mesh":0,
			"name":"Plane",
			"scale":[
				7.873531341552734,
				0.9841914176940918,
				7.873531341552734
			]
		},
		{
			"name":"track.067",
			"scale":[
				3.7706682682037354,
				3.7706682682037354,
				3.7706682682037354
			]
		},
		{
			"mesh":1,
			"name":"Cube.009"
		},
		{
			"mesh":2,
			"name":"Cylinder.008",
			"rotation":[
				-1,
				0,
				0,
				7.549790126404332e-08
			],
			"scale":[
				2.3381993770599365,
				2.3381993770599365,
				2.3381993770599365
			]
		},
		{
			"mesh":3,
			"name":"Cylinder.115"
		},
		{
			"mesh":4,
			"name":"Cube.091"
		},
		{
			"mesh":5,
			"name":"Cube.092"
		},
		{
			"mesh":6,
			"name":"Cube.093"
		},
		{
			"mesh":7,
			"name":"Cube.094"
		},
		{
			"mesh":8,
			"name":"Cube.095"
		},
		{
			"mesh":9,
			"name":"Cube.096"
		},
		{
			"mesh":10,
			"name":"Cube.097"
		}
	],
	"materials":[
		{
			"doubleSided":true,
			"extensions":{
				"KHR_materials_specular":{
					"specularColorFactor":[
						2.0,
						2.0,
						2.0
					]
				},
				"KHR_materials_ior":{
					"ior":1.4500000476837158
				}
			},
			"name":"building",
			"pbrMetallicRoughness":{
				"baseColorTexture":{
					"index":0
				},
				"metallicFactor":0
			}
		},
		{
			"doubleSided":true,
			"emissiveFactor":[
				0.2831465070731129,
				0.027320706840421944,
				1
			],
			"extensions":{
				"KHR_materials_emissive_strength":{
					"emissiveStrength":2.0000481605529785
				}
			},
			"name":"Glow8",
			"pbrMetallicRoughness":{
				"baseColorFactor":[
					0.2836092412471771,
					0.027631696313619614,
					1,
					1
				],
				"metallicFactor":0
			}
		}
	],
	"meshes":[
		{
			"name":"Plane.786",
			"primitives":[
				{
					"attributes":{
						"POSITION":0,
						"NORMAL":1,
						"TEXCOORD_0":2
					},
					"indices":3,
					"material":0
				}
			]
		},
		{
			"name":"Cube.551",
			"primitives":[
				{
					"attributes":{
						"POSITION":4,
						"NORMAL":5,
						"TEXCOORD_0":6
					},
					"indices":7,
					"material":0
				}
			]
		},
		{
			"name":"Cylinder.372",
			"primitives":[
				{
					"attributes":{
						"POSITION":8,
						"NORMAL":9,
						"TEXCOORD_0":10
					},
					"indices":11,
					"material":0
				},
				{
					"attributes":{
						"POSITION":12,
						"NORMAL":13,
						"TEXCOORD_0":14
					},
					"indices":15,
					"material":1
				},
				{
					"attributes":{
						"POSITION":16,
						"NORMAL":17,
						"TEXCOORD_0":18
					},
					"indices":19,
					"material":1
				}
			]
		},
		{
			"name":"Cylinder.373",
			"primitives":[
				{
					"attributes":{
						"POSITION":20,
						"NORMAL":21,
						"TEXCOORD_0":22,
						"TANGENT":23
					},
					"indices":24,
					"material":0
				},
				{
					"attributes":{
						"POSITION":25,
						"NORMAL":26,
						"TEXCOORD_0":27,
						"TANGENT":28
					},
					"indices":29,
					"material":0
				}
			]
		},
		{
			"name":"Cube.552",
			"primitives":[
				{
					"attributes":{
						"POSITION":30,
						"NORMAL":31,
						"TEXCOORD_0":32,
						"TANGENT":33
					},
					"indices":34,
					"material":0
				}
			]
		},
		{
			"name":"Cube.553",
			"primitives":[
				{
					"attributes":{
						"POSITION":35,
						"NORMAL":36,
						"TEXCOORD_0":37,
						"TANGENT":38
					},
					"indices":39,
					"material":0
				},
				{
					"attributes":{
						"POSITION":40,
						"NORMAL":41,
						"TEXCOORD_0":42,
						"TANGENT":43
					},
					"indices":44,
					"material":0
				}
			]
		},
		{
			"name":"Cube.554",
			"primitives":[
				{
					"attributes":{
						"POSITION":45,
						"NORMAL":46,
						"TEXCOORD_0":47,
						"TANGENT":48
					},
					"indices":49,
					"material":0
				},
				{
					"attributes":{
						"POSITION":50,
						"NORMAL":51,
						"TEXCOORD_0":52,
						"TANGENT":53
					},
					"indices":54,
					"material":0
				}
			]
		},
		{
			"name":"Cube.555",
			"primitives":[
				{
					"attributes":{
						"POSITION":55,
						"NORMAL":56,
						"TEXCOORD_0":57,
						"TANGENT":58
					},
					"indices":59,
					"material":0
				}
			]
		},
		{
			"name":"Cube.556",
			"primitives":[
				{
					"attributes":{
						"POSITION":60,
						"NORMAL":61,
						"TEXCOORD_0":62,
						"TANGENT":63
					},
					"indices":64,
					"material":0
				}
			]
		},
		{
			"name":"Cube.557",
			"primitives":[
				{
					"attributes":{
						"POSITION":65,
						"NORMAL":66,
						"TEXCOORD_0":67,
						"TANGENT":68
					},
					"indices":64,
					"material":0
				}
			]
		},
		{
			"name":"Cube.558",
			"primitives":[
				{
					"attributes":{
						"POSITION":69,
						"NORMAL":70,
						"TEXCOORD_0":71,
						"TANGENT":72
					},
					"indices":49,
					"material":0
				},
				{
					"attributes":{
						"POSITION":73,
						"NORMAL":74,
						"TEXCOORD_0":75,
						"TANGENT":76
					},
					"indices":77,
					"material":0
				}
			]
		}
	],
	"textures":[
		{
			"sampler":0,
			"source":0
		}
	],
	"images":[
		{
			"mimeType":"image/png",
			"name":"AvatarWearables_TX",
			"uri":"tex/AvatarWearables_TX.png"
		}
	],
	"accessors":[
		{
			"bufferView":0,
			"componentType":5126,
			"count":87,
			"max":[
				0.5080313682556152,
				-12.561180114746094,
				0.5080312490463257
			],
			"min":[
				-0.5080313682556152,
				-16.256999969482422,
				-0.5080313682556152
			],
			"type":"VEC3"
		},
		{
			"bufferView":1,
			"componentType":5126,
			"count":87,
			"type":"VEC3"
		},
		{
			"bufferView":2,
			"componentType":5126,
			"count":87,
			"type":"VEC2"
		},
		{
			"bufferView":3,
			"componentType":5123,
			"count":273,
			"type":"SCALAR"
		},
		{
			"bufferView":4,
			"componentType":5126,
			"count":72,
			"max":[
				4,
				-9.996740341186523,
				-0.2136998176574707
			],
			"min":[
				-0.6324586868286133,
				-12.815149307250977,
				-4
			],
			"type":"VEC3"
		},
		{
			"bufferView":5,
			"componentType":5126,
			"count":72,
			"type":"VEC3"
		},
		{
			"bufferView":6,
			"componentType":5126,
			"count":72,
			"type":"VEC2"
		},
		{
			"bufferView":7,
			"componentType":5123,
			"count":156,
			"type":"SCALAR"
		},
		{
			"bufferView":8,
			"componentType":5126,
			"count":260,
			"max":[
				1.7107181549072266,
				5.695939540863037,
				0.07481098175048828
			],
			"min":[
				0.6637465953826904,
				-1.9424114227294922,
				-1.7107200622558594
			],
			"type":"VEC3"
		},
		{
			"bufferView":9,
			"componentType":5126,
			"count":260,
			"type":"VEC3"
		},
		{
			"bufferView":10,
			"componentType":5126,
			"count":260,
			"type":"VEC2"
		},
		{
			"bufferView":11,
			"componentType":5123,
			"count":447,
			"type":"SCALAR"
		},
		{
			"bufferView":12,
			"componentType":5126,
			"count":42,
			"max":[
				1.7107181549072266,
				5.565956115722656,
				-0.42650628089904785
			],
			"min":[
				1.0392711162567139,
				-1.1786293983459473,
				-1.7107200622558594
			],
			"type":"VEC3"
		},
		{
			"bufferView":13,
			"componentType":5126,
			"count":42,
			"type":"VEC3"
		},
		{
			"bufferView":14,
			"componentType":5126,
			"count":42,
			"type":"VEC2"
		},
		{
			"bufferView":15,
			"componentType":5123,
			"count":72,
			"type":"SCALAR"
		},
		{
			"bufferView":16,
			"componentType":5126,
			"count":158,
			"max":[
				1.7107181549072266,
				5.695939540863037,
				0.07481098175048828
			],
			"min":[
				0.6637465953826904,
				-1.9424114227294922,
				-1.7107200622558594
			],
			"type":"VEC3"
		},
		{
			"bufferView":17,
			"componentType":5126,
			"count":158,
			"type":"VEC3"
		},
		{
			"bufferView":18,
			"componentType":5126,
			"count":158,
			"type":"VEC2"
		},
		{
			"bufferView":19,
			"componentType":5123,
			"count":429,
			"type":"SCALAR"
		},
		{
			"bufferView":20,
			"componentType":5126,
			"count":6,
			"max":[
				-3.8457279205322266,
				1.5853490829467773,
				-3.6951780319213867
			],
			"min":[
				-4,
				0.0869760513305664,
				-4
			],
			"type":"VEC3"
		},
		{
			"bufferView":21,
			"componentType":5126,
			"count":6,
			"type":"VEC3"
		},
		{
			"bufferView":22,
			"componentType":5126,
			"count":6,
			"type":"VEC2"
		},
		{
			"bufferView":23,
			"componentType":5126,
			"count":6,
			"type":"VEC4"
		},
		{
			"bufferView":24,
			"componentType":5123,
			"count":6,
			"type":"SCALAR"
		},
		{
			"bufferView":25,
			"componentType":5126,
			"count":6,
			"max":[
				-3.8457279205322266,
				1.5853490829467773,
				-3.6951780319213867
			],
			"min":[
				-4,
				0.0869760513305664,
				-4
			],
			"type":"VEC3"
		},
		{
			"bufferView":26,
			"componentType":5126,
			"count":6,
			"type":"VEC3"
		},
		{
			"bufferView":27,
			"componentType":5126,
			"count":6,
			"type":"VEC2"
		},
		{
			"bufferView":28,
			"componentType":5126,
			"count":6,
			"type":"VEC4"
		},
		{
			"bufferView":29,
			"componentType":5123,
			"count":6,
			"type":"SCALAR"
		},
		{
			"bufferView":30,
			"componentType":5126,
			"count":24,
			"max":[
				4,
				-12.10522747039795,
				-3.3084444999694824
			],
			"min":[
				3.1538963317871094,
				-12.163174629211426,
				-4
			],
			"type":"VEC3"
		},
		{
			"bufferView":31,
			"componentType":5126,
			"count":24,
			"type":"VEC3"
		},
		{
			"bufferView":32,
			"componentType":5126,
			"count":24,
			"type":"VEC2"
		},
		{
			"bufferView":33,
			"componentType":5126,
			"count":24,
			"type":"VEC4"
		},
		{
			"bufferView":34,
			"componentType":5123,
			"count":36,
			"type":"SCALAR"
		},
		{
			"bufferView":35,
			"componentType":5126,
			"count":16,
			"max":[
				4,
				-11.815491676330566,
				-2.828373908996582
			],
			"min":[
				2.566539764404297,
				-11.873438835144043,
				-4
			],
			"type":"VEC3"
		},
		{
			"bufferView":36,
			"componentType":5126,
			"count":16,
			"type":"VEC3"
		},
		{
			"bufferView":37,
			"componentType":5126,
			"count":16,
			"type":"VEC2"
		},
		{
			"bufferView":38,
			"componentType":5126,
			"count":16,
			"type":"VEC4"
		},
		{
			"bufferView":39,
			"componentType":5123,
			"count":24,
			"type":"SCALAR"
		},
		{
			"bufferView":40,
			"componentType":5126,
			"count":8,
			"max":[
				4,
				-11.815491676330566,
				-2.828373908996582
			],
			"min":[
				2.566539764404297,
				-11.873438835144043,
				-4
			],
			"type":"VEC3"
		},
		{
			"bufferView":41,
			"componentType":5126,
			"count":8,
			"type":"VEC3"
		},
		{
			"bufferView":42,
			"componentType":5126,
			"count":8,
			"type":"VEC2"
		},
		{
			"bufferView":43,
			"componentType":5126,
			"count":8,
			"type":"VEC4"
		},
		{
			"bufferView":44,
			"componentType":5123,
			"count":12,
			"type":"SCALAR"
		},
		{
			"bufferView":45,
			"componentType":5126,
			"count":16,
			"max":[
				4,
				-11.5257568359375,
				-2.3483028411865234
			],
			"min":[
				1.979183316230774,
				-11.583703994750977,
				-4
			],
			"type":"VEC3"
		},
		{
			"bufferView":46,
			"componentType":5126,
			"count":16,
			"type":"VEC3"
		},
		{
			"bufferView":47,
			"componentType":5126,
			"count":16,
			"type":"VEC2"
		},
		{
			"bufferView":48,
			"componentType":5126,
			"count":16,
			"type":"VEC4"
		},
		{
			"bufferView":49,
			"componentType":5123,
			"count":24,
			"type":"SCALAR"
		},
		{
			"bufferView":50,
			"componentType":5126,
			"count":8,
			"max":[
				4,
				-11.5257568359375,
				-2.3483028411865234
			],
			"min":[
				1.979183316230774,
				-11.583703994750977,
				-4
			],
			"type":"VEC3"
		},
		{
			"bufferView":51,
			"componentType":5126,
			"count":8,
			"type":"VEC3"
		},
		{
			"bufferView":52,
			"componentType":5126,
			"count":8,
			"type":"VEC2"
		},
		{
			"bufferView":53,
			"componentType":5126,
			"count":8,
			"type":"VEC4"
		},
		{
			"bufferView":54,
			"componentType":5123,
			"count":12,
			"type":"SCALAR"
		},
		{
			"bufferView":55,
			"componentType":5126,
			"count":24,
			"max":[
				4,
				-11.236021995544434,
				-1.868232250213623
			],
			"min":[
				1.3918267488479614,
				-11.29396915435791,
				-4
			],
			"type":"VEC3"
		},
		{
			"bufferView":56,
			"componentType":5126,
			"count":24,
			"type":"VEC3"
		},
		{
			"bufferView":57,
			"componentType":5126,
			"count":24,
			"type":"VEC2"
		},
		{
			"bufferView":58,
			"componentType":5126,
			"count":24,
			"type":"VEC4"
		},
		{
			"bufferView":59,
			"componentType":5123,
			"count":36,
			"type":"SCALAR"
		},
		{
			"bufferView":60,
			"componentType":5126,
			"count":24,
			"max":[
				4,
				-10.94628620147705,
				-1.3881616592407227
			],
			"min":[
				0.8044703602790833,
				-11.004233360290527,
				-4
			],
			"type":"VEC3"
		},
		{
			"bufferView":61,
			"componentType":5126,
			"count":24,
			"type":"VEC3"
		},
		{
			"bufferView":62,
			"componentType":5126,
			"count":24,
			"type":"VEC2"
		},
		{
			"bufferView":63,
			"componentType":5126,
			"count":24,
			"type":"VEC4"
		},
		{
			"bufferView":64,
			"componentType":5123,
			"count":36,
			"type":"SCALAR"
		},
		{
			"bufferView":65,
			"componentType":5126,
			"count":24,
			"max":[
				4,
				-10.656551361083984,
				-0.9080908298492432
			],
			"min":[
				0.21711397171020508,
				-10.714498519897461,
				-4
			],
			"type":"VEC3"
		},
		{
			"bufferView":66,
			"componentType":5126,
			"count":24,
			"type":"VEC3"
		},
		{
			"bufferView":67,
			"componentType":5126,
			"count":24,
			"type":"VEC2"
		},
		{
			"bufferView":68,
			"componentType":5126,
			"count":24,
			"type":"VEC4"
		},
		{
			"bufferView":69,
			"componentType":5126,
			"count":16,
			"max":[
				4,
				-10.366815567016602,
				-0.42802000045776367
			],
			"min":[
				-0.3702425956726074,
				-10.424762725830078,
				-4
			],
			"type":"VEC3"
		},
		{
			"bufferView":70,
			"componentType":5126,
			"count":16,
			"type":"VEC3"
		},
		{
			"bufferView":71,
			"componentType":5126,
			"count":16,
			"type":"VEC2"
		},
		{
			"bufferView":72,
			"componentType":5126,
			"count":16,
			"type":"VEC4"
		},
		{
			"bufferView":73,
			"componentType":5126,
			"count":8,
			"max":[
				4,
				-10.366815567016602,
				-0.42802000045776367
			],
			"min":[
				-0.3702425956726074,
				-10.424762725830078,
				-4
			],
			"type":"VEC3"
		},
		{
			"bufferView":74,
			"componentType":5126,
			"count":8,
			"type":"VEC3"
		},
		{
			"bufferView":75,
			"componentType":5126,
			"count":8,
			"type":"VEC2"
		},
		{
			"bufferView":76,
			"componentType":5126,
			"count":8,
			"type":"VEC4"
		},
		{
			"bufferView":77,
			"componentType":5123,
			"count":12,
			"type":"SCALAR"
		}
	],
	"bufferViews":[
		{
			"buffer":0,
			"byteLength":1044,
			"byteOffset":0,
			"target":34962
		},
		{
			"buffer":0,
			"byteLength":1044,
			"byteOffset":1044,
			"target":34962
		},
		{
			"buffer":0,
			"byteLength":696,
			"byteOffset":2088,
			"target":34962
		},
		{
			"buffer":0,
			"byteLength":546,
			"byteOffset":2784,
			"target":34963
		},
		{
			"buffer":0,
			"byteLength":864,
			"byteOffset":3332,
			"target":34962
		},
		{
			"buffer":0,
			"byteLength":864,
			"byteOffset":4196,
			"target":34962
		},
		{
			"buffer":0,
			"byteLength":576,
			"byteOffset":5060,
			"target":34962
		},
		{
			"buffer":0,
			"byteLength":312,
			"byteOffset":5636,
			"target":34963
		},
		{
			"buffer":0,
			"byteLength":3120,
			"byteOffset":5948,
			"target":34962
		},
		{
			"buffer":0,
			"byteLength":3120,
			"byteOffset":9068,
			"target":34962
		},
		{
			"buffer":0,
			"byteLength":2080,
			"byteOffset":12188,
			"target":34962
		},
		{
			"buffer":0,
			"byteLength":894,
			"byteOffset":14268,
			"target":34963
		},
		{
			"buffer":0,
			"byteLength":504,
			"byteOffset":15164,
			"target":34962
		},
		{
			"buffer":0,
			"byteLength":504,
			"byteOffset":15668,
			"target":34962
		},
		{
			"buffer":0,
			"byteLength":336,
			"byteOffset":16172,
			"target":34962
		},
		{
			"buffer":0,
			"byteLength":144,
			"byteOffset":16508,
			"target":34963
		},
		{
			"buffer":0,
			"byteLength":1896,
			"byteOffset":16652,
			"target":34962
		},
		{
			"buffer":0,
			"byteLength":1896,
			"byteOffset":18548,
			"target":34962
		},
		{
			"buffer":0,
			"byteLength":1264,
			"byteOffset":20444,
			"target":34962
		},
		{
			"buffer":0,
			"byteLength":858,
			"byteOffset":21708,
			"target":34963
		},
		{
			"buffer":0,
			"byteLength":72,
			"byteOffset":22568,
			"target":34962
		},
		{
			"buffer":0,
			"byteLength":72,
			"byteOffset":22640,
			"target":34962
		},
		{
			"buffer":0,
			"byteLength":48,
			"byteOffset":22712,
			"target":34962
		},
		{
			"buffer":0,
			"byteLength":96,
			"byteOffset":22760,
			"target":34962
		},
		{
			"buffer":0,
			"byteLength":12,
			"byteOffset":22856,
			"target":34963
		},
		{
			"buffer":0,
			"byteLength":72,
			"byteOffset":22868,
			"target":34962
		},
		{
			"buffer":0,
			"byteLength":72,
			"byteOffset":22940,
			"target":34962
		},
		{
			"buffer":0,
			"byteLength":48,
			"byteOffset":23012,
			"target":34962
		},
		{
			"buffer":0,
			"byteLength":96,
			"byteOffset":23060,
			"target":34962
		},
		{
			"buffer":0,
			"byteLength":12,
			"byteOffset":23156,
			"target":34963
		},
		{
			"buffer":0,
			"byteLength":288,
			"byteOffset":23168,
			"target":34962
		},
		{
			"buffer":0,
			"byteLength":288,
			"byteOffset":23456,
			"target":34962
		},
		{
			"buffer":0,
			"byteLength":192,
			"byteOffset":23744,
			"target":34962
		},
		{
			"buffer":0,
			"byteLength":384,
			"byteOffset":23936,
			"target":34962
		},
		{
			"buffer":0,
			"byteLength":72,
			"byteOffset":24320,
			"target":34963
		},
		{
			"buffer":0,
			"byteLength":192,
			"byteOffset":24392,
			"target":34962
		},
		{
			"buffer":0,
			"byteLength":192,
			"byteOffset":24584,
			"target":34962
		},
		{
			"buffer":0,
			"byteLength":128,
			"byteOffset":24776,
			"target":34962
		},
		{
			"buffer":0,
			"byteLength":256,
			"byteOffset":24904,
			"target":34962
		},
		{
			"buffer":0,
			"byteLength":48,
			"byteOffset":25160,
			"target":34963
		},
		{
			"buffer":0,
			"byteLength":96,
			"byteOffset":25208,
			"target":34962
		},
		{
			"buffer":0,
			"byteLength":96,
			"byteOffset":25304,
			"target":34962
		},
		{
			"buffer":0,
			"byteLength":64,
			"byteOffset":25400,
			"target":34962
		},
		{
			"buffer":0,
			"byteLength":128,
			"byteOffset":25464,
			"target":34962
		},
		{
			"buffer":0,
			"byteLength":24,
			"byteOffset":25592,
			"target":34963
		},
		{
			"buffer":0,
			"byteLength":192,
			"byteOffset":25616,
			"target":34962
		},
		{
			"buffer":0,
			"byteLength":192,
			"byteOffset":25808,
			"target":34962
		},
		{
			"buffer":0,
			"byteLength":128,
			"byteOffset":26000,
			"target":34962
		},
		{
			"buffer":0,
			"byteLength":256,
			"byteOffset":26128,
			"target":34962
		},
		{
			"buffer":0,
			"byteLength":48,
			"byteOffset":26384,
			"target":34963
		},
		{
			"buffer":0,
			"byteLength":96,
			"byteOffset":26432,
			"target":34962
		},
		{
			"buffer":0,
			"byteLength":96,
			"byteOffset":26528,
			"target":34962
		},
		{
			"buffer":0,
			"byteLength":64,
			"byteOffset":26624,
			"target":34962
		},
		{
			"buffer":0,
			"byteLength":128,
			"byteOffset":26688,
			"target":34962
		},
		{
			"buffer":0,
			"byteLength":24,
			"byteOffset":26816,
			"target":34963
		},
		{
			"buffer":0,
			"byteLength":288,
			"byteOffset":26840,
			"target":34962
		},
		{
			"buffer":0,
			"byteLength":288,
			"byteOffset":27128,
			"target":34962
		},
		{
			"buffer":0,
			"byteLength":192,
			"byteOffset":27416,
			"target":34962
		},
		{
			"buffer":0,
			"byteLength":384,
			"byteOffset":27608,
			"target":34962
		},
		{
			"buffer":0,
			"byteLength":72,
			"byteOffset":27992,
			"target":34963
		},
		{
			"buffer":0,
			"byteLength":288,
			"byteOffset":28064,
			"target":34962
		},
		{
			"buffer":0,
			"byteLength":288,
			"byteOffset":28352,
			"target":34962
		},
		{
			"buffer":0,
			"byteLength":192,
			"byteOffset":28640,
			"target":34962
		},
		{
			"buffer":0,
			"byteLength":384,
			"byteOffset":28832,
			"target":34962
		},
		{
			"buffer":0,
			"byteLength":72,
			"byteOffset":29216,
			"target":34963
		},
		{
			"buffer":0,
			"byteLength":288,
			"byteOffset":29288,
			"target":34962
		},
		{
			"buffer":0,
			"byteLength":288,
			"byteOffset":29576,
			"target":34962
		},
		{
			"buffer":0,
			"byteLength":192,
			"byteOffset":29864,
			"target":34962
		},
		{
			"buffer":0,
			"byteLength":384,
			"byteOffset":30056,
			"target":34962
		},
		{
			"buffer":0,
			"byteLength":192,
			"byteOffset":30440,
			"target":34962
		},
		{
			"buffer":0,
			"byteLength":192,
			"byteOffset":30632,
			"target":34962
		},
		{
			"buffer":0,
			"byteLength":128,
			"byteOffset":30824,
			"target":34962
		},
		{
			"buffer":0,
			"byteLength":256,
			"byteOffset":30952,
			"target":34962
		},
		{
			"buffer":0,
			"byteLength":96,
			"byteOffset":31208,
			"target":34962
		},
		{
			"buffer":0,
			"byteLength":96,
			"byteOffset":31304,
			"target":34962
		},
		{
			"buffer":0,
			"byteLength":64,
			"byteOffset":31400,
			"target":34962
		},
		{
			"buffer":0,
			"byteLength":128,
			"byteOffset":31464,
			"target":34962
		},
		{
			"buffer":0,
			"byteLength":24,
			"byteOffset":31592,
			"target":34963
		}
	],
	"samplers":[
		{
			"magFilter":9729,
			"minFilter":9987
		}
	],
	"buffers":[
		{
			"byteLength":31616,
			"uri":"tile_5_0_7.bin"
		}
	]
}
