{
	"asset":{
		"generator":"Khronos glTF Blender I/O v4.0.44",
		"version":"2.0"
	},
	"extensionsUsed":[
		"KHR_materials_specular",
		"KHR_materials_ior",
		"KHR_materials_emissive_strength"
	],
	"scene":0,
	"scenes":[
		{
			"name":"Scene",
			"nodes":[
				0,
				1,
				2,
				3,
				4,
				5
			]
		}
	],
	"nodes":[
		{
			"mesh":0,
			"name":"Plane",
			"scale":[
				7.873531341552734,
				0.9841914176940918,
				7.873531341552734
			]
		},
		{
			"name":"track.165",
			"scale":[
				3.7706682682037354,
				3.7706682682037354,
				3.7706682682037354
			]
		},
		{
			"mesh":1,
			"name":"Cube.004",
			"rotation":[
				0,
				0.7251519560813904,
				0,
				0.6885889172554016
			],
			"scale":[
				1.9629734754562378,
				3.1461997032165527,
				1.9629734754562378
			]
		},
		{
			"mesh":2,
			"name":"Cylinder.016"
		},
		{
			"mesh":3,
			"name":"Cylinder.100"
		},
		{
			"mesh":4,
			"name":"Cylinder.102"
		}
	],
	"materials":[
		{
			"doubleSided":true,
			"extensions":{
				"KHR_materials_specular":{
					"specularColorFactor":[
						2.0,
						2.0,
						2.0
					]
				},
				"KHR_materials_ior":{
					"ior":1.4500000476837158
				}
			},
			"name":"building",
			"pbrMetallicRoughness":{
				"baseColorTexture":{
					"index":0
				},
				"metallicFactor":0
			}
		},
		{
			"doubleSided":true,
			"emissiveFactor":[
				0.09784298909313212,
				1,
				0.08569416583338194
			],
			"extensions":{
				"KHR_materials_emissive_strength":{
					"emissiveStrength":1.5982129573822021
				}
			},
			"name":"Glow4",
			"pbrMetallicRoughness":{
				"baseColorFactor":[
					0.078976109623909,
					0.8012131452560425,
					0.06799241155385971,
					1
				],
				"metallicFactor":0
			}
		}
	],
	"meshes":[
		{
			"name":"Plane.980",
			"primitives":[
				{
					"attributes":{
						"POSITION":0,
						"NORMAL":1,
						"TEXCOORD_0":2
					},
					"indices":3,
					"material":0
				}
			]
		},
		{
			"name":"Cube.642",
			"primitives":[
				{
					"attributes":{
						"POSITION":4,
						"NORMAL":5,
						"TEXCOORD_0":6
					},
					"indices":7,
					"material":0
				},
				{
					"attributes":{
						"POSITION":8,
						"NORMAL":9,
						"TEXCOORD_0":10
					},
					"indices":11,
					"material":1
				},
				{
					"attributes":{
						"POSITION":12,
						"NORMAL":13,
						"TEXCOORD_0":14
					},
					"indices":15,
					"material":1
				}
			]
		},
		{
			"name":"Cylinder.419",
			"primitives":[
				{
					"attributes":{
						"POSITION":16,
						"NORMAL":17,
						"TEXCOORD_0":18
					},
					"indices":19,
					"material":0
				}
			]
		},
		{
			"name":"Cylinder.420",
			"primitives":[
				{
					"attributes":{
						"POSITION":20,
						"NORMAL":21,
						"TEXCOORD_0":22
					},
					"indices":23,
					"material":0
				},
				{
					"attributes":{
						"POSITION":24,
						"NORMAL":25,
						"TEXCOORD_0":26
					},
					"indices":27,
					"material":0
				}
			]
		},
		{
			"name":"Cylinder.421",
			"primitives":[
				{
					"attributes":{
						"POSITION":28,
						"NORMAL":29,
						"TEXCOORD_0":30
					},
					"indices":31,
					"material":0
				},
				{
					"attributes":{
						"POSITION":32,
						"NORMAL":33,
						"TEXCOORD_0":34
					},
					"indices":35,
					"material":0
				}
			]
		}
	],
	"textures":[
		{
			"sampler":0,
			"source":0
		}
	],
	"images":[
		{
			"mimeType":"image/png",
			"name":"AvatarWearables_TX",
			"uri":"tex/AvatarWearables_TX.png"
		}
	],
	"accessors":[
		{
			"bufferView":0,
			"componentType":5126,
			"count":43,
			"max":[
				0.5080313682556152,
				-14.706045150756836,
				0.5080304145812988
			],
			"min":[
				-0.5080312490463257,
				-14.900496482849121,
				-0.5080323219299316
			],
			"type":"VEC3"
		},
		{
			"bufferView":1,
			"componentType":5126,
			"count":43,
			"type":"VEC3"
		},
		{
			"bufferView":2,
			"componentType":5126,
			"count":43,
			"type":"VEC2"
		},
		{
			"bufferView":3,
			"componentType":5123,
			"count":162,
			"type":"SCALAR"
		},
		{
			"bufferView":4,
			"componentType":5126,
			"count":2511,
			"max":[
				2.091012954711914,
				-0.6547188758850098,
				-0.9769248962402344
			],
			"min":[
				-0.02993035316467285,
				-4.646101474761963,
				-2.0419976711273193
			],
			"type":"VEC3"
		},
		{
			"bufferView":5,
			"componentType":5126,
			"count":2511,
			"type":"VEC3"
		},
		{
			"bufferView":6,
			"componentType":5126,
			"count":2511,
			"type":"VEC2"
		},
		{
			"bufferView":7,
			"componentType":5123,
			"count":5043,
			"type":"SCALAR"
		},
		{
			"bufferView":8,
			"componentType":5126,
			"count":516,
			"max":[
				2.140326499938965,
				-0.6547188758850098,
				-0.9769248962402344
			],
			"min":[
				-0.02992844581604004,
				-4.358293056488037,
				-2.0419974327087402
			],
			"type":"VEC3"
		},
		{
			"bufferView":9,
			"componentType":5126,
			"count":516,
			"type":"VEC3"
		},
		{
			"bufferView":10,
			"componentType":5126,
			"count":516,
			"type":"VEC2"
		},
		{
			"bufferView":11,
			"componentType":5123,
			"count":900,
			"type":"SCALAR"
		},
		{
			"bufferView":12,
			"componentType":5126,
			"count":466,
			"max":[
				2.140326499938965,
				-0.6547188758850098,
				-0.9769253730773926
			],
			"min":[
				-0.029927849769592285,
				-4.646101474761963,
				-2.0419976711273193
			],
			"type":"VEC3"
		},
		{
			"bufferView":13,
			"componentType":5126,
			"count":466,
			"type":"VEC3"
		},
		{
			"bufferView":14,
			"componentType":5126,
			"count":466,
			"type":"VEC2"
		},
		{
			"bufferView":15,
			"componentType":5123,
			"count":1329,
			"type":"SCALAR"
		},
		{
			"bufferView":16,
			"componentType":5126,
			"count":36,
			"max":[
				2.7485108375549316,
				-11.994487762451172,
				-3.4983503818511963
			],
			"min":[
				1.3028087615966797,
				-14.551252365112305,
				-4
			],
			"type":"VEC3"
		},
		{
			"bufferView":17,
			"componentType":5126,
			"count":36,
			"type":"VEC3"
		},
		{
			"bufferView":18,
			"componentType":5126,
			"count":36,
			"type":"VEC2"
		},
		{
			"bufferView":19,
			"componentType":5123,
			"count":102,
			"type":"SCALAR"
		},
		{
			"bufferView":20,
			"componentType":5126,
			"count":43,
			"max":[
				4,
				-2.0470352172851562,
				-2.1671392917633057
			],
			"min":[
				-0.054064273834228516,
				-6.58601188659668,
				-4
			],
			"type":"VEC3"
		},
		{
			"bufferView":21,
			"componentType":5126,
			"count":43,
			"type":"VEC3"
		},
		{
			"bufferView":22,
			"componentType":5126,
			"count":43,
			"type":"VEC2"
		},
		{
			"bufferView":23,
			"componentType":5123,
			"count":57,
			"type":"SCALAR"
		},
		{
			"bufferView":24,
			"componentType":5126,
			"count":17,
			"max":[
				4,
				-2.0470352172851562,
				-3.1858413219451904
			],
			"min":[
				-0.054064273834228516,
				-6.58601188659668,
				-4
			],
			"type":"VEC3"
		},
		{
			"bufferView":25,
			"componentType":5126,
			"count":17,
			"type":"VEC3"
		},
		{
			"bufferView":26,
			"componentType":5126,
			"count":17,
			"type":"VEC2"
		},
		{
			"bufferView":27,
			"componentType":5123,
			"count":39,
			"type":"SCALAR"
		},
		{
			"bufferView":28,
			"componentType":5126,
			"count":40,
			"max":[
				1.6128588914871216,
				-11.549154281616211,
				-3.7307825088500977
			],
			"min":[
				0.8103011846542358,
				-12.338456153869629,
				-4
			],
			"type":"VEC3"
		},
		{
			"bufferView":29,
			"componentType":5126,
			"count":40,
			"type":"VEC3"
		},
		{
			"bufferView":30,
			"componentType":5126,
			"count":40,
			"type":"VEC2"
		},
		{
			"bufferView":31,
			"componentType":5123,
			"count":48,
			"type":"SCALAR"
		},
		{
			"bufferView":32,
			"componentType":5126,
			"count":10,
			"max":[
				1.6128588914871216,
				-11.549154281616211,
				-4
			],
			"min":[
				0.8103011846542358,
				-12.338456153869629,
				-4
			],
			"type":"VEC3"
		},
		{
			"bufferView":33,
			"componentType":5126,
			"count":10,
			"type":"VEC3"
		},
		{
			"bufferView":34,
			"componentType":5126,
			"count":10,
			"type":"VEC2"
		},
		{
			"bufferView":35,
			"componentType":5123,
			"count":24,
			"type":"SCALAR"
		}
	],
	"bufferViews":[
		{
			"buffer":0,
			"byteLength":516,
			"byteOffset":0,
			"target":34962
		},
		{
			"buffer":0,
			"byteLength":516,
			"byteOffset":516,
			"target":34962
		},
		{
			"buffer":0,
			"byteLength":344,
			"byteOffset":1032,
			"target":34962
		},
		{
			"buffer":0,
			"byteLength":324,
			"byteOffset":1376,
			"target":34963
		},
		{
			"buffer":0,
			"byteLength":30132,
			"byteOffset":1700,
			"target":34962
		},
		{
			"buffer":0,
			"byteLength":30132,
			"byteOffset":31832,
			"target":34962
		},
		{
			"buffer":0,
			"byteLength":20088,
			"byteOffset":61964,
			"target":34962
		},
		{
			"buffer":0,
			"byteLength":10086,
			"byteOffset":82052,
			"target":34963
		},
		{
			"buffer":0,
			"byteLength":6192,
			"byteOffset":92140,
			"target":34962
		},
		{
			"buffer":0,
			"byteLength":6192,
			"byteOffset":98332,
			"target":34962
		},
		{
			"buffer":0,
			"byteLength":4128,
			"byteOffset":104524,
			"target":34962
		},
		{
			"buffer":0,
			"byteLength":1800,
			"byteOffset":108652,
			"target":34963
		},
		{
			"buffer":0,
			"byteLength":5592,
			"byteOffset":110452,
			"target":34962
		},
		{
			"buffer":0,
			"byteLength":5592,
			"byteOffset":116044,
			"target":34962
		},
		{
			"buffer":0,
			"byteLength":3728,
			"byteOffset":121636,
			"target":34962
		},
		{
			"buffer":0,
			"byteLength":2658,
			"byteOffset":125364,
			"target":34963
		},
		{
			"buffer":0,
			"byteLength":432,
			"byteOffset":128024,
			"target":34962
		},
		{
			"buffer":0,
			"byteLength":432,
			"byteOffset":128456,
			"target":34962
		},
		{
			"buffer":0,
			"byteLength":288,
			"byteOffset":128888,
			"target":34962
		},
		{
			"buffer":0,
			"byteLength":204,
			"byteOffset":129176,
			"target":34963
		},
		{
			"buffer":0,
			"byteLength":516,
			"byteOffset":129380,
			"target":34962
		},
		{
			"buffer":0,
			"byteLength":516,
			"byteOffset":129896,
			"target":34962
		},
		{
			"buffer":0,
			"byteLength":344,
			"byteOffset":130412,
			"target":34962
		},
		{
			"buffer":0,
			"byteLength":114,
			"byteOffset":130756,
			"target":34963
		},
		{
			"buffer":0,
			"byteLength":204,
			"byteOffset":130872,
			"target":34962
		},
		{
			"buffer":0,
			"byteLength":204,
			"byteOffset":131076,
			"target":34962
		},
		{
			"buffer":0,
			"byteLength":136,
			"byteOffset":131280,
			"target":34962
		},
		{
			"buffer":0,
			"byteLength":78,
			"byteOffset":131416,
			"target":34963
		},
		{
			"buffer":0,
			"byteLength":480,
			"byteOffset":131496,
			"target":34962
		},
		{
			"buffer":0,
			"byteLength":480,
			"byteOffset":131976,
			"target":34962
		},
		{
			"buffer":0,
			"byteLength":320,
			"byteOffset":132456,
			"target":34962
		},
		{
			"buffer":0,
			"byteLength":96,
			"byteOffset":132776,
			"target":34963
		},
		{
			"buffer":0,
			"byteLength":120,
			"byteOffset":132872,
			"target":34962
		},
		{
			"buffer":0,
			"byteLength":120,
			"byteOffset":132992,
			"target":34962
		},
		{
			"buffer":0,
			"byteLength":80,
			"byteOffset":133112,
			"target":34962
		},
		{
			"buffer":0,
			"byteLength":48,
			"byteOffset":133192,
			"target":34963
		}
	],
	"samplers":[
		{
			"magFilter":9729,
			"minFilter":9987
		}
	],
	"buffers":[
		{
			"byteLength":133240,
			"uri":"tile_13_0_8.bin"
		}
	]
}
