{
	"asset":{
		"generator":"Khronos glTF Blender I/O v4.0.44",
		"version":"2.0"
	},
	"extensionsUsed":[
		"KHR_materials_specular",
		"KHR_materials_ior",
		"KHR_materials_emissive_strength"
	],
	"scene":0,
	"scenes":[
		{
			"name":"Scene",
			"nodes":[
				0,
				1,
				2
			]
		}
	],
	"nodes":[
		{
			"mesh":0,
			"name":"Plane",
			"scale":[
				7.873531341552734,
				0.9841914176940918,
				7.873531341552734
			]
		},
		{
			"name":"track.276",
			"scale":[
				3.7706682682037354,
				3.7706682682037354,
				3.7706682682037354
			]
		},
		{
			"mesh":1,
			"name":"Cube.002",
			"rotation":[
				0,
				-0.30317404866218567,
				0,
				0.9529352188110352
			],
			"scale":[
				3.3134214878082275,
				3.3134217262268066,
				3.3134214878082275
			]
		}
	],
	"materials":[
		{
			"doubleSided":true,
			"extensions":{
				"KHR_materials_specular":{
					"specularColorFactor":[
						2.0,
						2.0,
						2.0
					]
				},
				"KHR_materials_ior":{
					"ior":1.4500000476837158
				}
			},
			"name":"building",
			"pbrMetallicRoughness":{
				"baseColorTexture":{
					"index":0
				},
				"metallicFactor":0
			}
		},
		{
			"doubleSided":true,
			"emissiveFactor":[
				0.0802171136311348,
				0.06480263589233753,
				1
			],
			"extensions":{
				"KHR_materials_emissive_strength":{
					"emissiveStrength":2.0000481605529785
				}
			},
			"name":"Glow5",
			"pbrMetallicRoughness":{
				"baseColorFactor":[
					0.08072357624769211,
					0.06527391821146011,
					1,
					1
				],
				"metallicFactor":0
			}
		}
	],
	"meshes":[
		{
			"name":"Plane.1202",
			"primitives":[
				{
					"attributes":{
						"POSITION":0,
						"NORMAL":1,
						"TEXCOORD_0":2,
						"TANGENT":3
					},
					"indices":4,
					"material":0
				}
			]
		},
		{
			"name":"Cube.693",
			"primitives":[
				{
					"attributes":{
						"POSITION":5,
						"NORMAL":6,
						"TEXCOORD_0":7
					},
					"indices":8,
					"material":0
				},
				{
					"attributes":{
						"POSITION":9,
						"NORMAL":10,
						"TEXCOORD_0":11
					},
					"indices":12,
					"material":1
				},
				{
					"attributes":{
						"POSITION":13,
						"NORMAL":14,
						"TEXCOORD_0":15
					},
					"indices":16,
					"material":1
				}
			]
		}
	],
	"textures":[
		{
			"sampler":0,
			"source":0
		}
	],
	"images":[
		{
			"mimeType":"image/png",
			"name":"AvatarWearables_TX",
			"uri":"tex/AvatarWearables_TX.png"
		}
	],
	"accessors":[
		{
			"bufferView":0,
			"componentType":5126,
			"count":62,
			"max":[
				0.5080289840698242,
				-14.567778587341309,
				0.5080313682556152
			],
			"min":[
				-0.5080327987670898,
				-14.900496482849121,
				-0.41324806213378906
			],
			"type":"VEC3"
		},
		{
			"bufferView":1,
			"componentType":5126,
			"count":62,
			"type":"VEC3"
		},
		{
			"bufferView":2,
			"componentType":5126,
			"count":62,
			"type":"VEC2"
		},
		{
			"bufferView":3,
			"componentType":5126,
			"count":62,
			"type":"VEC4"
		},
		{
			"bufferView":4,
			"componentType":5123,
			"count":192,
			"type":"SCALAR"
		},
		{
			"bufferView":5,
			"componentType":5126,
			"count":542,
			"max":[
				0.6225272417068481,
				1.3054468631744385,
				1.6828302145004272
			],
			"min":[
				-0.744576096534729,
				-4.483445167541504,
				1.0375546216964722
			],
			"type":"VEC3"
		},
		{
			"bufferView":6,
			"componentType":5126,
			"count":542,
			"type":"VEC3"
		},
		{
			"bufferView":7,
			"componentType":5126,
			"count":542,
			"type":"VEC2"
		},
		{
			"bufferView":8,
			"componentType":5123,
			"count":954,
			"type":"SCALAR"
		},
		{
			"bufferView":9,
			"componentType":5126,
			"count":39,
			"max":[
				0.06452089548110962,
				1.1188695430755615,
				1.6828302145004272
			],
			"min":[
				-0.6017225980758667,
				-3.588505744934082,
				1.2393385171890259
			],
			"type":"VEC3"
		},
		{
			"bufferView":10,
			"componentType":5126,
			"count":39,
			"type":"VEC3"
		},
		{
			"bufferView":11,
			"componentType":5126,
			"count":39,
			"type":"VEC2"
		},
		{
			"bufferView":12,
			"componentType":5123,
			"count":57,
			"type":"SCALAR"
		},
		{
			"bufferView":13,
			"componentType":5126,
			"count":95,
			"max":[
				0.6225272417068481,
				1.3054468631744385,
				1.6828302145004272
			],
			"min":[
				-0.744576096534729,
				-4.483445167541504,
				1.0375546216964722
			],
			"type":"VEC3"
		},
		{
			"bufferView":14,
			"componentType":5126,
			"count":95,
			"type":"VEC3"
		},
		{
			"bufferView":15,
			"componentType":5126,
			"count":95,
			"type":"VEC2"
		},
		{
			"bufferView":16,
			"componentType":5123,
			"count":273,
			"type":"SCALAR"
		}
	],
	"bufferViews":[
		{
			"buffer":0,
			"byteLength":744,
			"byteOffset":0,
			"target":34962
		},
		{
			"buffer":0,
			"byteLength":744,
			"byteOffset":744,
			"target":34962
		},
		{
			"buffer":0,
			"byteLength":496,
			"byteOffset":1488,
			"target":34962
		},
		{
			"buffer":0,
			"byteLength":992,
			"byteOffset":1984,
			"target":34962
		},
		{
			"buffer":0,
			"byteLength":384,
			"byteOffset":2976,
			"target":34963
		},
		{
			"buffer":0,
			"byteLength":6504,
			"byteOffset":3360,
			"target":34962
		},
		{
			"buffer":0,
			"byteLength":6504,
			"byteOffset":9864,
			"target":34962
		},
		{
			"buffer":0,
			"byteLength":4336,
			"byteOffset":16368,
			"target":34962
		},
		{
			"buffer":0,
			"byteLength":1908,
			"byteOffset":20704,
			"target":34963
		},
		{
			"buffer":0,
			"byteLength":468,
			"byteOffset":22612,
			"target":34962
		},
		{
			"buffer":0,
			"byteLength":468,
			"byteOffset":23080,
			"target":34962
		},
		{
			"buffer":0,
			"byteLength":312,
			"byteOffset":23548,
			"target":34962
		},
		{
			"buffer":0,
			"byteLength":114,
			"byteOffset":23860,
			"target":34963
		},
		{
			"buffer":0,
			"byteLength":1140,
			"byteOffset":23976,
			"target":34962
		},
		{
			"buffer":0,
			"byteLength":1140,
			"byteOffset":25116,
			"target":34962
		},
		{
			"buffer":0,
			"byteLength":760,
			"byteOffset":26256,
			"target":34962
		},
		{
			"buffer":0,
			"byteLength":546,
			"byteOffset":27016,
			"target":34963
		}
	],
	"samplers":[
		{
			"magFilter":9729,
			"minFilter":9987
		}
	],
	"buffers":[
		{
			"byteLength":27564,
			"uri":"tile_22_0_11.bin"
		}
	]
}
