{
	"asset":{
		"generator":"Khronos glTF Blender I/O v4.0.44",
		"version":"2.0"
	},
	"extensionsUsed":[
		"KHR_materials_specular",
		"KHR_materials_ior",
		"KHR_materials_emissive_strength"
	],
	"scene":0,
	"scenes":[
		{
			"name":"Scene",
			"nodes":[
				0,
				1,
				2
			]
		}
	],
	"nodes":[
		{
			"mesh":0,
			"name":"Plane",
			"scale":[
				7.873531341552734,
				0.9841914176940918,
				7.873531341552734
			]
		},
		{
			"name":"track.144",
			"scale":[
				3.7706682682037354,
				3.7706682682037354,
				3.7706682682037354
			]
		},
		{
			"mesh":1,
			"name":"Cylinder.004",
			"scale":[
				1.0180153846740723,
				6.981534957885742,
				1.0180153846740723
			]
		}
	],
	"materials":[
		{
			"doubleSided":true,
			"extensions":{
				"KHR_materials_specular":{
					"specularColorFactor":[
						2.0,
						2.0,
						2.0
					]
				},
				"KHR_materials_ior":{
					"ior":1.4500000476837158
				}
			},
			"name":"building",
			"pbrMetallicRoughness":{
				"baseColorTexture":{
					"index":0
				},
				"metallicFactor":0
			}
		},
		{
			"doubleSided":true,
			"extensions":{
				"KHR_materials_specular":{
					"specularColorFactor":[
						2.0,
						2.0,
						2.0
					]
				},
				"KHR_materials_ior":{
					"ior":1.4500000476837158
				}
			},
			"name":"building2",
			"pbrMetallicRoughness":{
				"baseColorTexture":{
					"index":1
				},
				"metallicFactor":0,
				"roughnessFactor":0.17924527823925018
			}
		},
		{
			"doubleSided":true,
			"emissiveFactor":[
				0.7991064786911011,
				0.15292732417583466,
				0.6038312911987305
			],
			"name":"Glow3",
			"pbrMetallicRoughness":{
				"baseColorFactor":[
					0.8004003763198853,
					0.1514851152896881,
					0.604170024394989,
					1
				],
				"metallicFactor":0,
				"roughnessFactor":0.5
			}
		},
		{
			"doubleSided":true,
			"emissiveFactor":[
				1,
				0.2655798013274177,
				0.04142626284219435
			],
			"extensions":{
				"KHR_materials_emissive_strength":{
					"emissiveStrength":1.5982129573822021
				}
			},
			"name":"Glow1",
			"pbrMetallicRoughness":{
				"baseColorFactor":[
					0.8008996248245239,
					0.21048900485038757,
					0.033567022532224655,
					1
				],
				"metallicFactor":0
			}
		}
	],
	"meshes":[
		{
			"name":"Plane.938",
			"primitives":[
				{
					"attributes":{
						"POSITION":0,
						"NORMAL":1,
						"TEXCOORD_0":2,
						"TANGENT":3
					},
					"indices":4,
					"material":0
				}
			]
		},
		{
			"name":"Cylinder.416",
			"primitives":[
				{
					"attributes":{
						"POSITION":5,
						"NORMAL":6,
						"TEXCOORD_0":7
					},
					"indices":8,
					"material":1
				},
				{
					"attributes":{
						"POSITION":9,
						"NORMAL":10,
						"TEXCOORD_0":11
					},
					"indices":12,
					"material":2
				},
				{
					"attributes":{
						"POSITION":13,
						"NORMAL":14,
						"TEXCOORD_0":15
					},
					"indices":16,
					"material":3
				}
			]
		}
	],
	"textures":[
		{
			"sampler":0,
			"source":0
		},
		{
			"sampler":0,
			"source":0
		}
	],
	"images":[
		{
			"mimeType":"image/png",
			"name":"AvatarWearables_TX",
			"uri":"tex/AvatarWearables_TX.png"
		}
	],
	"accessors":[
		{
			"bufferView":0,
			"componentType":5126,
			"count":62,
			"max":[
				0.5080312490463257,
				-14.567778587341309,
				0.5080313682556152
			],
			"min":[
				-0.5080312490463257,
				-14.900496482849121,
				-0.41324806213378906
			],
			"type":"VEC3"
		},
		{
			"bufferView":1,
			"componentType":5126,
			"count":62,
			"type":"VEC3"
		},
		{
			"bufferView":2,
			"componentType":5126,
			"count":62,
			"type":"VEC2"
		},
		{
			"bufferView":3,
			"componentType":5126,
			"count":62,
			"type":"VEC4"
		},
		{
			"bufferView":4,
			"componentType":5123,
			"count":192,
			"type":"SCALAR"
		},
		{
			"bufferView":5,
			"componentType":5126,
			"count":360,
			"max":[
				2.1140294075012207,
				-0.16687601804733276,
				3.929213523864746
			],
			"min":[
				1.1620101928710938,
				-2.1043758392333984,
				3.7907347679138184
			],
			"type":"VEC3"
		},
		{
			"bufferView":6,
			"componentType":5126,
			"count":360,
			"type":"VEC3"
		},
		{
			"bufferView":7,
			"componentType":5126,
			"count":360,
			"type":"VEC2"
		},
		{
			"bufferView":8,
			"componentType":5123,
			"count":1101,
			"type":"SCALAR"
		},
		{
			"bufferView":9,
			"componentType":5126,
			"count":58,
			"max":[
				1.9064857959747314,
				-0.35732394456863403,
				3.929213523864746
			],
			"min":[
				1.3804316520690918,
				-1.9137349128723145,
				3.876894235610962
			],
			"type":"VEC3"
		},
		{
			"bufferView":10,
			"componentType":5126,
			"count":58,
			"type":"VEC3"
		},
		{
			"bufferView":11,
			"componentType":5126,
			"count":58,
			"type":"VEC2"
		},
		{
			"bufferView":12,
			"componentType":5123,
			"count":132,
			"type":"SCALAR"
		},
		{
			"bufferView":13,
			"componentType":5126,
			"count":268,
			"max":[
				2.1140294075012207,
				-0.16687601804733276,
				3.929213523864746
			],
			"min":[
				1.1620101928710938,
				-2.1043758392333984,
				3.929213523864746
			],
			"type":"VEC3"
		},
		{
			"bufferView":14,
			"componentType":5126,
			"count":268,
			"type":"VEC3"
		},
		{
			"bufferView":15,
			"componentType":5126,
			"count":268,
			"type":"VEC2"
		},
		{
			"bufferView":16,
			"componentType":5123,
			"count":741,
			"type":"SCALAR"
		}
	],
	"bufferViews":[
		{
			"buffer":0,
			"byteLength":744,
			"byteOffset":0,
			"target":34962
		},
		{
			"buffer":0,
			"byteLength":744,
			"byteOffset":744,
			"target":34962
		},
		{
			"buffer":0,
			"byteLength":496,
			"byteOffset":1488,
			"target":34962
		},
		{
			"buffer":0,
			"byteLength":992,
			"byteOffset":1984,
			"target":34962
		},
		{
			"buffer":0,
			"byteLength":384,
			"byteOffset":2976,
			"target":34963
		},
		{
			"buffer":0,
			"byteLength":4320,
			"byteOffset":3360,
			"target":34962
		},
		{
			"buffer":0,
			"byteLength":4320,
			"byteOffset":7680,
			"target":34962
		},
		{
			"buffer":0,
			"byteLength":2880,
			"byteOffset":12000,
			"target":34962
		},
		{
			"buffer":0,
			"byteLength":2202,
			"byteOffset":14880,
			"target":34963
		},
		{
			"buffer":0,
			"byteLength":696,
			"byteOffset":17084,
			"target":34962
		},
		{
			"buffer":0,
			"byteLength":696,
			"byteOffset":17780,
			"target":34962
		},
		{
			"buffer":0,
			"byteLength":464,
			"byteOffset":18476,
			"target":34962
		},
		{
			"buffer":0,
			"byteLength":264,
			"byteOffset":18940,
			"target":34963
		},
		{
			"buffer":0,
			"byteLength":3216,
			"byteOffset":19204,
			"target":34962
		},
		{
			"buffer":0,
			"byteLength":3216,
			"byteOffset":22420,
			"target":34962
		},
		{
			"buffer":0,
			"byteLength":2144,
			"byteOffset":25636,
			"target":34962
		},
		{
			"buffer":0,
			"byteLength":1482,
			"byteOffset":27780,
			"target":34963
		}
	],
	"samplers":[
		{
			"magFilter":9729,
			"minFilter":9987
		}
	],
	"buffers":[
		{
			"byteLength":29264,
			"uri":"tile_11_0_11.bin"
		}
	]
}
