{
	"asset":{
		"generator":"Khronos glTF Blender I/O v4.0.44",
		"version":"2.0"
	},
	"extensionsUsed":[
		"KHR_materials_specular",
		"KHR_materials_ior"
	],
	"scene":0,
	"scenes":[
		{
			"name":"Scene",
			"nodes":[
				0,
				1,
				2,
				3,
				4,
				5,
				6,
				7,
				8,
				9
			]
		}
	],
	"nodes":[
		{
			"mesh":0,
			"name":"Plane",
			"scale":[
				7.873531341552734,
				0.9841914176940918,
				7.873531341552734
			]
		},
		{
			"mesh":1,
			"name":"track.025",
			"scale":[
				3.7706682682037354,
				3.7706682682037354,
				3.7706682682037354
			]
		},
		{
			"mesh":2,
			"name":"Cube.010"
		},
		{
			"mesh":3,
			"name":"Cube.098"
		},
		{
			"mesh":4,
			"name":"Cube.099"
		},
		{
			"mesh":5,
			"name":"Cube.100"
		},
		{
			"mesh":6,
			"name":"Cube.101"
		},
		{
			"mesh":7,
			"name":"Cube.102"
		},
		{
			"mesh":8,
			"name":"Cube.103"
		},
		{
			"mesh":9,
			"name":"Cube.104"
		}
	],
	"materials":[
		{
			"doubleSided":true,
			"extensions":{
				"KHR_materials_specular":{
					"specularColorFactor":[
						2.0,
						2.0,
						2.0
					]
				},
				"KHR_materials_ior":{
					"ior":1.4500000476837158
				}
			},
			"name":"building",
			"pbrMetallicRoughness":{
				"baseColorTexture":{
					"index":0
				},
				"metallicFactor":0
			}
		}
	],
	"meshes":[
		{
			"name":"Plane.702",
			"primitives":[
				{
					"attributes":{
						"POSITION":0,
						"NORMAL":1,
						"TEXCOORD_0":2,
						"TANGENT":3
					},
					"indices":4,
					"material":0
				}
			]
		},
		{
			"name":"Plane.703",
			"primitives":[
				{
					"attributes":{
						"POSITION":5,
						"NORMAL":6,
						"TEXCOORD_0":7
					},
					"indices":8,
					"material":0
				}
			]
		},
		{
			"name":"Cube.524",
			"primitives":[
				{
					"attributes":{
						"POSITION":9,
						"NORMAL":10,
						"TEXCOORD_0":11
					},
					"indices":12,
					"material":0
				}
			]
		},
		{
			"name":"Cube.525",
			"primitives":[
				{
					"attributes":{
						"POSITION":13,
						"NORMAL":14,
						"TEXCOORD_0":15,
						"TANGENT":16
					},
					"indices":17,
					"material":0
				}
			]
		},
		{
			"name":"Cube.526",
			"primitives":[
				{
					"attributes":{
						"POSITION":18,
						"NORMAL":19,
						"TEXCOORD_0":20,
						"TANGENT":21
					},
					"indices":22,
					"material":0
				},
				{
					"attributes":{
						"POSITION":23,
						"NORMAL":24,
						"TEXCOORD_0":25,
						"TANGENT":26
					},
					"indices":27,
					"material":0
				}
			]
		},
		{
			"name":"Cube.527",
			"primitives":[
				{
					"attributes":{
						"POSITION":28,
						"NORMAL":29,
						"TEXCOORD_0":30,
						"TANGENT":31
					},
					"indices":22,
					"material":0
				},
				{
					"attributes":{
						"POSITION":32,
						"NORMAL":33,
						"TEXCOORD_0":34,
						"TANGENT":35
					},
					"indices":27,
					"material":0
				}
			]
		},
		{
			"name":"Cube.528",
			"primitives":[
				{
					"attributes":{
						"POSITION":36,
						"NORMAL":37,
						"TEXCOORD_0":38,
						"TANGENT":39
					},
					"indices":22,
					"material":0
				},
				{
					"attributes":{
						"POSITION":40,
						"NORMAL":41,
						"TEXCOORD_0":42,
						"TANGENT":43
					},
					"indices":27,
					"material":0
				}
			]
		},
		{
			"name":"Cube.529",
			"primitives":[
				{
					"attributes":{
						"POSITION":44,
						"NORMAL":45,
						"TEXCOORD_0":46,
						"TANGENT":47
					},
					"indices":22,
					"material":0
				},
				{
					"attributes":{
						"POSITION":48,
						"NORMAL":49,
						"TEXCOORD_0":50,
						"TANGENT":51
					},
					"indices":27,
					"material":0
				}
			]
		},
		{
			"name":"Cube.530",
			"primitives":[
				{
					"attributes":{
						"POSITION":52,
						"NORMAL":53,
						"TEXCOORD_0":54,
						"TANGENT":55
					},
					"indices":22,
					"material":0
				},
				{
					"attributes":{
						"POSITION":56,
						"NORMAL":57,
						"TEXCOORD_0":58,
						"TANGENT":59
					},
					"indices":27,
					"material":0
				}
			]
		},
		{
			"name":"Cube.531",
			"primitives":[
				{
					"attributes":{
						"POSITION":60,
						"NORMAL":61,
						"TEXCOORD_0":62,
						"TANGENT":63
					},
					"indices":17,
					"material":0
				}
			]
		}
	],
	"textures":[
		{
			"sampler":0,
			"source":0
		}
	],
	"images":[
		{
			"mimeType":"image/png",
			"name":"AvatarWearables_TX",
			"uri":"tex/AvatarWearables_TX.png"
		}
	],
	"accessors":[
		{
			"bufferView":0,
			"componentType":5126,
			"count":36,
			"max":[
				0.508030891418457,
				-14.900496482849121,
				0.5080307722091675
			],
			"min":[
				-0.508030891418457,
				-14.900496482849121,
				-0.508031964302063
			],
			"type":"VEC3"
		},
		{
			"bufferView":1,
			"componentType":5126,
			"count":36,
			"type":"VEC3"
		},
		{
			"bufferView":2,
			"componentType":5126,
			"count":36,
			"type":"VEC2"
		},
		{
			"bufferView":3,
			"componentType":5126,
			"count":36,
			"type":"VEC4"
		},
		{
			"bufferView":4,
			"componentType":5123,
			"count":150,
			"type":"SCALAR"
		},
		{
			"bufferView":5,
			"componentType":5126,
			"count":54,
			"max":[
				1.0608181953430176,
				-3.5451626777648926,
				-0.2342522144317627
			],
			"min":[
				-0.31589269638061523,
				-4.243279933929443,
				-1.0608198642730713
			],
			"type":"VEC3"
		},
		{
			"bufferView":6,
			"componentType":5126,
			"count":54,
			"type":"VEC3"
		},
		{
			"bufferView":7,
			"componentType":5126,
			"count":54,
			"type":"VEC2"
		},
		{
			"bufferView":8,
			"componentType":5123,
			"count":90,
			"type":"SCALAR"
		},
		{
			"bufferView":9,
			"componentType":5126,
			"count":82,
			"max":[
				-0.926703929901123,
				-11.940752983093262,
				1.0419855117797852
			],
			"min":[
				-4,
				-14.759161949157715,
				-3.4717962741851807
			],
			"type":"VEC3"
		},
		{
			"bufferView":10,
			"componentType":5126,
			"count":82,
			"type":"VEC3"
		},
		{
			"bufferView":11,
			"componentType":5126,
			"count":82,
			"type":"VEC2"
		},
		{
			"bufferView":12,
			"componentType":5123,
			"count":180,
			"type":"SCALAR"
		},
		{
			"bufferView":13,
			"componentType":5126,
			"count":24,
			"max":[
				-1.1097488403320312,
				-14.049240112304688,
				-0.9282476902008057
			],
			"min":[
				-4,
				-14.107187271118164,
				-3.1795763969421387
			],
			"type":"VEC3"
		},
		{
			"bufferView":14,
			"componentType":5126,
			"count":24,
			"type":"VEC3"
		},
		{
			"bufferView":15,
			"componentType":5126,
			"count":24,
			"type":"VEC2"
		},
		{
			"bufferView":16,
			"componentType":5126,
			"count":24,
			"type":"VEC4"
		},
		{
			"bufferView":17,
			"componentType":5123,
			"count":36,
			"type":"SCALAR"
		},
		{
			"bufferView":18,
			"componentType":5126,
			"count":20,
			"max":[
				-1.3283085823059082,
				-13.759504318237305,
				-0.6275849342346191
			],
			"min":[
				-4,
				-13.817451477050781,
				-2.720036745071411
			],
			"type":"VEC3"
		},
		{
			"bufferView":19,
			"componentType":5126,
			"count":20,
			"type":"VEC3"
		},
		{
			"bufferView":20,
			"componentType":5126,
			"count":20,
			"type":"VEC2"
		},
		{
			"bufferView":21,
			"componentType":5126,
			"count":20,
			"type":"VEC4"
		},
		{
			"bufferView":22,
			"componentType":5123,
			"count":30,
			"type":"SCALAR"
		},
		{
			"bufferView":23,
			"componentType":5126,
			"count":4,
			"max":[
				-4,
				-13.759504318237305,
				-2.490267753601074
			],
			"min":[
				-4,
				-13.817451477050781,
				-2.720036745071411
			],
			"type":"VEC3"
		},
		{
			"bufferView":24,
			"componentType":5126,
			"count":4,
			"type":"VEC3"
		},
		{
			"bufferView":25,
			"componentType":5126,
			"count":4,
			"type":"VEC2"
		},
		{
			"bufferView":26,
			"componentType":5126,
			"count":4,
			"type":"VEC4"
		},
		{
			"bufferView":27,
			"componentType":5123,
			"count":6,
			"type":"SCALAR"
		},
		{
			"bufferView":28,
			"componentType":5126,
			"count":20,
			"max":[
				-1.546867847442627,
				-13.469769477844238,
				-0.3269221782684326
			],
			"min":[
				-4,
				-13.527716636657715,
				-2.260498046875
			],
			"type":"VEC3"
		},
		{
			"bufferView":29,
			"componentType":5126,
			"count":20,
			"type":"VEC3"
		},
		{
			"bufferView":30,
			"componentType":5126,
			"count":20,
			"type":"VEC2"
		},
		{
			"bufferView":31,
			"componentType":5126,
			"count":20,
			"type":"VEC4"
		},
		{
			"bufferView":32,
			"componentType":5126,
			"count":4,
			"max":[
				-4,
				-13.469769477844238,
				-2.030728340148926
			],
			"min":[
				-4,
				-13.527716636657715,
				-2.260498046875
			],
			"type":"VEC3"
		},
		{
			"bufferView":33,
			"componentType":5126,
			"count":4,
			"type":"VEC3"
		},
		{
			"bufferView":34,
			"componentType":5126,
			"count":4,
			"type":"VEC2"
		},
		{
			"bufferView":35,
			"componentType":5126,
			"count":4,
			"type":"VEC4"
		},
		{
			"bufferView":36,
			"componentType":5126,
			"count":20,
			"max":[
				-1.7654273509979248,
				-13.180034637451172,
				-0.026259422302246094
			],
			"min":[
				-4,
				-13.237981796264648,
				-1.8009586334228516
			],
			"type":"VEC3"
		},
		{
			"bufferView":37,
			"componentType":5126,
			"count":20,
			"type":"VEC3"
		},
		{
			"bufferView":38,
			"componentType":5126,
			"count":20,
			"type":"VEC2"
		},
		{
			"bufferView":39,
			"componentType":5126,
			"count":20,
			"type":"VEC4"
		},
		{
			"bufferView":40,
			"componentType":5126,
			"count":4,
			"max":[
				-4,
				-13.180034637451172,
				-1.571189284324646
			],
			"min":[
				-4,
				-13.237981796264648,
				-1.8009586334228516
			],
			"type":"VEC3"
		},
		{
			"bufferView":41,
			"componentType":5126,
			"count":4,
			"type":"VEC3"
		},
		{
			"bufferView":42,
			"componentType":5126,
			"count":4,
			"type":"VEC2"
		},
		{
			"bufferView":43,
			"componentType":5126,
			"count":4,
			"type":"VEC4"
		},
		{
			"bufferView":44,
			"componentType":5126,
			"count":20,
			"max":[
				-1.9839866161346436,
				-12.890298843383789,
				0.27440333366394043
			],
			"min":[
				-4,
				-12.948246002197266,
				-1.3414195775985718
			],
			"type":"VEC3"
		},
		{
			"bufferView":45,
			"componentType":5126,
			"count":20,
			"type":"VEC3"
		},
		{
			"bufferView":46,
			"componentType":5126,
			"count":20,
			"type":"VEC2"
		},
		{
			"bufferView":47,
			"componentType":5126,
			"count":20,
			"type":"VEC4"
		},
		{
			"bufferView":48,
			"componentType":5126,
			"count":4,
			"max":[
				-4,
				-12.890298843383789,
				-1.111649990081787
			],
			"min":[
				-4,
				-12.948246002197266,
				-1.3414195775985718
			],
			"type":"VEC3"
		},
		{
			"bufferView":49,
			"componentType":5126,
			"count":4,
			"type":"VEC3"
		},
		{
			"bufferView":50,
			"componentType":5126,
			"count":4,
			"type":"VEC2"
		},
		{
			"bufferView":51,
			"componentType":5126,
			"count":4,
			"type":"VEC4"
		},
		{
			"bufferView":52,
			"componentType":5126,
			"count":20,
			"max":[
				-2.2025461196899414,
				-12.600564002990723,
				0.575066089630127
			],
			"min":[
				-4,
				-12.6585111618042,
				-0.8818802833557129
			],
			"type":"VEC3"
		},
		{
			"bufferView":53,
			"componentType":5126,
			"count":20,
			"type":"VEC3"
		},
		{
			"bufferView":54,
			"componentType":5126,
			"count":20,
			"type":"VEC2"
		},
		{
			"bufferView":55,
			"componentType":5126,
			"count":20,
			"type":"VEC4"
		},
		{
			"bufferView":56,
			"componentType":5126,
			"count":4,
			"max":[
				-4,
				-12.600564002990723,
				-0.6521108150482178
			],
			"min":[
				-4,
				-12.6585111618042,
				-0.8818802833557129
			],
			"type":"VEC3"
		},
		{
			"bufferView":57,
			"componentType":5126,
			"count":4,
			"type":"VEC3"
		},
		{
			"bufferView":58,
			"componentType":5126,
			"count":4,
			"type":"VEC2"
		},
		{
			"bufferView":59,
			"componentType":5126,
			"count":4,
			"type":"VEC4"
		},
		{
			"bufferView":60,
			"componentType":5126,
			"count":24,
			"max":[
				-2.42110538482666,
				-12.31082820892334,
				0.8757288455963135
			],
			"min":[
				-4,
				-12.368775367736816,
				-0.42234134674072266
			],
			"type":"VEC3"
		},
		{
			"bufferView":61,
			"componentType":5126,
			"count":24,
			"type":"VEC3"
		},
		{
			"bufferView":62,
			"componentType":5126,
			"count":24,
			"type":"VEC2"
		},
		{
			"bufferView":63,
			"componentType":5126,
			"count":24,
			"type":"VEC4"
		}
	],
	"bufferViews":[
		{
			"buffer":0,
			"byteLength":432,
			"byteOffset":0,
			"target":34962
		},
		{
			"buffer":0,
			"byteLength":432,
			"byteOffset":432,
			"target":34962
		},
		{
			"buffer":0,
			"byteLength":288,
			"byteOffset":864,
			"target":34962
		},
		{
			"buffer":0,
			"byteLength":576,
			"byteOffset":1152,
			"target":34962
		},
		{
			"buffer":0,
			"byteLength":300,
			"byteOffset":1728,
			"target":34963
		},
		{
			"buffer":0,
			"byteLength":648,
			"byteOffset":2028,
			"target":34962
		},
		{
			"buffer":0,
			"byteLength":648,
			"byteOffset":2676,
			"target":34962
		},
		{
			"buffer":0,
			"byteLength":432,
			"byteOffset":3324,
			"target":34962
		},
		{
			"buffer":0,
			"byteLength":180,
			"byteOffset":3756,
			"target":34963
		},
		{
			"buffer":0,
			"byteLength":984,
			"byteOffset":3936,
			"target":34962
		},
		{
			"buffer":0,
			"byteLength":984,
			"byteOffset":4920,
			"target":34962
		},
		{
			"buffer":0,
			"byteLength":656,
			"byteOffset":5904,
			"target":34962
		},
		{
			"buffer":0,
			"byteLength":360,
			"byteOffset":6560,
			"target":34963
		},
		{
			"buffer":0,
			"byteLength":288,
			"byteOffset":6920,
			"target":34962
		},
		{
			"buffer":0,
			"byteLength":288,
			"byteOffset":7208,
			"target":34962
		},
		{
			"buffer":0,
			"byteLength":192,
			"byteOffset":7496,
			"target":34962
		},
		{
			"buffer":0,
			"byteLength":384,
			"byteOffset":7688,
			"target":34962
		},
		{
			"buffer":0,
			"byteLength":72,
			"byteOffset":8072,
			"target":34963
		},
		{
			"buffer":0,
			"byteLength":240,
			"byteOffset":8144,
			"target":34962
		},
		{
			"buffer":0,
			"byteLength":240,
			"byteOffset":8384,
			"target":34962
		},
		{
			"buffer":0,
			"byteLength":160,
			"byteOffset":8624,
			"target":34962
		},
		{
			"buffer":0,
			"byteLength":320,
			"byteOffset":8784,
			"target":34962
		},
		{
			"buffer":0,
			"byteLength":60,
			"byteOffset":9104,
			"target":34963
		},
		{
			"buffer":0,
			"byteLength":48,
			"byteOffset":9164,
			"target":34962
		},
		{
			"buffer":0,
			"byteLength":48,
			"byteOffset":9212,
			"target":34962
		},
		{
			"buffer":0,
			"byteLength":32,
			"byteOffset":9260,
			"target":34962
		},
		{
			"buffer":0,
			"byteLength":64,
			"byteOffset":9292,
			"target":34962
		},
		{
			"buffer":0,
			"byteLength":12,
			"byteOffset":9356,
			"target":34963
		},
		{
			"buffer":0,
			"byteLength":240,
			"byteOffset":9368,
			"target":34962
		},
		{
			"buffer":0,
			"byteLength":240,
			"byteOffset":9608,
			"target":34962
		},
		{
			"buffer":0,
			"byteLength":160,
			"byteOffset":9848,
			"target":34962
		},
		{
			"buffer":0,
			"byteLength":320,
			"byteOffset":10008,
			"target":34962
		},
		{
			"buffer":0,
			"byteLength":48,
			"byteOffset":10328,
			"target":34962
		},
		{
			"buffer":0,
			"byteLength":48,
			"byteOffset":10376,
			"target":34962
		},
		{
			"buffer":0,
			"byteLength":32,
			"byteOffset":10424,
			"target":34962
		},
		{
			"buffer":0,
			"byteLength":64,
			"byteOffset":10456,
			"target":34962
		},
		{
			"buffer":0,
			"byteLength":240,
			"byteOffset":10520,
			"target":34962
		},
		{
			"buffer":0,
			"byteLength":240,
			"byteOffset":10760,
			"target":34962
		},
		{
			"buffer":0,
			"byteLength":160,
			"byteOffset":11000,
			"target":34962
		},
		{
			"buffer":0,
			"byteLength":320,
			"byteOffset":11160,
			"target":34962
		},
		{
			"buffer":0,
			"byteLength":48,
			"byteOffset":11480,
			"target":34962
		},
		{
			"buffer":0,
			"byteLength":48,
			"byteOffset":11528,
			"target":34962
		},
		{
			"buffer":0,
			"byteLength":32,
			"byteOffset":11576,
			"target":34962
		},
		{
			"buffer":0,
			"byteLength":64,
			"byteOffset":11608,
			"target":34962
		},
		{
			"buffer":0,
			"byteLength":240,
			"byteOffset":11672,
			"target":34962
		},
		{
			"buffer":0,
			"byteLength":240,
			"byteOffset":11912,
			"target":34962
		},
		{
			"buffer":0,
			"byteLength":160,
			"byteOffset":12152,
			"target":34962
		},
		{
			"buffer":0,
			"byteLength":320,
			"byteOffset":12312,
			"target":34962
		},
		{
			"buffer":0,
			"byteLength":48,
			"byteOffset":12632,
			"target":34962
		},
		{
			"buffer":0,
			"byteLength":48,
			"byteOffset":12680,
			"target":34962
		},
		{
			"buffer":0,
			"byteLength":32,
			"byteOffset":12728,
			"target":34962
		},
		{
			"buffer":0,
			"byteLength":64,
			"byteOffset":12760,
			"target":34962
		},
		{
			"buffer":0,
			"byteLength":240,
			"byteOffset":12824,
			"target":34962
		},
		{
			"buffer":0,
			"byteLength":240,
			"byteOffset":13064,
			"target":34962
		},
		{
			"buffer":0,
			"byteLength":160,
			"byteOffset":13304,
			"target":34962
		},
		{
			"buffer":0,
			"byteLength":320,
			"byteOffset":13464,
			"target":34962
		},
		{
			"buffer":0,
			"byteLength":48,
			"byteOffset":13784,
			"target":34962
		},
		{
			"buffer":0,
			"byteLength":48,
			"byteOffset":13832,
			"target":34962
		},
		{
			"buffer":0,
			"byteLength":32,
			"byteOffset":13880,
			"target":34962
		},
		{
			"buffer":0,
			"byteLength":64,
			"byteOffset":13912,
			"target":34962
		},
		{
			"buffer":0,
			"byteLength":288,
			"byteOffset":13976,
			"target":34962
		},
		{
			"buffer":0,
			"byteLength":288,
			"byteOffset":14264,
			"target":34962
		},
		{
			"buffer":0,
			"byteLength":192,
			"byteOffset":14552,
			"target":34962
		},
		{
			"buffer":0,
			"byteLength":384,
			"byteOffset":14744,
			"target":34962
		}
	],
	"samplers":[
		{
			"magFilter":9729,
			"minFilter":9987
		}
	],
	"buffers":[
		{
			"byteLength":15128,
			"uri":"tile_2_0_1.bin"
		}
	]
}
