{
	"asset":{
		"generator":"Khronos glTF Blender I/O v4.0.44",
		"version":"2.0"
	},
	"extensionsUsed":[
		"KHR_materials_specular",
		"KHR_materials_ior",
		"KHR_materials_emissive_strength"
	],
	"scene":0,
	"scenes":[
		{
			"name":"Scene",
			"nodes":[
				0,
				1,
				2
			]
		}
	],
	"nodes":[
		{
			"mesh":0,
			"name":"Plane",
			"scale":[
				7.873531341552734,
				0.9841914176940918,
				7.873531341552734
			]
		},
		{
			"mesh":1,
			"name":"track.257",
			"scale":[
				3.7706682682037354,
				3.7706682682037354,
				3.7706682682037354
			]
		},
		{
			"mesh":2,
			"name":"Cube.005",
			"rotation":[
				0,
				-0.060938477516174316,
				0,
				0.9981415271759033
			],
			"scale":[
				1.9919285774230957,
				1.9919284582138062,
				1.9919285774230957
			]
		}
	],
	"materials":[
		{
			"doubleSided":true,
			"extensions":{
				"KHR_materials_specular":{
					"specularColorFactor":[
						2.0,
						2.0,
						2.0
					]
				},
				"KHR_materials_ior":{
					"ior":1.4500000476837158
				}
			},
			"name":"building",
			"pbrMetallicRoughness":{
				"baseColorTexture":{
					"index":0
				},
				"metallicFactor":0
			}
		},
		{
			"doubleSided":true,
			"emissiveFactor":[
				1,
				1,
				1
			],
			"extensions":{
				"KHR_materials_emissive_strength":{
					"emissiveStrength":4
				}
			},
			"name":"Glow2",
			"pbrMetallicRoughness":{
				"baseColorFactor":[
					0.800000011920929,
					0.800000011920929,
					0.800000011920929,
					1
				],
				"metallicFactor":0,
				"roughnessFactor":0.5
			}
		}
	],
	"meshes":[
		{
			"name":"Plane.1164",
			"primitives":[
				{
					"attributes":{
						"POSITION":0,
						"NORMAL":1,
						"TEXCOORD_0":2,
						"TANGENT":3
					},
					"indices":4,
					"material":0
				}
			]
		},
		{
			"name":"Plane.1165",
			"primitives":[
				{
					"attributes":{
						"POSITION":5,
						"NORMAL":6,
						"TEXCOORD_0":7
					},
					"indices":8,
					"material":0
				}
			]
		},
		{
			"name":"Cube.688",
			"primitives":[
				{
					"attributes":{
						"POSITION":9,
						"NORMAL":10,
						"TEXCOORD_0":11
					},
					"indices":12,
					"material":0
				},
				{
					"attributes":{
						"POSITION":13,
						"NORMAL":14,
						"TEXCOORD_0":15
					},
					"indices":16,
					"material":1
				}
			]
		}
	],
	"textures":[
		{
			"sampler":0,
			"source":0
		}
	],
	"images":[
		{
			"mimeType":"image/png",
			"name":"AvatarWearables_TX",
			"uri":"tex/AvatarWearables_TX.png"
		}
	],
	"accessors":[
		{
			"bufferView":0,
			"componentType":5126,
			"count":36,
			"max":[
				0.508030891418457,
				-14.900496482849121,
				0.5080304145812988
			],
			"min":[
				-0.508030891418457,
				-14.900496482849121,
				-0.5080322027206421
			],
			"type":"VEC3"
		},
		{
			"bufferView":1,
			"componentType":5126,
			"count":36,
			"type":"VEC3"
		},
		{
			"bufferView":2,
			"componentType":5126,
			"count":36,
			"type":"VEC2"
		},
		{
			"bufferView":3,
			"componentType":5126,
			"count":36,
			"type":"VEC4"
		},
		{
			"bufferView":4,
			"componentType":5123,
			"count":150,
			"type":"SCALAR"
		},
		{
			"bufferView":5,
			"componentType":5126,
			"count":34,
			"max":[
				1.0608158111572266,
				-3.545407295227051,
				1.0608205795288086
			],
			"min":[
				0.87109375,
				-3.8074913024902344,
				-1.0608189105987549
			],
			"type":"VEC3"
		},
		{
			"bufferView":6,
			"componentType":5126,
			"count":34,
			"type":"VEC3"
		},
		{
			"bufferView":7,
			"componentType":5126,
			"count":34,
			"type":"VEC2"
		},
		{
			"bufferView":8,
			"componentType":5123,
			"count":54,
			"type":"SCALAR"
		},
		{
			"bufferView":9,
			"componentType":5126,
			"count":304,
			"max":[
				0.990267276763916,
				-2.7223973274230957,
				-0.22413086891174316
			],
			"min":[
				-2.2374768257141113,
				-7.368026256561279,
				-2.1150639057159424
			],
			"type":"VEC3"
		},
		{
			"bufferView":10,
			"componentType":5126,
			"count":304,
			"type":"VEC3"
		},
		{
			"bufferView":11,
			"componentType":5126,
			"count":304,
			"type":"VEC2"
		},
		{
			"bufferView":12,
			"componentType":5123,
			"count":684,
			"type":"SCALAR"
		},
		{
			"bufferView":13,
			"componentType":5126,
			"count":85,
			"max":[
				0.9902679920196533,
				-2.7223968505859375,
				-0.22413039207458496
			],
			"min":[
				-2.2374069690704346,
				-7.368026256561279,
				-2.0702311992645264
			],
			"type":"VEC3"
		},
		{
			"bufferView":14,
			"componentType":5126,
			"count":85,
			"type":"VEC3"
		},
		{
			"bufferView":15,
			"componentType":5126,
			"count":85,
			"type":"VEC2"
		},
		{
			"bufferView":16,
			"componentType":5123,
			"count":162,
			"type":"SCALAR"
		}
	],
	"bufferViews":[
		{
			"buffer":0,
			"byteLength":432,
			"byteOffset":0,
			"target":34962
		},
		{
			"buffer":0,
			"byteLength":432,
			"byteOffset":432,
			"target":34962
		},
		{
			"buffer":0,
			"byteLength":288,
			"byteOffset":864,
			"target":34962
		},
		{
			"buffer":0,
			"byteLength":576,
			"byteOffset":1152,
			"target":34962
		},
		{
			"buffer":0,
			"byteLength":300,
			"byteOffset":1728,
			"target":34963
		},
		{
			"buffer":0,
			"byteLength":408,
			"byteOffset":2028,
			"target":34962
		},
		{
			"buffer":0,
			"byteLength":408,
			"byteOffset":2436,
			"target":34962
		},
		{
			"buffer":0,
			"byteLength":272,
			"byteOffset":2844,
			"target":34962
		},
		{
			"buffer":0,
			"byteLength":108,
			"byteOffset":3116,
			"target":34963
		},
		{
			"buffer":0,
			"byteLength":3648,
			"byteOffset":3224,
			"target":34962
		},
		{
			"buffer":0,
			"byteLength":3648,
			"byteOffset":6872,
			"target":34962
		},
		{
			"buffer":0,
			"byteLength":2432,
			"byteOffset":10520,
			"target":34962
		},
		{
			"buffer":0,
			"byteLength":1368,
			"byteOffset":12952,
			"target":34963
		},
		{
			"buffer":0,
			"byteLength":1020,
			"byteOffset":14320,
			"target":34962
		},
		{
			"buffer":0,
			"byteLength":1020,
			"byteOffset":15340,
			"target":34962
		},
		{
			"buffer":0,
			"byteLength":680,
			"byteOffset":16360,
			"target":34962
		},
		{
			"buffer":0,
			"byteLength":324,
			"byteOffset":17040,
			"target":34963
		}
	],
	"samplers":[
		{
			"magFilter":9729,
			"minFilter":9987
		}
	],
	"buffers":[
		{
			"byteLength":17364,
			"uri":"tile_21_0_4.bin"
		}
	]
}
