{
	"asset":{
		"generator":"Khronos glTF Blender I/O v4.0.44",
		"version":"2.0"
	},
	"extensionsUsed":[
		"KHR_materials_specular",
		"KHR_materials_ior"
	],
	"scene":0,
	"scenes":[
		{
			"name":"Scene",
			"nodes":[
				0,
				1
			]
		}
	],
	"nodes":[
		{
			"mesh":0,
			"name":"Plane",
			"scale":[
				7.873531341552734,
				0.9841914176940918,
				7.873531341552734
			]
		},
		{
			"mesh":1,
			"name":"track.281",
			"scale":[
				3.7706682682037354,
				3.7706682682037354,
				3.7706682682037354
			]
		}
	],
	"materials":[
		{
			"doubleSided":true,
			"extensions":{
				"KHR_materials_specular":{
					"specularColorFactor":[
						2.0,
						2.0,
						2.0
					]
				},
				"KHR_materials_ior":{
					"ior":1.4500000476837158
				}
			},
			"name":"building",
			"pbrMetallicRoughness":{
				"baseColorTexture":{
					"index":0
				},
				"metallicFactor":0
			}
		}
	],
	"meshes":[
		{
			"name":"Plane.1212",
			"primitives":[
				{
					"attributes":{
						"POSITION":0,
						"NORMAL":1,
						"TEXCOORD_0":2,
						"TANGENT":3
					},
					"indices":4,
					"material":0
				},
				{
					"attributes":{
						"POSITION":5,
						"NORMAL":6,
						"TEXCOORD_0":7,
						"TANGENT":8
					},
					"indices":9,
					"material":0
				}
			]
		},
		{
			"name":"Plane.1213",
			"primitives":[
				{
					"attributes":{
						"POSITION":10,
						"NORMAL":11,
						"TEXCOORD_0":12
					},
					"indices":13,
					"material":0
				}
			]
		}
	],
	"textures":[
		{
			"sampler":0,
			"source":0
		}
	],
	"images":[
		{
			"mimeType":"image/png",
			"name":"AvatarWearables_TX",
			"uri":"tex/AvatarWearables_TX.png"
		}
	],
	"accessors":[
		{
			"bufferView":0,
			"componentType":5126,
			"count":54,
			"max":[
				0.3275270462036133,
				-14.567778587341309,
				0.508030891418457
			],
			"min":[
				-0.508030891418457,
				-14.900496482849121,
				-0.5080317258834839
			],
			"type":"VEC3"
		},
		{
			"bufferView":1,
			"componentType":5126,
			"count":54,
			"type":"VEC3"
		},
		{
			"bufferView":2,
			"componentType":5126,
			"count":54,
			"type":"VEC2"
		},
		{
			"bufferView":3,
			"componentType":5126,
			"count":54,
			"type":"VEC4"
		},
		{
			"bufferView":4,
			"componentType":5123,
			"count":180,
			"type":"SCALAR"
		},
		{
			"bufferView":5,
			"componentType":5126,
			"count":8,
			"max":[
				0.3275270462036133,
				-14.567778587341309,
				0.508030891418457
			],
			"min":[
				0.07752704620361328,
				-14.900496482849121,
				-0.5080317258834839
			],
			"type":"VEC3"
		},
		{
			"bufferView":6,
			"componentType":5126,
			"count":8,
			"type":"VEC3"
		},
		{
			"bufferView":7,
			"componentType":5126,
			"count":8,
			"type":"VEC2"
		},
		{
			"bufferView":8,
			"componentType":5126,
			"count":8,
			"type":"VEC4"
		},
		{
			"bufferView":9,
			"componentType":5123,
			"count":12,
			"type":"SCALAR"
		},
		{
			"bufferView":10,
			"componentType":5126,
			"count":50,
			"max":[
				-0.7494163513183594,
				-3.545477867126465,
				1.0608196258544922
			],
			"min":[
				-1.0608196258544922,
				-4.243279457092285,
				-1.0608198642730713
			],
			"type":"VEC3"
		},
		{
			"bufferView":11,
			"componentType":5126,
			"count":50,
			"type":"VEC3"
		},
		{
			"bufferView":12,
			"componentType":5126,
			"count":50,
			"type":"VEC2"
		},
		{
			"bufferView":13,
			"componentType":5123,
			"count":84,
			"type":"SCALAR"
		}
	],
	"bufferViews":[
		{
			"buffer":0,
			"byteLength":648,
			"byteOffset":0,
			"target":34962
		},
		{
			"buffer":0,
			"byteLength":648,
			"byteOffset":648,
			"target":34962
		},
		{
			"buffer":0,
			"byteLength":432,
			"byteOffset":1296,
			"target":34962
		},
		{
			"buffer":0,
			"byteLength":864,
			"byteOffset":1728,
			"target":34962
		},
		{
			"buffer":0,
			"byteLength":360,
			"byteOffset":2592,
			"target":34963
		},
		{
			"buffer":0,
			"byteLength":96,
			"byteOffset":2952,
			"target":34962
		},
		{
			"buffer":0,
			"byteLength":96,
			"byteOffset":3048,
			"target":34962
		},
		{
			"buffer":0,
			"byteLength":64,
			"byteOffset":3144,
			"target":34962
		},
		{
			"buffer":0,
			"byteLength":128,
			"byteOffset":3208,
			"target":34962
		},
		{
			"buffer":0,
			"byteLength":24,
			"byteOffset":3336,
			"target":34963
		},
		{
			"buffer":0,
			"byteLength":600,
			"byteOffset":3360,
			"target":34962
		},
		{
			"buffer":0,
			"byteLength":600,
			"byteOffset":3960,
			"target":34962
		},
		{
			"buffer":0,
			"byteLength":400,
			"byteOffset":4560,
			"target":34962
		},
		{
			"buffer":0,
			"byteLength":168,
			"byteOffset":4960,
			"target":34963
		}
	],
	"samplers":[
		{
			"magFilter":9729,
			"minFilter":9987
		}
	],
	"buffers":[
		{
			"byteLength":5128,
			"uri":"tile_23_0_4.bin"
		}
	]
}
