{
	"asset":{
		"generator":"Khronos glTF Blender I/O v4.0.44",
		"version":"2.0"
	},
	"extensionsUsed":[
		"KHR_materials_emissive_strength",
		"KHR_materials_specular",
		"KHR_materials_ior"
	],
	"scene":0,
	"scenes":[
		{
			"name":"Scene",
			"nodes":[
				0,
				1
			]
		}
	],
	"nodes":[
		{
			"name":"Plane",
			"scale":[
				7.873531341552734,
				0.9841914176940918,
				7.873531341552734
			]
		},
		{
			"mesh":0,
			"name":"Cylinder.001",
			"rotation":[
				-1,
				0,
				0,
				7.549790836947068e-08
			],
			"scale":[
				1.9539721012115479,
				1.9539721012115479,
				1.9539721012115479
			]
		}
	],
	"materials":[
		{
			"doubleSided":true,
			"emissiveFactor":[
				1,
				0.2655798013274177,
				0.04142626284219435
			],
			"extensions":{
				"KHR_materials_emissive_strength":{
					"emissiveStrength":1.5982129573822021
				}
			},
			"name":"Glow1",
			"pbrMetallicRoughness":{
				"baseColorFactor":[
					0.8008996248245239,
					0.21048900485038757,
					0.033567022532224655,
					1
				],
				"metallicFactor":0
			}
		},
		{
			"doubleSided":true,
			"extensions":{
				"KHR_materials_specular":{
					"specularColorFactor":[
						2.0,
						2.0,
						2.0
					]
				},
				"KHR_materials_ior":{
					"ior":1.4500000476837158
				}
			},
			"name":"building2",
			"pbrMetallicRoughness":{
				"baseColorTexture":{
					"index":0
				},
				"metallicFactor":0,
				"roughnessFactor":0.17924527823925018
			}
		}
	],
	"meshes":[
		{
			"name":"Cylinder.343",
			"primitives":[
				{
					"attributes":{
						"POSITION":0,
						"NORMAL":1,
						"TEXCOORD_0":2
					},
					"indices":3,
					"material":0
				},
				{
					"attributes":{
						"POSITION":4,
						"NORMAL":5,
						"TEXCOORD_0":6
					},
					"indices":7,
					"material":1
				}
			]
		}
	],
	"textures":[
		{
			"sampler":0,
			"source":0
		}
	],
	"images":[
		{
			"mimeType":"image/png",
			"name":"AvatarWearables_TX",
			"uri":"tex/AvatarWearables_TX.png"
		}
	],
	"accessors":[
		{
			"bufferView":0,
			"componentType":5126,
			"count":33,
			"max":[
				-0.5244333744049072,
				4.094224452972412,
				3.030470371246338
			],
			"min":[
				-4.094224452972412,
				3.40238094329834,
				-2.1508820056915283
			],
			"type":"VEC3"
		},
		{
			"bufferView":1,
			"componentType":5126,
			"count":33,
			"type":"VEC3"
		},
		{
			"bufferView":2,
			"componentType":5126,
			"count":33,
			"type":"VEC2"
		},
		{
			"bufferView":3,
			"componentType":5123,
			"count":87,
			"type":"SCALAR"
		},
		{
			"bufferView":4,
			"componentType":5126,
			"count":77,
			"max":[
				-0.5244333744049072,
				4.094224452972412,
				3.030470371246338
			],
			"min":[
				-4.094224452972412,
				3.40238094329834,
				-2.1508820056915283
			],
			"type":"VEC3"
		},
		{
			"bufferView":5,
			"componentType":5126,
			"count":77,
			"type":"VEC3"
		},
		{
			"bufferView":6,
			"componentType":5126,
			"count":77,
			"type":"VEC2"
		},
		{
			"bufferView":7,
			"componentType":5123,
			"count":153,
			"type":"SCALAR"
		}
	],
	"bufferViews":[
		{
			"buffer":0,
			"byteLength":396,
			"byteOffset":0,
			"target":34962
		},
		{
			"buffer":0,
			"byteLength":396,
			"byteOffset":396,
			"target":34962
		},
		{
			"buffer":0,
			"byteLength":264,
			"byteOffset":792,
			"target":34962
		},
		{
			"buffer":0,
			"byteLength":174,
			"byteOffset":1056,
			"target":34963
		},
		{
			"buffer":0,
			"byteLength":924,
			"byteOffset":1232,
			"target":34962
		},
		{
			"buffer":0,
			"byteLength":924,
			"byteOffset":2156,
			"target":34962
		},
		{
			"buffer":0,
			"byteLength":616,
			"byteOffset":3080,
			"target":34962
		},
		{
			"buffer":0,
			"byteLength":306,
			"byteOffset":3696,
			"target":34963
		}
	],
	"samplers":[
		{
			"magFilter":9729,
			"minFilter":9987
		}
	],
	"buffers":[
		{
			"byteLength":4004,
			"uri":"tile_10_1_4.bin"
		}
	]
}
