{
	"asset":{
		"generator":"Khronos glTF Blender I/O v4.0.44",
		"version":"2.0"
	},
	"extensionsUsed":[
		"KHR_materials_specular",
		"KHR_materials_ior",
		"KHR_materials_emissive_strength"
	],
	"scene":0,
	"scenes":[
		{
			"name":"Scene",
			"nodes":[
				0,
				1,
				2,
				3,
				4
			]
		}
	],
	"nodes":[
		{
			"mesh":0,
			"name":"Plane",
			"scale":[
				7.873531341552734,
				0.9841914176940918,
				7.873531341552734
			]
		},
		{
			"mesh":1,
			"name":"track.050",
			"scale":[
				3.7706682682037354,
				3.7706682682037354,
				3.7706682682037354
			]
		},
		{
			"mesh":2,
			"name":"Torus.002",
			"rotation":[
				0,
				0.46944674849510193,
				0,
				0.8829607963562012
			],
			"scale":[
				3.423175096511841,
				13.408893585205078,
				3.423175096511841
			]
		},
		{
			"mesh":3,
			"name":"Cylinder.003",
			"scale":[
				1.741005539894104,
				11.939791679382324,
				1.741005539894104
			]
		},
		{
			"name":"Torus.006",
			"rotation":[
				0.7071069478988647,
				0,
				0,
				0.7071066498756409
			],
			"scale":[
				0.9492737650871277,
				0.949273943901062,
				0.949273943901062
			]
		}
	],
	"materials":[
		{
			"doubleSided":true,
			"extensions":{
				"KHR_materials_specular":{
					"specularColorFactor":[
						2.0,
						2.0,
						2.0
					]
				},
				"KHR_materials_ior":{
					"ior":1.4500000476837158
				}
			},
			"name":"building",
			"pbrMetallicRoughness":{
				"baseColorTexture":{
					"index":0
				},
				"metallicFactor":0
			}
		},
		{
			"doubleSided":true,
			"extensions":{
				"KHR_materials_specular":{
					"specularColorFactor":[
						2.0,
						2.0,
						2.0
					]
				},
				"KHR_materials_ior":{
					"ior":1.4500000476837158
				}
			},
			"name":"building2",
			"pbrMetallicRoughness":{
				"baseColorTexture":{
					"index":1
				},
				"metallicFactor":0,
				"roughnessFactor":0.17924527823925018
			}
		},
		{
			"doubleSided":true,
			"emissiveFactor":[
				1,
				1,
				1
			],
			"name":"Glow2.001",
			"pbrMetallicRoughness":{
				"baseColorFactor":[
					0.800000011920929,
					0.800000011920929,
					0.800000011920929,
					1
				],
				"metallicFactor":0,
				"roughnessFactor":0.5
			}
		},
		{
			"doubleSided":true,
			"emissiveFactor":[
				0.0802171136311348,
				0.06480263589233753,
				1
			],
			"extensions":{
				"KHR_materials_emissive_strength":{
					"emissiveStrength":2.0000481605529785
				}
			},
			"name":"Glow5",
			"pbrMetallicRoughness":{
				"baseColorFactor":[
					0.08072357624769211,
					0.06527391821146011,
					1,
					1
				],
				"metallicFactor":0
			}
		}
	],
	"meshes":[
		{
			"name":"Plane.752",
			"primitives":[
				{
					"attributes":{
						"POSITION":0,
						"NORMAL":1,
						"TEXCOORD_0":2,
						"TANGENT":3
					},
					"indices":4,
					"material":0
				}
			]
		},
		{
			"name":"Plane.753",
			"primitives":[
				{
					"attributes":{
						"POSITION":5,
						"NORMAL":6,
						"TEXCOORD_0":7
					},
					"indices":8,
					"material":0
				},
				{
					"attributes":{
						"POSITION":9,
						"NORMAL":10,
						"TEXCOORD_0":11
					},
					"indices":12,
					"material":0
				}
			]
		},
		{
			"name":"Torus.061",
			"primitives":[
				{
					"attributes":{
						"POSITION":13,
						"NORMAL":14,
						"TEXCOORD_0":15
					},
					"indices":16,
					"material":1
				},
				{
					"attributes":{
						"POSITION":17,
						"NORMAL":18,
						"TEXCOORD_0":19
					},
					"indices":20,
					"material":2
				},
				{
					"attributes":{
						"POSITION":21,
						"NORMAL":22,
						"TEXCOORD_0":23
					},
					"indices":24,
					"material":2
				}
			]
		},
		{
			"name":"Cylinder.361",
			"primitives":[
				{
					"attributes":{
						"POSITION":25,
						"NORMAL":26,
						"TEXCOORD_0":27
					},
					"indices":28,
					"material":0
				},
				{
					"attributes":{
						"POSITION":29,
						"NORMAL":30,
						"TEXCOORD_0":31
					},
					"indices":32,
					"material":3
				}
			]
		}
	],
	"textures":[
		{
			"sampler":0,
			"source":0
		},
		{
			"sampler":0,
			"source":0
		}
	],
	"images":[
		{
			"mimeType":"image/png",
			"name":"AvatarWearables_TX",
			"uri":"tex/AvatarWearables_TX.png"
		}
	],
	"accessors":[
		{
			"bufferView":0,
			"componentType":5126,
			"count":36,
			"max":[
				0.5080313682556152,
				-14.900496482849121,
				0.5080311298370361
			],
			"min":[
				-0.5080313682556152,
				-14.900496482849121,
				-0.5080316066741943
			],
			"type":"VEC3"
		},
		{
			"bufferView":1,
			"componentType":5126,
			"count":36,
			"type":"VEC3"
		},
		{
			"bufferView":2,
			"componentType":5126,
			"count":36,
			"type":"VEC2"
		},
		{
			"bufferView":3,
			"componentType":5126,
			"count":36,
			"type":"VEC4"
		},
		{
			"bufferView":4,
			"componentType":5123,
			"count":150,
			"type":"SCALAR"
		},
		{
			"bufferView":5,
			"componentType":5126,
			"count":33,
			"max":[
				1.0608186721801758,
				-3.5461654663085938,
				1.0608196258544922
			],
			"min":[
				-1.0608205795288086,
				-4.107330799102783,
				0.19171142578125
			],
			"type":"VEC3"
		},
		{
			"bufferView":6,
			"componentType":5126,
			"count":33,
			"type":"VEC3"
		},
		{
			"bufferView":7,
			"componentType":5126,
			"count":33,
			"type":"VEC2"
		},
		{
			"bufferView":8,
			"componentType":5123,
			"count":51,
			"type":"SCALAR"
		},
		{
			"bufferView":9,
			"componentType":5126,
			"count":20,
			"max":[
				1.0608186721801758,
				-3.546201467514038,
				1.0608196258544922
			],
			"min":[
				-1.0608205795288086,
				-4.243279933929443,
				0.19171142578125
			],
			"type":"VEC3"
		},
		{
			"bufferView":10,
			"componentType":5126,
			"count":20,
			"type":"VEC3"
		},
		{
			"bufferView":11,
			"componentType":5126,
			"count":20,
			"type":"VEC2"
		},
		{
			"bufferView":12,
			"componentType":5123,
			"count":42,
			"type":"SCALAR"
		},
		{
			"bufferView":13,
			"componentType":5126,
			"count":1076,
			"max":[
				1.031511902809143,
				-0.6112961173057556,
				-0.07679963111877441
			],
			"min":[
				-0.45055389404296875,
				-1.108557105064392,
				-1.445655345916748
			],
			"type":"VEC3"
		},
		{
			"bufferView":14,
			"componentType":5126,
			"count":1076,
			"type":"VEC3"
		},
		{
			"bufferView":15,
			"componentType":5126,
			"count":1076,
			"type":"VEC2"
		},
		{
			"bufferView":16,
			"componentType":5123,
			"count":1680,
			"type":"SCALAR"
		},
		{
			"bufferView":17,
			"componentType":5126,
			"count":322,
			"max":[
				1.0120207071304321,
				-0.6338456869125366,
				-0.09234285354614258
			],
			"min":[
				-0.43673813343048096,
				-1.0655674934387207,
				-1.4295852184295654
			],
			"type":"VEC3"
		},
		{
			"bufferView":18,
			"componentType":5126,
			"count":322,
			"type":"VEC3"
		},
		{
			"bufferView":19,
			"componentType":5126,
			"count":322,
			"type":"VEC2"
		},
		{
			"bufferView":20,
			"componentType":5123,
			"count":516,
			"type":"SCALAR"
		},
		{
			"bufferView":21,
			"componentType":5126,
			"count":54,
			"max":[
				0.05355733633041382,
				-0.6112961173057556,
				-1.1055867671966553
			],
			"min":[
				-0.45055389404296875,
				-1.108557105064392,
				-1.445655345916748
			],
			"type":"VEC3"
		},
		{
			"bufferView":22,
			"componentType":5126,
			"count":54,
			"type":"VEC3"
		},
		{
			"bufferView":23,
			"componentType":5126,
			"count":54,
			"type":"VEC2"
		},
		{
			"bufferView":24,
			"componentType":5123,
			"count":156,
			"type":"SCALAR"
		},
		{
			"bufferView":25,
			"componentType":5126,
			"count":1242,
			"max":[
				-0.391287624835968,
				0.7054154872894287,
				-1.5774472951889038
			],
			"min":[
				-2.2799246311187744,
				-1.2320843935012817,
				-2.2975218296051025
			],
			"type":"VEC3"
		},
		{
			"bufferView":26,
			"componentType":5126,
			"count":1242,
			"type":"VEC3"
		},
		{
			"bufferView":27,
			"componentType":5126,
			"count":1242,
			"type":"VEC2"
		},
		{
			"bufferView":28,
			"componentType":5123,
			"count":4035,
			"type":"SCALAR"
		},
		{
			"bufferView":29,
			"componentType":5126,
			"count":155,
			"max":[
				-0.46706533432006836,
				0.5149675607681274,
				-1.6553677320480347
			],
			"min":[
				-2.193265438079834,
				-1.0414433479309082,
				-2.2975218296051025
			],
			"type":"VEC3"
		},
		{
			"bufferView":30,
			"componentType":5126,
			"count":155,
			"type":"VEC3"
		},
		{
			"bufferView":31,
			"componentType":5126,
			"count":155,
			"type":"VEC2"
		},
		{
			"bufferView":32,
			"componentType":5123,
			"count":381,
			"type":"SCALAR"
		}
	],
	"bufferViews":[
		{
			"buffer":0,
			"byteLength":432,
			"byteOffset":0,
			"target":34962
		},
		{
			"buffer":0,
			"byteLength":432,
			"byteOffset":432,
			"target":34962
		},
		{
			"buffer":0,
			"byteLength":288,
			"byteOffset":864,
			"target":34962
		},
		{
			"buffer":0,
			"byteLength":576,
			"byteOffset":1152,
			"target":34962
		},
		{
			"buffer":0,
			"byteLength":300,
			"byteOffset":1728,
			"target":34963
		},
		{
			"buffer":0,
			"byteLength":396,
			"byteOffset":2028,
			"target":34962
		},
		{
			"buffer":0,
			"byteLength":396,
			"byteOffset":2424,
			"target":34962
		},
		{
			"buffer":0,
			"byteLength":264,
			"byteOffset":2820,
			"target":34962
		},
		{
			"buffer":0,
			"byteLength":102,
			"byteOffset":3084,
			"target":34963
		},
		{
			"buffer":0,
			"byteLength":240,
			"byteOffset":3188,
			"target":34962
		},
		{
			"buffer":0,
			"byteLength":240,
			"byteOffset":3428,
			"target":34962
		},
		{
			"buffer":0,
			"byteLength":160,
			"byteOffset":3668,
			"target":34962
		},
		{
			"buffer":0,
			"byteLength":84,
			"byteOffset":3828,
			"target":34963
		},
		{
			"buffer":0,
			"byteLength":12912,
			"byteOffset":3912,
			"target":34962
		},
		{
			"buffer":0,
			"byteLength":12912,
			"byteOffset":16824,
			"target":34962
		},
		{
			"buffer":0,
			"byteLength":8608,
			"byteOffset":29736,
			"target":34962
		},
		{
			"buffer":0,
			"byteLength":3360,
			"byteOffset":38344,
			"target":34963
		},
		{
			"buffer":0,
			"byteLength":3864,
			"byteOffset":41704,
			"target":34962
		},
		{
			"buffer":0,
			"byteLength":3864,
			"byteOffset":45568,
			"target":34962
		},
		{
			"buffer":0,
			"byteLength":2576,
			"byteOffset":49432,
			"target":34962
		},
		{
			"buffer":0,
			"byteLength":1032,
			"byteOffset":52008,
			"target":34963
		},
		{
			"buffer":0,
			"byteLength":648,
			"byteOffset":53040,
			"target":34962
		},
		{
			"buffer":0,
			"byteLength":648,
			"byteOffset":53688,
			"target":34962
		},
		{
			"buffer":0,
			"byteLength":432,
			"byteOffset":54336,
			"target":34962
		},
		{
			"buffer":0,
			"byteLength":312,
			"byteOffset":54768,
			"target":34963
		},
		{
			"buffer":0,
			"byteLength":14904,
			"byteOffset":55080,
			"target":34962
		},
		{
			"buffer":0,
			"byteLength":14904,
			"byteOffset":69984,
			"target":34962
		},
		{
			"buffer":0,
			"byteLength":9936,
			"byteOffset":84888,
			"target":34962
		},
		{
			"buffer":0,
			"byteLength":8070,
			"byteOffset":94824,
			"target":34963
		},
		{
			"buffer":0,
			"byteLength":1860,
			"byteOffset":102896,
			"target":34962
		},
		{
			"buffer":0,
			"byteLength":1860,
			"byteOffset":104756,
			"target":34962
		},
		{
			"buffer":0,
			"byteLength":1240,
			"byteOffset":106616,
			"target":34962
		},
		{
			"buffer":0,
			"byteLength":762,
			"byteOffset":107856,
			"target":34963
		}
	],
	"samplers":[
		{
			"magFilter":9729,
			"minFilter":9987
		}
	],
	"buffers":[
		{
			"byteLength":108620,
			"uri":"tile_4_0_2.bin"
		}
	]
}
