{
	"asset":{
		"generator":"Khronos glTF Blender I/O v4.0.44",
		"version":"2.0"
	},
	"extensionsUsed":[
		"KHR_materials_specular",
		"KHR_materials_ior",
		"KHR_materials_emissive_strength"
	],
	"scene":0,
	"scenes":[
		{
			"name":"Scene",
			"nodes":[
				0,
				1,
				2
			]
		}
	],
	"nodes":[
		{
			"mesh":0,
			"name":"Plane",
			"scale":[
				7.873531341552734,
				0.9841914176940918,
				7.873531341552734
			]
		},
		{
			"mesh":1,
			"name":"track.079",
			"scale":[
				3.7706682682037354,
				3.7706682682037354,
				3.7706682682037354
			]
		},
		{
			"mesh":2,
			"name":"Cylinder.008",
			"rotation":[
				-1,
				0,
				0,
				7.549790126404332e-08
			],
			"scale":[
				2.3381993770599365,
				2.3381993770599365,
				2.3381993770599365
			]
		}
	],
	"materials":[
		{
			"doubleSided":true,
			"extensions":{
				"KHR_materials_specular":{
					"specularColorFactor":[
						2.0,
						2.0,
						2.0
					]
				},
				"KHR_materials_ior":{
					"ior":1.4500000476837158
				}
			},
			"name":"building",
			"pbrMetallicRoughness":{
				"baseColorTexture":{
					"index":0
				},
				"metallicFactor":0
			}
		},
		{
			"doubleSided":true,
			"emissiveFactor":[
				0.2831465070731129,
				0.027320706840421944,
				1
			],
			"extensions":{
				"KHR_materials_emissive_strength":{
					"emissiveStrength":2.0000481605529785
				}
			},
			"name":"Glow8",
			"pbrMetallicRoughness":{
				"baseColorFactor":[
					0.2836092412471771,
					0.027631696313619614,
					1,
					1
				],
				"metallicFactor":0
			}
		}
	],
	"meshes":[
		{
			"name":"Plane.808",
			"primitives":[
				{
					"attributes":{
						"POSITION":0,
						"NORMAL":1,
						"TEXCOORD_0":2
					},
					"indices":3,
					"material":0
				}
			]
		},
		{
			"name":"Plane.809",
			"primitives":[
				{
					"attributes":{
						"POSITION":4,
						"NORMAL":5,
						"TEXCOORD_0":6
					},
					"indices":7,
					"material":0
				}
			]
		},
		{
			"name":"Cylinder.385",
			"primitives":[
				{
					"attributes":{
						"POSITION":8,
						"NORMAL":9,
						"TEXCOORD_0":10
					},
					"indices":11,
					"material":0
				},
				{
					"attributes":{
						"POSITION":12,
						"NORMAL":13,
						"TEXCOORD_0":14
					},
					"indices":15,
					"material":1
				}
			]
		}
	],
	"textures":[
		{
			"sampler":0,
			"source":0
		}
	],
	"images":[
		{
			"mimeType":"image/png",
			"name":"AvatarWearables_TX",
			"uri":"tex/AvatarWearables_TX.png"
		}
	],
	"accessors":[
		{
			"bufferView":0,
			"componentType":5126,
			"count":100,
			"max":[
				0.5080313682556152,
				-9.275956153869629,
				0.5080312490463257
			],
			"min":[
				-0.5080313682556152,
				-16.256999969482422,
				-0.5080312490463257
			],
			"type":"VEC3"
		},
		{
			"bufferView":1,
			"componentType":5126,
			"count":100,
			"type":"VEC3"
		},
		{
			"bufferView":2,
			"componentType":5126,
			"count":100,
			"type":"VEC2"
		},
		{
			"bufferView":3,
			"componentType":5123,
			"count":324,
			"type":"SCALAR"
		},
		{
			"bufferView":4,
			"componentType":5126,
			"count":16,
			"max":[
				1.0608186721801758,
				-1.4444923400878906,
				1.0608208179473877
			],
			"min":[
				0.8278131484985352,
				-1.573716402053833,
				1.0245361328125
			],
			"type":"VEC3"
		},
		{
			"bufferView":5,
			"componentType":5126,
			"count":16,
			"type":"VEC3"
		},
		{
			"bufferView":6,
			"componentType":5126,
			"count":16,
			"type":"VEC2"
		},
		{
			"bufferView":7,
			"componentType":5123,
			"count":24,
			"type":"SCALAR"
		},
		{
			"bufferView":8,
			"componentType":5126,
			"count":1204,
			"max":[
				1.7107181549072266,
				5.695940017700195,
				1.7107162475585938
			],
			"min":[
				-1.7107181549072266,
				-2.408754825592041,
				-1.7107200622558594
			],
			"type":"VEC3"
		},
		{
			"bufferView":9,
			"componentType":5126,
			"count":1204,
			"type":"VEC3"
		},
		{
			"bufferView":10,
			"componentType":5126,
			"count":1204,
			"type":"VEC2"
		},
		{
			"bufferView":11,
			"componentType":5123,
			"count":2427,
			"type":"SCALAR"
		},
		{
			"bufferView":12,
			"componentType":5126,
			"count":214,
			"max":[
				1.7107181549072266,
				5.565956115722656,
				1.7107162475585938
			],
			"min":[
				-1.7107181549072266,
				-1.1786293983459473,
				-1.7107200622558594
			],
			"type":"VEC3"
		},
		{
			"bufferView":13,
			"componentType":5126,
			"count":214,
			"type":"VEC3"
		},
		{
			"bufferView":14,
			"componentType":5126,
			"count":214,
			"type":"VEC2"
		},
		{
			"bufferView":15,
			"componentType":5123,
			"count":348,
			"type":"SCALAR"
		}
	],
	"bufferViews":[
		{
			"buffer":0,
			"byteLength":1200,
			"byteOffset":0,
			"target":34962
		},
		{
			"buffer":0,
			"byteLength":1200,
			"byteOffset":1200,
			"target":34962
		},
		{
			"buffer":0,
			"byteLength":800,
			"byteOffset":2400,
			"target":34962
		},
		{
			"buffer":0,
			"byteLength":648,
			"byteOffset":3200,
			"target":34963
		},
		{
			"buffer":0,
			"byteLength":192,
			"byteOffset":3848,
			"target":34962
		},
		{
			"buffer":0,
			"byteLength":192,
			"byteOffset":4040,
			"target":34962
		},
		{
			"buffer":0,
			"byteLength":128,
			"byteOffset":4232,
			"target":34962
		},
		{
			"buffer":0,
			"byteLength":48,
			"byteOffset":4360,
			"target":34963
		},
		{
			"buffer":0,
			"byteLength":14448,
			"byteOffset":4408,
			"target":34962
		},
		{
			"buffer":0,
			"byteLength":14448,
			"byteOffset":18856,
			"target":34962
		},
		{
			"buffer":0,
			"byteLength":9632,
			"byteOffset":33304,
			"target":34962
		},
		{
			"buffer":0,
			"byteLength":4854,
			"byteOffset":42936,
			"target":34963
		},
		{
			"buffer":0,
			"byteLength":2568,
			"byteOffset":47792,
			"target":34962
		},
		{
			"buffer":0,
			"byteLength":2568,
			"byteOffset":50360,
			"target":34962
		},
		{
			"buffer":0,
			"byteLength":1712,
			"byteOffset":52928,
			"target":34962
		},
		{
			"buffer":0,
			"byteLength":696,
			"byteOffset":54640,
			"target":34963
		}
	],
	"samplers":[
		{
			"magFilter":9729,
			"minFilter":9987
		}
	],
	"buffers":[
		{
			"byteLength":55336,
			"uri":"tile_6_0_6.bin"
		}
	]
}
