{
	"asset":{
		"generator":"Khronos glTF Blender I/O v4.0.44",
		"version":"2.0"
	},
	"extensionsUsed":[
		"KHR_materials_specular",
		"KHR_materials_ior",
		"KHR_materials_emissive_strength"
	],
	"scene":0,
	"scenes":[
		{
			"name":"Scene",
			"nodes":[
				0,
				1,
				2
			]
		}
	],
	"nodes":[
		{
			"name":"Plane",
			"scale":[
				7.873531341552734,
				0.9841914176940918,
				7.873531341552734
			]
		},
		{
			"mesh":0,
			"name":"Cube.002",
			"rotation":[
				0,
				-0.30317404866218567,
				0,
				0.9529352188110352
			],
			"scale":[
				3.3134214878082275,
				3.3134217262268066,
				3.3134214878082275
			]
		},
		{
			"name":"Cylinder.014",
			"rotation":[
				0,
				0.8149561285972595,
				0,
				0.5795228481292725
			],
			"scale":[
				0.9339845776557922,
				5.173280715942383,
				0.9339845776557922
			]
		}
	],
	"materials":[
		{
			"doubleSided":true,
			"extensions":{
				"KHR_materials_specular":{
					"specularColorFactor":[
						2.0,
						2.0,
						2.0
					]
				},
				"KHR_materials_ior":{
					"ior":1.4500000476837158
				}
			},
			"name":"building",
			"pbrMetallicRoughness":{
				"baseColorTexture":{
					"index":0
				},
				"metallicFactor":0
			}
		},
		{
			"doubleSided":true,
			"emissiveFactor":[
				0.0802171136311348,
				0.06480263589233753,
				1
			],
			"extensions":{
				"KHR_materials_emissive_strength":{
					"emissiveStrength":2.0000481605529785
				}
			},
			"name":"Glow5",
			"pbrMetallicRoughness":{
				"baseColorFactor":[
					0.08072357624769211,
					0.06527391821146011,
					1,
					1
				],
				"metallicFactor":0
			}
		}
	],
	"meshes":[
		{
			"name":"Cube.064",
			"primitives":[
				{
					"attributes":{
						"POSITION":0,
						"NORMAL":1,
						"TEXCOORD_0":2
					},
					"indices":3,
					"material":0
				},
				{
					"attributes":{
						"POSITION":4,
						"NORMAL":5,
						"TEXCOORD_0":6
					},
					"indices":7,
					"material":1
				},
				{
					"attributes":{
						"POSITION":8,
						"NORMAL":9,
						"TEXCOORD_0":10
					},
					"indices":11,
					"material":1
				}
			]
		}
	],
	"textures":[
		{
			"sampler":0,
			"source":0
		}
	],
	"images":[
		{
			"mimeType":"image/png",
			"name":"AvatarWearables_TX",
			"uri":"tex/AvatarWearables_TX.png"
		}
	],
	"accessors":[
		{
			"bufferView":0,
			"componentType":5126,
			"count":366,
			"max":[
				-1.0602997541427612,
				-1.000922679901123,
				2.68087100982666
			],
			"min":[
				-2.4274063110351562,
				-2.414422035217285,
				0.7498005628585815
			],
			"type":"VEC3"
		},
		{
			"bufferView":1,
			"componentType":5126,
			"count":366,
			"type":"VEC3"
		},
		{
			"bufferView":2,
			"componentType":5126,
			"count":366,
			"type":"VEC2"
		},
		{
			"bufferView":3,
			"componentType":5123,
			"count":624,
			"type":"SCALAR"
		},
		{
			"bufferView":4,
			"componentType":5126,
			"count":11,
			"max":[
				-1.5631719827651978,
				-1.2955527305603027,
				1.9705519676208496
			],
			"min":[
				-2.071396589279175,
				-1.2955527305603027,
				1.252672791481018
			],
			"type":"VEC3"
		},
		{
			"bufferView":5,
			"componentType":5126,
			"count":11,
			"type":"VEC3"
		},
		{
			"bufferView":6,
			"componentType":5126,
			"count":11,
			"type":"VEC2"
		},
		{
			"bufferView":7,
			"componentType":5123,
			"count":15,
			"type":"SCALAR"
		},
		{
			"bufferView":8,
			"componentType":5126,
			"count":55,
			"max":[
				-1.0602997541427612,
				-1.000922679901123,
				2.68087100982666
			],
			"min":[
				-2.4274063110351562,
				-2.414422035217285,
				0.7498005628585815
			],
			"type":"VEC3"
		},
		{
			"bufferView":9,
			"componentType":5126,
			"count":55,
			"type":"VEC3"
		},
		{
			"bufferView":10,
			"componentType":5126,
			"count":55,
			"type":"VEC2"
		},
		{
			"bufferView":11,
			"componentType":5123,
			"count":153,
			"type":"SCALAR"
		}
	],
	"bufferViews":[
		{
			"buffer":0,
			"byteLength":4392,
			"byteOffset":0,
			"target":34962
		},
		{
			"buffer":0,
			"byteLength":4392,
			"byteOffset":4392,
			"target":34962
		},
		{
			"buffer":0,
			"byteLength":2928,
			"byteOffset":8784,
			"target":34962
		},
		{
			"buffer":0,
			"byteLength":1248,
			"byteOffset":11712,
			"target":34963
		},
		{
			"buffer":0,
			"byteLength":132,
			"byteOffset":12960,
			"target":34962
		},
		{
			"buffer":0,
			"byteLength":132,
			"byteOffset":13092,
			"target":34962
		},
		{
			"buffer":0,
			"byteLength":88,
			"byteOffset":13224,
			"target":34962
		},
		{
			"buffer":0,
			"byteLength":30,
			"byteOffset":13312,
			"target":34963
		},
		{
			"buffer":0,
			"byteLength":660,
			"byteOffset":13344,
			"target":34962
		},
		{
			"buffer":0,
			"byteLength":660,
			"byteOffset":14004,
			"target":34962
		},
		{
			"buffer":0,
			"byteLength":440,
			"byteOffset":14664,
			"target":34962
		},
		{
			"buffer":0,
			"byteLength":306,
			"byteOffset":15104,
			"target":34963
		}
	],
	"samplers":[
		{
			"magFilter":9729,
			"minFilter":9987
		}
	],
	"buffers":[
		{
			"byteLength":15412,
			"uri":"tile_11_2_5.bin"
		}
	]
}
