{
	"asset":{
		"generator":"Khronos glTF Blender I/O v4.0.44",
		"version":"2.0"
	},
	"extensionsUsed":[
		"KHR_materials_specular",
		"KHR_materials_ior"
	],
	"scene":0,
	"scenes":[
		{
			"name":"Scene",
			"nodes":[
				0,
				1,
				2,
				3,
				4,
				5,
				6,
				7,
				8
			]
		}
	],
	"nodes":[
		{
			"mesh":0,
			"name":"Plane",
			"scale":[
				7.873531341552734,
				0.9841914176940918,
				7.873531341552734
			]
		},
		{
			"mesh":1,
			"name":"track.107",
			"scale":[
				3.7706682682037354,
				3.7706682682037354,
				3.7706682682037354
			]
		},
		{
			"mesh":2,
			"name":"Cube.008"
		},
		{
			"mesh":3,
			"name":"Cube.084"
		},
		{
			"name":"Cube.085"
		},
		{
			"name":"Cube.086"
		},
		{
			"name":"Cube.087"
		},
		{
			"name":"Cube.088"
		},
		{
			"name":"Cube.089"
		}
	],
	"materials":[
		{
			"doubleSided":true,
			"extensions":{
				"KHR_materials_specular":{
					"specularColorFactor":[
						2.0,
						2.0,
						2.0
					]
				},
				"KHR_materials_ior":{
					"ior":1.4500000476837158
				}
			},
			"name":"building",
			"pbrMetallicRoughness":{
				"baseColorTexture":{
					"index":0
				},
				"metallicFactor":0
			}
		}
	],
	"meshes":[
		{
			"name":"Plane.864",
			"primitives":[
				{
					"attributes":{
						"POSITION":0,
						"NORMAL":1,
						"TEXCOORD_0":2,
						"TANGENT":3
					},
					"indices":4,
					"material":0
				}
			]
		},
		{
			"name":"Plane.865",
			"primitives":[
				{
					"attributes":{
						"POSITION":5,
						"NORMAL":6,
						"TEXCOORD_0":7
					},
					"indices":8,
					"material":0
				}
			]
		},
		{
			"name":"Cube.619",
			"primitives":[
				{
					"attributes":{
						"POSITION":9,
						"NORMAL":10,
						"TEXCOORD_0":11
					},
					"indices":12,
					"material":0
				},
				{
					"attributes":{
						"POSITION":13,
						"NORMAL":14,
						"TEXCOORD_0":15
					},
					"indices":16,
					"material":0
				}
			]
		},
		{
			"name":"Cube.620",
			"primitives":[
				{
					"attributes":{
						"POSITION":17,
						"NORMAL":18,
						"TEXCOORD_0":19,
						"TANGENT":20
					},
					"indices":21,
					"material":0
				},
				{
					"attributes":{
						"POSITION":22,
						"NORMAL":23,
						"TEXCOORD_0":24,
						"TANGENT":25
					},
					"indices":26,
					"material":0
				}
			]
		}
	],
	"textures":[
		{
			"sampler":0,
			"source":0
		}
	],
	"images":[
		{
			"mimeType":"image/png",
			"name":"AvatarWearables_TX",
			"uri":"tex/AvatarWearables_TX.png"
		}
	],
	"accessors":[
		{
			"bufferView":0,
			"componentType":5126,
			"count":36,
			"max":[
				0.5080323219299316,
				-14.900496482849121,
				0.5080313682556152
			],
			"min":[
				-0.5080304145812988,
				-14.900496482849121,
				-0.5080313682556152
			],
			"type":"VEC3"
		},
		{
			"bufferView":1,
			"componentType":5126,
			"count":36,
			"type":"VEC3"
		},
		{
			"bufferView":2,
			"componentType":5126,
			"count":36,
			"type":"VEC2"
		},
		{
			"bufferView":3,
			"componentType":5126,
			"count":36,
			"type":"VEC4"
		},
		{
			"bufferView":4,
			"componentType":5123,
			"count":150,
			"type":"SCALAR"
		},
		{
			"bufferView":5,
			"componentType":5126,
			"count":87,
			"max":[
				1.0608196258544922,
				-3.545351505279541,
				1.0608196258544922
			],
			"min":[
				-1.0608196258544922,
				-4.243279933929443,
				-1.0608196258544922
			],
			"type":"VEC3"
		},
		{
			"bufferView":6,
			"componentType":5126,
			"count":87,
			"type":"VEC3"
		},
		{
			"bufferView":7,
			"componentType":5126,
			"count":87,
			"type":"VEC2"
		},
		{
			"bufferView":8,
			"componentType":5123,
			"count":153,
			"type":"SCALAR"
		},
		{
			"bufferView":9,
			"componentType":5126,
			"count":28,
			"max":[
				-2.859748363494873,
				-14.064510345458984,
				4
			],
			"min":[
				-4,
				-14.759161949157715,
				3.496385335922241
			],
			"type":"VEC3"
		},
		{
			"bufferView":10,
			"componentType":5126,
			"count":28,
			"type":"VEC3"
		},
		{
			"bufferView":11,
			"componentType":5126,
			"count":28,
			"type":"VEC2"
		},
		{
			"bufferView":12,
			"componentType":5123,
			"count":54,
			"type":"SCALAR"
		},
		{
			"bufferView":13,
			"componentType":5126,
			"count":14,
			"max":[
				-2.859748363494873,
				-14.064510345458984,
				4
			],
			"min":[
				-4,
				-14.759161949157715,
				3.496385335922241
			],
			"type":"VEC3"
		},
		{
			"bufferView":14,
			"componentType":5126,
			"count":14,
			"type":"VEC3"
		},
		{
			"bufferView":15,
			"componentType":5126,
			"count":14,
			"type":"VEC2"
		},
		{
			"bufferView":16,
			"componentType":5123,
			"count":30,
			"type":"SCALAR"
		},
		{
			"bufferView":17,
			"componentType":5126,
			"count":16,
			"max":[
				-3.444791078567505,
				-14.049240112304688,
				4
			],
			"min":[
				-4,
				-14.107187271118164,
				3.7547810077667236
			],
			"type":"VEC3"
		},
		{
			"bufferView":18,
			"componentType":5126,
			"count":16,
			"type":"VEC3"
		},
		{
			"bufferView":19,
			"componentType":5126,
			"count":16,
			"type":"VEC2"
		},
		{
			"bufferView":20,
			"componentType":5126,
			"count":16,
			"type":"VEC4"
		},
		{
			"bufferView":21,
			"componentType":5123,
			"count":24,
			"type":"SCALAR"
		},
		{
			"bufferView":22,
			"componentType":5126,
			"count":8,
			"max":[
				-3.444791078567505,
				-14.049240112304688,
				4
			],
			"min":[
				-4,
				-14.107187271118164,
				3.7547810077667236
			],
			"type":"VEC3"
		},
		{
			"bufferView":23,
			"componentType":5126,
			"count":8,
			"type":"VEC3"
		},
		{
			"bufferView":24,
			"componentType":5126,
			"count":8,
			"type":"VEC2"
		},
		{
			"bufferView":25,
			"componentType":5126,
			"count":8,
			"type":"VEC4"
		},
		{
			"bufferView":26,
			"componentType":5123,
			"count":12,
			"type":"SCALAR"
		}
	],
	"bufferViews":[
		{
			"buffer":0,
			"byteLength":432,
			"byteOffset":0,
			"target":34962
		},
		{
			"buffer":0,
			"byteLength":432,
			"byteOffset":432,
			"target":34962
		},
		{
			"buffer":0,
			"byteLength":288,
			"byteOffset":864,
			"target":34962
		},
		{
			"buffer":0,
			"byteLength":576,
			"byteOffset":1152,
			"target":34962
		},
		{
			"buffer":0,
			"byteLength":300,
			"byteOffset":1728,
			"target":34963
		},
		{
			"buffer":0,
			"byteLength":1044,
			"byteOffset":2028,
			"target":34962
		},
		{
			"buffer":0,
			"byteLength":1044,
			"byteOffset":3072,
			"target":34962
		},
		{
			"buffer":0,
			"byteLength":696,
			"byteOffset":4116,
			"target":34962
		},
		{
			"buffer":0,
			"byteLength":306,
			"byteOffset":4812,
			"target":34963
		},
		{
			"buffer":0,
			"byteLength":336,
			"byteOffset":5120,
			"target":34962
		},
		{
			"buffer":0,
			"byteLength":336,
			"byteOffset":5456,
			"target":34962
		},
		{
			"buffer":0,
			"byteLength":224,
			"byteOffset":5792,
			"target":34962
		},
		{
			"buffer":0,
			"byteLength":108,
			"byteOffset":6016,
			"target":34963
		},
		{
			"buffer":0,
			"byteLength":168,
			"byteOffset":6124,
			"target":34962
		},
		{
			"buffer":0,
			"byteLength":168,
			"byteOffset":6292,
			"target":34962
		},
		{
			"buffer":0,
			"byteLength":112,
			"byteOffset":6460,
			"target":34962
		},
		{
			"buffer":0,
			"byteLength":60,
			"byteOffset":6572,
			"target":34963
		},
		{
			"buffer":0,
			"byteLength":192,
			"byteOffset":6632,
			"target":34962
		},
		{
			"buffer":0,
			"byteLength":192,
			"byteOffset":6824,
			"target":34962
		},
		{
			"buffer":0,
			"byteLength":128,
			"byteOffset":7016,
			"target":34962
		},
		{
			"buffer":0,
			"byteLength":256,
			"byteOffset":7144,
			"target":34962
		},
		{
			"buffer":0,
			"byteLength":48,
			"byteOffset":7400,
			"target":34963
		},
		{
			"buffer":0,
			"byteLength":96,
			"byteOffset":7448,
			"target":34962
		},
		{
			"buffer":0,
			"byteLength":96,
			"byteOffset":7544,
			"target":34962
		},
		{
			"buffer":0,
			"byteLength":64,
			"byteOffset":7640,
			"target":34962
		},
		{
			"buffer":0,
			"byteLength":128,
			"byteOffset":7704,
			"target":34962
		},
		{
			"buffer":0,
			"byteLength":24,
			"byteOffset":7832,
			"target":34963
		}
	],
	"samplers":[
		{
			"magFilter":9729,
			"minFilter":9987
		}
	],
	"buffers":[
		{
			"byteLength":7856,
			"uri":"tile_8_0_10.bin"
		}
	]
}
