{
	"asset":{
		"generator":"Khronos glTF Blender I/O v4.0.44",
		"version":"2.0"
	},
	"extensionsUsed":[
		"KHR_materials_specular",
		"KHR_materials_ior",
		"KHR_materials_emissive_strength"
	],
	"scene":0,
	"scenes":[
		{
			"name":"Scene",
			"nodes":[
				0,
				1,
				2
			]
		}
	],
	"nodes":[
		{
			"mesh":0,
			"name":"Plane",
			"scale":[
				7.873531341552734,
				0.9841914176940918,
				7.873531341552734
			]
		},
		{
			"mesh":1,
			"name":"track.078",
			"scale":[
				3.7706682682037354,
				3.7706682682037354,
				3.7706682682037354
			]
		},
		{
			"mesh":2,
			"name":"Cylinder.008",
			"rotation":[
				-1,
				0,
				0,
				7.549790126404332e-08
			],
			"scale":[
				2.3381993770599365,
				2.3381993770599365,
				2.3381993770599365
			]
		}
	],
	"materials":[
		{
			"doubleSided":true,
			"extensions":{
				"KHR_materials_specular":{
					"specularColorFactor":[
						2.0,
						2.0,
						2.0
					]
				},
				"KHR_materials_ior":{
					"ior":1.4500000476837158
				}
			},
			"name":"building",
			"pbrMetallicRoughness":{
				"baseColorTexture":{
					"index":0
				},
				"metallicFactor":0
			}
		},
		{
			"doubleSided":true,
			"emissiveFactor":[
				0.2831465070731129,
				0.027320706840421944,
				1
			],
			"extensions":{
				"KHR_materials_emissive_strength":{
					"emissiveStrength":2.0000481605529785
				}
			},
			"name":"Glow8",
			"pbrMetallicRoughness":{
				"baseColorFactor":[
					0.2836092412471771,
					0.027631696313619614,
					1,
					1
				],
				"metallicFactor":0
			}
		}
	],
	"meshes":[
		{
			"name":"Plane.806",
			"primitives":[
				{
					"attributes":{
						"POSITION":0,
						"NORMAL":1,
						"TEXCOORD_0":2
					},
					"indices":3,
					"material":0
				},
				{
					"attributes":{
						"POSITION":4,
						"NORMAL":5,
						"TEXCOORD_0":6
					},
					"indices":7,
					"material":0
				}
			]
		},
		{
			"name":"Plane.807",
			"primitives":[
				{
					"attributes":{
						"POSITION":8,
						"NORMAL":9,
						"TEXCOORD_0":10
					},
					"indices":11,
					"material":0
				}
			]
		},
		{
			"name":"Cylinder.384",
			"primitives":[
				{
					"attributes":{
						"POSITION":12,
						"NORMAL":13,
						"TEXCOORD_0":14
					},
					"indices":15,
					"material":0
				},
				{
					"attributes":{
						"POSITION":16,
						"NORMAL":17,
						"TEXCOORD_0":18
					},
					"indices":19,
					"material":1
				}
			]
		}
	],
	"textures":[
		{
			"sampler":0,
			"source":0
		}
	],
	"images":[
		{
			"mimeType":"image/png",
			"name":"AvatarWearables_TX",
			"uri":"tex/AvatarWearables_TX.png"
		}
	],
	"accessors":[
		{
			"bufferView":0,
			"componentType":5126,
			"count":51,
			"max":[
				0.5080313682556152,
				-8.681922912597656,
				0.5080312490463257
			],
			"min":[
				-0.5080313682556152,
				-11.762273788452148,
				-0.5080312490463257
			],
			"type":"VEC3"
		},
		{
			"bufferView":1,
			"componentType":5126,
			"count":51,
			"type":"VEC3"
		},
		{
			"bufferView":2,
			"componentType":5126,
			"count":51,
			"type":"VEC2"
		},
		{
			"bufferView":3,
			"componentType":5123,
			"count":195,
			"type":"SCALAR"
		},
		{
			"bufferView":4,
			"componentType":5126,
			"count":47,
			"max":[
				0.5080313682556152,
				-8.681922912597656,
				0.5080312490463257
			],
			"min":[
				-0.5080313682556152,
				-16.256999969482422,
				-0.5080312490463257
			],
			"type":"VEC3"
		},
		{
			"bufferView":5,
			"componentType":5126,
			"count":47,
			"type":"VEC3"
		},
		{
			"bufferView":6,
			"componentType":5126,
			"count":47,
			"type":"VEC2"
		},
		{
			"bufferView":7,
			"componentType":5123,
			"count":117,
			"type":"SCALAR"
		},
		{
			"bufferView":8,
			"componentType":5126,
			"count":81,
			"max":[
				1.0608186721801758,
				-1.4168636798858643,
				1.0608198642730713
			],
			"min":[
				-1.0608205795288086,
				-4.243279933929443,
				-1.0608198642730713
			],
			"type":"VEC3"
		},
		{
			"bufferView":9,
			"componentType":5126,
			"count":81,
			"type":"VEC3"
		},
		{
			"bufferView":10,
			"componentType":5126,
			"count":81,
			"type":"VEC2"
		},
		{
			"bufferView":11,
			"componentType":5123,
			"count":159,
			"type":"SCALAR"
		},
		{
			"bufferView":12,
			"componentType":5126,
			"count":338,
			"max":[
				1.7107181549072266,
				5.6959404945373535,
				1.7107162475585938
			],
			"min":[
				-1.5741403102874756,
				-1.6525211334228516,
				0.9268295764923096
			],
			"type":"VEC3"
		},
		{
			"bufferView":13,
			"componentType":5126,
			"count":338,
			"type":"VEC3"
		},
		{
			"bufferView":14,
			"componentType":5126,
			"count":338,
			"type":"VEC2"
		},
		{
			"bufferView":15,
			"componentType":5123,
			"count":669,
			"type":"SCALAR"
		},
		{
			"bufferView":16,
			"componentType":5126,
			"count":44,
			"max":[
				1.7107181549072266,
				0.6801242828369141,
				1.7107162475585938
			],
			"min":[
				-0.9112021923065186,
				-1.178628921508789,
				1.3023545742034912
			],
			"type":"VEC3"
		},
		{
			"bufferView":17,
			"componentType":5126,
			"count":44,
			"type":"VEC3"
		},
		{
			"bufferView":18,
			"componentType":5126,
			"count":44,
			"type":"VEC2"
		},
		{
			"bufferView":19,
			"componentType":5123,
			"count":72,
			"type":"SCALAR"
		}
	],
	"bufferViews":[
		{
			"buffer":0,
			"byteLength":612,
			"byteOffset":0,
			"target":34962
		},
		{
			"buffer":0,
			"byteLength":612,
			"byteOffset":612,
			"target":34962
		},
		{
			"buffer":0,
			"byteLength":408,
			"byteOffset":1224,
			"target":34962
		},
		{
			"buffer":0,
			"byteLength":390,
			"byteOffset":1632,
			"target":34963
		},
		{
			"buffer":0,
			"byteLength":564,
			"byteOffset":2024,
			"target":34962
		},
		{
			"buffer":0,
			"byteLength":564,
			"byteOffset":2588,
			"target":34962
		},
		{
			"buffer":0,
			"byteLength":376,
			"byteOffset":3152,
			"target":34962
		},
		{
			"buffer":0,
			"byteLength":234,
			"byteOffset":3528,
			"target":34963
		},
		{
			"buffer":0,
			"byteLength":972,
			"byteOffset":3764,
			"target":34962
		},
		{
			"buffer":0,
			"byteLength":972,
			"byteOffset":4736,
			"target":34962
		},
		{
			"buffer":0,
			"byteLength":648,
			"byteOffset":5708,
			"target":34962
		},
		{
			"buffer":0,
			"byteLength":318,
			"byteOffset":6356,
			"target":34963
		},
		{
			"buffer":0,
			"byteLength":4056,
			"byteOffset":6676,
			"target":34962
		},
		{
			"buffer":0,
			"byteLength":4056,
			"byteOffset":10732,
			"target":34962
		},
		{
			"buffer":0,
			"byteLength":2704,
			"byteOffset":14788,
			"target":34962
		},
		{
			"buffer":0,
			"byteLength":1338,
			"byteOffset":17492,
			"target":34963
		},
		{
			"buffer":0,
			"byteLength":528,
			"byteOffset":18832,
			"target":34962
		},
		{
			"buffer":0,
			"byteLength":528,
			"byteOffset":19360,
			"target":34962
		},
		{
			"buffer":0,
			"byteLength":352,
			"byteOffset":19888,
			"target":34962
		},
		{
			"buffer":0,
			"byteLength":144,
			"byteOffset":20240,
			"target":34963
		}
	],
	"samplers":[
		{
			"magFilter":9729,
			"minFilter":9987
		}
	],
	"buffers":[
		{
			"byteLength":20384,
			"uri":"tile_6_0_5.bin"
		}
	]
}
