{
	"asset":{
		"generator":"Khronos glTF Blender I/O v4.0.44",
		"version":"2.0"
	},
	"extensionsUsed":[
		"KHR_materials_specular",
		"KHR_materials_ior"
	],
	"scene":0,
	"scenes":[
		{
			"name":"Scene",
			"nodes":[
				0,
				1,
				2
			]
		}
	],
	"nodes":[
		{
			"mesh":0,
			"name":"Plane",
			"scale":[
				7.873531341552734,
				0.9841914176940918,
				7.873531341552734
			]
		},
		{
			"name":"track.149",
			"scale":[
				3.7706682682037354,
				3.7706682682037354,
				3.7706682682037354
			]
		},
		{
			"mesh":1,
			"name":"Cube.001",
			"scale":[
				3.3134217262268066,
				3.3134217262268066,
				3.3134217262268066
			]
		}
	],
	"materials":[
		{
			"doubleSided":true,
			"extensions":{
				"KHR_materials_specular":{
					"specularColorFactor":[
						2.0,
						2.0,
						2.0
					]
				},
				"KHR_materials_ior":{
					"ior":1.4500000476837158
				}
			},
			"name":"building",
			"pbrMetallicRoughness":{
				"baseColorTexture":{
					"index":0
				},
				"metallicFactor":0
			}
		},
		{
			"doubleSided":true,
			"extensions":{
				"KHR_materials_specular":{
					"specularColorFactor":[
						2.0,
						2.0,
						2.0
					]
				},
				"KHR_materials_ior":{
					"ior":1.4500000476837158
				}
			},
			"name":"building2",
			"pbrMetallicRoughness":{
				"baseColorTexture":{
					"index":1
				},
				"metallicFactor":0,
				"roughnessFactor":0.17924527823925018
			}
		},
		{
			"doubleSided":true,
			"emissiveFactor":[
				1,
				1,
				0
			],
			"name":"Glow6",
			"pbrMetallicRoughness":{
				"baseColorFactor":[
					0.8000000715255737,
					0.6898009181022644,
					0,
					1
				],
				"metallicFactor":0
			}
		}
	],
	"meshes":[
		{
			"name":"Plane.948",
			"primitives":[
				{
					"attributes":{
						"POSITION":0,
						"NORMAL":1,
						"TEXCOORD_0":2
					},
					"indices":3,
					"material":0
				}
			]
		},
		{
			"name":"Cube.637",
			"primitives":[
				{
					"attributes":{
						"POSITION":4,
						"NORMAL":5,
						"TEXCOORD_0":6
					},
					"indices":7,
					"material":1
				},
				{
					"attributes":{
						"POSITION":8,
						"NORMAL":9,
						"TEXCOORD_0":10
					},
					"indices":11,
					"material":2
				},
				{
					"attributes":{
						"POSITION":12,
						"NORMAL":13,
						"TEXCOORD_0":14
					},
					"indices":15,
					"material":2
				}
			]
		}
	],
	"textures":[
		{
			"sampler":0,
			"source":0
		},
		{
			"sampler":0,
			"source":0
		}
	],
	"images":[
		{
			"mimeType":"image/png",
			"name":"AvatarWearables_TX",
			"uri":"tex/AvatarWearables_TX.png"
		}
	],
	"accessors":[
		{
			"bufferView":0,
			"componentType":5126,
			"count":103,
			"max":[
				0.5080312490463257,
				-10.696182250976562,
				0.5080304145812988
			],
			"min":[
				-0.5080312490463257,
				-16.256999969482422,
				-0.5080322027206421
			],
			"type":"VEC3"
		},
		{
			"bufferView":1,
			"componentType":5126,
			"count":103,
			"type":"VEC3"
		},
		{
			"bufferView":2,
			"componentType":5126,
			"count":103,
			"type":"VEC2"
		},
		{
			"bufferView":3,
			"componentType":5123,
			"count":333,
			"type":"SCALAR"
		},
		{
			"bufferView":4,
			"componentType":5126,
			"count":1786,
			"max":[
				1.2072112560272217,
				2.9166738986968994,
				1.2072112560272217
			],
			"min":[
				0.13317382335662842,
				-3.3742802143096924,
				-0.6773339509963989
			],
			"type":"VEC3"
		},
		{
			"bufferView":5,
			"componentType":5126,
			"count":1786,
			"type":"VEC3"
		},
		{
			"bufferView":6,
			"componentType":5126,
			"count":1786,
			"type":"VEC2"
		},
		{
			"bufferView":7,
			"componentType":5123,
			"count":3180,
			"type":"SCALAR"
		},
		{
			"bufferView":8,
			"componentType":5126,
			"count":112,
			"max":[
				1.2072112560272217,
				2.228034734725952,
				1.0840873718261719
			],
			"min":[
				0.33495789766311646,
				-2.4793405532836914,
				-0.47554999589920044
			],
			"type":"VEC3"
		},
		{
			"bufferView":9,
			"componentType":5126,
			"count":112,
			"type":"VEC3"
		},
		{
			"bufferView":10,
			"componentType":5126,
			"count":112,
			"type":"VEC2"
		},
		{
			"bufferView":11,
			"componentType":5123,
			"count":168,
			"type":"SCALAR"
		},
		{
			"bufferView":12,
			"componentType":5126,
			"count":120,
			"max":[
				1.2072112560272217,
				2.7117035388946533,
				1.2072112560272217
			],
			"min":[
				0.13317382335662842,
				-3.3742802143096924,
				-0.6773339509963989
			],
			"type":"VEC3"
		},
		{
			"bufferView":13,
			"componentType":5126,
			"count":120,
			"type":"VEC3"
		},
		{
			"bufferView":14,
			"componentType":5126,
			"count":120,
			"type":"VEC2"
		},
		{
			"bufferView":15,
			"componentType":5123,
			"count":330,
			"type":"SCALAR"
		}
	],
	"bufferViews":[
		{
			"buffer":0,
			"byteLength":1236,
			"byteOffset":0,
			"target":34962
		},
		{
			"buffer":0,
			"byteLength":1236,
			"byteOffset":1236,
			"target":34962
		},
		{
			"buffer":0,
			"byteLength":824,
			"byteOffset":2472,
			"target":34962
		},
		{
			"buffer":0,
			"byteLength":666,
			"byteOffset":3296,
			"target":34963
		},
		{
			"buffer":0,
			"byteLength":21432,
			"byteOffset":3964,
			"target":34962
		},
		{
			"buffer":0,
			"byteLength":21432,
			"byteOffset":25396,
			"target":34962
		},
		{
			"buffer":0,
			"byteLength":14288,
			"byteOffset":46828,
			"target":34962
		},
		{
			"buffer":0,
			"byteLength":6360,
			"byteOffset":61116,
			"target":34963
		},
		{
			"buffer":0,
			"byteLength":1344,
			"byteOffset":67476,
			"target":34962
		},
		{
			"buffer":0,
			"byteLength":1344,
			"byteOffset":68820,
			"target":34962
		},
		{
			"buffer":0,
			"byteLength":896,
			"byteOffset":70164,
			"target":34962
		},
		{
			"buffer":0,
			"byteLength":336,
			"byteOffset":71060,
			"target":34963
		},
		{
			"buffer":0,
			"byteLength":1440,
			"byteOffset":71396,
			"target":34962
		},
		{
			"buffer":0,
			"byteLength":1440,
			"byteOffset":72836,
			"target":34962
		},
		{
			"buffer":0,
			"byteLength":960,
			"byteOffset":74276,
			"target":34962
		},
		{
			"buffer":0,
			"byteLength":660,
			"byteOffset":75236,
			"target":34963
		}
	],
	"samplers":[
		{
			"magFilter":9729,
			"minFilter":9987
		}
	],
	"buffers":[
		{
			"byteLength":75896,
			"uri":"tile_12_0_4.bin"
		}
	]
}
