{
	"asset":{
		"generator":"Khronos glTF Blender I/O v4.0.44",
		"version":"2.0"
	},
	"extensionsUsed":[
		"KHR_materials_specular",
		"KHR_materials_ior",
		"KHR_materials_emissive_strength"
	],
	"scene":0,
	"scenes":[
		{
			"name":"Scene",
			"nodes":[
				0,
				1,
				2
			]
		}
	],
	"nodes":[
		{
			"mesh":0,
			"name":"Plane",
			"scale":[
				7.873531341552734,
				0.9841914176940918,
				7.873531341552734
			]
		},
		{
			"name":"Plane.001",
			"scale":[
				3.7706682682037354,
				3.7706682682037354,
				3.7706682682037354
			]
		},
		{
			"mesh":1,
			"name":"Icosphere.001",
			"rotation":[
				0,
				-0.3118622899055481,
				0,
				0.9501273036003113
			],
			"scale":[
				8.599295616149902,
				5.349599838256836,
				8.599295616149902
			]
		}
	],
	"materials":[
		{
			"doubleSided":true,
			"extensions":{
				"KHR_materials_specular":{
					"specularColorFactor":[
						2.0,
						2.0,
						2.0
					]
				},
				"KHR_materials_ior":{
					"ior":1.4500000476837158
				}
			},
			"name":"building",
			"pbrMetallicRoughness":{
				"baseColorTexture":{
					"index":0
				},
				"metallicFactor":0
			}
		},
		{
			"doubleSided":true,
			"extensions":{
				"KHR_materials_specular":{
					"specularColorFactor":[
						2.0,
						2.0,
						2.0
					]
				},
				"KHR_materials_ior":{
					"ior":1.4500000476837158
				}
			},
			"name":"building2",
			"pbrMetallicRoughness":{
				"baseColorTexture":{
					"index":1
				},
				"metallicFactor":0,
				"roughnessFactor":0.17924527823925018
			}
		},
		{
			"doubleSided":true,
			"emissiveFactor":[
				1,
				1,
				1
			],
			"extensions":{
				"KHR_materials_emissive_strength":{
					"emissiveStrength":4
				}
			},
			"name":"Glow2",
			"pbrMetallicRoughness":{
				"baseColorFactor":[
					0.800000011920929,
					0.800000011920929,
					0.800000011920929,
					1
				],
				"metallicFactor":0,
				"roughnessFactor":0.5
			}
		}
	],
	"meshes":[
		{
			"name":"Plane.095",
			"primitives":[
				{
					"attributes":{
						"POSITION":0,
						"NORMAL":1,
						"TEXCOORD_0":2
					},
					"indices":3,
					"material":0
				},
				{
					"attributes":{
						"POSITION":4,
						"NORMAL":5,
						"TEXCOORD_0":6
					},
					"indices":7,
					"material":0
				}
			]
		},
		{
			"name":"Icosphere.004",
			"primitives":[
				{
					"attributes":{
						"POSITION":8,
						"NORMAL":9,
						"TEXCOORD_0":10
					},
					"indices":11,
					"material":1
				},
				{
					"attributes":{
						"POSITION":12,
						"NORMAL":13,
						"TEXCOORD_0":14
					},
					"indices":15,
					"material":2
				},
				{
					"attributes":{
						"POSITION":16,
						"NORMAL":17,
						"TEXCOORD_0":18
					},
					"indices":19,
					"material":2
				}
			]
		}
	],
	"textures":[
		{
			"sampler":0,
			"source":0
		},
		{
			"sampler":0,
			"source":0
		}
	],
	"images":[
		{
			"mimeType":"image/png",
			"name":"AvatarWearables_TX",
			"uri":"tex/AvatarWearables_TX.png"
		}
	],
	"accessors":[
		{
			"bufferView":0,
			"componentType":5126,
			"count":112,
			"max":[
				1.0160624980926514,
				-5.021799087524414,
				1.016061782836914
			],
			"min":[
				-1.0160624980926514,
				-6.77199649810791,
				-1.0160632133483887
			],
			"type":"VEC3"
		},
		{
			"bufferView":1,
			"componentType":5126,
			"count":112,
			"type":"VEC3"
		},
		{
			"bufferView":2,
			"componentType":5126,
			"count":112,
			"type":"VEC2"
		},
		{
			"bufferView":3,
			"componentType":5123,
			"count":522,
			"type":"SCALAR"
		},
		{
			"bufferView":4,
			"componentType":5126,
			"count":24,
			"max":[
				-0.787534236907959,
				-5.021799087524414,
				1.016061782836914
			],
			"min":[
				-1.0160624980926514,
				-8.128499984741211,
				-1.0160632133483887
			],
			"type":"VEC3"
		},
		{
			"bufferView":5,
			"componentType":5126,
			"count":24,
			"type":"VEC3"
		},
		{
			"bufferView":6,
			"componentType":5126,
			"count":24,
			"type":"VEC2"
		},
		{
			"bufferView":7,
			"componentType":5123,
			"count":48,
			"type":"SCALAR"
		},
		{
			"bufferView":8,
			"componentType":5126,
			"count":273,
			"max":[
				-0.3355957269668579,
				0.979256272315979,
				0.11653584241867065
			],
			"min":[
				-1.300666093826294,
				-1.2122807502746582,
				-0.9080613255500793
			],
			"type":"VEC3"
		},
		{
			"bufferView":9,
			"componentType":5126,
			"count":273,
			"type":"VEC3"
		},
		{
			"bufferView":10,
			"componentType":5126,
			"count":273,
			"type":"VEC2"
		},
		{
			"bufferView":11,
			"componentType":5123,
			"count":522,
			"type":"SCALAR"
		},
		{
			"bufferView":12,
			"componentType":5126,
			"count":51,
			"max":[
				-0.3355957269668579,
				0.8558162450790405,
				0.11653584241867065
			],
			"min":[
				-1.2569091320037842,
				-1.2122807502746582,
				-0.9080613255500793
			],
			"type":"VEC3"
		},
		{
			"bufferView":13,
			"componentType":5126,
			"count":51,
			"type":"VEC3"
		},
		{
			"bufferView":14,
			"componentType":5126,
			"count":51,
			"type":"VEC2"
		},
		{
			"bufferView":15,
			"componentType":5123,
			"count":75,
			"type":"SCALAR"
		},
		{
			"bufferView":16,
			"componentType":5126,
			"count":84,
			"max":[
				-0.3355957269668579,
				0.979256272315979,
				0.11653584241867065
			],
			"min":[
				-1.300666093826294,
				-1.495439052581787,
				-0.9080613255500793
			],
			"type":"VEC3"
		},
		{
			"bufferView":17,
			"componentType":5126,
			"count":84,
			"type":"VEC3"
		},
		{
			"bufferView":18,
			"componentType":5126,
			"count":84,
			"type":"VEC2"
		},
		{
			"bufferView":19,
			"componentType":5123,
			"count":237,
			"type":"SCALAR"
		}
	],
	"bufferViews":[
		{
			"buffer":0,
			"byteLength":1344,
			"byteOffset":0,
			"target":34962
		},
		{
			"buffer":0,
			"byteLength":1344,
			"byteOffset":1344,
			"target":34962
		},
		{
			"buffer":0,
			"byteLength":896,
			"byteOffset":2688,
			"target":34962
		},
		{
			"buffer":0,
			"byteLength":1044,
			"byteOffset":3584,
			"target":34963
		},
		{
			"buffer":0,
			"byteLength":288,
			"byteOffset":4628,
			"target":34962
		},
		{
			"buffer":0,
			"byteLength":288,
			"byteOffset":4916,
			"target":34962
		},
		{
			"buffer":0,
			"byteLength":192,
			"byteOffset":5204,
			"target":34962
		},
		{
			"buffer":0,
			"byteLength":96,
			"byteOffset":5396,
			"target":34963
		},
		{
			"buffer":0,
			"byteLength":3276,
			"byteOffset":5492,
			"target":34962
		},
		{
			"buffer":0,
			"byteLength":3276,
			"byteOffset":8768,
			"target":34962
		},
		{
			"buffer":0,
			"byteLength":2184,
			"byteOffset":12044,
			"target":34962
		},
		{
			"buffer":0,
			"byteLength":1044,
			"byteOffset":14228,
			"target":34963
		},
		{
			"buffer":0,
			"byteLength":612,
			"byteOffset":15272,
			"target":34962
		},
		{
			"buffer":0,
			"byteLength":612,
			"byteOffset":15884,
			"target":34962
		},
		{
			"buffer":0,
			"byteLength":408,
			"byteOffset":16496,
			"target":34962
		},
		{
			"buffer":0,
			"byteLength":150,
			"byteOffset":16904,
			"target":34963
		},
		{
			"buffer":0,
			"byteLength":1008,
			"byteOffset":17056,
			"target":34962
		},
		{
			"buffer":0,
			"byteLength":1008,
			"byteOffset":18064,
			"target":34962
		},
		{
			"buffer":0,
			"byteLength":672,
			"byteOffset":19072,
			"target":34962
		},
		{
			"buffer":0,
			"byteLength":474,
			"byteOffset":19744,
			"target":34963
		}
	],
	"samplers":[
		{
			"magFilter":9729,
			"minFilter":9987
		}
	],
	"buffers":[
		{
			"byteLength":20220,
			"uri":"tile_5_1_1.bin"
		}
	]
}
