{
	"asset":{
		"generator":"Khronos glTF Blender I/O v4.0.44",
		"version":"2.0"
	},
	"extensionsUsed":[
		"KHR_materials_specular",
		"KHR_materials_ior"
	],
	"scene":0,
	"scenes":[
		{
			"name":"Scene",
			"nodes":[
				0,
				1,
				2,
				3,
				4,
				5,
				6,
				7,
				8,
				9
			]
		}
	],
	"nodes":[
		{
			"mesh":0,
			"name":"Plane",
			"scale":[
				7.873531341552734,
				0.9841914176940918,
				7.873531341552734
			]
		},
		{
			"mesh":1,
			"name":"track.204",
			"scale":[
				3.7706682682037354,
				3.7706682682037354,
				3.7706682682037354
			]
		},
		{
			"mesh":2,
			"name":"Cube.006"
		},
		{
			"mesh":3,
			"name":"Cube.070"
		},
		{
			"mesh":4,
			"name":"Cube.071"
		},
		{
			"mesh":5,
			"name":"Cube.072"
		},
		{
			"mesh":6,
			"name":"Cube.073"
		},
		{
			"mesh":7,
			"name":"Cube.074"
		},
		{
			"mesh":8,
			"name":"Cube.075"
		},
		{
			"mesh":9,
			"name":"Cube.076"
		}
	],
	"materials":[
		{
			"doubleSided":true,
			"extensions":{
				"KHR_materials_specular":{
					"specularColorFactor":[
						2.0,
						2.0,
						2.0
					]
				},
				"KHR_materials_ior":{
					"ior":1.4500000476837158
				}
			},
			"name":"building",
			"pbrMetallicRoughness":{
				"baseColorTexture":{
					"index":0
				},
				"metallicFactor":0
			}
		}
	],
	"meshes":[
		{
			"name":"Plane.1058",
			"primitives":[
				{
					"attributes":{
						"POSITION":0,
						"NORMAL":1,
						"TEXCOORD_0":2,
						"TANGENT":3
					},
					"indices":4,
					"material":0
				},
				{
					"attributes":{
						"POSITION":5,
						"NORMAL":6,
						"TEXCOORD_0":7,
						"TANGENT":8
					},
					"indices":9,
					"material":0
				}
			]
		},
		{
			"name":"Plane.1059",
			"primitives":[
				{
					"attributes":{
						"POSITION":10,
						"NORMAL":11,
						"TEXCOORD_0":12
					},
					"indices":13,
					"material":0
				}
			]
		},
		{
			"name":"Cube.654",
			"primitives":[
				{
					"attributes":{
						"POSITION":14,
						"NORMAL":15,
						"TEXCOORD_0":16
					},
					"indices":17,
					"material":0
				},
				{
					"attributes":{
						"POSITION":18,
						"NORMAL":19,
						"TEXCOORD_0":20
					},
					"indices":21,
					"material":0
				}
			]
		},
		{
			"name":"Cube.655",
			"primitives":[
				{
					"attributes":{
						"POSITION":22,
						"NORMAL":23,
						"TEXCOORD_0":24,
						"TANGENT":25
					},
					"indices":26,
					"material":0
				},
				{
					"attributes":{
						"POSITION":27,
						"NORMAL":28,
						"TEXCOORD_0":29,
						"TANGENT":30
					},
					"indices":31,
					"material":0
				}
			]
		},
		{
			"name":"Cube.656",
			"primitives":[
				{
					"attributes":{
						"POSITION":32,
						"NORMAL":33,
						"TEXCOORD_0":34,
						"TANGENT":35
					},
					"indices":36,
					"material":0
				}
			]
		},
		{
			"name":"Cube.657",
			"primitives":[
				{
					"attributes":{
						"POSITION":37,
						"NORMAL":38,
						"TEXCOORD_0":39,
						"TANGENT":40
					},
					"indices":36,
					"material":0
				}
			]
		},
		{
			"name":"Cube.658",
			"primitives":[
				{
					"attributes":{
						"POSITION":41,
						"NORMAL":42,
						"TEXCOORD_0":43,
						"TANGENT":44
					},
					"indices":36,
					"material":0
				}
			]
		},
		{
			"name":"Cube.659",
			"primitives":[
				{
					"attributes":{
						"POSITION":45,
						"NORMAL":46,
						"TEXCOORD_0":47,
						"TANGENT":48
					},
					"indices":36,
					"material":0
				}
			]
		},
		{
			"name":"Cube.660",
			"primitives":[
				{
					"attributes":{
						"POSITION":49,
						"NORMAL":50,
						"TEXCOORD_0":51,
						"TANGENT":52
					},
					"indices":36,
					"material":0
				}
			]
		},
		{
			"name":"Cube.661",
			"primitives":[
				{
					"attributes":{
						"POSITION":53,
						"NORMAL":54,
						"TEXCOORD_0":55,
						"TANGENT":56
					},
					"indices":26,
					"material":0
				},
				{
					"attributes":{
						"POSITION":57,
						"NORMAL":58,
						"TEXCOORD_0":59,
						"TANGENT":60
					},
					"indices":31,
					"material":0
				}
			]
		}
	],
	"textures":[
		{
			"sampler":0,
			"source":0
		}
	],
	"images":[
		{
			"mimeType":"image/png",
			"name":"AvatarWearables_TX",
			"uri":"tex/AvatarWearables_TX.png"
		}
	],
	"accessors":[
		{
			"bufferView":0,
			"componentType":5126,
			"count":54,
			"max":[
				0.5080313682556152,
				-14.567778587341309,
				0.5080313682556152
			],
			"min":[
				-0.5080313682556152,
				-14.900496482849121,
				-0.41324806213378906
			],
			"type":"VEC3"
		},
		{
			"bufferView":1,
			"componentType":5126,
			"count":54,
			"type":"VEC3"
		},
		{
			"bufferView":2,
			"componentType":5126,
			"count":54,
			"type":"VEC2"
		},
		{
			"bufferView":3,
			"componentType":5126,
			"count":54,
			"type":"VEC4"
		},
		{
			"bufferView":4,
			"componentType":5123,
			"count":180,
			"type":"SCALAR"
		},
		{
			"bufferView":5,
			"componentType":5126,
			"count":8,
			"max":[
				0.5080313682556152,
				-14.567778587341309,
				-0.16324806213378906
			],
			"min":[
				-0.5080313682556152,
				-14.900496482849121,
				-0.41324806213378906
			],
			"type":"VEC3"
		},
		{
			"bufferView":6,
			"componentType":5126,
			"count":8,
			"type":"VEC3"
		},
		{
			"bufferView":7,
			"componentType":5126,
			"count":8,
			"type":"VEC2"
		},
		{
			"bufferView":8,
			"componentType":5126,
			"count":8,
			"type":"VEC4"
		},
		{
			"bufferView":9,
			"componentType":5123,
			"count":12,
			"type":"SCALAR"
		},
		{
			"bufferView":10,
			"componentType":5126,
			"count":59,
			"max":[
				1.0608196258544922,
				-3.545822858810425,
				1.0608196258544922
			],
			"min":[
				-1.0608196258544922,
				-4.243279933929443,
				0.3427248001098633
			],
			"type":"VEC3"
		},
		{
			"bufferView":11,
			"componentType":5126,
			"count":59,
			"type":"VEC3"
		},
		{
			"bufferView":12,
			"componentType":5126,
			"count":59,
			"type":"VEC2"
		},
		{
			"bufferView":13,
			"componentType":5123,
			"count":99,
			"type":"SCALAR"
		},
		{
			"bufferView":14,
			"componentType":5126,
			"count":74,
			"max":[
				4,
				-11.940752983093262,
				0.5971313714981079
			],
			"min":[
				1.216784954071045,
				-14.759161949157715,
				-2.2212767601013184
			],
			"type":"VEC3"
		},
		{
			"bufferView":15,
			"componentType":5126,
			"count":74,
			"type":"VEC3"
		},
		{
			"bufferView":16,
			"componentType":5126,
			"count":74,
			"type":"VEC2"
		},
		{
			"bufferView":17,
			"componentType":5123,
			"count":162,
			"type":"SCALAR"
		},
		{
			"bufferView":18,
			"componentType":5126,
			"count":8,
			"max":[
				4,
				-11.940752983093262,
				0.5971313714981079
			],
			"min":[
				4,
				-14.759161949157715,
				-2.2212767601013184
			],
			"type":"VEC3"
		},
		{
			"bufferView":19,
			"componentType":5126,
			"count":8,
			"type":"VEC3"
		},
		{
			"bufferView":20,
			"componentType":5126,
			"count":8,
			"type":"VEC2"
		},
		{
			"bufferView":21,
			"componentType":5123,
			"count":18,
			"type":"SCALAR"
		},
		{
			"bufferView":22,
			"componentType":5126,
			"count":20,
			"max":[
				4,
				-14.049240112304688,
				0.3607635498046875
			],
			"min":[
				1.2712602615356445,
				-14.107187271118164,
				0.17490988969802856
			],
			"type":"VEC3"
		},
		{
			"bufferView":23,
			"componentType":5126,
			"count":20,
			"type":"VEC3"
		},
		{
			"bufferView":24,
			"componentType":5126,
			"count":20,
			"type":"VEC2"
		},
		{
			"bufferView":25,
			"componentType":5126,
			"count":20,
			"type":"VEC4"
		},
		{
			"bufferView":26,
			"componentType":5123,
			"count":30,
			"type":"SCALAR"
		},
		{
			"bufferView":27,
			"componentType":5126,
			"count":4,
			"max":[
				4,
				-14.049240112304688,
				0.3607635498046875
			],
			"min":[
				4,
				-14.107187271118164,
				0.17490988969802856
			],
			"type":"VEC3"
		},
		{
			"bufferView":28,
			"componentType":5126,
			"count":4,
			"type":"VEC3"
		},
		{
			"bufferView":29,
			"componentType":5126,
			"count":4,
			"type":"VEC2"
		},
		{
			"bufferView":30,
			"componentType":5126,
			"count":4,
			"type":"VEC4"
		},
		{
			"bufferView":31,
			"componentType":5123,
			"count":6,
			"type":"SCALAR"
		},
		{
			"bufferView":32,
			"componentType":5126,
			"count":24,
			"max":[
				4,
				-13.759504318237305,
				-0.010943830013275146
			],
			"min":[
				1.2712602615356445,
				-13.817451477050781,
				-0.1967974305152893
			],
			"type":"VEC3"
		},
		{
			"bufferView":33,
			"componentType":5126,
			"count":24,
			"type":"VEC3"
		},
		{
			"bufferView":34,
			"componentType":5126,
			"count":24,
			"type":"VEC2"
		},
		{
			"bufferView":35,
			"componentType":5126,
			"count":24,
			"type":"VEC4"
		},
		{
			"bufferView":36,
			"componentType":5123,
			"count":36,
			"type":"SCALAR"
		},
		{
			"bufferView":37,
			"componentType":5126,
			"count":24,
			"max":[
				4,
				-13.469769477844238,
				-0.38265112042427063
			],
			"min":[
				1.2712602615356445,
				-13.527716636657715,
				-0.5685047507286072
			],
			"type":"VEC3"
		},
		{
			"bufferView":38,
			"componentType":5126,
			"count":24,
			"type":"VEC3"
		},
		{
			"bufferView":39,
			"componentType":5126,
			"count":24,
			"type":"VEC2"
		},
		{
			"bufferView":40,
			"componentType":5126,
			"count":24,
			"type":"VEC4"
		},
		{
			"bufferView":41,
			"componentType":5126,
			"count":24,
			"max":[
				4,
				-13.180034637451172,
				-0.7543583512306213
			],
			"min":[
				1.2712602615356445,
				-13.237981796264648,
				-0.940212070941925
			],
			"type":"VEC3"
		},
		{
			"bufferView":42,
			"componentType":5126,
			"count":24,
			"type":"VEC3"
		},
		{
			"bufferView":43,
			"componentType":5126,
			"count":24,
			"type":"VEC2"
		},
		{
			"bufferView":44,
			"componentType":5126,
			"count":24,
			"type":"VEC4"
		},
		{
			"bufferView":45,
			"componentType":5126,
			"count":24,
			"max":[
				4,
				-12.890298843383789,
				-1.126065731048584
			],
			"min":[
				1.2712602615356445,
				-12.948246002197266,
				-1.3119193315505981
			],
			"type":"VEC3"
		},
		{
			"bufferView":46,
			"componentType":5126,
			"count":24,
			"type":"VEC3"
		},
		{
			"bufferView":47,
			"componentType":5126,
			"count":24,
			"type":"VEC2"
		},
		{
			"bufferView":48,
			"componentType":5126,
			"count":24,
			"type":"VEC4"
		},
		{
			"bufferView":49,
			"componentType":5126,
			"count":24,
			"max":[
				4,
				-12.600564002990723,
				-1.4977729320526123
			],
			"min":[
				1.2712602615356445,
				-12.6585111618042,
				-1.683626651763916
			],
			"type":"VEC3"
		},
		{
			"bufferView":50,
			"componentType":5126,
			"count":24,
			"type":"VEC3"
		},
		{
			"bufferView":51,
			"componentType":5126,
			"count":24,
			"type":"VEC2"
		},
		{
			"bufferView":52,
			"componentType":5126,
			"count":24,
			"type":"VEC4"
		},
		{
			"bufferView":53,
			"componentType":5126,
			"count":20,
			"max":[
				4,
				-12.31082820892334,
				-1.8694802522659302
			],
			"min":[
				1.2712602615356445,
				-12.368775367736816,
				-2.0553340911865234
			],
			"type":"VEC3"
		},
		{
			"bufferView":54,
			"componentType":5126,
			"count":20,
			"type":"VEC3"
		},
		{
			"bufferView":55,
			"componentType":5126,
			"count":20,
			"type":"VEC2"
		},
		{
			"bufferView":56,
			"componentType":5126,
			"count":20,
			"type":"VEC4"
		},
		{
			"bufferView":57,
			"componentType":5126,
			"count":4,
			"max":[
				4,
				-12.31082820892334,
				-1.8694802522659302
			],
			"min":[
				4,
				-12.368775367736816,
				-2.0553340911865234
			],
			"type":"VEC3"
		},
		{
			"bufferView":58,
			"componentType":5126,
			"count":4,
			"type":"VEC3"
		},
		{
			"bufferView":59,
			"componentType":5126,
			"count":4,
			"type":"VEC2"
		},
		{
			"bufferView":60,
			"componentType":5126,
			"count":4,
			"type":"VEC4"
		}
	],
	"bufferViews":[
		{
			"buffer":0,
			"byteLength":648,
			"byteOffset":0,
			"target":34962
		},
		{
			"buffer":0,
			"byteLength":648,
			"byteOffset":648,
			"target":34962
		},
		{
			"buffer":0,
			"byteLength":432,
			"byteOffset":1296,
			"target":34962
		},
		{
			"buffer":0,
			"byteLength":864,
			"byteOffset":1728,
			"target":34962
		},
		{
			"buffer":0,
			"byteLength":360,
			"byteOffset":2592,
			"target":34963
		},
		{
			"buffer":0,
			"byteLength":96,
			"byteOffset":2952,
			"target":34962
		},
		{
			"buffer":0,
			"byteLength":96,
			"byteOffset":3048,
			"target":34962
		},
		{
			"buffer":0,
			"byteLength":64,
			"byteOffset":3144,
			"target":34962
		},
		{
			"buffer":0,
			"byteLength":128,
			"byteOffset":3208,
			"target":34962
		},
		{
			"buffer":0,
			"byteLength":24,
			"byteOffset":3336,
			"target":34963
		},
		{
			"buffer":0,
			"byteLength":708,
			"byteOffset":3360,
			"target":34962
		},
		{
			"buffer":0,
			"byteLength":708,
			"byteOffset":4068,
			"target":34962
		},
		{
			"buffer":0,
			"byteLength":472,
			"byteOffset":4776,
			"target":34962
		},
		{
			"buffer":0,
			"byteLength":198,
			"byteOffset":5248,
			"target":34963
		},
		{
			"buffer":0,
			"byteLength":888,
			"byteOffset":5448,
			"target":34962
		},
		{
			"buffer":0,
			"byteLength":888,
			"byteOffset":6336,
			"target":34962
		},
		{
			"buffer":0,
			"byteLength":592,
			"byteOffset":7224,
			"target":34962
		},
		{
			"buffer":0,
			"byteLength":324,
			"byteOffset":7816,
			"target":34963
		},
		{
			"buffer":0,
			"byteLength":96,
			"byteOffset":8140,
			"target":34962
		},
		{
			"buffer":0,
			"byteLength":96,
			"byteOffset":8236,
			"target":34962
		},
		{
			"buffer":0,
			"byteLength":64,
			"byteOffset":8332,
			"target":34962
		},
		{
			"buffer":0,
			"byteLength":36,
			"byteOffset":8396,
			"target":34963
		},
		{
			"buffer":0,
			"byteLength":240,
			"byteOffset":8432,
			"target":34962
		},
		{
			"buffer":0,
			"byteLength":240,
			"byteOffset":8672,
			"target":34962
		},
		{
			"buffer":0,
			"byteLength":160,
			"byteOffset":8912,
			"target":34962
		},
		{
			"buffer":0,
			"byteLength":320,
			"byteOffset":9072,
			"target":34962
		},
		{
			"buffer":0,
			"byteLength":60,
			"byteOffset":9392,
			"target":34963
		},
		{
			"buffer":0,
			"byteLength":48,
			"byteOffset":9452,
			"target":34962
		},
		{
			"buffer":0,
			"byteLength":48,
			"byteOffset":9500,
			"target":34962
		},
		{
			"buffer":0,
			"byteLength":32,
			"byteOffset":9548,
			"target":34962
		},
		{
			"buffer":0,
			"byteLength":64,
			"byteOffset":9580,
			"target":34962
		},
		{
			"buffer":0,
			"byteLength":12,
			"byteOffset":9644,
			"target":34963
		},
		{
			"buffer":0,
			"byteLength":288,
			"byteOffset":9656,
			"target":34962
		},
		{
			"buffer":0,
			"byteLength":288,
			"byteOffset":9944,
			"target":34962
		},
		{
			"buffer":0,
			"byteLength":192,
			"byteOffset":10232,
			"target":34962
		},
		{
			"buffer":0,
			"byteLength":384,
			"byteOffset":10424,
			"target":34962
		},
		{
			"buffer":0,
			"byteLength":72,
			"byteOffset":10808,
			"target":34963
		},
		{
			"buffer":0,
			"byteLength":288,
			"byteOffset":10880,
			"target":34962
		},
		{
			"buffer":0,
			"byteLength":288,
			"byteOffset":11168,
			"target":34962
		},
		{
			"buffer":0,
			"byteLength":192,
			"byteOffset":11456,
			"target":34962
		},
		{
			"buffer":0,
			"byteLength":384,
			"byteOffset":11648,
			"target":34962
		},
		{
			"buffer":0,
			"byteLength":288,
			"byteOffset":12032,
			"target":34962
		},
		{
			"buffer":0,
			"byteLength":288,
			"byteOffset":12320,
			"target":34962
		},
		{
			"buffer":0,
			"byteLength":192,
			"byteOffset":12608,
			"target":34962
		},
		{
			"buffer":0,
			"byteLength":384,
			"byteOffset":12800,
			"target":34962
		},
		{
			"buffer":0,
			"byteLength":288,
			"byteOffset":13184,
			"target":34962
		},
		{
			"buffer":0,
			"byteLength":288,
			"byteOffset":13472,
			"target":34962
		},
		{
			"buffer":0,
			"byteLength":192,
			"byteOffset":13760,
			"target":34962
		},
		{
			"buffer":0,
			"byteLength":384,
			"byteOffset":13952,
			"target":34962
		},
		{
			"buffer":0,
			"byteLength":288,
			"byteOffset":14336,
			"target":34962
		},
		{
			"buffer":0,
			"byteLength":288,
			"byteOffset":14624,
			"target":34962
		},
		{
			"buffer":0,
			"byteLength":192,
			"byteOffset":14912,
			"target":34962
		},
		{
			"buffer":0,
			"byteLength":384,
			"byteOffset":15104,
			"target":34962
		},
		{
			"buffer":0,
			"byteLength":240,
			"byteOffset":15488,
			"target":34962
		},
		{
			"buffer":0,
			"byteLength":240,
			"byteOffset":15728,
			"target":34962
		},
		{
			"buffer":0,
			"byteLength":160,
			"byteOffset":15968,
			"target":34962
		},
		{
			"buffer":0,
			"byteLength":320,
			"byteOffset":16128,
			"target":34962
		},
		{
			"buffer":0,
			"byteLength":48,
			"byteOffset":16448,
			"target":34962
		},
		{
			"buffer":0,
			"byteLength":48,
			"byteOffset":16496,
			"target":34962
		},
		{
			"buffer":0,
			"byteLength":32,
			"byteOffset":16544,
			"target":34962
		},
		{
			"buffer":0,
			"byteLength":64,
			"byteOffset":16576,
			"target":34962
		}
	],
	"samplers":[
		{
			"magFilter":9729,
			"minFilter":9987
		}
	],
	"buffers":[
		{
			"byteLength":16640,
			"uri":"tile_16_0_11.bin"
		}
	]
}
