{
	"asset":{
		"generator":"Khronos glTF Blender I/O v4.0.44",
		"version":"2.0"
	},
	"extensionsUsed":[
		"KHR_materials_specular",
		"KHR_materials_ior",
		"KHR_materials_emissive_strength"
	],
	"scene":0,
	"scenes":[
		{
			"name":"Scene",
			"nodes":[
				0,
				1,
				2,
				3,
				4,
				5,
				6
			]
		}
	],
	"nodes":[
		{
			"mesh":0,
			"name":"Plane",
			"scale":[
				7.873531341552734,
				0.9841914176940918,
				7.873531341552734
			]
		},
		{
			"name":"track.226",
			"scale":[
				3.7706682682037354,
				3.7706682682037354,
				3.7706682682037354
			]
		},
		{
			"mesh":1,
			"name":"Torus.023",
			"rotation":[
				0.7071069478988647,
				0,
				0,
				0.7071066498756409
			],
			"scale":[
				0.9492737650871277,
				0.949273943901062,
				0.949273943901062
			]
		},
		{
			"mesh":2,
			"name":"Cylinder.015"
		},
		{
			"mesh":3,
			"name":"Cylinder.097"
		},
		{
			"mesh":4,
			"name":"Cylinder.098"
		},
		{
			"mesh":5,
			"name":"Cylinder.099"
		}
	],
	"materials":[
		{
			"doubleSided":true,
			"extensions":{
				"KHR_materials_specular":{
					"specularColorFactor":[
						2.0,
						2.0,
						2.0
					]
				},
				"KHR_materials_ior":{
					"ior":1.4500000476837158
				}
			},
			"name":"building",
			"pbrMetallicRoughness":{
				"baseColorTexture":{
					"index":0
				},
				"metallicFactor":0
			}
		},
		{
			"doubleSided":true,
			"emissiveFactor":[
				1,
				0.003797386313042906,
				0
			],
			"extensions":{
				"KHR_materials_emissive_strength":{
					"emissiveStrength":7.991064786911011
				}
			},
			"name":"Glow9",
			"pbrMetallicRoughness":{
				"baseColorFactor":[
					0.8000000715255737,
					0.0031031807884573936,
					0,
					1
				],
				"metallicFactor":0
			}
		},
		{
			"doubleSided":true,
			"emissiveFactor":[
				1,
				1,
				1
			],
			"extensions":{
				"KHR_materials_emissive_strength":{
					"emissiveStrength":4
				}
			},
			"name":"Glow2",
			"pbrMetallicRoughness":{
				"baseColorFactor":[
					0.800000011920929,
					0.800000011920929,
					0.800000011920929,
					1
				],
				"metallicFactor":0,
				"roughnessFactor":0.5
			}
		}
	],
	"meshes":[
		{
			"name":"Plane.1102",
			"primitives":[
				{
					"attributes":{
						"POSITION":0,
						"NORMAL":1,
						"TEXCOORD_0":2,
						"TANGENT":3
					},
					"indices":4,
					"material":0
				}
			]
		},
		{
			"name":"Torus.077",
			"primitives":[
				{
					"attributes":{
						"POSITION":5,
						"NORMAL":6,
						"TEXCOORD_0":7
					},
					"indices":8,
					"material":0
				},
				{
					"attributes":{
						"POSITION":9,
						"NORMAL":10,
						"TEXCOORD_0":11
					},
					"indices":12,
					"material":1
				},
				{
					"attributes":{
						"POSITION":13,
						"NORMAL":14,
						"TEXCOORD_0":15
					},
					"indices":16,
					"material":2
				}
			]
		},
		{
			"name":"Cylinder.450",
			"primitives":[
				{
					"attributes":{
						"POSITION":17,
						"NORMAL":18,
						"TEXCOORD_0":19
					},
					"indices":20,
					"material":0
				}
			]
		},
		{
			"name":"Cylinder.451",
			"primitives":[
				{
					"attributes":{
						"POSITION":21,
						"NORMAL":22,
						"TEXCOORD_0":23
					},
					"indices":24,
					"material":0
				},
				{
					"attributes":{
						"POSITION":25,
						"NORMAL":26,
						"TEXCOORD_0":27
					},
					"indices":28,
					"material":0
				}
			]
		},
		{
			"name":"Cylinder.452",
			"primitives":[
				{
					"attributes":{
						"POSITION":29,
						"NORMAL":30,
						"TEXCOORD_0":31
					},
					"indices":32,
					"material":0
				}
			]
		},
		{
			"name":"Cylinder.453",
			"primitives":[
				{
					"attributes":{
						"POSITION":33,
						"NORMAL":34,
						"TEXCOORD_0":35,
						"TANGENT":36
					},
					"indices":37,
					"material":0
				}
			]
		}
	],
	"textures":[
		{
			"sampler":0,
			"source":0
		}
	],
	"images":[
		{
			"mimeType":"image/png",
			"name":"AvatarWearables_TX",
			"uri":"tex/AvatarWearables_TX.png"
		}
	],
	"accessors":[
		{
			"bufferView":0,
			"componentType":5126,
			"count":36,
			"max":[
				0.5080313682556152,
				-14.900496482849121,
				0.5080313682556152
			],
			"min":[
				-0.5080313682556152,
				-14.900496482849121,
				-0.5080313682556152
			],
			"type":"VEC3"
		},
		{
			"bufferView":1,
			"componentType":5126,
			"count":36,
			"type":"VEC3"
		},
		{
			"bufferView":2,
			"componentType":5126,
			"count":36,
			"type":"VEC2"
		},
		{
			"bufferView":3,
			"componentType":5126,
			"count":36,
			"type":"VEC4"
		},
		{
			"bufferView":4,
			"componentType":5123,
			"count":150,
			"type":"SCALAR"
		},
		{
			"bufferView":5,
			"componentType":5126,
			"count":1088,
			"max":[
				0.7094488143920898,
				-0.9265801906585693,
				15.501760482788086
			],
			"min":[
				-4.068329811096191,
				-4.213747024536133,
				7.085598945617676
			],
			"type":"VEC3"
		},
		{
			"bufferView":6,
			"componentType":5126,
			"count":1088,
			"type":"VEC3"
		},
		{
			"bufferView":7,
			"componentType":5126,
			"count":1088,
			"type":"VEC2"
		},
		{
			"bufferView":8,
			"componentType":5123,
			"count":4467,
			"type":"SCALAR"
		},
		{
			"bufferView":9,
			"componentType":5126,
			"count":63,
			"max":[
				0.6894674301147461,
				-1.6644686460494995,
				15.461384773254395
			],
			"min":[
				-4.064644813537598,
				-4.213747024536133,
				8.118879318237305
			],
			"type":"VEC3"
		},
		{
			"bufferView":10,
			"componentType":5126,
			"count":63,
			"type":"VEC3"
		},
		{
			"bufferView":11,
			"componentType":5126,
			"count":63,
			"type":"VEC2"
		},
		{
			"bufferView":12,
			"componentType":5123,
			"count":171,
			"type":"SCALAR"
		},
		{
			"bufferView":13,
			"componentType":5126,
			"count":90,
			"max":[
				-0.09471642971038818,
				-0.9265801906585693,
				15.501760482788086
			],
			"min":[
				-3.26101016998291,
				-4.213747024536133,
				7.304635047912598
			],
			"type":"VEC3"
		},
		{
			"bufferView":14,
			"componentType":5126,
			"count":90,
			"type":"VEC3"
		},
		{
			"bufferView":15,
			"componentType":5126,
			"count":90,
			"type":"VEC2"
		},
		{
			"bufferView":16,
			"componentType":5123,
			"count":252,
			"type":"SCALAR"
		},
		{
			"bufferView":17,
			"componentType":5126,
			"count":189,
			"max":[
				4,
				-1.0166845321655273,
				4
			],
			"min":[
				1.1356629133224487,
				-14.488668441772461,
				0.7217175960540771
			],
			"type":"VEC3"
		},
		{
			"bufferView":18,
			"componentType":5126,
			"count":189,
			"type":"VEC3"
		},
		{
			"bufferView":19,
			"componentType":5126,
			"count":189,
			"type":"VEC2"
		},
		{
			"bufferView":20,
			"componentType":5123,
			"count":672,
			"type":"SCALAR"
		},
		{
			"bufferView":21,
			"componentType":5126,
			"count":56,
			"max":[
				4,
				5.2457780838012695,
				4
			],
			"min":[
				-1.0006380081176758,
				-2.5095510482788086,
				-1.3213849067687988
			],
			"type":"VEC3"
		},
		{
			"bufferView":22,
			"componentType":5126,
			"count":56,
			"type":"VEC3"
		},
		{
			"bufferView":23,
			"componentType":5126,
			"count":56,
			"type":"VEC2"
		},
		{
			"bufferView":24,
			"componentType":5123,
			"count":72,
			"type":"SCALAR"
		},
		{
			"bufferView":25,
			"componentType":5126,
			"count":16,
			"max":[
				4,
				4.2024126052856445,
				4
			],
			"min":[
				-0.3805243968963623,
				-1.419163703918457,
				-0.8504848480224609
			],
			"type":"VEC3"
		},
		{
			"bufferView":26,
			"componentType":5126,
			"count":16,
			"type":"VEC3"
		},
		{
			"bufferView":27,
			"componentType":5126,
			"count":16,
			"type":"VEC2"
		},
		{
			"bufferView":28,
			"componentType":5123,
			"count":36,
			"type":"SCALAR"
		},
		{
			"bufferView":29,
			"componentType":5126,
			"count":32,
			"max":[
				4,
				-6.349413871765137,
				4
			],
			"min":[
				2.99625301361084,
				-8.585224151611328,
				3.18062686920166
			],
			"type":"VEC3"
		},
		{
			"bufferView":30,
			"componentType":5126,
			"count":32,
			"type":"VEC3"
		},
		{
			"bufferView":31,
			"componentType":5126,
			"count":32,
			"type":"VEC2"
		},
		{
			"bufferView":32,
			"componentType":5123,
			"count":48,
			"type":"SCALAR"
		},
		{
			"bufferView":33,
			"componentType":5126,
			"count":60,
			"max":[
				3.700233221054077,
				-9.660318374633789,
				1.5659620761871338
			],
			"min":[
				2.3270792961120605,
				-11.243399620056152,
				0.15325987339019775
			],
			"type":"VEC3"
		},
		{
			"bufferView":34,
			"componentType":5126,
			"count":60,
			"type":"VEC3"
		},
		{
			"bufferView":35,
			"componentType":5126,
			"count":60,
			"type":"VEC2"
		},
		{
			"bufferView":36,
			"componentType":5126,
			"count":60,
			"type":"VEC4"
		},
		{
			"bufferView":37,
			"componentType":5123,
			"count":60,
			"type":"SCALAR"
		}
	],
	"bufferViews":[
		{
			"buffer":0,
			"byteLength":432,
			"byteOffset":0,
			"target":34962
		},
		{
			"buffer":0,
			"byteLength":432,
			"byteOffset":432,
			"target":34962
		},
		{
			"buffer":0,
			"byteLength":288,
			"byteOffset":864,
			"target":34962
		},
		{
			"buffer":0,
			"byteLength":576,
			"byteOffset":1152,
			"target":34962
		},
		{
			"buffer":0,
			"byteLength":300,
			"byteOffset":1728,
			"target":34963
		},
		{
			"buffer":0,
			"byteLength":13056,
			"byteOffset":2028,
			"target":34962
		},
		{
			"buffer":0,
			"byteLength":13056,
			"byteOffset":15084,
			"target":34962
		},
		{
			"buffer":0,
			"byteLength":8704,
			"byteOffset":28140,
			"target":34962
		},
		{
			"buffer":0,
			"byteLength":8934,
			"byteOffset":36844,
			"target":34963
		},
		{
			"buffer":0,
			"byteLength":756,
			"byteOffset":45780,
			"target":34962
		},
		{
			"buffer":0,
			"byteLength":756,
			"byteOffset":46536,
			"target":34962
		},
		{
			"buffer":0,
			"byteLength":504,
			"byteOffset":47292,
			"target":34962
		},
		{
			"buffer":0,
			"byteLength":342,
			"byteOffset":47796,
			"target":34963
		},
		{
			"buffer":0,
			"byteLength":1080,
			"byteOffset":48140,
			"target":34962
		},
		{
			"buffer":0,
			"byteLength":1080,
			"byteOffset":49220,
			"target":34962
		},
		{
			"buffer":0,
			"byteLength":720,
			"byteOffset":50300,
			"target":34962
		},
		{
			"buffer":0,
			"byteLength":504,
			"byteOffset":51020,
			"target":34963
		},
		{
			"buffer":0,
			"byteLength":2268,
			"byteOffset":51524,
			"target":34962
		},
		{
			"buffer":0,
			"byteLength":2268,
			"byteOffset":53792,
			"target":34962
		},
		{
			"buffer":0,
			"byteLength":1512,
			"byteOffset":56060,
			"target":34962
		},
		{
			"buffer":0,
			"byteLength":1344,
			"byteOffset":57572,
			"target":34963
		},
		{
			"buffer":0,
			"byteLength":672,
			"byteOffset":58916,
			"target":34962
		},
		{
			"buffer":0,
			"byteLength":672,
			"byteOffset":59588,
			"target":34962
		},
		{
			"buffer":0,
			"byteLength":448,
			"byteOffset":60260,
			"target":34962
		},
		{
			"buffer":0,
			"byteLength":144,
			"byteOffset":60708,
			"target":34963
		},
		{
			"buffer":0,
			"byteLength":192,
			"byteOffset":60852,
			"target":34962
		},
		{
			"buffer":0,
			"byteLength":192,
			"byteOffset":61044,
			"target":34962
		},
		{
			"buffer":0,
			"byteLength":128,
			"byteOffset":61236,
			"target":34962
		},
		{
			"buffer":0,
			"byteLength":72,
			"byteOffset":61364,
			"target":34963
		},
		{
			"buffer":0,
			"byteLength":384,
			"byteOffset":61436,
			"target":34962
		},
		{
			"buffer":0,
			"byteLength":384,
			"byteOffset":61820,
			"target":34962
		},
		{
			"buffer":0,
			"byteLength":256,
			"byteOffset":62204,
			"target":34962
		},
		{
			"buffer":0,
			"byteLength":96,
			"byteOffset":62460,
			"target":34963
		},
		{
			"buffer":0,
			"byteLength":720,
			"byteOffset":62556,
			"target":34962
		},
		{
			"buffer":0,
			"byteLength":720,
			"byteOffset":63276,
			"target":34962
		},
		{
			"buffer":0,
			"byteLength":480,
			"byteOffset":63996,
			"target":34962
		},
		{
			"buffer":0,
			"byteLength":960,
			"byteOffset":64476,
			"target":34962
		},
		{
			"buffer":0,
			"byteLength":120,
			"byteOffset":65436,
			"target":34963
		}
	],
	"samplers":[
		{
			"magFilter":9729,
			"minFilter":9987
		}
	],
	"buffers":[
		{
			"byteLength":65556,
			"uri":"tile_18_0_9.bin"
		}
	]
}
