{
	"asset":{
		"generator":"Khronos glTF Blender I/O v4.0.44",
		"version":"2.0"
	},
	"extensionsUsed":[
		"KHR_materials_specular",
		"KHR_materials_ior",
		"KHR_materials_emissive_strength"
	],
	"scene":0,
	"scenes":[
		{
			"name":"Scene",
			"nodes":[
				0,
				1,
				2
			]
		}
	],
	"nodes":[
		{
			"mesh":0,
			"name":"Plane",
			"scale":[
				7.873531341552734,
				0.9841914176940918,
				7.873531341552734
			]
		},
		{
			"mesh":1,
			"name":"track.115",
			"scale":[
				3.7706682682037354,
				3.7706682682037354,
				3.7706682682037354
			]
		},
		{
			"mesh":2,
			"name":"Icosphere.001",
			"rotation":[
				0,
				-0.8161246180534363,
				0,
				0.5778759717941284
			],
			"scale":[
				8.599296569824219,
				5.349599838256836,
				8.599296569824219
			]
		}
	],
	"materials":[
		{
			"doubleSided":true,
			"extensions":{
				"KHR_materials_specular":{
					"specularColorFactor":[
						2.0,
						2.0,
						2.0
					]
				},
				"KHR_materials_ior":{
					"ior":1.4500000476837158
				}
			},
			"name":"building",
			"pbrMetallicRoughness":{
				"baseColorTexture":{
					"index":0
				},
				"metallicFactor":0
			}
		},
		{
			"doubleSided":true,
			"extensions":{
				"KHR_materials_specular":{
					"specularColorFactor":[
						2.0,
						2.0,
						2.0
					]
				},
				"KHR_materials_ior":{
					"ior":1.4500000476837158
				}
			},
			"name":"building2",
			"pbrMetallicRoughness":{
				"baseColorTexture":{
					"index":1
				},
				"metallicFactor":0,
				"roughnessFactor":0.17924527823925018
			}
		},
		{
			"doubleSided":true,
			"emissiveFactor":[
				1,
				1,
				1
			],
			"extensions":{
				"KHR_materials_emissive_strength":{
					"emissiveStrength":4
				}
			},
			"name":"Glow2",
			"pbrMetallicRoughness":{
				"baseColorFactor":[
					0.800000011920929,
					0.800000011920929,
					0.800000011920929,
					1
				],
				"metallicFactor":0,
				"roughnessFactor":0.5
			}
		}
	],
	"meshes":[
		{
			"name":"Plane.880",
			"primitives":[
				{
					"attributes":{
						"POSITION":0,
						"NORMAL":1,
						"TEXCOORD_0":2
					},
					"indices":3,
					"material":0
				}
			]
		},
		{
			"name":"Plane.881",
			"primitives":[
				{
					"attributes":{
						"POSITION":4,
						"NORMAL":5,
						"TEXCOORD_0":6
					},
					"indices":7,
					"material":0
				}
			]
		},
		{
			"name":"Icosphere.040",
			"primitives":[
				{
					"attributes":{
						"POSITION":8,
						"NORMAL":9,
						"TEXCOORD_0":10
					},
					"indices":11,
					"material":1
				},
				{
					"attributes":{
						"POSITION":12,
						"NORMAL":13,
						"TEXCOORD_0":14
					},
					"indices":15,
					"material":2
				}
			]
		}
	],
	"textures":[
		{
			"sampler":0,
			"source":0
		},
		{
			"sampler":0,
			"source":0
		}
	],
	"images":[
		{
			"mimeType":"image/png",
			"name":"AvatarWearables_TX",
			"uri":"tex/AvatarWearables_TX.png"
		}
	],
	"accessors":[
		{
			"bufferView":0,
			"componentType":5126,
			"count":99,
			"max":[
				0.5080313682556152,
				-7.333330154418945,
				0.5080312490463257
			],
			"min":[
				-0.5080313682556152,
				-16.256999969482422,
				-0.5080312490463257
			],
			"type":"VEC3"
		},
		{
			"bufferView":1,
			"componentType":5126,
			"count":99,
			"type":"VEC3"
		},
		{
			"bufferView":2,
			"componentType":5126,
			"count":99,
			"type":"VEC2"
		},
		{
			"bufferView":3,
			"componentType":5123,
			"count":321,
			"type":"SCALAR"
		},
		{
			"bufferView":4,
			"componentType":5126,
			"count":72,
			"max":[
				-0.6585326194763184,
				-0.9360857009887695,
				1.0608208179473877
			],
			"min":[
				-1.0608196258544922,
				-1.5121922492980957,
				-0.4509090185165405
			],
			"type":"VEC3"
		},
		{
			"bufferView":5,
			"componentType":5126,
			"count":72,
			"type":"VEC3"
		},
		{
			"bufferView":6,
			"componentType":5126,
			"count":72,
			"type":"VEC2"
		},
		{
			"bufferView":7,
			"componentType":5123,
			"count":141,
			"type":"SCALAR"
		},
		{
			"bufferView":8,
			"componentType":5126,
			"count":144,
			"max":[
				0.41658255457878113,
				-0.7579087018966675,
				-0.21744626760482788
			],
			"min":[
				-0.16283512115478516,
				-2.589738130569458,
				-0.5932374596595764
			],
			"type":"VEC3"
		},
		{
			"bufferView":9,
			"componentType":5126,
			"count":144,
			"type":"VEC3"
		},
		{
			"bufferView":10,
			"componentType":5126,
			"count":144,
			"type":"VEC2"
		},
		{
			"bufferView":11,
			"componentType":5123,
			"count":327,
			"type":"SCALAR"
		},
		{
			"bufferView":12,
			"componentType":5126,
			"count":19,
			"max":[
				0.41658255457878113,
				-1.1435545682907104,
				-0.21744626760482788
			],
			"min":[
				-0.16283512115478516,
				-1.8630123138427734,
				-0.5059741139411926
			],
			"type":"VEC3"
		},
		{
			"bufferView":13,
			"componentType":5126,
			"count":19,
			"type":"VEC3"
		},
		{
			"bufferView":14,
			"componentType":5126,
			"count":19,
			"type":"VEC2"
		},
		{
			"bufferView":15,
			"componentType":5123,
			"count":27,
			"type":"SCALAR"
		}
	],
	"bufferViews":[
		{
			"buffer":0,
			"byteLength":1188,
			"byteOffset":0,
			"target":34962
		},
		{
			"buffer":0,
			"byteLength":1188,
			"byteOffset":1188,
			"target":34962
		},
		{
			"buffer":0,
			"byteLength":792,
			"byteOffset":2376,
			"target":34962
		},
		{
			"buffer":0,
			"byteLength":642,
			"byteOffset":3168,
			"target":34963
		},
		{
			"buffer":0,
			"byteLength":864,
			"byteOffset":3812,
			"target":34962
		},
		{
			"buffer":0,
			"byteLength":864,
			"byteOffset":4676,
			"target":34962
		},
		{
			"buffer":0,
			"byteLength":576,
			"byteOffset":5540,
			"target":34962
		},
		{
			"buffer":0,
			"byteLength":282,
			"byteOffset":6116,
			"target":34963
		},
		{
			"buffer":0,
			"byteLength":1728,
			"byteOffset":6400,
			"target":34962
		},
		{
			"buffer":0,
			"byteLength":1728,
			"byteOffset":8128,
			"target":34962
		},
		{
			"buffer":0,
			"byteLength":1152,
			"byteOffset":9856,
			"target":34962
		},
		{
			"buffer":0,
			"byteLength":654,
			"byteOffset":11008,
			"target":34963
		},
		{
			"buffer":0,
			"byteLength":228,
			"byteOffset":11664,
			"target":34962
		},
		{
			"buffer":0,
			"byteLength":228,
			"byteOffset":11892,
			"target":34962
		},
		{
			"buffer":0,
			"byteLength":152,
			"byteOffset":12120,
			"target":34962
		},
		{
			"buffer":0,
			"byteLength":54,
			"byteOffset":12272,
			"target":34963
		}
	],
	"samplers":[
		{
			"magFilter":9729,
			"minFilter":9987
		}
	],
	"buffers":[
		{
			"byteLength":12328,
			"uri":"tile_9_0_6.bin"
		}
	]
}
