{
	"asset":{
		"generator":"Khronos glTF Blender I/O v4.0.44",
		"version":"2.0"
	},
	"extensionsUsed":[
		"KHR_materials_specular",
		"KHR_materials_ior",
		"KHR_materials_emissive_strength"
	],
	"scene":0,
	"scenes":[
		{
			"name":"Scene",
			"nodes":[
				0,
				1,
				2
			]
		}
	],
	"nodes":[
		{
			"mesh":0,
			"name":"Plane",
			"scale":[
				7.873531341552734,
				0.9841914176940918,
				7.873531341552734
			]
		},
		{
			"name":"track.099",
			"scale":[
				3.7706682682037354,
				3.7706682682037354,
				3.7706682682037354
			]
		},
		{
			"mesh":1,
			"name":"Cube.011",
			"rotation":[
				0,
				-0.06093847379088402,
				0,
				0.9981415271759033
			],
			"scale":[
				1.608573317527771,
				1.6085731983184814,
				1.608573317527771
			]
		}
	],
	"materials":[
		{
			"doubleSided":true,
			"extensions":{
				"KHR_materials_specular":{
					"specularColorFactor":[
						2.0,
						2.0,
						2.0
					]
				},
				"KHR_materials_ior":{
					"ior":1.4500000476837158
				}
			},
			"name":"building",
			"pbrMetallicRoughness":{
				"baseColorTexture":{
					"index":0
				},
				"metallicFactor":0
			}
		},
		{
			"doubleSided":true,
			"extensions":{
				"KHR_materials_specular":{
					"specularColorFactor":[
						2.0,
						2.0,
						2.0
					]
				},
				"KHR_materials_ior":{
					"ior":1.4500000476837158
				}
			},
			"name":"building2",
			"pbrMetallicRoughness":{
				"baseColorTexture":{
					"index":1
				},
				"metallicFactor":0,
				"roughnessFactor":0.17924527823925018
			}
		},
		{
			"doubleSided":true,
			"emissiveFactor":[
				1,
				0.10824445978162396,
				1
			],
			"extensions":{
				"KHR_materials_emissive_strength":{
					"emissiveStrength":1.5982129573822021
				}
			},
			"name":"Glow7",
			"pbrMetallicRoughness":{
				"baseColorFactor":[
					0.7954351902008057,
					0.08631403744220734,
					0.8003629446029663,
					1
				],
				"metallicFactor":0
			}
		}
	],
	"meshes":[
		{
			"name":"Plane.848",
			"primitives":[
				{
					"attributes":{
						"POSITION":0,
						"NORMAL":1,
						"TEXCOORD_0":2
					},
					"indices":3,
					"material":0
				},
				{
					"attributes":{
						"POSITION":4,
						"NORMAL":5,
						"TEXCOORD_0":6
					},
					"indices":7,
					"material":0
				}
			]
		},
		{
			"name":"Cube.610",
			"primitives":[
				{
					"attributes":{
						"POSITION":8,
						"NORMAL":9,
						"TEXCOORD_0":10
					},
					"indices":11,
					"material":1
				},
				{
					"attributes":{
						"POSITION":12,
						"NORMAL":13,
						"TEXCOORD_0":14
					},
					"indices":15,
					"material":2
				}
			]
		}
	],
	"textures":[
		{
			"sampler":0,
			"source":0
		},
		{
			"sampler":0,
			"source":0
		}
	],
	"images":[
		{
			"mimeType":"image/png",
			"name":"AvatarWearables_TX",
			"uri":"tex/AvatarWearables_TX.png"
		}
	],
	"accessors":[
		{
			"bufferView":0,
			"componentType":5126,
			"count":46,
			"max":[
				0.5080323219299316,
				-13.512009620666504,
				0.5080311298370361
			],
			"min":[
				-0.5080304145812988,
				-14.900496482849121,
				-0.5080316066741943
			],
			"type":"VEC3"
		},
		{
			"bufferView":1,
			"componentType":5126,
			"count":46,
			"type":"VEC3"
		},
		{
			"bufferView":2,
			"componentType":5126,
			"count":46,
			"type":"VEC2"
		},
		{
			"bufferView":3,
			"componentType":5123,
			"count":180,
			"type":"SCALAR"
		},
		{
			"bufferView":4,
			"componentType":5126,
			"count":19,
			"max":[
				0.5080323219299316,
				-13.512009620666504,
				0.5080311298370361
			],
			"min":[
				0.26868581771850586,
				-16.256999969482422,
				-0.5080316066741943
			],
			"type":"VEC3"
		},
		{
			"bufferView":5,
			"componentType":5126,
			"count":19,
			"type":"VEC3"
		},
		{
			"bufferView":6,
			"componentType":5126,
			"count":19,
			"type":"VEC2"
		},
		{
			"bufferView":7,
			"componentType":5123,
			"count":36,
			"type":"SCALAR"
		},
		{
			"bufferView":8,
			"componentType":5126,
			"count":221,
			"max":[
				-0.6003358364105225,
				-4.370906829833984,
				2.770712375640869
			],
			"min":[
				-2.3829526901245117,
				-9.016534805297852,
				0.7565886974334717
			],
			"type":"VEC3"
		},
		{
			"bufferView":9,
			"componentType":5126,
			"count":221,
			"type":"VEC3"
		},
		{
			"bufferView":10,
			"componentType":5126,
			"count":221,
			"type":"VEC2"
		},
		{
			"bufferView":11,
			"componentType":5123,
			"count":495,
			"type":"SCALAR"
		},
		{
			"bufferView":12,
			"componentType":5126,
			"count":53,
			"max":[
				-0.6003351211547852,
				-4.370905876159668,
				2.7547922134399414
			],
			"min":[
				-2.2796387672424316,
				-9.016534805297852,
				0.7565884590148926
			],
			"type":"VEC3"
		},
		{
			"bufferView":13,
			"componentType":5126,
			"count":53,
			"type":"VEC3"
		},
		{
			"bufferView":14,
			"componentType":5126,
			"count":53,
			"type":"VEC2"
		},
		{
			"bufferView":15,
			"componentType":5123,
			"count":96,
			"type":"SCALAR"
		}
	],
	"bufferViews":[
		{
			"buffer":0,
			"byteLength":552,
			"byteOffset":0,
			"target":34962
		},
		{
			"buffer":0,
			"byteLength":552,
			"byteOffset":552,
			"target":34962
		},
		{
			"buffer":0,
			"byteLength":368,
			"byteOffset":1104,
			"target":34962
		},
		{
			"buffer":0,
			"byteLength":360,
			"byteOffset":1472,
			"target":34963
		},
		{
			"buffer":0,
			"byteLength":228,
			"byteOffset":1832,
			"target":34962
		},
		{
			"buffer":0,
			"byteLength":228,
			"byteOffset":2060,
			"target":34962
		},
		{
			"buffer":0,
			"byteLength":152,
			"byteOffset":2288,
			"target":34962
		},
		{
			"buffer":0,
			"byteLength":72,
			"byteOffset":2440,
			"target":34963
		},
		{
			"buffer":0,
			"byteLength":2652,
			"byteOffset":2512,
			"target":34962
		},
		{
			"buffer":0,
			"byteLength":2652,
			"byteOffset":5164,
			"target":34962
		},
		{
			"buffer":0,
			"byteLength":1768,
			"byteOffset":7816,
			"target":34962
		},
		{
			"buffer":0,
			"byteLength":990,
			"byteOffset":9584,
			"target":34963
		},
		{
			"buffer":0,
			"byteLength":636,
			"byteOffset":10576,
			"target":34962
		},
		{
			"buffer":0,
			"byteLength":636,
			"byteOffset":11212,
			"target":34962
		},
		{
			"buffer":0,
			"byteLength":424,
			"byteOffset":11848,
			"target":34962
		},
		{
			"buffer":0,
			"byteLength":192,
			"byteOffset":12272,
			"target":34963
		}
	],
	"samplers":[
		{
			"magFilter":9729,
			"minFilter":9987
		}
	],
	"buffers":[
		{
			"byteLength":12464,
			"uri":"tile_8_0_2.bin"
		}
	]
}
