{
	"asset":{
		"generator":"Khronos glTF Blender I/O v4.0.44",
		"version":"2.0"
	},
	"extensionsUsed":[
		"KHR_materials_specular",
		"KHR_materials_ior"
	],
	"scene":0,
	"scenes":[
		{
			"name":"Scene",
			"nodes":[
				0,
				1,
				2
			]
		}
	],
	"nodes":[
		{
			"mesh":0,
			"name":"Plane",
			"scale":[
				7.873531341552734,
				0.9841914176940918,
				7.873531341552734
			]
		},
		{
			"mesh":1,
			"name":"Plane.001",
			"scale":[
				3.7706682682037354,
				3.7706682682037354,
				3.7706682682037354
			]
		},
		{
			"mesh":2,
			"name":"Cylinder.017",
			"rotation":[
				0,
				-0.21751731634140015,
				0,
				0.9760565757751465
			],
			"scale":[
				0.5027838349342346,
				2.7848880290985107,
				0.5027838349342346
			]
		}
	],
	"materials":[
		{
			"doubleSided":true,
			"extensions":{
				"KHR_materials_specular":{
					"specularColorFactor":[
						2.0,
						2.0,
						2.0
					]
				},
				"KHR_materials_ior":{
					"ior":1.4500000476837158
				}
			},
			"name":"building",
			"pbrMetallicRoughness":{
				"baseColorTexture":{
					"index":0
				},
				"metallicFactor":0
			}
		}
	],
	"meshes":[
		{
			"name":"Plane.143",
			"primitives":[
				{
					"attributes":{
						"POSITION":0,
						"NORMAL":1,
						"TEXCOORD_0":2
					},
					"indices":3,
					"material":0
				}
			]
		},
		{
			"name":"Plane.144",
			"primitives":[
				{
					"attributes":{
						"POSITION":4,
						"NORMAL":5,
						"TEXCOORD_0":6
					},
					"indices":7,
					"material":0
				}
			]
		},
		{
			"name":"Cylinder.051",
			"primitives":[
				{
					"attributes":{
						"POSITION":8,
						"NORMAL":9,
						"TEXCOORD_0":10,
						"TANGENT":11
					},
					"indices":12,
					"material":0
				}
			]
		}
	],
	"textures":[
		{
			"sampler":0,
			"source":0
		}
	],
	"images":[
		{
			"mimeType":"image/png",
			"name":"AvatarWearables_TX",
			"uri":"tex/AvatarWearables_TX.png"
		}
	],
	"accessors":[
		{
			"bufferView":0,
			"componentType":5126,
			"count":140,
			"max":[
				1.0160627365112305,
				-6.4392781257629395,
				1.0160622596740723
			],
			"min":[
				-1.0160624980926514,
				-6.77199649810791,
				-0.9212799072265625
			],
			"type":"VEC3"
		},
		{
			"bufferView":1,
			"componentType":5126,
			"count":140,
			"type":"VEC3"
		},
		{
			"bufferView":2,
			"componentType":5126,
			"count":140,
			"type":"VEC2"
		},
		{
			"bufferView":3,
			"componentType":5123,
			"count":555,
			"type":"SCALAR"
		},
		{
			"bufferView":4,
			"componentType":5126,
			"count":125,
			"max":[
				2.1216373443603516,
				-1.4242981672286987,
				2.121640205383301
			],
			"min":[
				-2.1216416358947754,
				-2.1216399669647217,
				-0.4577646255493164
			],
			"type":"VEC3"
		},
		{
			"bufferView":5,
			"componentType":5126,
			"count":125,
			"type":"VEC3"
		},
		{
			"bufferView":6,
			"componentType":5126,
			"count":125,
			"type":"VEC2"
		},
		{
			"bufferView":7,
			"componentType":5123,
			"count":213,
			"type":"SCALAR"
		},
		{
			"bufferView":8,
			"componentType":5126,
			"count":120,
			"max":[
				6.276588439941406,
				-1.1052697896957397,
				-6.195425510406494
			],
			"min":[
				1.586486577987671,
				-1.8853038549423218,
				-8.553207397460938
			],
			"type":"VEC3"
		},
		{
			"bufferView":9,
			"componentType":5126,
			"count":120,
			"type":"VEC3"
		},
		{
			"bufferView":10,
			"componentType":5126,
			"count":120,
			"type":"VEC2"
		},
		{
			"bufferView":11,
			"componentType":5126,
			"count":120,
			"type":"VEC4"
		},
		{
			"bufferView":12,
			"componentType":5123,
			"count":120,
			"type":"SCALAR"
		}
	],
	"bufferViews":[
		{
			"buffer":0,
			"byteLength":1680,
			"byteOffset":0,
			"target":34962
		},
		{
			"buffer":0,
			"byteLength":1680,
			"byteOffset":1680,
			"target":34962
		},
		{
			"buffer":0,
			"byteLength":1120,
			"byteOffset":3360,
			"target":34962
		},
		{
			"buffer":0,
			"byteLength":1110,
			"byteOffset":4480,
			"target":34963
		},
		{
			"buffer":0,
			"byteLength":1500,
			"byteOffset":5592,
			"target":34962
		},
		{
			"buffer":0,
			"byteLength":1500,
			"byteOffset":7092,
			"target":34962
		},
		{
			"buffer":0,
			"byteLength":1000,
			"byteOffset":8592,
			"target":34962
		},
		{
			"buffer":0,
			"byteLength":426,
			"byteOffset":9592,
			"target":34963
		},
		{
			"buffer":0,
			"byteLength":1440,
			"byteOffset":10020,
			"target":34962
		},
		{
			"buffer":0,
			"byteLength":1440,
			"byteOffset":11460,
			"target":34962
		},
		{
			"buffer":0,
			"byteLength":960,
			"byteOffset":12900,
			"target":34962
		},
		{
			"buffer":0,
			"byteLength":1920,
			"byteOffset":13860,
			"target":34962
		},
		{
			"buffer":0,
			"byteLength":240,
			"byteOffset":15780,
			"target":34963
		}
	],
	"samplers":[
		{
			"magFilter":9729,
			"minFilter":9987
		}
	],
	"buffers":[
		{
			"byteLength":16020,
			"uri":"tile_7_1_5.bin"
		}
	]
}
