{
	"asset":{
		"generator":"Khronos glTF Blender I/O v4.0.44",
		"version":"2.0"
	},
	"extensionsUsed":[
		"KHR_materials_specular",
		"KHR_materials_ior"
	],
	"scene":0,
	"scenes":[
		{
			"name":"Scene",
			"nodes":[
				0,
				1,
				2,
				3,
				4,
				5,
				6,
				7,
				8,
				9
			]
		}
	],
	"nodes":[
		{
			"mesh":0,
			"name":"Plane",
			"scale":[
				7.873531341552734,
				0.9841914176940918,
				7.873531341552734
			]
		},
		{
			"mesh":1,
			"name":"track.216",
			"scale":[
				3.7706682682037354,
				3.7706682682037354,
				3.7706682682037354
			]
		},
		{
			"mesh":2,
			"name":"Cube.006"
		},
		{
			"mesh":3,
			"name":"Cube.070"
		},
		{
			"mesh":4,
			"name":"Cube.071"
		},
		{
			"mesh":5,
			"name":"Cube.072"
		},
		{
			"mesh":6,
			"name":"Cube.073"
		},
		{
			"mesh":7,
			"name":"Cube.074"
		},
		{
			"mesh":8,
			"name":"Cube.075"
		},
		{
			"mesh":9,
			"name":"Cube.076"
		}
	],
	"materials":[
		{
			"doubleSided":true,
			"extensions":{
				"KHR_materials_specular":{
					"specularColorFactor":[
						2.0,
						2.0,
						2.0
					]
				},
				"KHR_materials_ior":{
					"ior":1.4500000476837158
				}
			},
			"name":"building",
			"pbrMetallicRoughness":{
				"baseColorTexture":{
					"index":0
				},
				"metallicFactor":0
			}
		}
	],
	"meshes":[
		{
			"name":"Plane.1082",
			"primitives":[
				{
					"attributes":{
						"POSITION":0,
						"NORMAL":1,
						"TEXCOORD_0":2,
						"TANGENT":3
					},
					"indices":4,
					"material":0
				}
			]
		},
		{
			"name":"Plane.1083",
			"primitives":[
				{
					"attributes":{
						"POSITION":5,
						"NORMAL":6,
						"TEXCOORD_0":7
					},
					"indices":8,
					"material":0
				}
			]
		},
		{
			"name":"Cube.672",
			"primitives":[
				{
					"attributes":{
						"POSITION":9,
						"NORMAL":10,
						"TEXCOORD_0":11
					},
					"indices":12,
					"material":0
				},
				{
					"attributes":{
						"POSITION":13,
						"NORMAL":14,
						"TEXCOORD_0":15
					},
					"indices":16,
					"material":0
				}
			]
		},
		{
			"name":"Cube.673",
			"primitives":[
				{
					"attributes":{
						"POSITION":17,
						"NORMAL":18,
						"TEXCOORD_0":19,
						"TANGENT":20
					},
					"indices":21,
					"material":0
				},
				{
					"attributes":{
						"POSITION":22,
						"NORMAL":23,
						"TEXCOORD_0":24,
						"TANGENT":25
					},
					"indices":26,
					"material":0
				}
			]
		},
		{
			"name":"Cube.674",
			"primitives":[
				{
					"attributes":{
						"POSITION":27,
						"NORMAL":28,
						"TEXCOORD_0":29,
						"TANGENT":30
					},
					"indices":31,
					"material":0
				}
			]
		},
		{
			"name":"Cube.675",
			"primitives":[
				{
					"attributes":{
						"POSITION":32,
						"NORMAL":33,
						"TEXCOORD_0":34,
						"TANGENT":35
					},
					"indices":31,
					"material":0
				}
			]
		},
		{
			"name":"Cube.676",
			"primitives":[
				{
					"attributes":{
						"POSITION":36,
						"NORMAL":37,
						"TEXCOORD_0":38,
						"TANGENT":39
					},
					"indices":31,
					"material":0
				}
			]
		},
		{
			"name":"Cube.677",
			"primitives":[
				{
					"attributes":{
						"POSITION":40,
						"NORMAL":41,
						"TEXCOORD_0":42,
						"TANGENT":43
					},
					"indices":21,
					"material":0
				},
				{
					"attributes":{
						"POSITION":44,
						"NORMAL":45,
						"TEXCOORD_0":46,
						"TANGENT":47
					},
					"indices":26,
					"material":0
				}
			]
		},
		{
			"name":"Cube.678",
			"primitives":[
				{
					"attributes":{
						"POSITION":48,
						"NORMAL":49,
						"TEXCOORD_0":50,
						"TANGENT":51
					},
					"indices":21,
					"material":0
				},
				{
					"attributes":{
						"POSITION":52,
						"NORMAL":53,
						"TEXCOORD_0":54,
						"TANGENT":55
					},
					"indices":26,
					"material":0
				}
			]
		},
		{
			"name":"Cube.679",
			"primitives":[
				{
					"attributes":{
						"POSITION":56,
						"NORMAL":57,
						"TEXCOORD_0":58,
						"TANGENT":59
					},
					"indices":31,
					"material":0
				}
			]
		}
	],
	"textures":[
		{
			"sampler":0,
			"source":0
		}
	],
	"images":[
		{
			"mimeType":"image/png",
			"name":"AvatarWearables_TX",
			"uri":"tex/AvatarWearables_TX.png"
		}
	],
	"accessors":[
		{
			"bufferView":0,
			"componentType":5126,
			"count":62,
			"max":[
				0.508033275604248,
				-14.567778587341309,
				0.5080313682556152
			],
			"min":[
				-0.5080294609069824,
				-14.900496482849121,
				-0.41324806213378906
			],
			"type":"VEC3"
		},
		{
			"bufferView":1,
			"componentType":5126,
			"count":62,
			"type":"VEC3"
		},
		{
			"bufferView":2,
			"componentType":5126,
			"count":62,
			"type":"VEC2"
		},
		{
			"bufferView":3,
			"componentType":5126,
			"count":62,
			"type":"VEC4"
		},
		{
			"bufferView":4,
			"componentType":5123,
			"count":192,
			"type":"SCALAR"
		},
		{
			"bufferView":5,
			"componentType":5126,
			"count":59,
			"max":[
				1.0608196258544922,
				-3.54583477973938,
				1.0608196258544922
			],
			"min":[
				-1.0608196258544922,
				-4.243279933929443,
				0.3427753448486328
			],
			"type":"VEC3"
		},
		{
			"bufferView":6,
			"componentType":5126,
			"count":59,
			"type":"VEC3"
		},
		{
			"bufferView":7,
			"componentType":5126,
			"count":59,
			"type":"VEC2"
		},
		{
			"bufferView":8,
			"componentType":5123,
			"count":99,
			"type":"SCALAR"
		},
		{
			"bufferView":9,
			"componentType":5126,
			"count":144,
			"max":[
				2.720898151397705,
				-11.940752983093262,
				0.6961452960968018
			],
			"min":[
				-4,
				-14.761817932128906,
				-2.2212767601013184
			],
			"type":"VEC3"
		},
		{
			"bufferView":10,
			"componentType":5126,
			"count":144,
			"type":"VEC3"
		},
		{
			"bufferView":11,
			"componentType":5126,
			"count":144,
			"type":"VEC2"
		},
		{
			"bufferView":12,
			"componentType":5123,
			"count":270,
			"type":"SCALAR"
		},
		{
			"bufferView":13,
			"componentType":5126,
			"count":8,
			"max":[
				-4,
				-11.940752983093262,
				0.5971313714981079
			],
			"min":[
				-4,
				-14.759161949157715,
				-2.2212767601013184
			],
			"type":"VEC3"
		},
		{
			"bufferView":14,
			"componentType":5126,
			"count":8,
			"type":"VEC3"
		},
		{
			"bufferView":15,
			"componentType":5126,
			"count":8,
			"type":"VEC2"
		},
		{
			"bufferView":16,
			"componentType":5123,
			"count":18,
			"type":"SCALAR"
		},
		{
			"bufferView":17,
			"componentType":5126,
			"count":20,
			"max":[
				2.6664228439331055,
				-14.049240112304688,
				0.3607635498046875
			],
			"min":[
				-4,
				-14.107187271118164,
				0.17490988969802856
			],
			"type":"VEC3"
		},
		{
			"bufferView":18,
			"componentType":5126,
			"count":20,
			"type":"VEC3"
		},
		{
			"bufferView":19,
			"componentType":5126,
			"count":20,
			"type":"VEC2"
		},
		{
			"bufferView":20,
			"componentType":5126,
			"count":20,
			"type":"VEC4"
		},
		{
			"bufferView":21,
			"componentType":5123,
			"count":30,
			"type":"SCALAR"
		},
		{
			"bufferView":22,
			"componentType":5126,
			"count":4,
			"max":[
				-4,
				-14.049240112304688,
				0.3607635498046875
			],
			"min":[
				-4,
				-14.107187271118164,
				0.17490988969802856
			],
			"type":"VEC3"
		},
		{
			"bufferView":23,
			"componentType":5126,
			"count":4,
			"type":"VEC3"
		},
		{
			"bufferView":24,
			"componentType":5126,
			"count":4,
			"type":"VEC2"
		},
		{
			"bufferView":25,
			"componentType":5126,
			"count":4,
			"type":"VEC4"
		},
		{
			"bufferView":26,
			"componentType":5123,
			"count":6,
			"type":"SCALAR"
		},
		{
			"bufferView":27,
			"componentType":5126,
			"count":24,
			"max":[
				2.6664228439331055,
				-13.759504318237305,
				-0.010943830013275146
			],
			"min":[
				-4,
				-13.817451477050781,
				-0.1967974305152893
			],
			"type":"VEC3"
		},
		{
			"bufferView":28,
			"componentType":5126,
			"count":24,
			"type":"VEC3"
		},
		{
			"bufferView":29,
			"componentType":5126,
			"count":24,
			"type":"VEC2"
		},
		{
			"bufferView":30,
			"componentType":5126,
			"count":24,
			"type":"VEC4"
		},
		{
			"bufferView":31,
			"componentType":5123,
			"count":36,
			"type":"SCALAR"
		},
		{
			"bufferView":32,
			"componentType":5126,
			"count":24,
			"max":[
				2.6664228439331055,
				-13.469769477844238,
				-0.38265112042427063
			],
			"min":[
				-4,
				-13.527716636657715,
				-0.5685047507286072
			],
			"type":"VEC3"
		},
		{
			"bufferView":33,
			"componentType":5126,
			"count":24,
			"type":"VEC3"
		},
		{
			"bufferView":34,
			"componentType":5126,
			"count":24,
			"type":"VEC2"
		},
		{
			"bufferView":35,
			"componentType":5126,
			"count":24,
			"type":"VEC4"
		},
		{
			"bufferView":36,
			"componentType":5126,
			"count":24,
			"max":[
				2.6664228439331055,
				-13.180034637451172,
				-0.7543583512306213
			],
			"min":[
				-4,
				-13.237981796264648,
				-0.940212070941925
			],
			"type":"VEC3"
		},
		{
			"bufferView":37,
			"componentType":5126,
			"count":24,
			"type":"VEC3"
		},
		{
			"bufferView":38,
			"componentType":5126,
			"count":24,
			"type":"VEC2"
		},
		{
			"bufferView":39,
			"componentType":5126,
			"count":24,
			"type":"VEC4"
		},
		{
			"bufferView":40,
			"componentType":5126,
			"count":20,
			"max":[
				2.6664228439331055,
				-12.890298843383789,
				-1.126065731048584
			],
			"min":[
				-4,
				-12.948246002197266,
				-1.3119193315505981
			],
			"type":"VEC3"
		},
		{
			"bufferView":41,
			"componentType":5126,
			"count":20,
			"type":"VEC3"
		},
		{
			"bufferView":42,
			"componentType":5126,
			"count":20,
			"type":"VEC2"
		},
		{
			"bufferView":43,
			"componentType":5126,
			"count":20,
			"type":"VEC4"
		},
		{
			"bufferView":44,
			"componentType":5126,
			"count":4,
			"max":[
				-4,
				-12.890298843383789,
				-1.126065731048584
			],
			"min":[
				-4,
				-12.948246002197266,
				-1.3119193315505981
			],
			"type":"VEC3"
		},
		{
			"bufferView":45,
			"componentType":5126,
			"count":4,
			"type":"VEC3"
		},
		{
			"bufferView":46,
			"componentType":5126,
			"count":4,
			"type":"VEC2"
		},
		{
			"bufferView":47,
			"componentType":5126,
			"count":4,
			"type":"VEC4"
		},
		{
			"bufferView":48,
			"componentType":5126,
			"count":20,
			"max":[
				2.6664228439331055,
				-12.600564002990723,
				-1.4977729320526123
			],
			"min":[
				-4,
				-12.6585111618042,
				-1.683626651763916
			],
			"type":"VEC3"
		},
		{
			"bufferView":49,
			"componentType":5126,
			"count":20,
			"type":"VEC3"
		},
		{
			"bufferView":50,
			"componentType":5126,
			"count":20,
			"type":"VEC2"
		},
		{
			"bufferView":51,
			"componentType":5126,
			"count":20,
			"type":"VEC4"
		},
		{
			"bufferView":52,
			"componentType":5126,
			"count":4,
			"max":[
				-4,
				-12.600564002990723,
				-1.4977729320526123
			],
			"min":[
				-4,
				-12.6585111618042,
				-1.683626651763916
			],
			"type":"VEC3"
		},
		{
			"bufferView":53,
			"componentType":5126,
			"count":4,
			"type":"VEC3"
		},
		{
			"bufferView":54,
			"componentType":5126,
			"count":4,
			"type":"VEC2"
		},
		{
			"bufferView":55,
			"componentType":5126,
			"count":4,
			"type":"VEC4"
		},
		{
			"bufferView":56,
			"componentType":5126,
			"count":24,
			"max":[
				2.6664228439331055,
				-12.31082820892334,
				-1.8694802522659302
			],
			"min":[
				-4,
				-12.368775367736816,
				-2.0553340911865234
			],
			"type":"VEC3"
		},
		{
			"bufferView":57,
			"componentType":5126,
			"count":24,
			"type":"VEC3"
		},
		{
			"bufferView":58,
			"componentType":5126,
			"count":24,
			"type":"VEC2"
		},
		{
			"bufferView":59,
			"componentType":5126,
			"count":24,
			"type":"VEC4"
		}
	],
	"bufferViews":[
		{
			"buffer":0,
			"byteLength":744,
			"byteOffset":0,
			"target":34962
		},
		{
			"buffer":0,
			"byteLength":744,
			"byteOffset":744,
			"target":34962
		},
		{
			"buffer":0,
			"byteLength":496,
			"byteOffset":1488,
			"target":34962
		},
		{
			"buffer":0,
			"byteLength":992,
			"byteOffset":1984,
			"target":34962
		},
		{
			"buffer":0,
			"byteLength":384,
			"byteOffset":2976,
			"target":34963
		},
		{
			"buffer":0,
			"byteLength":708,
			"byteOffset":3360,
			"target":34962
		},
		{
			"buffer":0,
			"byteLength":708,
			"byteOffset":4068,
			"target":34962
		},
		{
			"buffer":0,
			"byteLength":472,
			"byteOffset":4776,
			"target":34962
		},
		{
			"buffer":0,
			"byteLength":198,
			"byteOffset":5248,
			"target":34963
		},
		{
			"buffer":0,
			"byteLength":1728,
			"byteOffset":5448,
			"target":34962
		},
		{
			"buffer":0,
			"byteLength":1728,
			"byteOffset":7176,
			"target":34962
		},
		{
			"buffer":0,
			"byteLength":1152,
			"byteOffset":8904,
			"target":34962
		},
		{
			"buffer":0,
			"byteLength":540,
			"byteOffset":10056,
			"target":34963
		},
		{
			"buffer":0,
			"byteLength":96,
			"byteOffset":10596,
			"target":34962
		},
		{
			"buffer":0,
			"byteLength":96,
			"byteOffset":10692,
			"target":34962
		},
		{
			"buffer":0,
			"byteLength":64,
			"byteOffset":10788,
			"target":34962
		},
		{
			"buffer":0,
			"byteLength":36,
			"byteOffset":10852,
			"target":34963
		},
		{
			"buffer":0,
			"byteLength":240,
			"byteOffset":10888,
			"target":34962
		},
		{
			"buffer":0,
			"byteLength":240,
			"byteOffset":11128,
			"target":34962
		},
		{
			"buffer":0,
			"byteLength":160,
			"byteOffset":11368,
			"target":34962
		},
		{
			"buffer":0,
			"byteLength":320,
			"byteOffset":11528,
			"target":34962
		},
		{
			"buffer":0,
			"byteLength":60,
			"byteOffset":11848,
			"target":34963
		},
		{
			"buffer":0,
			"byteLength":48,
			"byteOffset":11908,
			"target":34962
		},
		{
			"buffer":0,
			"byteLength":48,
			"byteOffset":11956,
			"target":34962
		},
		{
			"buffer":0,
			"byteLength":32,
			"byteOffset":12004,
			"target":34962
		},
		{
			"buffer":0,
			"byteLength":64,
			"byteOffset":12036,
			"target":34962
		},
		{
			"buffer":0,
			"byteLength":12,
			"byteOffset":12100,
			"target":34963
		},
		{
			"buffer":0,
			"byteLength":288,
			"byteOffset":12112,
			"target":34962
		},
		{
			"buffer":0,
			"byteLength":288,
			"byteOffset":12400,
			"target":34962
		},
		{
			"buffer":0,
			"byteLength":192,
			"byteOffset":12688,
			"target":34962
		},
		{
			"buffer":0,
			"byteLength":384,
			"byteOffset":12880,
			"target":34962
		},
		{
			"buffer":0,
			"byteLength":72,
			"byteOffset":13264,
			"target":34963
		},
		{
			"buffer":0,
			"byteLength":288,
			"byteOffset":13336,
			"target":34962
		},
		{
			"buffer":0,
			"byteLength":288,
			"byteOffset":13624,
			"target":34962
		},
		{
			"buffer":0,
			"byteLength":192,
			"byteOffset":13912,
			"target":34962
		},
		{
			"buffer":0,
			"byteLength":384,
			"byteOffset":14104,
			"target":34962
		},
		{
			"buffer":0,
			"byteLength":288,
			"byteOffset":14488,
			"target":34962
		},
		{
			"buffer":0,
			"byteLength":288,
			"byteOffset":14776,
			"target":34962
		},
		{
			"buffer":0,
			"byteLength":192,
			"byteOffset":15064,
			"target":34962
		},
		{
			"buffer":0,
			"byteLength":384,
			"byteOffset":15256,
			"target":34962
		},
		{
			"buffer":0,
			"byteLength":240,
			"byteOffset":15640,
			"target":34962
		},
		{
			"buffer":0,
			"byteLength":240,
			"byteOffset":15880,
			"target":34962
		},
		{
			"buffer":0,
			"byteLength":160,
			"byteOffset":16120,
			"target":34962
		},
		{
			"buffer":0,
			"byteLength":320,
			"byteOffset":16280,
			"target":34962
		},
		{
			"buffer":0,
			"byteLength":48,
			"byteOffset":16600,
			"target":34962
		},
		{
			"buffer":0,
			"byteLength":48,
			"byteOffset":16648,
			"target":34962
		},
		{
			"buffer":0,
			"byteLength":32,
			"byteOffset":16696,
			"target":34962
		},
		{
			"buffer":0,
			"byteLength":64,
			"byteOffset":16728,
			"target":34962
		},
		{
			"buffer":0,
			"byteLength":240,
			"byteOffset":16792,
			"target":34962
		},
		{
			"buffer":0,
			"byteLength":240,
			"byteOffset":17032,
			"target":34962
		},
		{
			"buffer":0,
			"byteLength":160,
			"byteOffset":17272,
			"target":34962
		},
		{
			"buffer":0,
			"byteLength":320,
			"byteOffset":17432,
			"target":34962
		},
		{
			"buffer":0,
			"byteLength":48,
			"byteOffset":17752,
			"target":34962
		},
		{
			"buffer":0,
			"byteLength":48,
			"byteOffset":17800,
			"target":34962
		},
		{
			"buffer":0,
			"byteLength":32,
			"byteOffset":17848,
			"target":34962
		},
		{
			"buffer":0,
			"byteLength":64,
			"byteOffset":17880,
			"target":34962
		},
		{
			"buffer":0,
			"byteLength":288,
			"byteOffset":17944,
			"target":34962
		},
		{
			"buffer":0,
			"byteLength":288,
			"byteOffset":18232,
			"target":34962
		},
		{
			"buffer":0,
			"byteLength":192,
			"byteOffset":18520,
			"target":34962
		},
		{
			"buffer":0,
			"byteLength":384,
			"byteOffset":18712,
			"target":34962
		}
	],
	"samplers":[
		{
			"magFilter":9729,
			"minFilter":9987
		}
	],
	"buffers":[
		{
			"byteLength":19096,
			"uri":"tile_17_0_11.bin"
		}
	]
}
