{
	"asset":{
		"generator":"Khronos glTF Blender I/O v4.0.44",
		"version":"2.0"
	},
	"extensionsUsed":[
		"KHR_materials_specular",
		"KHR_materials_ior",
		"KHR_materials_emissive_strength"
	],
	"scene":0,
	"scenes":[
		{
			"name":"Scene",
			"nodes":[
				0,
				1,
				2
			]
		}
	],
	"nodes":[
		{
			"mesh":0,
			"name":"Plane",
			"scale":[
				7.873531341552734,
				0.9841914176940918,
				7.873531341552734
			]
		},
		{
			"mesh":1,
			"name":"track.184",
			"scale":[
				3.7706682682037354,
				3.7706682682037354,
				3.7706682682037354
			]
		},
		{
			"mesh":2,
			"name":"Torus.028",
			"rotation":[
				0.6081892251968384,
				0.3607020080089569,
				-0.3607020378112793,
				0.6081892251968384
			],
			"scale":[
				0.9492738246917725,
				0.9492738246917725,
				0.9492737650871277
			]
		}
	],
	"materials":[
		{
			"doubleSided":true,
			"extensions":{
				"KHR_materials_specular":{
					"specularColorFactor":[
						2.0,
						2.0,
						2.0
					]
				},
				"KHR_materials_ior":{
					"ior":1.4500000476837158
				}
			},
			"name":"building",
			"pbrMetallicRoughness":{
				"baseColorTexture":{
					"index":0
				},
				"metallicFactor":0
			}
		},
		{
			"doubleSided":true,
			"emissiveFactor":[
				1,
				0.003797386313042906,
				0
			],
			"extensions":{
				"KHR_materials_emissive_strength":{
					"emissiveStrength":7.991064786911011
				}
			},
			"name":"Glow9",
			"pbrMetallicRoughness":{
				"baseColorFactor":[
					0.8000000715255737,
					0.0031031807884573936,
					0,
					1
				],
				"metallicFactor":0
			}
		},
		{
			"doubleSided":true,
			"emissiveFactor":[
				1,
				1,
				1
			],
			"extensions":{
				"KHR_materials_emissive_strength":{
					"emissiveStrength":4
				}
			},
			"name":"Glow2",
			"pbrMetallicRoughness":{
				"baseColorFactor":[
					0.800000011920929,
					0.800000011920929,
					0.800000011920929,
					1
				],
				"metallicFactor":0,
				"roughnessFactor":0.5
			}
		}
	],
	"meshes":[
		{
			"name":"Plane.1018",
			"primitives":[
				{
					"attributes":{
						"POSITION":0,
						"NORMAL":1,
						"TEXCOORD_0":2
					},
					"indices":3,
					"material":0
				}
			]
		},
		{
			"name":"Plane.1019",
			"primitives":[
				{
					"attributes":{
						"POSITION":4,
						"NORMAL":5,
						"TEXCOORD_0":6
					},
					"indices":7,
					"material":0
				},
				{
					"attributes":{
						"POSITION":8,
						"NORMAL":9,
						"TEXCOORD_0":10
					},
					"indices":11,
					"material":0
				}
			]
		},
		{
			"name":"Torus.076",
			"primitives":[
				{
					"attributes":{
						"POSITION":12,
						"NORMAL":13,
						"TEXCOORD_0":14,
						"TANGENT":15
					},
					"indices":16,
					"material":0
				},
				{
					"attributes":{
						"POSITION":17,
						"NORMAL":18,
						"TEXCOORD_0":19,
						"TANGENT":20
					},
					"indices":21,
					"material":1
				},
				{
					"attributes":{
						"POSITION":22,
						"NORMAL":23,
						"TEXCOORD_0":24,
						"TANGENT":25
					},
					"indices":26,
					"material":2
				}
			]
		}
	],
	"textures":[
		{
			"sampler":0,
			"source":0
		}
	],
	"images":[
		{
			"mimeType":"image/png",
			"name":"AvatarWearables_TX",
			"uri":"tex/AvatarWearables_TX.png"
		}
	],
	"accessors":[
		{
			"bufferView":0,
			"componentType":5126,
			"count":94,
			"max":[
				0.5080313682556152,
				-3.3380126953125,
				0.508030891418457
			],
			"min":[
				-0.5080313682556152,
				-16.256999969482422,
				-0.5080318450927734
			],
			"type":"VEC3"
		},
		{
			"bufferView":1,
			"componentType":5126,
			"count":94,
			"type":"VEC3"
		},
		{
			"bufferView":2,
			"componentType":5126,
			"count":94,
			"type":"VEC2"
		},
		{
			"bufferView":3,
			"componentType":5123,
			"count":300,
			"type":"SCALAR"
		},
		{
			"bufferView":4,
			"componentType":5126,
			"count":28,
			"max":[
				1.0608196258544922,
				-0.5013236999511719,
				-0.76519775390625
			],
			"min":[
				-1.0608196258544922,
				-1.17421555519104,
				-1.060819149017334
			],
			"type":"VEC3"
		},
		{
			"bufferView":5,
			"componentType":5126,
			"count":28,
			"type":"VEC3"
		},
		{
			"bufferView":6,
			"componentType":5126,
			"count":28,
			"type":"VEC2"
		},
		{
			"bufferView":7,
			"componentType":5123,
			"count":48,
			"type":"SCALAR"
		},
		{
			"bufferView":8,
			"componentType":5126,
			"count":23,
			"max":[
				1.0608196258544922,
				-0.5013236999511719,
				-0.76519775390625
			],
			"min":[
				-1.0608196258544922,
				-1.17421555519104,
				-1.060819149017334
			],
			"type":"VEC3"
		},
		{
			"bufferView":9,
			"componentType":5126,
			"count":23,
			"type":"VEC3"
		},
		{
			"bufferView":10,
			"componentType":5126,
			"count":23,
			"type":"VEC2"
		},
		{
			"bufferView":11,
			"componentType":5123,
			"count":45,
			"type":"SCALAR"
		},
		{
			"bufferView":12,
			"componentType":5126,
			"count":991,
			"max":[
				1.7854681015014648,
				1.4844608306884766,
				5.733107566833496
			],
			"min":[
				-2.9923105239868164,
				-3.293315887451172,
				-2.6830530166625977
			],
			"type":"VEC3"
		},
		{
			"bufferView":13,
			"componentType":5126,
			"count":991,
			"type":"VEC3"
		},
		{
			"bufferView":14,
			"componentType":5126,
			"count":991,
			"type":"VEC2"
		},
		{
			"bufferView":15,
			"componentType":5126,
			"count":991,
			"type":"VEC4"
		},
		{
			"bufferView":16,
			"componentType":5123,
			"count":4692,
			"type":"SCALAR"
		},
		{
			"bufferView":17,
			"componentType":5126,
			"count":66,
			"max":[
				1.765486717224121,
				0.7465723752975464,
				5.692732334136963
			],
			"min":[
				-2.9886255264282227,
				-2.3908233642578125,
				-1.6497726440429688
			],
			"type":"VEC3"
		},
		{
			"bufferView":18,
			"componentType":5126,
			"count":66,
			"type":"VEC3"
		},
		{
			"bufferView":19,
			"componentType":5126,
			"count":66,
			"type":"VEC2"
		},
		{
			"bufferView":20,
			"componentType":5126,
			"count":66,
			"type":"VEC4"
		},
		{
			"bufferView":21,
			"componentType":5123,
			"count":192,
			"type":"SCALAR"
		},
		{
			"bufferView":22,
			"componentType":5126,
			"count":100,
			"max":[
				1.0397940874099731,
				1.4844608306884766,
				5.733107566833496
			],
			"min":[
				-2.184990882873535,
				-3.293315887451172,
				-2.464016914367676
			],
			"type":"VEC3"
		},
		{
			"bufferView":23,
			"componentType":5126,
			"count":100,
			"type":"VEC3"
		},
		{
			"bufferView":24,
			"componentType":5126,
			"count":100,
			"type":"VEC2"
		},
		{
			"bufferView":25,
			"componentType":5126,
			"count":100,
			"type":"VEC4"
		},
		{
			"bufferView":26,
			"componentType":5123,
			"count":288,
			"type":"SCALAR"
		}
	],
	"bufferViews":[
		{
			"buffer":0,
			"byteLength":1128,
			"byteOffset":0,
			"target":34962
		},
		{
			"buffer":0,
			"byteLength":1128,
			"byteOffset":1128,
			"target":34962
		},
		{
			"buffer":0,
			"byteLength":752,
			"byteOffset":2256,
			"target":34962
		},
		{
			"buffer":0,
			"byteLength":600,
			"byteOffset":3008,
			"target":34963
		},
		{
			"buffer":0,
			"byteLength":336,
			"byteOffset":3608,
			"target":34962
		},
		{
			"buffer":0,
			"byteLength":336,
			"byteOffset":3944,
			"target":34962
		},
		{
			"buffer":0,
			"byteLength":224,
			"byteOffset":4280,
			"target":34962
		},
		{
			"buffer":0,
			"byteLength":96,
			"byteOffset":4504,
			"target":34963
		},
		{
			"buffer":0,
			"byteLength":276,
			"byteOffset":4600,
			"target":34962
		},
		{
			"buffer":0,
			"byteLength":276,
			"byteOffset":4876,
			"target":34962
		},
		{
			"buffer":0,
			"byteLength":184,
			"byteOffset":5152,
			"target":34962
		},
		{
			"buffer":0,
			"byteLength":90,
			"byteOffset":5336,
			"target":34963
		},
		{
			"buffer":0,
			"byteLength":11892,
			"byteOffset":5428,
			"target":34962
		},
		{
			"buffer":0,
			"byteLength":11892,
			"byteOffset":17320,
			"target":34962
		},
		{
			"buffer":0,
			"byteLength":7928,
			"byteOffset":29212,
			"target":34962
		},
		{
			"buffer":0,
			"byteLength":15856,
			"byteOffset":37140,
			"target":34962
		},
		{
			"buffer":0,
			"byteLength":9384,
			"byteOffset":52996,
			"target":34963
		},
		{
			"buffer":0,
			"byteLength":792,
			"byteOffset":62380,
			"target":34962
		},
		{
			"buffer":0,
			"byteLength":792,
			"byteOffset":63172,
			"target":34962
		},
		{
			"buffer":0,
			"byteLength":528,
			"byteOffset":63964,
			"target":34962
		},
		{
			"buffer":0,
			"byteLength":1056,
			"byteOffset":64492,
			"target":34962
		},
		{
			"buffer":0,
			"byteLength":384,
			"byteOffset":65548,
			"target":34963
		},
		{
			"buffer":0,
			"byteLength":1200,
			"byteOffset":65932,
			"target":34962
		},
		{
			"buffer":0,
			"byteLength":1200,
			"byteOffset":67132,
			"target":34962
		},
		{
			"buffer":0,
			"byteLength":800,
			"byteOffset":68332,
			"target":34962
		},
		{
			"buffer":0,
			"byteLength":1600,
			"byteOffset":69132,
			"target":34962
		},
		{
			"buffer":0,
			"byteLength":576,
			"byteOffset":70732,
			"target":34963
		}
	],
	"samplers":[
		{
			"magFilter":9729,
			"minFilter":9987
		}
	],
	"buffers":[
		{
			"byteLength":71308,
			"uri":"tile_15_0_3.bin"
		}
	]
}
