{
	"asset":{
		"generator":"Khronos glTF Blender I/O v4.0.44",
		"version":"2.0"
	},
	"extensionsUsed":[
		"KHR_materials_specular",
		"KHR_materials_ior",
		"KHR_materials_emissive_strength"
	],
	"scene":0,
	"scenes":[
		{
			"name":"Scene",
			"nodes":[
				0,
				1,
				2,
				3,
				4,
				5,
				6
			]
		}
	],
	"nodes":[
		{
			"mesh":0,
			"name":"Plane",
			"scale":[
				7.873531341552734,
				0.9841914176940918,
				7.873531341552734
			]
		},
		{
			"mesh":1,
			"name":"track.166",
			"scale":[
				3.7706682682037354,
				3.7706682682037354,
				3.7706682682037354
			]
		},
		{
			"mesh":2,
			"name":"Cube.004",
			"rotation":[
				0,
				0.7251519560813904,
				0,
				0.6885889172554016
			],
			"scale":[
				1.9629734754562378,
				3.1461997032165527,
				1.9629734754562378
			]
		},
		{
			"mesh":3,
			"name":"Cylinder.016"
		},
		{
			"mesh":4,
			"name":"Cylinder.100"
		},
		{
			"mesh":5,
			"name":"Cylinder.101"
		},
		{
			"mesh":6,
			"name":"Cylinder.102"
		}
	],
	"materials":[
		{
			"doubleSided":true,
			"extensions":{
				"KHR_materials_specular":{
					"specularColorFactor":[
						2.0,
						2.0,
						2.0
					]
				},
				"KHR_materials_ior":{
					"ior":1.4500000476837158
				}
			},
			"name":"building",
			"pbrMetallicRoughness":{
				"baseColorTexture":{
					"index":0
				},
				"metallicFactor":0
			}
		},
		{
			"doubleSided":true,
			"emissiveFactor":[
				0.09784298909313212,
				1,
				0.08569416583338194
			],
			"extensions":{
				"KHR_materials_emissive_strength":{
					"emissiveStrength":1.5982129573822021
				}
			},
			"name":"Glow4",
			"pbrMetallicRoughness":{
				"baseColorFactor":[
					0.078976109623909,
					0.8012131452560425,
					0.06799241155385971,
					1
				],
				"metallicFactor":0
			}
		}
	],
	"meshes":[
		{
			"name":"Plane.982",
			"primitives":[
				{
					"attributes":{
						"POSITION":0,
						"NORMAL":1,
						"TEXCOORD_0":2,
						"TANGENT":3
					},
					"indices":4,
					"material":0
				}
			]
		},
		{
			"name":"Plane.983",
			"primitives":[
				{
					"attributes":{
						"POSITION":5,
						"NORMAL":6,
						"TEXCOORD_0":7
					},
					"indices":8,
					"material":0
				}
			]
		},
		{
			"name":"Cube.643",
			"primitives":[
				{
					"attributes":{
						"POSITION":9,
						"NORMAL":10,
						"TEXCOORD_0":11
					},
					"indices":12,
					"material":0
				},
				{
					"attributes":{
						"POSITION":13,
						"NORMAL":14,
						"TEXCOORD_0":15
					},
					"indices":16,
					"material":1
				}
			]
		},
		{
			"name":"Cylinder.422",
			"primitives":[
				{
					"attributes":{
						"POSITION":17,
						"NORMAL":18,
						"TEXCOORD_0":19
					},
					"indices":20,
					"material":0
				}
			]
		},
		{
			"name":"Cylinder.423",
			"primitives":[
				{
					"attributes":{
						"POSITION":21,
						"NORMAL":22,
						"TEXCOORD_0":23
					},
					"indices":24,
					"material":0
				},
				{
					"attributes":{
						"POSITION":25,
						"NORMAL":26,
						"TEXCOORD_0":27
					},
					"indices":28,
					"material":0
				}
			]
		},
		{
			"name":"Cylinder.424",
			"primitives":[
				{
					"attributes":{
						"POSITION":29,
						"NORMAL":30,
						"TEXCOORD_0":31,
						"TANGENT":32
					},
					"indices":33,
					"material":0
				}
			]
		},
		{
			"name":"Cylinder.425",
			"primitives":[
				{
					"attributes":{
						"POSITION":34,
						"NORMAL":35,
						"TEXCOORD_0":36
					},
					"indices":37,
					"material":0
				}
			]
		}
	],
	"textures":[
		{
			"sampler":0,
			"source":0
		}
	],
	"images":[
		{
			"mimeType":"image/png",
			"name":"AvatarWearables_TX",
			"uri":"tex/AvatarWearables_TX.png"
		}
	],
	"accessors":[
		{
			"bufferView":0,
			"componentType":5126,
			"count":36,
			"max":[
				0.5080313682556152,
				-14.900496482849121,
				0.5080313682556152
			],
			"min":[
				-0.5080312490463257,
				-14.900496482849121,
				-0.5080313682556152
			],
			"type":"VEC3"
		},
		{
			"bufferView":1,
			"componentType":5126,
			"count":36,
			"type":"VEC3"
		},
		{
			"bufferView":2,
			"componentType":5126,
			"count":36,
			"type":"VEC2"
		},
		{
			"bufferView":3,
			"componentType":5126,
			"count":36,
			"type":"VEC4"
		},
		{
			"bufferView":4,
			"componentType":5123,
			"count":150,
			"type":"SCALAR"
		},
		{
			"bufferView":5,
			"componentType":5126,
			"count":59,
			"max":[
				1.0608196258544922,
				-3.4354798793792725,
				0.45965576171875
			],
			"min":[
				-1.0608198642730713,
				-4.243279933929443,
				-1.0608196258544922
			],
			"type":"VEC3"
		},
		{
			"bufferView":6,
			"componentType":5126,
			"count":59,
			"type":"VEC3"
		},
		{
			"bufferView":7,
			"componentType":5126,
			"count":59,
			"type":"VEC2"
		},
		{
			"bufferView":8,
			"componentType":5123,
			"count":99,
			"type":"SCALAR"
		},
		{
			"bufferView":9,
			"componentType":5126,
			"count":69,
			"max":[
				-1.9183634519577026,
				-0.6547188758850098,
				-1.1875882148742676
			],
			"min":[
				-1.9789831638336182,
				-2.8656387329101562,
				-2.1403284072875977
			],
			"type":"VEC3"
		},
		{
			"bufferView":10,
			"componentType":5126,
			"count":69,
			"type":"VEC3"
		},
		{
			"bufferView":11,
			"componentType":5126,
			"count":69,
			"type":"VEC2"
		},
		{
			"bufferView":12,
			"componentType":5123,
			"count":147,
			"type":"SCALAR"
		},
		{
			"bufferView":13,
			"componentType":5126,
			"count":44,
			"max":[
				-1.918363094329834,
				-0.6547188758850098,
				-1.1875882148742676
			],
			"min":[
				-1.9789831638336182,
				-2.8656387329101562,
				-2.1403284072875977
			],
			"type":"VEC3"
		},
		{
			"bufferView":14,
			"componentType":5126,
			"count":44,
			"type":"VEC3"
		},
		{
			"bufferView":15,
			"componentType":5126,
			"count":44,
			"type":"VEC2"
		},
		{
			"bufferView":16,
			"componentType":5123,
			"count":84,
			"type":"SCALAR"
		},
		{
			"bufferView":17,
			"componentType":5126,
			"count":153,
			"max":[
				2.784963369369507,
				-5.862334251403809,
				4
			],
			"min":[
				1.2497024536132812,
				-14.551252365112305,
				1.886404275894165
			],
			"type":"VEC3"
		},
		{
			"bufferView":18,
			"componentType":5126,
			"count":153,
			"type":"VEC3"
		},
		{
			"bufferView":19,
			"componentType":5126,
			"count":153,
			"type":"VEC2"
		},
		{
			"bufferView":20,
			"componentType":5123,
			"count":582,
			"type":"SCALAR"
		},
		{
			"bufferView":21,
			"componentType":5126,
			"count":59,
			"max":[
				4,
				-1.8232851028442383,
				4
			],
			"min":[
				-0.10971426963806152,
				-6.82517671585083,
				1.4592926502227783
			],
			"type":"VEC3"
		},
		{
			"bufferView":22,
			"componentType":5126,
			"count":59,
			"type":"VEC3"
		},
		{
			"bufferView":23,
			"componentType":5126,
			"count":59,
			"type":"VEC2"
		},
		{
			"bufferView":24,
			"componentType":5123,
			"count":75,
			"type":"SCALAR"
		},
		{
			"bufferView":25,
			"componentType":5126,
			"count":15,
			"max":[
				4,
				-2.0470352172851562,
				4
			],
			"min":[
				-0.054064273834228516,
				-6.58601188659668,
				2.6472904682159424
			],
			"type":"VEC3"
		},
		{
			"bufferView":26,
			"componentType":5126,
			"count":15,
			"type":"VEC3"
		},
		{
			"bufferView":27,
			"componentType":5126,
			"count":15,
			"type":"VEC2"
		},
		{
			"bufferView":28,
			"componentType":5123,
			"count":33,
			"type":"SCALAR"
		},
		{
			"bufferView":29,
			"componentType":5126,
			"count":60,
			"max":[
				3.4180421829223633,
				-9.069351196289062,
				2.628720760345459
			],
			"min":[
				1.718916893005371,
				-10.979005813598633,
				0.9589512348175049
			],
			"type":"VEC3"
		},
		{
			"bufferView":30,
			"componentType":5126,
			"count":60,
			"type":"VEC3"
		},
		{
			"bufferView":31,
			"componentType":5126,
			"count":60,
			"type":"VEC2"
		},
		{
			"bufferView":32,
			"componentType":5126,
			"count":60,
			"type":"VEC4"
		},
		{
			"bufferView":33,
			"componentType":5123,
			"count":60,
			"type":"SCALAR"
		},
		{
			"bufferView":34,
			"componentType":5126,
			"count":70,
			"max":[
				1.6610199213027954,
				-11.437150001525879,
				4
			],
			"min":[
				0.7525556087493896,
				-12.45817756652832,
				3.376448631286621
			],
			"type":"VEC3"
		},
		{
			"bufferView":35,
			"componentType":5126,
			"count":70,
			"type":"VEC3"
		},
		{
			"bufferView":36,
			"componentType":5126,
			"count":70,
			"type":"VEC2"
		},
		{
			"bufferView":37,
			"componentType":5123,
			"count":96,
			"type":"SCALAR"
		}
	],
	"bufferViews":[
		{
			"buffer":0,
			"byteLength":432,
			"byteOffset":0,
			"target":34962
		},
		{
			"buffer":0,
			"byteLength":432,
			"byteOffset":432,
			"target":34962
		},
		{
			"buffer":0,
			"byteLength":288,
			"byteOffset":864,
			"target":34962
		},
		{
			"buffer":0,
			"byteLength":576,
			"byteOffset":1152,
			"target":34962
		},
		{
			"buffer":0,
			"byteLength":300,
			"byteOffset":1728,
			"target":34963
		},
		{
			"buffer":0,
			"byteLength":708,
			"byteOffset":2028,
			"target":34962
		},
		{
			"buffer":0,
			"byteLength":708,
			"byteOffset":2736,
			"target":34962
		},
		{
			"buffer":0,
			"byteLength":472,
			"byteOffset":3444,
			"target":34962
		},
		{
			"buffer":0,
			"byteLength":198,
			"byteOffset":3916,
			"target":34963
		},
		{
			"buffer":0,
			"byteLength":828,
			"byteOffset":4116,
			"target":34962
		},
		{
			"buffer":0,
			"byteLength":828,
			"byteOffset":4944,
			"target":34962
		},
		{
			"buffer":0,
			"byteLength":552,
			"byteOffset":5772,
			"target":34962
		},
		{
			"buffer":0,
			"byteLength":294,
			"byteOffset":6324,
			"target":34963
		},
		{
			"buffer":0,
			"byteLength":528,
			"byteOffset":6620,
			"target":34962
		},
		{
			"buffer":0,
			"byteLength":528,
			"byteOffset":7148,
			"target":34962
		},
		{
			"buffer":0,
			"byteLength":352,
			"byteOffset":7676,
			"target":34962
		},
		{
			"buffer":0,
			"byteLength":168,
			"byteOffset":8028,
			"target":34963
		},
		{
			"buffer":0,
			"byteLength":1836,
			"byteOffset":8196,
			"target":34962
		},
		{
			"buffer":0,
			"byteLength":1836,
			"byteOffset":10032,
			"target":34962
		},
		{
			"buffer":0,
			"byteLength":1224,
			"byteOffset":11868,
			"target":34962
		},
		{
			"buffer":0,
			"byteLength":1164,
			"byteOffset":13092,
			"target":34963
		},
		{
			"buffer":0,
			"byteLength":708,
			"byteOffset":14256,
			"target":34962
		},
		{
			"buffer":0,
			"byteLength":708,
			"byteOffset":14964,
			"target":34962
		},
		{
			"buffer":0,
			"byteLength":472,
			"byteOffset":15672,
			"target":34962
		},
		{
			"buffer":0,
			"byteLength":150,
			"byteOffset":16144,
			"target":34963
		},
		{
			"buffer":0,
			"byteLength":180,
			"byteOffset":16296,
			"target":34962
		},
		{
			"buffer":0,
			"byteLength":180,
			"byteOffset":16476,
			"target":34962
		},
		{
			"buffer":0,
			"byteLength":120,
			"byteOffset":16656,
			"target":34962
		},
		{
			"buffer":0,
			"byteLength":66,
			"byteOffset":16776,
			"target":34963
		},
		{
			"buffer":0,
			"byteLength":720,
			"byteOffset":16844,
			"target":34962
		},
		{
			"buffer":0,
			"byteLength":720,
			"byteOffset":17564,
			"target":34962
		},
		{
			"buffer":0,
			"byteLength":480,
			"byteOffset":18284,
			"target":34962
		},
		{
			"buffer":0,
			"byteLength":960,
			"byteOffset":18764,
			"target":34962
		},
		{
			"buffer":0,
			"byteLength":120,
			"byteOffset":19724,
			"target":34963
		},
		{
			"buffer":0,
			"byteLength":840,
			"byteOffset":19844,
			"target":34962
		},
		{
			"buffer":0,
			"byteLength":840,
			"byteOffset":20684,
			"target":34962
		},
		{
			"buffer":0,
			"byteLength":560,
			"byteOffset":21524,
			"target":34962
		},
		{
			"buffer":0,
			"byteLength":192,
			"byteOffset":22084,
			"target":34963
		}
	],
	"samplers":[
		{
			"magFilter":9729,
			"minFilter":9987
		}
	],
	"buffers":[
		{
			"byteLength":22276,
			"uri":"tile_13_0_9.bin"
		}
	]
}
