{
	"asset":{
		"generator":"Khronos glTF Blender I/O v4.0.44",
		"version":"2.0"
	},
	"extensionsUsed":[
		"KHR_materials_specular",
		"KHR_materials_ior",
		"KHR_materials_emissive_strength"
	],
	"scene":0,
	"scenes":[
		{
			"name":"Scene",
			"nodes":[
				0,
				1,
				2,
				3
			]
		}
	],
	"nodes":[
		{
			"mesh":0,
			"name":"Plane",
			"scale":[
				7.873531341552734,
				0.9841914176940918,
				7.873531341552734
			]
		},
		{
			"name":"track.232",
			"scale":[
				3.7706682682037354,
				3.7706682682037354,
				3.7706682682037354
			]
		},
		{
			"mesh":1,
			"name":"Torus.033",
			"rotation":[
				0,
				-0.6667748093605042,
				0,
				0.7452592253684998
			],
			"scale":[
				4.712549209594727,
				18.45949363708496,
				4.712549209594727
			]
		},
		{
			"mesh":2,
			"name":"Cube.003",
			"rotation":[
				0,
				-0.9460921287536621,
				0,
				0.3238976299762726
			],
			"scale":[
				2.266324758529663,
				2.2663252353668213,
				2.266324758529663
			]
		}
	],
	"materials":[
		{
			"doubleSided":true,
			"extensions":{
				"KHR_materials_specular":{
					"specularColorFactor":[
						2.0,
						2.0,
						2.0
					]
				},
				"KHR_materials_ior":{
					"ior":1.4500000476837158
				}
			},
			"name":"building",
			"pbrMetallicRoughness":{
				"baseColorTexture":{
					"index":0
				},
				"metallicFactor":0
			}
		},
		{
			"doubleSided":true,
			"extensions":{
				"KHR_materials_specular":{
					"specularColorFactor":[
						2.0,
						2.0,
						2.0
					]
				},
				"KHR_materials_ior":{
					"ior":1.4500000476837158
				}
			},
			"name":"building2",
			"pbrMetallicRoughness":{
				"baseColorTexture":{
					"index":1
				},
				"metallicFactor":0,
				"roughnessFactor":0.17924527823925018
			}
		},
		{
			"doubleSided":true,
			"emissiveFactor":[
				0.0802171136311348,
				0.06480263589233753,
				1
			],
			"extensions":{
				"KHR_materials_emissive_strength":{
					"emissiveStrength":2.0000481605529785
				}
			},
			"name":"Glow5",
			"pbrMetallicRoughness":{
				"baseColorFactor":[
					0.08072357624769211,
					0.06527391821146011,
					1,
					1
				],
				"metallicFactor":0
			}
		},
		{
			"doubleSided":true,
			"emissiveFactor":[
				0.09784298909313212,
				1,
				0.08569416583338194
			],
			"extensions":{
				"KHR_materials_emissive_strength":{
					"emissiveStrength":1.5982129573822021
				}
			},
			"name":"Glow4",
			"pbrMetallicRoughness":{
				"baseColorFactor":[
					0.078976109623909,
					0.8012131452560425,
					0.06799241155385971,
					1
				],
				"metallicFactor":0
			}
		}
	],
	"meshes":[
		{
			"name":"Plane.1114",
			"primitives":[
				{
					"attributes":{
						"POSITION":0,
						"NORMAL":1,
						"TEXCOORD_0":2
					},
					"indices":3,
					"material":0
				},
				{
					"attributes":{
						"POSITION":4,
						"NORMAL":5,
						"TEXCOORD_0":6
					},
					"indices":7,
					"material":0
				}
			]
		},
		{
			"name":"Torus.081",
			"primitives":[
				{
					"attributes":{
						"POSITION":8,
						"NORMAL":9,
						"TEXCOORD_0":10
					},
					"indices":11,
					"material":1
				},
				{
					"attributes":{
						"POSITION":12,
						"NORMAL":13,
						"TEXCOORD_0":14
					},
					"indices":15,
					"material":2
				}
			]
		},
		{
			"name":"Cube.684",
			"primitives":[
				{
					"attributes":{
						"POSITION":16,
						"NORMAL":17,
						"TEXCOORD_0":18
					},
					"indices":19,
					"material":1
				},
				{
					"attributes":{
						"POSITION":20,
						"NORMAL":21,
						"TEXCOORD_0":22
					},
					"indices":23,
					"material":3
				}
			]
		}
	],
	"textures":[
		{
			"sampler":0,
			"source":0
		},
		{
			"sampler":0,
			"source":0
		}
	],
	"images":[
		{
			"mimeType":"image/png",
			"name":"AvatarWearables_TX",
			"uri":"tex/AvatarWearables_TX.png"
		}
	],
	"accessors":[
		{
			"bufferView":0,
			"componentType":5126,
			"count":41,
			"max":[
				0.508030891418457,
				-14.708995819091797,
				0.508030891418457
			],
			"min":[
				-0.5080313682556152,
				-14.900496482849121,
				-0.5080318450927734
			],
			"type":"VEC3"
		},
		{
			"bufferView":1,
			"componentType":5126,
			"count":41,
			"type":"VEC3"
		},
		{
			"bufferView":2,
			"componentType":5126,
			"count":41,
			"type":"VEC2"
		},
		{
			"bufferView":3,
			"componentType":5123,
			"count":165,
			"type":"SCALAR"
		},
		{
			"bufferView":4,
			"componentType":5126,
			"count":5,
			"max":[
				0.10805892944335938,
				-14.724529266357422,
				-0.5080318450927734
			],
			"min":[
				-0.3919410705566406,
				-14.875629425048828,
				-0.5080318450927734
			],
			"type":"VEC3"
		},
		{
			"bufferView":5,
			"componentType":5126,
			"count":5,
			"type":"VEC3"
		},
		{
			"bufferView":6,
			"componentType":5126,
			"count":5,
			"type":"VEC2"
		},
		{
			"bufferView":7,
			"componentType":5123,
			"count":6,
			"type":"SCALAR"
		},
		{
			"bufferView":8,
			"componentType":5126,
			"count":522,
			"max":[
				0.9277975559234619,
				-0.316320538520813,
				0.03440392017364502
			],
			"min":[
				0.38156700134277344,
				-0.8135814666748047,
				-0.8115098476409912
			],
			"type":"VEC3"
		},
		{
			"bufferView":9,
			"componentType":5126,
			"count":522,
			"type":"VEC3"
		},
		{
			"bufferView":10,
			"componentType":5126,
			"count":522,
			"type":"VEC2"
		},
		{
			"bufferView":11,
			"componentType":5123,
			"count":960,
			"type":"SCALAR"
		},
		{
			"bufferView":12,
			"componentType":5126,
			"count":48,
			"max":[
				0.9230285286903381,
				-0.338870108127594,
				-0.15447819232940674
			],
			"min":[
				0.5318906307220459,
				-0.7705917954444885,
				-0.7947473526000977
			],
			"type":"VEC3"
		},
		{
			"bufferView":13,
			"componentType":5126,
			"count":48,
			"type":"VEC3"
		},
		{
			"bufferView":14,
			"componentType":5126,
			"count":48,
			"type":"VEC2"
		},
		{
			"bufferView":15,
			"componentType":5123,
			"count":72,
			"type":"SCALAR"
		},
		{
			"bufferView":16,
			"componentType":5126,
			"count":1453,
			"max":[
				2.4763522148132324,
				2.969466209411621,
				1.6658177375793457
			],
			"min":[
				0.9416021108627319,
				-6.45576286315918,
				-0.4955810308456421
			],
			"type":"VEC3"
		},
		{
			"bufferView":17,
			"componentType":5126,
			"count":1453,
			"type":"VEC3"
		},
		{
			"bufferView":18,
			"componentType":5126,
			"count":1453,
			"type":"VEC2"
		},
		{
			"bufferView":19,
			"componentType":5123,
			"count":3234,
			"type":"SCALAR"
		},
		{
			"bufferView":20,
			"componentType":5126,
			"count":223,
			"max":[
				2.4763522148132324,
				2.969466209411621,
				1.501450538635254
			],
			"min":[
				1.0611590147018433,
				-5.608687877655029,
				-0.4432213306427002
			],
			"type":"VEC3"
		},
		{
			"bufferView":21,
			"componentType":5126,
			"count":223,
			"type":"VEC3"
		},
		{
			"bufferView":22,
			"componentType":5126,
			"count":223,
			"type":"VEC2"
		},
		{
			"bufferView":23,
			"componentType":5123,
			"count":423,
			"type":"SCALAR"
		}
	],
	"bufferViews":[
		{
			"buffer":0,
			"byteLength":492,
			"byteOffset":0,
			"target":34962
		},
		{
			"buffer":0,
			"byteLength":492,
			"byteOffset":492,
			"target":34962
		},
		{
			"buffer":0,
			"byteLength":328,
			"byteOffset":984,
			"target":34962
		},
		{
			"buffer":0,
			"byteLength":330,
			"byteOffset":1312,
			"target":34963
		},
		{
			"buffer":0,
			"byteLength":60,
			"byteOffset":1644,
			"target":34962
		},
		{
			"buffer":0,
			"byteLength":60,
			"byteOffset":1704,
			"target":34962
		},
		{
			"buffer":0,
			"byteLength":40,
			"byteOffset":1764,
			"target":34962
		},
		{
			"buffer":0,
			"byteLength":12,
			"byteOffset":1804,
			"target":34963
		},
		{
			"buffer":0,
			"byteLength":6264,
			"byteOffset":1816,
			"target":34962
		},
		{
			"buffer":0,
			"byteLength":6264,
			"byteOffset":8080,
			"target":34962
		},
		{
			"buffer":0,
			"byteLength":4176,
			"byteOffset":14344,
			"target":34962
		},
		{
			"buffer":0,
			"byteLength":1920,
			"byteOffset":18520,
			"target":34963
		},
		{
			"buffer":0,
			"byteLength":576,
			"byteOffset":20440,
			"target":34962
		},
		{
			"buffer":0,
			"byteLength":576,
			"byteOffset":21016,
			"target":34962
		},
		{
			"buffer":0,
			"byteLength":384,
			"byteOffset":21592,
			"target":34962
		},
		{
			"buffer":0,
			"byteLength":144,
			"byteOffset":21976,
			"target":34963
		},
		{
			"buffer":0,
			"byteLength":17436,
			"byteOffset":22120,
			"target":34962
		},
		{
			"buffer":0,
			"byteLength":17436,
			"byteOffset":39556,
			"target":34962
		},
		{
			"buffer":0,
			"byteLength":11624,
			"byteOffset":56992,
			"target":34962
		},
		{
			"buffer":0,
			"byteLength":6468,
			"byteOffset":68616,
			"target":34963
		},
		{
			"buffer":0,
			"byteLength":2676,
			"byteOffset":75084,
			"target":34962
		},
		{
			"buffer":0,
			"byteLength":2676,
			"byteOffset":77760,
			"target":34962
		},
		{
			"buffer":0,
			"byteLength":1784,
			"byteOffset":80436,
			"target":34962
		},
		{
			"buffer":0,
			"byteLength":846,
			"byteOffset":82220,
			"target":34963
		}
	],
	"samplers":[
		{
			"magFilter":9729,
			"minFilter":9987
		}
	],
	"buffers":[
		{
			"byteLength":83068,
			"uri":"tile_19_0_3.bin"
		}
	]
}
