{
	"asset":{
		"generator":"Khronos glTF Blender I/O v4.0.44",
		"version":"2.0"
	},
	"extensionsUsed":[
		"KHR_materials_specular",
		"KHR_materials_ior"
	],
	"scene":0,
	"scenes":[
		{
			"name":"Scene",
			"nodes":[
				0,
				1
			]
		}
	],
	"nodes":[
		{
			"mesh":0,
			"name":"Plane",
			"scale":[
				7.873531341552734,
				0.9841914176940918,
				7.873531341552734
			]
		},
		{
			"mesh":1,
			"name":"track.104",
			"scale":[
				3.7706682682037354,
				3.7706682682037354,
				3.7706682682037354
			]
		}
	],
	"materials":[
		{
			"doubleSided":true,
			"extensions":{
				"KHR_materials_specular":{
					"specularColorFactor":[
						2.0,
						2.0,
						2.0
					]
				},
				"KHR_materials_ior":{
					"ior":1.4500000476837158
				}
			},
			"name":"building",
			"pbrMetallicRoughness":{
				"baseColorTexture":{
					"index":0
				},
				"metallicFactor":0
			}
		}
	],
	"meshes":[
		{
			"name":"Plane.858",
			"primitives":[
				{
					"attributes":{
						"POSITION":0,
						"NORMAL":1,
						"TEXCOORD_0":2
					},
					"indices":3,
					"material":0
				}
			]
		},
		{
			"name":"Plane.859",
			"primitives":[
				{
					"attributes":{
						"POSITION":4,
						"NORMAL":5,
						"TEXCOORD_0":6
					},
					"indices":7,
					"material":0
				}
			]
		}
	],
	"textures":[
		{
			"sampler":0,
			"source":0
		}
	],
	"images":[
		{
			"mimeType":"image/png",
			"name":"AvatarWearables_TX",
			"uri":"tex/AvatarWearables_TX.png"
		}
	],
	"accessors":[
		{
			"bufferView":0,
			"componentType":5126,
			"count":94,
			"max":[
				0.5080323219299316,
				-5.458794593811035,
				0.5080312490463257
			],
			"min":[
				-0.5080304145812988,
				-16.256999969482422,
				-0.5080313682556152
			],
			"type":"VEC3"
		},
		{
			"bufferView":1,
			"componentType":5126,
			"count":94,
			"type":"VEC3"
		},
		{
			"bufferView":2,
			"componentType":5126,
			"count":94,
			"type":"VEC2"
		},
		{
			"bufferView":3,
			"componentType":5123,
			"count":300,
			"type":"SCALAR"
		},
		{
			"bufferView":4,
			"componentType":5126,
			"count":72,
			"max":[
				0.7575230598449707,
				-1.1391615867614746,
				1.0608198642730713
			],
			"min":[
				-1.0608196258544922,
				-2.2886898517608643,
				-1.0608196258544922
			],
			"type":"VEC3"
		},
		{
			"bufferView":5,
			"componentType":5126,
			"count":72,
			"type":"VEC3"
		},
		{
			"bufferView":6,
			"componentType":5126,
			"count":72,
			"type":"VEC2"
		},
		{
			"bufferView":7,
			"componentType":5123,
			"count":138,
			"type":"SCALAR"
		}
	],
	"bufferViews":[
		{
			"buffer":0,
			"byteLength":1128,
			"byteOffset":0,
			"target":34962
		},
		{
			"buffer":0,
			"byteLength":1128,
			"byteOffset":1128,
			"target":34962
		},
		{
			"buffer":0,
			"byteLength":752,
			"byteOffset":2256,
			"target":34962
		},
		{
			"buffer":0,
			"byteLength":600,
			"byteOffset":3008,
			"target":34963
		},
		{
			"buffer":0,
			"byteLength":864,
			"byteOffset":3608,
			"target":34962
		},
		{
			"buffer":0,
			"byteLength":864,
			"byteOffset":4472,
			"target":34962
		},
		{
			"buffer":0,
			"byteLength":576,
			"byteOffset":5336,
			"target":34962
		},
		{
			"buffer":0,
			"byteLength":276,
			"byteOffset":5912,
			"target":34963
		}
	],
	"samplers":[
		{
			"magFilter":9729,
			"minFilter":9987
		}
	],
	"buffers":[
		{
			"byteLength":6188,
			"uri":"tile_8_0_7.bin"
		}
	]
}
