{
	"asset":{
		"generator":"Khronos glTF Blender I/O v4.0.44",
		"version":"2.0"
	},
	"extensionsUsed":[
		"KHR_materials_specular",
		"KHR_materials_ior"
	],
	"scene":0,
	"scenes":[
		{
			"name":"Scene",
			"nodes":[
				0,
				1,
				2,
				3,
				4,
				5,
				6
			]
		}
	],
	"nodes":[
		{
			"mesh":0,
			"name":"Plane",
			"scale":[
				7.873531341552734,
				0.9841914176940918,
				7.873531341552734
			]
		},
		{
			"mesh":1,
			"name":"track.105",
			"scale":[
				3.7706682682037354,
				3.7706682682037354,
				3.7706682682037354
			]
		},
		{
			"name":"Torus.012",
			"rotation":[
				0.6081892251968384,
				0.3607020080089569,
				-0.3607020378112793,
				0.6081892251968384
			],
			"scale":[
				0.9492738246917725,
				0.9492738246917725,
				0.9492737650871277
			]
		},
		{
			"mesh":2,
			"name":"Cylinder.019"
		},
		{
			"mesh":3,
			"name":"Cylinder.109"
		},
		{
			"mesh":4,
			"name":"Cylinder.110"
		},
		{
			"mesh":5,
			"name":"Cylinder.111"
		}
	],
	"materials":[
		{
			"doubleSided":true,
			"extensions":{
				"KHR_materials_specular":{
					"specularColorFactor":[
						2.0,
						2.0,
						2.0
					]
				},
				"KHR_materials_ior":{
					"ior":1.4500000476837158
				}
			},
			"name":"building",
			"pbrMetallicRoughness":{
				"baseColorTexture":{
					"index":0
				},
				"metallicFactor":0
			}
		}
	],
	"meshes":[
		{
			"name":"Plane.860",
			"primitives":[
				{
					"attributes":{
						"POSITION":0,
						"NORMAL":1,
						"TEXCOORD_0":2
					},
					"indices":3,
					"material":0
				},
				{
					"attributes":{
						"POSITION":4,
						"NORMAL":5,
						"TEXCOORD_0":6
					},
					"indices":7,
					"material":0
				}
			]
		},
		{
			"name":"Plane.861",
			"primitives":[
				{
					"attributes":{
						"POSITION":8,
						"NORMAL":9,
						"TEXCOORD_0":10
					},
					"indices":11,
					"material":0
				}
			]
		},
		{
			"name":"Cylinder.396",
			"primitives":[
				{
					"attributes":{
						"POSITION":12,
						"NORMAL":13,
						"TEXCOORD_0":14
					},
					"indices":15,
					"material":0
				}
			]
		},
		{
			"name":"Cylinder.397",
			"primitives":[
				{
					"attributes":{
						"POSITION":16,
						"NORMAL":17,
						"TEXCOORD_0":18
					},
					"indices":19,
					"material":0
				},
				{
					"attributes":{
						"POSITION":20,
						"NORMAL":21,
						"TEXCOORD_0":22
					},
					"indices":23,
					"material":0
				}
			]
		},
		{
			"name":"Cylinder.398",
			"primitives":[
				{
					"attributes":{
						"POSITION":24,
						"NORMAL":25,
						"TEXCOORD_0":26
					},
					"indices":27,
					"material":0
				},
				{
					"attributes":{
						"POSITION":28,
						"NORMAL":29,
						"TEXCOORD_0":30
					},
					"indices":31,
					"material":0
				}
			]
		},
		{
			"name":"Cylinder.399",
			"primitives":[
				{
					"attributes":{
						"POSITION":32,
						"NORMAL":33,
						"TEXCOORD_0":34,
						"TANGENT":35
					},
					"indices":36,
					"material":0
				}
			]
		}
	],
	"textures":[
		{
			"sampler":0,
			"source":0
		}
	],
	"images":[
		{
			"mimeType":"image/png",
			"name":"AvatarWearables_TX",
			"uri":"tex/AvatarWearables_TX.png"
		}
	],
	"accessors":[
		{
			"bufferView":0,
			"componentType":5126,
			"count":49,
			"max":[
				0.5080323219299316,
				-9.160001754760742,
				0.5080304145812988
			],
			"min":[
				-0.5080304145812988,
				-14.248652458190918,
				-0.5080323219299316
			],
			"type":"VEC3"
		},
		{
			"bufferView":1,
			"componentType":5126,
			"count":49,
			"type":"VEC3"
		},
		{
			"bufferView":2,
			"componentType":5126,
			"count":49,
			"type":"VEC2"
		},
		{
			"bufferView":3,
			"componentType":5123,
			"count":189,
			"type":"SCALAR"
		},
		{
			"bufferView":4,
			"componentType":5126,
			"count":43,
			"max":[
				0.5080323219299316,
				-9.160001754760742,
				0.5080304145812988
			],
			"min":[
				-0.5080304145812988,
				-16.256999969482422,
				-0.5080323219299316
			],
			"type":"VEC3"
		},
		{
			"bufferView":5,
			"componentType":5126,
			"count":43,
			"type":"VEC3"
		},
		{
			"bufferView":6,
			"componentType":5126,
			"count":43,
			"type":"VEC2"
		},
		{
			"bufferView":7,
			"componentType":5123,
			"count":102,
			"type":"SCALAR"
		},
		{
			"bufferView":8,
			"componentType":5126,
			"count":41,
			"max":[
				-0.6495790481567383,
				-1.7499117851257324,
				1.0608177185058594
			],
			"min":[
				-1.0608196258544922,
				-2.414651870727539,
				0.6180381774902344
			],
			"type":"VEC3"
		},
		{
			"bufferView":9,
			"componentType":5126,
			"count":41,
			"type":"VEC3"
		},
		{
			"bufferView":10,
			"componentType":5126,
			"count":41,
			"type":"VEC2"
		},
		{
			"bufferView":11,
			"componentType":5123,
			"count":81,
			"type":"SCALAR"
		},
		{
			"bufferView":12,
			"componentType":5126,
			"count":141,
			"max":[
				-2.304029941558838,
				-9.24754524230957,
				0.8065678477287292
			],
			"min":[
				-3.9039535522460938,
				-14.59497356414795,
				-0.13075512647628784
			],
			"type":"VEC3"
		},
		{
			"bufferView":13,
			"componentType":5126,
			"count":141,
			"type":"VEC3"
		},
		{
			"bufferView":14,
			"componentType":5126,
			"count":141,
			"type":"VEC2"
		},
		{
			"bufferView":15,
			"componentType":5123,
			"count":564,
			"type":"SCALAR"
		},
		{
			"bufferView":16,
			"componentType":5126,
			"count":66,
			"max":[
				-1.4674642086029053,
				-6.7617902755737305,
				1.6368367671966553
			],
			"min":[
				-4,
				-9.840108871459961,
				-1.0734353065490723
			],
			"type":"VEC3"
		},
		{
			"bufferView":17,
			"componentType":5126,
			"count":66,
			"type":"VEC3"
		},
		{
			"bufferView":18,
			"componentType":5126,
			"count":66,
			"type":"VEC2"
		},
		{
			"bufferView":19,
			"componentType":5123,
			"count":78,
			"type":"SCALAR"
		},
		{
			"bufferView":20,
			"componentType":5126,
			"count":8,
			"max":[
				-4,
				-7.581015586853027,
				0.9743303656578064
			],
			"min":[
				-4,
				-9.110883712768555,
				-0.30867069959640503
			],
			"type":"VEC3"
		},
		{
			"bufferView":21,
			"componentType":5126,
			"count":8,
			"type":"VEC3"
		},
		{
			"bufferView":22,
			"componentType":5126,
			"count":8,
			"type":"VEC2"
		},
		{
			"bufferView":23,
			"componentType":5123,
			"count":18,
			"type":"SCALAR"
		},
		{
			"bufferView":24,
			"componentType":5126,
			"count":57,
			"max":[
				-3.46812105178833,
				-11.22124195098877,
				0.6063724756240845
			],
			"min":[
				-4,
				-12.396503448486328,
				-0.4171491861343384
			],
			"type":"VEC3"
		},
		{
			"bufferView":25,
			"componentType":5126,
			"count":57,
			"type":"VEC3"
		},
		{
			"bufferView":26,
			"componentType":5126,
			"count":57,
			"type":"VEC2"
		},
		{
			"bufferView":27,
			"componentType":5123,
			"count":69,
			"type":"SCALAR"
		},
		{
			"bufferView":28,
			"componentType":5126,
			"count":11,
			"max":[
				-4,
				-11.22911262512207,
				0.5920488834381104
			],
			"min":[
				-4,
				-12.389497756958008,
				-0.4171491861343384
			],
			"type":"VEC3"
		},
		{
			"bufferView":29,
			"componentType":5126,
			"count":11,
			"type":"VEC3"
		},
		{
			"bufferView":30,
			"componentType":5126,
			"count":11,
			"type":"VEC2"
		},
		{
			"bufferView":31,
			"componentType":5123,
			"count":27,
			"type":"SCALAR"
		},
		{
			"bufferView":32,
			"componentType":5126,
			"count":60,
			"max":[
				-2.4024910926818848,
				-12.678459167480469,
				1.107874870300293
			],
			"min":[
				-2.959238052368164,
				-13.306830406188965,
				0.5546317100524902
			],
			"type":"VEC3"
		},
		{
			"bufferView":33,
			"componentType":5126,
			"count":60,
			"type":"VEC3"
		},
		{
			"bufferView":34,
			"componentType":5126,
			"count":60,
			"type":"VEC2"
		},
		{
			"bufferView":35,
			"componentType":5126,
			"count":60,
			"type":"VEC4"
		},
		{
			"bufferView":36,
			"componentType":5123,
			"count":60,
			"type":"SCALAR"
		}
	],
	"bufferViews":[
		{
			"buffer":0,
			"byteLength":588,
			"byteOffset":0,
			"target":34962
		},
		{
			"buffer":0,
			"byteLength":588,
			"byteOffset":588,
			"target":34962
		},
		{
			"buffer":0,
			"byteLength":392,
			"byteOffset":1176,
			"target":34962
		},
		{
			"buffer":0,
			"byteLength":378,
			"byteOffset":1568,
			"target":34963
		},
		{
			"buffer":0,
			"byteLength":516,
			"byteOffset":1948,
			"target":34962
		},
		{
			"buffer":0,
			"byteLength":516,
			"byteOffset":2464,
			"target":34962
		},
		{
			"buffer":0,
			"byteLength":344,
			"byteOffset":2980,
			"target":34962
		},
		{
			"buffer":0,
			"byteLength":204,
			"byteOffset":3324,
			"target":34963
		},
		{
			"buffer":0,
			"byteLength":492,
			"byteOffset":3528,
			"target":34962
		},
		{
			"buffer":0,
			"byteLength":492,
			"byteOffset":4020,
			"target":34962
		},
		{
			"buffer":0,
			"byteLength":328,
			"byteOffset":4512,
			"target":34962
		},
		{
			"buffer":0,
			"byteLength":162,
			"byteOffset":4840,
			"target":34963
		},
		{
			"buffer":0,
			"byteLength":1692,
			"byteOffset":5004,
			"target":34962
		},
		{
			"buffer":0,
			"byteLength":1692,
			"byteOffset":6696,
			"target":34962
		},
		{
			"buffer":0,
			"byteLength":1128,
			"byteOffset":8388,
			"target":34962
		},
		{
			"buffer":0,
			"byteLength":1128,
			"byteOffset":9516,
			"target":34963
		},
		{
			"buffer":0,
			"byteLength":792,
			"byteOffset":10644,
			"target":34962
		},
		{
			"buffer":0,
			"byteLength":792,
			"byteOffset":11436,
			"target":34962
		},
		{
			"buffer":0,
			"byteLength":528,
			"byteOffset":12228,
			"target":34962
		},
		{
			"buffer":0,
			"byteLength":156,
			"byteOffset":12756,
			"target":34963
		},
		{
			"buffer":0,
			"byteLength":96,
			"byteOffset":12912,
			"target":34962
		},
		{
			"buffer":0,
			"byteLength":96,
			"byteOffset":13008,
			"target":34962
		},
		{
			"buffer":0,
			"byteLength":64,
			"byteOffset":13104,
			"target":34962
		},
		{
			"buffer":0,
			"byteLength":36,
			"byteOffset":13168,
			"target":34963
		},
		{
			"buffer":0,
			"byteLength":684,
			"byteOffset":13204,
			"target":34962
		},
		{
			"buffer":0,
			"byteLength":684,
			"byteOffset":13888,
			"target":34962
		},
		{
			"buffer":0,
			"byteLength":456,
			"byteOffset":14572,
			"target":34962
		},
		{
			"buffer":0,
			"byteLength":138,
			"byteOffset":15028,
			"target":34963
		},
		{
			"buffer":0,
			"byteLength":132,
			"byteOffset":15168,
			"target":34962
		},
		{
			"buffer":0,
			"byteLength":132,
			"byteOffset":15300,
			"target":34962
		},
		{
			"buffer":0,
			"byteLength":88,
			"byteOffset":15432,
			"target":34962
		},
		{
			"buffer":0,
			"byteLength":54,
			"byteOffset":15520,
			"target":34963
		},
		{
			"buffer":0,
			"byteLength":720,
			"byteOffset":15576,
			"target":34962
		},
		{
			"buffer":0,
			"byteLength":720,
			"byteOffset":16296,
			"target":34962
		},
		{
			"buffer":0,
			"byteLength":480,
			"byteOffset":17016,
			"target":34962
		},
		{
			"buffer":0,
			"byteLength":960,
			"byteOffset":17496,
			"target":34962
		},
		{
			"buffer":0,
			"byteLength":120,
			"byteOffset":18456,
			"target":34963
		}
	],
	"samplers":[
		{
			"magFilter":9729,
			"minFilter":9987
		}
	],
	"buffers":[
		{
			"byteLength":18576,
			"uri":"tile_8_0_8.bin"
		}
	]
}
