{
	"asset":{
		"generator":"Khronos glTF Blender I/O v4.0.44",
		"version":"2.0"
	},
	"extensionsUsed":[
		"KHR_materials_specular",
		"KHR_materials_ior",
		"KHR_materials_emissive_strength"
	],
	"scene":0,
	"scenes":[
		{
			"name":"Scene",
			"nodes":[
				0,
				1,
				2,
				3
			]
		}
	],
	"nodes":[
		{
			"mesh":0,
			"name":"Plane",
			"scale":[
				7.873531341552734,
				0.9841914176940918,
				7.873531341552734
			]
		},
		{
			"mesh":1,
			"name":"track.227",
			"scale":[
				3.7706682682037354,
				3.7706682682037354,
				3.7706682682037354
			]
		},
		{
			"mesh":2,
			"name":"Torus.030",
			"rotation":[
				0.7071069478988647,
				0,
				0,
				0.7071066498756409
			],
			"scale":[
				0.9492737650871277,
				0.949273943901062,
				0.949273943901062
			]
		},
		{
			"mesh":3,
			"name":"Text.002",
			"rotation":[
				0.5,
				0.5,
				-0.5,
				0.5
			],
			"scale":[
				2.029393434524536,
				2.029393434524536,
				2.029393434524536
			]
		}
	],
	"materials":[
		{
			"doubleSided":true,
			"extensions":{
				"KHR_materials_specular":{
					"specularColorFactor":[
						2.0,
						2.0,
						2.0
					]
				},
				"KHR_materials_ior":{
					"ior":1.4500000476837158
				}
			},
			"name":"building",
			"pbrMetallicRoughness":{
				"baseColorTexture":{
					"index":0
				},
				"metallicFactor":0
			}
		},
		{
			"doubleSided":true,
			"emissiveFactor":[
				1,
				0.003797386313042906,
				0
			],
			"extensions":{
				"KHR_materials_emissive_strength":{
					"emissiveStrength":7.991064786911011
				}
			},
			"name":"Glow9",
			"pbrMetallicRoughness":{
				"baseColorFactor":[
					0.8000000715255737,
					0.0031031807884573936,
					0,
					1
				],
				"metallicFactor":0
			}
		},
		{
			"doubleSided":true,
			"emissiveFactor":[
				1,
				1,
				1
			],
			"extensions":{
				"KHR_materials_emissive_strength":{
					"emissiveStrength":4
				}
			},
			"name":"Glow2",
			"pbrMetallicRoughness":{
				"baseColorFactor":[
					0.800000011920929,
					0.800000011920929,
					0.800000011920929,
					1
				],
				"metallicFactor":0,
				"roughnessFactor":0.5
			}
		}
	],
	"meshes":[
		{
			"name":"Plane.1104",
			"primitives":[
				{
					"attributes":{
						"POSITION":0,
						"NORMAL":1,
						"TEXCOORD_0":2,
						"TANGENT":3
					},
					"indices":4,
					"material":0
				}
			]
		},
		{
			"name":"Plane.1105",
			"primitives":[
				{
					"attributes":{
						"POSITION":5,
						"NORMAL":6,
						"TEXCOORD_0":7
					},
					"indices":8,
					"material":0
				}
			]
		},
		{
			"name":"Torus.078",
			"primitives":[
				{
					"attributes":{
						"POSITION":9,
						"NORMAL":10,
						"TEXCOORD_0":11
					},
					"indices":12,
					"material":0
				},
				{
					"attributes":{
						"POSITION":13,
						"NORMAL":14,
						"TEXCOORD_0":15
					},
					"indices":16,
					"material":1
				},
				{
					"attributes":{
						"POSITION":17,
						"NORMAL":18,
						"TEXCOORD_0":19
					},
					"indices":20,
					"material":2
				}
			]
		},
		{
			"name":"Text.005",
			"primitives":[
				{
					"attributes":{
						"POSITION":21,
						"NORMAL":22,
						"TEXCOORD_0":23
					},
					"indices":24,
					"material":2
				}
			]
		}
	],
	"textures":[
		{
			"sampler":0,
			"source":0
		}
	],
	"images":[
		{
			"mimeType":"image/png",
			"name":"AvatarWearables_TX",
			"uri":"tex/AvatarWearables_TX.png"
		}
	],
	"accessors":[
		{
			"bufferView":0,
			"componentType":5126,
			"count":36,
			"max":[
				0.5080313682556152,
				-14.900496482849121,
				0.5080313682556152
			],
			"min":[
				-0.5080313682556152,
				-14.900496482849121,
				-0.5080313682556152
			],
			"type":"VEC3"
		},
		{
			"bufferView":1,
			"componentType":5126,
			"count":36,
			"type":"VEC3"
		},
		{
			"bufferView":2,
			"componentType":5126,
			"count":36,
			"type":"VEC2"
		},
		{
			"bufferView":3,
			"componentType":5126,
			"count":36,
			"type":"VEC4"
		},
		{
			"bufferView":4,
			"componentType":5123,
			"count":150,
			"type":"SCALAR"
		},
		{
			"bufferView":5,
			"componentType":5126,
			"count":59,
			"max":[
				1.0608158111572266,
				-3.545684337615967,
				0.7155733108520508
			],
			"min":[
				-1.0608234405517578,
				-4.243279933929443,
				-1.0608196258544922
			],
			"type":"VEC3"
		},
		{
			"bufferView":6,
			"componentType":5126,
			"count":59,
			"type":"VEC3"
		},
		{
			"bufferView":7,
			"componentType":5126,
			"count":59,
			"type":"VEC2"
		},
		{
			"bufferView":8,
			"componentType":5123,
			"count":99,
			"type":"SCALAR"
		},
		{
			"bufferView":9,
			"componentType":5126,
			"count":518,
			"max":[
				0.40257740020751953,
				4.213739395141602,
				15.282682418823242
			],
			"min":[
				-3.90750789642334,
				2.7231252193450928,
				8.347968101501465
			],
			"type":"VEC3"
		},
		{
			"bufferView":10,
			"componentType":5126,
			"count":518,
			"type":"VEC3"
		},
		{
			"bufferView":11,
			"componentType":5126,
			"count":518,
			"type":"VEC2"
		},
		{
			"bufferView":12,
			"componentType":5123,
			"count":1929,
			"type":"SCALAR"
		},
		{
			"bufferView":13,
			"componentType":5126,
			"count":27,
			"max":[
				0.33707165718078613,
				4.213739395141602,
				15.20820140838623
			],
			"min":[
				-3.873189687728882,
				3.625617742538452,
				8.432518005371094
			],
			"type":"VEC3"
		},
		{
			"bufferView":14,
			"componentType":5126,
			"count":27,
			"type":"VEC3"
		},
		{
			"bufferView":15,
			"componentType":5126,
			"count":27,
			"type":"VEC2"
		},
		{
			"bufferView":16,
			"componentType":5123,
			"count":69,
			"type":"SCALAR"
		},
		{
			"bufferView":17,
			"componentType":5126,
			"count":22,
			"max":[
				-0.036225199699401855,
				4.213739395141602,
				14.599455833435059
			],
			"min":[
				-3.126641273498535,
				2.7231252193450928,
				9.161046981811523
			],
			"type":"VEC3"
		},
		{
			"bufferView":18,
			"componentType":5126,
			"count":22,
			"type":"VEC3"
		},
		{
			"bufferView":19,
			"componentType":5126,
			"count":22,
			"type":"VEC2"
		},
		{
			"bufferView":20,
			"componentType":5123,
			"count":60,
			"type":"SCALAR"
		},
		{
			"bufferView":21,
			"componentType":5126,
			"count":2090,
			"max":[
				1.9710323810577393,
				-0.7085537314414978,
				3.602360963821411
			],
			"min":[
				-1.7238645553588867,
				-0.7485537528991699,
				3.114556312561035
			],
			"type":"VEC3"
		},
		{
			"bufferView":22,
			"componentType":5126,
			"count":2090,
			"type":"VEC3"
		},
		{
			"bufferView":23,
			"componentType":5126,
			"count":2090,
			"type":"VEC2"
		},
		{
			"bufferView":24,
			"componentType":5123,
			"count":4119,
			"type":"SCALAR"
		}
	],
	"bufferViews":[
		{
			"buffer":0,
			"byteLength":432,
			"byteOffset":0,
			"target":34962
		},
		{
			"buffer":0,
			"byteLength":432,
			"byteOffset":432,
			"target":34962
		},
		{
			"buffer":0,
			"byteLength":288,
			"byteOffset":864,
			"target":34962
		},
		{
			"buffer":0,
			"byteLength":576,
			"byteOffset":1152,
			"target":34962
		},
		{
			"buffer":0,
			"byteLength":300,
			"byteOffset":1728,
			"target":34963
		},
		{
			"buffer":0,
			"byteLength":708,
			"byteOffset":2028,
			"target":34962
		},
		{
			"buffer":0,
			"byteLength":708,
			"byteOffset":2736,
			"target":34962
		},
		{
			"buffer":0,
			"byteLength":472,
			"byteOffset":3444,
			"target":34962
		},
		{
			"buffer":0,
			"byteLength":198,
			"byteOffset":3916,
			"target":34963
		},
		{
			"buffer":0,
			"byteLength":6216,
			"byteOffset":4116,
			"target":34962
		},
		{
			"buffer":0,
			"byteLength":6216,
			"byteOffset":10332,
			"target":34962
		},
		{
			"buffer":0,
			"byteLength":4144,
			"byteOffset":16548,
			"target":34962
		},
		{
			"buffer":0,
			"byteLength":3858,
			"byteOffset":20692,
			"target":34963
		},
		{
			"buffer":0,
			"byteLength":324,
			"byteOffset":24552,
			"target":34962
		},
		{
			"buffer":0,
			"byteLength":324,
			"byteOffset":24876,
			"target":34962
		},
		{
			"buffer":0,
			"byteLength":216,
			"byteOffset":25200,
			"target":34962
		},
		{
			"buffer":0,
			"byteLength":138,
			"byteOffset":25416,
			"target":34963
		},
		{
			"buffer":0,
			"byteLength":264,
			"byteOffset":25556,
			"target":34962
		},
		{
			"buffer":0,
			"byteLength":264,
			"byteOffset":25820,
			"target":34962
		},
		{
			"buffer":0,
			"byteLength":176,
			"byteOffset":26084,
			"target":34962
		},
		{
			"buffer":0,
			"byteLength":120,
			"byteOffset":26260,
			"target":34963
		},
		{
			"buffer":0,
			"byteLength":25080,
			"byteOffset":26380,
			"target":34962
		},
		{
			"buffer":0,
			"byteLength":25080,
			"byteOffset":51460,
			"target":34962
		},
		{
			"buffer":0,
			"byteLength":16720,
			"byteOffset":76540,
			"target":34962
		},
		{
			"buffer":0,
			"byteLength":8238,
			"byteOffset":93260,
			"target":34963
		}
	],
	"samplers":[
		{
			"magFilter":9729,
			"minFilter":9987
		}
	],
	"buffers":[
		{
			"byteLength":101500,
			"uri":"tile_18_0_10.bin"
		}
	]
}
