{
	"asset":{
		"generator":"Khronos glTF Blender I/O v4.0.44",
		"version":"2.0"
	},
	"extensionsUsed":[
		"KHR_materials_specular",
		"KHR_materials_ior",
		"KHR_materials_emissive_strength"
	],
	"scene":0,
	"scenes":[
		{
			"name":"Scene",
			"nodes":[
				0,
				1,
				2
			]
		}
	],
	"nodes":[
		{
			"mesh":0,
			"name":"Plane",
			"scale":[
				7.873531341552734,
				0.9841914176940918,
				7.873531341552734
			]
		},
		{
			"mesh":1,
			"name":"track.256",
			"scale":[
				3.7706682682037354,
				3.7706682682037354,
				3.7706682682037354
			]
		},
		{
			"mesh":2,
			"name":"Torus.025",
			"rotation":[
				0.7071069478988647,
				0,
				0,
				0.7071066498756409
			],
			"scale":[
				0.9492737650871277,
				0.949273943901062,
				0.949273943901062
			]
		}
	],
	"materials":[
		{
			"doubleSided":true,
			"extensions":{
				"KHR_materials_specular":{
					"specularColorFactor":[
						2.0,
						2.0,
						2.0
					]
				},
				"KHR_materials_ior":{
					"ior":1.4500000476837158
				}
			},
			"name":"building",
			"pbrMetallicRoughness":{
				"baseColorTexture":{
					"index":0
				},
				"metallicFactor":0
			}
		},
		{
			"doubleSided":true,
			"emissiveFactor":[
				1,
				0.003797386313042906,
				0
			],
			"extensions":{
				"KHR_materials_emissive_strength":{
					"emissiveStrength":7.991064786911011
				}
			},
			"name":"Glow9",
			"pbrMetallicRoughness":{
				"baseColorFactor":[
					0.8000000715255737,
					0.0031031807884573936,
					0,
					1
				],
				"metallicFactor":0
			}
		},
		{
			"doubleSided":true,
			"emissiveFactor":[
				1,
				1,
				1
			],
			"extensions":{
				"KHR_materials_emissive_strength":{
					"emissiveStrength":4
				}
			},
			"name":"Glow2",
			"pbrMetallicRoughness":{
				"baseColorFactor":[
					0.800000011920929,
					0.800000011920929,
					0.800000011920929,
					1
				],
				"metallicFactor":0,
				"roughnessFactor":0.5
			}
		}
	],
	"meshes":[
		{
			"name":"Plane.1162",
			"primitives":[
				{
					"attributes":{
						"POSITION":0,
						"NORMAL":1,
						"TEXCOORD_0":2,
						"TANGENT":3
					},
					"indices":4,
					"material":0
				}
			]
		},
		{
			"name":"Plane.1163",
			"primitives":[
				{
					"attributes":{
						"POSITION":5,
						"NORMAL":6,
						"TEXCOORD_0":7
					},
					"indices":8,
					"material":0
				}
			]
		},
		{
			"name":"Torus.084",
			"primitives":[
				{
					"attributes":{
						"POSITION":9,
						"NORMAL":10,
						"TEXCOORD_0":11,
						"TANGENT":12
					},
					"indices":13,
					"material":0
				},
				{
					"attributes":{
						"POSITION":14,
						"NORMAL":15,
						"TEXCOORD_0":16,
						"TANGENT":17
					},
					"indices":18,
					"material":1
				},
				{
					"attributes":{
						"POSITION":19,
						"NORMAL":20,
						"TEXCOORD_0":21,
						"TANGENT":22
					},
					"indices":23,
					"material":2
				}
			]
		}
	],
	"textures":[
		{
			"sampler":0,
			"source":0
		}
	],
	"images":[
		{
			"mimeType":"image/png",
			"name":"AvatarWearables_TX",
			"uri":"tex/AvatarWearables_TX.png"
		}
	],
	"accessors":[
		{
			"bufferView":0,
			"componentType":5126,
			"count":36,
			"max":[
				0.508030891418457,
				-14.900496482849121,
				0.508030891418457
			],
			"min":[
				-0.508030891418457,
				-14.900496482849121,
				-0.5080318450927734
			],
			"type":"VEC3"
		},
		{
			"bufferView":1,
			"componentType":5126,
			"count":36,
			"type":"VEC3"
		},
		{
			"bufferView":2,
			"componentType":5126,
			"count":36,
			"type":"VEC2"
		},
		{
			"bufferView":3,
			"componentType":5126,
			"count":36,
			"type":"VEC4"
		},
		{
			"bufferView":4,
			"componentType":5123,
			"count":150,
			"type":"SCALAR"
		},
		{
			"bufferView":5,
			"componentType":5126,
			"count":60,
			"max":[
				1.0608158111572266,
				-3.543867826461792,
				1.0608201026916504
			],
			"min":[
				0.3134937286376953,
				-4.243279933929443,
				-1.060819149017334
			],
			"type":"VEC3"
		},
		{
			"bufferView":6,
			"componentType":5126,
			"count":60,
			"type":"VEC3"
		},
		{
			"bufferView":7,
			"componentType":5126,
			"count":60,
			"type":"VEC2"
		},
		{
			"bufferView":8,
			"componentType":5123,
			"count":102,
			"type":"SCALAR"
		},
		{
			"bufferView":9,
			"componentType":5126,
			"count":991,
			"max":[
				0.9418859481811523,
				2.5120813846588135,
				15.501761436462402
			],
			"min":[
				-3.835892677307129,
				-2.265695810317993,
				7.085599899291992
			],
			"type":"VEC3"
		},
		{
			"bufferView":10,
			"componentType":5126,
			"count":991,
			"type":"VEC3"
		},
		{
			"bufferView":11,
			"componentType":5126,
			"count":991,
			"type":"VEC2"
		},
		{
			"bufferView":12,
			"componentType":5126,
			"count":991,
			"type":"VEC4"
		},
		{
			"bufferView":13,
			"componentType":5123,
			"count":4692,
			"type":"SCALAR"
		},
		{
			"bufferView":14,
			"componentType":5126,
			"count":66,
			"max":[
				0.9219045639038086,
				1.7741929292678833,
				15.461385726928711
			],
			"min":[
				-3.832207679748535,
				-1.3632032871246338,
				8.118880271911621
			],
			"type":"VEC3"
		},
		{
			"bufferView":15,
			"componentType":5126,
			"count":66,
			"type":"VEC3"
		},
		{
			"bufferView":16,
			"componentType":5126,
			"count":66,
			"type":"VEC2"
		},
		{
			"bufferView":17,
			"componentType":5126,
			"count":66,
			"type":"VEC4"
		},
		{
			"bufferView":18,
			"componentType":5123,
			"count":192,
			"type":"SCALAR"
		},
		{
			"bufferView":19,
			"componentType":5126,
			"count":100,
			"max":[
				0.19621193408966064,
				2.5120813846588135,
				15.501761436462402
			],
			"min":[
				-3.0285730361938477,
				-2.265695810317993,
				7.304636001586914
			],
			"type":"VEC3"
		},
		{
			"bufferView":20,
			"componentType":5126,
			"count":100,
			"type":"VEC3"
		},
		{
			"bufferView":21,
			"componentType":5126,
			"count":100,
			"type":"VEC2"
		},
		{
			"bufferView":22,
			"componentType":5126,
			"count":100,
			"type":"VEC4"
		},
		{
			"bufferView":23,
			"componentType":5123,
			"count":288,
			"type":"SCALAR"
		}
	],
	"bufferViews":[
		{
			"buffer":0,
			"byteLength":432,
			"byteOffset":0,
			"target":34962
		},
		{
			"buffer":0,
			"byteLength":432,
			"byteOffset":432,
			"target":34962
		},
		{
			"buffer":0,
			"byteLength":288,
			"byteOffset":864,
			"target":34962
		},
		{
			"buffer":0,
			"byteLength":576,
			"byteOffset":1152,
			"target":34962
		},
		{
			"buffer":0,
			"byteLength":300,
			"byteOffset":1728,
			"target":34963
		},
		{
			"buffer":0,
			"byteLength":720,
			"byteOffset":2028,
			"target":34962
		},
		{
			"buffer":0,
			"byteLength":720,
			"byteOffset":2748,
			"target":34962
		},
		{
			"buffer":0,
			"byteLength":480,
			"byteOffset":3468,
			"target":34962
		},
		{
			"buffer":0,
			"byteLength":204,
			"byteOffset":3948,
			"target":34963
		},
		{
			"buffer":0,
			"byteLength":11892,
			"byteOffset":4152,
			"target":34962
		},
		{
			"buffer":0,
			"byteLength":11892,
			"byteOffset":16044,
			"target":34962
		},
		{
			"buffer":0,
			"byteLength":7928,
			"byteOffset":27936,
			"target":34962
		},
		{
			"buffer":0,
			"byteLength":15856,
			"byteOffset":35864,
			"target":34962
		},
		{
			"buffer":0,
			"byteLength":9384,
			"byteOffset":51720,
			"target":34963
		},
		{
			"buffer":0,
			"byteLength":792,
			"byteOffset":61104,
			"target":34962
		},
		{
			"buffer":0,
			"byteLength":792,
			"byteOffset":61896,
			"target":34962
		},
		{
			"buffer":0,
			"byteLength":528,
			"byteOffset":62688,
			"target":34962
		},
		{
			"buffer":0,
			"byteLength":1056,
			"byteOffset":63216,
			"target":34962
		},
		{
			"buffer":0,
			"byteLength":384,
			"byteOffset":64272,
			"target":34963
		},
		{
			"buffer":0,
			"byteLength":1200,
			"byteOffset":64656,
			"target":34962
		},
		{
			"buffer":0,
			"byteLength":1200,
			"byteOffset":65856,
			"target":34962
		},
		{
			"buffer":0,
			"byteLength":800,
			"byteOffset":67056,
			"target":34962
		},
		{
			"buffer":0,
			"byteLength":1600,
			"byteOffset":67856,
			"target":34962
		},
		{
			"buffer":0,
			"byteLength":576,
			"byteOffset":69456,
			"target":34963
		}
	],
	"samplers":[
		{
			"magFilter":9729,
			"minFilter":9987
		}
	],
	"buffers":[
		{
			"byteLength":70032,
			"uri":"tile_21_0_3.bin"
		}
	]
}
