{
	"asset":{
		"generator":"Khronos glTF Blender I/O v4.0.44",
		"version":"2.0"
	},
	"extensionsUsed":[
		"KHR_materials_specular",
		"KHR_materials_ior"
	],
	"scene":0,
	"scenes":[
		{
			"name":"Scene",
			"nodes":[
				0,
				1,
				2,
				3,
				4,
				5,
				6,
				7,
				8,
				9
			]
		}
	],
	"nodes":[
		{
			"mesh":0,
			"name":"Plane",
			"scale":[
				7.873531341552734,
				0.9841914176940918,
				7.873531341552734
			]
		},
		{
			"mesh":1,
			"name":"track.014",
			"scale":[
				3.7706682682037354,
				3.7706682682037354,
				3.7706682682037354
			]
		},
		{
			"mesh":2,
			"name":"Cube.010"
		},
		{
			"mesh":3,
			"name":"Cube.098"
		},
		{
			"mesh":4,
			"name":"Cube.099"
		},
		{
			"mesh":5,
			"name":"Cube.100"
		},
		{
			"mesh":6,
			"name":"Cube.101"
		},
		{
			"mesh":7,
			"name":"Cube.102"
		},
		{
			"mesh":8,
			"name":"Cube.103"
		},
		{
			"mesh":9,
			"name":"Cube.104"
		}
	],
	"materials":[
		{
			"doubleSided":true,
			"extensions":{
				"KHR_materials_specular":{
					"specularColorFactor":[
						2.0,
						2.0,
						2.0
					]
				},
				"KHR_materials_ior":{
					"ior":1.4500000476837158
				}
			},
			"name":"building",
			"pbrMetallicRoughness":{
				"baseColorTexture":{
					"index":0
				},
				"metallicFactor":0
			}
		}
	],
	"meshes":[
		{
			"name":"Plane.680",
			"primitives":[
				{
					"attributes":{
						"POSITION":0,
						"NORMAL":1,
						"TEXCOORD_0":2,
						"TANGENT":3
					},
					"indices":4,
					"material":0
				}
			]
		},
		{
			"name":"Plane.681",
			"primitives":[
				{
					"attributes":{
						"POSITION":5,
						"NORMAL":6,
						"TEXCOORD_0":7
					},
					"indices":8,
					"material":0
				},
				{
					"attributes":{
						"POSITION":9,
						"NORMAL":10,
						"TEXCOORD_0":11
					},
					"indices":12,
					"material":0
				}
			]
		},
		{
			"name":"Cube.516",
			"primitives":[
				{
					"attributes":{
						"POSITION":13,
						"NORMAL":14,
						"TEXCOORD_0":15
					},
					"indices":16,
					"material":0
				}
			]
		},
		{
			"name":"Cube.517",
			"primitives":[
				{
					"attributes":{
						"POSITION":17,
						"NORMAL":18,
						"TEXCOORD_0":19,
						"TANGENT":20
					},
					"indices":21,
					"material":0
				},
				{
					"attributes":{
						"POSITION":22,
						"NORMAL":23,
						"TEXCOORD_0":24,
						"TANGENT":25
					},
					"indices":26,
					"material":0
				}
			]
		},
		{
			"name":"Cube.518",
			"primitives":[
				{
					"attributes":{
						"POSITION":27,
						"NORMAL":28,
						"TEXCOORD_0":29,
						"TANGENT":30
					},
					"indices":21,
					"material":0
				},
				{
					"attributes":{
						"POSITION":31,
						"NORMAL":32,
						"TEXCOORD_0":33,
						"TANGENT":34
					},
					"indices":26,
					"material":0
				}
			]
		},
		{
			"name":"Cube.519",
			"primitives":[
				{
					"attributes":{
						"POSITION":35,
						"NORMAL":36,
						"TEXCOORD_0":37,
						"TANGENT":38
					},
					"indices":39,
					"material":0
				}
			]
		},
		{
			"name":"Cube.520",
			"primitives":[
				{
					"attributes":{
						"POSITION":40,
						"NORMAL":41,
						"TEXCOORD_0":42,
						"TANGENT":43
					},
					"indices":21,
					"material":0
				},
				{
					"attributes":{
						"POSITION":44,
						"NORMAL":45,
						"TEXCOORD_0":46,
						"TANGENT":47
					},
					"indices":26,
					"material":0
				}
			]
		},
		{
			"name":"Cube.521",
			"primitives":[
				{
					"attributes":{
						"POSITION":48,
						"NORMAL":49,
						"TEXCOORD_0":50,
						"TANGENT":51
					},
					"indices":39,
					"material":0
				}
			]
		},
		{
			"name":"Cube.522",
			"primitives":[
				{
					"attributes":{
						"POSITION":52,
						"NORMAL":53,
						"TEXCOORD_0":54,
						"TANGENT":55
					},
					"indices":21,
					"material":0
				},
				{
					"attributes":{
						"POSITION":56,
						"NORMAL":57,
						"TEXCOORD_0":58,
						"TANGENT":59
					},
					"indices":26,
					"material":0
				}
			]
		},
		{
			"name":"Cube.523",
			"primitives":[
				{
					"attributes":{
						"POSITION":60,
						"NORMAL":61,
						"TEXCOORD_0":62,
						"TANGENT":63
					},
					"indices":21,
					"material":0
				},
				{
					"attributes":{
						"POSITION":64,
						"NORMAL":65,
						"TEXCOORD_0":66,
						"TANGENT":67
					},
					"indices":26,
					"material":0
				}
			]
		}
	],
	"textures":[
		{
			"sampler":0,
			"source":0
		}
	],
	"images":[
		{
			"mimeType":"image/png",
			"name":"AvatarWearables_TX",
			"uri":"tex/AvatarWearables_TX.png"
		}
	],
	"accessors":[
		{
			"bufferView":0,
			"componentType":5126,
			"count":36,
			"max":[
				0.5080310106277466,
				-14.900496482849121,
				0.5080311298370361
			],
			"min":[
				-0.5080307722091675,
				-14.900496482849121,
				-0.5080316066741943
			],
			"type":"VEC3"
		},
		{
			"bufferView":1,
			"componentType":5126,
			"count":36,
			"type":"VEC3"
		},
		{
			"bufferView":2,
			"componentType":5126,
			"count":36,
			"type":"VEC2"
		},
		{
			"bufferView":3,
			"componentType":5126,
			"count":36,
			"type":"VEC4"
		},
		{
			"bufferView":4,
			"componentType":5123,
			"count":150,
			"type":"SCALAR"
		},
		{
			"bufferView":5,
			"componentType":5126,
			"count":41,
			"max":[
				1.0608177185058594,
				-3.540691375732422,
				0.4909076690673828
			],
			"min":[
				-0.3342914581298828,
				-4.1073317527771,
				-1.0608196258544922
			],
			"type":"VEC3"
		},
		{
			"bufferView":6,
			"componentType":5126,
			"count":41,
			"type":"VEC3"
		},
		{
			"bufferView":7,
			"componentType":5126,
			"count":41,
			"type":"VEC2"
		},
		{
			"bufferView":8,
			"componentType":5123,
			"count":63,
			"type":"SCALAR"
		},
		{
			"bufferView":9,
			"componentType":5126,
			"count":17,
			"max":[
				1.0608177185058594,
				-3.540691375732422,
				0.4909076690673828
			],
			"min":[
				-0.3342914581298828,
				-4.243279933929443,
				-1.0608196258544922
			],
			"type":"VEC3"
		},
		{
			"bufferView":10,
			"componentType":5126,
			"count":17,
			"type":"VEC3"
		},
		{
			"bufferView":11,
			"componentType":5126,
			"count":17,
			"type":"VEC2"
		},
		{
			"bufferView":12,
			"componentType":5123,
			"count":39,
			"type":"SCALAR"
		},
		{
			"bufferView":13,
			"componentType":5126,
			"count":144,
			"max":[
				3.2733731269836426,
				-11.940752983093262,
				4
			],
			"min":[
				-2.2714829444885254,
				-14.761817932128906,
				1.1739568710327148
			],
			"type":"VEC3"
		},
		{
			"bufferView":14,
			"componentType":5126,
			"count":144,
			"type":"VEC3"
		},
		{
			"bufferView":15,
			"componentType":5126,
			"count":144,
			"type":"VEC2"
		},
		{
			"bufferView":16,
			"componentType":5123,
			"count":264,
			"type":"SCALAR"
		},
		{
			"bufferView":17,
			"componentType":5126,
			"count":20,
			"max":[
				2.8713788986206055,
				-14.049240112304688,
				4
			],
			"min":[
				-0.8184905052185059,
				-14.107187271118164,
				1.3971781730651855
			],
			"type":"VEC3"
		},
		{
			"bufferView":18,
			"componentType":5126,
			"count":20,
			"type":"VEC3"
		},
		{
			"bufferView":19,
			"componentType":5126,
			"count":20,
			"type":"VEC2"
		},
		{
			"bufferView":20,
			"componentType":5126,
			"count":20,
			"type":"VEC4"
		},
		{
			"bufferView":21,
			"componentType":5123,
			"count":30,
			"type":"SCALAR"
		},
		{
			"bufferView":22,
			"componentType":5126,
			"count":4,
			"max":[
				2.8713788986206055,
				-14.049240112304688,
				4
			],
			"min":[
				2.5552942752838135,
				-14.107187271118164,
				4
			],
			"type":"VEC3"
		},
		{
			"bufferView":23,
			"componentType":5126,
			"count":4,
			"type":"VEC3"
		},
		{
			"bufferView":24,
			"componentType":5126,
			"count":4,
			"type":"VEC2"
		},
		{
			"bufferView":25,
			"componentType":5126,
			"count":4,
			"type":"VEC4"
		},
		{
			"bufferView":26,
			"componentType":5123,
			"count":6,
			"type":"SCALAR"
		},
		{
			"bufferView":27,
			"componentType":5126,
			"count":20,
			"max":[
				2.2392101287841797,
				-13.759504318237305,
				4
			],
			"min":[
				-1.0370497703552246,
				-13.817451477050781,
				1.6978411674499512
			],
			"type":"VEC3"
		},
		{
			"bufferView":28,
			"componentType":5126,
			"count":20,
			"type":"VEC3"
		},
		{
			"bufferView":29,
			"componentType":5126,
			"count":20,
			"type":"VEC2"
		},
		{
			"bufferView":30,
			"componentType":5126,
			"count":20,
			"type":"VEC4"
		},
		{
			"bufferView":31,
			"componentType":5126,
			"count":4,
			"max":[
				2.2392101287841797,
				-13.759504318237305,
				4
			],
			"min":[
				1.9231266975402832,
				-13.817451477050781,
				4
			],
			"type":"VEC3"
		},
		{
			"bufferView":32,
			"componentType":5126,
			"count":4,
			"type":"VEC3"
		},
		{
			"bufferView":33,
			"componentType":5126,
			"count":4,
			"type":"VEC2"
		},
		{
			"bufferView":34,
			"componentType":5126,
			"count":4,
			"type":"VEC4"
		},
		{
			"bufferView":35,
			"componentType":5126,
			"count":24,
			"max":[
				1.6070425510406494,
				-13.469769477844238,
				4
			],
			"min":[
				-1.2556092739105225,
				-13.527716636657715,
				1.9985034465789795
			],
			"type":"VEC3"
		},
		{
			"bufferView":36,
			"componentType":5126,
			"count":24,
			"type":"VEC3"
		},
		{
			"bufferView":37,
			"componentType":5126,
			"count":24,
			"type":"VEC2"
		},
		{
			"bufferView":38,
			"componentType":5126,
			"count":24,
			"type":"VEC4"
		},
		{
			"bufferView":39,
			"componentType":5123,
			"count":36,
			"type":"SCALAR"
		},
		{
			"bufferView":40,
			"componentType":5126,
			"count":20,
			"max":[
				0.9748741388320923,
				-13.180034637451172,
				4
			],
			"min":[
				-1.4741685390472412,
				-13.237981796264648,
				2.299166202545166
			],
			"type":"VEC3"
		},
		{
			"bufferView":41,
			"componentType":5126,
			"count":20,
			"type":"VEC3"
		},
		{
			"bufferView":42,
			"componentType":5126,
			"count":20,
			"type":"VEC2"
		},
		{
			"bufferView":43,
			"componentType":5126,
			"count":20,
			"type":"VEC4"
		},
		{
			"bufferView":44,
			"componentType":5126,
			"count":4,
			"max":[
				0.9748741388320923,
				-13.180034637451172,
				4
			],
			"min":[
				0.6587903499603271,
				-13.237981796264648,
				4
			],
			"type":"VEC3"
		},
		{
			"bufferView":45,
			"componentType":5126,
			"count":4,
			"type":"VEC3"
		},
		{
			"bufferView":46,
			"componentType":5126,
			"count":4,
			"type":"VEC2"
		},
		{
			"bufferView":47,
			"componentType":5126,
			"count":4,
			"type":"VEC4"
		},
		{
			"bufferView":48,
			"componentType":5126,
			"count":24,
			"max":[
				0.34270620346069336,
				-12.890298843383789,
				4
			],
			"min":[
				-1.6927285194396973,
				-12.948246002197266,
				2.5998291969299316
			],
			"type":"VEC3"
		},
		{
			"bufferView":49,
			"componentType":5126,
			"count":24,
			"type":"VEC3"
		},
		{
			"bufferView":50,
			"componentType":5126,
			"count":24,
			"type":"VEC2"
		},
		{
			"bufferView":51,
			"componentType":5126,
			"count":24,
			"type":"VEC4"
		},
		{
			"bufferView":52,
			"componentType":5126,
			"count":20,
			"max":[
				-0.2894618511199951,
				-12.600564002990723,
				4
			],
			"min":[
				-1.9112873077392578,
				-12.6585111618042,
				2.900491714477539
			],
			"type":"VEC3"
		},
		{
			"bufferView":53,
			"componentType":5126,
			"count":20,
			"type":"VEC3"
		},
		{
			"bufferView":54,
			"componentType":5126,
			"count":20,
			"type":"VEC2"
		},
		{
			"bufferView":55,
			"componentType":5126,
			"count":20,
			"type":"VEC4"
		},
		{
			"bufferView":56,
			"componentType":5126,
			"count":4,
			"max":[
				-0.2894618511199951,
				-12.600564002990723,
				4
			],
			"min":[
				-0.6055459976196289,
				-12.6585111618042,
				4
			],
			"type":"VEC3"
		},
		{
			"bufferView":57,
			"componentType":5126,
			"count":4,
			"type":"VEC3"
		},
		{
			"bufferView":58,
			"componentType":5126,
			"count":4,
			"type":"VEC2"
		},
		{
			"bufferView":59,
			"componentType":5126,
			"count":4,
			"type":"VEC4"
		},
		{
			"bufferView":60,
			"componentType":5126,
			"count":20,
			"max":[
				-0.9216301441192627,
				-12.31082820892334,
				4
			],
			"min":[
				-2.1298465728759766,
				-12.368775367736816,
				3.2011544704437256
			],
			"type":"VEC3"
		},
		{
			"bufferView":61,
			"componentType":5126,
			"count":20,
			"type":"VEC3"
		},
		{
			"bufferView":62,
			"componentType":5126,
			"count":20,
			"type":"VEC2"
		},
		{
			"bufferView":63,
			"componentType":5126,
			"count":20,
			"type":"VEC4"
		},
		{
			"bufferView":64,
			"componentType":5126,
			"count":4,
			"max":[
				-0.9216301441192627,
				-12.31082820892334,
				4
			],
			"min":[
				-1.2377140522003174,
				-12.368775367736816,
				4
			],
			"type":"VEC3"
		},
		{
			"bufferView":65,
			"componentType":5126,
			"count":4,
			"type":"VEC3"
		},
		{
			"bufferView":66,
			"componentType":5126,
			"count":4,
			"type":"VEC2"
		},
		{
			"bufferView":67,
			"componentType":5126,
			"count":4,
			"type":"VEC4"
		}
	],
	"bufferViews":[
		{
			"buffer":0,
			"byteLength":432,
			"byteOffset":0,
			"target":34962
		},
		{
			"buffer":0,
			"byteLength":432,
			"byteOffset":432,
			"target":34962
		},
		{
			"buffer":0,
			"byteLength":288,
			"byteOffset":864,
			"target":34962
		},
		{
			"buffer":0,
			"byteLength":576,
			"byteOffset":1152,
			"target":34962
		},
		{
			"buffer":0,
			"byteLength":300,
			"byteOffset":1728,
			"target":34963
		},
		{
			"buffer":0,
			"byteLength":492,
			"byteOffset":2028,
			"target":34962
		},
		{
			"buffer":0,
			"byteLength":492,
			"byteOffset":2520,
			"target":34962
		},
		{
			"buffer":0,
			"byteLength":328,
			"byteOffset":3012,
			"target":34962
		},
		{
			"buffer":0,
			"byteLength":126,
			"byteOffset":3340,
			"target":34963
		},
		{
			"buffer":0,
			"byteLength":204,
			"byteOffset":3468,
			"target":34962
		},
		{
			"buffer":0,
			"byteLength":204,
			"byteOffset":3672,
			"target":34962
		},
		{
			"buffer":0,
			"byteLength":136,
			"byteOffset":3876,
			"target":34962
		},
		{
			"buffer":0,
			"byteLength":78,
			"byteOffset":4012,
			"target":34963
		},
		{
			"buffer":0,
			"byteLength":1728,
			"byteOffset":4092,
			"target":34962
		},
		{
			"buffer":0,
			"byteLength":1728,
			"byteOffset":5820,
			"target":34962
		},
		{
			"buffer":0,
			"byteLength":1152,
			"byteOffset":7548,
			"target":34962
		},
		{
			"buffer":0,
			"byteLength":528,
			"byteOffset":8700,
			"target":34963
		},
		{
			"buffer":0,
			"byteLength":240,
			"byteOffset":9228,
			"target":34962
		},
		{
			"buffer":0,
			"byteLength":240,
			"byteOffset":9468,
			"target":34962
		},
		{
			"buffer":0,
			"byteLength":160,
			"byteOffset":9708,
			"target":34962
		},
		{
			"buffer":0,
			"byteLength":320,
			"byteOffset":9868,
			"target":34962
		},
		{
			"buffer":0,
			"byteLength":60,
			"byteOffset":10188,
			"target":34963
		},
		{
			"buffer":0,
			"byteLength":48,
			"byteOffset":10248,
			"target":34962
		},
		{
			"buffer":0,
			"byteLength":48,
			"byteOffset":10296,
			"target":34962
		},
		{
			"buffer":0,
			"byteLength":32,
			"byteOffset":10344,
			"target":34962
		},
		{
			"buffer":0,
			"byteLength":64,
			"byteOffset":10376,
			"target":34962
		},
		{
			"buffer":0,
			"byteLength":12,
			"byteOffset":10440,
			"target":34963
		},
		{
			"buffer":0,
			"byteLength":240,
			"byteOffset":10452,
			"target":34962
		},
		{
			"buffer":0,
			"byteLength":240,
			"byteOffset":10692,
			"target":34962
		},
		{
			"buffer":0,
			"byteLength":160,
			"byteOffset":10932,
			"target":34962
		},
		{
			"buffer":0,
			"byteLength":320,
			"byteOffset":11092,
			"target":34962
		},
		{
			"buffer":0,
			"byteLength":48,
			"byteOffset":11412,
			"target":34962
		},
		{
			"buffer":0,
			"byteLength":48,
			"byteOffset":11460,
			"target":34962
		},
		{
			"buffer":0,
			"byteLength":32,
			"byteOffset":11508,
			"target":34962
		},
		{
			"buffer":0,
			"byteLength":64,
			"byteOffset":11540,
			"target":34962
		},
		{
			"buffer":0,
			"byteLength":288,
			"byteOffset":11604,
			"target":34962
		},
		{
			"buffer":0,
			"byteLength":288,
			"byteOffset":11892,
			"target":34962
		},
		{
			"buffer":0,
			"byteLength":192,
			"byteOffset":12180,
			"target":34962
		},
		{
			"buffer":0,
			"byteLength":384,
			"byteOffset":12372,
			"target":34962
		},
		{
			"buffer":0,
			"byteLength":72,
			"byteOffset":12756,
			"target":34963
		},
		{
			"buffer":0,
			"byteLength":240,
			"byteOffset":12828,
			"target":34962
		},
		{
			"buffer":0,
			"byteLength":240,
			"byteOffset":13068,
			"target":34962
		},
		{
			"buffer":0,
			"byteLength":160,
			"byteOffset":13308,
			"target":34962
		},
		{
			"buffer":0,
			"byteLength":320,
			"byteOffset":13468,
			"target":34962
		},
		{
			"buffer":0,
			"byteLength":48,
			"byteOffset":13788,
			"target":34962
		},
		{
			"buffer":0,
			"byteLength":48,
			"byteOffset":13836,
			"target":34962
		},
		{
			"buffer":0,
			"byteLength":32,
			"byteOffset":13884,
			"target":34962
		},
		{
			"buffer":0,
			"byteLength":64,
			"byteOffset":13916,
			"target":34962
		},
		{
			"buffer":0,
			"byteLength":288,
			"byteOffset":13980,
			"target":34962
		},
		{
			"buffer":0,
			"byteLength":288,
			"byteOffset":14268,
			"target":34962
		},
		{
			"buffer":0,
			"byteLength":192,
			"byteOffset":14556,
			"target":34962
		},
		{
			"buffer":0,
			"byteLength":384,
			"byteOffset":14748,
			"target":34962
		},
		{
			"buffer":0,
			"byteLength":240,
			"byteOffset":15132,
			"target":34962
		},
		{
			"buffer":0,
			"byteLength":240,
			"byteOffset":15372,
			"target":34962
		},
		{
			"buffer":0,
			"byteLength":160,
			"byteOffset":15612,
			"target":34962
		},
		{
			"buffer":0,
			"byteLength":320,
			"byteOffset":15772,
			"target":34962
		},
		{
			"buffer":0,
			"byteLength":48,
			"byteOffset":16092,
			"target":34962
		},
		{
			"buffer":0,
			"byteLength":48,
			"byteOffset":16140,
			"target":34962
		},
		{
			"buffer":0,
			"byteLength":32,
			"byteOffset":16188,
			"target":34962
		},
		{
			"buffer":0,
			"byteLength":64,
			"byteOffset":16220,
			"target":34962
		},
		{
			"buffer":0,
			"byteLength":240,
			"byteOffset":16284,
			"target":34962
		},
		{
			"buffer":0,
			"byteLength":240,
			"byteOffset":16524,
			"target":34962
		},
		{
			"buffer":0,
			"byteLength":160,
			"byteOffset":16764,
			"target":34962
		},
		{
			"buffer":0,
			"byteLength":320,
			"byteOffset":16924,
			"target":34962
		},
		{
			"buffer":0,
			"byteLength":48,
			"byteOffset":17244,
			"target":34962
		},
		{
			"buffer":0,
			"byteLength":48,
			"byteOffset":17292,
			"target":34962
		},
		{
			"buffer":0,
			"byteLength":32,
			"byteOffset":17340,
			"target":34962
		},
		{
			"buffer":0,
			"byteLength":64,
			"byteOffset":17372,
			"target":34962
		}
	],
	"samplers":[
		{
			"magFilter":9729,
			"minFilter":9987
		}
	],
	"buffers":[
		{
			"byteLength":17436,
			"uri":"tile_1_0_2.bin"
		}
	]
}
