{
	"asset":{
		"generator":"Khronos glTF Blender I/O v4.0.44",
		"version":"2.0"
	},
	"extensionsUsed":[
		"KHR_materials_specular",
		"KHR_materials_ior"
	],
	"scene":0,
	"scenes":[
		{
			"name":"Scene",
			"nodes":[
				0,
				1,
				2,
				3,
				4
			]
		}
	],
	"nodes":[
		{
			"mesh":0,
			"name":"Plane",
			"scale":[
				7.873531341552734,
				0.9841914176940918,
				7.873531341552734
			]
		},
		{
			"mesh":1,
			"name":"track.134",
			"scale":[
				3.7706682682037354,
				3.7706682682037354,
				3.7706682682037354
			]
		},
		{
			"mesh":2,
			"name":"Cylinder.009"
		},
		{
			"mesh":3,
			"name":"Cylinder.082"
		},
		{
			"mesh":4,
			"name":"Cylinder.083"
		}
	],
	"materials":[
		{
			"doubleSided":true,
			"extensions":{
				"KHR_materials_specular":{
					"specularColorFactor":[
						2.0,
						2.0,
						2.0
					]
				},
				"KHR_materials_ior":{
					"ior":1.4500000476837158
				}
			},
			"name":"building",
			"pbrMetallicRoughness":{
				"baseColorTexture":{
					"index":0
				},
				"metallicFactor":0
			}
		}
	],
	"meshes":[
		{
			"name":"Plane.918",
			"primitives":[
				{
					"attributes":{
						"POSITION":0,
						"NORMAL":1,
						"TEXCOORD_0":2
					},
					"indices":3,
					"material":0
				}
			]
		},
		{
			"name":"Plane.919",
			"primitives":[
				{
					"attributes":{
						"POSITION":4,
						"NORMAL":5,
						"TEXCOORD_0":6
					},
					"indices":7,
					"material":0
				}
			]
		},
		{
			"name":"Cylinder.412",
			"primitives":[
				{
					"attributes":{
						"POSITION":8,
						"NORMAL":9,
						"TEXCOORD_0":10
					},
					"indices":11,
					"material":0
				}
			]
		},
		{
			"name":"Cylinder.413",
			"primitives":[
				{
					"attributes":{
						"POSITION":12,
						"NORMAL":13,
						"TEXCOORD_0":14
					},
					"indices":15,
					"material":0
				},
				{
					"attributes":{
						"POSITION":16,
						"NORMAL":17,
						"TEXCOORD_0":18
					},
					"indices":19,
					"material":0
				}
			]
		},
		{
			"name":"Cylinder.414",
			"primitives":[
				{
					"attributes":{
						"POSITION":20,
						"NORMAL":21,
						"TEXCOORD_0":22,
						"TANGENT":23
					},
					"indices":24,
					"material":0
				}
			]
		}
	],
	"textures":[
		{
			"sampler":0,
			"source":0
		}
	],
	"images":[
		{
			"mimeType":"image/png",
			"name":"AvatarWearables_TX",
			"uri":"tex/AvatarWearables_TX.png"
		}
	],
	"accessors":[
		{
			"bufferView":0,
			"componentType":5126,
			"count":79,
			"max":[
				0.5080312490463257,
				-13.675816535949707,
				0.5080307722091675
			],
			"min":[
				-0.5080312490463257,
				-16.256999969482422,
				-0.508031964302063
			],
			"type":"VEC3"
		},
		{
			"bufferView":1,
			"componentType":5126,
			"count":79,
			"type":"VEC3"
		},
		{
			"bufferView":2,
			"componentType":5126,
			"count":79,
			"type":"VEC2"
		},
		{
			"bufferView":3,
			"componentType":5123,
			"count":255,
			"type":"SCALAR"
		},
		{
			"bufferView":4,
			"componentType":5126,
			"count":93,
			"max":[
				1.0608179569244385,
				-3.273502826690674,
				1.060819387435913
			],
			"min":[
				-1.060821771621704,
				-4.243279933929443,
				-0.269451379776001
			],
			"type":"VEC3"
		},
		{
			"bufferView":5,
			"componentType":5126,
			"count":93,
			"type":"VEC3"
		},
		{
			"bufferView":6,
			"componentType":5126,
			"count":93,
			"type":"VEC2"
		},
		{
			"bufferView":7,
			"componentType":5123,
			"count":168,
			"type":"SCALAR"
		},
		{
			"bufferView":8,
			"componentType":5126,
			"count":142,
			"max":[
				-2.571990966796875,
				-6.012153625488281,
				3.4500999450683594
			],
			"min":[
				-4,
				-13.125777244567871,
				-0.6937897205352783
			],
			"type":"VEC3"
		},
		{
			"bufferView":9,
			"componentType":5126,
			"count":142,
			"type":"VEC3"
		},
		{
			"bufferView":10,
			"componentType":5126,
			"count":142,
			"type":"VEC2"
		},
		{
			"bufferView":11,
			"componentType":5123,
			"count":516,
			"type":"SCALAR"
		},
		{
			"bufferView":12,
			"componentType":5126,
			"count":46,
			"max":[
				0.27036428451538086,
				-2.141155242919922,
				4
			],
			"min":[
				-4,
				-7.1496381759643555,
				1.2930073738098145
			],
			"type":"VEC3"
		},
		{
			"bufferView":13,
			"componentType":5126,
			"count":46,
			"type":"VEC3"
		},
		{
			"bufferView":14,
			"componentType":5126,
			"count":46,
			"type":"VEC2"
		},
		{
			"bufferView":15,
			"componentType":5123,
			"count":60,
			"type":"SCALAR"
		},
		{
			"bufferView":16,
			"componentType":5126,
			"count":16,
			"max":[
				0.27036428451538086,
				-2.141155242919922,
				4
			],
			"min":[
				-4,
				-6.939062118530273,
				1.6449224948883057
			],
			"type":"VEC3"
		},
		{
			"bufferView":17,
			"componentType":5126,
			"count":16,
			"type":"VEC3"
		},
		{
			"bufferView":18,
			"componentType":5126,
			"count":16,
			"type":"VEC2"
		},
		{
			"bufferView":19,
			"componentType":5123,
			"count":36,
			"type":"SCALAR"
		},
		{
			"bufferView":20,
			"componentType":5126,
			"count":60,
			"max":[
				-1.318779468536377,
				-9.310949325561523,
				0.8577432632446289
			],
			"min":[
				-3.517573356628418,
				-11.300798416137695,
				-1.193516492843628
			],
			"type":"VEC3"
		},
		{
			"bufferView":21,
			"componentType":5126,
			"count":60,
			"type":"VEC3"
		},
		{
			"bufferView":22,
			"componentType":5126,
			"count":60,
			"type":"VEC2"
		},
		{
			"bufferView":23,
			"componentType":5126,
			"count":60,
			"type":"VEC4"
		},
		{
			"bufferView":24,
			"componentType":5123,
			"count":60,
			"type":"SCALAR"
		}
	],
	"bufferViews":[
		{
			"buffer":0,
			"byteLength":948,
			"byteOffset":0,
			"target":34962
		},
		{
			"buffer":0,
			"byteLength":948,
			"byteOffset":948,
			"target":34962
		},
		{
			"buffer":0,
			"byteLength":632,
			"byteOffset":1896,
			"target":34962
		},
		{
			"buffer":0,
			"byteLength":510,
			"byteOffset":2528,
			"target":34963
		},
		{
			"buffer":0,
			"byteLength":1116,
			"byteOffset":3040,
			"target":34962
		},
		{
			"buffer":0,
			"byteLength":1116,
			"byteOffset":4156,
			"target":34962
		},
		{
			"buffer":0,
			"byteLength":744,
			"byteOffset":5272,
			"target":34962
		},
		{
			"buffer":0,
			"byteLength":336,
			"byteOffset":6016,
			"target":34963
		},
		{
			"buffer":0,
			"byteLength":1704,
			"byteOffset":6352,
			"target":34962
		},
		{
			"buffer":0,
			"byteLength":1704,
			"byteOffset":8056,
			"target":34962
		},
		{
			"buffer":0,
			"byteLength":1136,
			"byteOffset":9760,
			"target":34962
		},
		{
			"buffer":0,
			"byteLength":1032,
			"byteOffset":10896,
			"target":34963
		},
		{
			"buffer":0,
			"byteLength":552,
			"byteOffset":11928,
			"target":34962
		},
		{
			"buffer":0,
			"byteLength":552,
			"byteOffset":12480,
			"target":34962
		},
		{
			"buffer":0,
			"byteLength":368,
			"byteOffset":13032,
			"target":34962
		},
		{
			"buffer":0,
			"byteLength":120,
			"byteOffset":13400,
			"target":34963
		},
		{
			"buffer":0,
			"byteLength":192,
			"byteOffset":13520,
			"target":34962
		},
		{
			"buffer":0,
			"byteLength":192,
			"byteOffset":13712,
			"target":34962
		},
		{
			"buffer":0,
			"byteLength":128,
			"byteOffset":13904,
			"target":34962
		},
		{
			"buffer":0,
			"byteLength":72,
			"byteOffset":14032,
			"target":34963
		},
		{
			"buffer":0,
			"byteLength":720,
			"byteOffset":14104,
			"target":34962
		},
		{
			"buffer":0,
			"byteLength":720,
			"byteOffset":14824,
			"target":34962
		},
		{
			"buffer":0,
			"byteLength":480,
			"byteOffset":15544,
			"target":34962
		},
		{
			"buffer":0,
			"byteLength":960,
			"byteOffset":16024,
			"target":34962
		},
		{
			"buffer":0,
			"byteLength":120,
			"byteOffset":16984,
			"target":34963
		}
	],
	"samplers":[
		{
			"magFilter":9729,
			"minFilter":9987
		}
	],
	"buffers":[
		{
			"byteLength":17104,
			"uri":"tile_11_0_1.bin"
		}
	]
}
