{
	"asset":{
		"generator":"Khronos glTF Blender I/O v4.0.44",
		"version":"2.0"
	},
	"extensionsUsed":[
		"KHR_materials_specular",
		"KHR_materials_ior"
	],
	"scene":0,
	"scenes":[
		{
			"name":"Scene",
			"nodes":[
				0,
				1,
				2
			]
		}
	],
	"nodes":[
		{
			"mesh":0,
			"name":"Plane",
			"scale":[
				7.873531341552734,
				0.9841914176940918,
				7.873531341552734
			]
		},
		{
			"mesh":1,
			"name":"track.121",
			"scale":[
				3.7706682682037354,
				3.7706682682037354,
				3.7706682682037354
			]
		},
		{
			"mesh":2,
			"name":"Cylinder.082"
		}
	],
	"materials":[
		{
			"doubleSided":true,
			"extensions":{
				"KHR_materials_specular":{
					"specularColorFactor":[
						2.0,
						2.0,
						2.0
					]
				},
				"KHR_materials_ior":{
					"ior":1.4500000476837158
				}
			},
			"name":"building",
			"pbrMetallicRoughness":{
				"baseColorTexture":{
					"index":0
				},
				"metallicFactor":0
			}
		}
	],
	"meshes":[
		{
			"name":"Plane.892",
			"primitives":[
				{
					"attributes":{
						"POSITION":0,
						"NORMAL":1,
						"TEXCOORD_0":2
					},
					"indices":3,
					"material":0
				},
				{
					"attributes":{
						"POSITION":4,
						"NORMAL":5,
						"TEXCOORD_0":6
					},
					"indices":7,
					"material":0
				}
			]
		},
		{
			"name":"Plane.893",
			"primitives":[
				{
					"attributes":{
						"POSITION":8,
						"NORMAL":9,
						"TEXCOORD_0":10
					},
					"indices":11,
					"material":0
				}
			]
		},
		{
			"name":"Cylinder.400",
			"primitives":[
				{
					"attributes":{
						"POSITION":12,
						"NORMAL":13,
						"TEXCOORD_0":14
					},
					"indices":15,
					"material":0
				}
			]
		}
	],
	"textures":[
		{
			"sampler":0,
			"source":0
		}
	],
	"images":[
		{
			"mimeType":"image/png",
			"name":"AvatarWearables_TX",
			"uri":"tex/AvatarWearables_TX.png"
		}
	],
	"accessors":[
		{
			"bufferView":0,
			"componentType":5126,
			"count":55,
			"max":[
				0.5080312490463257,
				-14.567778587341309,
				0.4100637435913086
			],
			"min":[
				-0.5080313682556152,
				-14.900496482849121,
				-0.5080318450927734
			],
			"type":"VEC3"
		},
		{
			"bufferView":1,
			"componentType":5126,
			"count":55,
			"type":"VEC3"
		},
		{
			"bufferView":2,
			"componentType":5126,
			"count":55,
			"type":"VEC2"
		},
		{
			"bufferView":3,
			"componentType":5123,
			"count":183,
			"type":"SCALAR"
		},
		{
			"bufferView":4,
			"componentType":5126,
			"count":8,
			"max":[
				0.5080312490463257,
				-14.567778587341309,
				0.4100637435913086
			],
			"min":[
				-0.5080313682556152,
				-14.900496482849121,
				0.1600637435913086
			],
			"type":"VEC3"
		},
		{
			"bufferView":5,
			"componentType":5126,
			"count":8,
			"type":"VEC3"
		},
		{
			"bufferView":6,
			"componentType":5126,
			"count":8,
			"type":"VEC2"
		},
		{
			"bufferView":7,
			"componentType":5123,
			"count":12,
			"type":"SCALAR"
		},
		{
			"bufferView":8,
			"componentType":5126,
			"count":61,
			"max":[
				1.0608198642730713,
				-3.543139934539795,
				0.6849527359008789
			],
			"min":[
				-1.0608196258544922,
				-4.243279933929443,
				-1.0608196258544922
			],
			"type":"VEC3"
		},
		{
			"bufferView":9,
			"componentType":5126,
			"count":61,
			"type":"VEC3"
		},
		{
			"bufferView":10,
			"componentType":5126,
			"count":61,
			"type":"VEC2"
		},
		{
			"bufferView":11,
			"componentType":5123,
			"count":105,
			"type":"SCALAR"
		},
		{
			"bufferView":12,
			"componentType":5126,
			"count":32,
			"max":[
				4,
				-2.399930000305176,
				-1.7401623725891113
			],
			"min":[
				2.6648828983306885,
				-6.392855644226074,
				-4
			],
			"type":"VEC3"
		},
		{
			"bufferView":13,
			"componentType":5126,
			"count":32,
			"type":"VEC3"
		},
		{
			"bufferView":14,
			"componentType":5126,
			"count":32,
			"type":"VEC2"
		},
		{
			"bufferView":15,
			"componentType":5123,
			"count":48,
			"type":"SCALAR"
		}
	],
	"bufferViews":[
		{
			"buffer":0,
			"byteLength":660,
			"byteOffset":0,
			"target":34962
		},
		{
			"buffer":0,
			"byteLength":660,
			"byteOffset":660,
			"target":34962
		},
		{
			"buffer":0,
			"byteLength":440,
			"byteOffset":1320,
			"target":34962
		},
		{
			"buffer":0,
			"byteLength":366,
			"byteOffset":1760,
			"target":34963
		},
		{
			"buffer":0,
			"byteLength":96,
			"byteOffset":2128,
			"target":34962
		},
		{
			"buffer":0,
			"byteLength":96,
			"byteOffset":2224,
			"target":34962
		},
		{
			"buffer":0,
			"byteLength":64,
			"byteOffset":2320,
			"target":34962
		},
		{
			"buffer":0,
			"byteLength":24,
			"byteOffset":2384,
			"target":34963
		},
		{
			"buffer":0,
			"byteLength":732,
			"byteOffset":2408,
			"target":34962
		},
		{
			"buffer":0,
			"byteLength":732,
			"byteOffset":3140,
			"target":34962
		},
		{
			"buffer":0,
			"byteLength":488,
			"byteOffset":3872,
			"target":34962
		},
		{
			"buffer":0,
			"byteLength":210,
			"byteOffset":4360,
			"target":34963
		},
		{
			"buffer":0,
			"byteLength":384,
			"byteOffset":4572,
			"target":34962
		},
		{
			"buffer":0,
			"byteLength":384,
			"byteOffset":4956,
			"target":34962
		},
		{
			"buffer":0,
			"byteLength":256,
			"byteOffset":5340,
			"target":34962
		},
		{
			"buffer":0,
			"byteLength":96,
			"byteOffset":5596,
			"target":34963
		}
	],
	"samplers":[
		{
			"magFilter":9729,
			"minFilter":9987
		}
	],
	"buffers":[
		{
			"byteLength":5692,
			"uri":"tile_10_0_0.bin"
		}
	]
}
