{
	"asset":{
		"generator":"Khronos glTF Blender I/O v4.0.44",
		"version":"2.0"
	},
	"extensionsUsed":[
		"KHR_materials_specular",
		"KHR_materials_ior"
	],
	"scene":0,
	"scenes":[
		{
			"name":"Scene",
			"nodes":[
				0,
				1,
				2,
				3,
				4,
				5
			]
		}
	],
	"nodes":[
		{
			"mesh":0,
			"name":"Plane",
			"scale":[
				7.873531341552734,
				0.9841914176940918,
				7.873531341552734
			]
		},
		{
			"mesh":1,
			"name":"track.037",
			"scale":[
				3.7706682682037354,
				3.7706682682037354,
				3.7706682682037354
			]
		},
		{
			"mesh":2,
			"name":"Cylinder"
		},
		{
			"mesh":3,
			"name":"Cylinder.076"
		},
		{
			"mesh":4,
			"name":"Cylinder.077"
		},
		{
			"mesh":5,
			"name":"Cylinder.078"
		}
	],
	"materials":[
		{
			"doubleSided":true,
			"extensions":{
				"KHR_materials_specular":{
					"specularColorFactor":[
						2.0,
						2.0,
						2.0
					]
				},
				"KHR_materials_ior":{
					"ior":1.4500000476837158
				}
			},
			"name":"building",
			"pbrMetallicRoughness":{
				"baseColorTexture":{
					"index":0
				},
				"metallicFactor":0
			}
		}
	],
	"meshes":[
		{
			"name":"Plane.726",
			"primitives":[
				{
					"attributes":{
						"POSITION":0,
						"NORMAL":1,
						"TEXCOORD_0":2,
						"TANGENT":3
					},
					"indices":4,
					"material":0
				}
			]
		},
		{
			"name":"Plane.727",
			"primitives":[
				{
					"attributes":{
						"POSITION":5,
						"NORMAL":6,
						"TEXCOORD_0":7
					},
					"indices":8,
					"material":0
				}
			]
		},
		{
			"name":"Cylinder.355",
			"primitives":[
				{
					"attributes":{
						"POSITION":9,
						"NORMAL":10,
						"TEXCOORD_0":11
					},
					"indices":12,
					"material":0
				}
			]
		},
		{
			"name":"Cylinder.356",
			"primitives":[
				{
					"attributes":{
						"POSITION":13,
						"NORMAL":14,
						"TEXCOORD_0":15,
						"TANGENT":16
					},
					"indices":17,
					"material":0
				}
			]
		},
		{
			"name":"Cylinder.357",
			"primitives":[
				{
					"attributes":{
						"POSITION":18,
						"NORMAL":19,
						"TEXCOORD_0":20,
						"TANGENT":21
					},
					"indices":17,
					"material":0
				}
			]
		},
		{
			"name":"Cylinder.358",
			"primitives":[
				{
					"attributes":{
						"POSITION":22,
						"NORMAL":23,
						"TEXCOORD_0":24,
						"TANGENT":25
					},
					"indices":17,
					"material":0
				}
			]
		}
	],
	"textures":[
		{
			"sampler":0,
			"source":0
		}
	],
	"images":[
		{
			"mimeType":"image/png",
			"name":"AvatarWearables_TX",
			"uri":"tex/AvatarWearables_TX.png"
		}
	],
	"accessors":[
		{
			"bufferView":0,
			"componentType":5126,
			"count":36,
			"max":[
				0.5080301761627197,
				-14.900496482849121,
				0.5080307722091675
			],
			"min":[
				-0.5080316066741943,
				-14.900496482849121,
				-0.508031964302063
			],
			"type":"VEC3"
		},
		{
			"bufferView":1,
			"componentType":5126,
			"count":36,
			"type":"VEC3"
		},
		{
			"bufferView":2,
			"componentType":5126,
			"count":36,
			"type":"VEC2"
		},
		{
			"bufferView":3,
			"componentType":5126,
			"count":36,
			"type":"VEC4"
		},
		{
			"bufferView":4,
			"componentType":5123,
			"count":150,
			"type":"SCALAR"
		},
		{
			"bufferView":5,
			"componentType":5126,
			"count":59,
			"max":[
				1.0608196258544922,
				-3.5457241535186768,
				0.7388341426849365
			],
			"min":[
				-1.0608196258544922,
				-4.243279933929443,
				-1.0608198642730713
			],
			"type":"VEC3"
		},
		{
			"bufferView":6,
			"componentType":5126,
			"count":59,
			"type":"VEC3"
		},
		{
			"bufferView":7,
			"componentType":5126,
			"count":59,
			"type":"VEC2"
		},
		{
			"bufferView":8,
			"componentType":5123,
			"count":99,
			"type":"SCALAR"
		},
		{
			"bufferView":9,
			"componentType":5126,
			"count":141,
			"max":[
				-1.6432379484176636,
				-8.534088134765625,
				2.4755144119262695
			],
			"min":[
				-3.174192428588867,
				-14.585758209228516,
				0.8568844199180603
			],
			"type":"VEC3"
		},
		{
			"bufferView":10,
			"componentType":5126,
			"count":141,
			"type":"VEC3"
		},
		{
			"bufferView":11,
			"componentType":5126,
			"count":141,
			"type":"VEC2"
		},
		{
			"bufferView":12,
			"componentType":5123,
			"count":564,
			"type":"SCALAR"
		},
		{
			"bufferView":13,
			"componentType":5126,
			"count":60,
			"max":[
				-0.7233604192733765,
				-5.720965385437012,
				2.8853821754455566
			],
			"min":[
				-3.8392882347106934,
				-9.204690933227539,
				-0.07928919792175293
			],
			"type":"VEC3"
		},
		{
			"bufferView":14,
			"componentType":5126,
			"count":60,
			"type":"VEC3"
		},
		{
			"bufferView":15,
			"componentType":5126,
			"count":60,
			"type":"VEC2"
		},
		{
			"bufferView":16,
			"componentType":5126,
			"count":60,
			"type":"VEC4"
		},
		{
			"bufferView":17,
			"componentType":5123,
			"count":60,
			"type":"SCALAR"
		},
		{
			"bufferView":18,
			"componentType":5126,
			"count":60,
			"max":[
				-2.783223867416382,
				-10.767715454101562,
				2.7179741859436035
			],
			"min":[
				-3.972843647003174,
				-12.097755432128906,
				1.5861024856567383
			],
			"type":"VEC3"
		},
		{
			"bufferView":19,
			"componentType":5126,
			"count":60,
			"type":"VEC3"
		},
		{
			"bufferView":20,
			"componentType":5126,
			"count":60,
			"type":"VEC2"
		},
		{
			"bufferView":21,
			"componentType":5126,
			"count":60,
			"type":"VEC4"
		},
		{
			"bufferView":22,
			"componentType":5126,
			"count":60,
			"max":[
				-1.4101582765579224,
				-12.416844367980957,
				2.0369436740875244
			],
			"min":[
				-2.0462071895599365,
				-13.127970695495605,
				1.4317705631256104
			],
			"type":"VEC3"
		},
		{
			"bufferView":23,
			"componentType":5126,
			"count":60,
			"type":"VEC3"
		},
		{
			"bufferView":24,
			"componentType":5126,
			"count":60,
			"type":"VEC2"
		},
		{
			"bufferView":25,
			"componentType":5126,
			"count":60,
			"type":"VEC4"
		}
	],
	"bufferViews":[
		{
			"buffer":0,
			"byteLength":432,
			"byteOffset":0,
			"target":34962
		},
		{
			"buffer":0,
			"byteLength":432,
			"byteOffset":432,
			"target":34962
		},
		{
			"buffer":0,
			"byteLength":288,
			"byteOffset":864,
			"target":34962
		},
		{
			"buffer":0,
			"byteLength":576,
			"byteOffset":1152,
			"target":34962
		},
		{
			"buffer":0,
			"byteLength":300,
			"byteOffset":1728,
			"target":34963
		},
		{
			"buffer":0,
			"byteLength":708,
			"byteOffset":2028,
			"target":34962
		},
		{
			"buffer":0,
			"byteLength":708,
			"byteOffset":2736,
			"target":34962
		},
		{
			"buffer":0,
			"byteLength":472,
			"byteOffset":3444,
			"target":34962
		},
		{
			"buffer":0,
			"byteLength":198,
			"byteOffset":3916,
			"target":34963
		},
		{
			"buffer":0,
			"byteLength":1692,
			"byteOffset":4116,
			"target":34962
		},
		{
			"buffer":0,
			"byteLength":1692,
			"byteOffset":5808,
			"target":34962
		},
		{
			"buffer":0,
			"byteLength":1128,
			"byteOffset":7500,
			"target":34962
		},
		{
			"buffer":0,
			"byteLength":1128,
			"byteOffset":8628,
			"target":34963
		},
		{
			"buffer":0,
			"byteLength":720,
			"byteOffset":9756,
			"target":34962
		},
		{
			"buffer":0,
			"byteLength":720,
			"byteOffset":10476,
			"target":34962
		},
		{
			"buffer":0,
			"byteLength":480,
			"byteOffset":11196,
			"target":34962
		},
		{
			"buffer":0,
			"byteLength":960,
			"byteOffset":11676,
			"target":34962
		},
		{
			"buffer":0,
			"byteLength":120,
			"byteOffset":12636,
			"target":34963
		},
		{
			"buffer":0,
			"byteLength":720,
			"byteOffset":12756,
			"target":34962
		},
		{
			"buffer":0,
			"byteLength":720,
			"byteOffset":13476,
			"target":34962
		},
		{
			"buffer":0,
			"byteLength":480,
			"byteOffset":14196,
			"target":34962
		},
		{
			"buffer":0,
			"byteLength":960,
			"byteOffset":14676,
			"target":34962
		},
		{
			"buffer":0,
			"byteLength":720,
			"byteOffset":15636,
			"target":34962
		},
		{
			"buffer":0,
			"byteLength":720,
			"byteOffset":16356,
			"target":34962
		},
		{
			"buffer":0,
			"byteLength":480,
			"byteOffset":17076,
			"target":34962
		},
		{
			"buffer":0,
			"byteLength":960,
			"byteOffset":17556,
			"target":34962
		}
	],
	"samplers":[
		{
			"magFilter":9729,
			"minFilter":9987
		}
	],
	"buffers":[
		{
			"byteLength":18516,
			"uri":"tile_3_0_1.bin"
		}
	]
}
