{
	"asset":{
		"generator":"Khronos glTF Blender I/O v4.0.44",
		"version":"2.0"
	},
	"extensionsUsed":[
		"KHR_materials_specular",
		"KHR_materials_ior",
		"KHR_materials_emissive_strength"
	],
	"scene":0,
	"scenes":[
		{
			"name":"Scene",
			"nodes":[
				0,
				1,
				2
			]
		}
	],
	"nodes":[
		{
			"mesh":0,
			"name":"Plane",
			"scale":[
				7.873531341552734,
				0.9841914176940918,
				7.873531341552734
			]
		},
		{
			"mesh":1,
			"name":"track.054",
			"scale":[
				3.7706682682037354,
				3.7706682682037354,
				3.7706682682037354
			]
		},
		{
			"mesh":2,
			"name":"Torus.007",
			"rotation":[
				0.7071069478988647,
				0,
				0,
				0.7071066498756409
			],
			"scale":[
				0.9492737650871277,
				0.949273943901062,
				0.949273943901062
			]
		}
	],
	"materials":[
		{
			"doubleSided":true,
			"extensions":{
				"KHR_materials_specular":{
					"specularColorFactor":[
						2.0,
						2.0,
						2.0
					]
				},
				"KHR_materials_ior":{
					"ior":1.4500000476837158
				}
			},
			"name":"building",
			"pbrMetallicRoughness":{
				"baseColorTexture":{
					"index":0
				},
				"metallicFactor":0
			}
		},
		{
			"doubleSided":true,
			"emissiveFactor":[
				1,
				0.003797386313042906,
				0
			],
			"extensions":{
				"KHR_materials_emissive_strength":{
					"emissiveStrength":7.991064786911011
				}
			},
			"name":"Glow9",
			"pbrMetallicRoughness":{
				"baseColorFactor":[
					0.8000000715255737,
					0.0031031807884573936,
					0,
					1
				],
				"metallicFactor":0
			}
		},
		{
			"doubleSided":true,
			"emissiveFactor":[
				1,
				1,
				1
			],
			"extensions":{
				"KHR_materials_emissive_strength":{
					"emissiveStrength":4
				}
			},
			"name":"Glow2",
			"pbrMetallicRoughness":{
				"baseColorFactor":[
					0.800000011920929,
					0.800000011920929,
					0.800000011920929,
					1
				],
				"metallicFactor":0,
				"roughnessFactor":0.5
			}
		}
	],
	"meshes":[
		{
			"name":"Plane.760",
			"primitives":[
				{
					"attributes":{
						"POSITION":0,
						"NORMAL":1,
						"TEXCOORD_0":2
					},
					"indices":3,
					"material":0
				}
			]
		},
		{
			"name":"Plane.761",
			"primitives":[
				{
					"attributes":{
						"POSITION":4,
						"NORMAL":5,
						"TEXCOORD_0":6
					},
					"indices":7,
					"material":0
				}
			]
		},
		{
			"name":"Torus.064",
			"primitives":[
				{
					"attributes":{
						"POSITION":8,
						"NORMAL":9,
						"TEXCOORD_0":10
					},
					"indices":11,
					"material":0
				},
				{
					"attributes":{
						"POSITION":12,
						"NORMAL":13,
						"TEXCOORD_0":14
					},
					"indices":15,
					"material":1
				},
				{
					"attributes":{
						"POSITION":16,
						"NORMAL":17,
						"TEXCOORD_0":18
					},
					"indices":19,
					"material":2
				}
			]
		}
	],
	"textures":[
		{
			"sampler":0,
			"source":0
		}
	],
	"images":[
		{
			"mimeType":"image/png",
			"name":"AvatarWearables_TX",
			"uri":"tex/AvatarWearables_TX.png"
		}
	],
	"accessors":[
		{
			"bufferView":0,
			"componentType":5126,
			"count":82,
			"max":[
				0.5080313682556152,
				-11.722713470458984,
				0.5080312490463257
			],
			"min":[
				-0.5080313682556152,
				-16.256999969482422,
				-0.5080312490463257
			],
			"type":"VEC3"
		},
		{
			"bufferView":1,
			"componentType":5126,
			"count":82,
			"type":"VEC3"
		},
		{
			"bufferView":2,
			"componentType":5126,
			"count":82,
			"type":"VEC2"
		},
		{
			"bufferView":3,
			"componentType":5123,
			"count":276,
			"type":"SCALAR"
		},
		{
			"bufferView":4,
			"componentType":5126,
			"count":69,
			"max":[
				1.0608186721801758,
				-3.4051437377929688,
				1.0608208179473877
			],
			"min":[
				-1.0608205795288086,
				-4.243279933929443,
				0.21981948614120483
			],
			"type":"VEC3"
		},
		{
			"bufferView":5,
			"componentType":5126,
			"count":69,
			"type":"VEC3"
		},
		{
			"bufferView":6,
			"componentType":5126,
			"count":69,
			"type":"VEC2"
		},
		{
			"bufferView":7,
			"componentType":5123,
			"count":126,
			"type":"SCALAR"
		},
		{
			"bufferView":8,
			"componentType":5126,
			"count":500,
			"max":[
				4.213747501373291,
				0.7815790176391602,
				15.162393569946289
			],
			"min":[
				2.8836889266967773,
				-3.349419355392456,
				8.532023429870605
			],
			"type":"VEC3"
		},
		{
			"bufferView":9,
			"componentType":5126,
			"count":500,
			"type":"VEC3"
		},
		{
			"bufferView":10,
			"componentType":5126,
			"count":500,
			"type":"VEC2"
		},
		{
			"bufferView":11,
			"componentType":5123,
			"count":1761,
			"type":"SCALAR"
		},
		{
			"bufferView":12,
			"componentType":5126,
			"count":22,
			"max":[
				4.213747501373291,
				0.11687803268432617,
				14.477141380310059
			],
			"min":[
				2.887373924255371,
				-2.8600428104400635,
				9.609780311584473
			],
			"type":"VEC3"
		},
		{
			"bufferView":13,
			"componentType":5126,
			"count":22,
			"type":"VEC3"
		},
		{
			"bufferView":14,
			"componentType":5126,
			"count":22,
			"type":"VEC2"
		},
		{
			"bufferView":15,
			"componentType":5123,
			"count":54,
			"type":"SCALAR"
		},
		{
			"bufferView":16,
			"componentType":5126,
			"count":27,
			"max":[
				4.213747501373291,
				0.7815790176391602,
				15.162393569946289
			],
			"min":[
				3.6910085678100586,
				-3.298856258392334,
				8.541950225830078
			],
			"type":"VEC3"
		},
		{
			"bufferView":17,
			"componentType":5126,
			"count":27,
			"type":"VEC3"
		},
		{
			"bufferView":18,
			"componentType":5126,
			"count":27,
			"type":"VEC2"
		},
		{
			"bufferView":19,
			"componentType":5123,
			"count":69,
			"type":"SCALAR"
		}
	],
	"bufferViews":[
		{
			"buffer":0,
			"byteLength":984,
			"byteOffset":0,
			"target":34962
		},
		{
			"buffer":0,
			"byteLength":984,
			"byteOffset":984,
			"target":34962
		},
		{
			"buffer":0,
			"byteLength":656,
			"byteOffset":1968,
			"target":34962
		},
		{
			"buffer":0,
			"byteLength":552,
			"byteOffset":2624,
			"target":34963
		},
		{
			"buffer":0,
			"byteLength":828,
			"byteOffset":3176,
			"target":34962
		},
		{
			"buffer":0,
			"byteLength":828,
			"byteOffset":4004,
			"target":34962
		},
		{
			"buffer":0,
			"byteLength":552,
			"byteOffset":4832,
			"target":34962
		},
		{
			"buffer":0,
			"byteLength":252,
			"byteOffset":5384,
			"target":34963
		},
		{
			"buffer":0,
			"byteLength":6000,
			"byteOffset":5636,
			"target":34962
		},
		{
			"buffer":0,
			"byteLength":6000,
			"byteOffset":11636,
			"target":34962
		},
		{
			"buffer":0,
			"byteLength":4000,
			"byteOffset":17636,
			"target":34962
		},
		{
			"buffer":0,
			"byteLength":3522,
			"byteOffset":21636,
			"target":34963
		},
		{
			"buffer":0,
			"byteLength":264,
			"byteOffset":25160,
			"target":34962
		},
		{
			"buffer":0,
			"byteLength":264,
			"byteOffset":25424,
			"target":34962
		},
		{
			"buffer":0,
			"byteLength":176,
			"byteOffset":25688,
			"target":34962
		},
		{
			"buffer":0,
			"byteLength":108,
			"byteOffset":25864,
			"target":34963
		},
		{
			"buffer":0,
			"byteLength":324,
			"byteOffset":25972,
			"target":34962
		},
		{
			"buffer":0,
			"byteLength":324,
			"byteOffset":26296,
			"target":34962
		},
		{
			"buffer":0,
			"byteLength":216,
			"byteOffset":26620,
			"target":34962
		},
		{
			"buffer":0,
			"byteLength":138,
			"byteOffset":26836,
			"target":34963
		}
	],
	"samplers":[
		{
			"magFilter":9729,
			"minFilter":9987
		}
	],
	"buffers":[
		{
			"byteLength":26976,
			"uri":"tile_4_0_6.bin"
		}
	]
}
