{
	"asset":{
		"generator":"Khronos glTF Blender I/O v4.0.44",
		"version":"2.0"
	},
	"extensionsUsed":[
		"KHR_materials_specular",
		"KHR_materials_ior"
	],
	"scene":0,
	"scenes":[
		{
			"name":"Scene",
			"nodes":[
				0,
				1,
				2,
				3,
				4,
				5
			]
		}
	],
	"nodes":[
		{
			"mesh":0,
			"name":"Plane",
			"scale":[
				7.873531341552734,
				0.9841914176940918,
				7.873531341552734
			]
		},
		{
			"mesh":1,
			"name":"track.192",
			"scale":[
				3.7706682682037354,
				3.7706682682037354,
				3.7706682682037354
			]
		},
		{
			"mesh":2,
			"name":"Cylinder.017"
		},
		{
			"mesh":3,
			"name":"Cylinder.103"
		},
		{
			"mesh":4,
			"name":"Cylinder.104"
		},
		{
			"mesh":5,
			"name":"Cylinder.105"
		}
	],
	"materials":[
		{
			"doubleSided":true,
			"extensions":{
				"KHR_materials_specular":{
					"specularColorFactor":[
						2.0,
						2.0,
						2.0
					]
				},
				"KHR_materials_ior":{
					"ior":1.4500000476837158
				}
			},
			"name":"building",
			"pbrMetallicRoughness":{
				"baseColorTexture":{
					"index":0
				},
				"metallicFactor":0
			}
		}
	],
	"meshes":[
		{
			"name":"Plane.1034",
			"primitives":[
				{
					"attributes":{
						"POSITION":0,
						"NORMAL":1,
						"TEXCOORD_0":2,
						"TANGENT":3
					},
					"indices":4,
					"material":0
				}
			]
		},
		{
			"name":"Plane.1035",
			"primitives":[
				{
					"attributes":{
						"POSITION":5,
						"NORMAL":6,
						"TEXCOORD_0":7
					},
					"indices":8,
					"material":0
				},
				{
					"attributes":{
						"POSITION":9,
						"NORMAL":10,
						"TEXCOORD_0":11
					},
					"indices":12,
					"material":0
				}
			]
		},
		{
			"name":"Cylinder.437",
			"primitives":[
				{
					"attributes":{
						"POSITION":13,
						"NORMAL":14,
						"TEXCOORD_0":15
					},
					"indices":16,
					"material":0
				}
			]
		},
		{
			"name":"Cylinder.438",
			"primitives":[
				{
					"attributes":{
						"POSITION":17,
						"NORMAL":18,
						"TEXCOORD_0":19,
						"TANGENT":20
					},
					"indices":21,
					"material":0
				}
			]
		},
		{
			"name":"Cylinder.439",
			"primitives":[
				{
					"attributes":{
						"POSITION":22,
						"NORMAL":23,
						"TEXCOORD_0":24,
						"TANGENT":25
					},
					"indices":21,
					"material":0
				}
			]
		},
		{
			"name":"Cylinder.440",
			"primitives":[
				{
					"attributes":{
						"POSITION":26,
						"NORMAL":27,
						"TEXCOORD_0":28,
						"TANGENT":29
					},
					"indices":21,
					"material":0
				}
			]
		}
	],
	"textures":[
		{
			"sampler":0,
			"source":0
		}
	],
	"images":[
		{
			"mimeType":"image/png",
			"name":"AvatarWearables_TX",
			"uri":"tex/AvatarWearables_TX.png"
		}
	],
	"accessors":[
		{
			"bufferView":0,
			"componentType":5126,
			"count":62,
			"max":[
				0.5080313682556152,
				-14.567778587341309,
				0.5080313682556152
			],
			"min":[
				-0.5080313682556152,
				-14.900496482849121,
				-0.41324806213378906
			],
			"type":"VEC3"
		},
		{
			"bufferView":1,
			"componentType":5126,
			"count":62,
			"type":"VEC3"
		},
		{
			"bufferView":2,
			"componentType":5126,
			"count":62,
			"type":"VEC2"
		},
		{
			"bufferView":3,
			"componentType":5126,
			"count":62,
			"type":"VEC4"
		},
		{
			"bufferView":4,
			"componentType":5123,
			"count":192,
			"type":"SCALAR"
		},
		{
			"bufferView":5,
			"componentType":5126,
			"count":40,
			"max":[
				1.0608196258544922,
				-3.5459375381469727,
				1.0608196258544922
			],
			"min":[
				-0.8669705390930176,
				-4.107336521148682,
				0.6030559539794922
			],
			"type":"VEC3"
		},
		{
			"bufferView":6,
			"componentType":5126,
			"count":40,
			"type":"VEC3"
		},
		{
			"bufferView":7,
			"componentType":5126,
			"count":40,
			"type":"VEC2"
		},
		{
			"bufferView":8,
			"componentType":5123,
			"count":60,
			"type":"SCALAR"
		},
		{
			"bufferView":9,
			"componentType":5126,
			"count":16,
			"max":[
				1.0608196258544922,
				-3.5459375381469727,
				1.0608196258544922
			],
			"min":[
				-0.8669705390930176,
				-4.243279933929443,
				0.6030559539794922
			],
			"type":"VEC3"
		},
		{
			"bufferView":10,
			"componentType":5126,
			"count":16,
			"type":"VEC3"
		},
		{
			"bufferView":11,
			"componentType":5126,
			"count":16,
			"type":"VEC2"
		},
		{
			"bufferView":12,
			"componentType":5123,
			"count":36,
			"type":"SCALAR"
		},
		{
			"bufferView":13,
			"componentType":5126,
			"count":141,
			"max":[
				-0.19686150550842285,
				-9.022289276123047,
				2.3476552963256836
			],
			"min":[
				-1.817309856414795,
				-14.592063903808594,
				1.1519898176193237
			],
			"type":"VEC3"
		},
		{
			"bufferView":14,
			"componentType":5126,
			"count":141,
			"type":"VEC3"
		},
		{
			"bufferView":15,
			"componentType":5126,
			"count":141,
			"type":"VEC2"
		},
		{
			"bufferView":16,
			"componentType":5123,
			"count":564,
			"type":"SCALAR"
		},
		{
			"bufferView":17,
			"componentType":5126,
			"count":60,
			"max":[
				0.16829943656921387,
				-6.433175086975098,
				3.305375576019287
			],
			"min":[
				-2.6479930877685547,
				-9.639490127563477,
				0.4597569704055786
			],
			"type":"VEC3"
		},
		{
			"bufferView":18,
			"componentType":5126,
			"count":60,
			"type":"VEC3"
		},
		{
			"bufferView":19,
			"componentType":5126,
			"count":60,
			"type":"VEC2"
		},
		{
			"bufferView":20,
			"componentType":5126,
			"count":60,
			"type":"VEC4"
		},
		{
			"bufferView":21,
			"componentType":5123,
			"count":60,
			"type":"SCALAR"
		},
		{
			"bufferView":22,
			"componentType":5126,
			"count":60,
			"max":[
				0.504077672958374,
				-11.078052520751953,
				2.228656530380249
			],
			"min":[
				-0.5711449980735779,
				-12.302181243896484,
				1.1422375440597534
			],
			"type":"VEC3"
		},
		{
			"bufferView":23,
			"componentType":5126,
			"count":60,
			"type":"VEC3"
		},
		{
			"bufferView":24,
			"componentType":5126,
			"count":60,
			"type":"VEC2"
		},
		{
			"bufferView":25,
			"componentType":5126,
			"count":60,
			"type":"VEC4"
		},
		{
			"bufferView":26,
			"componentType":5126,
			"count":60,
			"max":[
				-1.284500002861023,
				-12.595860481262207,
				1.6811975240707397
			],
			"min":[
				-1.8593847751617432,
				-13.250359535217285,
				1.100326418876648
			],
			"type":"VEC3"
		},
		{
			"bufferView":27,
			"componentType":5126,
			"count":60,
			"type":"VEC3"
		},
		{
			"bufferView":28,
			"componentType":5126,
			"count":60,
			"type":"VEC2"
		},
		{
			"bufferView":29,
			"componentType":5126,
			"count":60,
			"type":"VEC4"
		}
	],
	"bufferViews":[
		{
			"buffer":0,
			"byteLength":744,
			"byteOffset":0,
			"target":34962
		},
		{
			"buffer":0,
			"byteLength":744,
			"byteOffset":744,
			"target":34962
		},
		{
			"buffer":0,
			"byteLength":496,
			"byteOffset":1488,
			"target":34962
		},
		{
			"buffer":0,
			"byteLength":992,
			"byteOffset":1984,
			"target":34962
		},
		{
			"buffer":0,
			"byteLength":384,
			"byteOffset":2976,
			"target":34963
		},
		{
			"buffer":0,
			"byteLength":480,
			"byteOffset":3360,
			"target":34962
		},
		{
			"buffer":0,
			"byteLength":480,
			"byteOffset":3840,
			"target":34962
		},
		{
			"buffer":0,
			"byteLength":320,
			"byteOffset":4320,
			"target":34962
		},
		{
			"buffer":0,
			"byteLength":120,
			"byteOffset":4640,
			"target":34963
		},
		{
			"buffer":0,
			"byteLength":192,
			"byteOffset":4760,
			"target":34962
		},
		{
			"buffer":0,
			"byteLength":192,
			"byteOffset":4952,
			"target":34962
		},
		{
			"buffer":0,
			"byteLength":128,
			"byteOffset":5144,
			"target":34962
		},
		{
			"buffer":0,
			"byteLength":72,
			"byteOffset":5272,
			"target":34963
		},
		{
			"buffer":0,
			"byteLength":1692,
			"byteOffset":5344,
			"target":34962
		},
		{
			"buffer":0,
			"byteLength":1692,
			"byteOffset":7036,
			"target":34962
		},
		{
			"buffer":0,
			"byteLength":1128,
			"byteOffset":8728,
			"target":34962
		},
		{
			"buffer":0,
			"byteLength":1128,
			"byteOffset":9856,
			"target":34963
		},
		{
			"buffer":0,
			"byteLength":720,
			"byteOffset":10984,
			"target":34962
		},
		{
			"buffer":0,
			"byteLength":720,
			"byteOffset":11704,
			"target":34962
		},
		{
			"buffer":0,
			"byteLength":480,
			"byteOffset":12424,
			"target":34962
		},
		{
			"buffer":0,
			"byteLength":960,
			"byteOffset":12904,
			"target":34962
		},
		{
			"buffer":0,
			"byteLength":120,
			"byteOffset":13864,
			"target":34963
		},
		{
			"buffer":0,
			"byteLength":720,
			"byteOffset":13984,
			"target":34962
		},
		{
			"buffer":0,
			"byteLength":720,
			"byteOffset":14704,
			"target":34962
		},
		{
			"buffer":0,
			"byteLength":480,
			"byteOffset":15424,
			"target":34962
		},
		{
			"buffer":0,
			"byteLength":960,
			"byteOffset":15904,
			"target":34962
		},
		{
			"buffer":0,
			"byteLength":720,
			"byteOffset":16864,
			"target":34962
		},
		{
			"buffer":0,
			"byteLength":720,
			"byteOffset":17584,
			"target":34962
		},
		{
			"buffer":0,
			"byteLength":480,
			"byteOffset":18304,
			"target":34962
		},
		{
			"buffer":0,
			"byteLength":960,
			"byteOffset":18784,
			"target":34962
		}
	],
	"samplers":[
		{
			"magFilter":9729,
			"minFilter":9987
		}
	],
	"buffers":[
		{
			"byteLength":19744,
			"uri":"tile_15_0_11.bin"
		}
	]
}
