{
	"asset":{
		"generator":"Khronos glTF Blender I/O v4.0.44",
		"version":"2.0"
	},
	"extensionsUsed":[
		"KHR_materials_specular",
		"KHR_materials_ior",
		"KHR_materials_emissive_strength"
	],
	"scene":0,
	"scenes":[
		{
			"name":"Scene",
			"nodes":[
				0,
				1,
				2
			]
		}
	],
	"nodes":[
		{
			"mesh":0,
			"name":"Plane",
			"scale":[
				7.873531341552734,
				0.9841914176940918,
				7.873531341552734
			]
		},
		{
			"name":"track.245",
			"scale":[
				3.7706682682037354,
				3.7706682682037354,
				3.7706682682037354
			]
		},
		{
			"mesh":1,
			"name":"Cube.005",
			"rotation":[
				0,
				-0.060938477516174316,
				0,
				0.9981415271759033
			],
			"scale":[
				1.9919285774230957,
				1.9919284582138062,
				1.9919285774230957
			]
		}
	],
	"materials":[
		{
			"doubleSided":true,
			"extensions":{
				"KHR_materials_specular":{
					"specularColorFactor":[
						2.0,
						2.0,
						2.0
					]
				},
				"KHR_materials_ior":{
					"ior":1.4500000476837158
				}
			},
			"name":"building",
			"pbrMetallicRoughness":{
				"baseColorTexture":{
					"index":0
				},
				"metallicFactor":0
			}
		},
		{
			"doubleSided":true,
			"emissiveFactor":[
				1,
				1,
				1
			],
			"extensions":{
				"KHR_materials_emissive_strength":{
					"emissiveStrength":4
				}
			},
			"name":"Glow2",
			"pbrMetallicRoughness":{
				"baseColorFactor":[
					0.800000011920929,
					0.800000011920929,
					0.800000011920929,
					1
				],
				"metallicFactor":0,
				"roughnessFactor":0.5
			}
		}
	],
	"meshes":[
		{
			"name":"Plane.1140",
			"primitives":[
				{
					"attributes":{
						"POSITION":0,
						"NORMAL":1,
						"TEXCOORD_0":2
					},
					"indices":3,
					"material":0
				}
			]
		},
		{
			"name":"Cube.686",
			"primitives":[
				{
					"attributes":{
						"POSITION":4,
						"NORMAL":5,
						"TEXCOORD_0":6
					},
					"indices":7,
					"material":0
				},
				{
					"attributes":{
						"POSITION":8,
						"NORMAL":9,
						"TEXCOORD_0":10
					},
					"indices":11,
					"material":1
				}
			]
		}
	],
	"textures":[
		{
			"sampler":0,
			"source":0
		}
	],
	"images":[
		{
			"mimeType":"image/png",
			"name":"AvatarWearables_TX",
			"uri":"tex/AvatarWearables_TX.png"
		}
	],
	"accessors":[
		{
			"bufferView":0,
			"componentType":5126,
			"count":54,
			"max":[
				0.5080327987670898,
				-13.42209243774414,
				0.5080304145812988
			],
			"min":[
				-0.5080289840698242,
				-16.256999969482422,
				-0.5080322027206421
			],
			"type":"VEC3"
		},
		{
			"bufferView":1,
			"componentType":5126,
			"count":54,
			"type":"VEC3"
		},
		{
			"bufferView":2,
			"componentType":5126,
			"count":54,
			"type":"VEC2"
		},
		{
			"bufferView":3,
			"componentType":5123,
			"count":192,
			"type":"SCALAR"
		},
		{
			"bufferView":4,
			"componentType":5126,
			"count":108,
			"max":[
				1.906114101409912,
				-2.7223973274230957,
				-0.7127058506011963
			],
			"min":[
				0.40715885162353516,
				-7.368026256561279,
				-2.2374768257141113
			],
			"type":"VEC3"
		},
		{
			"bufferView":5,
			"componentType":5126,
			"count":108,
			"type":"VEC3"
		},
		{
			"bufferView":6,
			"componentType":5126,
			"count":108,
			"type":"VEC2"
		},
		{
			"bufferView":7,
			"componentType":5123,
			"count":243,
			"type":"SCALAR"
		},
		{
			"bufferView":8,
			"componentType":5126,
			"count":24,
			"max":[
				1.8746905326843262,
				-2.7223973274230957,
				-0.7127053737640381
			],
			"min":[
				0.40715885162353516,
				-7.368026256561279,
				-2.236908197402954
			],
			"type":"VEC3"
		},
		{
			"bufferView":9,
			"componentType":5126,
			"count":24,
			"type":"VEC3"
		},
		{
			"bufferView":10,
			"componentType":5126,
			"count":24,
			"type":"VEC2"
		},
		{
			"bufferView":11,
			"componentType":5123,
			"count":42,
			"type":"SCALAR"
		}
	],
	"bufferViews":[
		{
			"buffer":0,
			"byteLength":648,
			"byteOffset":0,
			"target":34962
		},
		{
			"buffer":0,
			"byteLength":648,
			"byteOffset":648,
			"target":34962
		},
		{
			"buffer":0,
			"byteLength":432,
			"byteOffset":1296,
			"target":34962
		},
		{
			"buffer":0,
			"byteLength":384,
			"byteOffset":1728,
			"target":34963
		},
		{
			"buffer":0,
			"byteLength":1296,
			"byteOffset":2112,
			"target":34962
		},
		{
			"buffer":0,
			"byteLength":1296,
			"byteOffset":3408,
			"target":34962
		},
		{
			"buffer":0,
			"byteLength":864,
			"byteOffset":4704,
			"target":34962
		},
		{
			"buffer":0,
			"byteLength":486,
			"byteOffset":5568,
			"target":34963
		},
		{
			"buffer":0,
			"byteLength":288,
			"byteOffset":6056,
			"target":34962
		},
		{
			"buffer":0,
			"byteLength":288,
			"byteOffset":6344,
			"target":34962
		},
		{
			"buffer":0,
			"byteLength":192,
			"byteOffset":6632,
			"target":34962
		},
		{
			"buffer":0,
			"byteLength":84,
			"byteOffset":6824,
			"target":34963
		}
	],
	"samplers":[
		{
			"magFilter":9729,
			"minFilter":9987
		}
	],
	"buffers":[
		{
			"byteLength":6908,
			"uri":"tile_20_0_4.bin"
		}
	]
}
