{
	"asset":{
		"generator":"Khronos glTF Blender I/O v4.0.44",
		"version":"2.0"
	},
	"extensionsUsed":[
		"KHR_materials_specular",
		"KHR_materials_ior",
		"KHR_materials_emissive_strength"
	],
	"scene":0,
	"scenes":[
		{
			"name":"Scene",
			"nodes":[
				0,
				1,
				2,
				3,
				4,
				5
			]
		}
	],
	"nodes":[
		{
			"mesh":0,
			"name":"Plane",
			"scale":[
				7.873531341552734,
				0.9841914176940918,
				7.873531341552734
			]
		},
		{
			"name":"track.237",
			"scale":[
				3.7706682682037354,
				3.7706682682037354,
				3.7706682682037354
			]
		},
		{
			"mesh":1,
			"name":"Cylinder.001",
			"rotation":[
				-1,
				0,
				0,
				7.549790836947068e-08
			],
			"scale":[
				1.9539721012115479,
				1.9539721012115479,
				1.9539721012115479
			]
		},
		{
			"mesh":2,
			"name":"Cylinder.015"
		},
		{
			"mesh":3,
			"name":"Cylinder.097"
		},
		{
			"mesh":4,
			"name":"Cylinder.098"
		}
	],
	"materials":[
		{
			"doubleSided":true,
			"extensions":{
				"KHR_materials_specular":{
					"specularColorFactor":[
						2.0,
						2.0,
						2.0
					]
				},
				"KHR_materials_ior":{
					"ior":1.4500000476837158
				}
			},
			"name":"building",
			"pbrMetallicRoughness":{
				"baseColorTexture":{
					"index":0
				},
				"metallicFactor":0
			}
		},
		{
			"doubleSided":true,
			"emissiveFactor":[
				1,
				0.2655798013274177,
				0.04142626284219435
			],
			"extensions":{
				"KHR_materials_emissive_strength":{
					"emissiveStrength":1.5982129573822021
				}
			},
			"name":"Glow1",
			"pbrMetallicRoughness":{
				"baseColorFactor":[
					0.8008996248245239,
					0.21048900485038757,
					0.033567022532224655,
					1
				],
				"metallicFactor":0
			}
		},
		{
			"doubleSided":true,
			"extensions":{
				"KHR_materials_specular":{
					"specularColorFactor":[
						2.0,
						2.0,
						2.0
					]
				},
				"KHR_materials_ior":{
					"ior":1.4500000476837158
				}
			},
			"name":"building2",
			"pbrMetallicRoughness":{
				"baseColorTexture":{
					"index":1
				},
				"metallicFactor":0,
				"roughnessFactor":0.17924527823925018
			}
		}
	],
	"meshes":[
		{
			"name":"Plane.1124",
			"primitives":[
				{
					"attributes":{
						"POSITION":0,
						"NORMAL":1,
						"TEXCOORD_0":2,
						"TANGENT":3
					},
					"indices":4,
					"material":0
				}
			]
		},
		{
			"name":"Cylinder.455",
			"primitives":[
				{
					"attributes":{
						"POSITION":5,
						"NORMAL":6,
						"TEXCOORD_0":7
					},
					"indices":8,
					"material":1
				},
				{
					"attributes":{
						"POSITION":9,
						"NORMAL":10,
						"TEXCOORD_0":11
					},
					"indices":12,
					"material":2
				},
				{
					"attributes":{
						"POSITION":13,
						"NORMAL":14,
						"TEXCOORD_0":15
					},
					"indices":16,
					"material":2
				}
			]
		},
		{
			"name":"Cylinder.456",
			"primitives":[
				{
					"attributes":{
						"POSITION":17,
						"NORMAL":18,
						"TEXCOORD_0":19
					},
					"indices":20,
					"material":0
				},
				{
					"attributes":{
						"POSITION":21,
						"NORMAL":22,
						"TEXCOORD_0":23
					},
					"indices":24,
					"material":0
				}
			]
		},
		{
			"name":"Cylinder.457",
			"primitives":[
				{
					"attributes":{
						"POSITION":25,
						"NORMAL":26,
						"TEXCOORD_0":27
					},
					"indices":28,
					"material":0
				},
				{
					"attributes":{
						"POSITION":29,
						"NORMAL":30,
						"TEXCOORD_0":31
					},
					"indices":32,
					"material":0
				}
			]
		},
		{
			"name":"Cylinder.458",
			"primitives":[
				{
					"attributes":{
						"POSITION":33,
						"NORMAL":34,
						"TEXCOORD_0":35
					},
					"indices":36,
					"material":0
				},
				{
					"attributes":{
						"POSITION":37,
						"NORMAL":38,
						"TEXCOORD_0":39
					},
					"indices":40,
					"material":0
				}
			]
		}
	],
	"textures":[
		{
			"sampler":0,
			"source":0
		},
		{
			"sampler":0,
			"source":0
		}
	],
	"images":[
		{
			"mimeType":"image/png",
			"name":"AvatarWearables_TX",
			"uri":"tex/AvatarWearables_TX.png"
		}
	],
	"accessors":[
		{
			"bufferView":0,
			"componentType":5126,
			"count":36,
			"max":[
				0.508030891418457,
				-14.900496482849121,
				0.5080304145812988
			],
			"min":[
				-0.5080313682556152,
				-14.900496482849121,
				-0.5080323219299316
			],
			"type":"VEC3"
		},
		{
			"bufferView":1,
			"componentType":5126,
			"count":36,
			"type":"VEC3"
		},
		{
			"bufferView":2,
			"componentType":5126,
			"count":36,
			"type":"VEC2"
		},
		{
			"bufferView":3,
			"componentType":5126,
			"count":36,
			"type":"VEC4"
		},
		{
			"bufferView":4,
			"componentType":5123,
			"count":150,
			"type":"SCALAR"
		},
		{
			"bufferView":5,
			"componentType":5126,
			"count":125,
			"max":[
				2.0471198558807373,
				7.282867431640625,
				2.0471084117889404
			],
			"min":[
				0.05623793601989746,
				0.5382819175720215,
				-0.37581491470336914
			],
			"type":"VEC3"
		},
		{
			"bufferView":6,
			"componentType":5126,
			"count":125,
			"type":"VEC3"
		},
		{
			"bufferView":7,
			"componentType":5126,
			"count":125,
			"type":"VEC2"
		},
		{
			"bufferView":8,
			"componentType":5123,
			"count":204,
			"type":"SCALAR"
		},
		{
			"bufferView":9,
			"componentType":5126,
			"count":541,
			"max":[
				2.0471198558807373,
				7.412851333618164,
				2.0471084117889404
			],
			"min":[
				-0.319286584854126,
				-0.6918435096740723,
				-0.7513389587402344
			],
			"type":"VEC3"
		},
		{
			"bufferView":10,
			"componentType":5126,
			"count":541,
			"type":"VEC3"
		},
		{
			"bufferView":11,
			"componentType":5126,
			"count":541,
			"type":"VEC2"
		},
		{
			"bufferView":12,
			"componentType":5123,
			"count":933,
			"type":"SCALAR"
		},
		{
			"bufferView":13,
			"componentType":5126,
			"count":201,
			"max":[
				2.0471198558807373,
				7.412851333618164,
				2.0471084117889404
			],
			"min":[
				-0.319286584854126,
				-0.6918435096740723,
				-0.7513389587402344
			],
			"type":"VEC3"
		},
		{
			"bufferView":14,
			"componentType":5126,
			"count":201,
			"type":"VEC3"
		},
		{
			"bufferView":15,
			"componentType":5126,
			"count":201,
			"type":"VEC2"
		},
		{
			"bufferView":16,
			"componentType":5123,
			"count":618,
			"type":"SCALAR"
		},
		{
			"bufferView":17,
			"componentType":5126,
			"count":9,
			"max":[
				-3.9348959922790527,
				-6.4441375732421875,
				-3.982912302017212
			],
			"min":[
				-4,
				-6.609895706176758,
				-4
			],
			"type":"VEC3"
		},
		{
			"bufferView":18,
			"componentType":5126,
			"count":9,
			"type":"VEC3"
		},
		{
			"bufferView":19,
			"componentType":5126,
			"count":9,
			"type":"VEC2"
		},
		{
			"bufferView":20,
			"componentType":5123,
			"count":24,
			"type":"SCALAR"
		},
		{
			"bufferView":21,
			"componentType":5126,
			"count":10,
			"max":[
				-3.9348959922790527,
				-6.4441375732421875,
				-3.9858877658843994
			],
			"min":[
				-4,
				-6.609895706176758,
				-4
			],
			"type":"VEC3"
		},
		{
			"bufferView":22,
			"componentType":5126,
			"count":10,
			"type":"VEC3"
		},
		{
			"bufferView":23,
			"componentType":5126,
			"count":10,
			"type":"VEC2"
		},
		{
			"bufferView":24,
			"componentType":5123,
			"count":18,
			"type":"SCALAR"
		},
		{
			"bufferView":25,
			"componentType":5126,
			"count":21,
			"max":[
				-2.9109103679656982,
				3.352828025817871,
				-2.9639768600463867
			],
			"min":[
				-4,
				-0.9497909545898438,
				-4
			],
			"type":"VEC3"
		},
		{
			"bufferView":26,
			"componentType":5126,
			"count":21,
			"type":"VEC3"
		},
		{
			"bufferView":27,
			"componentType":5126,
			"count":21,
			"type":"VEC2"
		},
		{
			"bufferView":28,
			"componentType":5123,
			"count":27,
			"type":"SCALAR"
		},
		{
			"bufferView":29,
			"componentType":5126,
			"count":11,
			"max":[
				-2.9109103679656982,
				3.352828025817871,
				-2.9639768600463867
			],
			"min":[
				-4,
				-0.9497909545898438,
				-4
			],
			"type":"VEC3"
		},
		{
			"bufferView":30,
			"componentType":5126,
			"count":11,
			"type":"VEC3"
		},
		{
			"bufferView":31,
			"componentType":5126,
			"count":11,
			"type":"VEC2"
		},
		{
			"bufferView":32,
			"componentType":5123,
			"count":21,
			"type":"SCALAR"
		},
		{
			"bufferView":33,
			"componentType":5126,
			"count":53,
			"max":[
				-2.5212066173553467,
				-5.989095687866211,
				-2.219353199005127
			],
			"min":[
				-4,
				-8.949975967407227,
				-4
			],
			"type":"VEC3"
		},
		{
			"bufferView":34,
			"componentType":5126,
			"count":53,
			"type":"VEC3"
		},
		{
			"bufferView":35,
			"componentType":5126,
			"count":53,
			"type":"VEC2"
		},
		{
			"bufferView":36,
			"componentType":5123,
			"count":69,
			"type":"SCALAR"
		},
		{
			"bufferView":37,
			"componentType":5126,
			"count":17,
			"max":[
				-2.5742835998535156,
				-6.118748664855957,
				-2.2908668518066406
			],
			"min":[
				-4,
				-8.82591438293457,
				-4
			],
			"type":"VEC3"
		},
		{
			"bufferView":38,
			"componentType":5126,
			"count":17,
			"type":"VEC3"
		},
		{
			"bufferView":39,
			"componentType":5126,
			"count":17,
			"type":"VEC2"
		},
		{
			"bufferView":40,
			"componentType":5123,
			"count":39,
			"type":"SCALAR"
		}
	],
	"bufferViews":[
		{
			"buffer":0,
			"byteLength":432,
			"byteOffset":0,
			"target":34962
		},
		{
			"buffer":0,
			"byteLength":432,
			"byteOffset":432,
			"target":34962
		},
		{
			"buffer":0,
			"byteLength":288,
			"byteOffset":864,
			"target":34962
		},
		{
			"buffer":0,
			"byteLength":576,
			"byteOffset":1152,
			"target":34962
		},
		{
			"buffer":0,
			"byteLength":300,
			"byteOffset":1728,
			"target":34963
		},
		{
			"buffer":0,
			"byteLength":1500,
			"byteOffset":2028,
			"target":34962
		},
		{
			"buffer":0,
			"byteLength":1500,
			"byteOffset":3528,
			"target":34962
		},
		{
			"buffer":0,
			"byteLength":1000,
			"byteOffset":5028,
			"target":34962
		},
		{
			"buffer":0,
			"byteLength":408,
			"byteOffset":6028,
			"target":34963
		},
		{
			"buffer":0,
			"byteLength":6492,
			"byteOffset":6436,
			"target":34962
		},
		{
			"buffer":0,
			"byteLength":6492,
			"byteOffset":12928,
			"target":34962
		},
		{
			"buffer":0,
			"byteLength":4328,
			"byteOffset":19420,
			"target":34962
		},
		{
			"buffer":0,
			"byteLength":1866,
			"byteOffset":23748,
			"target":34963
		},
		{
			"buffer":0,
			"byteLength":2412,
			"byteOffset":25616,
			"target":34962
		},
		{
			"buffer":0,
			"byteLength":2412,
			"byteOffset":28028,
			"target":34962
		},
		{
			"buffer":0,
			"byteLength":1608,
			"byteOffset":30440,
			"target":34962
		},
		{
			"buffer":0,
			"byteLength":1236,
			"byteOffset":32048,
			"target":34963
		},
		{
			"buffer":0,
			"byteLength":108,
			"byteOffset":33284,
			"target":34962
		},
		{
			"buffer":0,
			"byteLength":108,
			"byteOffset":33392,
			"target":34962
		},
		{
			"buffer":0,
			"byteLength":72,
			"byteOffset":33500,
			"target":34962
		},
		{
			"buffer":0,
			"byteLength":48,
			"byteOffset":33572,
			"target":34963
		},
		{
			"buffer":0,
			"byteLength":120,
			"byteOffset":33620,
			"target":34962
		},
		{
			"buffer":0,
			"byteLength":120,
			"byteOffset":33740,
			"target":34962
		},
		{
			"buffer":0,
			"byteLength":80,
			"byteOffset":33860,
			"target":34962
		},
		{
			"buffer":0,
			"byteLength":36,
			"byteOffset":33940,
			"target":34963
		},
		{
			"buffer":0,
			"byteLength":252,
			"byteOffset":33976,
			"target":34962
		},
		{
			"buffer":0,
			"byteLength":252,
			"byteOffset":34228,
			"target":34962
		},
		{
			"buffer":0,
			"byteLength":168,
			"byteOffset":34480,
			"target":34962
		},
		{
			"buffer":0,
			"byteLength":54,
			"byteOffset":34648,
			"target":34963
		},
		{
			"buffer":0,
			"byteLength":132,
			"byteOffset":34704,
			"target":34962
		},
		{
			"buffer":0,
			"byteLength":132,
			"byteOffset":34836,
			"target":34962
		},
		{
			"buffer":0,
			"byteLength":88,
			"byteOffset":34968,
			"target":34962
		},
		{
			"buffer":0,
			"byteLength":42,
			"byteOffset":35056,
			"target":34963
		},
		{
			"buffer":0,
			"byteLength":636,
			"byteOffset":35100,
			"target":34962
		},
		{
			"buffer":0,
			"byteLength":636,
			"byteOffset":35736,
			"target":34962
		},
		{
			"buffer":0,
			"byteLength":424,
			"byteOffset":36372,
			"target":34962
		},
		{
			"buffer":0,
			"byteLength":138,
			"byteOffset":36796,
			"target":34963
		},
		{
			"buffer":0,
			"byteLength":204,
			"byteOffset":36936,
			"target":34962
		},
		{
			"buffer":0,
			"byteLength":204,
			"byteOffset":37140,
			"target":34962
		},
		{
			"buffer":0,
			"byteLength":136,
			"byteOffset":37344,
			"target":34962
		},
		{
			"buffer":0,
			"byteLength":78,
			"byteOffset":37480,
			"target":34963
		}
	],
	"samplers":[
		{
			"magFilter":9729,
			"minFilter":9987
		}
	],
	"buffers":[
		{
			"byteLength":37560,
			"uri":"tile_19_0_8.bin"
		}
	]
}
