{
	"asset":{
		"generator":"Khronos glTF Blender I/O v4.0.44",
		"version":"2.0"
	},
	"extensionsUsed":[
		"KHR_materials_specular",
		"KHR_materials_ior",
		"KHR_materials_emissive_strength"
	],
	"scene":0,
	"scenes":[
		{
			"name":"Scene",
			"nodes":[
				0,
				1,
				2,
				3,
				4,
				5
			]
		}
	],
	"nodes":[
		{
			"mesh":0,
			"name":"Plane",
			"scale":[
				7.873531341552734,
				0.9841914176940918,
				7.873531341552734
			]
		},
		{
			"name":"track.238",
			"scale":[
				3.7706682682037354,
				3.7706682682037354,
				3.7706682682037354
			]
		},
		{
			"mesh":1,
			"name":"Cylinder.001",
			"rotation":[
				-1,
				0,
				0,
				7.549790836947068e-08
			],
			"scale":[
				1.9539721012115479,
				1.9539721012115479,
				1.9539721012115479
			]
		},
		{
			"mesh":2,
			"name":"Cylinder.015"
		},
		{
			"mesh":3,
			"name":"Cylinder.097"
		},
		{
			"mesh":4,
			"name":"Cylinder.098"
		}
	],
	"materials":[
		{
			"doubleSided":true,
			"extensions":{
				"KHR_materials_specular":{
					"specularColorFactor":[
						2.0,
						2.0,
						2.0
					]
				},
				"KHR_materials_ior":{
					"ior":1.4500000476837158
				}
			},
			"name":"building",
			"pbrMetallicRoughness":{
				"baseColorTexture":{
					"index":0
				},
				"metallicFactor":0
			}
		},
		{
			"doubleSided":true,
			"emissiveFactor":[
				1,
				0.2655798013274177,
				0.04142626284219435
			],
			"extensions":{
				"KHR_materials_emissive_strength":{
					"emissiveStrength":1.5982129573822021
				}
			},
			"name":"Glow1",
			"pbrMetallicRoughness":{
				"baseColorFactor":[
					0.8008996248245239,
					0.21048900485038757,
					0.033567022532224655,
					1
				],
				"metallicFactor":0
			}
		},
		{
			"doubleSided":true,
			"extensions":{
				"KHR_materials_specular":{
					"specularColorFactor":[
						2.0,
						2.0,
						2.0
					]
				},
				"KHR_materials_ior":{
					"ior":1.4500000476837158
				}
			},
			"name":"building2",
			"pbrMetallicRoughness":{
				"baseColorTexture":{
					"index":1
				},
				"metallicFactor":0,
				"roughnessFactor":0.17924527823925018
			}
		}
	],
	"meshes":[
		{
			"name":"Plane.1126",
			"primitives":[
				{
					"attributes":{
						"POSITION":0,
						"NORMAL":1,
						"TEXCOORD_0":2,
						"TANGENT":3
					},
					"indices":4,
					"material":0
				}
			]
		},
		{
			"name":"Cylinder.459",
			"primitives":[
				{
					"attributes":{
						"POSITION":5,
						"NORMAL":6,
						"TEXCOORD_0":7
					},
					"indices":8,
					"material":1
				},
				{
					"attributes":{
						"POSITION":9,
						"NORMAL":10,
						"TEXCOORD_0":11
					},
					"indices":12,
					"material":2
				}
			]
		},
		{
			"name":"Cylinder.460",
			"primitives":[
				{
					"attributes":{
						"POSITION":13,
						"NORMAL":14,
						"TEXCOORD_0":15
					},
					"indices":16,
					"material":0
				}
			]
		},
		{
			"name":"Cylinder.461",
			"primitives":[
				{
					"attributes":{
						"POSITION":17,
						"NORMAL":18,
						"TEXCOORD_0":19
					},
					"indices":20,
					"material":0
				}
			]
		},
		{
			"name":"Cylinder.462",
			"primitives":[
				{
					"attributes":{
						"POSITION":21,
						"NORMAL":22,
						"TEXCOORD_0":23
					},
					"indices":24,
					"material":0
				}
			]
		}
	],
	"textures":[
		{
			"sampler":0,
			"source":0
		},
		{
			"sampler":0,
			"source":0
		}
	],
	"images":[
		{
			"mimeType":"image/png",
			"name":"AvatarWearables_TX",
			"uri":"tex/AvatarWearables_TX.png"
		}
	],
	"accessors":[
		{
			"bufferView":0,
			"componentType":5126,
			"count":36,
			"max":[
				0.508030891418457,
				-14.900496482849121,
				0.5080313682556152
			],
			"min":[
				-0.5080313682556152,
				-14.900496482849121,
				-0.5080313682556152
			],
			"type":"VEC3"
		},
		{
			"bufferView":1,
			"componentType":5126,
			"count":36,
			"type":"VEC3"
		},
		{
			"bufferView":2,
			"componentType":5126,
			"count":36,
			"type":"VEC2"
		},
		{
			"bufferView":3,
			"componentType":5126,
			"count":36,
			"type":"VEC4"
		},
		{
			"bufferView":4,
			"componentType":5123,
			"count":150,
			"type":"SCALAR"
		},
		{
			"bufferView":5,
			"componentType":5126,
			"count":380,
			"max":[
				2.0471198558807373,
				7.4128522872924805,
				1.6309170722961426
			],
			"min":[
				-0.3192870616912842,
				-0.6918425559997559,
				-2.0471160411834717
			],
			"type":"VEC3"
		},
		{
			"bufferView":6,
			"componentType":5126,
			"count":380,
			"type":"VEC3"
		},
		{
			"bufferView":7,
			"componentType":5126,
			"count":380,
			"type":"VEC2"
		},
		{
			"bufferView":8,
			"componentType":5123,
			"count":882,
			"type":"SCALAR"
		},
		{
			"bufferView":9,
			"componentType":5126,
			"count":682,
			"max":[
				2.0471198558807373,
				7.4128522872924805,
				1.6309170722961426
			],
			"min":[
				-0.4067671298980713,
				-0.6918425559997559,
				-2.0471160411834717
			],
			"type":"VEC3"
		},
		{
			"bufferView":10,
			"componentType":5126,
			"count":682,
			"type":"VEC3"
		},
		{
			"bufferView":11,
			"componentType":5126,
			"count":682,
			"type":"VEC2"
		},
		{
			"bufferView":12,
			"componentType":5123,
			"count":1179,
			"type":"SCALAR"
		},
		{
			"bufferView":13,
			"componentType":5126,
			"count":71,
			"max":[
				-3.178020477294922,
				-4.047996520996094,
				4
			],
			"min":[
				-4,
				-10.253273010253906,
				2.0156679153442383
			],
			"type":"VEC3"
		},
		{
			"bufferView":14,
			"componentType":5126,
			"count":71,
			"type":"VEC3"
		},
		{
			"bufferView":15,
			"componentType":5126,
			"count":71,
			"type":"VEC2"
		},
		{
			"bufferView":16,
			"componentType":5123,
			"count":210,
			"type":"SCALAR"
		},
		{
			"bufferView":17,
			"componentType":5126,
			"count":48,
			"max":[
				-2.273719072341919,
				4.2024126052856445,
				4
			],
			"min":[
				-4,
				-1.419163703918457,
				-0.8504848480224609
			],
			"type":"VEC3"
		},
		{
			"bufferView":18,
			"componentType":5126,
			"count":48,
			"type":"VEC3"
		},
		{
			"bufferView":19,
			"componentType":5126,
			"count":48,
			"type":"VEC2"
		},
		{
			"bufferView":20,
			"componentType":5123,
			"count":72,
			"type":"SCALAR"
		},
		{
			"bufferView":21,
			"componentType":5126,
			"count":48,
			"max":[
				-2.5742835998535156,
				-6.324436187744141,
				4
			],
			"min":[
				-4,
				-8.665313720703125,
				3.1384313106536865
			],
			"type":"VEC3"
		},
		{
			"bufferView":22,
			"componentType":5126,
			"count":48,
			"type":"VEC3"
		},
		{
			"bufferView":23,
			"componentType":5126,
			"count":48,
			"type":"VEC2"
		},
		{
			"bufferView":24,
			"componentType":5123,
			"count":72,
			"type":"SCALAR"
		}
	],
	"bufferViews":[
		{
			"buffer":0,
			"byteLength":432,
			"byteOffset":0,
			"target":34962
		},
		{
			"buffer":0,
			"byteLength":432,
			"byteOffset":432,
			"target":34962
		},
		{
			"buffer":0,
			"byteLength":288,
			"byteOffset":864,
			"target":34962
		},
		{
			"buffer":0,
			"byteLength":576,
			"byteOffset":1152,
			"target":34962
		},
		{
			"buffer":0,
			"byteLength":300,
			"byteOffset":1728,
			"target":34963
		},
		{
			"buffer":0,
			"byteLength":4560,
			"byteOffset":2028,
			"target":34962
		},
		{
			"buffer":0,
			"byteLength":4560,
			"byteOffset":6588,
			"target":34962
		},
		{
			"buffer":0,
			"byteLength":3040,
			"byteOffset":11148,
			"target":34962
		},
		{
			"buffer":0,
			"byteLength":1764,
			"byteOffset":14188,
			"target":34963
		},
		{
			"buffer":0,
			"byteLength":8184,
			"byteOffset":15952,
			"target":34962
		},
		{
			"buffer":0,
			"byteLength":8184,
			"byteOffset":24136,
			"target":34962
		},
		{
			"buffer":0,
			"byteLength":5456,
			"byteOffset":32320,
			"target":34962
		},
		{
			"buffer":0,
			"byteLength":2358,
			"byteOffset":37776,
			"target":34963
		},
		{
			"buffer":0,
			"byteLength":852,
			"byteOffset":40136,
			"target":34962
		},
		{
			"buffer":0,
			"byteLength":852,
			"byteOffset":40988,
			"target":34962
		},
		{
			"buffer":0,
			"byteLength":568,
			"byteOffset":41840,
			"target":34962
		},
		{
			"buffer":0,
			"byteLength":420,
			"byteOffset":42408,
			"target":34963
		},
		{
			"buffer":0,
			"byteLength":576,
			"byteOffset":42828,
			"target":34962
		},
		{
			"buffer":0,
			"byteLength":576,
			"byteOffset":43404,
			"target":34962
		},
		{
			"buffer":0,
			"byteLength":384,
			"byteOffset":43980,
			"target":34962
		},
		{
			"buffer":0,
			"byteLength":144,
			"byteOffset":44364,
			"target":34963
		},
		{
			"buffer":0,
			"byteLength":576,
			"byteOffset":44508,
			"target":34962
		},
		{
			"buffer":0,
			"byteLength":576,
			"byteOffset":45084,
			"target":34962
		},
		{
			"buffer":0,
			"byteLength":384,
			"byteOffset":45660,
			"target":34962
		},
		{
			"buffer":0,
			"byteLength":144,
			"byteOffset":46044,
			"target":34963
		}
	],
	"samplers":[
		{
			"magFilter":9729,
			"minFilter":9987
		}
	],
	"buffers":[
		{
			"byteLength":46188,
			"uri":"tile_19_0_9.bin"
		}
	]
}
