{
	"asset":{
		"generator":"Khronos glTF Blender I/O v4.0.44",
		"version":"2.0"
	},
	"extensionsUsed":[
		"KHR_materials_specular",
		"KHR_materials_ior",
		"KHR_materials_emissive_strength"
	],
	"scene":0,
	"scenes":[
		{
			"name":"Scene",
			"nodes":[
				0,
				1,
				2
			]
		}
	],
	"nodes":[
		{
			"mesh":0,
			"name":"Plane",
			"scale":[
				7.873531341552734,
				0.9841914176940918,
				7.873531341552734
			]
		},
		{
			"mesh":1,
			"name":"track.155",
			"scale":[
				3.7706682682037354,
				3.7706682682037354,
				3.7706682682037354
			]
		},
		{
			"mesh":2,
			"name":"Cylinder.004",
			"scale":[
				1.0180153846740723,
				6.981534957885742,
				1.0180153846740723
			]
		}
	],
	"materials":[
		{
			"doubleSided":true,
			"extensions":{
				"KHR_materials_specular":{
					"specularColorFactor":[
						2.0,
						2.0,
						2.0
					]
				},
				"KHR_materials_ior":{
					"ior":1.4500000476837158
				}
			},
			"name":"building",
			"pbrMetallicRoughness":{
				"baseColorTexture":{
					"index":0
				},
				"metallicFactor":0
			}
		},
		{
			"doubleSided":true,
			"extensions":{
				"KHR_materials_specular":{
					"specularColorFactor":[
						2.0,
						2.0,
						2.0
					]
				},
				"KHR_materials_ior":{
					"ior":1.4500000476837158
				}
			},
			"name":"building2",
			"pbrMetallicRoughness":{
				"baseColorTexture":{
					"index":1
				},
				"metallicFactor":0,
				"roughnessFactor":0.17924527823925018
			}
		},
		{
			"doubleSided":true,
			"emissiveFactor":[
				0.7991064786911011,
				0.15292732417583466,
				0.6038312911987305
			],
			"name":"Glow3",
			"pbrMetallicRoughness":{
				"baseColorFactor":[
					0.8004003763198853,
					0.1514851152896881,
					0.604170024394989,
					1
				],
				"metallicFactor":0,
				"roughnessFactor":0.5
			}
		},
		{
			"doubleSided":true,
			"emissiveFactor":[
				1,
				0.2655798013274177,
				0.04142626284219435
			],
			"extensions":{
				"KHR_materials_emissive_strength":{
					"emissiveStrength":1.5982129573822021
				}
			},
			"name":"Glow1",
			"pbrMetallicRoughness":{
				"baseColorFactor":[
					0.8008996248245239,
					0.21048900485038757,
					0.033567022532224655,
					1
				],
				"metallicFactor":0
			}
		}
	],
	"meshes":[
		{
			"name":"Plane.960",
			"primitives":[
				{
					"attributes":{
						"POSITION":0,
						"NORMAL":1,
						"TEXCOORD_0":2,
						"TANGENT":3
					},
					"indices":4,
					"material":0
				}
			]
		},
		{
			"name":"Plane.961",
			"primitives":[
				{
					"attributes":{
						"POSITION":5,
						"NORMAL":6,
						"TEXCOORD_0":7
					},
					"indices":8,
					"material":0
				}
			]
		},
		{
			"name":"Cylinder.417",
			"primitives":[
				{
					"attributes":{
						"POSITION":9,
						"NORMAL":10,
						"TEXCOORD_0":11
					},
					"indices":12,
					"material":1
				},
				{
					"attributes":{
						"POSITION":13,
						"NORMAL":14,
						"TEXCOORD_0":15
					},
					"indices":16,
					"material":2
				},
				{
					"attributes":{
						"POSITION":17,
						"NORMAL":18,
						"TEXCOORD_0":19
					},
					"indices":20,
					"material":3
				}
			]
		}
	],
	"textures":[
		{
			"sampler":0,
			"source":0
		},
		{
			"sampler":0,
			"source":0
		}
	],
	"images":[
		{
			"mimeType":"image/png",
			"name":"AvatarWearables_TX",
			"uri":"tex/AvatarWearables_TX.png"
		}
	],
	"accessors":[
		{
			"bufferView":0,
			"componentType":5126,
			"count":42,
			"max":[
				0.5080312490463257,
				-14.900496482849121,
				0.5080313682556152
			],
			"min":[
				-0.5080312490463257,
				-14.900496482849121,
				-0.5080313682556152
			],
			"type":"VEC3"
		},
		{
			"bufferView":1,
			"componentType":5126,
			"count":42,
			"type":"VEC3"
		},
		{
			"bufferView":2,
			"componentType":5126,
			"count":42,
			"type":"VEC2"
		},
		{
			"bufferView":3,
			"componentType":5126,
			"count":42,
			"type":"VEC4"
		},
		{
			"bufferView":4,
			"componentType":5123,
			"count":180,
			"type":"SCALAR"
		},
		{
			"bufferView":5,
			"componentType":5126,
			"count":66,
			"max":[
				1.0608179569244385,
				-3.545163631439209,
				1.0608196258544922
			],
			"min":[
				-1.060821771621704,
				-4.243279933929443,
				0.07792186737060547
			],
			"type":"VEC3"
		},
		{
			"bufferView":6,
			"componentType":5126,
			"count":66,
			"type":"VEC3"
		},
		{
			"bufferView":7,
			"componentType":5126,
			"count":66,
			"type":"VEC2"
		},
		{
			"bufferView":8,
			"componentType":5123,
			"count":120,
			"type":"SCALAR"
		},
		{
			"bufferView":9,
			"componentType":5126,
			"count":2902,
			"max":[
				2.8015456199645996,
				-0.16687601804733276,
				-2.067692995071411
			],
			"min":[
				-3.2040672302246094,
				-2.1043758392333984,
				-3.929213523864746
			],
			"type":"VEC3"
		},
		{
			"bufferView":10,
			"componentType":5126,
			"count":2902,
			"type":"VEC3"
		},
		{
			"bufferView":11,
			"componentType":5126,
			"count":2902,
			"type":"VEC2"
		},
		{
			"bufferView":12,
			"componentType":5123,
			"count":10176,
			"type":"SCALAR"
		},
		{
			"bufferView":13,
			"componentType":5126,
			"count":504,
			"max":[
				2.7249484062194824,
				-0.35732394456863403,
				-2.145613431930542
			],
			"min":[
				-3.116588830947876,
				-1.9137349128723145,
				-3.929213523864746
			],
			"type":"VEC3"
		},
		{
			"bufferView":14,
			"componentType":5126,
			"count":504,
			"type":"VEC3"
		},
		{
			"bufferView":15,
			"componentType":5126,
			"count":504,
			"type":"VEC2"
		},
		{
			"bufferView":16,
			"componentType":5123,
			"count":1344,
			"type":"SCALAR"
		},
		{
			"bufferView":17,
			"componentType":5126,
			"count":692,
			"max":[
				2.5155272483825684,
				-0.23190850019454956,
				-2.806223154067993
			],
			"min":[
				-2.907170057296753,
				-2.0384883880615234,
				-3.320868968963623
			],
			"type":"VEC3"
		},
		{
			"bufferView":18,
			"componentType":5126,
			"count":692,
			"type":"VEC3"
		},
		{
			"bufferView":19,
			"componentType":5126,
			"count":692,
			"type":"VEC2"
		},
		{
			"bufferView":20,
			"componentType":5123,
			"count":1536,
			"type":"SCALAR"
		}
	],
	"bufferViews":[
		{
			"buffer":0,
			"byteLength":504,
			"byteOffset":0,
			"target":34962
		},
		{
			"buffer":0,
			"byteLength":504,
			"byteOffset":504,
			"target":34962
		},
		{
			"buffer":0,
			"byteLength":336,
			"byteOffset":1008,
			"target":34962
		},
		{
			"buffer":0,
			"byteLength":672,
			"byteOffset":1344,
			"target":34962
		},
		{
			"buffer":0,
			"byteLength":360,
			"byteOffset":2016,
			"target":34963
		},
		{
			"buffer":0,
			"byteLength":792,
			"byteOffset":2376,
			"target":34962
		},
		{
			"buffer":0,
			"byteLength":792,
			"byteOffset":3168,
			"target":34962
		},
		{
			"buffer":0,
			"byteLength":528,
			"byteOffset":3960,
			"target":34962
		},
		{
			"buffer":0,
			"byteLength":240,
			"byteOffset":4488,
			"target":34963
		},
		{
			"buffer":0,
			"byteLength":34824,
			"byteOffset":4728,
			"target":34962
		},
		{
			"buffer":0,
			"byteLength":34824,
			"byteOffset":39552,
			"target":34962
		},
		{
			"buffer":0,
			"byteLength":23216,
			"byteOffset":74376,
			"target":34962
		},
		{
			"buffer":0,
			"byteLength":20352,
			"byteOffset":97592,
			"target":34963
		},
		{
			"buffer":0,
			"byteLength":6048,
			"byteOffset":117944,
			"target":34962
		},
		{
			"buffer":0,
			"byteLength":6048,
			"byteOffset":123992,
			"target":34962
		},
		{
			"buffer":0,
			"byteLength":4032,
			"byteOffset":130040,
			"target":34962
		},
		{
			"buffer":0,
			"byteLength":2688,
			"byteOffset":134072,
			"target":34963
		},
		{
			"buffer":0,
			"byteLength":8304,
			"byteOffset":136760,
			"target":34962
		},
		{
			"buffer":0,
			"byteLength":8304,
			"byteOffset":145064,
			"target":34962
		},
		{
			"buffer":0,
			"byteLength":5536,
			"byteOffset":153368,
			"target":34962
		},
		{
			"buffer":0,
			"byteLength":3072,
			"byteOffset":158904,
			"target":34963
		}
	],
	"samplers":[
		{
			"magFilter":9729,
			"minFilter":9987
		}
	],
	"buffers":[
		{
			"byteLength":161976,
			"uri":"tile_12_0_10.bin"
		}
	]
}
