{
	"asset":{
		"generator":"Khronos glTF Blender I/O v4.0.44",
		"version":"2.0"
	},
	"extensionsUsed":[
		"KHR_materials_specular",
		"KHR_materials_ior",
		"KHR_materials_emissive_strength"
	],
	"scene":0,
	"scenes":[
		{
			"name":"Scene",
			"nodes":[
				0,
				1,
				2
			]
		}
	],
	"nodes":[
		{
			"mesh":0,
			"name":"Plane",
			"scale":[
				7.873531341552734,
				0.9841914176940918,
				7.873531341552734
			]
		},
		{
			"mesh":1,
			"name":"Plane.001",
			"scale":[
				3.7706682682037354,
				3.7706682682037354,
				3.7706682682037354
			]
		},
		{
			"mesh":2,
			"name":"Cube.004",
			"rotation":[
				0,
				0.7251519560813904,
				0,
				0.6885889172554016
			],
			"scale":[
				1.9629734754562378,
				3.1461997032165527,
				1.9629734754562378
			]
		}
	],
	"materials":[
		{
			"doubleSided":true,
			"extensions":{
				"KHR_materials_specular":{
					"specularColorFactor":[
						2.0,
						2.0,
						2.0
					]
				},
				"KHR_materials_ior":{
					"ior":1.4500000476837158
				}
			},
			"name":"building",
			"pbrMetallicRoughness":{
				"baseColorTexture":{
					"index":0
				},
				"metallicFactor":0
			}
		},
		{
			"doubleSided":true,
			"emissiveFactor":[
				0.09784298909313212,
				1,
				0.08569416583338194
			],
			"extensions":{
				"KHR_materials_emissive_strength":{
					"emissiveStrength":1.5982129573822021
				}
			},
			"name":"Glow4",
			"pbrMetallicRoughness":{
				"baseColorFactor":[
					0.078976109623909,
					0.8012131452560425,
					0.06799241155385971,
					1
				],
				"metallicFactor":0
			}
		}
	],
	"meshes":[
		{
			"name":"Plane.104",
			"primitives":[
				{
					"attributes":{
						"POSITION":0,
						"NORMAL":1,
						"TEXCOORD_0":2
					},
					"indices":3,
					"material":0
				}
			]
		},
		{
			"name":"Plane.105",
			"primitives":[
				{
					"attributes":{
						"POSITION":4,
						"NORMAL":5,
						"TEXCOORD_0":6
					},
					"indices":7,
					"material":0
				},
				{
					"attributes":{
						"POSITION":8,
						"NORMAL":9,
						"TEXCOORD_0":10
					},
					"indices":11,
					"material":0
				}
			]
		},
		{
			"name":"Cube.042",
			"primitives":[
				{
					"attributes":{
						"POSITION":12,
						"NORMAL":13,
						"TEXCOORD_0":14
					},
					"indices":15,
					"material":0
				},
				{
					"attributes":{
						"POSITION":16,
						"NORMAL":17,
						"TEXCOORD_0":18
					},
					"indices":19,
					"material":1
				},
				{
					"attributes":{
						"POSITION":20,
						"NORMAL":21,
						"TEXCOORD_0":22
					},
					"indices":23,
					"material":1
				}
			]
		}
	],
	"textures":[
		{
			"sampler":0,
			"source":0
		}
	],
	"images":[
		{
			"mimeType":"image/png",
			"name":"AvatarWearables_TX",
			"uri":"tex/AvatarWearables_TX.png"
		}
	],
	"accessors":[
		{
			"bufferView":0,
			"componentType":5126,
			"count":152,
			"max":[
				1.0160624980926514,
				-3.353694438934326,
				1.0160624980926514
			],
			"min":[
				-1.0160624980926514,
				-8.128499984741211,
				-1.0160622596740723
			],
			"type":"VEC3"
		},
		{
			"bufferView":1,
			"componentType":5126,
			"count":152,
			"type":"VEC3"
		},
		{
			"bufferView":2,
			"componentType":5126,
			"count":152,
			"type":"VEC2"
		},
		{
			"bufferView":3,
			"componentType":5123,
			"count":612,
			"type":"SCALAR"
		},
		{
			"bufferView":4,
			"componentType":5126,
			"count":60,
			"max":[
				2.1216378211975098,
				-1.4232615232467651,
				-0.42204761505126953
			],
			"min":[
				-2.1216416358947754,
				-1.9856961965560913,
				-2.121638298034668
			],
			"type":"VEC3"
		},
		{
			"bufferView":5,
			"componentType":5126,
			"count":60,
			"type":"VEC3"
		},
		{
			"bufferView":6,
			"componentType":5126,
			"count":60,
			"type":"VEC2"
		},
		{
			"bufferView":7,
			"componentType":5123,
			"count":90,
			"type":"SCALAR"
		},
		{
			"bufferView":8,
			"componentType":5126,
			"count":20,
			"max":[
				2.1216378211975098,
				-1.4237070083618164,
				-0.423858642578125
			],
			"min":[
				-2.1216416358947754,
				-2.1216399669647217,
				-2.121638298034668
			],
			"type":"VEC3"
		},
		{
			"bufferView":9,
			"componentType":5126,
			"count":20,
			"type":"VEC3"
		},
		{
			"bufferView":10,
			"componentType":5126,
			"count":20,
			"type":"VEC2"
		},
		{
			"bufferView":11,
			"componentType":5123,
			"count":42,
			"type":"SCALAR"
		},
		{
			"bufferView":12,
			"componentType":5126,
			"count":2420,
			"max":[
				-0.4100184440612793,
				1.8880314826965332,
				4.059682846069336
			],
			"min":[
				-2.591583251953125,
				-2.10335111618042,
				3.064378261566162
			],
			"type":"VEC3"
		},
		{
			"bufferView":13,
			"componentType":5126,
			"count":2420,
			"type":"VEC3"
		},
		{
			"bufferView":14,
			"componentType":5126,
			"count":2420,
			"type":"VEC2"
		},
		{
			"bufferView":15,
			"componentType":5123,
			"count":5064,
			"type":"SCALAR"
		},
		{
			"bufferView":16,
			"componentType":5126,
			"count":505,
			"max":[
				-0.4100165367126465,
				1.8880319595336914,
				4.059682846069336
			],
			"min":[
				-2.591581344604492,
				-1.815542459487915,
				3.064378261566162
			],
			"type":"VEC3"
		},
		{
			"bufferView":17,
			"componentType":5126,
			"count":505,
			"type":"VEC3"
		},
		{
			"bufferView":18,
			"componentType":5126,
			"count":505,
			"type":"VEC2"
		},
		{
			"bufferView":19,
			"componentType":5123,
			"count":867,
			"type":"SCALAR"
		},
		{
			"bufferView":20,
			"componentType":5126,
			"count":405,
			"max":[
				-0.41001713275909424,
				1.8880319595336914,
				4.059682846069336
			],
			"min":[
				-2.591583251953125,
				-2.10335111618042,
				3.946765422821045
			],
			"type":"VEC3"
		},
		{
			"bufferView":21,
			"componentType":5126,
			"count":405,
			"type":"VEC3"
		},
		{
			"bufferView":22,
			"componentType":5126,
			"count":405,
			"type":"VEC2"
		},
		{
			"bufferView":23,
			"componentType":5123,
			"count":1257,
			"type":"SCALAR"
		}
	],
	"bufferViews":[
		{
			"buffer":0,
			"byteLength":1824,
			"byteOffset":0,
			"target":34962
		},
		{
			"buffer":0,
			"byteLength":1824,
			"byteOffset":1824,
			"target":34962
		},
		{
			"buffer":0,
			"byteLength":1216,
			"byteOffset":3648,
			"target":34962
		},
		{
			"buffer":0,
			"byteLength":1224,
			"byteOffset":4864,
			"target":34963
		},
		{
			"buffer":0,
			"byteLength":720,
			"byteOffset":6088,
			"target":34962
		},
		{
			"buffer":0,
			"byteLength":720,
			"byteOffset":6808,
			"target":34962
		},
		{
			"buffer":0,
			"byteLength":480,
			"byteOffset":7528,
			"target":34962
		},
		{
			"buffer":0,
			"byteLength":180,
			"byteOffset":8008,
			"target":34963
		},
		{
			"buffer":0,
			"byteLength":240,
			"byteOffset":8188,
			"target":34962
		},
		{
			"buffer":0,
			"byteLength":240,
			"byteOffset":8428,
			"target":34962
		},
		{
			"buffer":0,
			"byteLength":160,
			"byteOffset":8668,
			"target":34962
		},
		{
			"buffer":0,
			"byteLength":84,
			"byteOffset":8828,
			"target":34963
		},
		{
			"buffer":0,
			"byteLength":29040,
			"byteOffset":8912,
			"target":34962
		},
		{
			"buffer":0,
			"byteLength":29040,
			"byteOffset":37952,
			"target":34962
		},
		{
			"buffer":0,
			"byteLength":19360,
			"byteOffset":66992,
			"target":34962
		},
		{
			"buffer":0,
			"byteLength":10128,
			"byteOffset":86352,
			"target":34963
		},
		{
			"buffer":0,
			"byteLength":6060,
			"byteOffset":96480,
			"target":34962
		},
		{
			"buffer":0,
			"byteLength":6060,
			"byteOffset":102540,
			"target":34962
		},
		{
			"buffer":0,
			"byteLength":4040,
			"byteOffset":108600,
			"target":34962
		},
		{
			"buffer":0,
			"byteLength":1734,
			"byteOffset":112640,
			"target":34963
		},
		{
			"buffer":0,
			"byteLength":4860,
			"byteOffset":114376,
			"target":34962
		},
		{
			"buffer":0,
			"byteLength":4860,
			"byteOffset":119236,
			"target":34962
		},
		{
			"buffer":0,
			"byteLength":3240,
			"byteOffset":124096,
			"target":34962
		},
		{
			"buffer":0,
			"byteLength":2514,
			"byteOffset":127336,
			"target":34963
		}
	],
	"samplers":[
		{
			"magFilter":9729,
			"minFilter":9987
		}
	],
	"buffers":[
		{
			"byteLength":129852,
			"uri":"tile_5_1_4.bin"
		}
	]
}
