{
	"asset":{
		"generator":"Khronos glTF Blender I/O v4.0.44",
		"version":"2.0"
	},
	"extensionsUsed":[
		"KHR_materials_specular",
		"KHR_materials_ior"
	],
	"scene":0,
	"scenes":[
		{
			"name":"Scene",
			"nodes":[
				0,
				1,
				2,
				3,
				4
			]
		}
	],
	"nodes":[
		{
			"mesh":0,
			"name":"Plane",
			"scale":[
				7.873531341552734,
				0.9841914176940918,
				7.873531341552734
			]
		},
		{
			"name":"track.132",
			"scale":[
				3.7706682682037354,
				3.7706682682037354,
				3.7706682682037354
			]
		},
		{
			"mesh":1,
			"name":"Cylinder.018"
		},
		{
			"mesh":2,
			"name":"Cylinder.106"
		},
		{
			"mesh":3,
			"name":"Cylinder.107"
		}
	],
	"materials":[
		{
			"doubleSided":true,
			"extensions":{
				"KHR_materials_specular":{
					"specularColorFactor":[
						2.0,
						2.0,
						2.0
					]
				},
				"KHR_materials_ior":{
					"ior":1.4500000476837158
				}
			},
			"name":"building",
			"pbrMetallicRoughness":{
				"baseColorTexture":{
					"index":0
				},
				"metallicFactor":0
			}
		}
	],
	"meshes":[
		{
			"name":"Plane.914",
			"primitives":[
				{
					"attributes":{
						"POSITION":0,
						"NORMAL":1,
						"TEXCOORD_0":2,
						"TANGENT":3
					},
					"indices":4,
					"material":0
				}
			]
		},
		{
			"name":"Cylinder.408",
			"primitives":[
				{
					"attributes":{
						"POSITION":5,
						"NORMAL":6,
						"TEXCOORD_0":7
					},
					"indices":8,
					"material":0
				},
				{
					"attributes":{
						"POSITION":9,
						"NORMAL":10,
						"TEXCOORD_0":11
					},
					"indices":12,
					"material":0
				}
			]
		},
		{
			"name":"Cylinder.409",
			"primitives":[
				{
					"attributes":{
						"POSITION":13,
						"NORMAL":14,
						"TEXCOORD_0":15
					},
					"indices":16,
					"material":0
				}
			]
		},
		{
			"name":"Cylinder.410",
			"primitives":[
				{
					"attributes":{
						"POSITION":17,
						"NORMAL":18,
						"TEXCOORD_0":19
					},
					"indices":20,
					"material":0
				},
				{
					"attributes":{
						"POSITION":21,
						"NORMAL":22,
						"TEXCOORD_0":23
					},
					"indices":24,
					"material":0
				}
			]
		}
	],
	"textures":[
		{
			"sampler":0,
			"source":0
		}
	],
	"images":[
		{
			"mimeType":"image/png",
			"name":"AvatarWearables_TX",
			"uri":"tex/AvatarWearables_TX.png"
		}
	],
	"accessors":[
		{
			"bufferView":0,
			"componentType":5126,
			"count":62,
			"max":[
				0.5080312490463257,
				-14.567778587341309,
				0.5080313682556152
			],
			"min":[
				-0.5080313682556152,
				-14.900496482849121,
				-0.41324806213378906
			],
			"type":"VEC3"
		},
		{
			"bufferView":1,
			"componentType":5126,
			"count":62,
			"type":"VEC3"
		},
		{
			"bufferView":2,
			"componentType":5126,
			"count":62,
			"type":"VEC2"
		},
		{
			"bufferView":3,
			"componentType":5126,
			"count":62,
			"type":"VEC4"
		},
		{
			"bufferView":4,
			"componentType":5123,
			"count":192,
			"type":"SCALAR"
		},
		{
			"bufferView":5,
			"componentType":5126,
			"count":39,
			"max":[
				1.336465835571289,
				-6.355889320373535,
				4
			],
			"min":[
				-1.2934812307357788,
				-14.538495063781738,
				3.4817147254943848
			],
			"type":"VEC3"
		},
		{
			"bufferView":6,
			"componentType":5126,
			"count":39,
			"type":"VEC3"
		},
		{
			"bufferView":7,
			"componentType":5126,
			"count":39,
			"type":"VEC2"
		},
		{
			"bufferView":8,
			"componentType":5123,
			"count":141,
			"type":"SCALAR"
		},
		{
			"bufferView":9,
			"componentType":5126,
			"count":17,
			"max":[
				1.336465835571289,
				-6.355889320373535,
				4
			],
			"min":[
				-1.2934812307357788,
				-14.538495063781738,
				4
			],
			"type":"VEC3"
		},
		{
			"bufferView":10,
			"componentType":5126,
			"count":17,
			"type":"VEC3"
		},
		{
			"bufferView":11,
			"componentType":5126,
			"count":17,
			"type":"VEC2"
		},
		{
			"bufferView":12,
			"componentType":5123,
			"count":45,
			"type":"SCALAR"
		},
		{
			"bufferView":13,
			"componentType":5126,
			"count":58,
			"max":[
				2.8078930377960205,
				-0.5383024215698242,
				4
			],
			"min":[
				-2.0196738243103027,
				-5.802887916564941,
				1.7780981063842773
			],
			"type":"VEC3"
		},
		{
			"bufferView":14,
			"componentType":5126,
			"count":58,
			"type":"VEC3"
		},
		{
			"bufferView":15,
			"componentType":5126,
			"count":58,
			"type":"VEC2"
		},
		{
			"bufferView":16,
			"componentType":5123,
			"count":84,
			"type":"SCALAR"
		},
		{
			"bufferView":17,
			"componentType":5126,
			"count":57,
			"max":[
				-0.7077925205230713,
				-8.441469192504883,
				4
			],
			"min":[
				-2.5880730152130127,
				-10.565407752990723,
				2.9438581466674805
			],
			"type":"VEC3"
		},
		{
			"bufferView":18,
			"componentType":5126,
			"count":57,
			"type":"VEC3"
		},
		{
			"bufferView":19,
			"componentType":5126,
			"count":57,
			"type":"VEC2"
		},
		{
			"bufferView":20,
			"componentType":5123,
			"count":69,
			"type":"SCALAR"
		},
		{
			"bufferView":21,
			"componentType":5126,
			"count":11,
			"max":[
				-0.7077925205230713,
				-8.517529487609863,
				4
			],
			"min":[
				-2.5431716442108154,
				-10.482205390930176,
				4
			],
			"type":"VEC3"
		},
		{
			"bufferView":22,
			"componentType":5126,
			"count":11,
			"type":"VEC3"
		},
		{
			"bufferView":23,
			"componentType":5126,
			"count":11,
			"type":"VEC2"
		},
		{
			"bufferView":24,
			"componentType":5123,
			"count":27,
			"type":"SCALAR"
		}
	],
	"bufferViews":[
		{
			"buffer":0,
			"byteLength":744,
			"byteOffset":0,
			"target":34962
		},
		{
			"buffer":0,
			"byteLength":744,
			"byteOffset":744,
			"target":34962
		},
		{
			"buffer":0,
			"byteLength":496,
			"byteOffset":1488,
			"target":34962
		},
		{
			"buffer":0,
			"byteLength":992,
			"byteOffset":1984,
			"target":34962
		},
		{
			"buffer":0,
			"byteLength":384,
			"byteOffset":2976,
			"target":34963
		},
		{
			"buffer":0,
			"byteLength":468,
			"byteOffset":3360,
			"target":34962
		},
		{
			"buffer":0,
			"byteLength":468,
			"byteOffset":3828,
			"target":34962
		},
		{
			"buffer":0,
			"byteLength":312,
			"byteOffset":4296,
			"target":34962
		},
		{
			"buffer":0,
			"byteLength":282,
			"byteOffset":4608,
			"target":34963
		},
		{
			"buffer":0,
			"byteLength":204,
			"byteOffset":4892,
			"target":34962
		},
		{
			"buffer":0,
			"byteLength":204,
			"byteOffset":5096,
			"target":34962
		},
		{
			"buffer":0,
			"byteLength":136,
			"byteOffset":5300,
			"target":34962
		},
		{
			"buffer":0,
			"byteLength":90,
			"byteOffset":5436,
			"target":34963
		},
		{
			"buffer":0,
			"byteLength":696,
			"byteOffset":5528,
			"target":34962
		},
		{
			"buffer":0,
			"byteLength":696,
			"byteOffset":6224,
			"target":34962
		},
		{
			"buffer":0,
			"byteLength":464,
			"byteOffset":6920,
			"target":34962
		},
		{
			"buffer":0,
			"byteLength":168,
			"byteOffset":7384,
			"target":34963
		},
		{
			"buffer":0,
			"byteLength":684,
			"byteOffset":7552,
			"target":34962
		},
		{
			"buffer":0,
			"byteLength":684,
			"byteOffset":8236,
			"target":34962
		},
		{
			"buffer":0,
			"byteLength":456,
			"byteOffset":8920,
			"target":34962
		},
		{
			"buffer":0,
			"byteLength":138,
			"byteOffset":9376,
			"target":34963
		},
		{
			"buffer":0,
			"byteLength":132,
			"byteOffset":9516,
			"target":34962
		},
		{
			"buffer":0,
			"byteLength":132,
			"byteOffset":9648,
			"target":34962
		},
		{
			"buffer":0,
			"byteLength":88,
			"byteOffset":9780,
			"target":34962
		},
		{
			"buffer":0,
			"byteLength":54,
			"byteOffset":9868,
			"target":34963
		}
	],
	"samplers":[
		{
			"magFilter":9729,
			"minFilter":9987
		}
	],
	"buffers":[
		{
			"byteLength":9924,
			"uri":"tile_10_0_11.bin"
		}
	]
}
