{
	"asset":{
		"generator":"Khronos glTF Blender I/O v4.0.44",
		"version":"2.0"
	},
	"extensionsUsed":[
		"KHR_materials_specular",
		"KHR_materials_ior",
		"KHR_materials_emissive_strength"
	],
	"scene":0,
	"scenes":[
		{
			"name":"Scene",
			"nodes":[
				0,
				1,
				2
			]
		}
	],
	"nodes":[
		{
			"mesh":0,
			"name":"Plane",
			"scale":[
				7.873531341552734,
				0.9841914176940918,
				7.873531341552734
			]
		},
		{
			"mesh":1,
			"name":"track.052",
			"scale":[
				3.7706682682037354,
				3.7706682682037354,
				3.7706682682037354
			]
		},
		{
			"mesh":2,
			"name":"Cube.012",
			"rotation":[
				0,
				-0.4193370044231415,
				0,
				0.9078306555747986
			],
			"scale":[
				2.2909789085388184,
				3.6719183921813965,
				2.2909789085388184
			]
		}
	],
	"materials":[
		{
			"doubleSided":true,
			"extensions":{
				"KHR_materials_specular":{
					"specularColorFactor":[
						2.0,
						2.0,
						2.0
					]
				},
				"KHR_materials_ior":{
					"ior":1.4500000476837158
				}
			},
			"name":"building",
			"pbrMetallicRoughness":{
				"baseColorTexture":{
					"index":0
				},
				"metallicFactor":0
			}
		},
		{
			"doubleSided":true,
			"extensions":{
				"KHR_materials_specular":{
					"specularColorFactor":[
						2.0,
						2.0,
						2.0
					]
				},
				"KHR_materials_ior":{
					"ior":1.4500000476837158
				}
			},
			"name":"building2",
			"pbrMetallicRoughness":{
				"baseColorTexture":{
					"index":1
				},
				"metallicFactor":0,
				"roughnessFactor":0.17924527823925018
			}
		},
		{
			"doubleSided":true,
			"emissiveFactor":[
				1,
				0.2655798013274177,
				0.04142626284219435
			],
			"extensions":{
				"KHR_materials_emissive_strength":{
					"emissiveStrength":1.5982129573822021
				}
			},
			"name":"Glow1",
			"pbrMetallicRoughness":{
				"baseColorFactor":[
					0.8008996248245239,
					0.21048900485038757,
					0.033567022532224655,
					1
				],
				"metallicFactor":0
			}
		}
	],
	"meshes":[
		{
			"name":"Plane.756",
			"primitives":[
				{
					"attributes":{
						"POSITION":0,
						"NORMAL":1,
						"TEXCOORD_0":2
					},
					"indices":3,
					"material":0
				}
			]
		},
		{
			"name":"Plane.757",
			"primitives":[
				{
					"attributes":{
						"POSITION":4,
						"NORMAL":5,
						"TEXCOORD_0":6
					},
					"indices":7,
					"material":0
				}
			]
		},
		{
			"name":"Cube.549",
			"primitives":[
				{
					"attributes":{
						"POSITION":8,
						"NORMAL":9,
						"TEXCOORD_0":10
					},
					"indices":11,
					"material":1
				},
				{
					"attributes":{
						"POSITION":12,
						"NORMAL":13,
						"TEXCOORD_0":14
					},
					"indices":15,
					"material":2
				}
			]
		}
	],
	"textures":[
		{
			"sampler":0,
			"source":0
		},
		{
			"sampler":0,
			"source":0
		}
	],
	"images":[
		{
			"mimeType":"image/png",
			"name":"AvatarWearables_TX",
			"uri":"tex/AvatarWearables_TX.png"
		}
	],
	"accessors":[
		{
			"bufferView":0,
			"componentType":5126,
			"count":69,
			"max":[
				0.5080313682556152,
				-14.901280403137207,
				0.5080304145812988
			],
			"min":[
				-0.5080313682556152,
				-15.406990051269531,
				-0.5080322027206421
			],
			"type":"VEC3"
		},
		{
			"bufferView":1,
			"componentType":5126,
			"count":69,
			"type":"VEC3"
		},
		{
			"bufferView":2,
			"componentType":5126,
			"count":69,
			"type":"VEC2"
		},
		{
			"bufferView":3,
			"componentType":5123,
			"count":216,
			"type":"SCALAR"
		},
		{
			"bufferView":4,
			"componentType":5126,
			"count":24,
			"max":[
				1.0608186721801758,
				-3.356280565261841,
				-0.8628904819488525
			],
			"min":[
				0.5800132751464844,
				-3.6244633197784424,
				-1.0608189105987549
			],
			"type":"VEC3"
		},
		{
			"bufferView":5,
			"componentType":5126,
			"count":24,
			"type":"VEC3"
		},
		{
			"bufferView":6,
			"componentType":5126,
			"count":24,
			"type":"VEC2"
		},
		{
			"bufferView":7,
			"componentType":5123,
			"count":42,
			"type":"SCALAR"
		},
		{
			"bufferView":8,
			"componentType":5126,
			"count":4005,
			"max":[
				0.6660851240158081,
				0.012632608413696289,
				2.461282968521118
			],
			"min":[
				-1.5154794454574585,
				-3.978749990463257,
				0.2718977928161621
			],
			"type":"VEC3"
		},
		{
			"bufferView":9,
			"componentType":5126,
			"count":4005,
			"type":"VEC3"
		},
		{
			"bufferView":10,
			"componentType":5126,
			"count":4005,
			"type":"VEC2"
		},
		{
			"bufferView":11,
			"componentType":5123,
			"count":7626,
			"type":"SCALAR"
		},
		{
			"bufferView":12,
			"componentType":5126,
			"count":620,
			"max":[
				0.6660870313644409,
				0.012632608413696289,
				2.0709621906280518
			],
			"min":[
				-1.5154775381088257,
				-3.690941333770752,
				0.2718977928161621
			],
			"type":"VEC3"
		},
		{
			"bufferView":13,
			"componentType":5126,
			"count":620,
			"type":"VEC3"
		},
		{
			"bufferView":14,
			"componentType":5126,
			"count":620,
			"type":"VEC2"
		},
		{
			"bufferView":15,
			"componentType":5123,
			"count":1056,
			"type":"SCALAR"
		}
	],
	"bufferViews":[
		{
			"buffer":0,
			"byteLength":828,
			"byteOffset":0,
			"target":34962
		},
		{
			"buffer":0,
			"byteLength":828,
			"byteOffset":828,
			"target":34962
		},
		{
			"buffer":0,
			"byteLength":552,
			"byteOffset":1656,
			"target":34962
		},
		{
			"buffer":0,
			"byteLength":432,
			"byteOffset":2208,
			"target":34963
		},
		{
			"buffer":0,
			"byteLength":288,
			"byteOffset":2640,
			"target":34962
		},
		{
			"buffer":0,
			"byteLength":288,
			"byteOffset":2928,
			"target":34962
		},
		{
			"buffer":0,
			"byteLength":192,
			"byteOffset":3216,
			"target":34962
		},
		{
			"buffer":0,
			"byteLength":84,
			"byteOffset":3408,
			"target":34963
		},
		{
			"buffer":0,
			"byteLength":48060,
			"byteOffset":3492,
			"target":34962
		},
		{
			"buffer":0,
			"byteLength":48060,
			"byteOffset":51552,
			"target":34962
		},
		{
			"buffer":0,
			"byteLength":32040,
			"byteOffset":99612,
			"target":34962
		},
		{
			"buffer":0,
			"byteLength":15252,
			"byteOffset":131652,
			"target":34963
		},
		{
			"buffer":0,
			"byteLength":7440,
			"byteOffset":146904,
			"target":34962
		},
		{
			"buffer":0,
			"byteLength":7440,
			"byteOffset":154344,
			"target":34962
		},
		{
			"buffer":0,
			"byteLength":4960,
			"byteOffset":161784,
			"target":34962
		},
		{
			"buffer":0,
			"byteLength":2112,
			"byteOffset":166744,
			"target":34963
		}
	],
	"samplers":[
		{
			"magFilter":9729,
			"minFilter":9987
		}
	],
	"buffers":[
		{
			"byteLength":168856,
			"uri":"tile_4_0_4.bin"
		}
	]
}
