{
	"asset":{
		"generator":"Khronos glTF Blender I/O v4.0.44",
		"version":"2.0"
	},
	"extensionsUsed":[
		"KHR_materials_specular",
		"KHR_materials_ior"
	],
	"scene":0,
	"scenes":[
		{
			"name":"Scene",
			"nodes":[
				0,
				1,
				2,
				3
			]
		}
	],
	"nodes":[
		{
			"mesh":0,
			"name":"Plane",
			"scale":[
				7.873531341552734,
				0.9841914176940918,
				7.873531341552734
			]
		},
		{
			"mesh":1,
			"name":"track.038",
			"scale":[
				3.7706682682037354,
				3.7706682682037354,
				3.7706682682037354
			]
		},
		{
			"mesh":2,
			"name":"Torus.005",
			"rotation":[
				0,
				0.46944674849510193,
				0,
				0.8829607963562012
			],
			"scale":[
				3.423175096511841,
				13.408893585205078,
				3.423175096511841
			]
		},
		{
			"name":"Cylinder.003",
			"scale":[
				1.741005539894104,
				11.939791679382324,
				1.741005539894104
			]
		}
	],
	"materials":[
		{
			"doubleSided":true,
			"extensions":{
				"KHR_materials_specular":{
					"specularColorFactor":[
						2.0,
						2.0,
						2.0
					]
				},
				"KHR_materials_ior":{
					"ior":1.4500000476837158
				}
			},
			"name":"building",
			"pbrMetallicRoughness":{
				"baseColorTexture":{
					"index":0
				},
				"metallicFactor":0
			}
		},
		{
			"doubleSided":true,
			"extensions":{
				"KHR_materials_specular":{
					"specularColorFactor":[
						2.0,
						2.0,
						2.0
					]
				},
				"KHR_materials_ior":{
					"ior":1.4500000476837158
				}
			},
			"name":"building2",
			"pbrMetallicRoughness":{
				"baseColorTexture":{
					"index":1
				},
				"metallicFactor":0,
				"roughnessFactor":0.17924527823925018
			}
		},
		{
			"doubleSided":true,
			"emissiveFactor":[
				1,
				1,
				1
			],
			"name":"Glow2.001",
			"pbrMetallicRoughness":{
				"baseColorFactor":[
					0.800000011920929,
					0.800000011920929,
					0.800000011920929,
					1
				],
				"metallicFactor":0,
				"roughnessFactor":0.5
			}
		}
	],
	"meshes":[
		{
			"name":"Plane.728",
			"primitives":[
				{
					"attributes":{
						"POSITION":0,
						"NORMAL":1,
						"TEXCOORD_0":2,
						"TANGENT":3
					},
					"indices":4,
					"material":0
				}
			]
		},
		{
			"name":"Plane.729",
			"primitives":[
				{
					"attributes":{
						"POSITION":5,
						"NORMAL":6,
						"TEXCOORD_0":7
					},
					"indices":8,
					"material":0
				},
				{
					"attributes":{
						"POSITION":9,
						"NORMAL":10,
						"TEXCOORD_0":11
					},
					"indices":12,
					"material":0
				}
			]
		},
		{
			"name":"Torus.059",
			"primitives":[
				{
					"attributes":{
						"POSITION":13,
						"NORMAL":14,
						"TEXCOORD_0":15
					},
					"indices":16,
					"material":1
				},
				{
					"attributes":{
						"POSITION":17,
						"NORMAL":18,
						"TEXCOORD_0":19
					},
					"indices":20,
					"material":2
				}
			]
		}
	],
	"textures":[
		{
			"sampler":0,
			"source":0
		},
		{
			"sampler":0,
			"source":0
		}
	],
	"images":[
		{
			"mimeType":"image/png",
			"name":"AvatarWearables_TX",
			"uri":"tex/AvatarWearables_TX.png"
		}
	],
	"accessors":[
		{
			"bufferView":0,
			"componentType":5126,
			"count":36,
			"max":[
				0.5080301761627197,
				-14.900496482849121,
				0.5080311298370361
			],
			"min":[
				-0.5080316066741943,
				-14.900496482849121,
				-0.5080316066741943
			],
			"type":"VEC3"
		},
		{
			"bufferView":1,
			"componentType":5126,
			"count":36,
			"type":"VEC3"
		},
		{
			"bufferView":2,
			"componentType":5126,
			"count":36,
			"type":"VEC2"
		},
		{
			"bufferView":3,
			"componentType":5126,
			"count":36,
			"type":"VEC4"
		},
		{
			"bufferView":4,
			"componentType":5123,
			"count":150,
			"type":"SCALAR"
		},
		{
			"bufferView":5,
			"componentType":5126,
			"count":60,
			"max":[
				1.0608196258544922,
				-3.54543137550354,
				1.0608196258544922
			],
			"min":[
				-1.0608196258544922,
				-4.107331275939941,
				-0.9913220405578613
			],
			"type":"VEC3"
		},
		{
			"bufferView":6,
			"componentType":5126,
			"count":60,
			"type":"VEC3"
		},
		{
			"bufferView":7,
			"componentType":5126,
			"count":60,
			"type":"VEC2"
		},
		{
			"bufferView":8,
			"componentType":5123,
			"count":90,
			"type":"SCALAR"
		},
		{
			"bufferView":9,
			"componentType":5126,
			"count":20,
			"max":[
				1.0608196258544922,
				-3.54543137550354,
				1.0608196258544922
			],
			"min":[
				-1.0608196258544922,
				-4.243279933929443,
				-0.9913220405578613
			],
			"type":"VEC3"
		},
		{
			"bufferView":10,
			"componentType":5126,
			"count":20,
			"type":"VEC3"
		},
		{
			"bufferView":11,
			"componentType":5126,
			"count":20,
			"type":"VEC2"
		},
		{
			"bufferView":12,
			"componentType":5123,
			"count":42,
			"type":"SCALAR"
		},
		{
			"bufferView":13,
			"componentType":5126,
			"count":538,
			"max":[
				1.523425817489624,
				-0.6112961173057556,
				0.8318098187446594
			],
			"min":[
				0.8136705160140991,
				-1.108557105064392,
				-0.2648215889930725
			],
			"type":"VEC3"
		},
		{
			"bufferView":14,
			"componentType":5126,
			"count":538,
			"type":"VEC3"
		},
		{
			"bufferView":15,
			"componentType":5126,
			"count":538,
			"type":"VEC2"
		},
		{
			"bufferView":16,
			"componentType":5123,
			"count":984,
			"type":"SCALAR"
		},
		{
			"bufferView":17,
			"componentType":5126,
			"count":112,
			"max":[
				1.511908769607544,
				-0.6338456869125366,
				0.822489857673645
			],
			"min":[
				0.829613447189331,
				-1.0655674934387207,
				-0.2513164281845093
			],
			"type":"VEC3"
		},
		{
			"bufferView":18,
			"componentType":5126,
			"count":112,
			"type":"VEC3"
		},
		{
			"bufferView":19,
			"componentType":5126,
			"count":112,
			"type":"VEC2"
		},
		{
			"bufferView":20,
			"componentType":5123,
			"count":168,
			"type":"SCALAR"
		}
	],
	"bufferViews":[
		{
			"buffer":0,
			"byteLength":432,
			"byteOffset":0,
			"target":34962
		},
		{
			"buffer":0,
			"byteLength":432,
			"byteOffset":432,
			"target":34962
		},
		{
			"buffer":0,
			"byteLength":288,
			"byteOffset":864,
			"target":34962
		},
		{
			"buffer":0,
			"byteLength":576,
			"byteOffset":1152,
			"target":34962
		},
		{
			"buffer":0,
			"byteLength":300,
			"byteOffset":1728,
			"target":34963
		},
		{
			"buffer":0,
			"byteLength":720,
			"byteOffset":2028,
			"target":34962
		},
		{
			"buffer":0,
			"byteLength":720,
			"byteOffset":2748,
			"target":34962
		},
		{
			"buffer":0,
			"byteLength":480,
			"byteOffset":3468,
			"target":34962
		},
		{
			"buffer":0,
			"byteLength":180,
			"byteOffset":3948,
			"target":34963
		},
		{
			"buffer":0,
			"byteLength":240,
			"byteOffset":4128,
			"target":34962
		},
		{
			"buffer":0,
			"byteLength":240,
			"byteOffset":4368,
			"target":34962
		},
		{
			"buffer":0,
			"byteLength":160,
			"byteOffset":4608,
			"target":34962
		},
		{
			"buffer":0,
			"byteLength":84,
			"byteOffset":4768,
			"target":34963
		},
		{
			"buffer":0,
			"byteLength":6456,
			"byteOffset":4852,
			"target":34962
		},
		{
			"buffer":0,
			"byteLength":6456,
			"byteOffset":11308,
			"target":34962
		},
		{
			"buffer":0,
			"byteLength":4304,
			"byteOffset":17764,
			"target":34962
		},
		{
			"buffer":0,
			"byteLength":1968,
			"byteOffset":22068,
			"target":34963
		},
		{
			"buffer":0,
			"byteLength":1344,
			"byteOffset":24036,
			"target":34962
		},
		{
			"buffer":0,
			"byteLength":1344,
			"byteOffset":25380,
			"target":34962
		},
		{
			"buffer":0,
			"byteLength":896,
			"byteOffset":26724,
			"target":34962
		},
		{
			"buffer":0,
			"byteLength":336,
			"byteOffset":27620,
			"target":34963
		}
	],
	"samplers":[
		{
			"magFilter":9729,
			"minFilter":9987
		}
	],
	"buffers":[
		{
			"byteLength":27956,
			"uri":"tile_3_0_2.bin"
		}
	]
}
