{
	"asset":{
		"generator":"Khronos glTF Blender I/O v4.0.44",
		"version":"2.0"
	},
	"extensionsUsed":[
		"KHR_materials_specular",
		"KHR_materials_ior",
		"KHR_materials_emissive_strength"
	],
	"scene":0,
	"scenes":[
		{
			"name":"Scene",
			"nodes":[
				0,
				1,
				2,
				3
			]
		}
	],
	"nodes":[
		{
			"name":"Plane",
			"scale":[
				7.873531341552734,
				0.9841914176940918,
				7.873531341552734
			]
		},
		{
			"name":"Cube",
			"rotation":[
				0,
				0.3507235050201416,
				0,
				0.9364790320396423
			],
			"scale":[
				2.5203466415405273,
				2.5203466415405273,
				2.5203466415405273
			]
		},
		{
			"mesh":0,
			"name":"Cube.012",
			"rotation":[
				0,
				-0.4193370044231415,
				0,
				0.9078306555747986
			],
			"scale":[
				2.2909789085388184,
				3.6719183921813965,
				2.2909789085388184
			]
		},
		{
			"mesh":1,
			"name":"Cylinder.003",
			"scale":[
				1.741005539894104,
				11.939791679382324,
				1.741005539894104
			]
		}
	],
	"materials":[
		{
			"doubleSided":true,
			"extensions":{
				"KHR_materials_specular":{
					"specularColorFactor":[
						2.0,
						2.0,
						2.0
					]
				},
				"KHR_materials_ior":{
					"ior":1.4500000476837158
				}
			},
			"name":"building2",
			"pbrMetallicRoughness":{
				"baseColorTexture":{
					"index":0
				},
				"metallicFactor":0,
				"roughnessFactor":0.17924527823925018
			}
		},
		{
			"doubleSided":true,
			"emissiveFactor":[
				1,
				0.2655798013274177,
				0.04142626284219435
			],
			"extensions":{
				"KHR_materials_emissive_strength":{
					"emissiveStrength":1.5982129573822021
				}
			},
			"name":"Glow1",
			"pbrMetallicRoughness":{
				"baseColorFactor":[
					0.8008996248245239,
					0.21048900485038757,
					0.033567022532224655,
					1
				],
				"metallicFactor":0
			}
		},
		{
			"doubleSided":true,
			"extensions":{
				"KHR_materials_specular":{
					"specularColorFactor":[
						2.0,
						2.0,
						2.0
					]
				},
				"KHR_materials_ior":{
					"ior":1.4500000476837158
				}
			},
			"name":"building",
			"pbrMetallicRoughness":{
				"baseColorTexture":{
					"index":1
				},
				"metallicFactor":0
			}
		},
		{
			"doubleSided":true,
			"emissiveFactor":[
				0.09784298909313212,
				1,
				0.08569416583338194
			],
			"extensions":{
				"KHR_materials_emissive_strength":{
					"emissiveStrength":1.5982129573822021
				}
			},
			"name":"Glow4",
			"pbrMetallicRoughness":{
				"baseColorFactor":[
					0.078976109623909,
					0.8012131452560425,
					0.06799241155385971,
					1
				],
				"metallicFactor":0
			}
		}
	],
	"meshes":[
		{
			"name":"Cube.012",
			"primitives":[
				{
					"attributes":{
						"POSITION":0,
						"NORMAL":1,
						"TEXCOORD_0":2
					},
					"indices":3,
					"material":0
				},
				{
					"attributes":{
						"POSITION":4,
						"NORMAL":5,
						"TEXCOORD_0":6
					},
					"indices":7,
					"material":1
				},
				{
					"attributes":{
						"POSITION":8,
						"NORMAL":9,
						"TEXCOORD_0":10
					},
					"indices":11,
					"material":1
				}
			]
		},
		{
			"name":"Cylinder.022",
			"primitives":[
				{
					"attributes":{
						"POSITION":12,
						"NORMAL":13,
						"TEXCOORD_0":14
					},
					"indices":15,
					"material":2
				},
				{
					"attributes":{
						"POSITION":16,
						"NORMAL":17,
						"TEXCOORD_0":18
					},
					"indices":19,
					"material":3
				}
			]
		}
	],
	"textures":[
		{
			"sampler":0,
			"source":0
		},
		{
			"sampler":0,
			"source":0
		}
	],
	"images":[
		{
			"mimeType":"image/png",
			"name":"AvatarWearables_TX",
			"uri":"tex/AvatarWearables_TX.png"
		}
	],
	"accessors":[
		{
			"bufferView":0,
			"componentType":5126,
			"count":42,
			"max":[
				0.07387948036193848,
				-2.1660656929016113,
				-1.0835866928100586
			],
			"min":[
				-2.1076855659484863,
				-2.1786980628967285,
				-3.2651491165161133
			],
			"type":"VEC3"
		},
		{
			"bufferView":1,
			"componentType":5126,
			"count":42,
			"type":"VEC3"
		},
		{
			"bufferView":2,
			"componentType":5126,
			"count":42,
			"type":"VEC2"
		},
		{
			"bufferView":3,
			"componentType":5123,
			"count":108,
			"type":"SCALAR"
		},
		{
			"bufferView":4,
			"componentType":5126,
			"count":45,
			"max":[
				0.07388138771057129,
				-2.1660656929016113,
				-1.0835866928100586
			],
			"min":[
				-2.1076836585998535,
				-2.1786980628967285,
				-3.273902416229248
			],
			"type":"VEC3"
		},
		{
			"bufferView":5,
			"componentType":5126,
			"count":45,
			"type":"VEC3"
		},
		{
			"bufferView":6,
			"componentType":5126,
			"count":45,
			"type":"VEC2"
		},
		{
			"bufferView":7,
			"componentType":5123,
			"count":111,
			"type":"SCALAR"
		},
		{
			"bufferView":8,
			"componentType":5126,
			"count":54,
			"max":[
				0.07388031482696533,
				-2.1660656929016113,
				-1.0835866928100586
			],
			"min":[
				-2.1076855659484863,
				-2.1786980628967285,
				-3.273902416229248
			],
			"type":"VEC3"
		},
		{
			"bufferView":9,
			"componentType":5126,
			"count":54,
			"type":"VEC3"
		},
		{
			"bufferView":10,
			"componentType":5126,
			"count":54,
			"type":"VEC2"
		},
		{
			"bufferView":11,
			"componentType":5123,
			"count":150,
			"type":"SCALAR"
		},
		{
			"bufferView":12,
			"componentType":5126,
			"count":74,
			"max":[
				4.595045566558838,
				0.03538703918457031,
				-0.08847284317016602
			],
			"min":[
				4.5569634437561035,
				-0.6479483842849731,
				-0.47137758135795593
			],
			"type":"VEC3"
		},
		{
			"bufferView":13,
			"componentType":5126,
			"count":74,
			"type":"VEC3"
		},
		{
			"bufferView":14,
			"componentType":5126,
			"count":74,
			"type":"VEC2"
		},
		{
			"bufferView":15,
			"componentType":5123,
			"count":213,
			"type":"SCALAR"
		},
		{
			"bufferView":16,
			"componentType":5126,
			"count":59,
			"max":[
				4.595045566558838,
				0.03538703918457031,
				-0.08847284317016602
			],
			"min":[
				4.595045566558838,
				-0.6479483842849731,
				-0.47137758135795593
			],
			"type":"VEC3"
		},
		{
			"bufferView":17,
			"componentType":5126,
			"count":59,
			"type":"VEC3"
		},
		{
			"bufferView":18,
			"componentType":5126,
			"count":59,
			"type":"VEC2"
		},
		{
			"bufferView":19,
			"componentType":5123,
			"count":141,
			"type":"SCALAR"
		}
	],
	"bufferViews":[
		{
			"buffer":0,
			"byteLength":504,
			"byteOffset":0,
			"target":34962
		},
		{
			"buffer":0,
			"byteLength":504,
			"byteOffset":504,
			"target":34962
		},
		{
			"buffer":0,
			"byteLength":336,
			"byteOffset":1008,
			"target":34962
		},
		{
			"buffer":0,
			"byteLength":216,
			"byteOffset":1344,
			"target":34963
		},
		{
			"buffer":0,
			"byteLength":540,
			"byteOffset":1560,
			"target":34962
		},
		{
			"buffer":0,
			"byteLength":540,
			"byteOffset":2100,
			"target":34962
		},
		{
			"buffer":0,
			"byteLength":360,
			"byteOffset":2640,
			"target":34962
		},
		{
			"buffer":0,
			"byteLength":222,
			"byteOffset":3000,
			"target":34963
		},
		{
			"buffer":0,
			"byteLength":648,
			"byteOffset":3224,
			"target":34962
		},
		{
			"buffer":0,
			"byteLength":648,
			"byteOffset":3872,
			"target":34962
		},
		{
			"buffer":0,
			"byteLength":432,
			"byteOffset":4520,
			"target":34962
		},
		{
			"buffer":0,
			"byteLength":300,
			"byteOffset":4952,
			"target":34963
		},
		{
			"buffer":0,
			"byteLength":888,
			"byteOffset":5252,
			"target":34962
		},
		{
			"buffer":0,
			"byteLength":888,
			"byteOffset":6140,
			"target":34962
		},
		{
			"buffer":0,
			"byteLength":592,
			"byteOffset":7028,
			"target":34962
		},
		{
			"buffer":0,
			"byteLength":426,
			"byteOffset":7620,
			"target":34963
		},
		{
			"buffer":0,
			"byteLength":708,
			"byteOffset":8048,
			"target":34962
		},
		{
			"buffer":0,
			"byteLength":708,
			"byteOffset":8756,
			"target":34962
		},
		{
			"buffer":0,
			"byteLength":472,
			"byteOffset":9464,
			"target":34962
		},
		{
			"buffer":0,
			"byteLength":282,
			"byteOffset":9936,
			"target":34963
		}
	],
	"samplers":[
		{
			"magFilter":9729,
			"minFilter":9987
		}
	],
	"buffers":[
		{
			"byteLength":10220,
			"uri":"tile_1_2_1.bin"
		}
	]
}
