{
	"asset":{
		"generator":"Khronos glTF Blender I/O v4.0.44",
		"version":"2.0"
	},
	"extensionsUsed":[
		"KHR_materials_specular",
		"KHR_materials_ior"
	],
	"scene":0,
	"scenes":[
		{
			"name":"Scene",
			"nodes":[
				0,
				1
			]
		}
	],
	"nodes":[
		{
			"mesh":0,
			"name":"Plane",
			"scale":[
				7.873531341552734,
				0.9841914176940918,
				7.873531341552734
			]
		},
		{
			"mesh":1,
			"name":"Plane.001",
			"scale":[
				3.7706682682037354,
				3.7706682682037354,
				3.7706682682037354
			]
		}
	],
	"materials":[
		{
			"doubleSided":true,
			"extensions":{
				"KHR_materials_specular":{
					"specularColorFactor":[
						2.0,
						2.0,
						2.0
					]
				},
				"KHR_materials_ior":{
					"ior":1.4500000476837158
				}
			},
			"name":"building",
			"pbrMetallicRoughness":{
				"baseColorTexture":{
					"index":0
				},
				"metallicFactor":0
			}
		}
	],
	"meshes":[
		{
			"name":"Plane.008",
			"primitives":[
				{
					"attributes":{
						"POSITION":0,
						"NORMAL":1,
						"TEXCOORD_0":2,
						"TANGENT":3
					},
					"indices":4,
					"material":0
				},
				{
					"attributes":{
						"POSITION":5,
						"NORMAL":6,
						"TEXCOORD_0":7,
						"TANGENT":8
					},
					"indices":9,
					"material":0
				}
			]
		},
		{
			"name":"Plane.009",
			"primitives":[
				{
					"attributes":{
						"POSITION":10,
						"NORMAL":11,
						"TEXCOORD_0":12
					},
					"indices":13,
					"material":0
				},
				{
					"attributes":{
						"POSITION":14,
						"NORMAL":15,
						"TEXCOORD_0":16
					},
					"indices":17,
					"material":0
				}
			]
		}
	],
	"textures":[
		{
			"sampler":0,
			"source":0
		}
	],
	"images":[
		{
			"mimeType":"image/png",
			"name":"AvatarWearables_TX",
			"uri":"tex/AvatarWearables_TX.png"
		}
	],
	"accessors":[
		{
			"bufferView":0,
			"componentType":5126,
			"count":130,
			"max":[
				1.0160627365112305,
				-6.4392781257629395,
				1.0160624980926514
			],
			"min":[
				-0.8110675811767578,
				-6.77199649810791,
				-1.0160624980926514
			],
			"type":"VEC3"
		},
		{
			"bufferView":1,
			"componentType":5126,
			"count":130,
			"type":"VEC3"
		},
		{
			"bufferView":2,
			"componentType":5126,
			"count":130,
			"type":"VEC2"
		},
		{
			"bufferView":3,
			"componentType":5126,
			"count":130,
			"type":"VEC4"
		},
		{
			"bufferView":4,
			"componentType":5123,
			"count":540,
			"type":"SCALAR"
		},
		{
			"bufferView":5,
			"componentType":5126,
			"count":8,
			"max":[
				-0.5610675811767578,
				-6.4392781257629395,
				1.0160624980926514
			],
			"min":[
				-0.8110675811767578,
				-6.77199649810791,
				-1.0160624980926514
			],
			"type":"VEC3"
		},
		{
			"bufferView":6,
			"componentType":5126,
			"count":8,
			"type":"VEC3"
		},
		{
			"bufferView":7,
			"componentType":5126,
			"count":8,
			"type":"VEC2"
		},
		{
			"bufferView":8,
			"componentType":5126,
			"count":8,
			"type":"VEC4"
		},
		{
			"bufferView":9,
			"componentType":5123,
			"count":12,
			"type":"SCALAR"
		},
		{
			"bufferView":10,
			"componentType":5126,
			"count":84,
			"max":[
				2.1216392517089844,
				-1.4157958030700684,
				2.1216397285461426
			],
			"min":[
				-0.13361358642578125,
				-1.9856926202774048,
				-2.1216397285461426
			],
			"type":"VEC3"
		},
		{
			"bufferView":11,
			"componentType":5126,
			"count":84,
			"type":"VEC3"
		},
		{
			"bufferView":12,
			"componentType":5126,
			"count":84,
			"type":"VEC2"
		},
		{
			"bufferView":13,
			"componentType":5123,
			"count":126,
			"type":"SCALAR"
		},
		{
			"bufferView":14,
			"componentType":5126,
			"count":30,
			"max":[
				2.1216392517089844,
				-1.4158976078033447,
				2.1216397285461426
			],
			"min":[
				-0.04225730895996094,
				-2.1216397285461426,
				-2.1216397285461426
			],
			"type":"VEC3"
		},
		{
			"bufferView":15,
			"componentType":5126,
			"count":30,
			"type":"VEC3"
		},
		{
			"bufferView":16,
			"componentType":5126,
			"count":30,
			"type":"VEC2"
		},
		{
			"bufferView":17,
			"componentType":5123,
			"count":72,
			"type":"SCALAR"
		}
	],
	"bufferViews":[
		{
			"buffer":0,
			"byteLength":1560,
			"byteOffset":0,
			"target":34962
		},
		{
			"buffer":0,
			"byteLength":1560,
			"byteOffset":1560,
			"target":34962
		},
		{
			"buffer":0,
			"byteLength":1040,
			"byteOffset":3120,
			"target":34962
		},
		{
			"buffer":0,
			"byteLength":2080,
			"byteOffset":4160,
			"target":34962
		},
		{
			"buffer":0,
			"byteLength":1080,
			"byteOffset":6240,
			"target":34963
		},
		{
			"buffer":0,
			"byteLength":96,
			"byteOffset":7320,
			"target":34962
		},
		{
			"buffer":0,
			"byteLength":96,
			"byteOffset":7416,
			"target":34962
		},
		{
			"buffer":0,
			"byteLength":64,
			"byteOffset":7512,
			"target":34962
		},
		{
			"buffer":0,
			"byteLength":128,
			"byteOffset":7576,
			"target":34962
		},
		{
			"buffer":0,
			"byteLength":24,
			"byteOffset":7704,
			"target":34963
		},
		{
			"buffer":0,
			"byteLength":1008,
			"byteOffset":7728,
			"target":34962
		},
		{
			"buffer":0,
			"byteLength":1008,
			"byteOffset":8736,
			"target":34962
		},
		{
			"buffer":0,
			"byteLength":672,
			"byteOffset":9744,
			"target":34962
		},
		{
			"buffer":0,
			"byteLength":252,
			"byteOffset":10416,
			"target":34963
		},
		{
			"buffer":0,
			"byteLength":360,
			"byteOffset":10668,
			"target":34962
		},
		{
			"buffer":0,
			"byteLength":360,
			"byteOffset":11028,
			"target":34962
		},
		{
			"buffer":0,
			"byteLength":240,
			"byteOffset":11388,
			"target":34962
		},
		{
			"buffer":0,
			"byteLength":144,
			"byteOffset":11628,
			"target":34963
		}
	],
	"samplers":[
		{
			"magFilter":9729,
			"minFilter":9987
		}
	],
	"buffers":[
		{
			"byteLength":11772,
			"uri":"tile_0_1_2.bin"
		}
	]
}
