{
	"asset":{
		"generator":"Khronos glTF Blender I/O v4.0.44",
		"version":"2.0"
	},
	"extensionsUsed":[
		"KHR_materials_specular",
		"KHR_materials_ior",
		"KHR_materials_emissive_strength"
	],
	"scene":0,
	"scenes":[
		{
			"name":"Scene",
			"nodes":[
				0,
				1,
				2,
				3
			]
		}
	],
	"nodes":[
		{
			"mesh":0,
			"name":"Plane",
			"scale":[
				7.873531341552734,
				0.9841914176940918,
				7.873531341552734
			]
		},
		{
			"mesh":1,
			"name":"track.275",
			"scale":[
				3.7706682682037354,
				3.7706682682037354,
				3.7706682682037354
			]
		},
		{
			"mesh":2,
			"name":"Cube.002",
			"rotation":[
				0,
				-0.30317404866218567,
				0,
				0.9529352188110352
			],
			"scale":[
				3.3134214878082275,
				3.3134217262268066,
				3.3134214878082275
			]
		},
		{
			"mesh":3,
			"name":"Cylinder.094"
		}
	],
	"materials":[
		{
			"doubleSided":true,
			"extensions":{
				"KHR_materials_specular":{
					"specularColorFactor":[
						2.0,
						2.0,
						2.0
					]
				},
				"KHR_materials_ior":{
					"ior":1.4500000476837158
				}
			},
			"name":"building",
			"pbrMetallicRoughness":{
				"baseColorTexture":{
					"index":0
				},
				"metallicFactor":0
			}
		},
		{
			"doubleSided":true,
			"emissiveFactor":[
				0.0802171136311348,
				0.06480263589233753,
				1
			],
			"extensions":{
				"KHR_materials_emissive_strength":{
					"emissiveStrength":2.0000481605529785
				}
			},
			"name":"Glow5",
			"pbrMetallicRoughness":{
				"baseColorFactor":[
					0.08072357624769211,
					0.06527391821146011,
					1,
					1
				],
				"metallicFactor":0
			}
		}
	],
	"meshes":[
		{
			"name":"Plane.1200",
			"primitives":[
				{
					"attributes":{
						"POSITION":0,
						"NORMAL":1,
						"TEXCOORD_0":2,
						"TANGENT":3
					},
					"indices":4,
					"material":0
				}
			]
		},
		{
			"name":"Plane.1201",
			"primitives":[
				{
					"attributes":{
						"POSITION":5,
						"NORMAL":6,
						"TEXCOORD_0":7
					},
					"indices":8,
					"material":0
				}
			]
		},
		{
			"name":"Cube.692",
			"primitives":[
				{
					"attributes":{
						"POSITION":9,
						"NORMAL":10,
						"TEXCOORD_0":11
					},
					"indices":12,
					"material":0
				},
				{
					"attributes":{
						"POSITION":13,
						"NORMAL":14,
						"TEXCOORD_0":15
					},
					"indices":16,
					"material":1
				},
				{
					"attributes":{
						"POSITION":17,
						"NORMAL":18,
						"TEXCOORD_0":19
					},
					"indices":20,
					"material":1
				}
			]
		},
		{
			"name":"Cylinder.476",
			"primitives":[
				{
					"attributes":{
						"POSITION":21,
						"NORMAL":22,
						"TEXCOORD_0":23
					},
					"indices":24,
					"material":0
				}
			]
		}
	],
	"textures":[
		{
			"sampler":0,
			"source":0
		}
	],
	"images":[
		{
			"mimeType":"image/png",
			"name":"AvatarWearables_TX",
			"uri":"tex/AvatarWearables_TX.png"
		}
	],
	"accessors":[
		{
			"bufferView":0,
			"componentType":5126,
			"count":36,
			"max":[
				0.5080289840698242,
				-14.900496482849121,
				0.5080313682556152
			],
			"min":[
				-0.5080327987670898,
				-14.900496482849121,
				-0.5080313682556152
			],
			"type":"VEC3"
		},
		{
			"bufferView":1,
			"componentType":5126,
			"count":36,
			"type":"VEC3"
		},
		{
			"bufferView":2,
			"componentType":5126,
			"count":36,
			"type":"VEC2"
		},
		{
			"bufferView":3,
			"componentType":5126,
			"count":36,
			"type":"VEC4"
		},
		{
			"bufferView":4,
			"componentType":5123,
			"count":150,
			"type":"SCALAR"
		},
		{
			"bufferView":5,
			"componentType":5126,
			"count":20,
			"max":[
				-0.9370555877685547,
				-3.542109966278076,
				1.0608196258544922
			],
			"min":[
				-1.0608234405517578,
				-3.731595993041992,
				0.771484375
			],
			"type":"VEC3"
		},
		{
			"bufferView":6,
			"componentType":5126,
			"count":20,
			"type":"VEC3"
		},
		{
			"bufferView":7,
			"componentType":5126,
			"count":20,
			"type":"VEC2"
		},
		{
			"bufferView":8,
			"componentType":5123,
			"count":30,
			"type":"SCALAR"
		},
		{
			"bufferView":9,
			"componentType":5126,
			"count":878,
			"max":[
				-0.772551417350769,
				1.4134981632232666,
				0.9980453848838806
			],
			"min":[
				-1.68283212184906,
				-4.483445167541504,
				-0.9321833848953247
			],
			"type":"VEC3"
		},
		{
			"bufferView":10,
			"componentType":5126,
			"count":878,
			"type":"VEC3"
		},
		{
			"bufferView":11,
			"componentType":5126,
			"count":878,
			"type":"VEC2"
		},
		{
			"bufferView":12,
			"componentType":5123,
			"count":1551,
			"type":"SCALAR"
		},
		{
			"bufferView":13,
			"componentType":5126,
			"count":40,
			"max":[
				-0.9743355512619019,
				1.1188695430755615,
				0.4721764624118805
			],
			"min":[
				-1.68283212184906,
				-3.588505744934082,
				-0.43015041947364807
			],
			"type":"VEC3"
		},
		{
			"bufferView":14,
			"componentType":5126,
			"count":40,
			"type":"VEC3"
		},
		{
			"bufferView":15,
			"componentType":5126,
			"count":40,
			"type":"VEC2"
		},
		{
			"bufferView":16,
			"componentType":5123,
			"count":60,
			"type":"SCALAR"
		},
		{
			"bufferView":17,
			"componentType":5126,
			"count":107,
			"max":[
				-0.772551417350769,
				1.4134981632232666,
				0.9980453848838806
			],
			"min":[
				-1.68283212184906,
				-4.483445167541504,
				-0.9321833848953247
			],
			"type":"VEC3"
		},
		{
			"bufferView":18,
			"componentType":5126,
			"count":107,
			"type":"VEC3"
		},
		{
			"bufferView":19,
			"componentType":5126,
			"count":107,
			"type":"VEC2"
		},
		{
			"bufferView":20,
			"componentType":5123,
			"count":309,
			"type":"SCALAR"
		},
		{
			"bufferView":21,
			"componentType":5126,
			"count":34,
			"max":[
				-0.008059442043304443,
				-1.004018783569336,
				4
			],
			"min":[
				-1.7677897214889526,
				-3.7203235626220703,
				3.94266414642334
			],
			"type":"VEC3"
		},
		{
			"bufferView":22,
			"componentType":5126,
			"count":34,
			"type":"VEC3"
		},
		{
			"bufferView":23,
			"componentType":5126,
			"count":34,
			"type":"VEC2"
		},
		{
			"bufferView":24,
			"componentType":5123,
			"count":48,
			"type":"SCALAR"
		}
	],
	"bufferViews":[
		{
			"buffer":0,
			"byteLength":432,
			"byteOffset":0,
			"target":34962
		},
		{
			"buffer":0,
			"byteLength":432,
			"byteOffset":432,
			"target":34962
		},
		{
			"buffer":0,
			"byteLength":288,
			"byteOffset":864,
			"target":34962
		},
		{
			"buffer":0,
			"byteLength":576,
			"byteOffset":1152,
			"target":34962
		},
		{
			"buffer":0,
			"byteLength":300,
			"byteOffset":1728,
			"target":34963
		},
		{
			"buffer":0,
			"byteLength":240,
			"byteOffset":2028,
			"target":34962
		},
		{
			"buffer":0,
			"byteLength":240,
			"byteOffset":2268,
			"target":34962
		},
		{
			"buffer":0,
			"byteLength":160,
			"byteOffset":2508,
			"target":34962
		},
		{
			"buffer":0,
			"byteLength":60,
			"byteOffset":2668,
			"target":34963
		},
		{
			"buffer":0,
			"byteLength":10536,
			"byteOffset":2728,
			"target":34962
		},
		{
			"buffer":0,
			"byteLength":10536,
			"byteOffset":13264,
			"target":34962
		},
		{
			"buffer":0,
			"byteLength":7024,
			"byteOffset":23800,
			"target":34962
		},
		{
			"buffer":0,
			"byteLength":3102,
			"byteOffset":30824,
			"target":34963
		},
		{
			"buffer":0,
			"byteLength":480,
			"byteOffset":33928,
			"target":34962
		},
		{
			"buffer":0,
			"byteLength":480,
			"byteOffset":34408,
			"target":34962
		},
		{
			"buffer":0,
			"byteLength":320,
			"byteOffset":34888,
			"target":34962
		},
		{
			"buffer":0,
			"byteLength":120,
			"byteOffset":35208,
			"target":34963
		},
		{
			"buffer":0,
			"byteLength":1284,
			"byteOffset":35328,
			"target":34962
		},
		{
			"buffer":0,
			"byteLength":1284,
			"byteOffset":36612,
			"target":34962
		},
		{
			"buffer":0,
			"byteLength":856,
			"byteOffset":37896,
			"target":34962
		},
		{
			"buffer":0,
			"byteLength":618,
			"byteOffset":38752,
			"target":34963
		},
		{
			"buffer":0,
			"byteLength":408,
			"byteOffset":39372,
			"target":34962
		},
		{
			"buffer":0,
			"byteLength":408,
			"byteOffset":39780,
			"target":34962
		},
		{
			"buffer":0,
			"byteLength":272,
			"byteOffset":40188,
			"target":34962
		},
		{
			"buffer":0,
			"byteLength":96,
			"byteOffset":40460,
			"target":34963
		}
	],
	"samplers":[
		{
			"magFilter":9729,
			"minFilter":9987
		}
	],
	"buffers":[
		{
			"byteLength":40556,
			"uri":"tile_22_0_10.bin"
		}
	]
}
