{
	"asset":{
		"generator":"Khronos glTF Blender I/O v4.0.44",
		"version":"2.0"
	},
	"extensionsUsed":[
		"KHR_materials_specular",
		"KHR_materials_ior"
	],
	"scene":0,
	"scenes":[
		{
			"name":"Scene",
			"nodes":[
				0
			]
		}
	],
	"nodes":[
		{
			"mesh":0,
			"name":"Plane",
			"scale":[
				7.873531341552734,
				0.9841914176940918,
				7.873531341552734
			]
		}
	],
	"materials":[
		{
			"doubleSided":true,
			"extensions":{
				"KHR_materials_specular":{
					"specularColorFactor":[
						2.0,
						2.0,
						2.0
					]
				},
				"KHR_materials_ior":{
					"ior":1.4500000476837158
				}
			},
			"name":"building",
			"pbrMetallicRoughness":{
				"baseColorTexture":{
					"index":0
				},
				"metallicFactor":0
			}
		}
	],
	"meshes":[
		{
			"name":"Plane.034",
			"primitives":[
				{
					"attributes":{
						"POSITION":0,
						"NORMAL":1,
						"TEXCOORD_0":2
					},
					"indices":3,
					"material":0
				},
				{
					"attributes":{
						"POSITION":4,
						"NORMAL":5,
						"TEXCOORD_0":6
					},
					"indices":7,
					"material":0
				}
			]
		}
	],
	"textures":[
		{
			"sampler":0,
			"source":0
		}
	],
	"images":[
		{
			"mimeType":"image/png",
			"name":"AvatarWearables_TX",
			"uri":"tex/AvatarWearables_TX.png"
		}
	],
	"accessors":[
		{
			"bufferView":0,
			"componentType":5126,
			"count":7,
			"max":[
				0.8423061370849609,
				-7.560644149780273,
				-0.279247522354126
			],
			"min":[
				0.5637845993041992,
				-8.128499984741211,
				-0.48002004623413086
			],
			"type":"VEC3"
		},
		{
			"bufferView":1,
			"componentType":5126,
			"count":7,
			"type":"VEC3"
		},
		{
			"bufferView":2,
			"componentType":5126,
			"count":7,
			"type":"VEC2"
		},
		{
			"bufferView":3,
			"componentType":5123,
			"count":18,
			"type":"SCALAR"
		},
		{
			"bufferView":4,
			"componentType":5126,
			"count":6,
			"max":[
				0.8423061370849609,
				-8.128499984741211,
				-0.279247522354126
			],
			"min":[
				0.5637845993041992,
				-8.128499984741211,
				-0.48002004623413086
			],
			"type":"VEC3"
		},
		{
			"bufferView":5,
			"componentType":5126,
			"count":6,
			"type":"VEC3"
		},
		{
			"bufferView":6,
			"componentType":5126,
			"count":6,
			"type":"VEC2"
		},
		{
			"bufferView":7,
			"componentType":5123,
			"count":12,
			"type":"SCALAR"
		}
	],
	"bufferViews":[
		{
			"buffer":0,
			"byteLength":84,
			"byteOffset":0,
			"target":34962
		},
		{
			"buffer":0,
			"byteLength":84,
			"byteOffset":84,
			"target":34962
		},
		{
			"buffer":0,
			"byteLength":56,
			"byteOffset":168,
			"target":34962
		},
		{
			"buffer":0,
			"byteLength":36,
			"byteOffset":224,
			"target":34963
		},
		{
			"buffer":0,
			"byteLength":72,
			"byteOffset":260,
			"target":34962
		},
		{
			"buffer":0,
			"byteLength":72,
			"byteOffset":332,
			"target":34962
		},
		{
			"buffer":0,
			"byteLength":48,
			"byteOffset":404,
			"target":34962
		},
		{
			"buffer":0,
			"byteLength":24,
			"byteOffset":452,
			"target":34963
		}
	],
	"samplers":[
		{
			"magFilter":9729,
			"minFilter":9987
		}
	],
	"buffers":[
		{
			"byteLength":476,
			"uri":"tile_1_2_4.bin"
		}
	]
}
