{
	"asset":{
		"generator":"Khronos glTF Blender I/O v4.0.44",
		"version":"2.0"
	},
	"extensionsUsed":[
		"KHR_materials_specular",
		"KHR_materials_ior"
	],
	"scene":0,
	"scenes":[
		{
			"name":"Scene",
			"nodes":[
				0,
				1
			]
		}
	],
	"nodes":[
		{
			"mesh":0,
			"name":"Plane",
			"scale":[
				7.873531341552734,
				0.9841914176940918,
				7.873531341552734
			]
		},
		{
			"mesh":1,
			"name":"Plane.001",
			"scale":[
				3.7706682682037354,
				3.7706682682037354,
				3.7706682682037354
			]
		}
	],
	"materials":[
		{
			"doubleSided":true,
			"extensions":{
				"KHR_materials_specular":{
					"specularColorFactor":[
						2.0,
						2.0,
						2.0
					]
				},
				"KHR_materials_ior":{
					"ior":1.4500000476837158
				}
			},
			"name":"building",
			"pbrMetallicRoughness":{
				"baseColorTexture":{
					"index":0
				},
				"metallicFactor":0
			}
		}
	],
	"meshes":[
		{
			"name":"Plane.209",
			"primitives":[
				{
					"attributes":{
						"POSITION":0,
						"NORMAL":1,
						"TEXCOORD_0":2,
						"TANGENT":3
					},
					"indices":4,
					"material":0
				},
				{
					"attributes":{
						"POSITION":5,
						"NORMAL":6,
						"TEXCOORD_0":7,
						"TANGENT":8
					},
					"indices":9,
					"material":0
				}
			]
		},
		{
			"name":"Plane.210",
			"primitives":[
				{
					"attributes":{
						"POSITION":10,
						"NORMAL":11,
						"TEXCOORD_0":12
					},
					"indices":13,
					"material":0
				}
			]
		}
	],
	"textures":[
		{
			"sampler":0,
			"source":0
		}
	],
	"images":[
		{
			"mimeType":"image/png",
			"name":"AvatarWearables_TX",
			"uri":"tex/AvatarWearables_TX.png"
		}
	],
	"accessors":[
		{
			"bufferView":0,
			"componentType":5126,
			"count":143,
			"max":[
				0.8355569839477539,
				-6.4392781257629395,
				1.0160620212554932
			],
			"min":[
				-1.0160627365112305,
				-6.77199649810791,
				-1.0160629749298096
			],
			"type":"VEC3"
		},
		{
			"bufferView":1,
			"componentType":5126,
			"count":143,
			"type":"VEC3"
		},
		{
			"bufferView":2,
			"componentType":5126,
			"count":143,
			"type":"VEC2"
		},
		{
			"bufferView":3,
			"componentType":5126,
			"count":143,
			"type":"VEC4"
		},
		{
			"bufferView":4,
			"componentType":5123,
			"count":600,
			"type":"SCALAR"
		},
		{
			"bufferView":5,
			"componentType":5126,
			"count":8,
			"max":[
				0.8355569839477539,
				-6.4392781257629395,
				1.0160620212554932
			],
			"min":[
				0.5855569839477539,
				-6.77199649810791,
				-1.0160629749298096
			],
			"type":"VEC3"
		},
		{
			"bufferView":6,
			"componentType":5126,
			"count":8,
			"type":"VEC3"
		},
		{
			"bufferView":7,
			"componentType":5126,
			"count":8,
			"type":"VEC2"
		},
		{
			"bufferView":8,
			"componentType":5126,
			"count":8,
			"type":"VEC4"
		},
		{
			"bufferView":9,
			"componentType":5123,
			"count":12,
			"type":"SCALAR"
		},
		{
			"bufferView":10,
			"componentType":5126,
			"count":111,
			"max":[
				0.20498275756835938,
				-1.4242637157440186,
				2.1216397285461426
			],
			"min":[
				-2.1216392517089844,
				-2.1216397285461426,
				-2.1216397285461426
			],
			"type":"VEC3"
		},
		{
			"bufferView":11,
			"componentType":5126,
			"count":111,
			"type":"VEC3"
		},
		{
			"bufferView":12,
			"componentType":5126,
			"count":111,
			"type":"VEC2"
		},
		{
			"bufferView":13,
			"componentType":5123,
			"count":189,
			"type":"SCALAR"
		}
	],
	"bufferViews":[
		{
			"buffer":0,
			"byteLength":1716,
			"byteOffset":0,
			"target":34962
		},
		{
			"buffer":0,
			"byteLength":1716,
			"byteOffset":1716,
			"target":34962
		},
		{
			"buffer":0,
			"byteLength":1144,
			"byteOffset":3432,
			"target":34962
		},
		{
			"buffer":0,
			"byteLength":2288,
			"byteOffset":4576,
			"target":34962
		},
		{
			"buffer":0,
			"byteLength":1200,
			"byteOffset":6864,
			"target":34963
		},
		{
			"buffer":0,
			"byteLength":96,
			"byteOffset":8064,
			"target":34962
		},
		{
			"buffer":0,
			"byteLength":96,
			"byteOffset":8160,
			"target":34962
		},
		{
			"buffer":0,
			"byteLength":64,
			"byteOffset":8256,
			"target":34962
		},
		{
			"buffer":0,
			"byteLength":128,
			"byteOffset":8320,
			"target":34962
		},
		{
			"buffer":0,
			"byteLength":24,
			"byteOffset":8448,
			"target":34963
		},
		{
			"buffer":0,
			"byteLength":1332,
			"byteOffset":8472,
			"target":34962
		},
		{
			"buffer":0,
			"byteLength":1332,
			"byteOffset":9804,
			"target":34962
		},
		{
			"buffer":0,
			"byteLength":888,
			"byteOffset":11136,
			"target":34962
		},
		{
			"buffer":0,
			"byteLength":378,
			"byteOffset":12024,
			"target":34963
		}
	],
	"samplers":[
		{
			"magFilter":9729,
			"minFilter":9987
		}
	],
	"buffers":[
		{
			"byteLength":12404,
			"uri":"tile_11_1_3.bin"
		}
	]
}
