{
	"asset":{
		"generator":"Khronos glTF Blender I/O v4.0.44",
		"version":"2.0"
	},
	"extensionsUsed":[
		"KHR_materials_specular",
		"KHR_materials_ior"
	],
	"scene":0,
	"scenes":[
		{
			"name":"Scene",
			"nodes":[
				0,
				1
			]
		}
	],
	"nodes":[
		{
			"mesh":0,
			"name":"Plane",
			"scale":[
				7.873531341552734,
				0.9841914176940918,
				7.873531341552734
			]
		},
		{
			"mesh":1,
			"name":"Plane.001",
			"scale":[
				3.7706682682037354,
				3.7706682682037354,
				3.7706682682037354
			]
		}
	],
	"materials":[
		{
			"doubleSided":true,
			"extensions":{
				"KHR_materials_specular":{
					"specularColorFactor":[
						2.0,
						2.0,
						2.0
					]
				},
				"KHR_materials_ior":{
					"ior":1.4500000476837158
				}
			},
			"name":"building",
			"pbrMetallicRoughness":{
				"baseColorTexture":{
					"index":0
				},
				"metallicFactor":0
			}
		}
	],
	"meshes":[
		{
			"name":"Plane.029",
			"primitives":[
				{
					"attributes":{
						"POSITION":0,
						"NORMAL":1,
						"TEXCOORD_0":2
					},
					"indices":3,
					"material":0
				},
				{
					"attributes":{
						"POSITION":4,
						"NORMAL":5,
						"TEXCOORD_0":6
					},
					"indices":7,
					"material":0
				}
			]
		},
		{
			"name":"Plane.030",
			"primitives":[
				{
					"attributes":{
						"POSITION":8,
						"NORMAL":9,
						"TEXCOORD_0":10
					},
					"indices":11,
					"material":0
				},
				{
					"attributes":{
						"POSITION":12,
						"NORMAL":13,
						"TEXCOORD_0":14
					},
					"indices":15,
					"material":0
				}
			]
		}
	],
	"textures":[
		{
			"sampler":0,
			"source":0
		}
	],
	"images":[
		{
			"mimeType":"image/png",
			"name":"AvatarWearables_TX",
			"uri":"tex/AvatarWearables_TX.png"
		}
	],
	"accessors":[
		{
			"bufferView":0,
			"componentType":5126,
			"count":128,
			"max":[
				1.0160629749298096,
				7.259869575500488,
				1.0160620212554932
			],
			"min":[
				-1.0160624980926514,
				-6.77199649810791,
				-1.0160629749298096
			],
			"type":"VEC3"
		},
		{
			"bufferView":1,
			"componentType":5126,
			"count":128,
			"type":"VEC3"
		},
		{
			"bufferView":2,
			"componentType":5126,
			"count":128,
			"type":"VEC2"
		},
		{
			"bufferView":3,
			"componentType":5123,
			"count":594,
			"type":"SCALAR"
		},
		{
			"bufferView":4,
			"componentType":5126,
			"count":44,
			"max":[
				1.0160629749298096,
				6.950625419616699,
				0.5144696235656738
			],
			"min":[
				-1.0160624980926514,
				-8.128499984741211,
				-1.0160629749298096
			],
			"type":"VEC3"
		},
		{
			"bufferView":5,
			"componentType":5126,
			"count":44,
			"type":"VEC3"
		},
		{
			"bufferView":6,
			"componentType":5126,
			"count":44,
			"type":"VEC2"
		},
		{
			"bufferView":7,
			"componentType":5123,
			"count":102,
			"type":"SCALAR"
		},
		{
			"bufferView":8,
			"componentType":5126,
			"count":61,
			"max":[
				2.1216392517089844,
				-1.4170863628387451,
				2.1216397285461426
			],
			"min":[
				-2.1216392517089844,
				-1.9856928586959839,
				1.1926853656768799
			],
			"type":"VEC3"
		},
		{
			"bufferView":9,
			"componentType":5126,
			"count":61,
			"type":"VEC3"
		},
		{
			"bufferView":10,
			"componentType":5126,
			"count":61,
			"type":"VEC2"
		},
		{
			"bufferView":11,
			"componentType":5123,
			"count":93,
			"type":"SCALAR"
		},
		{
			"bufferView":12,
			"componentType":5126,
			"count":21,
			"max":[
				2.1216392517089844,
				-1.4170863628387451,
				2.1216397285461426
			],
			"min":[
				-2.1216392517089844,
				-2.1216397285461426,
				1.2806389331817627
			],
			"type":"VEC3"
		},
		{
			"bufferView":13,
			"componentType":5126,
			"count":21,
			"type":"VEC3"
		},
		{
			"bufferView":14,
			"componentType":5126,
			"count":21,
			"type":"VEC2"
		},
		{
			"bufferView":15,
			"componentType":5123,
			"count":45,
			"type":"SCALAR"
		}
	],
	"bufferViews":[
		{
			"buffer":0,
			"byteLength":1536,
			"byteOffset":0,
			"target":34962
		},
		{
			"buffer":0,
			"byteLength":1536,
			"byteOffset":1536,
			"target":34962
		},
		{
			"buffer":0,
			"byteLength":1024,
			"byteOffset":3072,
			"target":34962
		},
		{
			"buffer":0,
			"byteLength":1188,
			"byteOffset":4096,
			"target":34963
		},
		{
			"buffer":0,
			"byteLength":528,
			"byteOffset":5284,
			"target":34962
		},
		{
			"buffer":0,
			"byteLength":528,
			"byteOffset":5812,
			"target":34962
		},
		{
			"buffer":0,
			"byteLength":352,
			"byteOffset":6340,
			"target":34962
		},
		{
			"buffer":0,
			"byteLength":204,
			"byteOffset":6692,
			"target":34963
		},
		{
			"buffer":0,
			"byteLength":732,
			"byteOffset":6896,
			"target":34962
		},
		{
			"buffer":0,
			"byteLength":732,
			"byteOffset":7628,
			"target":34962
		},
		{
			"buffer":0,
			"byteLength":488,
			"byteOffset":8360,
			"target":34962
		},
		{
			"buffer":0,
			"byteLength":186,
			"byteOffset":8848,
			"target":34963
		},
		{
			"buffer":0,
			"byteLength":252,
			"byteOffset":9036,
			"target":34962
		},
		{
			"buffer":0,
			"byteLength":252,
			"byteOffset":9288,
			"target":34962
		},
		{
			"buffer":0,
			"byteLength":168,
			"byteOffset":9540,
			"target":34962
		},
		{
			"buffer":0,
			"byteLength":90,
			"byteOffset":9708,
			"target":34963
		}
	],
	"samplers":[
		{
			"magFilter":9729,
			"minFilter":9987
		}
	],
	"buffers":[
		{
			"byteLength":9800,
			"uri":"tile_1_1_3.bin"
		}
	]
}
