{
	"asset":{
		"generator":"Khronos glTF Blender I/O v4.0.44",
		"version":"2.0"
	},
	"extensionsUsed":[
		"KHR_materials_specular",
		"KHR_materials_ior",
		"KHR_materials_emissive_strength"
	],
	"scene":0,
	"scenes":[
		{
			"name":"Scene",
			"nodes":[
				0,
				1,
				2
			]
		}
	],
	"nodes":[
		{
			"mesh":0,
			"name":"Plane",
			"scale":[
				7.873531341552734,
				0.9841914176940918,
				7.873531341552734
			]
		},
		{
			"name":"track.249",
			"scale":[
				3.7706682682037354,
				3.7706682682037354,
				3.7706682682037354
			]
		},
		{
			"mesh":1,
			"name":"Cylinder.001",
			"rotation":[
				-1,
				0,
				0,
				7.549790836947068e-08
			],
			"scale":[
				1.9539721012115479,
				1.9539721012115479,
				1.9539721012115479
			]
		}
	],
	"materials":[
		{
			"doubleSided":true,
			"extensions":{
				"KHR_materials_specular":{
					"specularColorFactor":[
						2.0,
						2.0,
						2.0
					]
				},
				"KHR_materials_ior":{
					"ior":1.4500000476837158
				}
			},
			"name":"building",
			"pbrMetallicRoughness":{
				"baseColorTexture":{
					"index":0
				},
				"metallicFactor":0
			}
		},
		{
			"doubleSided":true,
			"emissiveFactor":[
				1,
				0.2655798013274177,
				0.04142626284219435
			],
			"extensions":{
				"KHR_materials_emissive_strength":{
					"emissiveStrength":1.5982129573822021
				}
			},
			"name":"Glow1",
			"pbrMetallicRoughness":{
				"baseColorFactor":[
					0.8008996248245239,
					0.21048900485038757,
					0.033567022532224655,
					1
				],
				"metallicFactor":0
			}
		},
		{
			"doubleSided":true,
			"extensions":{
				"KHR_materials_specular":{
					"specularColorFactor":[
						2.0,
						2.0,
						2.0
					]
				},
				"KHR_materials_ior":{
					"ior":1.4500000476837158
				}
			},
			"name":"building2",
			"pbrMetallicRoughness":{
				"baseColorTexture":{
					"index":1
				},
				"metallicFactor":0,
				"roughnessFactor":0.17924527823925018
			}
		}
	],
	"meshes":[
		{
			"name":"Plane.1148",
			"primitives":[
				{
					"attributes":{
						"POSITION":0,
						"NORMAL":1,
						"TEXCOORD_0":2,
						"TANGENT":3
					},
					"indices":4,
					"material":0
				}
			]
		},
		{
			"name":"Cylinder.464",
			"primitives":[
				{
					"attributes":{
						"POSITION":5,
						"NORMAL":6,
						"TEXCOORD_0":7
					},
					"indices":8,
					"material":1
				},
				{
					"attributes":{
						"POSITION":9,
						"NORMAL":10,
						"TEXCOORD_0":11
					},
					"indices":12,
					"material":2
				},
				{
					"attributes":{
						"POSITION":13,
						"NORMAL":14,
						"TEXCOORD_0":15
					},
					"indices":16,
					"material":2
				}
			]
		}
	],
	"textures":[
		{
			"sampler":0,
			"source":0
		},
		{
			"sampler":0,
			"source":0
		}
	],
	"images":[
		{
			"mimeType":"image/png",
			"name":"AvatarWearables_TX",
			"uri":"tex/AvatarWearables_TX.png"
		}
	],
	"accessors":[
		{
			"bufferView":0,
			"componentType":5126,
			"count":36,
			"max":[
				0.5080327987670898,
				-14.900496482849121,
				0.5080304145812988
			],
			"min":[
				-0.5080289840698242,
				-14.900496482849121,
				-0.5080323219299316
			],
			"type":"VEC3"
		},
		{
			"bufferView":1,
			"componentType":5126,
			"count":36,
			"type":"VEC3"
		},
		{
			"bufferView":2,
			"componentType":5126,
			"count":36,
			"type":"VEC2"
		},
		{
			"bufferView":3,
			"componentType":5126,
			"count":36,
			"type":"VEC4"
		},
		{
			"bufferView":4,
			"componentType":5123,
			"count":150,
			"type":"SCALAR"
		},
		{
			"bufferView":5,
			"componentType":5126,
			"count":194,
			"max":[
				1.9019958972930908,
				7.282868385314941,
				2.047112226486206
			],
			"min":[
				-2.047112226486206,
				0.5382828712463379,
				-0.570568323135376
			],
			"type":"VEC3"
		},
		{
			"bufferView":6,
			"componentType":5126,
			"count":194,
			"type":"VEC3"
		},
		{
			"bufferView":7,
			"componentType":5126,
			"count":194,
			"type":"VEC2"
		},
		{
			"bufferView":8,
			"componentType":5123,
			"count":312,
			"type":"SCALAR"
		},
		{
			"bufferView":9,
			"componentType":5126,
			"count":838,
			"max":[
				2.047112226486206,
				7.4128522872924805,
				2.047112226486206
			],
			"min":[
				-2.047112226486206,
				-0.6918425559997559,
				-0.9460933208465576
			],
			"type":"VEC3"
		},
		{
			"bufferView":10,
			"componentType":5126,
			"count":838,
			"type":"VEC3"
		},
		{
			"bufferView":11,
			"componentType":5126,
			"count":838,
			"type":"VEC2"
		},
		{
			"bufferView":12,
			"componentType":5123,
			"count":1398,
			"type":"SCALAR"
		},
		{
			"bufferView":13,
			"componentType":5126,
			"count":227,
			"max":[
				2.047112226486206,
				7.4128522872924805,
				2.047112226486206
			],
			"min":[
				-2.047112226486206,
				-0.6918425559997559,
				-0.7513349056243896
			],
			"type":"VEC3"
		},
		{
			"bufferView":14,
			"componentType":5126,
			"count":227,
			"type":"VEC3"
		},
		{
			"bufferView":15,
			"componentType":5126,
			"count":227,
			"type":"VEC2"
		},
		{
			"bufferView":16,
			"componentType":5123,
			"count":609,
			"type":"SCALAR"
		}
	],
	"bufferViews":[
		{
			"buffer":0,
			"byteLength":432,
			"byteOffset":0,
			"target":34962
		},
		{
			"buffer":0,
			"byteLength":432,
			"byteOffset":432,
			"target":34962
		},
		{
			"buffer":0,
			"byteLength":288,
			"byteOffset":864,
			"target":34962
		},
		{
			"buffer":0,
			"byteLength":576,
			"byteOffset":1152,
			"target":34962
		},
		{
			"buffer":0,
			"byteLength":300,
			"byteOffset":1728,
			"target":34963
		},
		{
			"buffer":0,
			"byteLength":2328,
			"byteOffset":2028,
			"target":34962
		},
		{
			"buffer":0,
			"byteLength":2328,
			"byteOffset":4356,
			"target":34962
		},
		{
			"buffer":0,
			"byteLength":1552,
			"byteOffset":6684,
			"target":34962
		},
		{
			"buffer":0,
			"byteLength":624,
			"byteOffset":8236,
			"target":34963
		},
		{
			"buffer":0,
			"byteLength":10056,
			"byteOffset":8860,
			"target":34962
		},
		{
			"buffer":0,
			"byteLength":10056,
			"byteOffset":18916,
			"target":34962
		},
		{
			"buffer":0,
			"byteLength":6704,
			"byteOffset":28972,
			"target":34962
		},
		{
			"buffer":0,
			"byteLength":2796,
			"byteOffset":35676,
			"target":34963
		},
		{
			"buffer":0,
			"byteLength":2724,
			"byteOffset":38472,
			"target":34962
		},
		{
			"buffer":0,
			"byteLength":2724,
			"byteOffset":41196,
			"target":34962
		},
		{
			"buffer":0,
			"byteLength":1816,
			"byteOffset":43920,
			"target":34962
		},
		{
			"buffer":0,
			"byteLength":1218,
			"byteOffset":45736,
			"target":34963
		}
	],
	"samplers":[
		{
			"magFilter":9729,
			"minFilter":9987
		}
	],
	"buffers":[
		{
			"byteLength":46956,
			"uri":"tile_20_0_8.bin"
		}
	]
}
