{
	"asset":{
		"generator":"Khronos glTF Blender I/O v4.0.44",
		"version":"2.0"
	},
	"extensionsUsed":[
		"KHR_materials_specular",
		"KHR_materials_ior"
	],
	"scene":0,
	"scenes":[
		{
			"name":"Scene",
			"nodes":[
				0,
				1,
				2,
				3,
				4,
				5,
				6,
				7,
				8,
				9
			]
		}
	],
	"nodes":[
		{
			"mesh":0,
			"name":"Plane",
			"scale":[
				7.873531341552734,
				0.9841914176940918,
				7.873531341552734
			]
		},
		{
			"mesh":1,
			"name":"track.110",
			"scale":[
				3.7706682682037354,
				3.7706682682037354,
				3.7706682682037354
			]
		},
		{
			"mesh":2,
			"name":"Cube.014"
		},
		{
			"mesh":3,
			"name":"Cube.063"
		},
		{
			"mesh":4,
			"name":"Cube.064"
		},
		{
			"mesh":5,
			"name":"Cube.065"
		},
		{
			"mesh":6,
			"name":"Cube.066"
		},
		{
			"mesh":7,
			"name":"Cube.067"
		},
		{
			"mesh":8,
			"name":"Cube.068"
		},
		{
			"mesh":9,
			"name":"Cube.069"
		}
	],
	"materials":[
		{
			"doubleSided":true,
			"extensions":{
				"KHR_materials_specular":{
					"specularColorFactor":[
						2.0,
						2.0,
						2.0
					]
				},
				"KHR_materials_ior":{
					"ior":1.4500000476837158
				}
			},
			"name":"building",
			"pbrMetallicRoughness":{
				"baseColorTexture":{
					"index":0
				},
				"metallicFactor":0
			}
		}
	],
	"meshes":[
		{
			"name":"Plane.870",
			"primitives":[
				{
					"attributes":{
						"POSITION":0,
						"NORMAL":1,
						"TEXCOORD_0":2
					},
					"indices":3,
					"material":0
				}
			]
		},
		{
			"name":"Plane.871",
			"primitives":[
				{
					"attributes":{
						"POSITION":4,
						"NORMAL":5,
						"TEXCOORD_0":6
					},
					"indices":7,
					"material":0
				}
			]
		},
		{
			"name":"Cube.626",
			"primitives":[
				{
					"attributes":{
						"POSITION":8,
						"NORMAL":9,
						"TEXCOORD_0":10
					},
					"indices":11,
					"material":0
				}
			]
		},
		{
			"name":"Cube.627",
			"primitives":[
				{
					"attributes":{
						"POSITION":12,
						"NORMAL":13,
						"TEXCOORD_0":14,
						"TANGENT":15
					},
					"indices":16,
					"material":0
				},
				{
					"attributes":{
						"POSITION":17,
						"NORMAL":18,
						"TEXCOORD_0":19,
						"TANGENT":20
					},
					"indices":21,
					"material":0
				}
			]
		},
		{
			"name":"Cube.628",
			"primitives":[
				{
					"attributes":{
						"POSITION":22,
						"NORMAL":23,
						"TEXCOORD_0":24,
						"TANGENT":25
					},
					"indices":16,
					"material":0
				},
				{
					"attributes":{
						"POSITION":26,
						"NORMAL":27,
						"TEXCOORD_0":28,
						"TANGENT":29
					},
					"indices":21,
					"material":0
				}
			]
		},
		{
			"name":"Cube.629",
			"primitives":[
				{
					"attributes":{
						"POSITION":30,
						"NORMAL":31,
						"TEXCOORD_0":32,
						"TANGENT":33
					},
					"indices":34,
					"material":0
				}
			]
		},
		{
			"name":"Cube.630",
			"primitives":[
				{
					"attributes":{
						"POSITION":35,
						"NORMAL":36,
						"TEXCOORD_0":37,
						"TANGENT":38
					},
					"indices":34,
					"material":0
				}
			]
		},
		{
			"name":"Cube.631",
			"primitives":[
				{
					"attributes":{
						"POSITION":39,
						"NORMAL":40,
						"TEXCOORD_0":41,
						"TANGENT":42
					},
					"indices":16,
					"material":0
				},
				{
					"attributes":{
						"POSITION":43,
						"NORMAL":44,
						"TEXCOORD_0":45,
						"TANGENT":46
					},
					"indices":21,
					"material":0
				}
			]
		},
		{
			"name":"Cube.632",
			"primitives":[
				{
					"attributes":{
						"POSITION":47,
						"NORMAL":48,
						"TEXCOORD_0":49,
						"TANGENT":50
					},
					"indices":16,
					"material":0
				},
				{
					"attributes":{
						"POSITION":51,
						"NORMAL":52,
						"TEXCOORD_0":53,
						"TANGENT":54
					},
					"indices":21,
					"material":0
				}
			]
		},
		{
			"name":"Cube.633",
			"primitives":[
				{
					"attributes":{
						"POSITION":55,
						"NORMAL":56,
						"TEXCOORD_0":57,
						"TANGENT":58
					},
					"indices":16,
					"material":0
				},
				{
					"attributes":{
						"POSITION":59,
						"NORMAL":60,
						"TEXCOORD_0":61,
						"TANGENT":62
					},
					"indices":21,
					"material":0
				}
			]
		}
	],
	"textures":[
		{
			"sampler":0,
			"source":0
		}
	],
	"images":[
		{
			"mimeType":"image/png",
			"name":"AvatarWearables_TX",
			"uri":"tex/AvatarWearables_TX.png"
		}
	],
	"accessors":[
		{
			"bufferView":0,
			"componentType":5126,
			"count":49,
			"max":[
				0.5080313682556152,
				-14.357444763183594,
				0.5080307722091675
			],
			"min":[
				-0.5080313682556152,
				-14.900496482849121,
				-0.508031964302063
			],
			"type":"VEC3"
		},
		{
			"bufferView":1,
			"componentType":5126,
			"count":49,
			"type":"VEC3"
		},
		{
			"bufferView":2,
			"componentType":5126,
			"count":49,
			"type":"VEC2"
		},
		{
			"bufferView":3,
			"componentType":5123,
			"count":183,
			"type":"SCALAR"
		},
		{
			"bufferView":4,
			"componentType":5126,
			"count":61,
			"max":[
				1.0608196258544922,
				-3.545773506164551,
				1.060819387435913
			],
			"min":[
				-1.0608196258544922,
				-4.243279933929443,
				0.31800150871276855
			],
			"type":"VEC3"
		},
		{
			"bufferView":5,
			"componentType":5126,
			"count":61,
			"type":"VEC3"
		},
		{
			"bufferView":6,
			"componentType":5126,
			"count":61,
			"type":"VEC2"
		},
		{
			"bufferView":7,
			"componentType":5123,
			"count":105,
			"type":"SCALAR"
		},
		{
			"bufferView":8,
			"componentType":5126,
			"count":152,
			"max":[
				2.477487087249756,
				-11.940752983093262,
				-0.6372146606445312
			],
			"min":[
				-4,
				-14.761817932128906,
				-3.6662683486938477
			],
			"type":"VEC3"
		},
		{
			"bufferView":9,
			"componentType":5126,
			"count":152,
			"type":"VEC3"
		},
		{
			"bufferView":10,
			"componentType":5126,
			"count":152,
			"type":"VEC2"
		},
		{
			"bufferView":11,
			"componentType":5123,
			"count":288,
			"type":"SCALAR"
		},
		{
			"bufferView":12,
			"componentType":5126,
			"count":20,
			"max":[
				2.4153032302856445,
				-14.049240112304688,
				-0.8737092018127441
			],
			"min":[
				-4,
				-14.107187271118164,
				-1.2695823907852173
			],
			"type":"VEC3"
		},
		{
			"bufferView":13,
			"componentType":5126,
			"count":20,
			"type":"VEC3"
		},
		{
			"bufferView":14,
			"componentType":5126,
			"count":20,
			"type":"VEC2"
		},
		{
			"bufferView":15,
			"componentType":5126,
			"count":20,
			"type":"VEC4"
		},
		{
			"bufferView":16,
			"componentType":5123,
			"count":30,
			"type":"SCALAR"
		},
		{
			"bufferView":17,
			"componentType":5126,
			"count":4,
			"max":[
				-4,
				-14.049240112304688,
				-0.8737092018127441
			],
			"min":[
				-4,
				-14.107187271118164,
				-1.0596625804901123
			],
			"type":"VEC3"
		},
		{
			"bufferView":18,
			"componentType":5126,
			"count":4,
			"type":"VEC3"
		},
		{
			"bufferView":19,
			"componentType":5126,
			"count":4,
			"type":"VEC2"
		},
		{
			"bufferView":20,
			"componentType":5126,
			"count":4,
			"type":"VEC4"
		},
		{
			"bufferView":21,
			"componentType":5123,
			"count":6,
			"type":"SCALAR"
		},
		{
			"bufferView":22,
			"componentType":5126,
			"count":20,
			"max":[
				2.403135299682617,
				-13.759504318237305,
				-1.2456159591674805
			],
			"min":[
				-4,
				-13.817451477050781,
				-1.6410906314849854
			],
			"type":"VEC3"
		},
		{
			"bufferView":23,
			"componentType":5126,
			"count":20,
			"type":"VEC3"
		},
		{
			"bufferView":24,
			"componentType":5126,
			"count":20,
			"type":"VEC2"
		},
		{
			"bufferView":25,
			"componentType":5126,
			"count":20,
			"type":"VEC4"
		},
		{
			"bufferView":26,
			"componentType":5126,
			"count":4,
			"max":[
				-4,
				-13.759504318237305,
				-1.2456159591674805
			],
			"min":[
				-4,
				-13.817451477050781,
				-1.4315690994262695
			],
			"type":"VEC3"
		},
		{
			"bufferView":27,
			"componentType":5126,
			"count":4,
			"type":"VEC3"
		},
		{
			"bufferView":28,
			"componentType":5126,
			"count":4,
			"type":"VEC2"
		},
		{
			"bufferView":29,
			"componentType":5126,
			"count":4,
			"type":"VEC4"
		},
		{
			"bufferView":30,
			"componentType":5126,
			"count":24,
			"max":[
				2.39096736907959,
				-13.469769477844238,
				-1.6175227165222168
			],
			"min":[
				-4,
				-13.527716636657715,
				-2.012598752975464
			],
			"type":"VEC3"
		},
		{
			"bufferView":31,
			"componentType":5126,
			"count":24,
			"type":"VEC3"
		},
		{
			"bufferView":32,
			"componentType":5126,
			"count":24,
			"type":"VEC2"
		},
		{
			"bufferView":33,
			"componentType":5126,
			"count":24,
			"type":"VEC4"
		},
		{
			"bufferView":34,
			"componentType":5123,
			"count":36,
			"type":"SCALAR"
		},
		{
			"bufferView":35,
			"componentType":5126,
			"count":24,
			"max":[
				2.3787999153137207,
				-13.180034637451172,
				-1.9894293546676636
			],
			"min":[
				-4,
				-13.237981796264648,
				-2.3841066360473633
			],
			"type":"VEC3"
		},
		{
			"bufferView":36,
			"componentType":5126,
			"count":24,
			"type":"VEC3"
		},
		{
			"bufferView":37,
			"componentType":5126,
			"count":24,
			"type":"VEC2"
		},
		{
			"bufferView":38,
			"componentType":5126,
			"count":24,
			"type":"VEC4"
		},
		{
			"bufferView":39,
			"componentType":5126,
			"count":20,
			"max":[
				2.366631507873535,
				-12.890298843383789,
				-2.3613357543945312
			],
			"min":[
				-4,
				-12.948246002197266,
				-2.755614757537842
			],
			"type":"VEC3"
		},
		{
			"bufferView":40,
			"componentType":5126,
			"count":20,
			"type":"VEC3"
		},
		{
			"bufferView":41,
			"componentType":5126,
			"count":20,
			"type":"VEC2"
		},
		{
			"bufferView":42,
			"componentType":5126,
			"count":20,
			"type":"VEC4"
		},
		{
			"bufferView":43,
			"componentType":5126,
			"count":4,
			"max":[
				-4,
				-12.890298843383789,
				-2.3613357543945312
			],
			"min":[
				-4,
				-12.948246002197266,
				-2.5472891330718994
			],
			"type":"VEC3"
		},
		{
			"bufferView":44,
			"componentType":5126,
			"count":4,
			"type":"VEC3"
		},
		{
			"bufferView":45,
			"componentType":5126,
			"count":4,
			"type":"VEC2"
		},
		{
			"bufferView":46,
			"componentType":5126,
			"count":4,
			"type":"VEC4"
		},
		{
			"bufferView":47,
			"componentType":5126,
			"count":20,
			"max":[
				2.354463577270508,
				-12.600564002990723,
				-2.7332425117492676
			],
			"min":[
				-4,
				-12.6585111618042,
				-3.1271228790283203
			],
			"type":"VEC3"
		},
		{
			"bufferView":48,
			"componentType":5126,
			"count":20,
			"type":"VEC3"
		},
		{
			"bufferView":49,
			"componentType":5126,
			"count":20,
			"type":"VEC2"
		},
		{
			"bufferView":50,
			"componentType":5126,
			"count":20,
			"type":"VEC4"
		},
		{
			"bufferView":51,
			"componentType":5126,
			"count":4,
			"max":[
				-4,
				-12.600564002990723,
				-2.7332425117492676
			],
			"min":[
				-4,
				-12.6585111618042,
				-2.9191956520080566
			],
			"type":"VEC3"
		},
		{
			"bufferView":52,
			"componentType":5126,
			"count":4,
			"type":"VEC3"
		},
		{
			"bufferView":53,
			"componentType":5126,
			"count":4,
			"type":"VEC2"
		},
		{
			"bufferView":54,
			"componentType":5126,
			"count":4,
			"type":"VEC4"
		},
		{
			"bufferView":55,
			"componentType":5126,
			"count":20,
			"max":[
				2.3422956466674805,
				-12.31082820892334,
				-3.1051487922668457
			],
			"min":[
				-4,
				-12.368775367736816,
				-3.498631000518799
			],
			"type":"VEC3"
		},
		{
			"bufferView":56,
			"componentType":5126,
			"count":20,
			"type":"VEC3"
		},
		{
			"bufferView":57,
			"componentType":5126,
			"count":20,
			"type":"VEC2"
		},
		{
			"bufferView":58,
			"componentType":5126,
			"count":20,
			"type":"VEC4"
		},
		{
			"bufferView":59,
			"componentType":5126,
			"count":4,
			"max":[
				-4,
				-12.31082820892334,
				-3.1051487922668457
			],
			"min":[
				-4,
				-12.368775367736816,
				-3.291102409362793
			],
			"type":"VEC3"
		},
		{
			"bufferView":60,
			"componentType":5126,
			"count":4,
			"type":"VEC3"
		},
		{
			"bufferView":61,
			"componentType":5126,
			"count":4,
			"type":"VEC2"
		},
		{
			"bufferView":62,
			"componentType":5126,
			"count":4,
			"type":"VEC4"
		}
	],
	"bufferViews":[
		{
			"buffer":0,
			"byteLength":588,
			"byteOffset":0,
			"target":34962
		},
		{
			"buffer":0,
			"byteLength":588,
			"byteOffset":588,
			"target":34962
		},
		{
			"buffer":0,
			"byteLength":392,
			"byteOffset":1176,
			"target":34962
		},
		{
			"buffer":0,
			"byteLength":366,
			"byteOffset":1568,
			"target":34963
		},
		{
			"buffer":0,
			"byteLength":732,
			"byteOffset":1936,
			"target":34962
		},
		{
			"buffer":0,
			"byteLength":732,
			"byteOffset":2668,
			"target":34962
		},
		{
			"buffer":0,
			"byteLength":488,
			"byteOffset":3400,
			"target":34962
		},
		{
			"buffer":0,
			"byteLength":210,
			"byteOffset":3888,
			"target":34963
		},
		{
			"buffer":0,
			"byteLength":1824,
			"byteOffset":4100,
			"target":34962
		},
		{
			"buffer":0,
			"byteLength":1824,
			"byteOffset":5924,
			"target":34962
		},
		{
			"buffer":0,
			"byteLength":1216,
			"byteOffset":7748,
			"target":34962
		},
		{
			"buffer":0,
			"byteLength":576,
			"byteOffset":8964,
			"target":34963
		},
		{
			"buffer":0,
			"byteLength":240,
			"byteOffset":9540,
			"target":34962
		},
		{
			"buffer":0,
			"byteLength":240,
			"byteOffset":9780,
			"target":34962
		},
		{
			"buffer":0,
			"byteLength":160,
			"byteOffset":10020,
			"target":34962
		},
		{
			"buffer":0,
			"byteLength":320,
			"byteOffset":10180,
			"target":34962
		},
		{
			"buffer":0,
			"byteLength":60,
			"byteOffset":10500,
			"target":34963
		},
		{
			"buffer":0,
			"byteLength":48,
			"byteOffset":10560,
			"target":34962
		},
		{
			"buffer":0,
			"byteLength":48,
			"byteOffset":10608,
			"target":34962
		},
		{
			"buffer":0,
			"byteLength":32,
			"byteOffset":10656,
			"target":34962
		},
		{
			"buffer":0,
			"byteLength":64,
			"byteOffset":10688,
			"target":34962
		},
		{
			"buffer":0,
			"byteLength":12,
			"byteOffset":10752,
			"target":34963
		},
		{
			"buffer":0,
			"byteLength":240,
			"byteOffset":10764,
			"target":34962
		},
		{
			"buffer":0,
			"byteLength":240,
			"byteOffset":11004,
			"target":34962
		},
		{
			"buffer":0,
			"byteLength":160,
			"byteOffset":11244,
			"target":34962
		},
		{
			"buffer":0,
			"byteLength":320,
			"byteOffset":11404,
			"target":34962
		},
		{
			"buffer":0,
			"byteLength":48,
			"byteOffset":11724,
			"target":34962
		},
		{
			"buffer":0,
			"byteLength":48,
			"byteOffset":11772,
			"target":34962
		},
		{
			"buffer":0,
			"byteLength":32,
			"byteOffset":11820,
			"target":34962
		},
		{
			"buffer":0,
			"byteLength":64,
			"byteOffset":11852,
			"target":34962
		},
		{
			"buffer":0,
			"byteLength":288,
			"byteOffset":11916,
			"target":34962
		},
		{
			"buffer":0,
			"byteLength":288,
			"byteOffset":12204,
			"target":34962
		},
		{
			"buffer":0,
			"byteLength":192,
			"byteOffset":12492,
			"target":34962
		},
		{
			"buffer":0,
			"byteLength":384,
			"byteOffset":12684,
			"target":34962
		},
		{
			"buffer":0,
			"byteLength":72,
			"byteOffset":13068,
			"target":34963
		},
		{
			"buffer":0,
			"byteLength":288,
			"byteOffset":13140,
			"target":34962
		},
		{
			"buffer":0,
			"byteLength":288,
			"byteOffset":13428,
			"target":34962
		},
		{
			"buffer":0,
			"byteLength":192,
			"byteOffset":13716,
			"target":34962
		},
		{
			"buffer":0,
			"byteLength":384,
			"byteOffset":13908,
			"target":34962
		},
		{
			"buffer":0,
			"byteLength":240,
			"byteOffset":14292,
			"target":34962
		},
		{
			"buffer":0,
			"byteLength":240,
			"byteOffset":14532,
			"target":34962
		},
		{
			"buffer":0,
			"byteLength":160,
			"byteOffset":14772,
			"target":34962
		},
		{
			"buffer":0,
			"byteLength":320,
			"byteOffset":14932,
			"target":34962
		},
		{
			"buffer":0,
			"byteLength":48,
			"byteOffset":15252,
			"target":34962
		},
		{
			"buffer":0,
			"byteLength":48,
			"byteOffset":15300,
			"target":34962
		},
		{
			"buffer":0,
			"byteLength":32,
			"byteOffset":15348,
			"target":34962
		},
		{
			"buffer":0,
			"byteLength":64,
			"byteOffset":15380,
			"target":34962
		},
		{
			"buffer":0,
			"byteLength":240,
			"byteOffset":15444,
			"target":34962
		},
		{
			"buffer":0,
			"byteLength":240,
			"byteOffset":15684,
			"target":34962
		},
		{
			"buffer":0,
			"byteLength":160,
			"byteOffset":15924,
			"target":34962
		},
		{
			"buffer":0,
			"byteLength":320,
			"byteOffset":16084,
			"target":34962
		},
		{
			"buffer":0,
			"byteLength":48,
			"byteOffset":16404,
			"target":34962
		},
		{
			"buffer":0,
			"byteLength":48,
			"byteOffset":16452,
			"target":34962
		},
		{
			"buffer":0,
			"byteLength":32,
			"byteOffset":16500,
			"target":34962
		},
		{
			"buffer":0,
			"byteLength":64,
			"byteOffset":16532,
			"target":34962
		},
		{
			"buffer":0,
			"byteLength":240,
			"byteOffset":16596,
			"target":34962
		},
		{
			"buffer":0,
			"byteLength":240,
			"byteOffset":16836,
			"target":34962
		},
		{
			"buffer":0,
			"byteLength":160,
			"byteOffset":17076,
			"target":34962
		},
		{
			"buffer":0,
			"byteLength":320,
			"byteOffset":17236,
			"target":34962
		},
		{
			"buffer":0,
			"byteLength":48,
			"byteOffset":17556,
			"target":34962
		},
		{
			"buffer":0,
			"byteLength":48,
			"byteOffset":17604,
			"target":34962
		},
		{
			"buffer":0,
			"byteLength":32,
			"byteOffset":17652,
			"target":34962
		},
		{
			"buffer":0,
			"byteLength":64,
			"byteOffset":17684,
			"target":34962
		}
	],
	"samplers":[
		{
			"magFilter":9729,
			"minFilter":9987
		}
	],
	"buffers":[
		{
			"byteLength":17748,
			"uri":"tile_9_0_1.bin"
		}
	]
}
