{
	"asset":{
		"generator":"Khronos glTF Blender I/O v4.0.44",
		"version":"2.0"
	},
	"extensionsUsed":[
		"KHR_materials_specular",
		"KHR_materials_ior"
	],
	"scene":0,
	"scenes":[
		{
			"name":"Scene",
			"nodes":[
				0,
				1,
				2,
				3,
				4,
				5
			]
		}
	],
	"nodes":[
		{
			"mesh":0,
			"name":"Plane",
			"scale":[
				7.873531341552734,
				0.9841914176940918,
				7.873531341552734
			]
		},
		{
			"mesh":1,
			"name":"track.174",
			"scale":[
				3.7706682682037354,
				3.7706682682037354,
				3.7706682682037354
			]
		},
		{
			"mesh":2,
			"name":"Cylinder.011"
		},
		{
			"mesh":3,
			"name":"Cylinder.088"
		},
		{
			"mesh":4,
			"name":"Cylinder.089"
		},
		{
			"mesh":5,
			"name":"Cylinder.090"
		}
	],
	"materials":[
		{
			"doubleSided":true,
			"extensions":{
				"KHR_materials_specular":{
					"specularColorFactor":[
						2.0,
						2.0,
						2.0
					]
				},
				"KHR_materials_ior":{
					"ior":1.4500000476837158
				}
			},
			"name":"building",
			"pbrMetallicRoughness":{
				"baseColorTexture":{
					"index":0
				},
				"metallicFactor":0
			}
		}
	],
	"meshes":[
		{
			"name":"Plane.998",
			"primitives":[
				{
					"attributes":{
						"POSITION":0,
						"NORMAL":1,
						"TEXCOORD_0":2
					},
					"indices":3,
					"material":0
				}
			]
		},
		{
			"name":"Plane.999",
			"primitives":[
				{
					"attributes":{
						"POSITION":4,
						"NORMAL":5,
						"TEXCOORD_0":6
					},
					"indices":7,
					"material":0
				}
			]
		},
		{
			"name":"Cylinder.430",
			"primitives":[
				{
					"attributes":{
						"POSITION":8,
						"NORMAL":9,
						"TEXCOORD_0":10
					},
					"indices":11,
					"material":0
				}
			]
		},
		{
			"name":"Cylinder.431",
			"primitives":[
				{
					"attributes":{
						"POSITION":12,
						"NORMAL":13,
						"TEXCOORD_0":14
					},
					"indices":15,
					"material":0
				}
			]
		},
		{
			"name":"Cylinder.432",
			"primitives":[
				{
					"attributes":{
						"POSITION":16,
						"NORMAL":17,
						"TEXCOORD_0":18,
						"TANGENT":19
					},
					"indices":20,
					"material":0
				}
			]
		},
		{
			"name":"Cylinder.433",
			"primitives":[
				{
					"attributes":{
						"POSITION":21,
						"NORMAL":22,
						"TEXCOORD_0":23,
						"TANGENT":24
					},
					"indices":20,
					"material":0
				}
			]
		}
	],
	"textures":[
		{
			"sampler":0,
			"source":0
		}
	],
	"images":[
		{
			"mimeType":"image/png",
			"name":"AvatarWearables_TX",
			"uri":"tex/AvatarWearables_TX.png"
		}
	],
	"accessors":[
		{
			"bufferView":0,
			"componentType":5126,
			"count":84,
			"max":[
				0.5080313682556152,
				-3.443331718444824,
				0.5080312490463257
			],
			"min":[
				-0.5080313682556152,
				-16.256999969482422,
				-0.5080312490463257
			],
			"type":"VEC3"
		},
		{
			"bufferView":1,
			"componentType":5126,
			"count":84,
			"type":"VEC3"
		},
		{
			"bufferView":2,
			"componentType":5126,
			"count":84,
			"type":"VEC2"
		},
		{
			"bufferView":3,
			"componentType":5123,
			"count":270,
			"type":"SCALAR"
		},
		{
			"bufferView":4,
			"componentType":5126,
			"count":41,
			"max":[
				1.0608177185058594,
				-0.45569682121276855,
				1.0608198642730713
			],
			"min":[
				-0.028884410858154297,
				-1.0250434875488281,
				0.759627103805542
			],
			"type":"VEC3"
		},
		{
			"bufferView":5,
			"componentType":5126,
			"count":41,
			"type":"VEC3"
		},
		{
			"bufferView":6,
			"componentType":5126,
			"count":41,
			"type":"VEC2"
		},
		{
			"bufferView":7,
			"componentType":5123,
			"count":69,
			"type":"SCALAR"
		},
		{
			"bufferView":8,
			"componentType":5126,
			"count":141,
			"max":[
				2.619751453399658,
				3.4474849700927734,
				0.5239434242248535
			],
			"min":[
				0.9593997001647949,
				-5.958052158355713,
				-2.305579662322998
			],
			"type":"VEC3"
		},
		{
			"bufferView":9,
			"componentType":5126,
			"count":141,
			"type":"VEC3"
		},
		{
			"bufferView":10,
			"componentType":5126,
			"count":141,
			"type":"VEC2"
		},
		{
			"bufferView":11,
			"componentType":5123,
			"count":564,
			"type":"SCALAR"
		},
		{
			"bufferView":12,
			"componentType":5126,
			"count":70,
			"max":[
				4,
				7.819655418395996,
				1.9674406051635742
			],
			"min":[
				-0.5122196674346924,
				2.405231475830078,
				-2.7712178230285645
			],
			"type":"VEC3"
		},
		{
			"bufferView":13,
			"componentType":5126,
			"count":70,
			"type":"VEC3"
		},
		{
			"bufferView":14,
			"componentType":5126,
			"count":70,
			"type":"VEC2"
		},
		{
			"bufferView":15,
			"componentType":5123,
			"count":84,
			"type":"SCALAR"
		},
		{
			"bufferView":16,
			"componentType":5126,
			"count":60,
			"max":[
				3.296266555786133,
				-0.024030685424804688,
				-1.5044244527816772
			],
			"min":[
				1.4578416347503662,
				-2.0911850929260254,
				-3.3135807514190674
			],
			"type":"VEC3"
		},
		{
			"bufferView":17,
			"componentType":5126,
			"count":60,
			"type":"VEC3"
		},
		{
			"bufferView":18,
			"componentType":5126,
			"count":60,
			"type":"VEC2"
		},
		{
			"bufferView":19,
			"componentType":5126,
			"count":60,
			"type":"VEC4"
		},
		{
			"bufferView":20,
			"componentType":5123,
			"count":60,
			"type":"SCALAR"
		},
		{
			"bufferView":21,
			"componentType":5126,
			"count":60,
			"max":[
				1.4040780067443848,
				-2.587114095687866,
				0.27736175060272217
			],
			"min":[
				0.42113494873046875,
				-3.6923506259918213,
				-0.6899323463439941
			],
			"type":"VEC3"
		},
		{
			"bufferView":22,
			"componentType":5126,
			"count":60,
			"type":"VEC3"
		},
		{
			"bufferView":23,
			"componentType":5126,
			"count":60,
			"type":"VEC2"
		},
		{
			"bufferView":24,
			"componentType":5126,
			"count":60,
			"type":"VEC4"
		}
	],
	"bufferViews":[
		{
			"buffer":0,
			"byteLength":1008,
			"byteOffset":0,
			"target":34962
		},
		{
			"buffer":0,
			"byteLength":1008,
			"byteOffset":1008,
			"target":34962
		},
		{
			"buffer":0,
			"byteLength":672,
			"byteOffset":2016,
			"target":34962
		},
		{
			"buffer":0,
			"byteLength":540,
			"byteOffset":2688,
			"target":34963
		},
		{
			"buffer":0,
			"byteLength":492,
			"byteOffset":3228,
			"target":34962
		},
		{
			"buffer":0,
			"byteLength":492,
			"byteOffset":3720,
			"target":34962
		},
		{
			"buffer":0,
			"byteLength":328,
			"byteOffset":4212,
			"target":34962
		},
		{
			"buffer":0,
			"byteLength":138,
			"byteOffset":4540,
			"target":34963
		},
		{
			"buffer":0,
			"byteLength":1692,
			"byteOffset":4680,
			"target":34962
		},
		{
			"buffer":0,
			"byteLength":1692,
			"byteOffset":6372,
			"target":34962
		},
		{
			"buffer":0,
			"byteLength":1128,
			"byteOffset":8064,
			"target":34962
		},
		{
			"buffer":0,
			"byteLength":1128,
			"byteOffset":9192,
			"target":34963
		},
		{
			"buffer":0,
			"byteLength":840,
			"byteOffset":10320,
			"target":34962
		},
		{
			"buffer":0,
			"byteLength":840,
			"byteOffset":11160,
			"target":34962
		},
		{
			"buffer":0,
			"byteLength":560,
			"byteOffset":12000,
			"target":34962
		},
		{
			"buffer":0,
			"byteLength":168,
			"byteOffset":12560,
			"target":34963
		},
		{
			"buffer":0,
			"byteLength":720,
			"byteOffset":12728,
			"target":34962
		},
		{
			"buffer":0,
			"byteLength":720,
			"byteOffset":13448,
			"target":34962
		},
		{
			"buffer":0,
			"byteLength":480,
			"byteOffset":14168,
			"target":34962
		},
		{
			"buffer":0,
			"byteLength":960,
			"byteOffset":14648,
			"target":34962
		},
		{
			"buffer":0,
			"byteLength":120,
			"byteOffset":15608,
			"target":34963
		},
		{
			"buffer":0,
			"byteLength":720,
			"byteOffset":15728,
			"target":34962
		},
		{
			"buffer":0,
			"byteLength":720,
			"byteOffset":16448,
			"target":34962
		},
		{
			"buffer":0,
			"byteLength":480,
			"byteOffset":17168,
			"target":34962
		},
		{
			"buffer":0,
			"byteLength":960,
			"byteOffset":17648,
			"target":34962
		}
	],
	"samplers":[
		{
			"magFilter":9729,
			"minFilter":9987
		}
	],
	"buffers":[
		{
			"byteLength":18608,
			"uri":"tile_14_0_5.bin"
		}
	]
}
