{
	"asset":{
		"generator":"Khronos glTF Blender I/O v4.0.44",
		"version":"2.0"
	},
	"extensionsUsed":[
		"KHR_materials_specular",
		"KHR_materials_ior"
	],
	"scene":0,
	"scenes":[
		{
			"name":"Scene",
			"nodes":[
				0,
				1
			]
		}
	],
	"nodes":[
		{
			"name":"Plane",
			"scale":[
				7.873531341552734,
				0.9841914176940918,
				7.873531341552734
			]
		},
		{
			"mesh":0,
			"name":"Cube.001",
			"scale":[
				3.3134217262268066,
				3.3134217262268066,
				3.3134217262268066
			]
		}
	],
	"materials":[
		{
			"doubleSided":true,
			"extensions":{
				"KHR_materials_specular":{
					"specularColorFactor":[
						2.0,
						2.0,
						2.0
					]
				},
				"KHR_materials_ior":{
					"ior":1.4500000476837158
				}
			},
			"name":"building2",
			"pbrMetallicRoughness":{
				"baseColorTexture":{
					"index":0
				},
				"metallicFactor":0,
				"roughnessFactor":0.17924527823925018
			}
		},
		{
			"doubleSided":true,
			"emissiveFactor":[
				1,
				1,
				0
			],
			"name":"Glow6",
			"pbrMetallicRoughness":{
				"baseColorFactor":[
					0.8000000715255737,
					0.6898009181022644,
					0,
					1
				],
				"metallicFactor":0
			}
		}
	],
	"meshes":[
		{
			"name":"Cube.479",
			"primitives":[
				{
					"attributes":{
						"POSITION":0,
						"NORMAL":1,
						"TEXCOORD_0":2
					},
					"indices":3,
					"material":0
				},
				{
					"attributes":{
						"POSITION":4,
						"NORMAL":5,
						"TEXCOORD_0":6
					},
					"indices":7,
					"material":1
				}
			]
		}
	],
	"textures":[
		{
			"sampler":0,
			"source":0
		}
	],
	"images":[
		{
			"mimeType":"image/png",
			"name":"AvatarWearables_TX",
			"uri":"tex/AvatarWearables_TX.png"
		}
	],
	"accessors":[
		{
			"bufferView":0,
			"componentType":5126,
			"count":1418,
			"max":[
				0.8891669511795044,
				0.502251148223877,
				2.4144225120544434
			],
			"min":[
				-1.0740386247634888,
				-2.4144225120544434,
				0.5298775434494019
			],
			"type":"VEC3"
		},
		{
			"bufferView":1,
			"componentType":5126,
			"count":1418,
			"type":"VEC3"
		},
		{
			"bufferView":2,
			"componentType":5126,
			"count":1418,
			"type":"VEC2"
		},
		{
			"bufferView":3,
			"componentType":5123,
			"count":2532,
			"type":"SCALAR"
		},
		{
			"bufferView":4,
			"componentType":5126,
			"count":48,
			"max":[
				0.6873828172683716,
				-0.1863880157470703,
				2.2912988662719727
			],
			"min":[
				-0.8722545504570007,
				-2.413318157196045,
				0.7316614389419556
			],
			"type":"VEC3"
		},
		{
			"bufferView":5,
			"componentType":5126,
			"count":48,
			"type":"VEC3"
		},
		{
			"bufferView":6,
			"componentType":5126,
			"count":48,
			"type":"VEC2"
		},
		{
			"bufferView":7,
			"componentType":5123,
			"count":72,
			"type":"SCALAR"
		}
	],
	"bufferViews":[
		{
			"buffer":0,
			"byteLength":17016,
			"byteOffset":0,
			"target":34962
		},
		{
			"buffer":0,
			"byteLength":17016,
			"byteOffset":17016,
			"target":34962
		},
		{
			"buffer":0,
			"byteLength":11344,
			"byteOffset":34032,
			"target":34962
		},
		{
			"buffer":0,
			"byteLength":5064,
			"byteOffset":45376,
			"target":34963
		},
		{
			"buffer":0,
			"byteLength":576,
			"byteOffset":50440,
			"target":34962
		},
		{
			"buffer":0,
			"byteLength":576,
			"byteOffset":51016,
			"target":34962
		},
		{
			"buffer":0,
			"byteLength":384,
			"byteOffset":51592,
			"target":34962
		},
		{
			"buffer":0,
			"byteLength":144,
			"byteOffset":51976,
			"target":34963
		}
	],
	"samplers":[
		{
			"magFilter":9729,
			"minFilter":9987
		}
	],
	"buffers":[
		{
			"byteLength":52120,
			"uri":"tile_6_1_2.bin"
		}
	]
}
