{
	"asset":{
		"generator":"Khronos glTF Blender I/O v4.0.44",
		"version":"2.0"
	},
	"extensionsUsed":[
		"KHR_materials_specular",
		"KHR_materials_ior",
		"KHR_materials_emissive_strength"
	],
	"scene":0,
	"scenes":[
		{
			"name":"Scene",
			"nodes":[
				0,
				1,
				2,
				3,
				4,
				5,
				6,
				7,
				8,
				9,
				10
			]
		}
	],
	"nodes":[
		{
			"mesh":0,
			"name":"Plane",
			"scale":[
				7.873531341552734,
				0.9841914176940918,
				7.873531341552734
			]
		},
		{
			"mesh":1,
			"name":"track.094",
			"scale":[
				3.7706682682037354,
				3.7706682682037354,
				3.7706682682037354
			]
		},
		{
			"mesh":2,
			"name":"Torus.016",
			"rotation":[
				0.6081892251968384,
				0.3607020080089569,
				-0.3607020378112793,
				0.6081892251968384
			],
			"scale":[
				0.9492738246917725,
				0.9492738246917725,
				0.9492737650871277
			]
		},
		{
			"mesh":3,
			"name":"Cube.008"
		},
		{
			"name":"Cube.084"
		},
		{
			"mesh":4,
			"name":"Cube.085"
		},
		{
			"mesh":5,
			"name":"Cube.086"
		},
		{
			"mesh":6,
			"name":"Cube.087"
		},
		{
			"mesh":7,
			"name":"Cube.088"
		},
		{
			"mesh":8,
			"name":"Cube.089"
		},
		{
			"mesh":9,
			"name":"Cube.090"
		}
	],
	"materials":[
		{
			"doubleSided":true,
			"extensions":{
				"KHR_materials_specular":{
					"specularColorFactor":[
						2.0,
						2.0,
						2.0
					]
				},
				"KHR_materials_ior":{
					"ior":1.4500000476837158
				}
			},
			"name":"building",
			"pbrMetallicRoughness":{
				"baseColorTexture":{
					"index":0
				},
				"metallicFactor":0
			}
		},
		{
			"doubleSided":true,
			"emissiveFactor":[
				1,
				0.003797386313042906,
				0
			],
			"extensions":{
				"KHR_materials_emissive_strength":{
					"emissiveStrength":7.991064786911011
				}
			},
			"name":"Glow9",
			"pbrMetallicRoughness":{
				"baseColorFactor":[
					0.8000000715255737,
					0.0031031807884573936,
					0,
					1
				],
				"metallicFactor":0
			}
		},
		{
			"doubleSided":true,
			"emissiveFactor":[
				1,
				1,
				1
			],
			"extensions":{
				"KHR_materials_emissive_strength":{
					"emissiveStrength":4
				}
			},
			"name":"Glow2",
			"pbrMetallicRoughness":{
				"baseColorFactor":[
					0.800000011920929,
					0.800000011920929,
					0.800000011920929,
					1
				],
				"metallicFactor":0,
				"roughnessFactor":0.5
			}
		}
	],
	"meshes":[
		{
			"name":"Plane.838",
			"primitives":[
				{
					"attributes":{
						"POSITION":0,
						"NORMAL":1,
						"TEXCOORD_0":2
					},
					"indices":3,
					"material":0
				}
			]
		},
		{
			"name":"Plane.839",
			"primitives":[
				{
					"attributes":{
						"POSITION":4,
						"NORMAL":5,
						"TEXCOORD_0":6
					},
					"indices":7,
					"material":0
				}
			]
		},
		{
			"name":"Torus.069",
			"primitives":[
				{
					"attributes":{
						"POSITION":8,
						"NORMAL":9,
						"TEXCOORD_0":10
					},
					"indices":11,
					"material":0
				},
				{
					"attributes":{
						"POSITION":12,
						"NORMAL":13,
						"TEXCOORD_0":14
					},
					"indices":15,
					"material":1
				},
				{
					"attributes":{
						"POSITION":16,
						"NORMAL":17,
						"TEXCOORD_0":18
					},
					"indices":19,
					"material":2
				}
			]
		},
		{
			"name":"Cube.586",
			"primitives":[
				{
					"attributes":{
						"POSITION":20,
						"NORMAL":21,
						"TEXCOORD_0":22
					},
					"indices":23,
					"material":0
				}
			]
		},
		{
			"name":"Cube.588",
			"primitives":[
				{
					"attributes":{
						"POSITION":24,
						"NORMAL":25,
						"TEXCOORD_0":26,
						"TANGENT":27
					},
					"indices":28,
					"material":0
				},
				{
					"attributes":{
						"POSITION":29,
						"NORMAL":30,
						"TEXCOORD_0":31,
						"TANGENT":32
					},
					"indices":33,
					"material":0
				}
			]
		},
		{
			"name":"Cube.589",
			"primitives":[
				{
					"attributes":{
						"POSITION":34,
						"NORMAL":35,
						"TEXCOORD_0":36,
						"TANGENT":37
					},
					"indices":38,
					"material":0
				}
			]
		},
		{
			"name":"Cube.590",
			"primitives":[
				{
					"attributes":{
						"POSITION":39,
						"NORMAL":40,
						"TEXCOORD_0":41,
						"TANGENT":42
					},
					"indices":43,
					"material":0
				}
			]
		},
		{
			"name":"Cube.591",
			"primitives":[
				{
					"attributes":{
						"POSITION":44,
						"NORMAL":45,
						"TEXCOORD_0":46,
						"TANGENT":47
					},
					"indices":43,
					"material":0
				}
			]
		},
		{
			"name":"Cube.592",
			"primitives":[
				{
					"attributes":{
						"POSITION":48,
						"NORMAL":49,
						"TEXCOORD_0":50
					},
					"indices":51,
					"material":0
				},
				{
					"attributes":{
						"POSITION":52,
						"NORMAL":53,
						"TEXCOORD_0":54
					},
					"indices":55,
					"material":0
				}
			]
		},
		{
			"name":"Cube.593",
			"primitives":[
				{
					"attributes":{
						"POSITION":56,
						"NORMAL":57,
						"TEXCOORD_0":58,
						"TANGENT":59
					},
					"indices":60,
					"material":0
				},
				{
					"attributes":{
						"POSITION":61,
						"NORMAL":62,
						"TEXCOORD_0":63,
						"TANGENT":64
					},
					"indices":65,
					"material":0
				}
			]
		}
	],
	"textures":[
		{
			"sampler":0,
			"source":0
		}
	],
	"images":[
		{
			"mimeType":"image/png",
			"name":"AvatarWearables_TX",
			"uri":"tex/AvatarWearables_TX.png"
		}
	],
	"accessors":[
		{
			"bufferView":0,
			"componentType":5126,
			"count":58,
			"max":[
				0.5080313682556152,
				-13.651815414428711,
				0.5080313682556152
			],
			"min":[
				-0.5080313682556152,
				-16.256999969482422,
				-0.5080313682556152
			],
			"type":"VEC3"
		},
		{
			"bufferView":1,
			"componentType":5126,
			"count":58,
			"type":"VEC3"
		},
		{
			"bufferView":2,
			"componentType":5126,
			"count":58,
			"type":"VEC2"
		},
		{
			"bufferView":3,
			"componentType":5123,
			"count":198,
			"type":"SCALAR"
		},
		{
			"bufferView":4,
			"componentType":5126,
			"count":30,
			"max":[
				-0.9332876205444336,
				-3.174515962600708,
				1.0608196258544922
			],
			"min":[
				-1.0608205795288086,
				-3.333225727081299,
				0.9666576385498047
			],
			"type":"VEC3"
		},
		{
			"bufferView":5,
			"componentType":5126,
			"count":30,
			"type":"VEC3"
		},
		{
			"bufferView":6,
			"componentType":5126,
			"count":30,
			"type":"VEC2"
		},
		{
			"bufferView":7,
			"componentType":5123,
			"count":48,
			"type":"SCALAR"
		},
		{
			"bufferView":8,
			"componentType":5126,
			"count":551,
			"max":[
				2.3562910556793213,
				-3.299764633178711,
				15.387243270874023
			],
			"min":[
				-1.2195683717727661,
				-5.571847915649414,
				7.085602760314941
			],
			"type":"VEC3"
		},
		{
			"bufferView":9,
			"componentType":5126,
			"count":551,
			"type":"VEC3"
		},
		{
			"bufferView":10,
			"componentType":5126,
			"count":551,
			"type":"VEC2"
		},
		{
			"bufferView":11,
			"componentType":5123,
			"count":1965,
			"type":"SCALAR"
		},
		{
			"bufferView":12,
			"componentType":5126,
			"count":30,
			"max":[
				2.35617995262146,
				-4.037652969360352,
				15.334332466125488
			],
			"min":[
				-1.0375851392745972,
				-5.010829925537109,
				8.293402671813965
			],
			"type":"VEC3"
		},
		{
			"bufferView":13,
			"componentType":5126,
			"count":30,
			"type":"VEC3"
		},
		{
			"bufferView":14,
			"componentType":5126,
			"count":30,
			"type":"VEC2"
		},
		{
			"bufferView":15,
			"componentType":5123,
			"count":78,
			"type":"SCALAR"
		},
		{
			"bufferView":16,
			"componentType":5126,
			"count":33,
			"max":[
				1.826926350593567,
				-3.299764633178711,
				13.951382637023926
			],
			"min":[
				-1.1807799339294434,
				-5.514789581298828,
				7.304638862609863
			],
			"type":"VEC3"
		},
		{
			"bufferView":17,
			"componentType":5126,
			"count":33,
			"type":"VEC3"
		},
		{
			"bufferView":18,
			"componentType":5126,
			"count":33,
			"type":"VEC2"
		},
		{
			"bufferView":19,
			"componentType":5123,
			"count":81,
			"type":"SCALAR"
		},
		{
			"bufferView":20,
			"componentType":5126,
			"count":80,
			"max":[
				4,
				-11.940752983093262,
				-1.422548770904541
			],
			"min":[
				-0.6967573165893555,
				-14.759161949157715,
				-4
			],
			"type":"VEC3"
		},
		{
			"bufferView":21,
			"componentType":5126,
			"count":80,
			"type":"VEC3"
		},
		{
			"bufferView":22,
			"componentType":5126,
			"count":80,
			"type":"VEC2"
		},
		{
			"bufferView":23,
			"componentType":5123,
			"count":180,
			"type":"SCALAR"
		},
		{
			"bufferView":24,
			"componentType":5126,
			"count":16,
			"max":[
				4,
				-13.759504318237305,
				-3.6356968879699707
			],
			"min":[
				3.175168514251709,
				-13.817451477050781,
				-4
			],
			"type":"VEC3"
		},
		{
			"bufferView":25,
			"componentType":5126,
			"count":16,
			"type":"VEC3"
		},
		{
			"bufferView":26,
			"componentType":5126,
			"count":16,
			"type":"VEC2"
		},
		{
			"bufferView":27,
			"componentType":5126,
			"count":16,
			"type":"VEC4"
		},
		{
			"bufferView":28,
			"componentType":5123,
			"count":24,
			"type":"SCALAR"
		},
		{
			"bufferView":29,
			"componentType":5126,
			"count":8,
			"max":[
				4,
				-13.759504318237305,
				-3.6356968879699707
			],
			"min":[
				3.175168514251709,
				-13.817451477050781,
				-4
			],
			"type":"VEC3"
		},
		{
			"bufferView":30,
			"componentType":5126,
			"count":8,
			"type":"VEC3"
		},
		{
			"bufferView":31,
			"componentType":5126,
			"count":8,
			"type":"VEC2"
		},
		{
			"bufferView":32,
			"componentType":5126,
			"count":8,
			"type":"VEC4"
		},
		{
			"bufferView":33,
			"componentType":5123,
			"count":12,
			"type":"SCALAR"
		},
		{
			"bufferView":34,
			"componentType":5126,
			"count":24,
			"max":[
				4,
				-13.469769477844238,
				-3.229348659515381
			],
			"min":[
				2.255141496658325,
				-13.527716636657715,
				-4
			],
			"type":"VEC3"
		},
		{
			"bufferView":35,
			"componentType":5126,
			"count":24,
			"type":"VEC3"
		},
		{
			"bufferView":36,
			"componentType":5126,
			"count":24,
			"type":"VEC2"
		},
		{
			"bufferView":37,
			"componentType":5126,
			"count":24,
			"type":"VEC4"
		},
		{
			"bufferView":38,
			"componentType":5123,
			"count":36,
			"type":"SCALAR"
		},
		{
			"bufferView":39,
			"componentType":5126,
			"count":24,
			"max":[
				4,
				-13.180034637451172,
				-2.82300066947937
			],
			"min":[
				1.3351149559020996,
				-13.237981796264648,
				-4
			],
			"type":"VEC3"
		},
		{
			"bufferView":40,
			"componentType":5126,
			"count":24,
			"type":"VEC3"
		},
		{
			"bufferView":41,
			"componentType":5126,
			"count":24,
			"type":"VEC2"
		},
		{
			"bufferView":42,
			"componentType":5126,
			"count":24,
			"type":"VEC4"
		},
		{
			"bufferView":43,
			"componentType":5123,
			"count":36,
			"type":"SCALAR"
		},
		{
			"bufferView":44,
			"componentType":5126,
			"count":24,
			"max":[
				4,
				-12.890298843383789,
				-2.4166526794433594
			],
			"min":[
				0.4150881767272949,
				-12.948246002197266,
				-4
			],
			"type":"VEC3"
		},
		{
			"bufferView":45,
			"componentType":5126,
			"count":24,
			"type":"VEC3"
		},
		{
			"bufferView":46,
			"componentType":5126,
			"count":24,
			"type":"VEC2"
		},
		{
			"bufferView":47,
			"componentType":5126,
			"count":24,
			"type":"VEC4"
		},
		{
			"bufferView":48,
			"componentType":5126,
			"count":22,
			"max":[
				4,
				-12.600564002990723,
				-2.0103044509887695
			],
			"min":[
				-0.4297056198120117,
				-12.6585111618042,
				-4
			],
			"type":"VEC3"
		},
		{
			"bufferView":49,
			"componentType":5126,
			"count":22,
			"type":"VEC3"
		},
		{
			"bufferView":50,
			"componentType":5126,
			"count":22,
			"type":"VEC2"
		},
		{
			"bufferView":51,
			"componentType":5123,
			"count":36,
			"type":"SCALAR"
		},
		{
			"bufferView":52,
			"componentType":5126,
			"count":8,
			"max":[
				4,
				-12.600564002990723,
				-2.0103044509887695
			],
			"min":[
				-0.41502952575683594,
				-12.6585111618042,
				-4
			],
			"type":"VEC3"
		},
		{
			"bufferView":53,
			"componentType":5126,
			"count":8,
			"type":"VEC3"
		},
		{
			"bufferView":54,
			"componentType":5126,
			"count":8,
			"type":"VEC2"
		},
		{
			"bufferView":55,
			"componentType":5123,
			"count":12,
			"type":"SCALAR"
		},
		{
			"bufferView":56,
			"componentType":5126,
			"count":20,
			"max":[
				4,
				-12.31082820892334,
				-1.6039563417434692
			],
			"min":[
				-0.5798821449279785,
				-12.368775367736816,
				-3.796761989593506
			],
			"type":"VEC3"
		},
		{
			"bufferView":57,
			"componentType":5126,
			"count":20,
			"type":"VEC3"
		},
		{
			"bufferView":58,
			"componentType":5126,
			"count":20,
			"type":"VEC2"
		},
		{
			"bufferView":59,
			"componentType":5126,
			"count":20,
			"type":"VEC4"
		},
		{
			"bufferView":60,
			"componentType":5123,
			"count":30,
			"type":"SCALAR"
		},
		{
			"bufferView":61,
			"componentType":5126,
			"count":4,
			"max":[
				4,
				-12.31082820892334,
				-1.6039563417434692
			],
			"min":[
				4,
				-12.368775367736816,
				-1.8071306943893433
			],
			"type":"VEC3"
		},
		{
			"bufferView":62,
			"componentType":5126,
			"count":4,
			"type":"VEC3"
		},
		{
			"bufferView":63,
			"componentType":5126,
			"count":4,
			"type":"VEC2"
		},
		{
			"bufferView":64,
			"componentType":5126,
			"count":4,
			"type":"VEC4"
		},
		{
			"bufferView":65,
			"componentType":5123,
			"count":6,
			"type":"SCALAR"
		}
	],
	"bufferViews":[
		{
			"buffer":0,
			"byteLength":696,
			"byteOffset":0,
			"target":34962
		},
		{
			"buffer":0,
			"byteLength":696,
			"byteOffset":696,
			"target":34962
		},
		{
			"buffer":0,
			"byteLength":464,
			"byteOffset":1392,
			"target":34962
		},
		{
			"buffer":0,
			"byteLength":396,
			"byteOffset":1856,
			"target":34963
		},
		{
			"buffer":0,
			"byteLength":360,
			"byteOffset":2252,
			"target":34962
		},
		{
			"buffer":0,
			"byteLength":360,
			"byteOffset":2612,
			"target":34962
		},
		{
			"buffer":0,
			"byteLength":240,
			"byteOffset":2972,
			"target":34962
		},
		{
			"buffer":0,
			"byteLength":96,
			"byteOffset":3212,
			"target":34963
		},
		{
			"buffer":0,
			"byteLength":6612,
			"byteOffset":3308,
			"target":34962
		},
		{
			"buffer":0,
			"byteLength":6612,
			"byteOffset":9920,
			"target":34962
		},
		{
			"buffer":0,
			"byteLength":4408,
			"byteOffset":16532,
			"target":34962
		},
		{
			"buffer":0,
			"byteLength":3930,
			"byteOffset":20940,
			"target":34963
		},
		{
			"buffer":0,
			"byteLength":360,
			"byteOffset":24872,
			"target":34962
		},
		{
			"buffer":0,
			"byteLength":360,
			"byteOffset":25232,
			"target":34962
		},
		{
			"buffer":0,
			"byteLength":240,
			"byteOffset":25592,
			"target":34962
		},
		{
			"buffer":0,
			"byteLength":156,
			"byteOffset":25832,
			"target":34963
		},
		{
			"buffer":0,
			"byteLength":396,
			"byteOffset":25988,
			"target":34962
		},
		{
			"buffer":0,
			"byteLength":396,
			"byteOffset":26384,
			"target":34962
		},
		{
			"buffer":0,
			"byteLength":264,
			"byteOffset":26780,
			"target":34962
		},
		{
			"buffer":0,
			"byteLength":162,
			"byteOffset":27044,
			"target":34963
		},
		{
			"buffer":0,
			"byteLength":960,
			"byteOffset":27208,
			"target":34962
		},
		{
			"buffer":0,
			"byteLength":960,
			"byteOffset":28168,
			"target":34962
		},
		{
			"buffer":0,
			"byteLength":640,
			"byteOffset":29128,
			"target":34962
		},
		{
			"buffer":0,
			"byteLength":360,
			"byteOffset":29768,
			"target":34963
		},
		{
			"buffer":0,
			"byteLength":192,
			"byteOffset":30128,
			"target":34962
		},
		{
			"buffer":0,
			"byteLength":192,
			"byteOffset":30320,
			"target":34962
		},
		{
			"buffer":0,
			"byteLength":128,
			"byteOffset":30512,
			"target":34962
		},
		{
			"buffer":0,
			"byteLength":256,
			"byteOffset":30640,
			"target":34962
		},
		{
			"buffer":0,
			"byteLength":48,
			"byteOffset":30896,
			"target":34963
		},
		{
			"buffer":0,
			"byteLength":96,
			"byteOffset":30944,
			"target":34962
		},
		{
			"buffer":0,
			"byteLength":96,
			"byteOffset":31040,
			"target":34962
		},
		{
			"buffer":0,
			"byteLength":64,
			"byteOffset":31136,
			"target":34962
		},
		{
			"buffer":0,
			"byteLength":128,
			"byteOffset":31200,
			"target":34962
		},
		{
			"buffer":0,
			"byteLength":24,
			"byteOffset":31328,
			"target":34963
		},
		{
			"buffer":0,
			"byteLength":288,
			"byteOffset":31352,
			"target":34962
		},
		{
			"buffer":0,
			"byteLength":288,
			"byteOffset":31640,
			"target":34962
		},
		{
			"buffer":0,
			"byteLength":192,
			"byteOffset":31928,
			"target":34962
		},
		{
			"buffer":0,
			"byteLength":384,
			"byteOffset":32120,
			"target":34962
		},
		{
			"buffer":0,
			"byteLength":72,
			"byteOffset":32504,
			"target":34963
		},
		{
			"buffer":0,
			"byteLength":288,
			"byteOffset":32576,
			"target":34962
		},
		{
			"buffer":0,
			"byteLength":288,
			"byteOffset":32864,
			"target":34962
		},
		{
			"buffer":0,
			"byteLength":192,
			"byteOffset":33152,
			"target":34962
		},
		{
			"buffer":0,
			"byteLength":384,
			"byteOffset":33344,
			"target":34962
		},
		{
			"buffer":0,
			"byteLength":72,
			"byteOffset":33728,
			"target":34963
		},
		{
			"buffer":0,
			"byteLength":288,
			"byteOffset":33800,
			"target":34962
		},
		{
			"buffer":0,
			"byteLength":288,
			"byteOffset":34088,
			"target":34962
		},
		{
			"buffer":0,
			"byteLength":192,
			"byteOffset":34376,
			"target":34962
		},
		{
			"buffer":0,
			"byteLength":384,
			"byteOffset":34568,
			"target":34962
		},
		{
			"buffer":0,
			"byteLength":264,
			"byteOffset":34952,
			"target":34962
		},
		{
			"buffer":0,
			"byteLength":264,
			"byteOffset":35216,
			"target":34962
		},
		{
			"buffer":0,
			"byteLength":176,
			"byteOffset":35480,
			"target":34962
		},
		{
			"buffer":0,
			"byteLength":72,
			"byteOffset":35656,
			"target":34963
		},
		{
			"buffer":0,
			"byteLength":96,
			"byteOffset":35728,
			"target":34962
		},
		{
			"buffer":0,
			"byteLength":96,
			"byteOffset":35824,
			"target":34962
		},
		{
			"buffer":0,
			"byteLength":64,
			"byteOffset":35920,
			"target":34962
		},
		{
			"buffer":0,
			"byteLength":24,
			"byteOffset":35984,
			"target":34963
		},
		{
			"buffer":0,
			"byteLength":240,
			"byteOffset":36008,
			"target":34962
		},
		{
			"buffer":0,
			"byteLength":240,
			"byteOffset":36248,
			"target":34962
		},
		{
			"buffer":0,
			"byteLength":160,
			"byteOffset":36488,
			"target":34962
		},
		{
			"buffer":0,
			"byteLength":320,
			"byteOffset":36648,
			"target":34962
		},
		{
			"buffer":0,
			"byteLength":60,
			"byteOffset":36968,
			"target":34963
		},
		{
			"buffer":0,
			"byteLength":48,
			"byteOffset":37028,
			"target":34962
		},
		{
			"buffer":0,
			"byteLength":48,
			"byteOffset":37076,
			"target":34962
		},
		{
			"buffer":0,
			"byteLength":32,
			"byteOffset":37124,
			"target":34962
		},
		{
			"buffer":0,
			"byteLength":64,
			"byteOffset":37156,
			"target":34962
		},
		{
			"buffer":0,
			"byteLength":12,
			"byteOffset":37220,
			"target":34963
		}
	],
	"samplers":[
		{
			"magFilter":9729,
			"minFilter":9987
		}
	],
	"buffers":[
		{
			"byteLength":37232,
			"uri":"tile_7_0_9.bin"
		}
	]
}
