{
	"asset":{
		"generator":"Khronos glTF Blender I/O v4.0.44",
		"version":"2.0"
	},
	"extensionsUsed":[
		"KHR_materials_specular",
		"KHR_materials_ior"
	],
	"scene":0,
	"scenes":[
		{
			"name":"Scene",
			"nodes":[
				0,
				1,
				2,
				3,
				4,
				5
			]
		}
	],
	"nodes":[
		{
			"mesh":0,
			"name":"Plane",
			"scale":[
				7.873531341552734,
				0.9841914176940918,
				7.873531341552734
			]
		},
		{
			"mesh":1,
			"name":"track.266",
			"scale":[
				3.7706682682037354,
				3.7706682682037354,
				3.7706682682037354
			]
		},
		{
			"mesh":2,
			"name":"Cylinder.013"
		},
		{
			"mesh":3,
			"name":"Cylinder.091"
		},
		{
			"mesh":4,
			"name":"Cylinder.092"
		},
		{
			"mesh":5,
			"name":"Cylinder.093"
		}
	],
	"materials":[
		{
			"doubleSided":true,
			"extensions":{
				"KHR_materials_specular":{
					"specularColorFactor":[
						2.0,
						2.0,
						2.0
					]
				},
				"KHR_materials_ior":{
					"ior":1.4500000476837158
				}
			},
			"name":"building",
			"pbrMetallicRoughness":{
				"baseColorTexture":{
					"index":0
				},
				"metallicFactor":0
			}
		}
	],
	"meshes":[
		{
			"name":"Plane.1182",
			"primitives":[
				{
					"attributes":{
						"POSITION":0,
						"NORMAL":1,
						"TEXCOORD_0":2,
						"TANGENT":3
					},
					"indices":4,
					"material":0
				}
			]
		},
		{
			"name":"Plane.1183",
			"primitives":[
				{
					"attributes":{
						"POSITION":5,
						"NORMAL":6,
						"TEXCOORD_0":7
					},
					"indices":8,
					"material":0
				},
				{
					"attributes":{
						"POSITION":9,
						"NORMAL":10,
						"TEXCOORD_0":11
					},
					"indices":12,
					"material":0
				}
			]
		},
		{
			"name":"Cylinder.468",
			"primitives":[
				{
					"attributes":{
						"POSITION":13,
						"NORMAL":14,
						"TEXCOORD_0":15
					},
					"indices":16,
					"material":0
				}
			]
		},
		{
			"name":"Cylinder.469",
			"primitives":[
				{
					"attributes":{
						"POSITION":17,
						"NORMAL":18,
						"TEXCOORD_0":19,
						"TANGENT":20
					},
					"indices":21,
					"material":0
				}
			]
		},
		{
			"name":"Cylinder.470",
			"primitives":[
				{
					"attributes":{
						"POSITION":22,
						"NORMAL":23,
						"TEXCOORD_0":24,
						"TANGENT":25
					},
					"indices":21,
					"material":0
				}
			]
		},
		{
			"name":"Cylinder.471",
			"primitives":[
				{
					"attributes":{
						"POSITION":26,
						"NORMAL":27,
						"TEXCOORD_0":28,
						"TANGENT":29
					},
					"indices":21,
					"material":0
				}
			]
		}
	],
	"textures":[
		{
			"sampler":0,
			"source":0
		}
	],
	"images":[
		{
			"mimeType":"image/png",
			"name":"AvatarWearables_TX",
			"uri":"tex/AvatarWearables_TX.png"
		}
	],
	"accessors":[
		{
			"bufferView":0,
			"componentType":5126,
			"count":36,
			"max":[
				0.5080289840698242,
				-14.900496482849121,
				0.5080307722091675
			],
			"min":[
				-0.5080327987670898,
				-14.900496482849121,
				-0.508031964302063
			],
			"type":"VEC3"
		},
		{
			"bufferView":1,
			"componentType":5126,
			"count":36,
			"type":"VEC3"
		},
		{
			"bufferView":2,
			"componentType":5126,
			"count":36,
			"type":"VEC2"
		},
		{
			"bufferView":3,
			"componentType":5126,
			"count":36,
			"type":"VEC4"
		},
		{
			"bufferView":4,
			"componentType":5123,
			"count":150,
			"type":"SCALAR"
		},
		{
			"bufferView":5,
			"componentType":5126,
			"count":20,
			"max":[
				-0.2103443145751953,
				-3.541438341140747,
				0.09210467338562012
			],
			"min":[
				-1.0608234405517578,
				-4.107338905334473,
				-1.0608198642730713
			],
			"type":"VEC3"
		},
		{
			"bufferView":6,
			"componentType":5126,
			"count":20,
			"type":"VEC3"
		},
		{
			"bufferView":7,
			"componentType":5126,
			"count":20,
			"type":"VEC2"
		},
		{
			"bufferView":8,
			"componentType":5123,
			"count":30,
			"type":"SCALAR"
		},
		{
			"bufferView":9,
			"componentType":5126,
			"count":14,
			"max":[
				-0.2103443145751953,
				-3.541438341140747,
				0.09210467338562012
			],
			"min":[
				-1.0608234405517578,
				-4.243279933929443,
				-1.0608198642730713
			],
			"type":"VEC3"
		},
		{
			"bufferView":10,
			"componentType":5126,
			"count":14,
			"type":"VEC3"
		},
		{
			"bufferView":11,
			"componentType":5126,
			"count":14,
			"type":"VEC2"
		},
		{
			"bufferView":12,
			"componentType":5123,
			"count":30,
			"type":"SCALAR"
		},
		{
			"bufferView":13,
			"componentType":5126,
			"count":141,
			"max":[
				0.3815884590148926,
				-8.028947830200195,
				0.9814789295196533
			],
			"min":[
				-1.375725507736206,
				-14.57923412322998,
				-0.6694087982177734
			],
			"type":"VEC3"
		},
		{
			"bufferView":14,
			"componentType":5126,
			"count":141,
			"type":"VEC3"
		},
		{
			"bufferView":15,
			"componentType":5126,
			"count":141,
			"type":"VEC2"
		},
		{
			"bufferView":16,
			"componentType":5123,
			"count":564,
			"type":"SCALAR"
		},
		{
			"bufferView":17,
			"componentType":5126,
			"count":60,
			"max":[
				0.8236446380615234,
				-4.984043121337891,
				1.7075252532958984
			],
			"min":[
				-2.3911421298980713,
				-8.754802703857422,
				-1.6650545597076416
			],
			"type":"VEC3"
		},
		{
			"bufferView":18,
			"componentType":5126,
			"count":60,
			"type":"VEC3"
		},
		{
			"bufferView":19,
			"componentType":5126,
			"count":60,
			"type":"VEC2"
		},
		{
			"bufferView":20,
			"componentType":5126,
			"count":60,
			"type":"VEC4"
		},
		{
			"bufferView":21,
			"componentType":5123,
			"count":60,
			"type":"SCALAR"
		},
		{
			"bufferView":22,
			"componentType":5126,
			"count":60,
			"max":[
				0.6505053043365479,
				-10.446611404418945,
				1.8453084230422974
			],
			"min":[
				-0.5768569707870483,
				-11.886237144470215,
				0.5577027201652527
			],
			"type":"VEC3"
		},
		{
			"bufferView":23,
			"componentType":5126,
			"count":60,
			"type":"VEC3"
		},
		{
			"bufferView":24,
			"componentType":5126,
			"count":60,
			"type":"VEC2"
		},
		{
			"bufferView":25,
			"componentType":5126,
			"count":60,
			"type":"VEC4"
		},
		{
			"bufferView":26,
			"componentType":5126,
			"count":60,
			"max":[
				-0.10203033685684204,
				-12.231616973876953,
				-0.23623131215572357
			],
			"min":[
				-0.7582590579986572,
				-13.001335144042969,
				-0.9246700406074524
			],
			"type":"VEC3"
		},
		{
			"bufferView":27,
			"componentType":5126,
			"count":60,
			"type":"VEC3"
		},
		{
			"bufferView":28,
			"componentType":5126,
			"count":60,
			"type":"VEC2"
		},
		{
			"bufferView":29,
			"componentType":5126,
			"count":60,
			"type":"VEC4"
		}
	],
	"bufferViews":[
		{
			"buffer":0,
			"byteLength":432,
			"byteOffset":0,
			"target":34962
		},
		{
			"buffer":0,
			"byteLength":432,
			"byteOffset":432,
			"target":34962
		},
		{
			"buffer":0,
			"byteLength":288,
			"byteOffset":864,
			"target":34962
		},
		{
			"buffer":0,
			"byteLength":576,
			"byteOffset":1152,
			"target":34962
		},
		{
			"buffer":0,
			"byteLength":300,
			"byteOffset":1728,
			"target":34963
		},
		{
			"buffer":0,
			"byteLength":240,
			"byteOffset":2028,
			"target":34962
		},
		{
			"buffer":0,
			"byteLength":240,
			"byteOffset":2268,
			"target":34962
		},
		{
			"buffer":0,
			"byteLength":160,
			"byteOffset":2508,
			"target":34962
		},
		{
			"buffer":0,
			"byteLength":60,
			"byteOffset":2668,
			"target":34963
		},
		{
			"buffer":0,
			"byteLength":168,
			"byteOffset":2728,
			"target":34962
		},
		{
			"buffer":0,
			"byteLength":168,
			"byteOffset":2896,
			"target":34962
		},
		{
			"buffer":0,
			"byteLength":112,
			"byteOffset":3064,
			"target":34962
		},
		{
			"buffer":0,
			"byteLength":60,
			"byteOffset":3176,
			"target":34963
		},
		{
			"buffer":0,
			"byteLength":1692,
			"byteOffset":3236,
			"target":34962
		},
		{
			"buffer":0,
			"byteLength":1692,
			"byteOffset":4928,
			"target":34962
		},
		{
			"buffer":0,
			"byteLength":1128,
			"byteOffset":6620,
			"target":34962
		},
		{
			"buffer":0,
			"byteLength":1128,
			"byteOffset":7748,
			"target":34963
		},
		{
			"buffer":0,
			"byteLength":720,
			"byteOffset":8876,
			"target":34962
		},
		{
			"buffer":0,
			"byteLength":720,
			"byteOffset":9596,
			"target":34962
		},
		{
			"buffer":0,
			"byteLength":480,
			"byteOffset":10316,
			"target":34962
		},
		{
			"buffer":0,
			"byteLength":960,
			"byteOffset":10796,
			"target":34962
		},
		{
			"buffer":0,
			"byteLength":120,
			"byteOffset":11756,
			"target":34963
		},
		{
			"buffer":0,
			"byteLength":720,
			"byteOffset":11876,
			"target":34962
		},
		{
			"buffer":0,
			"byteLength":720,
			"byteOffset":12596,
			"target":34962
		},
		{
			"buffer":0,
			"byteLength":480,
			"byteOffset":13316,
			"target":34962
		},
		{
			"buffer":0,
			"byteLength":960,
			"byteOffset":13796,
			"target":34962
		},
		{
			"buffer":0,
			"byteLength":720,
			"byteOffset":14756,
			"target":34962
		},
		{
			"buffer":0,
			"byteLength":720,
			"byteOffset":15476,
			"target":34962
		},
		{
			"buffer":0,
			"byteLength":480,
			"byteOffset":16196,
			"target":34962
		},
		{
			"buffer":0,
			"byteLength":960,
			"byteOffset":16676,
			"target":34962
		}
	],
	"samplers":[
		{
			"magFilter":9729,
			"minFilter":9987
		}
	],
	"buffers":[
		{
			"byteLength":17636,
			"uri":"tile_22_0_1.bin"
		}
	]
}
