{
	"asset":{
		"generator":"Khronos glTF Blender I/O v4.0.44",
		"version":"2.0"
	},
	"extensionsUsed":[
		"KHR_materials_specular",
		"KHR_materials_ior",
		"KHR_materials_emissive_strength"
	],
	"scene":0,
	"scenes":[
		{
			"name":"Scene",
			"nodes":[
				0,
				1
			]
		}
	],
	"nodes":[
		{
			"name":"Plane",
			"scale":[
				7.873531341552734,
				0.9841914176940918,
				7.873531341552734
			]
		},
		{
			"mesh":0,
			"name":"Cube.002",
			"rotation":[
				0,
				-0.30317404866218567,
				0,
				0.9529352188110352
			],
			"scale":[
				3.3134214878082275,
				3.3134217262268066,
				3.3134214878082275
			]
		}
	],
	"materials":[
		{
			"doubleSided":true,
			"extensions":{
				"KHR_materials_specular":{
					"specularColorFactor":[
						2.0,
						2.0,
						2.0
					]
				},
				"KHR_materials_ior":{
					"ior":1.4500000476837158
				}
			},
			"name":"building",
			"pbrMetallicRoughness":{
				"baseColorTexture":{
					"index":0
				},
				"metallicFactor":0
			}
		},
		{
			"doubleSided":true,
			"emissiveFactor":[
				0.0802171136311348,
				0.06480263589233753,
				1
			],
			"extensions":{
				"KHR_materials_emissive_strength":{
					"emissiveStrength":2.0000481605529785
				}
			},
			"name":"Glow5",
			"pbrMetallicRoughness":{
				"baseColorFactor":[
					0.08072357624769211,
					0.06527391821146011,
					1,
					1
				],
				"metallicFactor":0
			}
		}
	],
	"meshes":[
		{
			"name":"Cube.505",
			"primitives":[
				{
					"attributes":{
						"POSITION":0,
						"NORMAL":1,
						"TEXCOORD_0":2
					},
					"indices":3,
					"material":0
				},
				{
					"attributes":{
						"POSITION":4,
						"NORMAL":5,
						"TEXCOORD_0":6
					},
					"indices":7,
					"material":1
				}
			]
		}
	],
	"textures":[
		{
			"sampler":0,
			"source":0
		}
	],
	"images":[
		{
			"mimeType":"image/png",
			"name":"AvatarWearables_TX",
			"uri":"tex/AvatarWearables_TX.png"
		}
	],
	"accessors":[
		{
			"bufferView":0,
			"componentType":5126,
			"count":653,
			"max":[
				2.8808603286743164,
				-0.6069140434265137,
				-0.07714742422103882
			],
			"min":[
				0.9176548719406128,
				-2.4144225120544434,
				-2.0403528213500977
			],
			"type":"VEC3"
		},
		{
			"bufferView":1,
			"componentType":5126,
			"count":653,
			"type":"VEC3"
		},
		{
			"bufferView":2,
			"componentType":5126,
			"count":653,
			"type":"VEC2"
		},
		{
			"bufferView":3,
			"componentType":5123,
			"count":1173,
			"type":"SCALAR"
		},
		{
			"bufferView":4,
			"componentType":5126,
			"count":17,
			"max":[
				2.377988338470459,
				-1.295553207397461,
				-0.5800195932388306
			],
			"min":[
				1.4205271005630493,
				-1.295553207397461,
				-1.5374807119369507
			],
			"type":"VEC3"
		},
		{
			"bufferView":5,
			"componentType":5126,
			"count":17,
			"type":"VEC3"
		},
		{
			"bufferView":6,
			"componentType":5126,
			"count":17,
			"type":"VEC2"
		},
		{
			"bufferView":7,
			"componentType":5123,
			"count":27,
			"type":"SCALAR"
		}
	],
	"bufferViews":[
		{
			"buffer":0,
			"byteLength":7836,
			"byteOffset":0,
			"target":34962
		},
		{
			"buffer":0,
			"byteLength":7836,
			"byteOffset":7836,
			"target":34962
		},
		{
			"buffer":0,
			"byteLength":5224,
			"byteOffset":15672,
			"target":34962
		},
		{
			"buffer":0,
			"byteLength":2346,
			"byteOffset":20896,
			"target":34963
		},
		{
			"buffer":0,
			"byteLength":204,
			"byteOffset":23244,
			"target":34962
		},
		{
			"buffer":0,
			"byteLength":204,
			"byteOffset":23448,
			"target":34962
		},
		{
			"buffer":0,
			"byteLength":136,
			"byteOffset":23652,
			"target":34962
		},
		{
			"buffer":0,
			"byteLength":54,
			"byteOffset":23788,
			"target":34963
		}
	],
	"samplers":[
		{
			"magFilter":9729,
			"minFilter":9987
		}
	],
	"buffers":[
		{
			"byteLength":23844,
			"uri":"tile_10_1_5.bin"
		}
	]
}
