{
	"asset":{
		"generator":"Khronos glTF Blender I/O v4.0.44",
		"version":"2.0"
	},
	"extensionsUsed":[
		"KHR_materials_specular",
		"KHR_materials_ior",
		"KHR_materials_emissive_strength"
	],
	"scene":0,
	"scenes":[
		{
			"name":"Scene",
			"nodes":[
				0,
				1
			]
		}
	],
	"nodes":[
		{
			"name":"Plane",
			"scale":[
				7.873531341552734,
				0.9841914176940918,
				7.873531341552734
			]
		},
		{
			"mesh":0,
			"name":"Icosphere",
			"scale":[
				1.2608476877212524,
				1.2608476877212524,
				1.2608476877212524
			]
		}
	],
	"materials":[
		{
			"doubleSided":true,
			"extensions":{
				"KHR_materials_specular":{
					"specularColorFactor":[
						2.0,
						2.0,
						2.0
					]
				},
				"KHR_materials_ior":{
					"ior":1.4500000476837158
				}
			},
			"name":"building2",
			"pbrMetallicRoughness":{
				"baseColorTexture":{
					"index":0
				},
				"metallicFactor":0,
				"roughnessFactor":0.17924527823925018
			}
		},
		{
			"doubleSided":true,
			"emissiveFactor":[
				1,
				1,
				1
			],
			"extensions":{
				"KHR_materials_emissive_strength":{
					"emissiveStrength":4
				}
			},
			"name":"Glow2",
			"pbrMetallicRoughness":{
				"baseColorFactor":[
					0.800000011920929,
					0.800000011920929,
					0.800000011920929,
					1
				],
				"metallicFactor":0,
				"roughnessFactor":0.5
			}
		}
	],
	"meshes":[
		{
			"name":"Icosphere.019",
			"primitives":[
				{
					"attributes":{
						"POSITION":0,
						"NORMAL":1,
						"TEXCOORD_0":2
					},
					"indices":3,
					"material":0
				},
				{
					"attributes":{
						"POSITION":4,
						"NORMAL":5,
						"TEXCOORD_0":6
					},
					"indices":7,
					"material":1
				},
				{
					"attributes":{
						"POSITION":8,
						"NORMAL":9,
						"TEXCOORD_0":10
					},
					"indices":11,
					"material":1
				}
			]
		}
	],
	"textures":[
		{
			"sampler":0,
			"source":0
		}
	],
	"images":[
		{
			"mimeType":"image/png",
			"name":"AvatarWearables_TX",
			"uri":"tex/AvatarWearables_TX.png"
		}
	],
	"accessors":[
		{
			"bufferView":0,
			"componentType":5126,
			"count":100,
			"max":[
				6.344937324523926,
				-3.882828712463379,
				-1.0544543266296387
			],
			"min":[
				1.138535499572754,
				-6.344937324523926,
				-6.344937324523926
			],
			"type":"VEC3"
		},
		{
			"bufferView":1,
			"componentType":5126,
			"count":100,
			"type":"VEC3"
		},
		{
			"bufferView":2,
			"componentType":5126,
			"count":100,
			"type":"VEC2"
		},
		{
			"bufferView":3,
			"componentType":5123,
			"count":357,
			"type":"SCALAR"
		},
		{
			"bufferView":4,
			"componentType":5126,
			"count":19,
			"max":[
				6.344937324523926,
				-4.463342666625977,
				-2.1060376167297363
			],
			"min":[
				2.7678728103637695,
				-6.190434455871582,
				-6.344937324523926
			],
			"type":"VEC3"
		},
		{
			"bufferView":5,
			"componentType":5126,
			"count":19,
			"type":"VEC3"
		},
		{
			"bufferView":6,
			"componentType":5126,
			"count":19,
			"type":"VEC2"
		},
		{
			"bufferView":7,
			"componentType":5123,
			"count":21,
			"type":"SCALAR"
		},
		{
			"bufferView":8,
			"componentType":5126,
			"count":70,
			"max":[
				6.344937324523926,
				-3.882828712463379,
				-1.0544543266296387
			],
			"min":[
				1.138535499572754,
				-6.344937324523926,
				-6.344937324523926
			],
			"type":"VEC3"
		},
		{
			"bufferView":9,
			"componentType":5126,
			"count":70,
			"type":"VEC3"
		},
		{
			"bufferView":10,
			"componentType":5126,
			"count":70,
			"type":"VEC2"
		},
		{
			"bufferView":11,
			"componentType":5123,
			"count":192,
			"type":"SCALAR"
		}
	],
	"bufferViews":[
		{
			"buffer":0,
			"byteLength":1200,
			"byteOffset":0,
			"target":34962
		},
		{
			"buffer":0,
			"byteLength":1200,
			"byteOffset":1200,
			"target":34962
		},
		{
			"buffer":0,
			"byteLength":800,
			"byteOffset":2400,
			"target":34962
		},
		{
			"buffer":0,
			"byteLength":714,
			"byteOffset":3200,
			"target":34963
		},
		{
			"buffer":0,
			"byteLength":228,
			"byteOffset":3916,
			"target":34962
		},
		{
			"buffer":0,
			"byteLength":228,
			"byteOffset":4144,
			"target":34962
		},
		{
			"buffer":0,
			"byteLength":152,
			"byteOffset":4372,
			"target":34962
		},
		{
			"buffer":0,
			"byteLength":42,
			"byteOffset":4524,
			"target":34963
		},
		{
			"buffer":0,
			"byteLength":840,
			"byteOffset":4568,
			"target":34962
		},
		{
			"buffer":0,
			"byteLength":840,
			"byteOffset":5408,
			"target":34962
		},
		{
			"buffer":0,
			"byteLength":560,
			"byteOffset":6248,
			"target":34962
		},
		{
			"buffer":0,
			"byteLength":384,
			"byteOffset":6808,
			"target":34963
		}
	],
	"samplers":[
		{
			"magFilter":9729,
			"minFilter":9987
		}
	],
	"buffers":[
		{
			"byteLength":7192,
			"uri":"tile_7_1_3.bin"
		}
	]
}
