{
	"asset":{
		"generator":"Khronos glTF Blender I/O v4.0.44",
		"version":"2.0"
	},
	"extensionsUsed":[
		"KHR_materials_specular",
		"KHR_materials_ior"
	],
	"scene":0,
	"scenes":[
		{
			"name":"Scene",
			"nodes":[
				0,
				1
			]
		}
	],
	"nodes":[
		{
			"mesh":0,
			"name":"Plane",
			"scale":[
				7.873531341552734,
				0.9841914176940918,
				7.873531341552734
			]
		},
		{
			"name":"track.088",
			"scale":[
				3.7706682682037354,
				3.7706682682037354,
				3.7706682682037354
			]
		}
	],
	"materials":[
		{
			"doubleSided":true,
			"extensions":{
				"KHR_materials_specular":{
					"specularColorFactor":[
						2.0,
						2.0,
						2.0
					]
				},
				"KHR_materials_ior":{
					"ior":1.4500000476837158
				}
			},
			"name":"building",
			"pbrMetallicRoughness":{
				"baseColorTexture":{
					"index":0
				},
				"metallicFactor":0
			}
		}
	],
	"meshes":[
		{
			"name":"Plane.826",
			"primitives":[
				{
					"attributes":{
						"POSITION":0,
						"NORMAL":1,
						"TEXCOORD_0":2
					},
					"indices":3,
					"material":0
				},
				{
					"attributes":{
						"POSITION":4,
						"NORMAL":5,
						"TEXCOORD_0":6
					},
					"indices":7,
					"material":0
				}
			]
		}
	],
	"textures":[
		{
			"sampler":0,
			"source":0
		}
	],
	"images":[
		{
			"mimeType":"image/png",
			"name":"AvatarWearables_TX",
			"uri":"tex/AvatarWearables_TX.png"
		}
	],
	"accessors":[
		{
			"bufferView":0,
			"componentType":5126,
			"count":45,
			"max":[
				0.5080313682556152,
				-13.89592456817627,
				0.508030891418457
			],
			"min":[
				-0.5080313682556152,
				-14.900496482849121,
				-0.5080318450927734
			],
			"type":"VEC3"
		},
		{
			"bufferView":1,
			"componentType":5126,
			"count":45,
			"type":"VEC3"
		},
		{
			"bufferView":2,
			"componentType":5126,
			"count":45,
			"type":"VEC2"
		},
		{
			"bufferView":3,
			"componentType":5123,
			"count":177,
			"type":"SCALAR"
		},
		{
			"bufferView":4,
			"componentType":5126,
			"count":15,
			"max":[
				0.5080313682556152,
				-13.89592456817627,
				-0.2917490005493164
			],
			"min":[
				-0.5080313682556152,
				-16.256999969482422,
				-0.5080318450927734
			],
			"type":"VEC3"
		},
		{
			"bufferView":5,
			"componentType":5126,
			"count":15,
			"type":"VEC3"
		},
		{
			"bufferView":6,
			"componentType":5126,
			"count":15,
			"type":"VEC2"
		},
		{
			"bufferView":7,
			"componentType":5123,
			"count":27,
			"type":"SCALAR"
		}
	],
	"bufferViews":[
		{
			"buffer":0,
			"byteLength":540,
			"byteOffset":0,
			"target":34962
		},
		{
			"buffer":0,
			"byteLength":540,
			"byteOffset":540,
			"target":34962
		},
		{
			"buffer":0,
			"byteLength":360,
			"byteOffset":1080,
			"target":34962
		},
		{
			"buffer":0,
			"byteLength":354,
			"byteOffset":1440,
			"target":34963
		},
		{
			"buffer":0,
			"byteLength":180,
			"byteOffset":1796,
			"target":34962
		},
		{
			"buffer":0,
			"byteLength":180,
			"byteOffset":1976,
			"target":34962
		},
		{
			"buffer":0,
			"byteLength":120,
			"byteOffset":2156,
			"target":34962
		},
		{
			"buffer":0,
			"byteLength":54,
			"byteOffset":2276,
			"target":34963
		}
	],
	"samplers":[
		{
			"magFilter":9729,
			"minFilter":9987
		}
	],
	"buffers":[
		{
			"byteLength":2332,
			"uri":"tile_7_0_3.bin"
		}
	]
}
