{
	"asset":{
		"generator":"Khronos glTF Blender I/O v4.0.44",
		"version":"2.0"
	},
	"extensionsUsed":[
		"KHR_materials_specular",
		"KHR_materials_ior"
	],
	"scene":0,
	"scenes":[
		{
			"name":"Scene",
			"nodes":[
				0,
				1,
				2,
				3,
				4,
				5,
				6,
				7,
				8,
				9,
				10
			]
		}
	],
	"nodes":[
		{
			"mesh":0,
			"name":"Plane",
			"scale":[
				7.873531341552734,
				0.9841914176940918,
				7.873531341552734
			]
		},
		{
			"mesh":1,
			"name":"track.106",
			"scale":[
				3.7706682682037354,
				3.7706682682037354,
				3.7706682682037354
			]
		},
		{
			"name":"Torus.019",
			"rotation":[
				0.6081892251968384,
				0.3607020080089569,
				-0.3607020378112793,
				0.6081892251968384
			],
			"scale":[
				0.9492738246917725,
				0.9492738246917725,
				0.9492737650871277
			]
		},
		{
			"mesh":2,
			"name":"Cube.008"
		},
		{
			"mesh":3,
			"name":"Cube.084"
		},
		{
			"mesh":4,
			"name":"Cube.085"
		},
		{
			"mesh":5,
			"name":"Cube.086"
		},
		{
			"mesh":6,
			"name":"Cube.087"
		},
		{
			"mesh":7,
			"name":"Cube.088"
		},
		{
			"mesh":8,
			"name":"Cube.089"
		},
		{
			"mesh":9,
			"name":"Cube.090"
		}
	],
	"materials":[
		{
			"doubleSided":true,
			"extensions":{
				"KHR_materials_specular":{
					"specularColorFactor":[
						2.0,
						2.0,
						2.0
					]
				},
				"KHR_materials_ior":{
					"ior":1.4500000476837158
				}
			},
			"name":"building",
			"pbrMetallicRoughness":{
				"baseColorTexture":{
					"index":0
				},
				"metallicFactor":0
			}
		}
	],
	"meshes":[
		{
			"name":"Plane.862",
			"primitives":[
				{
					"attributes":{
						"POSITION":0,
						"NORMAL":1,
						"TEXCOORD_0":2
					},
					"indices":3,
					"material":0
				}
			]
		},
		{
			"name":"Plane.863",
			"primitives":[
				{
					"attributes":{
						"POSITION":4,
						"NORMAL":5,
						"TEXCOORD_0":6
					},
					"indices":7,
					"material":0
				},
				{
					"attributes":{
						"POSITION":8,
						"NORMAL":9,
						"TEXCOORD_0":10
					},
					"indices":11,
					"material":0
				}
			]
		},
		{
			"name":"Cube.611",
			"primitives":[
				{
					"attributes":{
						"POSITION":12,
						"NORMAL":13,
						"TEXCOORD_0":14
					},
					"indices":15,
					"material":0
				},
				{
					"attributes":{
						"POSITION":16,
						"NORMAL":17,
						"TEXCOORD_0":18
					},
					"indices":19,
					"material":0
				}
			]
		},
		{
			"name":"Cube.612",
			"primitives":[
				{
					"attributes":{
						"POSITION":20,
						"NORMAL":21,
						"TEXCOORD_0":22,
						"TANGENT":23
					},
					"indices":24,
					"material":0
				},
				{
					"attributes":{
						"POSITION":25,
						"NORMAL":26,
						"TEXCOORD_0":27,
						"TANGENT":28
					},
					"indices":29,
					"material":0
				}
			]
		},
		{
			"name":"Cube.613",
			"primitives":[
				{
					"attributes":{
						"POSITION":30,
						"NORMAL":31,
						"TEXCOORD_0":32,
						"TANGENT":33
					},
					"indices":34,
					"material":0
				},
				{
					"attributes":{
						"POSITION":35,
						"NORMAL":36,
						"TEXCOORD_0":37,
						"TANGENT":38
					},
					"indices":39,
					"material":0
				}
			]
		},
		{
			"name":"Cube.614",
			"primitives":[
				{
					"attributes":{
						"POSITION":40,
						"NORMAL":41,
						"TEXCOORD_0":42,
						"TANGENT":43
					},
					"indices":44,
					"material":0
				}
			]
		},
		{
			"name":"Cube.615",
			"primitives":[
				{
					"attributes":{
						"POSITION":45,
						"NORMAL":46,
						"TEXCOORD_0":47,
						"TANGENT":48
					},
					"indices":34,
					"material":0
				},
				{
					"attributes":{
						"POSITION":49,
						"NORMAL":50,
						"TEXCOORD_0":51,
						"TANGENT":52
					},
					"indices":39,
					"material":0
				}
			]
		},
		{
			"name":"Cube.616",
			"primitives":[
				{
					"attributes":{
						"POSITION":53,
						"NORMAL":54,
						"TEXCOORD_0":55,
						"TANGENT":56
					},
					"indices":44,
					"material":0
				}
			]
		},
		{
			"name":"Cube.617",
			"primitives":[
				{
					"attributes":{
						"POSITION":57,
						"NORMAL":58,
						"TEXCOORD_0":59,
						"TANGENT":60
					},
					"indices":61,
					"material":0
				}
			]
		},
		{
			"name":"Cube.618",
			"primitives":[
				{
					"attributes":{
						"POSITION":62,
						"NORMAL":63,
						"TEXCOORD_0":64,
						"TANGENT":65
					},
					"indices":34,
					"material":0
				},
				{
					"attributes":{
						"POSITION":66,
						"NORMAL":67,
						"TEXCOORD_0":68,
						"TANGENT":69
					},
					"indices":70,
					"material":0
				}
			]
		}
	],
	"textures":[
		{
			"sampler":0,
			"source":0
		}
	],
	"images":[
		{
			"mimeType":"image/png",
			"name":"AvatarWearables_TX",
			"uri":"tex/AvatarWearables_TX.png"
		}
	],
	"accessors":[
		{
			"bufferView":0,
			"componentType":5126,
			"count":65,
			"max":[
				0.5080323219299316,
				-13.619308471679688,
				0.5080313682556152
			],
			"min":[
				-0.5080304145812988,
				-16.256999969482422,
				-0.5080313682556152
			],
			"type":"VEC3"
		},
		{
			"bufferView":1,
			"componentType":5126,
			"count":65,
			"type":"VEC3"
		},
		{
			"bufferView":2,
			"componentType":5126,
			"count":65,
			"type":"VEC2"
		},
		{
			"bufferView":3,
			"componentType":5123,
			"count":210,
			"type":"SCALAR"
		},
		{
			"bufferView":4,
			"componentType":5126,
			"count":15,
			"max":[
				1.0608196258544922,
				-3.545689582824707,
				-0.7838459014892578
			],
			"min":[
				0.2958559989929199,
				-4.107335090637207,
				-1.0608196258544922
			],
			"type":"VEC3"
		},
		{
			"bufferView":5,
			"componentType":5126,
			"count":15,
			"type":"VEC3"
		},
		{
			"bufferView":6,
			"componentType":5126,
			"count":15,
			"type":"VEC2"
		},
		{
			"bufferView":7,
			"componentType":5123,
			"count":21,
			"type":"SCALAR"
		},
		{
			"bufferView":8,
			"componentType":5126,
			"count":12,
			"max":[
				1.0608196258544922,
				-3.545689582824707,
				-0.7838459014892578
			],
			"min":[
				0.2958559989929199,
				-4.243279933929443,
				-1.0608196258544922
			],
			"type":"VEC3"
		},
		{
			"bufferView":9,
			"componentType":5126,
			"count":12,
			"type":"VEC3"
		},
		{
			"bufferView":10,
			"componentType":5126,
			"count":12,
			"type":"VEC2"
		},
		{
			"bufferView":11,
			"componentType":5123,
			"count":24,
			"type":"SCALAR"
		},
		{
			"bufferView":12,
			"componentType":5126,
			"count":80,
			"max":[
				1.135828971862793,
				-11.940752983093262,
				0.3428678512573242
			],
			"min":[
				-4,
				-14.759161949157715,
				-4
			],
			"type":"VEC3"
		},
		{
			"bufferView":13,
			"componentType":5126,
			"count":80,
			"type":"VEC3"
		},
		{
			"bufferView":14,
			"componentType":5126,
			"count":80,
			"type":"VEC2"
		},
		{
			"bufferView":15,
			"componentType":5123,
			"count":180,
			"type":"SCALAR"
		},
		{
			"bufferView":16,
			"componentType":5126,
			"count":16,
			"max":[
				-2.859748363494873,
				-11.940752983093262,
				-1.422548770904541
			],
			"min":[
				-4,
				-14.759161949157715,
				-4
			],
			"type":"VEC3"
		},
		{
			"bufferView":17,
			"componentType":5126,
			"count":16,
			"type":"VEC3"
		},
		{
			"bufferView":18,
			"componentType":5126,
			"count":16,
			"type":"VEC2"
		},
		{
			"bufferView":19,
			"componentType":5123,
			"count":36,
			"type":"SCALAR"
		},
		{
			"bufferView":20,
			"componentType":5126,
			"count":20,
			"max":[
				0.9905009269714355,
				-14.049240112304688,
				-1.8710558414459229
			],
			"min":[
				-3.9048044681549072,
				-14.107187271118164,
				-4
			],
			"type":"VEC3"
		},
		{
			"bufferView":21,
			"componentType":5126,
			"count":20,
			"type":"VEC3"
		},
		{
			"bufferView":22,
			"componentType":5126,
			"count":20,
			"type":"VEC2"
		},
		{
			"bufferView":23,
			"componentType":5126,
			"count":20,
			"type":"VEC4"
		},
		{
			"bufferView":24,
			"componentType":5123,
			"count":30,
			"type":"SCALAR"
		},
		{
			"bufferView":25,
			"componentType":5126,
			"count":4,
			"max":[
				-3.444791078567505,
				-14.049240112304688,
				-4
			],
			"min":[
				-3.9048044681549072,
				-14.107187271118164,
				-4
			],
			"type":"VEC3"
		},
		{
			"bufferView":26,
			"componentType":5126,
			"count":4,
			"type":"VEC3"
		},
		{
			"bufferView":27,
			"componentType":5126,
			"count":4,
			"type":"VEC2"
		},
		{
			"bufferView":28,
			"componentType":5126,
			"count":4,
			"type":"VEC4"
		},
		{
			"bufferView":29,
			"componentType":5123,
			"count":6,
			"type":"SCALAR"
		},
		{
			"bufferView":30,
			"componentType":5126,
			"count":20,
			"max":[
				0.8403244018554688,
				-13.759504318237305,
				-1.531036138534546
			],
			"min":[
				-4,
				-13.817451477050781,
				-3.8388705253601074
			],
			"type":"VEC3"
		},
		{
			"bufferView":31,
			"componentType":5126,
			"count":20,
			"type":"VEC3"
		},
		{
			"bufferView":32,
			"componentType":5126,
			"count":20,
			"type":"VEC2"
		},
		{
			"bufferView":33,
			"componentType":5126,
			"count":20,
			"type":"VEC4"
		},
		{
			"bufferView":34,
			"componentType":5123,
			"count":30,
			"type":"SCALAR"
		},
		{
			"bufferView":35,
			"componentType":5126,
			"count":4,
			"max":[
				-4,
				-13.759504318237305,
				-3.6356968879699707
			],
			"min":[
				-4,
				-13.817451477050781,
				-3.8388705253601074
			],
			"type":"VEC3"
		},
		{
			"bufferView":36,
			"componentType":5126,
			"count":4,
			"type":"VEC3"
		},
		{
			"bufferView":37,
			"componentType":5126,
			"count":4,
			"type":"VEC2"
		},
		{
			"bufferView":38,
			"componentType":5126,
			"count":4,
			"type":"VEC4"
		},
		{
			"bufferView":39,
			"componentType":5123,
			"count":6,
			"type":"SCALAR"
		},
		{
			"bufferView":40,
			"componentType":5126,
			"count":24,
			"max":[
				0.690147876739502,
				-13.469769477844238,
				-1.191016435623169
			],
			"min":[
				-4,
				-13.527716636657715,
				-3.432523012161255
			],
			"type":"VEC3"
		},
		{
			"bufferView":41,
			"componentType":5126,
			"count":24,
			"type":"VEC3"
		},
		{
			"bufferView":42,
			"componentType":5126,
			"count":24,
			"type":"VEC2"
		},
		{
			"bufferView":43,
			"componentType":5126,
			"count":24,
			"type":"VEC4"
		},
		{
			"bufferView":44,
			"componentType":5123,
			"count":36,
			"type":"SCALAR"
		},
		{
			"bufferView":45,
			"componentType":5126,
			"count":20,
			"max":[
				0.5399713516235352,
				-13.180034637451172,
				-0.850996732711792
			],
			"min":[
				-4,
				-13.237981796264648,
				-3.026174545288086
			],
			"type":"VEC3"
		},
		{
			"bufferView":46,
			"componentType":5126,
			"count":20,
			"type":"VEC3"
		},
		{
			"bufferView":47,
			"componentType":5126,
			"count":20,
			"type":"VEC2"
		},
		{
			"bufferView":48,
			"componentType":5126,
			"count":20,
			"type":"VEC4"
		},
		{
			"bufferView":49,
			"componentType":5126,
			"count":4,
			"max":[
				-4,
				-13.180034637451172,
				-2.82300066947937
			],
			"min":[
				-4,
				-13.237981796264648,
				-3.026174545288086
			],
			"type":"VEC3"
		},
		{
			"bufferView":50,
			"componentType":5126,
			"count":4,
			"type":"VEC3"
		},
		{
			"bufferView":51,
			"componentType":5126,
			"count":4,
			"type":"VEC2"
		},
		{
			"bufferView":52,
			"componentType":5126,
			"count":4,
			"type":"VEC4"
		},
		{
			"bufferView":53,
			"componentType":5126,
			"count":24,
			"max":[
				0.38979482650756836,
				-12.890298843383789,
				-0.510977029800415
			],
			"min":[
				-4,
				-12.948246002197266,
				-2.619826555252075
			],
			"type":"VEC3"
		},
		{
			"bufferView":54,
			"componentType":5126,
			"count":24,
			"type":"VEC3"
		},
		{
			"bufferView":55,
			"componentType":5126,
			"count":24,
			"type":"VEC2"
		},
		{
			"bufferView":56,
			"componentType":5126,
			"count":24,
			"type":"VEC4"
		},
		{
			"bufferView":57,
			"componentType":5126,
			"count":24,
			"max":[
				0.23961877822875977,
				-12.600564002990723,
				-0.17095732688903809
			],
			"min":[
				-4,
				-12.6585111618042,
				-2.2134785652160645
			],
			"type":"VEC3"
		},
		{
			"bufferView":58,
			"componentType":5126,
			"count":24,
			"type":"VEC3"
		},
		{
			"bufferView":59,
			"componentType":5126,
			"count":24,
			"type":"VEC2"
		},
		{
			"bufferView":60,
			"componentType":5126,
			"count":24,
			"type":"VEC4"
		},
		{
			"bufferView":61,
			"componentType":5123,
			"count":36,
			"type":"SCALAR"
		},
		{
			"bufferView":62,
			"componentType":5126,
			"count":20,
			"max":[
				0.08944225311279297,
				-12.31082820892334,
				0.16906261444091797
			],
			"min":[
				-4,
				-12.368775367736816,
				-1.8071306943893433
			],
			"type":"VEC3"
		},
		{
			"bufferView":63,
			"componentType":5126,
			"count":20,
			"type":"VEC3"
		},
		{
			"bufferView":64,
			"componentType":5126,
			"count":20,
			"type":"VEC2"
		},
		{
			"bufferView":65,
			"componentType":5126,
			"count":20,
			"type":"VEC4"
		},
		{
			"bufferView":66,
			"componentType":5126,
			"count":4,
			"max":[
				-4,
				-12.31082820892334,
				-1.6039563417434692
			],
			"min":[
				-4,
				-12.368775367736816,
				-1.8071306943893433
			],
			"type":"VEC3"
		},
		{
			"bufferView":67,
			"componentType":5126,
			"count":4,
			"type":"VEC3"
		},
		{
			"bufferView":68,
			"componentType":5126,
			"count":4,
			"type":"VEC2"
		},
		{
			"bufferView":69,
			"componentType":5126,
			"count":4,
			"type":"VEC4"
		},
		{
			"bufferView":70,
			"componentType":5123,
			"count":6,
			"type":"SCALAR"
		}
	],
	"bufferViews":[
		{
			"buffer":0,
			"byteLength":780,
			"byteOffset":0,
			"target":34962
		},
		{
			"buffer":0,
			"byteLength":780,
			"byteOffset":780,
			"target":34962
		},
		{
			"buffer":0,
			"byteLength":520,
			"byteOffset":1560,
			"target":34962
		},
		{
			"buffer":0,
			"byteLength":420,
			"byteOffset":2080,
			"target":34963
		},
		{
			"buffer":0,
			"byteLength":180,
			"byteOffset":2500,
			"target":34962
		},
		{
			"buffer":0,
			"byteLength":180,
			"byteOffset":2680,
			"target":34962
		},
		{
			"buffer":0,
			"byteLength":120,
			"byteOffset":2860,
			"target":34962
		},
		{
			"buffer":0,
			"byteLength":42,
			"byteOffset":2980,
			"target":34963
		},
		{
			"buffer":0,
			"byteLength":144,
			"byteOffset":3024,
			"target":34962
		},
		{
			"buffer":0,
			"byteLength":144,
			"byteOffset":3168,
			"target":34962
		},
		{
			"buffer":0,
			"byteLength":96,
			"byteOffset":3312,
			"target":34962
		},
		{
			"buffer":0,
			"byteLength":48,
			"byteOffset":3408,
			"target":34963
		},
		{
			"buffer":0,
			"byteLength":960,
			"byteOffset":3456,
			"target":34962
		},
		{
			"buffer":0,
			"byteLength":960,
			"byteOffset":4416,
			"target":34962
		},
		{
			"buffer":0,
			"byteLength":640,
			"byteOffset":5376,
			"target":34962
		},
		{
			"buffer":0,
			"byteLength":360,
			"byteOffset":6016,
			"target":34963
		},
		{
			"buffer":0,
			"byteLength":192,
			"byteOffset":6376,
			"target":34962
		},
		{
			"buffer":0,
			"byteLength":192,
			"byteOffset":6568,
			"target":34962
		},
		{
			"buffer":0,
			"byteLength":128,
			"byteOffset":6760,
			"target":34962
		},
		{
			"buffer":0,
			"byteLength":72,
			"byteOffset":6888,
			"target":34963
		},
		{
			"buffer":0,
			"byteLength":240,
			"byteOffset":6960,
			"target":34962
		},
		{
			"buffer":0,
			"byteLength":240,
			"byteOffset":7200,
			"target":34962
		},
		{
			"buffer":0,
			"byteLength":160,
			"byteOffset":7440,
			"target":34962
		},
		{
			"buffer":0,
			"byteLength":320,
			"byteOffset":7600,
			"target":34962
		},
		{
			"buffer":0,
			"byteLength":60,
			"byteOffset":7920,
			"target":34963
		},
		{
			"buffer":0,
			"byteLength":48,
			"byteOffset":7980,
			"target":34962
		},
		{
			"buffer":0,
			"byteLength":48,
			"byteOffset":8028,
			"target":34962
		},
		{
			"buffer":0,
			"byteLength":32,
			"byteOffset":8076,
			"target":34962
		},
		{
			"buffer":0,
			"byteLength":64,
			"byteOffset":8108,
			"target":34962
		},
		{
			"buffer":0,
			"byteLength":12,
			"byteOffset":8172,
			"target":34963
		},
		{
			"buffer":0,
			"byteLength":240,
			"byteOffset":8184,
			"target":34962
		},
		{
			"buffer":0,
			"byteLength":240,
			"byteOffset":8424,
			"target":34962
		},
		{
			"buffer":0,
			"byteLength":160,
			"byteOffset":8664,
			"target":34962
		},
		{
			"buffer":0,
			"byteLength":320,
			"byteOffset":8824,
			"target":34962
		},
		{
			"buffer":0,
			"byteLength":60,
			"byteOffset":9144,
			"target":34963
		},
		{
			"buffer":0,
			"byteLength":48,
			"byteOffset":9204,
			"target":34962
		},
		{
			"buffer":0,
			"byteLength":48,
			"byteOffset":9252,
			"target":34962
		},
		{
			"buffer":0,
			"byteLength":32,
			"byteOffset":9300,
			"target":34962
		},
		{
			"buffer":0,
			"byteLength":64,
			"byteOffset":9332,
			"target":34962
		},
		{
			"buffer":0,
			"byteLength":12,
			"byteOffset":9396,
			"target":34963
		},
		{
			"buffer":0,
			"byteLength":288,
			"byteOffset":9408,
			"target":34962
		},
		{
			"buffer":0,
			"byteLength":288,
			"byteOffset":9696,
			"target":34962
		},
		{
			"buffer":0,
			"byteLength":192,
			"byteOffset":9984,
			"target":34962
		},
		{
			"buffer":0,
			"byteLength":384,
			"byteOffset":10176,
			"target":34962
		},
		{
			"buffer":0,
			"byteLength":72,
			"byteOffset":10560,
			"target":34963
		},
		{
			"buffer":0,
			"byteLength":240,
			"byteOffset":10632,
			"target":34962
		},
		{
			"buffer":0,
			"byteLength":240,
			"byteOffset":10872,
			"target":34962
		},
		{
			"buffer":0,
			"byteLength":160,
			"byteOffset":11112,
			"target":34962
		},
		{
			"buffer":0,
			"byteLength":320,
			"byteOffset":11272,
			"target":34962
		},
		{
			"buffer":0,
			"byteLength":48,
			"byteOffset":11592,
			"target":34962
		},
		{
			"buffer":0,
			"byteLength":48,
			"byteOffset":11640,
			"target":34962
		},
		{
			"buffer":0,
			"byteLength":32,
			"byteOffset":11688,
			"target":34962
		},
		{
			"buffer":0,
			"byteLength":64,
			"byteOffset":11720,
			"target":34962
		},
		{
			"buffer":0,
			"byteLength":288,
			"byteOffset":11784,
			"target":34962
		},
		{
			"buffer":0,
			"byteLength":288,
			"byteOffset":12072,
			"target":34962
		},
		{
			"buffer":0,
			"byteLength":192,
			"byteOffset":12360,
			"target":34962
		},
		{
			"buffer":0,
			"byteLength":384,
			"byteOffset":12552,
			"target":34962
		},
		{
			"buffer":0,
			"byteLength":288,
			"byteOffset":12936,
			"target":34962
		},
		{
			"buffer":0,
			"byteLength":288,
			"byteOffset":13224,
			"target":34962
		},
		{
			"buffer":0,
			"byteLength":192,
			"byteOffset":13512,
			"target":34962
		},
		{
			"buffer":0,
			"byteLength":384,
			"byteOffset":13704,
			"target":34962
		},
		{
			"buffer":0,
			"byteLength":72,
			"byteOffset":14088,
			"target":34963
		},
		{
			"buffer":0,
			"byteLength":240,
			"byteOffset":14160,
			"target":34962
		},
		{
			"buffer":0,
			"byteLength":240,
			"byteOffset":14400,
			"target":34962
		},
		{
			"buffer":0,
			"byteLength":160,
			"byteOffset":14640,
			"target":34962
		},
		{
			"buffer":0,
			"byteLength":320,
			"byteOffset":14800,
			"target":34962
		},
		{
			"buffer":0,
			"byteLength":48,
			"byteOffset":15120,
			"target":34962
		},
		{
			"buffer":0,
			"byteLength":48,
			"byteOffset":15168,
			"target":34962
		},
		{
			"buffer":0,
			"byteLength":32,
			"byteOffset":15216,
			"target":34962
		},
		{
			"buffer":0,
			"byteLength":64,
			"byteOffset":15248,
			"target":34962
		},
		{
			"buffer":0,
			"byteLength":12,
			"byteOffset":15312,
			"target":34963
		}
	],
	"samplers":[
		{
			"magFilter":9729,
			"minFilter":9987
		}
	],
	"buffers":[
		{
			"byteLength":15324,
			"uri":"tile_8_0_9.bin"
		}
	]
}
