{
	"asset":{
		"generator":"Khronos glTF Blender I/O v4.0.44",
		"version":"2.0"
	},
	"extensionsUsed":[
		"KHR_materials_specular",
		"KHR_materials_ior"
	],
	"scene":0,
	"scenes":[
		{
			"name":"Scene",
			"nodes":[
				0,
				1
			]
		}
	],
	"nodes":[
		{
			"mesh":0,
			"name":"Plane",
			"scale":[
				7.873531341552734,
				0.9841914176940918,
				7.873531341552734
			]
		},
		{
			"mesh":1,
			"name":"Plane.001",
			"scale":[
				3.7706682682037354,
				3.7706682682037354,
				3.7706682682037354
			]
		}
	],
	"materials":[
		{
			"doubleSided":true,
			"extensions":{
				"KHR_materials_specular":{
					"specularColorFactor":[
						2.0,
						2.0,
						2.0
					]
				},
				"KHR_materials_ior":{
					"ior":1.4500000476837158
				}
			},
			"name":"building",
			"pbrMetallicRoughness":{
				"baseColorTexture":{
					"index":0
				},
				"metallicFactor":0
			}
		}
	],
	"meshes":[
		{
			"name":"Plane.011",
			"primitives":[
				{
					"attributes":{
						"POSITION":0,
						"NORMAL":1,
						"TEXCOORD_0":2
					},
					"indices":3,
					"material":0
				},
				{
					"attributes":{
						"POSITION":4,
						"NORMAL":5,
						"TEXCOORD_0":6
					},
					"indices":7,
					"material":0
				}
			]
		},
		{
			"name":"Plane.012",
			"primitives":[
				{
					"attributes":{
						"POSITION":8,
						"NORMAL":9,
						"TEXCOORD_0":10,
						"TANGENT":11
					},
					"indices":12,
					"material":0
				},
				{
					"attributes":{
						"POSITION":13,
						"NORMAL":14,
						"TEXCOORD_0":15,
						"TANGENT":16
					},
					"indices":17,
					"material":0
				}
			]
		}
	],
	"textures":[
		{
			"sampler":0,
			"source":0
		}
	],
	"images":[
		{
			"mimeType":"image/png",
			"name":"AvatarWearables_TX",
			"uri":"tex/AvatarWearables_TX.png"
		}
	],
	"accessors":[
		{
			"bufferView":0,
			"componentType":5126,
			"count":152,
			"max":[
				1.0160627365112305,
				-6.4392781257629395,
				1.0160620212554932
			],
			"min":[
				-0.8110675811767578,
				-6.77199649810791,
				-1.0160629749298096
			],
			"type":"VEC3"
		},
		{
			"bufferView":1,
			"componentType":5126,
			"count":152,
			"type":"VEC3"
		},
		{
			"bufferView":2,
			"componentType":5126,
			"count":152,
			"type":"VEC2"
		},
		{
			"bufferView":3,
			"componentType":5123,
			"count":627,
			"type":"SCALAR"
		},
		{
			"bufferView":4,
			"componentType":5126,
			"count":23,
			"max":[
				1.0160627365112305,
				-6.4392781257629395,
				1.0160620212554932
			],
			"min":[
				-0.8110675811767578,
				-6.77199649810791,
				-1.0160629749298096
			],
			"type":"VEC3"
		},
		{
			"bufferView":5,
			"componentType":5126,
			"count":23,
			"type":"VEC3"
		},
		{
			"bufferView":6,
			"componentType":5126,
			"count":23,
			"type":"VEC2"
		},
		{
			"bufferView":7,
			"componentType":5123,
			"count":36,
			"type":"SCALAR"
		},
		{
			"bufferView":8,
			"componentType":5126,
			"count":10,
			"max":[
				2.1216392517089844,
				-1.417011022567749,
				2.1216397285461426
			],
			"min":[
				1.8509387969970703,
				-1.6286571025848389,
				1.9725364446640015
			],
			"type":"VEC3"
		},
		{
			"bufferView":9,
			"componentType":5126,
			"count":10,
			"type":"VEC3"
		},
		{
			"bufferView":10,
			"componentType":5126,
			"count":10,
			"type":"VEC2"
		},
		{
			"bufferView":11,
			"componentType":5126,
			"count":10,
			"type":"VEC4"
		},
		{
			"bufferView":12,
			"componentType":5123,
			"count":12,
			"type":"SCALAR"
		},
		{
			"bufferView":13,
			"componentType":5126,
			"count":8,
			"max":[
				2.1216392517089844,
				-1.417011022567749,
				2.1216397285461426
			],
			"min":[
				1.8509387969970703,
				-1.6286571025848389,
				1.9725364446640015
			],
			"type":"VEC3"
		},
		{
			"bufferView":14,
			"componentType":5126,
			"count":8,
			"type":"VEC3"
		},
		{
			"bufferView":15,
			"componentType":5126,
			"count":8,
			"type":"VEC2"
		},
		{
			"bufferView":16,
			"componentType":5126,
			"count":8,
			"type":"VEC4"
		},
		{
			"bufferView":17,
			"componentType":5123,
			"count":12,
			"type":"SCALAR"
		}
	],
	"bufferViews":[
		{
			"buffer":0,
			"byteLength":1824,
			"byteOffset":0,
			"target":34962
		},
		{
			"buffer":0,
			"byteLength":1824,
			"byteOffset":1824,
			"target":34962
		},
		{
			"buffer":0,
			"byteLength":1216,
			"byteOffset":3648,
			"target":34962
		},
		{
			"buffer":0,
			"byteLength":1254,
			"byteOffset":4864,
			"target":34963
		},
		{
			"buffer":0,
			"byteLength":276,
			"byteOffset":6120,
			"target":34962
		},
		{
			"buffer":0,
			"byteLength":276,
			"byteOffset":6396,
			"target":34962
		},
		{
			"buffer":0,
			"byteLength":184,
			"byteOffset":6672,
			"target":34962
		},
		{
			"buffer":0,
			"byteLength":72,
			"byteOffset":6856,
			"target":34963
		},
		{
			"buffer":0,
			"byteLength":120,
			"byteOffset":6928,
			"target":34962
		},
		{
			"buffer":0,
			"byteLength":120,
			"byteOffset":7048,
			"target":34962
		},
		{
			"buffer":0,
			"byteLength":80,
			"byteOffset":7168,
			"target":34962
		},
		{
			"buffer":0,
			"byteLength":160,
			"byteOffset":7248,
			"target":34962
		},
		{
			"buffer":0,
			"byteLength":24,
			"byteOffset":7408,
			"target":34963
		},
		{
			"buffer":0,
			"byteLength":96,
			"byteOffset":7432,
			"target":34962
		},
		{
			"buffer":0,
			"byteLength":96,
			"byteOffset":7528,
			"target":34962
		},
		{
			"buffer":0,
			"byteLength":64,
			"byteOffset":7624,
			"target":34962
		},
		{
			"buffer":0,
			"byteLength":128,
			"byteOffset":7688,
			"target":34962
		},
		{
			"buffer":0,
			"byteLength":24,
			"byteOffset":7816,
			"target":34963
		}
	],
	"samplers":[
		{
			"magFilter":9729,
			"minFilter":9987
		}
	],
	"buffers":[
		{
			"byteLength":7840,
			"uri":"tile_0_1_3.bin"
		}
	]
}
