{
	"asset":{
		"generator":"Khronos glTF Blender I/O v4.0.44",
		"version":"2.0"
	},
	"extensionsUsed":[
		"KHR_materials_specular",
		"KHR_materials_ior",
		"KHR_materials_emissive_strength"
	],
	"scene":0,
	"scenes":[
		{
			"name":"Scene",
			"nodes":[
				0,
				1,
				2
			]
		}
	],
	"nodes":[
		{
			"mesh":0,
			"name":"Plane",
			"scale":[
				7.873531341552734,
				0.9841914176940918,
				7.873531341552734
			]
		},
		{
			"name":"track.189",
			"scale":[
				3.7706682682037354,
				3.7706682682037354,
				3.7706682682037354
			]
		},
		{
			"mesh":1,
			"name":"Icosphere",
			"scale":[
				1.2608476877212524,
				1.2608476877212524,
				1.2608476877212524
			]
		}
	],
	"materials":[
		{
			"doubleSided":true,
			"extensions":{
				"KHR_materials_specular":{
					"specularColorFactor":[
						2.0,
						2.0,
						2.0
					]
				},
				"KHR_materials_ior":{
					"ior":1.4500000476837158
				}
			},
			"name":"building",
			"pbrMetallicRoughness":{
				"baseColorTexture":{
					"index":0
				},
				"metallicFactor":0
			}
		},
		{
			"doubleSided":true,
			"extensions":{
				"KHR_materials_specular":{
					"specularColorFactor":[
						2.0,
						2.0,
						2.0
					]
				},
				"KHR_materials_ior":{
					"ior":1.4500000476837158
				}
			},
			"name":"building2",
			"pbrMetallicRoughness":{
				"baseColorTexture":{
					"index":1
				},
				"metallicFactor":0,
				"roughnessFactor":0.17924527823925018
			}
		},
		{
			"doubleSided":true,
			"emissiveFactor":[
				1,
				1,
				1
			],
			"extensions":{
				"KHR_materials_emissive_strength":{
					"emissiveStrength":4
				}
			},
			"name":"Glow2",
			"pbrMetallicRoughness":{
				"baseColorFactor":[
					0.800000011920929,
					0.800000011920929,
					0.800000011920929,
					1
				],
				"metallicFactor":0,
				"roughnessFactor":0.5
			}
		}
	],
	"meshes":[
		{
			"name":"Plane.1028",
			"primitives":[
				{
					"attributes":{
						"POSITION":0,
						"NORMAL":1,
						"TEXCOORD_0":2,
						"TANGENT":3
					},
					"indices":4,
					"material":0
				}
			]
		},
		{
			"name":"Icosphere.048",
			"primitives":[
				{
					"attributes":{
						"POSITION":5,
						"NORMAL":6,
						"TEXCOORD_0":7
					},
					"indices":8,
					"material":1
				},
				{
					"attributes":{
						"POSITION":9,
						"NORMAL":10,
						"TEXCOORD_0":11
					},
					"indices":12,
					"material":2
				},
				{
					"attributes":{
						"POSITION":13,
						"NORMAL":14,
						"TEXCOORD_0":15
					},
					"indices":16,
					"material":2
				}
			]
		}
	],
	"textures":[
		{
			"sampler":0,
			"source":0
		},
		{
			"sampler":0,
			"source":0
		}
	],
	"images":[
		{
			"mimeType":"image/png",
			"name":"AvatarWearables_TX",
			"uri":"tex/AvatarWearables_TX.png"
		}
	],
	"accessors":[
		{
			"bufferView":0,
			"componentType":5126,
			"count":36,
			"max":[
				0.5080313682556152,
				-14.900496482849121,
				0.5080304145812988
			],
			"min":[
				-0.5080313682556152,
				-14.900496482849121,
				-0.5080323219299316
			],
			"type":"VEC3"
		},
		{
			"bufferView":1,
			"componentType":5126,
			"count":36,
			"type":"VEC3"
		},
		{
			"bufferView":2,
			"componentType":5126,
			"count":36,
			"type":"VEC2"
		},
		{
			"bufferView":3,
			"componentType":5126,
			"count":36,
			"type":"VEC4"
		},
		{
			"bufferView":4,
			"componentType":5123,
			"count":150,
			"type":"SCALAR"
		},
		{
			"bufferView":5,
			"componentType":5126,
			"count":168,
			"max":[
				3.172468662261963,
				2.4621095657348633,
				3.172468662261963
			],
			"min":[
				-2.990973472595215,
				-11.697598457336426,
				-0.5488972663879395
			],
			"type":"VEC3"
		},
		{
			"bufferView":6,
			"componentType":5126,
			"count":168,
			"type":"VEC3"
		},
		{
			"bufferView":7,
			"componentType":5126,
			"count":168,
			"type":"VEC2"
		},
		{
			"bufferView":8,
			"componentType":5123,
			"count":612,
			"type":"SCALAR"
		},
		{
			"bufferView":9,
			"componentType":5126,
			"count":48,
			"max":[
				3.172468662261963,
				1.515157699584961,
				3.172468662261963
			],
			"min":[
				-1.7150969505310059,
				-5.943439960479736,
				0.08804082870483398
			],
			"type":"VEC3"
		},
		{
			"bufferView":10,
			"componentType":5126,
			"count":48,
			"type":"VEC3"
		},
		{
			"bufferView":11,
			"componentType":5126,
			"count":48,
			"type":"VEC2"
		},
		{
			"bufferView":12,
			"componentType":5123,
			"count":60,
			"type":"SCALAR"
		},
		{
			"bufferView":13,
			"componentType":5126,
			"count":106,
			"max":[
				3.172468662261963,
				2.4621095657348633,
				3.172468662261963
			],
			"min":[
				-2.990973472595215,
				-12.689874649047852,
				-0.5488972663879395
			],
			"type":"VEC3"
		},
		{
			"bufferView":14,
			"componentType":5126,
			"count":106,
			"type":"VEC3"
		},
		{
			"bufferView":15,
			"componentType":5126,
			"count":106,
			"type":"VEC2"
		},
		{
			"bufferView":16,
			"componentType":5123,
			"count":294,
			"type":"SCALAR"
		}
	],
	"bufferViews":[
		{
			"buffer":0,
			"byteLength":432,
			"byteOffset":0,
			"target":34962
		},
		{
			"buffer":0,
			"byteLength":432,
			"byteOffset":432,
			"target":34962
		},
		{
			"buffer":0,
			"byteLength":288,
			"byteOffset":864,
			"target":34962
		},
		{
			"buffer":0,
			"byteLength":576,
			"byteOffset":1152,
			"target":34962
		},
		{
			"buffer":0,
			"byteLength":300,
			"byteOffset":1728,
			"target":34963
		},
		{
			"buffer":0,
			"byteLength":2016,
			"byteOffset":2028,
			"target":34962
		},
		{
			"buffer":0,
			"byteLength":2016,
			"byteOffset":4044,
			"target":34962
		},
		{
			"buffer":0,
			"byteLength":1344,
			"byteOffset":6060,
			"target":34962
		},
		{
			"buffer":0,
			"byteLength":1224,
			"byteOffset":7404,
			"target":34963
		},
		{
			"buffer":0,
			"byteLength":576,
			"byteOffset":8628,
			"target":34962
		},
		{
			"buffer":0,
			"byteLength":576,
			"byteOffset":9204,
			"target":34962
		},
		{
			"buffer":0,
			"byteLength":384,
			"byteOffset":9780,
			"target":34962
		},
		{
			"buffer":0,
			"byteLength":120,
			"byteOffset":10164,
			"target":34963
		},
		{
			"buffer":0,
			"byteLength":1272,
			"byteOffset":10284,
			"target":34962
		},
		{
			"buffer":0,
			"byteLength":1272,
			"byteOffset":11556,
			"target":34962
		},
		{
			"buffer":0,
			"byteLength":848,
			"byteOffset":12828,
			"target":34962
		},
		{
			"buffer":0,
			"byteLength":588,
			"byteOffset":13676,
			"target":34963
		}
	],
	"samplers":[
		{
			"magFilter":9729,
			"minFilter":9987
		}
	],
	"buffers":[
		{
			"byteLength":14264,
			"uri":"tile_15_0_8.bin"
		}
	]
}
