{
	"asset":{
		"generator":"Khronos glTF Blender I/O v4.0.44",
		"version":"2.0"
	},
	"extensionsUsed":[
		"KHR_materials_specular",
		"KHR_materials_ior",
		"KHR_materials_emissive_strength"
	],
	"scene":0,
	"scenes":[
		{
			"name":"Scene",
			"nodes":[
				0,
				1,
				2
			]
		}
	],
	"nodes":[
		{
			"mesh":0,
			"name":"Plane",
			"scale":[
				7.873531341552734,
				0.9841914176940918,
				7.873531341552734
			]
		},
		{
			"mesh":1,
			"name":"track.118",
			"scale":[
				3.7706682682037354,
				3.7706682682037354,
				3.7706682682037354
			]
		},
		{
			"mesh":2,
			"name":"Torus.021",
			"rotation":[
				0.6081892251968384,
				0.3607020080089569,
				-0.3607020378112793,
				0.6081892251968384
			],
			"scale":[
				0.9492738246917725,
				0.9492738246917725,
				0.9492737650871277
			]
		}
	],
	"materials":[
		{
			"doubleSided":true,
			"extensions":{
				"KHR_materials_specular":{
					"specularColorFactor":[
						2.0,
						2.0,
						2.0
					]
				},
				"KHR_materials_ior":{
					"ior":1.4500000476837158
				}
			},
			"name":"building",
			"pbrMetallicRoughness":{
				"baseColorTexture":{
					"index":0
				},
				"metallicFactor":0
			}
		},
		{
			"doubleSided":true,
			"emissiveFactor":[
				1,
				0.003797386313042906,
				0
			],
			"extensions":{
				"KHR_materials_emissive_strength":{
					"emissiveStrength":7.991064786911011
				}
			},
			"name":"Glow9",
			"pbrMetallicRoughness":{
				"baseColorFactor":[
					0.8000000715255737,
					0.0031031807884573936,
					0,
					1
				],
				"metallicFactor":0
			}
		},
		{
			"doubleSided":true,
			"emissiveFactor":[
				1,
				1,
				1
			],
			"extensions":{
				"KHR_materials_emissive_strength":{
					"emissiveStrength":4
				}
			},
			"name":"Glow2",
			"pbrMetallicRoughness":{
				"baseColorFactor":[
					0.800000011920929,
					0.800000011920929,
					0.800000011920929,
					1
				],
				"metallicFactor":0,
				"roughnessFactor":0.5
			}
		}
	],
	"meshes":[
		{
			"name":"Plane.886",
			"primitives":[
				{
					"attributes":{
						"POSITION":0,
						"NORMAL":1,
						"TEXCOORD_0":2
					},
					"indices":3,
					"material":0
				}
			]
		},
		{
			"name":"Plane.887",
			"primitives":[
				{
					"attributes":{
						"POSITION":4,
						"NORMAL":5,
						"TEXCOORD_0":6
					},
					"indices":7,
					"material":0
				}
			]
		},
		{
			"name":"Torus.074",
			"primitives":[
				{
					"attributes":{
						"POSITION":8,
						"NORMAL":9,
						"TEXCOORD_0":10
					},
					"indices":11,
					"material":0
				},
				{
					"attributes":{
						"POSITION":12,
						"NORMAL":13,
						"TEXCOORD_0":14
					},
					"indices":15,
					"material":1
				},
				{
					"attributes":{
						"POSITION":16,
						"NORMAL":17,
						"TEXCOORD_0":18
					},
					"indices":19,
					"material":2
				},
				{
					"attributes":{
						"POSITION":20,
						"NORMAL":21,
						"TEXCOORD_0":22
					},
					"indices":23,
					"material":2
				}
			]
		}
	],
	"textures":[
		{
			"sampler":0,
			"source":0
		}
	],
	"images":[
		{
			"mimeType":"image/png",
			"name":"AvatarWearables_TX",
			"uri":"tex/AvatarWearables_TX.png"
		}
	],
	"accessors":[
		{
			"bufferView":0,
			"componentType":5126,
			"count":56,
			"max":[
				0.5080313682556152,
				-14.248652458190918,
				0.5080313682556152
			],
			"min":[
				-0.5080313682556152,
				-16.256999969482422,
				-0.5080313682556152
			],
			"type":"VEC3"
		},
		{
			"bufferView":1,
			"componentType":5126,
			"count":56,
			"type":"VEC3"
		},
		{
			"bufferView":2,
			"componentType":5126,
			"count":56,
			"type":"VEC2"
		},
		{
			"bufferView":3,
			"componentType":5123,
			"count":186,
			"type":"SCALAR"
		},
		{
			"bufferView":4,
			"componentType":5126,
			"count":59,
			"max":[
				1.0608196258544922,
				-3.545729875564575,
				-0.07091999053955078
			],
			"min":[
				-1.0608196258544922,
				-4.243279933929443,
				-1.0608196258544922
			],
			"type":"VEC3"
		},
		{
			"bufferView":5,
			"componentType":5126,
			"count":59,
			"type":"VEC3"
		},
		{
			"bufferView":6,
			"componentType":5126,
			"count":59,
			"type":"VEC2"
		},
		{
			"bufferView":7,
			"componentType":5123,
			"count":99,
			"type":"SCALAR"
		},
		{
			"bufferView":8,
			"componentType":5126,
			"count":912,
			"max":[
				-1.3116998672485352,
				2.393678665161133,
				15.501762390136719
			],
			"min":[
				-5.5444183349609375,
				-2.3840980529785156,
				7.085601806640625
			],
			"type":"VEC3"
		},
		{
			"bufferView":9,
			"componentType":5126,
			"count":912,
			"type":"VEC3"
		},
		{
			"bufferView":10,
			"componentType":5126,
			"count":912,
			"type":"VEC2"
		},
		{
			"bufferView":11,
			"componentType":5123,
			"count":4164,
			"type":"SCALAR"
		},
		{
			"bufferView":12,
			"componentType":5126,
			"count":56,
			"max":[
				-1.331681251525879,
				1.6557902097702026,
				15.461386680603027
			],
			"min":[
				-5.516975402832031,
				-1.4816056489944458,
				8.118882179260254
			],
			"type":"VEC3"
		},
		{
			"bufferView":13,
			"componentType":5126,
			"count":56,
			"type":"VEC3"
		},
		{
			"bufferView":14,
			"componentType":5126,
			"count":56,
			"type":"VEC2"
		},
		{
			"bufferView":15,
			"componentType":5123,
			"count":162,
			"type":"SCALAR"
		},
		{
			"bufferView":16,
			"componentType":5126,
			"count":92,
			"max":[
				-2.0573740005493164,
				2.393678665161133,
				15.501762390136719
			],
			"min":[
				-5.14778995513916,
				-2.3840980529785156,
				7.304637908935547
			],
			"type":"VEC3"
		},
		{
			"bufferView":17,
			"componentType":5126,
			"count":92,
			"type":"VEC3"
		},
		{
			"bufferView":18,
			"componentType":5126,
			"count":92,
			"type":"VEC2"
		},
		{
			"bufferView":19,
			"componentType":5123,
			"count":264,
			"type":"SCALAR"
		},
		{
			"bufferView":20,
			"componentType":5126,
			"count":116,
			"max":[
				-3.493783712387085,
				2.393678665161133,
				15.252098083496094
			],
			"min":[
				-5.5444183349609375,
				-1.3584496974945068,
				8.623428344726562
			],
			"type":"VEC3"
		},
		{
			"bufferView":21,
			"componentType":5126,
			"count":116,
			"type":"VEC3"
		},
		{
			"bufferView":22,
			"componentType":5126,
			"count":116,
			"type":"VEC2"
		},
		{
			"bufferView":23,
			"componentType":5123,
			"count":318,
			"type":"SCALAR"
		}
	],
	"bufferViews":[
		{
			"buffer":0,
			"byteLength":672,
			"byteOffset":0,
			"target":34962
		},
		{
			"buffer":0,
			"byteLength":672,
			"byteOffset":672,
			"target":34962
		},
		{
			"buffer":0,
			"byteLength":448,
			"byteOffset":1344,
			"target":34962
		},
		{
			"buffer":0,
			"byteLength":372,
			"byteOffset":1792,
			"target":34963
		},
		{
			"buffer":0,
			"byteLength":708,
			"byteOffset":2164,
			"target":34962
		},
		{
			"buffer":0,
			"byteLength":708,
			"byteOffset":2872,
			"target":34962
		},
		{
			"buffer":0,
			"byteLength":472,
			"byteOffset":3580,
			"target":34962
		},
		{
			"buffer":0,
			"byteLength":198,
			"byteOffset":4052,
			"target":34963
		},
		{
			"buffer":0,
			"byteLength":10944,
			"byteOffset":4252,
			"target":34962
		},
		{
			"buffer":0,
			"byteLength":10944,
			"byteOffset":15196,
			"target":34962
		},
		{
			"buffer":0,
			"byteLength":7296,
			"byteOffset":26140,
			"target":34962
		},
		{
			"buffer":0,
			"byteLength":8328,
			"byteOffset":33436,
			"target":34963
		},
		{
			"buffer":0,
			"byteLength":672,
			"byteOffset":41764,
			"target":34962
		},
		{
			"buffer":0,
			"byteLength":672,
			"byteOffset":42436,
			"target":34962
		},
		{
			"buffer":0,
			"byteLength":448,
			"byteOffset":43108,
			"target":34962
		},
		{
			"buffer":0,
			"byteLength":324,
			"byteOffset":43556,
			"target":34963
		},
		{
			"buffer":0,
			"byteLength":1104,
			"byteOffset":43880,
			"target":34962
		},
		{
			"buffer":0,
			"byteLength":1104,
			"byteOffset":44984,
			"target":34962
		},
		{
			"buffer":0,
			"byteLength":736,
			"byteOffset":46088,
			"target":34962
		},
		{
			"buffer":0,
			"byteLength":528,
			"byteOffset":46824,
			"target":34963
		},
		{
			"buffer":0,
			"byteLength":1392,
			"byteOffset":47352,
			"target":34962
		},
		{
			"buffer":0,
			"byteLength":1392,
			"byteOffset":48744,
			"target":34962
		},
		{
			"buffer":0,
			"byteLength":928,
			"byteOffset":50136,
			"target":34962
		},
		{
			"buffer":0,
			"byteLength":636,
			"byteOffset":51064,
			"target":34963
		}
	],
	"samplers":[
		{
			"magFilter":9729,
			"minFilter":9987
		}
	],
	"buffers":[
		{
			"byteLength":51700,
			"uri":"tile_9_0_9.bin"
		}
	]
}
