{
	"asset":{
		"generator":"Khronos glTF Blender I/O v4.0.44",
		"version":"2.0"
	},
	"extensionsUsed":[
		"KHR_materials_specular",
		"KHR_materials_ior"
	],
	"scene":0,
	"scenes":[
		{
			"name":"Scene",
			"nodes":[
				0,
				1,
				2,
				3,
				4,
				5,
				6,
				7,
				8,
				9,
				10
			]
		}
	],
	"nodes":[
		{
			"mesh":0,
			"name":"Plane",
			"scale":[
				7.873531341552734,
				0.9841914176940918,
				7.873531341552734
			]
		},
		{
			"mesh":1,
			"name":"track.068",
			"scale":[
				3.7706682682037354,
				3.7706682682037354,
				3.7706682682037354
			]
		},
		{
			"mesh":2,
			"name":"Cube.009"
		},
		{
			"mesh":3,
			"name":"Cylinder.115"
		},
		{
			"mesh":4,
			"name":"Cube.091"
		},
		{
			"mesh":5,
			"name":"Cube.092"
		},
		{
			"mesh":6,
			"name":"Cube.093"
		},
		{
			"mesh":7,
			"name":"Cube.094"
		},
		{
			"mesh":8,
			"name":"Cube.095"
		},
		{
			"mesh":9,
			"name":"Cube.096"
		},
		{
			"mesh":10,
			"name":"Cube.097"
		}
	],
	"materials":[
		{
			"doubleSided":true,
			"extensions":{
				"KHR_materials_specular":{
					"specularColorFactor":[
						2.0,
						2.0,
						2.0
					]
				},
				"KHR_materials_ior":{
					"ior":1.4500000476837158
				}
			},
			"name":"building",
			"pbrMetallicRoughness":{
				"baseColorTexture":{
					"index":0
				},
				"metallicFactor":0
			}
		}
	],
	"meshes":[
		{
			"name":"Plane.788",
			"primitives":[
				{
					"attributes":{
						"POSITION":0,
						"NORMAL":1,
						"TEXCOORD_0":2
					},
					"indices":3,
					"material":0
				}
			]
		},
		{
			"name":"Plane.789",
			"primitives":[
				{
					"attributes":{
						"POSITION":4,
						"NORMAL":5,
						"TEXCOORD_0":6
					},
					"indices":7,
					"material":0
				}
			]
		},
		{
			"name":"Cube.559",
			"primitives":[
				{
					"attributes":{
						"POSITION":8,
						"NORMAL":9,
						"TEXCOORD_0":10
					},
					"indices":11,
					"material":0
				}
			]
		},
		{
			"name":"Cylinder.374",
			"primitives":[
				{
					"attributes":{
						"POSITION":12,
						"NORMAL":13,
						"TEXCOORD_0":14
					},
					"indices":15,
					"material":0
				}
			]
		},
		{
			"name":"Cube.560",
			"primitives":[
				{
					"attributes":{
						"POSITION":16,
						"NORMAL":17,
						"TEXCOORD_0":18,
						"TANGENT":19
					},
					"indices":20,
					"material":0
				}
			]
		},
		{
			"name":"Cube.561",
			"primitives":[
				{
					"attributes":{
						"POSITION":21,
						"NORMAL":22,
						"TEXCOORD_0":23,
						"TANGENT":24
					},
					"indices":25,
					"material":0
				},
				{
					"attributes":{
						"POSITION":26,
						"NORMAL":27,
						"TEXCOORD_0":28,
						"TANGENT":29
					},
					"indices":30,
					"material":0
				}
			]
		},
		{
			"name":"Cube.562",
			"primitives":[
				{
					"attributes":{
						"POSITION":31,
						"NORMAL":32,
						"TEXCOORD_0":33,
						"TANGENT":34
					},
					"indices":35,
					"material":0
				}
			]
		},
		{
			"name":"Cube.563",
			"primitives":[
				{
					"attributes":{
						"POSITION":36,
						"NORMAL":37,
						"TEXCOORD_0":38,
						"TANGENT":39
					},
					"indices":25,
					"material":0
				},
				{
					"attributes":{
						"POSITION":40,
						"NORMAL":41,
						"TEXCOORD_0":42,
						"TANGENT":43
					},
					"indices":30,
					"material":0
				}
			]
		},
		{
			"name":"Cube.564",
			"primitives":[
				{
					"attributes":{
						"POSITION":44,
						"NORMAL":45,
						"TEXCOORD_0":46,
						"TANGENT":47
					},
					"indices":25,
					"material":0
				},
				{
					"attributes":{
						"POSITION":48,
						"NORMAL":49,
						"TEXCOORD_0":50,
						"TANGENT":51
					},
					"indices":30,
					"material":0
				}
			]
		},
		{
			"name":"Cube.565",
			"primitives":[
				{
					"attributes":{
						"POSITION":52,
						"NORMAL":53,
						"TEXCOORD_0":54,
						"TANGENT":55
					},
					"indices":35,
					"material":0
				}
			]
		},
		{
			"name":"Cube.566",
			"primitives":[
				{
					"attributes":{
						"POSITION":56,
						"NORMAL":57,
						"TEXCOORD_0":58,
						"TANGENT":59
					},
					"indices":25,
					"material":0
				},
				{
					"attributes":{
						"POSITION":60,
						"NORMAL":61,
						"TEXCOORD_0":62,
						"TANGENT":63
					},
					"indices":30,
					"material":0
				}
			]
		}
	],
	"textures":[
		{
			"sampler":0,
			"source":0
		}
	],
	"images":[
		{
			"mimeType":"image/png",
			"name":"AvatarWearables_TX",
			"uri":"tex/AvatarWearables_TX.png"
		}
	],
	"accessors":[
		{
			"bufferView":0,
			"componentType":5126,
			"count":88,
			"max":[
				0.5080313682556152,
				-11.873579025268555,
				0.5080304145812988
			],
			"min":[
				-0.5080313682556152,
				-16.256999969482422,
				-0.5080323219299316
			],
			"type":"VEC3"
		},
		{
			"bufferView":1,
			"componentType":5126,
			"count":88,
			"type":"VEC3"
		},
		{
			"bufferView":2,
			"componentType":5126,
			"count":88,
			"type":"VEC2"
		},
		{
			"bufferView":3,
			"componentType":5123,
			"count":279,
			"type":"SCALAR"
		},
		{
			"bufferView":4,
			"componentType":5126,
			"count":66,
			"max":[
				1.0608186721801758,
				-3.314598560333252,
				0.3525824546813965
			],
			"min":[
				-0.24576854705810547,
				-4.243279933929443,
				-1.060821533203125
			],
			"type":"VEC3"
		},
		{
			"bufferView":5,
			"componentType":5126,
			"count":66,
			"type":"VEC3"
		},
		{
			"bufferView":6,
			"componentType":5126,
			"count":66,
			"type":"VEC2"
		},
		{
			"bufferView":7,
			"componentType":5123,
			"count":126,
			"type":"SCALAR"
		},
		{
			"bufferView":8,
			"componentType":5126,
			"count":148,
			"max":[
				3.821073293685913,
				-9.996740341186523,
				4
			],
			"min":[
				-3.035491466522217,
				-12.817805290222168,
				-0.14632463455200195
			],
			"type":"VEC3"
		},
		{
			"bufferView":9,
			"componentType":5126,
			"count":148,
			"type":"VEC3"
		},
		{
			"bufferView":10,
			"componentType":5126,
			"count":148,
			"type":"VEC2"
		},
		{
			"bufferView":11,
			"componentType":5123,
			"count":276,
			"type":"SCALAR"
		},
		{
			"bufferView":12,
			"componentType":5126,
			"count":40,
			"max":[
				-3.057419776916504,
				2.272184371948242,
				4
			],
			"min":[
				-4,
				-0.8884167671203613,
				1.404083490371704
			],
			"type":"VEC3"
		},
		{
			"bufferView":13,
			"componentType":5126,
			"count":40,
			"type":"VEC3"
		},
		{
			"bufferView":14,
			"componentType":5126,
			"count":40,
			"type":"VEC2"
		},
		{
			"bufferView":15,
			"componentType":5123,
			"count":60,
			"type":"SCALAR"
		},
		{
			"bufferView":16,
			"componentType":5126,
			"count":24,
			"max":[
				3.4475746154785156,
				-12.10522747039795,
				4
			],
			"min":[
				-1.476891040802002,
				-12.163174629211426,
				0.07116389274597168
			],
			"type":"VEC3"
		},
		{
			"bufferView":17,
			"componentType":5126,
			"count":24,
			"type":"VEC3"
		},
		{
			"bufferView":18,
			"componentType":5126,
			"count":24,
			"type":"VEC2"
		},
		{
			"bufferView":19,
			"componentType":5126,
			"count":24,
			"type":"VEC4"
		},
		{
			"bufferView":20,
			"componentType":5123,
			"count":36,
			"type":"SCALAR"
		},
		{
			"bufferView":21,
			"componentType":5126,
			"count":20,
			"max":[
				2.860218048095703,
				-11.815491676330566,
				4
			],
			"min":[
				-1.712125301361084,
				-11.873438835144043,
				0.35896801948547363
			],
			"type":"VEC3"
		},
		{
			"bufferView":22,
			"componentType":5126,
			"count":20,
			"type":"VEC3"
		},
		{
			"bufferView":23,
			"componentType":5126,
			"count":20,
			"type":"VEC2"
		},
		{
			"bufferView":24,
			"componentType":5126,
			"count":20,
			"type":"VEC4"
		},
		{
			"bufferView":25,
			"componentType":5123,
			"count":30,
			"type":"SCALAR"
		},
		{
			"bufferView":26,
			"componentType":5126,
			"count":4,
			"max":[
				2.860218048095703,
				-11.815491676330566,
				4
			],
			"min":[
				2.566539764404297,
				-11.873438835144043,
				4
			],
			"type":"VEC3"
		},
		{
			"bufferView":27,
			"componentType":5126,
			"count":4,
			"type":"VEC3"
		},
		{
			"bufferView":28,
			"componentType":5126,
			"count":4,
			"type":"VEC2"
		},
		{
			"bufferView":29,
			"componentType":5126,
			"count":4,
			"type":"VEC4"
		},
		{
			"bufferView":30,
			"componentType":5123,
			"count":6,
			"type":"SCALAR"
		},
		{
			"bufferView":31,
			"componentType":5126,
			"count":24,
			"max":[
				2.2728614807128906,
				-11.5257568359375,
				4
			],
			"min":[
				-1.947359561920166,
				-11.583703994750977,
				0.6467721462249756
			],
			"type":"VEC3"
		},
		{
			"bufferView":32,
			"componentType":5126,
			"count":24,
			"type":"VEC3"
		},
		{
			"bufferView":33,
			"componentType":5126,
			"count":24,
			"type":"VEC2"
		},
		{
			"bufferView":34,
			"componentType":5126,
			"count":24,
			"type":"VEC4"
		},
		{
			"bufferView":35,
			"componentType":5123,
			"count":36,
			"type":"SCALAR"
		},
		{
			"bufferView":36,
			"componentType":5126,
			"count":20,
			"max":[
				1.6855052709579468,
				-11.236021995544434,
				4
			],
			"min":[
				-2.182593822479248,
				-11.29396915435791,
				0.9345762729644775
			],
			"type":"VEC3"
		},
		{
			"bufferView":37,
			"componentType":5126,
			"count":20,
			"type":"VEC3"
		},
		{
			"bufferView":38,
			"componentType":5126,
			"count":20,
			"type":"VEC2"
		},
		{
			"bufferView":39,
			"componentType":5126,
			"count":20,
			"type":"VEC4"
		},
		{
			"bufferView":40,
			"componentType":5126,
			"count":4,
			"max":[
				1.6855052709579468,
				-11.236021995544434,
				4
			],
			"min":[
				1.3918267488479614,
				-11.29396915435791,
				4
			],
			"type":"VEC3"
		},
		{
			"bufferView":41,
			"componentType":5126,
			"count":4,
			"type":"VEC3"
		},
		{
			"bufferView":42,
			"componentType":5126,
			"count":4,
			"type":"VEC2"
		},
		{
			"bufferView":43,
			"componentType":5126,
			"count":4,
			"type":"VEC4"
		},
		{
			"bufferView":44,
			"componentType":5126,
			"count":20,
			"max":[
				1.0981487035751343,
				-10.94628620147705,
				4
			],
			"min":[
				-2.417827844619751,
				-11.004233360290527,
				1.2223803997039795
			],
			"type":"VEC3"
		},
		{
			"bufferView":45,
			"componentType":5126,
			"count":20,
			"type":"VEC3"
		},
		{
			"bufferView":46,
			"componentType":5126,
			"count":20,
			"type":"VEC2"
		},
		{
			"bufferView":47,
			"componentType":5126,
			"count":20,
			"type":"VEC4"
		},
		{
			"bufferView":48,
			"componentType":5126,
			"count":4,
			"max":[
				1.0981487035751343,
				-10.94628620147705,
				4
			],
			"min":[
				0.8044703602790833,
				-11.004233360290527,
				4
			],
			"type":"VEC3"
		},
		{
			"bufferView":49,
			"componentType":5126,
			"count":4,
			"type":"VEC3"
		},
		{
			"bufferView":50,
			"componentType":5126,
			"count":4,
			"type":"VEC2"
		},
		{
			"bufferView":51,
			"componentType":5126,
			"count":4,
			"type":"VEC4"
		},
		{
			"bufferView":52,
			"componentType":5126,
			"count":24,
			"max":[
				0.5107922554016113,
				-10.656551361083984,
				4
			],
			"min":[
				-2.653061866760254,
				-10.714498519897461,
				1.5101842880249023
			],
			"type":"VEC3"
		},
		{
			"bufferView":53,
			"componentType":5126,
			"count":24,
			"type":"VEC3"
		},
		{
			"bufferView":54,
			"componentType":5126,
			"count":24,
			"type":"VEC2"
		},
		{
			"bufferView":55,
			"componentType":5126,
			"count":24,
			"type":"VEC4"
		},
		{
			"bufferView":56,
			"componentType":5126,
			"count":20,
			"max":[
				-0.07656407356262207,
				-10.366815567016602,
				4
			],
			"min":[
				-2.888296127319336,
				-10.424762725830078,
				1.7979884147644043
			],
			"type":"VEC3"
		},
		{
			"bufferView":57,
			"componentType":5126,
			"count":20,
			"type":"VEC3"
		},
		{
			"bufferView":58,
			"componentType":5126,
			"count":20,
			"type":"VEC2"
		},
		{
			"bufferView":59,
			"componentType":5126,
			"count":20,
			"type":"VEC4"
		},
		{
			"bufferView":60,
			"componentType":5126,
			"count":4,
			"max":[
				-0.07656407356262207,
				-10.366815567016602,
				4
			],
			"min":[
				-0.3702425956726074,
				-10.424762725830078,
				4
			],
			"type":"VEC3"
		},
		{
			"bufferView":61,
			"componentType":5126,
			"count":4,
			"type":"VEC3"
		},
		{
			"bufferView":62,
			"componentType":5126,
			"count":4,
			"type":"VEC2"
		},
		{
			"bufferView":63,
			"componentType":5126,
			"count":4,
			"type":"VEC4"
		}
	],
	"bufferViews":[
		{
			"buffer":0,
			"byteLength":1056,
			"byteOffset":0,
			"target":34962
		},
		{
			"buffer":0,
			"byteLength":1056,
			"byteOffset":1056,
			"target":34962
		},
		{
			"buffer":0,
			"byteLength":704,
			"byteOffset":2112,
			"target":34962
		},
		{
			"buffer":0,
			"byteLength":558,
			"byteOffset":2816,
			"target":34963
		},
		{
			"buffer":0,
			"byteLength":792,
			"byteOffset":3376,
			"target":34962
		},
		{
			"buffer":0,
			"byteLength":792,
			"byteOffset":4168,
			"target":34962
		},
		{
			"buffer":0,
			"byteLength":528,
			"byteOffset":4960,
			"target":34962
		},
		{
			"buffer":0,
			"byteLength":252,
			"byteOffset":5488,
			"target":34963
		},
		{
			"buffer":0,
			"byteLength":1776,
			"byteOffset":5740,
			"target":34962
		},
		{
			"buffer":0,
			"byteLength":1776,
			"byteOffset":7516,
			"target":34962
		},
		{
			"buffer":0,
			"byteLength":1184,
			"byteOffset":9292,
			"target":34962
		},
		{
			"buffer":0,
			"byteLength":552,
			"byteOffset":10476,
			"target":34963
		},
		{
			"buffer":0,
			"byteLength":480,
			"byteOffset":11028,
			"target":34962
		},
		{
			"buffer":0,
			"byteLength":480,
			"byteOffset":11508,
			"target":34962
		},
		{
			"buffer":0,
			"byteLength":320,
			"byteOffset":11988,
			"target":34962
		},
		{
			"buffer":0,
			"byteLength":120,
			"byteOffset":12308,
			"target":34963
		},
		{
			"buffer":0,
			"byteLength":288,
			"byteOffset":12428,
			"target":34962
		},
		{
			"buffer":0,
			"byteLength":288,
			"byteOffset":12716,
			"target":34962
		},
		{
			"buffer":0,
			"byteLength":192,
			"byteOffset":13004,
			"target":34962
		},
		{
			"buffer":0,
			"byteLength":384,
			"byteOffset":13196,
			"target":34962
		},
		{
			"buffer":0,
			"byteLength":72,
			"byteOffset":13580,
			"target":34963
		},
		{
			"buffer":0,
			"byteLength":240,
			"byteOffset":13652,
			"target":34962
		},
		{
			"buffer":0,
			"byteLength":240,
			"byteOffset":13892,
			"target":34962
		},
		{
			"buffer":0,
			"byteLength":160,
			"byteOffset":14132,
			"target":34962
		},
		{
			"buffer":0,
			"byteLength":320,
			"byteOffset":14292,
			"target":34962
		},
		{
			"buffer":0,
			"byteLength":60,
			"byteOffset":14612,
			"target":34963
		},
		{
			"buffer":0,
			"byteLength":48,
			"byteOffset":14672,
			"target":34962
		},
		{
			"buffer":0,
			"byteLength":48,
			"byteOffset":14720,
			"target":34962
		},
		{
			"buffer":0,
			"byteLength":32,
			"byteOffset":14768,
			"target":34962
		},
		{
			"buffer":0,
			"byteLength":64,
			"byteOffset":14800,
			"target":34962
		},
		{
			"buffer":0,
			"byteLength":12,
			"byteOffset":14864,
			"target":34963
		},
		{
			"buffer":0,
			"byteLength":288,
			"byteOffset":14876,
			"target":34962
		},
		{
			"buffer":0,
			"byteLength":288,
			"byteOffset":15164,
			"target":34962
		},
		{
			"buffer":0,
			"byteLength":192,
			"byteOffset":15452,
			"target":34962
		},
		{
			"buffer":0,
			"byteLength":384,
			"byteOffset":15644,
			"target":34962
		},
		{
			"buffer":0,
			"byteLength":72,
			"byteOffset":16028,
			"target":34963
		},
		{
			"buffer":0,
			"byteLength":240,
			"byteOffset":16100,
			"target":34962
		},
		{
			"buffer":0,
			"byteLength":240,
			"byteOffset":16340,
			"target":34962
		},
		{
			"buffer":0,
			"byteLength":160,
			"byteOffset":16580,
			"target":34962
		},
		{
			"buffer":0,
			"byteLength":320,
			"byteOffset":16740,
			"target":34962
		},
		{
			"buffer":0,
			"byteLength":48,
			"byteOffset":17060,
			"target":34962
		},
		{
			"buffer":0,
			"byteLength":48,
			"byteOffset":17108,
			"target":34962
		},
		{
			"buffer":0,
			"byteLength":32,
			"byteOffset":17156,
			"target":34962
		},
		{
			"buffer":0,
			"byteLength":64,
			"byteOffset":17188,
			"target":34962
		},
		{
			"buffer":0,
			"byteLength":240,
			"byteOffset":17252,
			"target":34962
		},
		{
			"buffer":0,
			"byteLength":240,
			"byteOffset":17492,
			"target":34962
		},
		{
			"buffer":0,
			"byteLength":160,
			"byteOffset":17732,
			"target":34962
		},
		{
			"buffer":0,
			"byteLength":320,
			"byteOffset":17892,
			"target":34962
		},
		{
			"buffer":0,
			"byteLength":48,
			"byteOffset":18212,
			"target":34962
		},
		{
			"buffer":0,
			"byteLength":48,
			"byteOffset":18260,
			"target":34962
		},
		{
			"buffer":0,
			"byteLength":32,
			"byteOffset":18308,
			"target":34962
		},
		{
			"buffer":0,
			"byteLength":64,
			"byteOffset":18340,
			"target":34962
		},
		{
			"buffer":0,
			"byteLength":288,
			"byteOffset":18404,
			"target":34962
		},
		{
			"buffer":0,
			"byteLength":288,
			"byteOffset":18692,
			"target":34962
		},
		{
			"buffer":0,
			"byteLength":192,
			"byteOffset":18980,
			"target":34962
		},
		{
			"buffer":0,
			"byteLength":384,
			"byteOffset":19172,
			"target":34962
		},
		{
			"buffer":0,
			"byteLength":240,
			"byteOffset":19556,
			"target":34962
		},
		{
			"buffer":0,
			"byteLength":240,
			"byteOffset":19796,
			"target":34962
		},
		{
			"buffer":0,
			"byteLength":160,
			"byteOffset":20036,
			"target":34962
		},
		{
			"buffer":0,
			"byteLength":320,
			"byteOffset":20196,
			"target":34962
		},
		{
			"buffer":0,
			"byteLength":48,
			"byteOffset":20516,
			"target":34962
		},
		{
			"buffer":0,
			"byteLength":48,
			"byteOffset":20564,
			"target":34962
		},
		{
			"buffer":0,
			"byteLength":32,
			"byteOffset":20612,
			"target":34962
		},
		{
			"buffer":0,
			"byteLength":64,
			"byteOffset":20644,
			"target":34962
		}
	],
	"samplers":[
		{
			"magFilter":9729,
			"minFilter":9987
		}
	],
	"buffers":[
		{
			"byteLength":20708,
			"uri":"tile_5_0_8.bin"
		}
	]
}
