{
	"asset":{
		"generator":"Khronos glTF Blender I/O v4.0.44",
		"version":"2.0"
	},
	"extensionsUsed":[
		"KHR_materials_specular",
		"KHR_materials_ior",
		"KHR_materials_emissive_strength"
	],
	"scene":0,
	"scenes":[
		{
			"name":"Scene",
			"nodes":[
				0,
				1,
				2
			]
		}
	],
	"nodes":[
		{
			"mesh":0,
			"name":"Plane",
			"scale":[
				7.873531341552734,
				0.9841914176940918,
				7.873531341552734
			]
		},
		{
			"mesh":1,
			"name":"track.090",
			"scale":[
				3.7706682682037354,
				3.7706682682037354,
				3.7706682682037354
			]
		},
		{
			"mesh":2,
			"name":"Cylinder.008",
			"rotation":[
				-1,
				0,
				0,
				7.549790126404332e-08
			],
			"scale":[
				2.3381993770599365,
				2.3381993770599365,
				2.3381993770599365
			]
		}
	],
	"materials":[
		{
			"doubleSided":true,
			"extensions":{
				"KHR_materials_specular":{
					"specularColorFactor":[
						2.0,
						2.0,
						2.0
					]
				},
				"KHR_materials_ior":{
					"ior":1.4500000476837158
				}
			},
			"name":"building",
			"pbrMetallicRoughness":{
				"baseColorTexture":{
					"index":0
				},
				"metallicFactor":0
			}
		},
		{
			"doubleSided":true,
			"emissiveFactor":[
				0.2831465070731129,
				0.027320706840421944,
				1
			],
			"extensions":{
				"KHR_materials_emissive_strength":{
					"emissiveStrength":2.0000481605529785
				}
			},
			"name":"Glow8",
			"pbrMetallicRoughness":{
				"baseColorFactor":[
					0.2836092412471771,
					0.027631696313619614,
					1,
					1
				],
				"metallicFactor":0
			}
		}
	],
	"meshes":[
		{
			"name":"Plane.830",
			"primitives":[
				{
					"attributes":{
						"POSITION":0,
						"NORMAL":1,
						"TEXCOORD_0":2
					},
					"indices":3,
					"material":0
				}
			]
		},
		{
			"name":"Plane.831",
			"primitives":[
				{
					"attributes":{
						"POSITION":4,
						"NORMAL":5,
						"TEXCOORD_0":6
					},
					"indices":7,
					"material":0
				}
			]
		},
		{
			"name":"Cylinder.391",
			"primitives":[
				{
					"attributes":{
						"POSITION":8,
						"NORMAL":9,
						"TEXCOORD_0":10
					},
					"indices":11,
					"material":0
				},
				{
					"attributes":{
						"POSITION":12,
						"NORMAL":13,
						"TEXCOORD_0":14
					},
					"indices":15,
					"material":1
				}
			]
		}
	],
	"textures":[
		{
			"sampler":0,
			"source":0
		}
	],
	"images":[
		{
			"mimeType":"image/png",
			"name":"AvatarWearables_TX",
			"uri":"tex/AvatarWearables_TX.png"
		}
	],
	"accessors":[
		{
			"bufferView":0,
			"componentType":5126,
			"count":100,
			"max":[
				0.5080313682556152,
				-6.899807929992676,
				0.5080312490463257
			],
			"min":[
				-0.5080313682556152,
				-16.256999969482422,
				-0.5080312490463257
			],
			"type":"VEC3"
		},
		{
			"bufferView":1,
			"componentType":5126,
			"count":100,
			"type":"VEC3"
		},
		{
			"bufferView":2,
			"componentType":5126,
			"count":100,
			"type":"VEC2"
		},
		{
			"bufferView":3,
			"componentType":5123,
			"count":318,
			"type":"SCALAR"
		},
		{
			"bufferView":4,
			"componentType":5126,
			"count":127,
			"max":[
				1.0608186721801758,
				-1.211806297302246,
				1.0608198642730713
			],
			"min":[
				-1.0608205795288086,
				-4.243279933929443,
				-1.0608198642730713
			],
			"type":"VEC3"
		},
		{
			"bufferView":5,
			"componentType":5126,
			"count":127,
			"type":"VEC3"
		},
		{
			"bufferView":6,
			"componentType":5126,
			"count":127,
			"type":"VEC2"
		},
		{
			"bufferView":7,
			"componentType":5123,
			"count":264,
			"type":"SCALAR"
		},
		{
			"bufferView":8,
			"componentType":5126,
			"count":134,
			"max":[
				-0.8039267063140869,
				0.4411954879760742,
				1.7107162475585938
			],
			"min":[
				-1.7107181549072266,
				-1.354759693145752,
				1.163343906402588
			],
			"type":"VEC3"
		},
		{
			"bufferView":9,
			"componentType":5126,
			"count":134,
			"type":"VEC3"
		},
		{
			"bufferView":10,
			"componentType":5126,
			"count":134,
			"type":"VEC2"
		},
		{
			"bufferView":11,
			"componentType":5123,
			"count":288,
			"type":"SCALAR"
		},
		{
			"bufferView":12,
			"componentType":5126,
			"count":9,
			"max":[
				-1.466863751411438,
				-0.1081695556640625,
				1.7107162475585938
			],
			"min":[
				-1.7107181549072266,
				-1.0792083740234375,
				1.5477778911590576
			],
			"type":"VEC3"
		},
		{
			"bufferView":13,
			"componentType":5126,
			"count":9,
			"type":"VEC3"
		},
		{
			"bufferView":14,
			"componentType":5126,
			"count":9,
			"type":"VEC2"
		},
		{
			"bufferView":15,
			"componentType":5123,
			"count":15,
			"type":"SCALAR"
		}
	],
	"bufferViews":[
		{
			"buffer":0,
			"byteLength":1200,
			"byteOffset":0,
			"target":34962
		},
		{
			"buffer":0,
			"byteLength":1200,
			"byteOffset":1200,
			"target":34962
		},
		{
			"buffer":0,
			"byteLength":800,
			"byteOffset":2400,
			"target":34962
		},
		{
			"buffer":0,
			"byteLength":636,
			"byteOffset":3200,
			"target":34963
		},
		{
			"buffer":0,
			"byteLength":1524,
			"byteOffset":3836,
			"target":34962
		},
		{
			"buffer":0,
			"byteLength":1524,
			"byteOffset":5360,
			"target":34962
		},
		{
			"buffer":0,
			"byteLength":1016,
			"byteOffset":6884,
			"target":34962
		},
		{
			"buffer":0,
			"byteLength":528,
			"byteOffset":7900,
			"target":34963
		},
		{
			"buffer":0,
			"byteLength":1608,
			"byteOffset":8428,
			"target":34962
		},
		{
			"buffer":0,
			"byteLength":1608,
			"byteOffset":10036,
			"target":34962
		},
		{
			"buffer":0,
			"byteLength":1072,
			"byteOffset":11644,
			"target":34962
		},
		{
			"buffer":0,
			"byteLength":576,
			"byteOffset":12716,
			"target":34963
		},
		{
			"buffer":0,
			"byteLength":108,
			"byteOffset":13292,
			"target":34962
		},
		{
			"buffer":0,
			"byteLength":108,
			"byteOffset":13400,
			"target":34962
		},
		{
			"buffer":0,
			"byteLength":72,
			"byteOffset":13508,
			"target":34962
		},
		{
			"buffer":0,
			"byteLength":30,
			"byteOffset":13580,
			"target":34963
		}
	],
	"samplers":[
		{
			"magFilter":9729,
			"minFilter":9987
		}
	],
	"buffers":[
		{
			"byteLength":13612,
			"uri":"tile_7_0_5.bin"
		}
	]
}
