{
	"asset":{
		"generator":"Khronos glTF Blender I/O v4.0.44",
		"version":"2.0"
	},
	"extensionsUsed":[
		"KHR_materials_specular",
		"KHR_materials_ior"
	],
	"scene":0,
	"scenes":[
		{
			"name":"Scene",
			"nodes":[
				0,
				1,
				2
			]
		}
	],
	"nodes":[
		{
			"mesh":0,
			"name":"Plane",
			"scale":[
				7.873531341552734,
				0.9841914176940918,
				7.873531341552734
			]
		},
		{
			"mesh":1,
			"name":"Plane.001",
			"scale":[
				3.7706682682037354,
				3.7706682682037354,
				3.7706682682037354
			]
		},
		{
			"mesh":2,
			"name":"Cylinder.013",
			"rotation":[
				0,
				-0.7046239972114563,
				0,
				0.7095808982849121
			],
			"scale":[
				0.5912947058677673,
				3.275143623352051,
				0.5912947058677673
			]
		}
	],
	"materials":[
		{
			"doubleSided":true,
			"extensions":{
				"KHR_materials_specular":{
					"specularColorFactor":[
						2.0,
						2.0,
						2.0
					]
				},
				"KHR_materials_ior":{
					"ior":1.4500000476837158
				}
			},
			"name":"building",
			"pbrMetallicRoughness":{
				"baseColorTexture":{
					"index":0
				},
				"metallicFactor":0
			}
		}
	],
	"meshes":[
		{
			"name":"Plane.200",
			"primitives":[
				{
					"attributes":{
						"POSITION":0,
						"NORMAL":1,
						"TEXCOORD_0":2
					},
					"indices":3,
					"material":0
				},
				{
					"attributes":{
						"POSITION":4,
						"NORMAL":5,
						"TEXCOORD_0":6
					},
					"indices":7,
					"material":0
				}
			]
		},
		{
			"name":"Plane.201",
			"primitives":[
				{
					"attributes":{
						"POSITION":8,
						"NORMAL":9,
						"TEXCOORD_0":10
					},
					"indices":11,
					"material":0
				},
				{
					"attributes":{
						"POSITION":12,
						"NORMAL":13,
						"TEXCOORD_0":14
					},
					"indices":15,
					"material":0
				}
			]
		},
		{
			"name":"Cylinder.068",
			"primitives":[
				{
					"attributes":{
						"POSITION":16,
						"NORMAL":17,
						"TEXCOORD_0":18,
						"TANGENT":19
					},
					"indices":20,
					"material":0
				}
			]
		}
	],
	"textures":[
		{
			"sampler":0,
			"source":0
		}
	],
	"images":[
		{
			"mimeType":"image/png",
			"name":"AvatarWearables_TX",
			"uri":"tex/AvatarWearables_TX.png"
		}
	],
	"accessors":[
		{
			"bufferView":0,
			"componentType":5126,
			"count":148,
			"max":[
				0.8355569839477539,
				-6.4392781257629395,
				0.9180951118469238
			],
			"min":[
				-1.0160627365112305,
				-6.77199649810791,
				-1.0160627365112305
			],
			"type":"VEC3"
		},
		{
			"bufferView":1,
			"componentType":5126,
			"count":148,
			"type":"VEC3"
		},
		{
			"bufferView":2,
			"componentType":5126,
			"count":148,
			"type":"VEC2"
		},
		{
			"bufferView":3,
			"componentType":5123,
			"count":567,
			"type":"SCALAR"
		},
		{
			"bufferView":4,
			"componentType":5126,
			"count":9,
			"max":[
				0.8355569839477539,
				-6.4392781257629395,
				0.9180951118469238
			],
			"min":[
				-1.0160627365112305,
				-6.77199649810791,
				-1.0160627365112305
			],
			"type":"VEC3"
		},
		{
			"bufferView":5,
			"componentType":5126,
			"count":9,
			"type":"VEC3"
		},
		{
			"bufferView":6,
			"componentType":5126,
			"count":9,
			"type":"VEC2"
		},
		{
			"bufferView":7,
			"componentType":5123,
			"count":12,
			"type":"SCALAR"
		},
		{
			"bufferView":8,
			"componentType":5126,
			"count":20,
			"max":[
				-1.2711524963378906,
				-1.4197988510131836,
				-0.9687089920043945
			],
			"min":[
				-2.1216392517089844,
				-1.9856994152069092,
				-2.1216392517089844
			],
			"type":"VEC3"
		},
		{
			"bufferView":9,
			"componentType":5126,
			"count":20,
			"type":"VEC3"
		},
		{
			"bufferView":10,
			"componentType":5126,
			"count":20,
			"type":"VEC2"
		},
		{
			"bufferView":11,
			"componentType":5123,
			"count":30,
			"type":"SCALAR"
		},
		{
			"bufferView":12,
			"componentType":5126,
			"count":14,
			"max":[
				-1.2711524963378906,
				-1.4197988510131836,
				-0.9687089920043945
			],
			"min":[
				-2.1216392517089844,
				-2.1216399669647217,
				-2.1216392517089844
			],
			"type":"VEC3"
		},
		{
			"bufferView":13,
			"componentType":5126,
			"count":14,
			"type":"VEC3"
		},
		{
			"bufferView":14,
			"componentType":5126,
			"count":14,
			"type":"VEC2"
		},
		{
			"bufferView":15,
			"componentType":5123,
			"count":30,
			"type":"SCALAR"
		},
		{
			"bufferView":16,
			"componentType":5126,
			"count":120,
			"max":[
				-3.6908645629882812,
				-0.747024416923523,
				7.991464138031006
			],
			"min":[
				-8.380966186523438,
				-1.527058482170105,
				5.6336822509765625
			],
			"type":"VEC3"
		},
		{
			"bufferView":17,
			"componentType":5126,
			"count":120,
			"type":"VEC3"
		},
		{
			"bufferView":18,
			"componentType":5126,
			"count":120,
			"type":"VEC2"
		},
		{
			"bufferView":19,
			"componentType":5126,
			"count":120,
			"type":"VEC4"
		},
		{
			"bufferView":20,
			"componentType":5123,
			"count":120,
			"type":"SCALAR"
		}
	],
	"bufferViews":[
		{
			"buffer":0,
			"byteLength":1776,
			"byteOffset":0,
			"target":34962
		},
		{
			"buffer":0,
			"byteLength":1776,
			"byteOffset":1776,
			"target":34962
		},
		{
			"buffer":0,
			"byteLength":1184,
			"byteOffset":3552,
			"target":34962
		},
		{
			"buffer":0,
			"byteLength":1134,
			"byteOffset":4736,
			"target":34963
		},
		{
			"buffer":0,
			"byteLength":108,
			"byteOffset":5872,
			"target":34962
		},
		{
			"buffer":0,
			"byteLength":108,
			"byteOffset":5980,
			"target":34962
		},
		{
			"buffer":0,
			"byteLength":72,
			"byteOffset":6088,
			"target":34962
		},
		{
			"buffer":0,
			"byteLength":24,
			"byteOffset":6160,
			"target":34963
		},
		{
			"buffer":0,
			"byteLength":240,
			"byteOffset":6184,
			"target":34962
		},
		{
			"buffer":0,
			"byteLength":240,
			"byteOffset":6424,
			"target":34962
		},
		{
			"buffer":0,
			"byteLength":160,
			"byteOffset":6664,
			"target":34962
		},
		{
			"buffer":0,
			"byteLength":60,
			"byteOffset":6824,
			"target":34963
		},
		{
			"buffer":0,
			"byteLength":168,
			"byteOffset":6884,
			"target":34962
		},
		{
			"buffer":0,
			"byteLength":168,
			"byteOffset":7052,
			"target":34962
		},
		{
			"buffer":0,
			"byteLength":112,
			"byteOffset":7220,
			"target":34962
		},
		{
			"buffer":0,
			"byteLength":60,
			"byteOffset":7332,
			"target":34963
		},
		{
			"buffer":0,
			"byteLength":1440,
			"byteOffset":7392,
			"target":34962
		},
		{
			"buffer":0,
			"byteLength":1440,
			"byteOffset":8832,
			"target":34962
		},
		{
			"buffer":0,
			"byteLength":960,
			"byteOffset":10272,
			"target":34962
		},
		{
			"buffer":0,
			"byteLength":1920,
			"byteOffset":11232,
			"target":34962
		},
		{
			"buffer":0,
			"byteLength":240,
			"byteOffset":13152,
			"target":34963
		}
	],
	"samplers":[
		{
			"magFilter":9729,
			"minFilter":9987
		}
	],
	"buffers":[
		{
			"byteLength":13392,
			"uri":"tile_11_1_0.bin"
		}
	]
}
