{
	"asset":{
		"generator":"Khronos glTF Blender I/O v4.0.44",
		"version":"2.0"
	},
	"extensionsUsed":[
		"KHR_materials_specular",
		"KHR_materials_ior",
		"KHR_materials_emissive_strength"
	],
	"scene":0,
	"scenes":[
		{
			"name":"Scene",
			"nodes":[
				0,
				1,
				2
			]
		}
	],
	"nodes":[
		{
			"mesh":0,
			"name":"Plane",
			"scale":[
				7.873531341552734,
				0.9841914176940918,
				7.873531341552734
			]
		},
		{
			"name":"Plane.001",
			"scale":[
				3.7706682682037354,
				3.7706682682037354,
				3.7706682682037354
			]
		},
		{
			"mesh":1,
			"name":"Icosphere.001",
			"rotation":[
				0,
				-0.3118622899055481,
				0,
				0.9501273036003113
			],
			"scale":[
				8.599295616149902,
				5.349599838256836,
				8.599295616149902
			]
		}
	],
	"materials":[
		{
			"doubleSided":true,
			"extensions":{
				"KHR_materials_specular":{
					"specularColorFactor":[
						2.0,
						2.0,
						2.0
					]
				},
				"KHR_materials_ior":{
					"ior":1.4500000476837158
				}
			},
			"name":"building",
			"pbrMetallicRoughness":{
				"baseColorTexture":{
					"index":0
				},
				"metallicFactor":0
			}
		},
		{
			"doubleSided":true,
			"extensions":{
				"KHR_materials_specular":{
					"specularColorFactor":[
						2.0,
						2.0,
						2.0
					]
				},
				"KHR_materials_ior":{
					"ior":1.4500000476837158
				}
			},
			"name":"building2",
			"pbrMetallicRoughness":{
				"baseColorTexture":{
					"index":1
				},
				"metallicFactor":0,
				"roughnessFactor":0.17924527823925018
			}
		},
		{
			"doubleSided":true,
			"emissiveFactor":[
				1,
				1,
				1
			],
			"extensions":{
				"KHR_materials_emissive_strength":{
					"emissiveStrength":4
				}
			},
			"name":"Glow2",
			"pbrMetallicRoughness":{
				"baseColorFactor":[
					0.800000011920929,
					0.800000011920929,
					0.800000011920929,
					1
				],
				"metallicFactor":0,
				"roughnessFactor":0.5
			}
		}
	],
	"meshes":[
		{
			"name":"Plane.098",
			"primitives":[
				{
					"attributes":{
						"POSITION":0,
						"NORMAL":1,
						"TEXCOORD_0":2
					},
					"indices":3,
					"material":0
				},
				{
					"attributes":{
						"POSITION":4,
						"NORMAL":5,
						"TEXCOORD_0":6
					},
					"indices":7,
					"material":0
				}
			]
		},
		{
			"name":"Icosphere.005",
			"primitives":[
				{
					"attributes":{
						"POSITION":8,
						"NORMAL":9,
						"TEXCOORD_0":10
					},
					"indices":11,
					"material":1
				},
				{
					"attributes":{
						"POSITION":12,
						"NORMAL":13,
						"TEXCOORD_0":14
					},
					"indices":15,
					"material":2
				},
				{
					"attributes":{
						"POSITION":16,
						"NORMAL":17,
						"TEXCOORD_0":18
					},
					"indices":19,
					"material":2
				}
			]
		}
	],
	"textures":[
		{
			"sampler":0,
			"source":0
		},
		{
			"sampler":0,
			"source":0
		}
	],
	"images":[
		{
			"mimeType":"image/png",
			"name":"AvatarWearables_TX",
			"uri":"tex/AvatarWearables_TX.png"
		}
	],
	"accessors":[
		{
			"bufferView":0,
			"componentType":5126,
			"count":110,
			"max":[
				1.0160624980926514,
				-2.9004547595977783,
				1.0160624980926514
			],
			"min":[
				-1.0160624980926514,
				-6.77199649810791,
				-1.0160624980926514
			],
			"type":"VEC3"
		},
		{
			"bufferView":1,
			"componentType":5126,
			"count":110,
			"type":"VEC3"
		},
		{
			"bufferView":2,
			"componentType":5126,
			"count":110,
			"type":"VEC2"
		},
		{
			"bufferView":3,
			"componentType":5123,
			"count":516,
			"type":"SCALAR"
		},
		{
			"bufferView":4,
			"componentType":5126,
			"count":26,
			"max":[
				1.0160624980926514,
				-2.9004547595977783,
				1.0160624980926514
			],
			"min":[
				-1.0160624980926514,
				-8.128499984741211,
				-1.0160624980926514
			],
			"type":"VEC3"
		},
		{
			"bufferView":5,
			"componentType":5126,
			"count":26,
			"type":"VEC3"
		},
		{
			"bufferView":6,
			"componentType":5126,
			"count":26,
			"type":"VEC2"
		},
		{
			"bufferView":7,
			"componentType":5123,
			"count":54,
			"type":"SCALAR"
		},
		{
			"bufferView":8,
			"componentType":5126,
			"count":566,
			"max":[
				0.7670387029647827,
				1.1249765157699585,
				1.300666093826294
			],
			"min":[
				-1.0071961879730225,
				-1.2122807502746582,
				-0.3141216039657593
			],
			"type":"VEC3"
		},
		{
			"bufferView":9,
			"componentType":5126,
			"count":566,
			"type":"VEC3"
		},
		{
			"bufferView":10,
			"componentType":5126,
			"count":566,
			"type":"VEC2"
		},
		{
			"bufferView":11,
			"componentType":5123,
			"count":1140,
			"type":"SCALAR"
		},
		{
			"bufferView":12,
			"componentType":5126,
			"count":112,
			"max":[
				0.7670387029647827,
				1.04184091091156,
				1.2131967544555664
			],
			"min":[
				-1.0071961879730225,
				-1.2122807502746582,
				-0.3141216039657593
			],
			"type":"VEC3"
		},
		{
			"bufferView":13,
			"componentType":5126,
			"count":112,
			"type":"VEC3"
		},
		{
			"bufferView":14,
			"componentType":5126,
			"count":112,
			"type":"VEC2"
		},
		{
			"bufferView":15,
			"componentType":5123,
			"count":135,
			"type":"SCALAR"
		},
		{
			"bufferView":16,
			"componentType":5126,
			"count":111,
			"max":[
				0.7670387029647827,
				1.0182698965072632,
				1.300666093826294
			],
			"min":[
				-1.0071961879730225,
				-1.2122807502746582,
				0.20085200667381287
			],
			"type":"VEC3"
		},
		{
			"bufferView":17,
			"componentType":5126,
			"count":111,
			"type":"VEC3"
		},
		{
			"bufferView":18,
			"componentType":5126,
			"count":111,
			"type":"VEC2"
		},
		{
			"bufferView":19,
			"componentType":5123,
			"count":321,
			"type":"SCALAR"
		}
	],
	"bufferViews":[
		{
			"buffer":0,
			"byteLength":1320,
			"byteOffset":0,
			"target":34962
		},
		{
			"buffer":0,
			"byteLength":1320,
			"byteOffset":1320,
			"target":34962
		},
		{
			"buffer":0,
			"byteLength":880,
			"byteOffset":2640,
			"target":34962
		},
		{
			"buffer":0,
			"byteLength":1032,
			"byteOffset":3520,
			"target":34963
		},
		{
			"buffer":0,
			"byteLength":312,
			"byteOffset":4552,
			"target":34962
		},
		{
			"buffer":0,
			"byteLength":312,
			"byteOffset":4864,
			"target":34962
		},
		{
			"buffer":0,
			"byteLength":208,
			"byteOffset":5176,
			"target":34962
		},
		{
			"buffer":0,
			"byteLength":108,
			"byteOffset":5384,
			"target":34963
		},
		{
			"buffer":0,
			"byteLength":6792,
			"byteOffset":5492,
			"target":34962
		},
		{
			"buffer":0,
			"byteLength":6792,
			"byteOffset":12284,
			"target":34962
		},
		{
			"buffer":0,
			"byteLength":4528,
			"byteOffset":19076,
			"target":34962
		},
		{
			"buffer":0,
			"byteLength":2280,
			"byteOffset":23604,
			"target":34963
		},
		{
			"buffer":0,
			"byteLength":1344,
			"byteOffset":25884,
			"target":34962
		},
		{
			"buffer":0,
			"byteLength":1344,
			"byteOffset":27228,
			"target":34962
		},
		{
			"buffer":0,
			"byteLength":896,
			"byteOffset":28572,
			"target":34962
		},
		{
			"buffer":0,
			"byteLength":270,
			"byteOffset":29468,
			"target":34963
		},
		{
			"buffer":0,
			"byteLength":1332,
			"byteOffset":29740,
			"target":34962
		},
		{
			"buffer":0,
			"byteLength":1332,
			"byteOffset":31072,
			"target":34962
		},
		{
			"buffer":0,
			"byteLength":888,
			"byteOffset":32404,
			"target":34962
		},
		{
			"buffer":0,
			"byteLength":642,
			"byteOffset":33292,
			"target":34963
		}
	],
	"samplers":[
		{
			"magFilter":9729,
			"minFilter":9987
		}
	],
	"buffers":[
		{
			"byteLength":33936,
			"uri":"tile_5_1_2.bin"
		}
	]
}
