{
	"asset":{
		"generator":"Khronos glTF Blender I/O v4.0.44",
		"version":"2.0"
	},
	"extensionsUsed":[
		"KHR_materials_specular",
		"KHR_materials_ior"
	],
	"scene":0,
	"scenes":[
		{
			"name":"Scene",
			"nodes":[
				0,
				1,
				2,
				3,
				4,
				5
			]
		}
	],
	"nodes":[
		{
			"mesh":0,
			"name":"Plane",
			"scale":[
				7.873531341552734,
				0.9841914176940918,
				7.873531341552734
			]
		},
		{
			"mesh":1,
			"name":"track.274",
			"scale":[
				3.7706682682037354,
				3.7706682682037354,
				3.7706682682037354
			]
		},
		{
			"mesh":2,
			"name":"Cylinder.014"
		},
		{
			"mesh":3,
			"name":"Cylinder.094"
		},
		{
			"mesh":4,
			"name":"Cylinder.095"
		},
		{
			"mesh":5,
			"name":"Cylinder.096"
		}
	],
	"materials":[
		{
			"doubleSided":true,
			"extensions":{
				"KHR_materials_specular":{
					"specularColorFactor":[
						2.0,
						2.0,
						2.0
					]
				},
				"KHR_materials_ior":{
					"ior":1.4500000476837158
				}
			},
			"name":"building",
			"pbrMetallicRoughness":{
				"baseColorTexture":{
					"index":0
				},
				"metallicFactor":0
			}
		}
	],
	"meshes":[
		{
			"name":"Plane.1198",
			"primitives":[
				{
					"attributes":{
						"POSITION":0,
						"NORMAL":1,
						"TEXCOORD_0":2,
						"TANGENT":3
					},
					"indices":4,
					"material":0
				}
			]
		},
		{
			"name":"Plane.1199",
			"primitives":[
				{
					"attributes":{
						"POSITION":5,
						"NORMAL":6,
						"TEXCOORD_0":7
					},
					"indices":8,
					"material":0
				}
			]
		},
		{
			"name":"Cylinder.472",
			"primitives":[
				{
					"attributes":{
						"POSITION":9,
						"NORMAL":10,
						"TEXCOORD_0":11
					},
					"indices":12,
					"material":0
				}
			]
		},
		{
			"name":"Cylinder.473",
			"primitives":[
				{
					"attributes":{
						"POSITION":13,
						"NORMAL":14,
						"TEXCOORD_0":15
					},
					"indices":16,
					"material":0
				}
			]
		},
		{
			"name":"Cylinder.474",
			"primitives":[
				{
					"attributes":{
						"POSITION":17,
						"NORMAL":18,
						"TEXCOORD_0":19,
						"TANGENT":20
					},
					"indices":21,
					"material":0
				}
			]
		},
		{
			"name":"Cylinder.475",
			"primitives":[
				{
					"attributes":{
						"POSITION":22,
						"NORMAL":23,
						"TEXCOORD_0":24,
						"TANGENT":25
					},
					"indices":21,
					"material":0
				}
			]
		}
	],
	"textures":[
		{
			"sampler":0,
			"source":0
		}
	],
	"images":[
		{
			"mimeType":"image/png",
			"name":"AvatarWearables_TX",
			"uri":"tex/AvatarWearables_TX.png"
		}
	],
	"accessors":[
		{
			"bufferView":0,
			"componentType":5126,
			"count":36,
			"max":[
				0.5080289840698242,
				-14.900496482849121,
				0.5080313682556152
			],
			"min":[
				-0.5080327987670898,
				-14.900496482849121,
				-0.5080313682556152
			],
			"type":"VEC3"
		},
		{
			"bufferView":1,
			"componentType":5126,
			"count":36,
			"type":"VEC3"
		},
		{
			"bufferView":2,
			"componentType":5126,
			"count":36,
			"type":"VEC2"
		},
		{
			"bufferView":3,
			"componentType":5126,
			"count":36,
			"type":"VEC4"
		},
		{
			"bufferView":4,
			"componentType":5123,
			"count":150,
			"type":"SCALAR"
		},
		{
			"bufferView":5,
			"componentType":5126,
			"count":64,
			"max":[
				-0.09077644348144531,
				-3.5423216819763184,
				1.0608196258544922
			],
			"min":[
				-1.0608234405517578,
				-4.243279933929443,
				-1.0608196258544922
			],
			"type":"VEC3"
		},
		{
			"bufferView":6,
			"componentType":5126,
			"count":64,
			"type":"VEC3"
		},
		{
			"bufferView":7,
			"componentType":5126,
			"count":64,
			"type":"VEC2"
		},
		{
			"bufferView":8,
			"componentType":5123,
			"count":114,
			"type":"SCALAR"
		},
		{
			"bufferView":9,
			"componentType":5126,
			"count":141,
			"max":[
				0.10704517364501953,
				-4.1830034255981445,
				-0.44225138425827026
			],
			"min":[
				-2.9018452167510986,
				-14.529562950134277,
				-2.589743137359619
			],
			"type":"VEC3"
		},
		{
			"bufferView":10,
			"componentType":5126,
			"count":141,
			"type":"VEC3"
		},
		{
			"bufferView":11,
			"componentType":5126,
			"count":141,
			"type":"VEC2"
		},
		{
			"bufferView":12,
			"componentType":5123,
			"count":564,
			"type":"SCALAR"
		},
		{
			"bufferView":13,
			"componentType":5126,
			"count":74,
			"max":[
				1.8012540340423584,
				0.6266031265258789,
				1.0416481494903564
			],
			"min":[
				-3.5248968601226807,
				-5.329533576965332,
				-4
			],
			"type":"VEC3"
		},
		{
			"bufferView":14,
			"componentType":5126,
			"count":74,
			"type":"VEC3"
		},
		{
			"bufferView":15,
			"componentType":5126,
			"count":74,
			"type":"VEC2"
		},
		{
			"bufferView":16,
			"componentType":5123,
			"count":96,
			"type":"SCALAR"
		},
		{
			"bufferView":17,
			"componentType":5126,
			"count":60,
			"max":[
				-1.6720517873764038,
				-8.001842498779297,
				-1.8827593326568604
			],
			"min":[
				-3.7055044174194336,
				-10.275815963745117,
				-3.8294832706451416
			],
			"type":"VEC3"
		},
		{
			"bufferView":18,
			"componentType":5126,
			"count":60,
			"type":"VEC3"
		},
		{
			"bufferView":19,
			"componentType":5126,
			"count":60,
			"type":"VEC2"
		},
		{
			"bufferView":20,
			"componentType":5126,
			"count":60,
			"type":"VEC4"
		},
		{
			"bufferView":21,
			"componentType":5123,
			"count":60,
			"type":"SCALAR"
		},
		{
			"bufferView":22,
			"componentType":5126,
			"count":60,
			"max":[
				-0.5413428544998169,
				-10.821362495422363,
				0.092132568359375
			],
			"min":[
				-1.6285605430603027,
				-12.037178039550781,
				-0.948714017868042
			],
			"type":"VEC3"
		},
		{
			"bufferView":23,
			"componentType":5126,
			"count":60,
			"type":"VEC3"
		},
		{
			"bufferView":24,
			"componentType":5126,
			"count":60,
			"type":"VEC2"
		},
		{
			"bufferView":25,
			"componentType":5126,
			"count":60,
			"type":"VEC4"
		}
	],
	"bufferViews":[
		{
			"buffer":0,
			"byteLength":432,
			"byteOffset":0,
			"target":34962
		},
		{
			"buffer":0,
			"byteLength":432,
			"byteOffset":432,
			"target":34962
		},
		{
			"buffer":0,
			"byteLength":288,
			"byteOffset":864,
			"target":34962
		},
		{
			"buffer":0,
			"byteLength":576,
			"byteOffset":1152,
			"target":34962
		},
		{
			"buffer":0,
			"byteLength":300,
			"byteOffset":1728,
			"target":34963
		},
		{
			"buffer":0,
			"byteLength":768,
			"byteOffset":2028,
			"target":34962
		},
		{
			"buffer":0,
			"byteLength":768,
			"byteOffset":2796,
			"target":34962
		},
		{
			"buffer":0,
			"byteLength":512,
			"byteOffset":3564,
			"target":34962
		},
		{
			"buffer":0,
			"byteLength":228,
			"byteOffset":4076,
			"target":34963
		},
		{
			"buffer":0,
			"byteLength":1692,
			"byteOffset":4304,
			"target":34962
		},
		{
			"buffer":0,
			"byteLength":1692,
			"byteOffset":5996,
			"target":34962
		},
		{
			"buffer":0,
			"byteLength":1128,
			"byteOffset":7688,
			"target":34962
		},
		{
			"buffer":0,
			"byteLength":1128,
			"byteOffset":8816,
			"target":34963
		},
		{
			"buffer":0,
			"byteLength":888,
			"byteOffset":9944,
			"target":34962
		},
		{
			"buffer":0,
			"byteLength":888,
			"byteOffset":10832,
			"target":34962
		},
		{
			"buffer":0,
			"byteLength":592,
			"byteOffset":11720,
			"target":34962
		},
		{
			"buffer":0,
			"byteLength":192,
			"byteOffset":12312,
			"target":34963
		},
		{
			"buffer":0,
			"byteLength":720,
			"byteOffset":12504,
			"target":34962
		},
		{
			"buffer":0,
			"byteLength":720,
			"byteOffset":13224,
			"target":34962
		},
		{
			"buffer":0,
			"byteLength":480,
			"byteOffset":13944,
			"target":34962
		},
		{
			"buffer":0,
			"byteLength":960,
			"byteOffset":14424,
			"target":34962
		},
		{
			"buffer":0,
			"byteLength":120,
			"byteOffset":15384,
			"target":34963
		},
		{
			"buffer":0,
			"byteLength":720,
			"byteOffset":15504,
			"target":34962
		},
		{
			"buffer":0,
			"byteLength":720,
			"byteOffset":16224,
			"target":34962
		},
		{
			"buffer":0,
			"byteLength":480,
			"byteOffset":16944,
			"target":34962
		},
		{
			"buffer":0,
			"byteLength":960,
			"byteOffset":17424,
			"target":34962
		}
	],
	"samplers":[
		{
			"magFilter":9729,
			"minFilter":9987
		}
	],
	"buffers":[
		{
			"byteLength":18384,
			"uri":"tile_22_0_9.bin"
		}
	]
}
