{
	"asset":{
		"generator":"Khronos glTF Blender I/O v4.0.44",
		"version":"2.0"
	},
	"extensionsUsed":[
		"KHR_materials_specular",
		"KHR_materials_ior"
	],
	"scene":0,
	"scenes":[
		{
			"name":"Scene",
			"nodes":[
				0,
				1,
				2
			]
		}
	],
	"nodes":[
		{
			"mesh":0,
			"name":"Plane",
			"scale":[
				7.873531341552734,
				0.9841914176940918,
				7.873531341552734
			]
		},
		{
			"mesh":1,
			"name":"Plane.001",
			"scale":[
				3.7706682682037354,
				3.7706682682037354,
				3.7706682682037354
			]
		},
		{
			"mesh":2,
			"name":"Cylinder.009",
			"rotation":[
				0.21499913930892944,
				0.04944412782788277,
				-0.11299419403076172,
				0.968794584274292
			],
			"scale":[
				0.9266126155853271,
				5.132449150085449,
				0.9266127347946167
			]
		}
	],
	"materials":[
		{
			"doubleSided":true,
			"extensions":{
				"KHR_materials_specular":{
					"specularColorFactor":[
						2.0,
						2.0,
						2.0
					]
				},
				"KHR_materials_ior":{
					"ior":1.4500000476837158
				}
			},
			"name":"building",
			"pbrMetallicRoughness":{
				"baseColorTexture":{
					"index":0
				},
				"metallicFactor":0
			}
		}
	],
	"meshes":[
		{
			"name":"Plane.092",
			"primitives":[
				{
					"attributes":{
						"POSITION":0,
						"NORMAL":1,
						"TEXCOORD_0":2
					},
					"indices":3,
					"material":0
				},
				{
					"attributes":{
						"POSITION":4,
						"NORMAL":5,
						"TEXCOORD_0":6
					},
					"indices":7,
					"material":0
				}
			]
		},
		{
			"name":"Plane.093",
			"primitives":[
				{
					"attributes":{
						"POSITION":8,
						"NORMAL":9,
						"TEXCOORD_0":10
					},
					"indices":11,
					"material":0
				},
				{
					"attributes":{
						"POSITION":12,
						"NORMAL":13,
						"TEXCOORD_0":14
					},
					"indices":15,
					"material":0
				}
			]
		},
		{
			"name":"Cylinder.043",
			"primitives":[
				{
					"attributes":{
						"POSITION":16,
						"NORMAL":17,
						"TEXCOORD_0":18,
						"TANGENT":19
					},
					"indices":20,
					"material":0
				}
			]
		}
	],
	"textures":[
		{
			"sampler":0,
			"source":0
		}
	],
	"images":[
		{
			"mimeType":"image/png",
			"name":"AvatarWearables_TX",
			"uri":"tex/AvatarWearables_TX.png"
		}
	],
	"accessors":[
		{
			"bufferView":0,
			"componentType":5126,
			"count":135,
			"max":[
				1.0160624980926514,
				-6.4392781257629395,
				0.9180951118469238
			],
			"min":[
				-1.0160624980926514,
				-6.77199649810791,
				-1.0160627365112305
			],
			"type":"VEC3"
		},
		{
			"bufferView":1,
			"componentType":5126,
			"count":135,
			"type":"VEC3"
		},
		{
			"bufferView":2,
			"componentType":5126,
			"count":135,
			"type":"VEC2"
		},
		{
			"bufferView":3,
			"componentType":5123,
			"count":555,
			"type":"SCALAR"
		},
		{
			"bufferView":4,
			"componentType":5126,
			"count":12,
			"max":[
				1.0160624980926514,
				-6.4392781257629395,
				0.9180951118469238
			],
			"min":[
				-1.0160624980926514,
				-6.77199649810791,
				-1.0160627365112305
			],
			"type":"VEC3"
		},
		{
			"bufferView":5,
			"componentType":5126,
			"count":12,
			"type":"VEC3"
		},
		{
			"bufferView":6,
			"componentType":5126,
			"count":12,
			"type":"VEC2"
		},
		{
			"bufferView":7,
			"componentType":5123,
			"count":15,
			"type":"SCALAR"
		},
		{
			"bufferView":8,
			"componentType":5126,
			"count":128,
			"max":[
				2.1216378211975098,
				-1.4206912517547607,
				1.7457761764526367
			],
			"min":[
				-2.1216416358947754,
				-1.9856905937194824,
				-1.3302669525146484
			],
			"type":"VEC3"
		},
		{
			"bufferView":9,
			"componentType":5126,
			"count":128,
			"type":"VEC3"
		},
		{
			"bufferView":10,
			"componentType":5126,
			"count":128,
			"type":"VEC2"
		},
		{
			"bufferView":11,
			"componentType":5123,
			"count":192,
			"type":"SCALAR"
		},
		{
			"bufferView":12,
			"componentType":5126,
			"count":22,
			"max":[
				2.1216378211975098,
				-1.4206912517547607,
				2.1216392517089844
			],
			"min":[
				-2.1216416358947754,
				-2.1216399669647217,
				-1.3302669525146484
			],
			"type":"VEC3"
		},
		{
			"bufferView":13,
			"componentType":5126,
			"count":22,
			"type":"VEC3"
		},
		{
			"bufferView":14,
			"componentType":5126,
			"count":22,
			"type":"VEC2"
		},
		{
			"bufferView":15,
			"componentType":5123,
			"count":54,
			"type":"SCALAR"
		},
		{
			"bufferView":16,
			"componentType":5126,
			"count":120,
			"max":[
				3.8853759765625,
				-0.43167340755462646,
				-1.5928329229354858
			],
			"min":[
				-0.8047257661819458,
				-1.2117074728012085,
				-3.9506149291992188
			],
			"type":"VEC3"
		},
		{
			"bufferView":17,
			"componentType":5126,
			"count":120,
			"type":"VEC3"
		},
		{
			"bufferView":18,
			"componentType":5126,
			"count":120,
			"type":"VEC2"
		},
		{
			"bufferView":19,
			"componentType":5126,
			"count":120,
			"type":"VEC4"
		},
		{
			"bufferView":20,
			"componentType":5123,
			"count":120,
			"type":"SCALAR"
		}
	],
	"bufferViews":[
		{
			"buffer":0,
			"byteLength":1620,
			"byteOffset":0,
			"target":34962
		},
		{
			"buffer":0,
			"byteLength":1620,
			"byteOffset":1620,
			"target":34962
		},
		{
			"buffer":0,
			"byteLength":1080,
			"byteOffset":3240,
			"target":34962
		},
		{
			"buffer":0,
			"byteLength":1110,
			"byteOffset":4320,
			"target":34963
		},
		{
			"buffer":0,
			"byteLength":144,
			"byteOffset":5432,
			"target":34962
		},
		{
			"buffer":0,
			"byteLength":144,
			"byteOffset":5576,
			"target":34962
		},
		{
			"buffer":0,
			"byteLength":96,
			"byteOffset":5720,
			"target":34962
		},
		{
			"buffer":0,
			"byteLength":30,
			"byteOffset":5816,
			"target":34963
		},
		{
			"buffer":0,
			"byteLength":1536,
			"byteOffset":5848,
			"target":34962
		},
		{
			"buffer":0,
			"byteLength":1536,
			"byteOffset":7384,
			"target":34962
		},
		{
			"buffer":0,
			"byteLength":1024,
			"byteOffset":8920,
			"target":34962
		},
		{
			"buffer":0,
			"byteLength":384,
			"byteOffset":9944,
			"target":34963
		},
		{
			"buffer":0,
			"byteLength":264,
			"byteOffset":10328,
			"target":34962
		},
		{
			"buffer":0,
			"byteLength":264,
			"byteOffset":10592,
			"target":34962
		},
		{
			"buffer":0,
			"byteLength":176,
			"byteOffset":10856,
			"target":34962
		},
		{
			"buffer":0,
			"byteLength":108,
			"byteOffset":11032,
			"target":34963
		},
		{
			"buffer":0,
			"byteLength":1440,
			"byteOffset":11140,
			"target":34962
		},
		{
			"buffer":0,
			"byteLength":1440,
			"byteOffset":12580,
			"target":34962
		},
		{
			"buffer":0,
			"byteLength":960,
			"byteOffset":14020,
			"target":34962
		},
		{
			"buffer":0,
			"byteLength":1920,
			"byteOffset":14980,
			"target":34962
		},
		{
			"buffer":0,
			"byteLength":240,
			"byteOffset":16900,
			"target":34963
		}
	],
	"samplers":[
		{
			"magFilter":9729,
			"minFilter":9987
		}
	],
	"buffers":[
		{
			"byteLength":17140,
			"uri":"tile_5_1_0.bin"
		}
	]
}
