{
	"asset":{
		"generator":"Khronos glTF Blender I/O v4.0.44",
		"version":"2.0"
	},
	"extensionsUsed":[
		"KHR_materials_specular",
		"KHR_materials_ior",
		"KHR_materials_emissive_strength"
	],
	"scene":0,
	"scenes":[
		{
			"name":"Scene",
			"nodes":[
				0,
				1,
				2,
				3,
				4,
				5
			]
		}
	],
	"nodes":[
		{
			"mesh":0,
			"name":"Plane",
			"scale":[
				7.873531341552734,
				0.9841914176940918,
				7.873531341552734
			]
		},
		{
			"name":"track.039",
			"scale":[
				3.7706682682037354,
				3.7706682682037354,
				3.7706682682037354
			]
		},
		{
			"name":"Cube",
			"rotation":[
				0,
				0.3507235050201416,
				0,
				0.9364790320396423
			],
			"scale":[
				2.5203466415405273,
				2.5203466415405273,
				2.5203466415405273
			]
		},
		{
			"mesh":1,
			"name":"Torus.001",
			"rotation":[
				0,
				0.46944674849510193,
				0,
				0.8829607963562012
			],
			"scale":[
				3.423175096511841,
				13.408893585205078,
				3.423175096511841
			]
		},
		{
			"mesh":2,
			"name":"Cube.012",
			"rotation":[
				0,
				-0.4193370044231415,
				0,
				0.9078306555747986
			],
			"scale":[
				2.2909789085388184,
				3.6719183921813965,
				2.2909789085388184
			]
		},
		{
			"mesh":3,
			"name":"Cylinder.003",
			"scale":[
				1.741005539894104,
				11.939791679382324,
				1.741005539894104
			]
		}
	],
	"materials":[
		{
			"doubleSided":true,
			"extensions":{
				"KHR_materials_specular":{
					"specularColorFactor":[
						2.0,
						2.0,
						2.0
					]
				},
				"KHR_materials_ior":{
					"ior":1.4500000476837158
				}
			},
			"name":"building",
			"pbrMetallicRoughness":{
				"baseColorTexture":{
					"index":0
				},
				"metallicFactor":0
			}
		},
		{
			"doubleSided":true,
			"extensions":{
				"KHR_materials_specular":{
					"specularColorFactor":[
						2.0,
						2.0,
						2.0
					]
				},
				"KHR_materials_ior":{
					"ior":1.4500000476837158
				}
			},
			"name":"building2",
			"pbrMetallicRoughness":{
				"baseColorTexture":{
					"index":1
				},
				"metallicFactor":0,
				"roughnessFactor":0.17924527823925018
			}
		},
		{
			"doubleSided":true,
			"emissiveFactor":[
				1,
				1,
				1
			],
			"name":"Glow2.001",
			"pbrMetallicRoughness":{
				"baseColorFactor":[
					0.800000011920929,
					0.800000011920929,
					0.800000011920929,
					1
				],
				"metallicFactor":0,
				"roughnessFactor":0.5
			}
		},
		{
			"doubleSided":true,
			"emissiveFactor":[
				1,
				0.2655798013274177,
				0.04142626284219435
			],
			"extensions":{
				"KHR_materials_emissive_strength":{
					"emissiveStrength":1.5982129573822021
				}
			},
			"name":"Glow1",
			"pbrMetallicRoughness":{
				"baseColorFactor":[
					0.8008996248245239,
					0.21048900485038757,
					0.033567022532224655,
					1
				],
				"metallicFactor":0
			}
		},
		{
			"doubleSided":true,
			"emissiveFactor":[
				0.09784298909313212,
				1,
				0.08569416583338194
			],
			"extensions":{
				"KHR_materials_emissive_strength":{
					"emissiveStrength":1.5982129573822021
				}
			},
			"name":"Glow4",
			"pbrMetallicRoughness":{
				"baseColorFactor":[
					0.078976109623909,
					0.8012131452560425,
					0.06799241155385971,
					1
				],
				"metallicFactor":0
			}
		}
	],
	"meshes":[
		{
			"name":"Plane.730",
			"primitives":[
				{
					"attributes":{
						"POSITION":0,
						"NORMAL":1,
						"TEXCOORD_0":2,
						"TANGENT":3
					},
					"indices":4,
					"material":0
				}
			]
		},
		{
			"name":"Torus.060",
			"primitives":[
				{
					"attributes":{
						"POSITION":5,
						"NORMAL":6,
						"TEXCOORD_0":7
					},
					"indices":8,
					"material":1
				},
				{
					"attributes":{
						"POSITION":9,
						"NORMAL":10,
						"TEXCOORD_0":11
					},
					"indices":12,
					"material":2
				}
			]
		},
		{
			"name":"Cube.545",
			"primitives":[
				{
					"attributes":{
						"POSITION":13,
						"NORMAL":14,
						"TEXCOORD_0":15
					},
					"indices":16,
					"material":1
				},
				{
					"attributes":{
						"POSITION":17,
						"NORMAL":18,
						"TEXCOORD_0":19
					},
					"indices":20,
					"material":3
				},
				{
					"attributes":{
						"POSITION":21,
						"NORMAL":22,
						"TEXCOORD_0":23
					},
					"indices":24,
					"material":3
				}
			]
		},
		{
			"name":"Cylinder.360",
			"primitives":[
				{
					"attributes":{
						"POSITION":25,
						"NORMAL":26,
						"TEXCOORD_0":27
					},
					"indices":28,
					"material":0
				},
				{
					"attributes":{
						"POSITION":29,
						"NORMAL":30,
						"TEXCOORD_0":31
					},
					"indices":32,
					"material":4
				}
			]
		}
	],
	"textures":[
		{
			"sampler":0,
			"source":0
		},
		{
			"sampler":0,
			"source":0
		}
	],
	"images":[
		{
			"mimeType":"image/png",
			"name":"AvatarWearables_TX",
			"uri":"tex/AvatarWearables_TX.png"
		}
	],
	"accessors":[
		{
			"bufferView":0,
			"componentType":5126,
			"count":36,
			"max":[
				0.5080301761627197,
				-14.900496482849121,
				0.508030891418457
			],
			"min":[
				-0.5080316066741943,
				-14.901280403137207,
				-0.5080318450927734
			],
			"type":"VEC3"
		},
		{
			"bufferView":1,
			"componentType":5126,
			"count":36,
			"type":"VEC3"
		},
		{
			"bufferView":2,
			"componentType":5126,
			"count":36,
			"type":"VEC2"
		},
		{
			"bufferView":3,
			"componentType":5126,
			"count":36,
			"type":"VEC4"
		},
		{
			"bufferView":4,
			"componentType":5123,
			"count":150,
			"type":"SCALAR"
		},
		{
			"bufferView":5,
			"componentType":5126,
			"count":934,
			"max":[
				0.4010644853115082,
				-0.6112961173057556,
				1.4757909774780273
			],
			"min":[
				-0.7065169215202332,
				-1.108557105064392,
				0.7355883121490479
			],
			"type":"VEC3"
		},
		{
			"bufferView":6,
			"componentType":5126,
			"count":934,
			"type":"VEC3"
		},
		{
			"bufferView":7,
			"componentType":5126,
			"count":934,
			"type":"VEC2"
		},
		{
			"bufferView":8,
			"componentType":5123,
			"count":1584,
			"type":"SCALAR"
		},
		{
			"bufferView":9,
			"componentType":5126,
			"count":258,
			"max":[
				0.38157331943511963,
				-0.6338456869125366,
				1.4587184190750122
			],
			"min":[
				-0.6974064707756042,
				-1.0655663013458252,
				0.751131534576416
			],
			"type":"VEC3"
		},
		{
			"bufferView":10,
			"componentType":5126,
			"count":258,
			"type":"VEC3"
		},
		{
			"bufferView":11,
			"componentType":5126,
			"count":258,
			"type":"VEC2"
		},
		{
			"bufferView":12,
			"componentType":5123,
			"count":420,
			"type":"SCALAR"
		},
		{
			"bufferView":13,
			"componentType":5126,
			"count":5171,
			"max":[
				0.2712808847427368,
				0.012632131576538086,
				1.377695083618164
			],
			"min":[
				-1.9102834463119507,
				-3.978750228881836,
				-2.461284875869751
			],
			"type":"VEC3"
		},
		{
			"bufferView":14,
			"componentType":5126,
			"count":5171,
			"type":"VEC3"
		},
		{
			"bufferView":15,
			"componentType":5126,
			"count":5171,
			"type":"VEC2"
		},
		{
			"bufferView":16,
			"componentType":5123,
			"count":8997,
			"type":"SCALAR"
		},
		{
			"bufferView":17,
			"componentType":5126,
			"count":793,
			"max":[
				0.27128279209136963,
				0.012632131576538086,
				1.377695083618164
			],
			"min":[
				-1.9102815389633179,
				-3.6960806846618652,
				-2.325287342071533
			],
			"type":"VEC3"
		},
		{
			"bufferView":18,
			"componentType":5126,
			"count":793,
			"type":"VEC3"
		},
		{
			"bufferView":19,
			"componentType":5126,
			"count":793,
			"type":"VEC2"
		},
		{
			"bufferView":20,
			"componentType":5123,
			"count":1383,
			"type":"SCALAR"
		},
		{
			"bufferView":21,
			"componentType":5126,
			"count":734,
			"max":[
				-0.08733981847763062,
				0.012632131576538086,
				1.377695083618164
			],
			"min":[
				-1.9102834463119507,
				-3.978750228881836,
				-2.461284875869751
			],
			"type":"VEC3"
		},
		{
			"bufferView":22,
			"componentType":5126,
			"count":734,
			"type":"VEC3"
		},
		{
			"bufferView":23,
			"componentType":5126,
			"count":734,
			"type":"VEC2"
		},
		{
			"bufferView":24,
			"componentType":5123,
			"count":2148,
			"type":"SCALAR"
		},
		{
			"bufferView":25,
			"componentType":5126,
			"count":200,
			"max":[
				2.297522783279419,
				0.7054154872894287,
				2.20904278755188
			],
			"min":[
				2.25944185256958,
				-1.2320843935012817,
				1.8261499404907227
			],
			"type":"VEC3"
		},
		{
			"bufferView":26,
			"componentType":5126,
			"count":200,
			"type":"VEC3"
		},
		{
			"bufferView":27,
			"componentType":5126,
			"count":200,
			"type":"VEC2"
		},
		{
			"bufferView":28,
			"componentType":5123,
			"count":570,
			"type":"SCALAR"
		},
		{
			"bufferView":29,
			"componentType":5126,
			"count":158,
			"max":[
				2.297522783279419,
				0.7054154872894287,
				2.20904278755188
			],
			"min":[
				2.297522783279419,
				-1.2320843935012817,
				1.8261499404907227
			],
			"type":"VEC3"
		},
		{
			"bufferView":30,
			"componentType":5126,
			"count":158,
			"type":"VEC3"
		},
		{
			"bufferView":31,
			"componentType":5126,
			"count":158,
			"type":"VEC2"
		},
		{
			"bufferView":32,
			"componentType":5123,
			"count":378,
			"type":"SCALAR"
		}
	],
	"bufferViews":[
		{
			"buffer":0,
			"byteLength":432,
			"byteOffset":0,
			"target":34962
		},
		{
			"buffer":0,
			"byteLength":432,
			"byteOffset":432,
			"target":34962
		},
		{
			"buffer":0,
			"byteLength":288,
			"byteOffset":864,
			"target":34962
		},
		{
			"buffer":0,
			"byteLength":576,
			"byteOffset":1152,
			"target":34962
		},
		{
			"buffer":0,
			"byteLength":300,
			"byteOffset":1728,
			"target":34963
		},
		{
			"buffer":0,
			"byteLength":11208,
			"byteOffset":2028,
			"target":34962
		},
		{
			"buffer":0,
			"byteLength":11208,
			"byteOffset":13236,
			"target":34962
		},
		{
			"buffer":0,
			"byteLength":7472,
			"byteOffset":24444,
			"target":34962
		},
		{
			"buffer":0,
			"byteLength":3168,
			"byteOffset":31916,
			"target":34963
		},
		{
			"buffer":0,
			"byteLength":3096,
			"byteOffset":35084,
			"target":34962
		},
		{
			"buffer":0,
			"byteLength":3096,
			"byteOffset":38180,
			"target":34962
		},
		{
			"buffer":0,
			"byteLength":2064,
			"byteOffset":41276,
			"target":34962
		},
		{
			"buffer":0,
			"byteLength":840,
			"byteOffset":43340,
			"target":34963
		},
		{
			"buffer":0,
			"byteLength":62052,
			"byteOffset":44180,
			"target":34962
		},
		{
			"buffer":0,
			"byteLength":62052,
			"byteOffset":106232,
			"target":34962
		},
		{
			"buffer":0,
			"byteLength":41368,
			"byteOffset":168284,
			"target":34962
		},
		{
			"buffer":0,
			"byteLength":17994,
			"byteOffset":209652,
			"target":34963
		},
		{
			"buffer":0,
			"byteLength":9516,
			"byteOffset":227648,
			"target":34962
		},
		{
			"buffer":0,
			"byteLength":9516,
			"byteOffset":237164,
			"target":34962
		},
		{
			"buffer":0,
			"byteLength":6344,
			"byteOffset":246680,
			"target":34962
		},
		{
			"buffer":0,
			"byteLength":2766,
			"byteOffset":253024,
			"target":34963
		},
		{
			"buffer":0,
			"byteLength":8808,
			"byteOffset":255792,
			"target":34962
		},
		{
			"buffer":0,
			"byteLength":8808,
			"byteOffset":264600,
			"target":34962
		},
		{
			"buffer":0,
			"byteLength":5872,
			"byteOffset":273408,
			"target":34962
		},
		{
			"buffer":0,
			"byteLength":4296,
			"byteOffset":279280,
			"target":34963
		},
		{
			"buffer":0,
			"byteLength":2400,
			"byteOffset":283576,
			"target":34962
		},
		{
			"buffer":0,
			"byteLength":2400,
			"byteOffset":285976,
			"target":34962
		},
		{
			"buffer":0,
			"byteLength":1600,
			"byteOffset":288376,
			"target":34962
		},
		{
			"buffer":0,
			"byteLength":1140,
			"byteOffset":289976,
			"target":34963
		},
		{
			"buffer":0,
			"byteLength":1896,
			"byteOffset":291116,
			"target":34962
		},
		{
			"buffer":0,
			"byteLength":1896,
			"byteOffset":293012,
			"target":34962
		},
		{
			"buffer":0,
			"byteLength":1264,
			"byteOffset":294908,
			"target":34962
		},
		{
			"buffer":0,
			"byteLength":756,
			"byteOffset":296172,
			"target":34963
		}
	],
	"samplers":[
		{
			"magFilter":9729,
			"minFilter":9987
		}
	],
	"buffers":[
		{
			"byteLength":296928,
			"uri":"tile_3_0_3.bin"
		}
	]
}
