{
	"asset":{
		"generator":"Khronos glTF Blender I/O v4.0.44",
		"version":"2.0"
	},
	"extensionsUsed":[
		"KHR_materials_specular",
		"KHR_materials_ior",
		"KHR_materials_emissive_strength"
	],
	"scene":0,
	"scenes":[
		{
			"name":"Scene",
			"nodes":[
				0,
				1,
				2,
				3,
				4
			]
		}
	],
	"nodes":[
		{
			"mesh":0,
			"name":"Plane",
			"scale":[
				7.873531341552734,
				0.9841914176940918,
				7.873531341552734
			]
		},
		{
			"name":"track.051",
			"scale":[
				3.7706682682037354,
				3.7706682682037354,
				3.7706682682037354
			]
		},
		{
			"mesh":1,
			"name":"Torus.003",
			"rotation":[
				0,
				0.46944674849510193,
				0,
				0.8829607963562012
			],
			"scale":[
				3.423175096511841,
				13.408893585205078,
				3.423175096511841
			]
		},
		{
			"mesh":2,
			"name":"Cube.012",
			"rotation":[
				0,
				-0.4193370044231415,
				0,
				0.9078306555747986
			],
			"scale":[
				2.2909789085388184,
				3.6719183921813965,
				2.2909789085388184
			]
		},
		{
			"mesh":3,
			"name":"Cylinder.003",
			"scale":[
				1.741005539894104,
				11.939791679382324,
				1.741005539894104
			]
		}
	],
	"materials":[
		{
			"doubleSided":true,
			"extensions":{
				"KHR_materials_specular":{
					"specularColorFactor":[
						2.0,
						2.0,
						2.0
					]
				},
				"KHR_materials_ior":{
					"ior":1.4500000476837158
				}
			},
			"name":"building",
			"pbrMetallicRoughness":{
				"baseColorTexture":{
					"index":0
				},
				"metallicFactor":0
			}
		},
		{
			"doubleSided":true,
			"extensions":{
				"KHR_materials_specular":{
					"specularColorFactor":[
						2.0,
						2.0,
						2.0
					]
				},
				"KHR_materials_ior":{
					"ior":1.4500000476837158
				}
			},
			"name":"building2",
			"pbrMetallicRoughness":{
				"baseColorTexture":{
					"index":1
				},
				"metallicFactor":0,
				"roughnessFactor":0.17924527823925018
			}
		},
		{
			"doubleSided":true,
			"emissiveFactor":[
				1,
				1,
				1
			],
			"name":"Glow2.001",
			"pbrMetallicRoughness":{
				"baseColorFactor":[
					0.800000011920929,
					0.800000011920929,
					0.800000011920929,
					1
				],
				"metallicFactor":0,
				"roughnessFactor":0.5
			}
		},
		{
			"doubleSided":true,
			"emissiveFactor":[
				1,
				0.2655798013274177,
				0.04142626284219435
			],
			"extensions":{
				"KHR_materials_emissive_strength":{
					"emissiveStrength":1.5982129573822021
				}
			},
			"name":"Glow1",
			"pbrMetallicRoughness":{
				"baseColorFactor":[
					0.8008996248245239,
					0.21048900485038757,
					0.033567022532224655,
					1
				],
				"metallicFactor":0
			}
		},
		{
			"doubleSided":true,
			"emissiveFactor":[
				0.0802171136311348,
				0.06480263589233753,
				1
			],
			"extensions":{
				"KHR_materials_emissive_strength":{
					"emissiveStrength":2.0000481605529785
				}
			},
			"name":"Glow5",
			"pbrMetallicRoughness":{
				"baseColorFactor":[
					0.08072357624769211,
					0.06527391821146011,
					1,
					1
				],
				"metallicFactor":0
			}
		},
		{
			"doubleSided":true,
			"emissiveFactor":[
				0.09784298909313212,
				1,
				0.08569416583338194
			],
			"extensions":{
				"KHR_materials_emissive_strength":{
					"emissiveStrength":1.5982129573822021
				}
			},
			"name":"Glow4",
			"pbrMetallicRoughness":{
				"baseColorFactor":[
					0.078976109623909,
					0.8012131452560425,
					0.06799241155385971,
					1
				],
				"metallicFactor":0
			}
		}
	],
	"meshes":[
		{
			"name":"Plane.754",
			"primitives":[
				{
					"attributes":{
						"POSITION":0,
						"NORMAL":1,
						"TEXCOORD_0":2
					},
					"indices":3,
					"material":0
				}
			]
		},
		{
			"name":"Torus.063",
			"primitives":[
				{
					"attributes":{
						"POSITION":4,
						"NORMAL":5,
						"TEXCOORD_0":6
					},
					"indices":7,
					"material":1
				},
				{
					"attributes":{
						"POSITION":8,
						"NORMAL":9,
						"TEXCOORD_0":10
					},
					"indices":11,
					"material":2
				}
			]
		},
		{
			"name":"Cube.548",
			"primitives":[
				{
					"attributes":{
						"POSITION":12,
						"NORMAL":13,
						"TEXCOORD_0":14
					},
					"indices":15,
					"material":1
				},
				{
					"attributes":{
						"POSITION":16,
						"NORMAL":17,
						"TEXCOORD_0":18
					},
					"indices":19,
					"material":3
				},
				{
					"attributes":{
						"POSITION":20,
						"NORMAL":21,
						"TEXCOORD_0":22
					},
					"indices":23,
					"material":3
				}
			]
		},
		{
			"name":"Cylinder.362",
			"primitives":[
				{
					"attributes":{
						"POSITION":24,
						"NORMAL":25,
						"TEXCOORD_0":26
					},
					"indices":27,
					"material":0
				},
				{
					"attributes":{
						"POSITION":28,
						"NORMAL":29,
						"TEXCOORD_0":30
					},
					"indices":31,
					"material":4
				},
				{
					"attributes":{
						"POSITION":32,
						"NORMAL":33,
						"TEXCOORD_0":34
					},
					"indices":35,
					"material":5
				},
				{
					"attributes":{
						"POSITION":36,
						"NORMAL":37,
						"TEXCOORD_0":38
					},
					"indices":39,
					"material":5
				}
			]
		}
	],
	"textures":[
		{
			"sampler":0,
			"source":0
		},
		{
			"sampler":0,
			"source":0
		}
	],
	"images":[
		{
			"mimeType":"image/png",
			"name":"AvatarWearables_TX",
			"uri":"tex/AvatarWearables_TX.png"
		}
	],
	"accessors":[
		{
			"bufferView":0,
			"componentType":5126,
			"count":50,
			"max":[
				0.5080313682556152,
				-14.900496482849121,
				0.508030891418457
			],
			"min":[
				-0.5080313682556152,
				-15.046426773071289,
				-0.5080318450927734
			],
			"type":"VEC3"
		},
		{
			"bufferView":1,
			"componentType":5126,
			"count":50,
			"type":"VEC3"
		},
		{
			"bufferView":2,
			"componentType":5126,
			"count":50,
			"type":"VEC2"
		},
		{
			"bufferView":3,
			"componentType":5123,
			"count":177,
			"type":"SCALAR"
		},
		{
			"bufferView":4,
			"componentType":5126,
			"count":110,
			"max":[
				-0.9899601340293884,
				-0.7148770689964294,
				-0.7023274302482605
			],
			"min":[
				-1.048261284828186,
				-1.0049761533737183,
				-0.7417095303535461
			],
			"type":"VEC3"
		},
		{
			"bufferView":5,
			"componentType":5126,
			"count":110,
			"type":"VEC3"
		},
		{
			"bufferView":6,
			"componentType":5126,
			"count":110,
			"type":"VEC2"
		},
		{
			"bufferView":7,
			"componentType":5123,
			"count":192,
			"type":"SCALAR"
		},
		{
			"bufferView":8,
			"componentType":5126,
			"count":8,
			"max":[
				-1.0147100687026978,
				-0.8240168690681458,
				-0.7223519086837769
			],
			"min":[
				-1.01865553855896,
				-0.8958362936973572,
				-0.7250134944915771
			],
			"type":"VEC3"
		},
		{
			"bufferView":9,
			"componentType":5126,
			"count":8,
			"type":"VEC3"
		},
		{
			"bufferView":10,
			"componentType":5126,
			"count":8,
			"type":"VEC2"
		},
		{
			"bufferView":11,
			"componentType":5123,
			"count":12,
			"type":"SCALAR"
		},
		{
			"bufferView":12,
			"componentType":5126,
			"count":622,
			"max":[
				-1.9926018714904785,
				0.012632131576538086,
				0.2911182641983032
			],
			"min":[
				-2.461282730102539,
				-3.978749990463257,
				-0.3530151844024658
			],
			"type":"VEC3"
		},
		{
			"bufferView":13,
			"componentType":5126,
			"count":622,
			"type":"VEC3"
		},
		{
			"bufferView":14,
			"componentType":5126,
			"count":622,
			"type":"VEC2"
		},
		{
			"bufferView":15,
			"componentType":5123,
			"count":1146,
			"type":"SCALAR"
		},
		{
			"bufferView":16,
			"componentType":5126,
			"count":88,
			"max":[
				-1.9925999641418457,
				0.012632608413696289,
				0.2583749294281006
			],
			"min":[
				-2.1289238929748535,
				-3.690941333770752,
				-0.35301756858825684
			],
			"type":"VEC3"
		},
		{
			"bufferView":17,
			"componentType":5126,
			"count":88,
			"type":"VEC3"
		},
		{
			"bufferView":18,
			"componentType":5126,
			"count":88,
			"type":"VEC2"
		},
		{
			"bufferView":19,
			"componentType":5123,
			"count":156,
			"type":"SCALAR"
		},
		{
			"bufferView":20,
			"componentType":5126,
			"count":313,
			"max":[
				-1.9925999641418457,
				0.012632608413696289,
				0.2911182641983032
			],
			"min":[
				-2.461282730102539,
				-3.978749990463257,
				-0.35301756858825684
			],
			"type":"VEC3"
		},
		{
			"bufferView":21,
			"componentType":5126,
			"count":313,
			"type":"VEC3"
		},
		{
			"bufferView":22,
			"componentType":5126,
			"count":313,
			"type":"VEC2"
		},
		{
			"bufferView":23,
			"componentType":5123,
			"count":978,
			"type":"SCALAR"
		},
		{
			"bufferView":24,
			"componentType":5126,
			"count":1317,
			"max":[
				-0.33560705184936523,
				0.7054154872894287,
				2.297522783279419
			],
			"min":[
				-2.297522783279419,
				-1.2320843935012817,
				1.0175955295562744
			],
			"type":"VEC3"
		},
		{
			"bufferView":25,
			"componentType":5126,
			"count":1317,
			"type":"VEC3"
		},
		{
			"bufferView":26,
			"componentType":5126,
			"count":1317,
			"type":"VEC2"
		},
		{
			"bufferView":27,
			"componentType":5123,
			"count":4425,
			"type":"SCALAR"
		},
		{
			"bufferView":28,
			"componentType":5126,
			"count":168,
			"max":[
				-0.4122042655944824,
				0.5149675607681274,
				2.297522783279419
			],
			"min":[
				-2.24812650680542,
				-1.0414433479309082,
				1.103754997253418
			],
			"type":"VEC3"
		},
		{
			"bufferView":29,
			"componentType":5126,
			"count":168,
			"type":"VEC3"
		},
		{
			"bufferView":30,
			"componentType":5126,
			"count":168,
			"type":"VEC2"
		},
		{
			"bufferView":31,
			"componentType":5123,
			"count":462,
			"type":"SCALAR"
		},
		{
			"bufferView":32,
			"componentType":5126,
			"count":348,
			"max":[
				-0.6216249465942383,
				0.6403830051422119,
				2.279066562652588
			],
			"min":[
				-2.038707733154297,
				-1.1661968231201172,
				1.764420747756958
			],
			"type":"VEC3"
		},
		{
			"bufferView":33,
			"componentType":5126,
			"count":348,
			"type":"VEC3"
		},
		{
			"bufferView":34,
			"componentType":5126,
			"count":348,
			"type":"VEC2"
		},
		{
			"bufferView":35,
			"componentType":5123,
			"count":768,
			"type":"SCALAR"
		},
		{
			"bufferView":36,
			"componentType":5126,
			"count":583,
			"max":[
				-0.39128774404525757,
				0.7054154872894287,
				2.297522783279419
			],
			"min":[
				-2.297522783279419,
				-1.2320843935012817,
				1.8261427879333496
			],
			"type":"VEC3"
		},
		{
			"bufferView":37,
			"componentType":5126,
			"count":583,
			"type":"VEC3"
		},
		{
			"bufferView":38,
			"componentType":5126,
			"count":583,
			"type":"VEC2"
		},
		{
			"bufferView":39,
			"componentType":5123,
			"count":1599,
			"type":"SCALAR"
		}
	],
	"bufferViews":[
		{
			"buffer":0,
			"byteLength":600,
			"byteOffset":0,
			"target":34962
		},
		{
			"buffer":0,
			"byteLength":600,
			"byteOffset":600,
			"target":34962
		},
		{
			"buffer":0,
			"byteLength":400,
			"byteOffset":1200,
			"target":34962
		},
		{
			"buffer":0,
			"byteLength":354,
			"byteOffset":1600,
			"target":34963
		},
		{
			"buffer":0,
			"byteLength":1320,
			"byteOffset":1956,
			"target":34962
		},
		{
			"buffer":0,
			"byteLength":1320,
			"byteOffset":3276,
			"target":34962
		},
		{
			"buffer":0,
			"byteLength":880,
			"byteOffset":4596,
			"target":34962
		},
		{
			"buffer":0,
			"byteLength":384,
			"byteOffset":5476,
			"target":34963
		},
		{
			"buffer":0,
			"byteLength":96,
			"byteOffset":5860,
			"target":34962
		},
		{
			"buffer":0,
			"byteLength":96,
			"byteOffset":5956,
			"target":34962
		},
		{
			"buffer":0,
			"byteLength":64,
			"byteOffset":6052,
			"target":34962
		},
		{
			"buffer":0,
			"byteLength":24,
			"byteOffset":6116,
			"target":34963
		},
		{
			"buffer":0,
			"byteLength":7464,
			"byteOffset":6140,
			"target":34962
		},
		{
			"buffer":0,
			"byteLength":7464,
			"byteOffset":13604,
			"target":34962
		},
		{
			"buffer":0,
			"byteLength":4976,
			"byteOffset":21068,
			"target":34962
		},
		{
			"buffer":0,
			"byteLength":2292,
			"byteOffset":26044,
			"target":34963
		},
		{
			"buffer":0,
			"byteLength":1056,
			"byteOffset":28336,
			"target":34962
		},
		{
			"buffer":0,
			"byteLength":1056,
			"byteOffset":29392,
			"target":34962
		},
		{
			"buffer":0,
			"byteLength":704,
			"byteOffset":30448,
			"target":34962
		},
		{
			"buffer":0,
			"byteLength":312,
			"byteOffset":31152,
			"target":34963
		},
		{
			"buffer":0,
			"byteLength":3756,
			"byteOffset":31464,
			"target":34962
		},
		{
			"buffer":0,
			"byteLength":3756,
			"byteOffset":35220,
			"target":34962
		},
		{
			"buffer":0,
			"byteLength":2504,
			"byteOffset":38976,
			"target":34962
		},
		{
			"buffer":0,
			"byteLength":1956,
			"byteOffset":41480,
			"target":34963
		},
		{
			"buffer":0,
			"byteLength":15804,
			"byteOffset":43436,
			"target":34962
		},
		{
			"buffer":0,
			"byteLength":15804,
			"byteOffset":59240,
			"target":34962
		},
		{
			"buffer":0,
			"byteLength":10536,
			"byteOffset":75044,
			"target":34962
		},
		{
			"buffer":0,
			"byteLength":8850,
			"byteOffset":85580,
			"target":34963
		},
		{
			"buffer":0,
			"byteLength":2016,
			"byteOffset":94432,
			"target":34962
		},
		{
			"buffer":0,
			"byteLength":2016,
			"byteOffset":96448,
			"target":34962
		},
		{
			"buffer":0,
			"byteLength":1344,
			"byteOffset":98464,
			"target":34962
		},
		{
			"buffer":0,
			"byteLength":924,
			"byteOffset":99808,
			"target":34963
		},
		{
			"buffer":0,
			"byteLength":4176,
			"byteOffset":100732,
			"target":34962
		},
		{
			"buffer":0,
			"byteLength":4176,
			"byteOffset":104908,
			"target":34962
		},
		{
			"buffer":0,
			"byteLength":2784,
			"byteOffset":109084,
			"target":34962
		},
		{
			"buffer":0,
			"byteLength":1536,
			"byteOffset":111868,
			"target":34963
		},
		{
			"buffer":0,
			"byteLength":6996,
			"byteOffset":113404,
			"target":34962
		},
		{
			"buffer":0,
			"byteLength":6996,
			"byteOffset":120400,
			"target":34962
		},
		{
			"buffer":0,
			"byteLength":4664,
			"byteOffset":127396,
			"target":34962
		},
		{
			"buffer":0,
			"byteLength":3198,
			"byteOffset":132060,
			"target":34963
		}
	],
	"samplers":[
		{
			"magFilter":9729,
			"minFilter":9987
		}
	],
	"buffers":[
		{
			"byteLength":135260,
			"uri":"tile_4_0_3.bin"
		}
	]
}
