{
	"asset":{
		"generator":"Khronos glTF Blender I/O v4.0.44",
		"version":"2.0"
	},
	"extensionsUsed":[
		"KHR_materials_specular",
		"KHR_materials_ior"
	],
	"scene":0,
	"scenes":[
		{
			"name":"Scene",
			"nodes":[
				0,
				1,
				2,
				3,
				4,
				5,
				6,
				7,
				8,
				9
			]
		}
	],
	"nodes":[
		{
			"mesh":0,
			"name":"Plane",
			"scale":[
				7.873531341552734,
				0.9841914176940918,
				7.873531341552734
			]
		},
		{
			"name":"track.202",
			"scale":[
				3.7706682682037354,
				3.7706682682037354,
				3.7706682682037354
			]
		},
		{
			"mesh":1,
			"name":"Cube.007"
		},
		{
			"mesh":2,
			"name":"Cube.077"
		},
		{
			"mesh":3,
			"name":"Cube.078"
		},
		{
			"mesh":4,
			"name":"Cube.079"
		},
		{
			"mesh":5,
			"name":"Cube.080"
		},
		{
			"mesh":6,
			"name":"Cube.081"
		},
		{
			"mesh":7,
			"name":"Cube.082"
		},
		{
			"mesh":8,
			"name":"Cube.083"
		}
	],
	"materials":[
		{
			"doubleSided":true,
			"extensions":{
				"KHR_materials_specular":{
					"specularColorFactor":[
						2.0,
						2.0,
						2.0
					]
				},
				"KHR_materials_ior":{
					"ior":1.4500000476837158
				}
			},
			"name":"building",
			"pbrMetallicRoughness":{
				"baseColorTexture":{
					"index":0
				},
				"metallicFactor":0
			}
		}
	],
	"meshes":[
		{
			"name":"Plane.1054",
			"primitives":[
				{
					"attributes":{
						"POSITION":0,
						"NORMAL":1,
						"TEXCOORD_0":2,
						"TANGENT":3
					},
					"indices":4,
					"material":0
				}
			]
		},
		{
			"name":"Cube.644",
			"primitives":[
				{
					"attributes":{
						"POSITION":5,
						"NORMAL":6,
						"TEXCOORD_0":7
					},
					"indices":8,
					"material":0
				}
			]
		},
		{
			"name":"Cube.645",
			"primitives":[
				{
					"attributes":{
						"POSITION":9,
						"NORMAL":10,
						"TEXCOORD_0":11,
						"TANGENT":12
					},
					"indices":13,
					"material":0
				}
			]
		},
		{
			"name":"Cube.646",
			"primitives":[
				{
					"attributes":{
						"POSITION":14,
						"NORMAL":15,
						"TEXCOORD_0":16,
						"TANGENT":17
					},
					"indices":18,
					"material":0
				},
				{
					"attributes":{
						"POSITION":19,
						"NORMAL":20,
						"TEXCOORD_0":21,
						"TANGENT":22
					},
					"indices":23,
					"material":0
				}
			]
		},
		{
			"name":"Cube.647",
			"primitives":[
				{
					"attributes":{
						"POSITION":24,
						"NORMAL":25,
						"TEXCOORD_0":26,
						"TANGENT":27
					},
					"indices":28,
					"material":0
				}
			]
		},
		{
			"name":"Cube.648",
			"primitives":[
				{
					"attributes":{
						"POSITION":29,
						"NORMAL":30,
						"TEXCOORD_0":31,
						"TANGENT":32
					},
					"indices":28,
					"material":0
				}
			]
		},
		{
			"name":"Cube.649",
			"primitives":[
				{
					"attributes":{
						"POSITION":33,
						"NORMAL":34,
						"TEXCOORD_0":35,
						"TANGENT":36
					},
					"indices":28,
					"material":0
				}
			]
		},
		{
			"name":"Cube.650",
			"primitives":[
				{
					"attributes":{
						"POSITION":37,
						"NORMAL":38,
						"TEXCOORD_0":39,
						"TANGENT":40
					},
					"indices":28,
					"material":0
				}
			]
		},
		{
			"name":"Cube.651",
			"primitives":[
				{
					"attributes":{
						"POSITION":41,
						"NORMAL":42,
						"TEXCOORD_0":43,
						"TANGENT":44
					},
					"indices":28,
					"material":0
				}
			]
		}
	],
	"textures":[
		{
			"sampler":0,
			"source":0
		}
	],
	"images":[
		{
			"mimeType":"image/png",
			"name":"AvatarWearables_TX",
			"uri":"tex/AvatarWearables_TX.png"
		}
	],
	"accessors":[
		{
			"bufferView":0,
			"componentType":5126,
			"count":36,
			"max":[
				0.5080313682556152,
				-14.900496482849121,
				0.5080313682556152
			],
			"min":[
				-0.5080313682556152,
				-14.900496482849121,
				-0.5080313682556152
			],
			"type":"VEC3"
		},
		{
			"bufferView":1,
			"componentType":5126,
			"count":36,
			"type":"VEC3"
		},
		{
			"bufferView":2,
			"componentType":5126,
			"count":36,
			"type":"VEC2"
		},
		{
			"bufferView":3,
			"componentType":5126,
			"count":36,
			"type":"VEC4"
		},
		{
			"bufferView":4,
			"componentType":5123,
			"count":150,
			"type":"SCALAR"
		},
		{
			"bufferView":5,
			"componentType":5126,
			"count":68,
			"max":[
				4,
				-11.940752983093262,
				-1.5214061737060547
			],
			"min":[
				1.216784954071045,
				-14.759161949157715,
				-4
			],
			"type":"VEC3"
		},
		{
			"bufferView":6,
			"componentType":5126,
			"count":68,
			"type":"VEC3"
		},
		{
			"bufferView":7,
			"componentType":5126,
			"count":68,
			"type":"VEC2"
		},
		{
			"bufferView":8,
			"componentType":5123,
			"count":144,
			"type":"SCALAR"
		},
		{
			"bufferView":9,
			"componentType":5126,
			"count":24,
			"max":[
				4,
				-14.049240112304688,
				-3.917593002319336
			],
			"min":[
				1.2712602615356445,
				-14.107187271118164,
				-4
			],
			"type":"VEC3"
		},
		{
			"bufferView":10,
			"componentType":5126,
			"count":24,
			"type":"VEC3"
		},
		{
			"bufferView":11,
			"componentType":5126,
			"count":24,
			"type":"VEC2"
		},
		{
			"bufferView":12,
			"componentType":5126,
			"count":24,
			"type":"VEC4"
		},
		{
			"bufferView":13,
			"componentType":5123,
			"count":36,
			"type":"SCALAR"
		},
		{
			"bufferView":14,
			"componentType":5126,
			"count":20,
			"max":[
				4,
				-13.759504318237305,
				-3.5458855628967285
			],
			"min":[
				1.2712602615356445,
				-13.817451477050781,
				-3.7317395210266113
			],
			"type":"VEC3"
		},
		{
			"bufferView":15,
			"componentType":5126,
			"count":20,
			"type":"VEC3"
		},
		{
			"bufferView":16,
			"componentType":5126,
			"count":20,
			"type":"VEC2"
		},
		{
			"bufferView":17,
			"componentType":5126,
			"count":20,
			"type":"VEC4"
		},
		{
			"bufferView":18,
			"componentType":5123,
			"count":30,
			"type":"SCALAR"
		},
		{
			"bufferView":19,
			"componentType":5126,
			"count":4,
			"max":[
				4,
				-13.759504318237305,
				-3.5458858013153076
			],
			"min":[
				4,
				-13.817451477050781,
				-3.7317395210266113
			],
			"type":"VEC3"
		},
		{
			"bufferView":20,
			"componentType":5126,
			"count":4,
			"type":"VEC3"
		},
		{
			"bufferView":21,
			"componentType":5126,
			"count":4,
			"type":"VEC2"
		},
		{
			"bufferView":22,
			"componentType":5126,
			"count":4,
			"type":"VEC4"
		},
		{
			"bufferView":23,
			"componentType":5123,
			"count":6,
			"type":"SCALAR"
		},
		{
			"bufferView":24,
			"componentType":5126,
			"count":24,
			"max":[
				4,
				-13.469769477844238,
				-3.1741783618927
			],
			"min":[
				1.2712602615356445,
				-13.527716636657715,
				-3.360032081604004
			],
			"type":"VEC3"
		},
		{
			"bufferView":25,
			"componentType":5126,
			"count":24,
			"type":"VEC3"
		},
		{
			"bufferView":26,
			"componentType":5126,
			"count":24,
			"type":"VEC2"
		},
		{
			"bufferView":27,
			"componentType":5126,
			"count":24,
			"type":"VEC4"
		},
		{
			"bufferView":28,
			"componentType":5123,
			"count":36,
			"type":"SCALAR"
		},
		{
			"bufferView":29,
			"componentType":5126,
			"count":24,
			"max":[
				4,
				-13.180034637451172,
				-2.8024709224700928
			],
			"min":[
				1.2712602615356445,
				-13.237981796264648,
				-2.9883248805999756
			],
			"type":"VEC3"
		},
		{
			"bufferView":30,
			"componentType":5126,
			"count":24,
			"type":"VEC3"
		},
		{
			"bufferView":31,
			"componentType":5126,
			"count":24,
			"type":"VEC2"
		},
		{
			"bufferView":32,
			"componentType":5126,
			"count":24,
			"type":"VEC4"
		},
		{
			"bufferView":33,
			"componentType":5126,
			"count":24,
			"max":[
				4,
				-12.890298843383789,
				-2.4307637214660645
			],
			"min":[
				1.2712602615356445,
				-12.948246002197266,
				-2.616617441177368
			],
			"type":"VEC3"
		},
		{
			"bufferView":34,
			"componentType":5126,
			"count":24,
			"type":"VEC3"
		},
		{
			"bufferView":35,
			"componentType":5126,
			"count":24,
			"type":"VEC2"
		},
		{
			"bufferView":36,
			"componentType":5126,
			"count":24,
			"type":"VEC4"
		},
		{
			"bufferView":37,
			"componentType":5126,
			"count":24,
			"max":[
				4,
				-12.600564002990723,
				-2.059056282043457
			],
			"min":[
				1.2712602615356445,
				-12.6585111618042,
				-2.24491024017334
			],
			"type":"VEC3"
		},
		{
			"bufferView":38,
			"componentType":5126,
			"count":24,
			"type":"VEC3"
		},
		{
			"bufferView":39,
			"componentType":5126,
			"count":24,
			"type":"VEC2"
		},
		{
			"bufferView":40,
			"componentType":5126,
			"count":24,
			"type":"VEC4"
		},
		{
			"bufferView":41,
			"componentType":5126,
			"count":24,
			"max":[
				4,
				-12.31082820892334,
				-1.6873489618301392
			],
			"min":[
				1.2712602615356445,
				-12.368775367736816,
				-1.8732030391693115
			],
			"type":"VEC3"
		},
		{
			"bufferView":42,
			"componentType":5126,
			"count":24,
			"type":"VEC3"
		},
		{
			"bufferView":43,
			"componentType":5126,
			"count":24,
			"type":"VEC2"
		},
		{
			"bufferView":44,
			"componentType":5126,
			"count":24,
			"type":"VEC4"
		}
	],
	"bufferViews":[
		{
			"buffer":0,
			"byteLength":432,
			"byteOffset":0,
			"target":34962
		},
		{
			"buffer":0,
			"byteLength":432,
			"byteOffset":432,
			"target":34962
		},
		{
			"buffer":0,
			"byteLength":288,
			"byteOffset":864,
			"target":34962
		},
		{
			"buffer":0,
			"byteLength":576,
			"byteOffset":1152,
			"target":34962
		},
		{
			"buffer":0,
			"byteLength":300,
			"byteOffset":1728,
			"target":34963
		},
		{
			"buffer":0,
			"byteLength":816,
			"byteOffset":2028,
			"target":34962
		},
		{
			"buffer":0,
			"byteLength":816,
			"byteOffset":2844,
			"target":34962
		},
		{
			"buffer":0,
			"byteLength":544,
			"byteOffset":3660,
			"target":34962
		},
		{
			"buffer":0,
			"byteLength":288,
			"byteOffset":4204,
			"target":34963
		},
		{
			"buffer":0,
			"byteLength":288,
			"byteOffset":4492,
			"target":34962
		},
		{
			"buffer":0,
			"byteLength":288,
			"byteOffset":4780,
			"target":34962
		},
		{
			"buffer":0,
			"byteLength":192,
			"byteOffset":5068,
			"target":34962
		},
		{
			"buffer":0,
			"byteLength":384,
			"byteOffset":5260,
			"target":34962
		},
		{
			"buffer":0,
			"byteLength":72,
			"byteOffset":5644,
			"target":34963
		},
		{
			"buffer":0,
			"byteLength":240,
			"byteOffset":5716,
			"target":34962
		},
		{
			"buffer":0,
			"byteLength":240,
			"byteOffset":5956,
			"target":34962
		},
		{
			"buffer":0,
			"byteLength":160,
			"byteOffset":6196,
			"target":34962
		},
		{
			"buffer":0,
			"byteLength":320,
			"byteOffset":6356,
			"target":34962
		},
		{
			"buffer":0,
			"byteLength":60,
			"byteOffset":6676,
			"target":34963
		},
		{
			"buffer":0,
			"byteLength":48,
			"byteOffset":6736,
			"target":34962
		},
		{
			"buffer":0,
			"byteLength":48,
			"byteOffset":6784,
			"target":34962
		},
		{
			"buffer":0,
			"byteLength":32,
			"byteOffset":6832,
			"target":34962
		},
		{
			"buffer":0,
			"byteLength":64,
			"byteOffset":6864,
			"target":34962
		},
		{
			"buffer":0,
			"byteLength":12,
			"byteOffset":6928,
			"target":34963
		},
		{
			"buffer":0,
			"byteLength":288,
			"byteOffset":6940,
			"target":34962
		},
		{
			"buffer":0,
			"byteLength":288,
			"byteOffset":7228,
			"target":34962
		},
		{
			"buffer":0,
			"byteLength":192,
			"byteOffset":7516,
			"target":34962
		},
		{
			"buffer":0,
			"byteLength":384,
			"byteOffset":7708,
			"target":34962
		},
		{
			"buffer":0,
			"byteLength":72,
			"byteOffset":8092,
			"target":34963
		},
		{
			"buffer":0,
			"byteLength":288,
			"byteOffset":8164,
			"target":34962
		},
		{
			"buffer":0,
			"byteLength":288,
			"byteOffset":8452,
			"target":34962
		},
		{
			"buffer":0,
			"byteLength":192,
			"byteOffset":8740,
			"target":34962
		},
		{
			"buffer":0,
			"byteLength":384,
			"byteOffset":8932,
			"target":34962
		},
		{
			"buffer":0,
			"byteLength":288,
			"byteOffset":9316,
			"target":34962
		},
		{
			"buffer":0,
			"byteLength":288,
			"byteOffset":9604,
			"target":34962
		},
		{
			"buffer":0,
			"byteLength":192,
			"byteOffset":9892,
			"target":34962
		},
		{
			"buffer":0,
			"byteLength":384,
			"byteOffset":10084,
			"target":34962
		},
		{
			"buffer":0,
			"byteLength":288,
			"byteOffset":10468,
			"target":34962
		},
		{
			"buffer":0,
			"byteLength":288,
			"byteOffset":10756,
			"target":34962
		},
		{
			"buffer":0,
			"byteLength":192,
			"byteOffset":11044,
			"target":34962
		},
		{
			"buffer":0,
			"byteLength":384,
			"byteOffset":11236,
			"target":34962
		},
		{
			"buffer":0,
			"byteLength":288,
			"byteOffset":11620,
			"target":34962
		},
		{
			"buffer":0,
			"byteLength":288,
			"byteOffset":11908,
			"target":34962
		},
		{
			"buffer":0,
			"byteLength":192,
			"byteOffset":12196,
			"target":34962
		},
		{
			"buffer":0,
			"byteLength":384,
			"byteOffset":12388,
			"target":34962
		}
	],
	"samplers":[
		{
			"magFilter":9729,
			"minFilter":9987
		}
	],
	"buffers":[
		{
			"byteLength":12772,
			"uri":"tile_16_0_9.bin"
		}
	]
}
