{
	"asset":{
		"generator":"Khronos glTF Blender I/O v4.0.44",
		"version":"2.0"
	},
	"extensionsUsed":[
		"KHR_materials_specular",
		"KHR_materials_ior",
		"KHR_materials_emissive_strength"
	],
	"scene":0,
	"scenes":[
		{
			"name":"Scene",
			"nodes":[
				0,
				1,
				2,
				3
			]
		}
	],
	"nodes":[
		{
			"mesh":0,
			"name":"Plane",
			"scale":[
				7.873531341552734,
				0.9841914176940918,
				7.873531341552734
			]
		},
		{
			"mesh":1,
			"name":"track.243",
			"scale":[
				3.7706682682037354,
				3.7706682682037354,
				3.7706682682037354
			]
		},
		{
			"mesh":2,
			"name":"Torus.034",
			"rotation":[
				0,
				-0.6667748093605042,
				0,
				0.7452592253684998
			],
			"scale":[
				4.712549209594727,
				18.45949363708496,
				4.712549209594727
			]
		},
		{
			"mesh":3,
			"name":"Cylinder.002",
			"scale":[
				1.741005539894104,
				11.939791679382324,
				1.741005539894104
			]
		}
	],
	"materials":[
		{
			"doubleSided":true,
			"extensions":{
				"KHR_materials_specular":{
					"specularColorFactor":[
						2.0,
						2.0,
						2.0
					]
				},
				"KHR_materials_ior":{
					"ior":1.4500000476837158
				}
			},
			"name":"building",
			"pbrMetallicRoughness":{
				"baseColorTexture":{
					"index":0
				},
				"metallicFactor":0
			}
		},
		{
			"doubleSided":true,
			"extensions":{
				"KHR_materials_specular":{
					"specularColorFactor":[
						2.0,
						2.0,
						2.0
					]
				},
				"KHR_materials_ior":{
					"ior":1.4500000476837158
				}
			},
			"name":"building2",
			"pbrMetallicRoughness":{
				"baseColorTexture":{
					"index":1
				},
				"metallicFactor":0,
				"roughnessFactor":0.17924527823925018
			}
		},
		{
			"doubleSided":true,
			"emissiveFactor":[
				0.0802171136311348,
				0.06480263589233753,
				1
			],
			"extensions":{
				"KHR_materials_emissive_strength":{
					"emissiveStrength":2.0000481605529785
				}
			},
			"name":"Glow5",
			"pbrMetallicRoughness":{
				"baseColorFactor":[
					0.08072357624769211,
					0.06527391821146011,
					1,
					1
				],
				"metallicFactor":0
			}
		},
		{
			"doubleSided":true,
			"emissiveFactor":[
				1,
				0.10824445978162396,
				1
			],
			"extensions":{
				"KHR_materials_emissive_strength":{
					"emissiveStrength":1.5982129573822021
				}
			},
			"name":"Glow7",
			"pbrMetallicRoughness":{
				"baseColorFactor":[
					0.7954351902008057,
					0.08631403744220734,
					0.8003629446029663,
					1
				],
				"metallicFactor":0
			}
		},
		{
			"doubleSided":true,
			"emissiveFactor":[
				1,
				0.2655798013274177,
				0.04142626284219435
			],
			"extensions":{
				"KHR_materials_emissive_strength":{
					"emissiveStrength":1.5982129573822021
				}
			},
			"name":"Glow1",
			"pbrMetallicRoughness":{
				"baseColorFactor":[
					0.8008996248245239,
					0.21048900485038757,
					0.033567022532224655,
					1
				],
				"metallicFactor":0
			}
		}
	],
	"meshes":[
		{
			"name":"Plane.1136",
			"primitives":[
				{
					"attributes":{
						"POSITION":0,
						"NORMAL":1,
						"TEXCOORD_0":2,
						"TANGENT":3
					},
					"indices":4,
					"material":0
				}
			]
		},
		{
			"name":"Plane.1137",
			"primitives":[
				{
					"attributes":{
						"POSITION":5,
						"NORMAL":6,
						"TEXCOORD_0":7
					},
					"indices":8,
					"material":0
				}
			]
		},
		{
			"name":"Torus.082",
			"primitives":[
				{
					"attributes":{
						"POSITION":9,
						"NORMAL":10,
						"TEXCOORD_0":11
					},
					"indices":12,
					"material":1
				},
				{
					"attributes":{
						"POSITION":13,
						"NORMAL":14,
						"TEXCOORD_0":15
					},
					"indices":16,
					"material":2
				},
				{
					"attributes":{
						"POSITION":17,
						"NORMAL":18,
						"TEXCOORD_0":19
					},
					"indices":20,
					"material":2
				}
			]
		},
		{
			"name":"Cylinder.463",
			"primitives":[
				{
					"attributes":{
						"POSITION":21,
						"NORMAL":22,
						"TEXCOORD_0":23
					},
					"indices":24,
					"material":1
				},
				{
					"attributes":{
						"POSITION":25,
						"NORMAL":26,
						"TEXCOORD_0":27
					},
					"indices":28,
					"material":3
				},
				{
					"attributes":{
						"POSITION":29,
						"NORMAL":30,
						"TEXCOORD_0":31
					},
					"indices":32,
					"material":4
				}
			]
		}
	],
	"textures":[
		{
			"sampler":0,
			"source":0
		},
		{
			"sampler":0,
			"source":0
		}
	],
	"images":[
		{
			"mimeType":"image/png",
			"name":"AvatarWearables_TX",
			"uri":"tex/AvatarWearables_TX.png"
		}
	],
	"accessors":[
		{
			"bufferView":0,
			"componentType":5126,
			"count":36,
			"max":[
				0.5080327987670898,
				-14.900496482849121,
				0.5080311298370361
			],
			"min":[
				-0.5080289840698242,
				-14.900496482849121,
				-0.5080316066741943
			],
			"type":"VEC3"
		},
		{
			"bufferView":1,
			"componentType":5126,
			"count":36,
			"type":"VEC3"
		},
		{
			"bufferView":2,
			"componentType":5126,
			"count":36,
			"type":"VEC2"
		},
		{
			"bufferView":3,
			"componentType":5126,
			"count":36,
			"type":"VEC4"
		},
		{
			"bufferView":4,
			"componentType":5123,
			"count":150,
			"type":"SCALAR"
		},
		{
			"bufferView":5,
			"componentType":5126,
			"count":35,
			"max":[
				1.0608158111572266,
				-3.5396416187286377,
				1.0608196258544922
			],
			"min":[
				0.3911170959472656,
				-4.243279933929443,
				0.6974477767944336
			],
			"type":"VEC3"
		},
		{
			"bufferView":6,
			"componentType":5126,
			"count":35,
			"type":"VEC3"
		},
		{
			"bufferView":7,
			"componentType":5126,
			"count":35,
			"type":"VEC2"
		},
		{
			"bufferView":8,
			"componentType":5123,
			"count":63,
			"type":"SCALAR"
		},
		{
			"bufferView":9,
			"componentType":5126,
			"count":840,
			"max":[
				-0.0019322037696838379,
				-0.316320538520813,
				0.13201719522476196
			],
			"min":[
				-0.8687788844108582,
				-0.8135814666748047,
				-0.6731544733047485
			],
			"type":"VEC3"
		},
		{
			"bufferView":10,
			"componentType":5126,
			"count":840,
			"type":"VEC3"
		},
		{
			"bufferView":11,
			"componentType":5126,
			"count":840,
			"type":"VEC2"
		},
		{
			"bufferView":12,
			"componentType":5123,
			"count":1290,
			"type":"SCALAR"
		},
		{
			"bufferView":13,
			"componentType":5126,
			"count":134,
			"max":[
				-0.07600963115692139,
				-0.338870108127594,
				0.09537982940673828
			],
			"min":[
				-0.8646934628486633,
				-0.7705904245376587,
				-0.6284077167510986
			],
			"type":"VEC3"
		},
		{
			"bufferView":14,
			"componentType":5126,
			"count":134,
			"type":"VEC3"
		},
		{
			"bufferView":15,
			"componentType":5126,
			"count":134,
			"type":"VEC2"
		},
		{
			"bufferView":16,
			"componentType":5123,
			"count":234,
			"type":"SCALAR"
		},
		{
			"bufferView":17,
			"componentType":5126,
			"count":54,
			"max":[
				-0.7915915250778198,
				-0.316320538520813,
				0.13201719522476196
			],
			"min":[
				-0.8687788844108582,
				-0.8135814666748047,
				-0.5601868629455566
			],
			"type":"VEC3"
		},
		{
			"bufferView":18,
			"componentType":5126,
			"count":54,
			"type":"VEC3"
		},
		{
			"bufferView":19,
			"componentType":5126,
			"count":54,
			"type":"VEC2"
		},
		{
			"bufferView":20,
			"componentType":5123,
			"count":156,
			"type":"SCALAR"
		},
		{
			"bufferView":21,
			"componentType":5126,
			"count":1692,
			"max":[
				-0.5931410789489746,
				0.7054154872894287,
				0.4076792001724243
			],
			"min":[
				-2.297522783279419,
				-1.2320843935012817,
				-1.5923221111297607
			],
			"type":"VEC3"
		},
		{
			"bufferView":22,
			"componentType":5126,
			"count":1692,
			"type":"VEC3"
		},
		{
			"bufferView":23,
			"componentType":5126,
			"count":1692,
			"type":"VEC2"
		},
		{
			"bufferView":24,
			"componentType":5123,
			"count":5577,
			"type":"SCALAR"
		},
		{
			"bufferView":25,
			"componentType":5126,
			"count":238,
			"max":[
				-0.6697382926940918,
				0.5149675607681274,
				0.32975876331329346
			],
			"min":[
				-2.297522783279419,
				-1.0414433479309082,
				-1.5061626434326172
			],
			"type":"VEC3"
		},
		{
			"bufferView":26,
			"componentType":5126,
			"count":238,
			"type":"VEC3"
		},
		{
			"bufferView":27,
			"componentType":5126,
			"count":238,
			"type":"VEC2"
		},
		{
			"bufferView":28,
			"componentType":5123,
			"count":630,
			"type":"SCALAR"
		},
		{
			"bufferView":29,
			"componentType":5126,
			"count":348,
			"max":[
				-0.8791589736938477,
				0.6403830051422119,
				-0.3308510482311249
			],
			"min":[
				-2.2962417602539062,
				-1.1661968231201172,
				-0.8454968929290771
			],
			"type":"VEC3"
		},
		{
			"bufferView":30,
			"componentType":5126,
			"count":348,
			"type":"VEC3"
		},
		{
			"bufferView":31,
			"componentType":5126,
			"count":348,
			"type":"VEC2"
		},
		{
			"bufferView":32,
			"componentType":5123,
			"count":768,
			"type":"SCALAR"
		}
	],
	"bufferViews":[
		{
			"buffer":0,
			"byteLength":432,
			"byteOffset":0,
			"target":34962
		},
		{
			"buffer":0,
			"byteLength":432,
			"byteOffset":432,
			"target":34962
		},
		{
			"buffer":0,
			"byteLength":288,
			"byteOffset":864,
			"target":34962
		},
		{
			"buffer":0,
			"byteLength":576,
			"byteOffset":1152,
			"target":34962
		},
		{
			"buffer":0,
			"byteLength":300,
			"byteOffset":1728,
			"target":34963
		},
		{
			"buffer":0,
			"byteLength":420,
			"byteOffset":2028,
			"target":34962
		},
		{
			"buffer":0,
			"byteLength":420,
			"byteOffset":2448,
			"target":34962
		},
		{
			"buffer":0,
			"byteLength":280,
			"byteOffset":2868,
			"target":34962
		},
		{
			"buffer":0,
			"byteLength":126,
			"byteOffset":3148,
			"target":34963
		},
		{
			"buffer":0,
			"byteLength":10080,
			"byteOffset":3276,
			"target":34962
		},
		{
			"buffer":0,
			"byteLength":10080,
			"byteOffset":13356,
			"target":34962
		},
		{
			"buffer":0,
			"byteLength":6720,
			"byteOffset":23436,
			"target":34962
		},
		{
			"buffer":0,
			"byteLength":2580,
			"byteOffset":30156,
			"target":34963
		},
		{
			"buffer":0,
			"byteLength":1608,
			"byteOffset":32736,
			"target":34962
		},
		{
			"buffer":0,
			"byteLength":1608,
			"byteOffset":34344,
			"target":34962
		},
		{
			"buffer":0,
			"byteLength":1072,
			"byteOffset":35952,
			"target":34962
		},
		{
			"buffer":0,
			"byteLength":468,
			"byteOffset":37024,
			"target":34963
		},
		{
			"buffer":0,
			"byteLength":648,
			"byteOffset":37492,
			"target":34962
		},
		{
			"buffer":0,
			"byteLength":648,
			"byteOffset":38140,
			"target":34962
		},
		{
			"buffer":0,
			"byteLength":432,
			"byteOffset":38788,
			"target":34962
		},
		{
			"buffer":0,
			"byteLength":312,
			"byteOffset":39220,
			"target":34963
		},
		{
			"buffer":0,
			"byteLength":20304,
			"byteOffset":39532,
			"target":34962
		},
		{
			"buffer":0,
			"byteLength":20304,
			"byteOffset":59836,
			"target":34962
		},
		{
			"buffer":0,
			"byteLength":13536,
			"byteOffset":80140,
			"target":34962
		},
		{
			"buffer":0,
			"byteLength":11154,
			"byteOffset":93676,
			"target":34963
		},
		{
			"buffer":0,
			"byteLength":2856,
			"byteOffset":104832,
			"target":34962
		},
		{
			"buffer":0,
			"byteLength":2856,
			"byteOffset":107688,
			"target":34962
		},
		{
			"buffer":0,
			"byteLength":1904,
			"byteOffset":110544,
			"target":34962
		},
		{
			"buffer":0,
			"byteLength":1260,
			"byteOffset":112448,
			"target":34963
		},
		{
			"buffer":0,
			"byteLength":4176,
			"byteOffset":113708,
			"target":34962
		},
		{
			"buffer":0,
			"byteLength":4176,
			"byteOffset":117884,
			"target":34962
		},
		{
			"buffer":0,
			"byteLength":2784,
			"byteOffset":122060,
			"target":34962
		},
		{
			"buffer":0,
			"byteLength":1536,
			"byteOffset":124844,
			"target":34963
		}
	],
	"samplers":[
		{
			"magFilter":9729,
			"minFilter":9987
		}
	],
	"buffers":[
		{
			"byteLength":126380,
			"uri":"tile_20_0_2.bin"
		}
	]
}
