{
	"asset":{
		"generator":"Khronos glTF Blender I/O v4.0.44",
		"version":"2.0"
	},
	"extensionsUsed":[
		"KHR_materials_specular",
		"KHR_materials_ior",
		"KHR_materials_emissive_strength"
	],
	"scene":0,
	"scenes":[
		{
			"name":"Scene",
			"nodes":[
				0,
				1,
				2
			]
		}
	],
	"nodes":[
		{
			"mesh":0,
			"name":"Plane",
			"scale":[
				7.873531341552734,
				0.9841914176940918,
				7.873531341552734
			]
		},
		{
			"name":"track.213",
			"scale":[
				3.7706682682037354,
				3.7706682682037354,
				3.7706682682037354
			]
		},
		{
			"mesh":1,
			"name":"Icosphere",
			"scale":[
				1.2608476877212524,
				1.2608476877212524,
				1.2608476877212524
			]
		}
	],
	"materials":[
		{
			"doubleSided":true,
			"extensions":{
				"KHR_materials_specular":{
					"specularColorFactor":[
						2.0,
						2.0,
						2.0
					]
				},
				"KHR_materials_ior":{
					"ior":1.4500000476837158
				}
			},
			"name":"building",
			"pbrMetallicRoughness":{
				"baseColorTexture":{
					"index":0
				},
				"metallicFactor":0
			}
		},
		{
			"doubleSided":true,
			"extensions":{
				"KHR_materials_specular":{
					"specularColorFactor":[
						2.0,
						2.0,
						2.0
					]
				},
				"KHR_materials_ior":{
					"ior":1.4500000476837158
				}
			},
			"name":"building2",
			"pbrMetallicRoughness":{
				"baseColorTexture":{
					"index":1
				},
				"metallicFactor":0,
				"roughnessFactor":0.17924527823925018
			}
		},
		{
			"doubleSided":true,
			"emissiveFactor":[
				1,
				1,
				1
			],
			"extensions":{
				"KHR_materials_emissive_strength":{
					"emissiveStrength":4
				}
			},
			"name":"Glow2",
			"pbrMetallicRoughness":{
				"baseColorFactor":[
					0.800000011920929,
					0.800000011920929,
					0.800000011920929,
					1
				],
				"metallicFactor":0,
				"roughnessFactor":0.5
			}
		}
	],
	"meshes":[
		{
			"name":"Plane.1076",
			"primitives":[
				{
					"attributes":{
						"POSITION":0,
						"NORMAL":1,
						"TEXCOORD_0":2,
						"TANGENT":3
					},
					"indices":4,
					"material":0
				}
			]
		},
		{
			"name":"Icosphere.052",
			"primitives":[
				{
					"attributes":{
						"POSITION":5,
						"NORMAL":6,
						"TEXCOORD_0":7
					},
					"indices":8,
					"material":1
				},
				{
					"attributes":{
						"POSITION":9,
						"NORMAL":10,
						"TEXCOORD_0":11
					},
					"indices":12,
					"material":2
				},
				{
					"attributes":{
						"POSITION":13,
						"NORMAL":14,
						"TEXCOORD_0":15
					},
					"indices":16,
					"material":2
				}
			]
		}
	],
	"textures":[
		{
			"sampler":0,
			"source":0
		},
		{
			"sampler":0,
			"source":0
		}
	],
	"images":[
		{
			"mimeType":"image/png",
			"name":"AvatarWearables_TX",
			"uri":"tex/AvatarWearables_TX.png"
		}
	],
	"accessors":[
		{
			"bufferView":0,
			"componentType":5126,
			"count":36,
			"max":[
				0.508033275604248,
				-14.900496482849121,
				0.5080304145812988
			],
			"min":[
				-0.5080294609069824,
				-14.900496482849121,
				-0.5080323219299316
			],
			"type":"VEC3"
		},
		{
			"bufferView":1,
			"componentType":5126,
			"count":36,
			"type":"VEC3"
		},
		{
			"bufferView":2,
			"componentType":5126,
			"count":36,
			"type":"VEC2"
		},
		{
			"bufferView":3,
			"componentType":5126,
			"count":36,
			"type":"VEC4"
		},
		{
			"bufferView":4,
			"componentType":5123,
			"count":150,
			"type":"SCALAR"
		},
		{
			"bufferView":5,
			"componentType":5126,
			"count":122,
			"max":[
				0.7731962203979492,
				1.625788688659668,
				3.172468662261963
			],
			"min":[
				-3.172468662261963,
				-11.697598457336426,
				-0.06904888153076172
			],
			"type":"VEC3"
		},
		{
			"bufferView":6,
			"componentType":5126,
			"count":122,
			"type":"VEC3"
		},
		{
			"bufferView":7,
			"componentType":5126,
			"count":122,
			"type":"VEC2"
		},
		{
			"bufferView":8,
			"componentType":5123,
			"count":426,
			"type":"SCALAR"
		},
		{
			"bufferView":9,
			"componentType":5126,
			"count":31,
			"max":[
				-0.502687931060791,
				0.756098747253418,
				3.172468662261963
			],
			"min":[
				-3.172468662261963,
				-5.367580413818359,
				0.952233076095581
			],
			"type":"VEC3"
		},
		{
			"bufferView":10,
			"componentType":5126,
			"count":31,
			"type":"VEC3"
		},
		{
			"bufferView":11,
			"componentType":5126,
			"count":31,
			"type":"VEC2"
		},
		{
			"bufferView":12,
			"componentType":5123,
			"count":39,
			"type":"SCALAR"
		},
		{
			"bufferView":13,
			"componentType":5126,
			"count":82,
			"max":[
				0.7731962203979492,
				1.625788688659668,
				3.172468662261963
			],
			"min":[
				-3.172468662261963,
				-6.118227005004883,
				-0.06904888153076172
			],
			"type":"VEC3"
		},
		{
			"bufferView":14,
			"componentType":5126,
			"count":82,
			"type":"VEC3"
		},
		{
			"bufferView":15,
			"componentType":5126,
			"count":82,
			"type":"VEC2"
		},
		{
			"bufferView":16,
			"componentType":5123,
			"count":234,
			"type":"SCALAR"
		}
	],
	"bufferViews":[
		{
			"buffer":0,
			"byteLength":432,
			"byteOffset":0,
			"target":34962
		},
		{
			"buffer":0,
			"byteLength":432,
			"byteOffset":432,
			"target":34962
		},
		{
			"buffer":0,
			"byteLength":288,
			"byteOffset":864,
			"target":34962
		},
		{
			"buffer":0,
			"byteLength":576,
			"byteOffset":1152,
			"target":34962
		},
		{
			"buffer":0,
			"byteLength":300,
			"byteOffset":1728,
			"target":34963
		},
		{
			"buffer":0,
			"byteLength":1464,
			"byteOffset":2028,
			"target":34962
		},
		{
			"buffer":0,
			"byteLength":1464,
			"byteOffset":3492,
			"target":34962
		},
		{
			"buffer":0,
			"byteLength":976,
			"byteOffset":4956,
			"target":34962
		},
		{
			"buffer":0,
			"byteLength":852,
			"byteOffset":5932,
			"target":34963
		},
		{
			"buffer":0,
			"byteLength":372,
			"byteOffset":6784,
			"target":34962
		},
		{
			"buffer":0,
			"byteLength":372,
			"byteOffset":7156,
			"target":34962
		},
		{
			"buffer":0,
			"byteLength":248,
			"byteOffset":7528,
			"target":34962
		},
		{
			"buffer":0,
			"byteLength":78,
			"byteOffset":7776,
			"target":34963
		},
		{
			"buffer":0,
			"byteLength":984,
			"byteOffset":7856,
			"target":34962
		},
		{
			"buffer":0,
			"byteLength":984,
			"byteOffset":8840,
			"target":34962
		},
		{
			"buffer":0,
			"byteLength":656,
			"byteOffset":9824,
			"target":34962
		},
		{
			"buffer":0,
			"byteLength":468,
			"byteOffset":10480,
			"target":34963
		}
	],
	"samplers":[
		{
			"magFilter":9729,
			"minFilter":9987
		}
	],
	"buffers":[
		{
			"byteLength":10948,
			"uri":"tile_17_0_8.bin"
		}
	]
}
