{
	"asset":{
		"generator":"Khronos glTF Blender I/O v4.0.44",
		"version":"2.0"
	},
	"extensionsUsed":[
		"KHR_materials_specular",
		"KHR_materials_ior",
		"KHR_materials_emissive_strength"
	],
	"scene":0,
	"scenes":[
		{
			"name":"Scene",
			"nodes":[
				0,
				1,
				2,
				3,
				4,
				5
			]
		}
	],
	"nodes":[
		{
			"mesh":0,
			"name":"Plane",
			"scale":[
				7.873531341552734,
				0.9841914176940918,
				7.873531341552734
			]
		},
		{
			"mesh":1,
			"name":"Plane.001",
			"scale":[
				3.7706682682037354,
				3.7706682682037354,
				3.7706682682037354
			]
		},
		{
			"mesh":2,
			"name":"Torus.006",
			"rotation":[
				0.6081892251968384,
				0.3607020080089569,
				-0.3607020378112793,
				0.6081892251968384
			],
			"scale":[
				0.9492738246917725,
				0.9492738246917725,
				0.9492737650871277
			]
		},
		{
			"mesh":3,
			"name":"Cube.008",
			"rotation":[
				0,
				-0.33594903349876404,
				0,
				0.9418801665306091
			],
			"scale":[
				1.4092042446136475,
				1.409204125404358,
				1.4092042446136475
			]
		},
		{
			"mesh":4,
			"name":"Cube.009"
		},
		{
			"mesh":5,
			"name":"Cylinder.019",
			"rotation":[
				0,
				0.9276466965675354,
				0,
				0.3734590709209442
			],
			"scale":[
				0.4827125668525696,
				2.6737141609191895,
				0.4827125668525696
			]
		}
	],
	"materials":[
		{
			"doubleSided":true,
			"extensions":{
				"KHR_materials_specular":{
					"specularColorFactor":[
						2.0,
						2.0,
						2.0
					]
				},
				"KHR_materials_ior":{
					"ior":1.4500000476837158
				}
			},
			"name":"building",
			"pbrMetallicRoughness":{
				"baseColorTexture":{
					"index":0
				},
				"metallicFactor":0
			}
		},
		{
			"doubleSided":true,
			"emissiveFactor":[
				1,
				0.003797386313042906,
				0
			],
			"extensions":{
				"KHR_materials_emissive_strength":{
					"emissiveStrength":7.991064786911011
				}
			},
			"name":"Glow9",
			"pbrMetallicRoughness":{
				"baseColorFactor":[
					0.8000000715255737,
					0.0031031807884573936,
					0,
					1
				],
				"metallicFactor":0
			}
		},
		{
			"doubleSided":true,
			"emissiveFactor":[
				1,
				1,
				1
			],
			"extensions":{
				"KHR_materials_emissive_strength":{
					"emissiveStrength":4
				}
			},
			"name":"Glow2",
			"pbrMetallicRoughness":{
				"baseColorFactor":[
					0.800000011920929,
					0.800000011920929,
					0.800000011920929,
					1
				],
				"metallicFactor":0,
				"roughnessFactor":0.5
			}
		}
	],
	"meshes":[
		{
			"name":"Plane.068",
			"primitives":[
				{
					"attributes":{
						"POSITION":0,
						"NORMAL":1,
						"TEXCOORD_0":2,
						"TANGENT":3
					},
					"indices":4,
					"material":0
				}
			]
		},
		{
			"name":"Plane.069",
			"primitives":[
				{
					"attributes":{
						"POSITION":5,
						"NORMAL":6,
						"TEXCOORD_0":7
					},
					"indices":8,
					"material":0
				}
			]
		},
		{
			"name":"Torus.016",
			"primitives":[
				{
					"attributes":{
						"POSITION":9,
						"NORMAL":10,
						"TEXCOORD_0":11
					},
					"indices":12,
					"material":0
				},
				{
					"attributes":{
						"POSITION":13,
						"NORMAL":14,
						"TEXCOORD_0":15
					},
					"indices":16,
					"material":1
				},
				{
					"attributes":{
						"POSITION":17,
						"NORMAL":18,
						"TEXCOORD_0":19
					},
					"indices":20,
					"material":2
				}
			]
		},
		{
			"name":"Cube.035",
			"primitives":[
				{
					"attributes":{
						"POSITION":21,
						"NORMAL":22,
						"TEXCOORD_0":23,
						"TANGENT":24
					},
					"indices":25,
					"material":0
				}
			]
		},
		{
			"name":"Cube.037",
			"primitives":[
				{
					"attributes":{
						"POSITION":26,
						"NORMAL":27,
						"TEXCOORD_0":28
					},
					"indices":29,
					"material":0
				}
			]
		},
		{
			"name":"Cylinder.040",
			"primitives":[
				{
					"attributes":{
						"POSITION":30,
						"NORMAL":31,
						"TEXCOORD_0":32
					},
					"indices":33,
					"material":0
				},
				{
					"attributes":{
						"POSITION":34,
						"NORMAL":35,
						"TEXCOORD_0":36
					},
					"indices":37,
					"material":0
				}
			]
		}
	],
	"textures":[
		{
			"sampler":0,
			"source":0
		}
	],
	"images":[
		{
			"mimeType":"image/png",
			"name":"AvatarWearables_TX",
			"uri":"tex/AvatarWearables_TX.png"
		}
	],
	"accessors":[
		{
			"bufferView":0,
			"componentType":5126,
			"count":100,
			"max":[
				1.0160632133483887,
				-6.77199649810791,
				1.016061544418335
			],
			"min":[
				-1.0160622596740723,
				-6.77199649810791,
				-1.0160632133483887
			],
			"type":"VEC3"
		},
		{
			"bufferView":1,
			"componentType":5126,
			"count":100,
			"type":"VEC3"
		},
		{
			"bufferView":2,
			"componentType":5126,
			"count":100,
			"type":"VEC2"
		},
		{
			"bufferView":3,
			"componentType":5126,
			"count":100,
			"type":"VEC4"
		},
		{
			"bufferView":4,
			"componentType":5123,
			"count":486,
			"type":"SCALAR"
		},
		{
			"bufferView":5,
			"componentType":5126,
			"count":156,
			"max":[
				2.121638298034668,
				-1.4127352237701416,
				2.1216397285461426
			],
			"min":[
				-2.121640205383301,
				-2.1216399669647217,
				-2.121640205383301
			],
			"type":"VEC3"
		},
		{
			"bufferView":6,
			"componentType":5126,
			"count":156,
			"type":"VEC3"
		},
		{
			"bufferView":7,
			"componentType":5126,
			"count":156,
			"type":"VEC2"
		},
		{
			"bufferView":8,
			"componentType":5123,
			"count":276,
			"type":"SCALAR"
		},
		{
			"bufferView":9,
			"componentType":5126,
			"count":1059,
			"max":[
				8.074667930603027,
				-1.623021125793457,
				7.074267387390137
			],
			"min":[
				3.6566457748413086,
				-6.400796890258789,
				-1.341893196105957
			],
			"type":"VEC3"
		},
		{
			"bufferView":10,
			"componentType":5126,
			"count":1059,
			"type":"VEC3"
		},
		{
			"bufferView":11,
			"componentType":5126,
			"count":1059,
			"type":"VEC2"
		},
		{
			"bufferView":12,
			"componentType":5123,
			"count":4563,
			"type":"SCALAR"
		},
		{
			"bufferView":13,
			"componentType":5126,
			"count":61,
			"max":[
				8.074557304382324,
				-2.3609094619750977,
				7.0338921546936035
			],
			"min":[
				3.6603307723999023,
				-5.498305320739746,
				-0.3086128234863281
			],
			"type":"VEC3"
		},
		{
			"bufferView":14,
			"componentType":5126,
			"count":61,
			"type":"VEC3"
		},
		{
			"bufferView":15,
			"componentType":5126,
			"count":61,
			"type":"VEC2"
		},
		{
			"bufferView":16,
			"componentType":5123,
			"count":171,
			"type":"SCALAR"
		},
		{
			"bufferView":17,
			"componentType":5126,
			"count":94,
			"max":[
				7.545302391052246,
				-1.623021125793457,
				7.074267387390137
			],
			"min":[
				4.46396541595459,
				-6.400796890258789,
				-1.1228570938110352
			],
			"type":"VEC3"
		},
		{
			"bufferView":18,
			"componentType":5126,
			"count":94,
			"type":"VEC3"
		},
		{
			"bufferView":19,
			"componentType":5126,
			"count":94,
			"type":"VEC2"
		},
		{
			"bufferView":20,
			"componentType":5123,
			"count":264,
			"type":"SCALAR"
		},
		{
			"bufferView":21,
			"componentType":5126,
			"count":186,
			"max":[
				4.588783264160156,
				-2.7964391708374023,
				-0.26886415481567383
			],
			"min":[
				-2.155529260635376,
				-4.798324108123779,
				-2.3391265869140625
			],
			"type":"VEC3"
		},
		{
			"bufferView":22,
			"componentType":5126,
			"count":186,
			"type":"VEC3"
		},
		{
			"bufferView":23,
			"componentType":5126,
			"count":186,
			"type":"VEC2"
		},
		{
			"bufferView":24,
			"componentType":5126,
			"count":186,
			"type":"VEC4"
		},
		{
			"bufferView":25,
			"componentType":5123,
			"count":384,
			"type":"SCALAR"
		},
		{
			"bufferView":26,
			"componentType":5126,
			"count":72,
			"max":[
				-6.93838357925415,
				-5.759504795074463,
				8
			],
			"min":[
				-8,
				-6.759161472320557,
				7.132297515869141
			],
			"type":"VEC3"
		},
		{
			"bufferView":27,
			"componentType":5126,
			"count":72,
			"type":"VEC3"
		},
		{
			"bufferView":28,
			"componentType":5126,
			"count":72,
			"type":"VEC2"
		},
		{
			"bufferView":29,
			"componentType":5123,
			"count":108,
			"type":"SCALAR"
		},
		{
			"bufferView":30,
			"componentType":5126,
			"count":73,
			"max":[
				-16.747299194335938,
				0.15670275688171387,
				6.131131172180176
			],
			"min":[
				-19.090118408203125,
				-1.641721248626709,
				4.052603721618652
			],
			"type":"VEC3"
		},
		{
			"bufferView":31,
			"componentType":5126,
			"count":73,
			"type":"VEC3"
		},
		{
			"bufferView":32,
			"componentType":5126,
			"count":73,
			"type":"VEC2"
		},
		{
			"bufferView":33,
			"componentType":5123,
			"count":87,
			"type":"SCALAR"
		},
		{
			"bufferView":34,
			"componentType":5126,
			"count":19,
			"max":[
				-17.092824935913086,
				0.15670275688171387,
				6.131131172180176
			],
			"min":[
				-19.090118408203125,
				-1.641721248626709,
				4.052603721618652
			],
			"type":"VEC3"
		},
		{
			"bufferView":35,
			"componentType":5126,
			"count":19,
			"type":"VEC3"
		},
		{
			"bufferView":36,
			"componentType":5126,
			"count":19,
			"type":"VEC2"
		},
		{
			"bufferView":37,
			"componentType":5123,
			"count":45,
			"type":"SCALAR"
		}
	],
	"bufferViews":[
		{
			"buffer":0,
			"byteLength":1200,
			"byteOffset":0,
			"target":34962
		},
		{
			"buffer":0,
			"byteLength":1200,
			"byteOffset":1200,
			"target":34962
		},
		{
			"buffer":0,
			"byteLength":800,
			"byteOffset":2400,
			"target":34962
		},
		{
			"buffer":0,
			"byteLength":1600,
			"byteOffset":3200,
			"target":34962
		},
		{
			"buffer":0,
			"byteLength":972,
			"byteOffset":4800,
			"target":34963
		},
		{
			"buffer":0,
			"byteLength":1872,
			"byteOffset":5772,
			"target":34962
		},
		{
			"buffer":0,
			"byteLength":1872,
			"byteOffset":7644,
			"target":34962
		},
		{
			"buffer":0,
			"byteLength":1248,
			"byteOffset":9516,
			"target":34962
		},
		{
			"buffer":0,
			"byteLength":552,
			"byteOffset":10764,
			"target":34963
		},
		{
			"buffer":0,
			"byteLength":12708,
			"byteOffset":11316,
			"target":34962
		},
		{
			"buffer":0,
			"byteLength":12708,
			"byteOffset":24024,
			"target":34962
		},
		{
			"buffer":0,
			"byteLength":8472,
			"byteOffset":36732,
			"target":34962
		},
		{
			"buffer":0,
			"byteLength":9126,
			"byteOffset":45204,
			"target":34963
		},
		{
			"buffer":0,
			"byteLength":732,
			"byteOffset":54332,
			"target":34962
		},
		{
			"buffer":0,
			"byteLength":732,
			"byteOffset":55064,
			"target":34962
		},
		{
			"buffer":0,
			"byteLength":488,
			"byteOffset":55796,
			"target":34962
		},
		{
			"buffer":0,
			"byteLength":342,
			"byteOffset":56284,
			"target":34963
		},
		{
			"buffer":0,
			"byteLength":1128,
			"byteOffset":56628,
			"target":34962
		},
		{
			"buffer":0,
			"byteLength":1128,
			"byteOffset":57756,
			"target":34962
		},
		{
			"buffer":0,
			"byteLength":752,
			"byteOffset":58884,
			"target":34962
		},
		{
			"buffer":0,
			"byteLength":528,
			"byteOffset":59636,
			"target":34963
		},
		{
			"buffer":0,
			"byteLength":2232,
			"byteOffset":60164,
			"target":34962
		},
		{
			"buffer":0,
			"byteLength":2232,
			"byteOffset":62396,
			"target":34962
		},
		{
			"buffer":0,
			"byteLength":1488,
			"byteOffset":64628,
			"target":34962
		},
		{
			"buffer":0,
			"byteLength":2976,
			"byteOffset":66116,
			"target":34962
		},
		{
			"buffer":0,
			"byteLength":768,
			"byteOffset":69092,
			"target":34963
		},
		{
			"buffer":0,
			"byteLength":864,
			"byteOffset":69860,
			"target":34962
		},
		{
			"buffer":0,
			"byteLength":864,
			"byteOffset":70724,
			"target":34962
		},
		{
			"buffer":0,
			"byteLength":576,
			"byteOffset":71588,
			"target":34962
		},
		{
			"buffer":0,
			"byteLength":216,
			"byteOffset":72164,
			"target":34963
		},
		{
			"buffer":0,
			"byteLength":876,
			"byteOffset":72380,
			"target":34962
		},
		{
			"buffer":0,
			"byteLength":876,
			"byteOffset":73256,
			"target":34962
		},
		{
			"buffer":0,
			"byteLength":584,
			"byteOffset":74132,
			"target":34962
		},
		{
			"buffer":0,
			"byteLength":174,
			"byteOffset":74716,
			"target":34963
		},
		{
			"buffer":0,
			"byteLength":228,
			"byteOffset":74892,
			"target":34962
		},
		{
			"buffer":0,
			"byteLength":228,
			"byteOffset":75120,
			"target":34962
		},
		{
			"buffer":0,
			"byteLength":152,
			"byteOffset":75348,
			"target":34962
		},
		{
			"buffer":0,
			"byteLength":90,
			"byteOffset":75500,
			"target":34963
		}
	],
	"samplers":[
		{
			"magFilter":9729,
			"minFilter":9987
		}
	],
	"buffers":[
		{
			"byteLength":75592,
			"uri":"tile_3_1_4.bin"
		}
	]
}
